G75*
%MOIN*%
%OFA0B0*%
%FSLAX25Y25*%
%IPPOS*%
%LPD*%
%AMOC8*
5,1,8,0,0,1.08239X$1,22.5*
%
%ADD10C,0.00000*%
%ADD11R,0.04331X0.03937*%
%ADD12R,0.03937X0.04331*%
%ADD13R,0.03150X0.03150*%
%ADD14R,0.04724X0.03150*%
%ADD15C,0.07400*%
%ADD16R,0.05906X0.03937*%
%ADD17R,0.07874X0.03937*%
%ADD18C,0.08661*%
%ADD19R,0.03150X0.01378*%
%ADD20R,0.08000X0.08000*%
%ADD21C,0.08000*%
%ADD22R,0.04200X0.01000*%
%ADD23R,0.07400X0.07400*%
%ADD24C,0.01000*%
%ADD25R,0.02559X0.08661*%
%ADD26R,0.02756X0.05906*%
%ADD27R,0.05906X0.02756*%
%ADD28R,0.05709X0.01575*%
%ADD29R,0.05906X0.07087*%
%ADD30R,0.05906X0.09843*%
%ADD31R,0.03150X0.03543*%
%ADD32R,0.03150X0.04724*%
%ADD33R,0.03543X0.03937*%
%ADD34C,0.00700*%
%ADD35C,0.01600*%
%ADD36C,0.02400*%
%ADD37C,0.00800*%
%ADD38C,0.02500*%
%ADD39C,0.05315*%
%ADD40C,0.04134*%
D10*
X0016926Y0012600D02*
X0016926Y0082600D01*
X0356926Y0082600D01*
X0356926Y0012600D01*
X0016926Y0012600D01*
X0095676Y0047600D02*
X0095678Y0047758D01*
X0095684Y0047915D01*
X0095694Y0048073D01*
X0095708Y0048230D01*
X0095726Y0048386D01*
X0095747Y0048543D01*
X0095773Y0048698D01*
X0095803Y0048853D01*
X0095836Y0049007D01*
X0095874Y0049160D01*
X0095915Y0049313D01*
X0095960Y0049464D01*
X0096009Y0049614D01*
X0096062Y0049762D01*
X0096118Y0049910D01*
X0096179Y0050055D01*
X0096242Y0050200D01*
X0096310Y0050342D01*
X0096381Y0050483D01*
X0096455Y0050622D01*
X0096533Y0050759D01*
X0096615Y0050894D01*
X0096699Y0051027D01*
X0096788Y0051158D01*
X0096879Y0051286D01*
X0096974Y0051413D01*
X0097071Y0051536D01*
X0097172Y0051658D01*
X0097276Y0051776D01*
X0097383Y0051892D01*
X0097493Y0052005D01*
X0097605Y0052116D01*
X0097721Y0052223D01*
X0097839Y0052328D01*
X0097959Y0052430D01*
X0098082Y0052528D01*
X0098208Y0052624D01*
X0098336Y0052716D01*
X0098466Y0052805D01*
X0098598Y0052891D01*
X0098733Y0052973D01*
X0098870Y0053052D01*
X0099008Y0053127D01*
X0099148Y0053199D01*
X0099291Y0053267D01*
X0099434Y0053332D01*
X0099580Y0053393D01*
X0099727Y0053450D01*
X0099875Y0053504D01*
X0100025Y0053554D01*
X0100175Y0053600D01*
X0100327Y0053642D01*
X0100480Y0053681D01*
X0100634Y0053715D01*
X0100789Y0053746D01*
X0100944Y0053772D01*
X0101100Y0053795D01*
X0101257Y0053814D01*
X0101414Y0053829D01*
X0101571Y0053840D01*
X0101729Y0053847D01*
X0101887Y0053850D01*
X0102044Y0053849D01*
X0102202Y0053844D01*
X0102359Y0053835D01*
X0102517Y0053822D01*
X0102673Y0053805D01*
X0102830Y0053784D01*
X0102985Y0053760D01*
X0103140Y0053731D01*
X0103295Y0053698D01*
X0103448Y0053662D01*
X0103601Y0053621D01*
X0103752Y0053577D01*
X0103902Y0053529D01*
X0104051Y0053478D01*
X0104199Y0053422D01*
X0104345Y0053363D01*
X0104490Y0053300D01*
X0104633Y0053233D01*
X0104774Y0053163D01*
X0104913Y0053090D01*
X0105051Y0053013D01*
X0105187Y0052932D01*
X0105320Y0052848D01*
X0105451Y0052761D01*
X0105580Y0052670D01*
X0105707Y0052576D01*
X0105832Y0052479D01*
X0105953Y0052379D01*
X0106073Y0052276D01*
X0106189Y0052170D01*
X0106303Y0052061D01*
X0106415Y0051949D01*
X0106523Y0051835D01*
X0106628Y0051717D01*
X0106731Y0051597D01*
X0106830Y0051475D01*
X0106926Y0051350D01*
X0107019Y0051222D01*
X0107109Y0051093D01*
X0107195Y0050961D01*
X0107279Y0050827D01*
X0107358Y0050691D01*
X0107435Y0050553D01*
X0107507Y0050413D01*
X0107576Y0050271D01*
X0107642Y0050128D01*
X0107704Y0049983D01*
X0107762Y0049836D01*
X0107817Y0049688D01*
X0107868Y0049539D01*
X0107915Y0049388D01*
X0107958Y0049237D01*
X0107997Y0049084D01*
X0108033Y0048930D01*
X0108064Y0048776D01*
X0108092Y0048621D01*
X0108116Y0048465D01*
X0108136Y0048308D01*
X0108152Y0048151D01*
X0108164Y0047994D01*
X0108172Y0047837D01*
X0108176Y0047679D01*
X0108176Y0047521D01*
X0108172Y0047363D01*
X0108164Y0047206D01*
X0108152Y0047049D01*
X0108136Y0046892D01*
X0108116Y0046735D01*
X0108092Y0046579D01*
X0108064Y0046424D01*
X0108033Y0046270D01*
X0107997Y0046116D01*
X0107958Y0045963D01*
X0107915Y0045812D01*
X0107868Y0045661D01*
X0107817Y0045512D01*
X0107762Y0045364D01*
X0107704Y0045217D01*
X0107642Y0045072D01*
X0107576Y0044929D01*
X0107507Y0044787D01*
X0107435Y0044647D01*
X0107358Y0044509D01*
X0107279Y0044373D01*
X0107195Y0044239D01*
X0107109Y0044107D01*
X0107019Y0043978D01*
X0106926Y0043850D01*
X0106830Y0043725D01*
X0106731Y0043603D01*
X0106628Y0043483D01*
X0106523Y0043365D01*
X0106415Y0043251D01*
X0106303Y0043139D01*
X0106189Y0043030D01*
X0106073Y0042924D01*
X0105953Y0042821D01*
X0105832Y0042721D01*
X0105707Y0042624D01*
X0105580Y0042530D01*
X0105451Y0042439D01*
X0105320Y0042352D01*
X0105187Y0042268D01*
X0105051Y0042187D01*
X0104913Y0042110D01*
X0104774Y0042037D01*
X0104633Y0041967D01*
X0104490Y0041900D01*
X0104345Y0041837D01*
X0104199Y0041778D01*
X0104051Y0041722D01*
X0103902Y0041671D01*
X0103752Y0041623D01*
X0103601Y0041579D01*
X0103448Y0041538D01*
X0103295Y0041502D01*
X0103140Y0041469D01*
X0102985Y0041440D01*
X0102830Y0041416D01*
X0102673Y0041395D01*
X0102517Y0041378D01*
X0102359Y0041365D01*
X0102202Y0041356D01*
X0102044Y0041351D01*
X0101887Y0041350D01*
X0101729Y0041353D01*
X0101571Y0041360D01*
X0101414Y0041371D01*
X0101257Y0041386D01*
X0101100Y0041405D01*
X0100944Y0041428D01*
X0100789Y0041454D01*
X0100634Y0041485D01*
X0100480Y0041519D01*
X0100327Y0041558D01*
X0100175Y0041600D01*
X0100025Y0041646D01*
X0099875Y0041696D01*
X0099727Y0041750D01*
X0099580Y0041807D01*
X0099434Y0041868D01*
X0099291Y0041933D01*
X0099148Y0042001D01*
X0099008Y0042073D01*
X0098870Y0042148D01*
X0098733Y0042227D01*
X0098598Y0042309D01*
X0098466Y0042395D01*
X0098336Y0042484D01*
X0098208Y0042576D01*
X0098082Y0042672D01*
X0097959Y0042770D01*
X0097839Y0042872D01*
X0097721Y0042977D01*
X0097605Y0043084D01*
X0097493Y0043195D01*
X0097383Y0043308D01*
X0097276Y0043424D01*
X0097172Y0043542D01*
X0097071Y0043664D01*
X0096974Y0043787D01*
X0096879Y0043914D01*
X0096788Y0044042D01*
X0096699Y0044173D01*
X0096615Y0044306D01*
X0096533Y0044441D01*
X0096455Y0044578D01*
X0096381Y0044717D01*
X0096310Y0044858D01*
X0096242Y0045000D01*
X0096179Y0045145D01*
X0096118Y0045290D01*
X0096062Y0045438D01*
X0096009Y0045586D01*
X0095960Y0045736D01*
X0095915Y0045887D01*
X0095874Y0046040D01*
X0095836Y0046193D01*
X0095803Y0046347D01*
X0095773Y0046502D01*
X0095747Y0046657D01*
X0095726Y0046814D01*
X0095708Y0046970D01*
X0095694Y0047127D01*
X0095684Y0047285D01*
X0095678Y0047442D01*
X0095676Y0047600D01*
X0290376Y0047600D02*
X0290378Y0047758D01*
X0290384Y0047915D01*
X0290394Y0048073D01*
X0290408Y0048230D01*
X0290426Y0048386D01*
X0290447Y0048543D01*
X0290473Y0048698D01*
X0290503Y0048853D01*
X0290536Y0049007D01*
X0290574Y0049160D01*
X0290615Y0049313D01*
X0290660Y0049464D01*
X0290709Y0049614D01*
X0290762Y0049762D01*
X0290818Y0049910D01*
X0290879Y0050055D01*
X0290942Y0050200D01*
X0291010Y0050342D01*
X0291081Y0050483D01*
X0291155Y0050622D01*
X0291233Y0050759D01*
X0291315Y0050894D01*
X0291399Y0051027D01*
X0291488Y0051158D01*
X0291579Y0051286D01*
X0291674Y0051413D01*
X0291771Y0051536D01*
X0291872Y0051658D01*
X0291976Y0051776D01*
X0292083Y0051892D01*
X0292193Y0052005D01*
X0292305Y0052116D01*
X0292421Y0052223D01*
X0292539Y0052328D01*
X0292659Y0052430D01*
X0292782Y0052528D01*
X0292908Y0052624D01*
X0293036Y0052716D01*
X0293166Y0052805D01*
X0293298Y0052891D01*
X0293433Y0052973D01*
X0293570Y0053052D01*
X0293708Y0053127D01*
X0293848Y0053199D01*
X0293991Y0053267D01*
X0294134Y0053332D01*
X0294280Y0053393D01*
X0294427Y0053450D01*
X0294575Y0053504D01*
X0294725Y0053554D01*
X0294875Y0053600D01*
X0295027Y0053642D01*
X0295180Y0053681D01*
X0295334Y0053715D01*
X0295489Y0053746D01*
X0295644Y0053772D01*
X0295800Y0053795D01*
X0295957Y0053814D01*
X0296114Y0053829D01*
X0296271Y0053840D01*
X0296429Y0053847D01*
X0296587Y0053850D01*
X0296744Y0053849D01*
X0296902Y0053844D01*
X0297059Y0053835D01*
X0297217Y0053822D01*
X0297373Y0053805D01*
X0297530Y0053784D01*
X0297685Y0053760D01*
X0297840Y0053731D01*
X0297995Y0053698D01*
X0298148Y0053662D01*
X0298301Y0053621D01*
X0298452Y0053577D01*
X0298602Y0053529D01*
X0298751Y0053478D01*
X0298899Y0053422D01*
X0299045Y0053363D01*
X0299190Y0053300D01*
X0299333Y0053233D01*
X0299474Y0053163D01*
X0299613Y0053090D01*
X0299751Y0053013D01*
X0299887Y0052932D01*
X0300020Y0052848D01*
X0300151Y0052761D01*
X0300280Y0052670D01*
X0300407Y0052576D01*
X0300532Y0052479D01*
X0300653Y0052379D01*
X0300773Y0052276D01*
X0300889Y0052170D01*
X0301003Y0052061D01*
X0301115Y0051949D01*
X0301223Y0051835D01*
X0301328Y0051717D01*
X0301431Y0051597D01*
X0301530Y0051475D01*
X0301626Y0051350D01*
X0301719Y0051222D01*
X0301809Y0051093D01*
X0301895Y0050961D01*
X0301979Y0050827D01*
X0302058Y0050691D01*
X0302135Y0050553D01*
X0302207Y0050413D01*
X0302276Y0050271D01*
X0302342Y0050128D01*
X0302404Y0049983D01*
X0302462Y0049836D01*
X0302517Y0049688D01*
X0302568Y0049539D01*
X0302615Y0049388D01*
X0302658Y0049237D01*
X0302697Y0049084D01*
X0302733Y0048930D01*
X0302764Y0048776D01*
X0302792Y0048621D01*
X0302816Y0048465D01*
X0302836Y0048308D01*
X0302852Y0048151D01*
X0302864Y0047994D01*
X0302872Y0047837D01*
X0302876Y0047679D01*
X0302876Y0047521D01*
X0302872Y0047363D01*
X0302864Y0047206D01*
X0302852Y0047049D01*
X0302836Y0046892D01*
X0302816Y0046735D01*
X0302792Y0046579D01*
X0302764Y0046424D01*
X0302733Y0046270D01*
X0302697Y0046116D01*
X0302658Y0045963D01*
X0302615Y0045812D01*
X0302568Y0045661D01*
X0302517Y0045512D01*
X0302462Y0045364D01*
X0302404Y0045217D01*
X0302342Y0045072D01*
X0302276Y0044929D01*
X0302207Y0044787D01*
X0302135Y0044647D01*
X0302058Y0044509D01*
X0301979Y0044373D01*
X0301895Y0044239D01*
X0301809Y0044107D01*
X0301719Y0043978D01*
X0301626Y0043850D01*
X0301530Y0043725D01*
X0301431Y0043603D01*
X0301328Y0043483D01*
X0301223Y0043365D01*
X0301115Y0043251D01*
X0301003Y0043139D01*
X0300889Y0043030D01*
X0300773Y0042924D01*
X0300653Y0042821D01*
X0300532Y0042721D01*
X0300407Y0042624D01*
X0300280Y0042530D01*
X0300151Y0042439D01*
X0300020Y0042352D01*
X0299887Y0042268D01*
X0299751Y0042187D01*
X0299613Y0042110D01*
X0299474Y0042037D01*
X0299333Y0041967D01*
X0299190Y0041900D01*
X0299045Y0041837D01*
X0298899Y0041778D01*
X0298751Y0041722D01*
X0298602Y0041671D01*
X0298452Y0041623D01*
X0298301Y0041579D01*
X0298148Y0041538D01*
X0297995Y0041502D01*
X0297840Y0041469D01*
X0297685Y0041440D01*
X0297530Y0041416D01*
X0297373Y0041395D01*
X0297217Y0041378D01*
X0297059Y0041365D01*
X0296902Y0041356D01*
X0296744Y0041351D01*
X0296587Y0041350D01*
X0296429Y0041353D01*
X0296271Y0041360D01*
X0296114Y0041371D01*
X0295957Y0041386D01*
X0295800Y0041405D01*
X0295644Y0041428D01*
X0295489Y0041454D01*
X0295334Y0041485D01*
X0295180Y0041519D01*
X0295027Y0041558D01*
X0294875Y0041600D01*
X0294725Y0041646D01*
X0294575Y0041696D01*
X0294427Y0041750D01*
X0294280Y0041807D01*
X0294134Y0041868D01*
X0293991Y0041933D01*
X0293848Y0042001D01*
X0293708Y0042073D01*
X0293570Y0042148D01*
X0293433Y0042227D01*
X0293298Y0042309D01*
X0293166Y0042395D01*
X0293036Y0042484D01*
X0292908Y0042576D01*
X0292782Y0042672D01*
X0292659Y0042770D01*
X0292539Y0042872D01*
X0292421Y0042977D01*
X0292305Y0043084D01*
X0292193Y0043195D01*
X0292083Y0043308D01*
X0291976Y0043424D01*
X0291872Y0043542D01*
X0291771Y0043664D01*
X0291674Y0043787D01*
X0291579Y0043914D01*
X0291488Y0044042D01*
X0291399Y0044173D01*
X0291315Y0044306D01*
X0291233Y0044441D01*
X0291155Y0044578D01*
X0291081Y0044717D01*
X0291010Y0044858D01*
X0290942Y0045000D01*
X0290879Y0045145D01*
X0290818Y0045290D01*
X0290762Y0045438D01*
X0290709Y0045586D01*
X0290660Y0045736D01*
X0290615Y0045887D01*
X0290574Y0046040D01*
X0290536Y0046193D01*
X0290503Y0046347D01*
X0290473Y0046502D01*
X0290447Y0046657D01*
X0290426Y0046814D01*
X0290408Y0046970D01*
X0290394Y0047127D01*
X0290384Y0047285D01*
X0290378Y0047442D01*
X0290376Y0047600D01*
X0338591Y0041480D02*
X0338593Y0041561D01*
X0338599Y0041643D01*
X0338609Y0041724D01*
X0338623Y0041804D01*
X0338640Y0041883D01*
X0338662Y0041962D01*
X0338687Y0042039D01*
X0338716Y0042116D01*
X0338749Y0042190D01*
X0338786Y0042263D01*
X0338825Y0042334D01*
X0338869Y0042403D01*
X0338915Y0042470D01*
X0338965Y0042534D01*
X0339018Y0042596D01*
X0339074Y0042656D01*
X0339132Y0042712D01*
X0339194Y0042766D01*
X0339258Y0042817D01*
X0339324Y0042864D01*
X0339392Y0042908D01*
X0339463Y0042949D01*
X0339535Y0042986D01*
X0339610Y0043020D01*
X0339685Y0043050D01*
X0339763Y0043076D01*
X0339841Y0043099D01*
X0339920Y0043117D01*
X0340000Y0043132D01*
X0340081Y0043143D01*
X0340162Y0043150D01*
X0340244Y0043153D01*
X0340325Y0043152D01*
X0340406Y0043147D01*
X0340487Y0043138D01*
X0340568Y0043125D01*
X0340648Y0043108D01*
X0340726Y0043088D01*
X0340804Y0043063D01*
X0340881Y0043035D01*
X0340956Y0043003D01*
X0341029Y0042968D01*
X0341100Y0042929D01*
X0341170Y0042886D01*
X0341237Y0042841D01*
X0341303Y0042792D01*
X0341365Y0042740D01*
X0341425Y0042684D01*
X0341482Y0042626D01*
X0341537Y0042566D01*
X0341588Y0042502D01*
X0341636Y0042437D01*
X0341681Y0042369D01*
X0341723Y0042299D01*
X0341761Y0042227D01*
X0341796Y0042153D01*
X0341827Y0042078D01*
X0341854Y0042001D01*
X0341877Y0041923D01*
X0341897Y0041844D01*
X0341913Y0041764D01*
X0341925Y0041683D01*
X0341933Y0041602D01*
X0341937Y0041521D01*
X0341937Y0041439D01*
X0341933Y0041358D01*
X0341925Y0041277D01*
X0341913Y0041196D01*
X0341897Y0041116D01*
X0341877Y0041037D01*
X0341854Y0040959D01*
X0341827Y0040882D01*
X0341796Y0040807D01*
X0341761Y0040733D01*
X0341723Y0040661D01*
X0341681Y0040591D01*
X0341636Y0040523D01*
X0341588Y0040458D01*
X0341537Y0040394D01*
X0341482Y0040334D01*
X0341425Y0040276D01*
X0341365Y0040220D01*
X0341303Y0040168D01*
X0341237Y0040119D01*
X0341170Y0040074D01*
X0341101Y0040031D01*
X0341029Y0039992D01*
X0340956Y0039957D01*
X0340881Y0039925D01*
X0340804Y0039897D01*
X0340726Y0039872D01*
X0340648Y0039852D01*
X0340568Y0039835D01*
X0340487Y0039822D01*
X0340406Y0039813D01*
X0340325Y0039808D01*
X0340244Y0039807D01*
X0340162Y0039810D01*
X0340081Y0039817D01*
X0340000Y0039828D01*
X0339920Y0039843D01*
X0339841Y0039861D01*
X0339763Y0039884D01*
X0339685Y0039910D01*
X0339610Y0039940D01*
X0339535Y0039974D01*
X0339463Y0040011D01*
X0339392Y0040052D01*
X0339324Y0040096D01*
X0339258Y0040143D01*
X0339194Y0040194D01*
X0339132Y0040248D01*
X0339074Y0040304D01*
X0339018Y0040364D01*
X0338965Y0040426D01*
X0338915Y0040490D01*
X0338869Y0040557D01*
X0338825Y0040626D01*
X0338786Y0040697D01*
X0338749Y0040770D01*
X0338716Y0040844D01*
X0338687Y0040921D01*
X0338662Y0040998D01*
X0338640Y0041077D01*
X0338623Y0041156D01*
X0338609Y0041236D01*
X0338599Y0041317D01*
X0338593Y0041399D01*
X0338591Y0041480D01*
X0338591Y0026520D02*
X0338593Y0026601D01*
X0338599Y0026683D01*
X0338609Y0026764D01*
X0338623Y0026844D01*
X0338640Y0026923D01*
X0338662Y0027002D01*
X0338687Y0027079D01*
X0338716Y0027156D01*
X0338749Y0027230D01*
X0338786Y0027303D01*
X0338825Y0027374D01*
X0338869Y0027443D01*
X0338915Y0027510D01*
X0338965Y0027574D01*
X0339018Y0027636D01*
X0339074Y0027696D01*
X0339132Y0027752D01*
X0339194Y0027806D01*
X0339258Y0027857D01*
X0339324Y0027904D01*
X0339392Y0027948D01*
X0339463Y0027989D01*
X0339535Y0028026D01*
X0339610Y0028060D01*
X0339685Y0028090D01*
X0339763Y0028116D01*
X0339841Y0028139D01*
X0339920Y0028157D01*
X0340000Y0028172D01*
X0340081Y0028183D01*
X0340162Y0028190D01*
X0340244Y0028193D01*
X0340325Y0028192D01*
X0340406Y0028187D01*
X0340487Y0028178D01*
X0340568Y0028165D01*
X0340648Y0028148D01*
X0340726Y0028128D01*
X0340804Y0028103D01*
X0340881Y0028075D01*
X0340956Y0028043D01*
X0341029Y0028008D01*
X0341100Y0027969D01*
X0341170Y0027926D01*
X0341237Y0027881D01*
X0341303Y0027832D01*
X0341365Y0027780D01*
X0341425Y0027724D01*
X0341482Y0027666D01*
X0341537Y0027606D01*
X0341588Y0027542D01*
X0341636Y0027477D01*
X0341681Y0027409D01*
X0341723Y0027339D01*
X0341761Y0027267D01*
X0341796Y0027193D01*
X0341827Y0027118D01*
X0341854Y0027041D01*
X0341877Y0026963D01*
X0341897Y0026884D01*
X0341913Y0026804D01*
X0341925Y0026723D01*
X0341933Y0026642D01*
X0341937Y0026561D01*
X0341937Y0026479D01*
X0341933Y0026398D01*
X0341925Y0026317D01*
X0341913Y0026236D01*
X0341897Y0026156D01*
X0341877Y0026077D01*
X0341854Y0025999D01*
X0341827Y0025922D01*
X0341796Y0025847D01*
X0341761Y0025773D01*
X0341723Y0025701D01*
X0341681Y0025631D01*
X0341636Y0025563D01*
X0341588Y0025498D01*
X0341537Y0025434D01*
X0341482Y0025374D01*
X0341425Y0025316D01*
X0341365Y0025260D01*
X0341303Y0025208D01*
X0341237Y0025159D01*
X0341170Y0025114D01*
X0341101Y0025071D01*
X0341029Y0025032D01*
X0340956Y0024997D01*
X0340881Y0024965D01*
X0340804Y0024937D01*
X0340726Y0024912D01*
X0340648Y0024892D01*
X0340568Y0024875D01*
X0340487Y0024862D01*
X0340406Y0024853D01*
X0340325Y0024848D01*
X0340244Y0024847D01*
X0340162Y0024850D01*
X0340081Y0024857D01*
X0340000Y0024868D01*
X0339920Y0024883D01*
X0339841Y0024901D01*
X0339763Y0024924D01*
X0339685Y0024950D01*
X0339610Y0024980D01*
X0339535Y0025014D01*
X0339463Y0025051D01*
X0339392Y0025092D01*
X0339324Y0025136D01*
X0339258Y0025183D01*
X0339194Y0025234D01*
X0339132Y0025288D01*
X0339074Y0025344D01*
X0339018Y0025404D01*
X0338965Y0025466D01*
X0338915Y0025530D01*
X0338869Y0025597D01*
X0338825Y0025666D01*
X0338786Y0025737D01*
X0338749Y0025810D01*
X0338716Y0025884D01*
X0338687Y0025961D01*
X0338662Y0026038D01*
X0338640Y0026117D01*
X0338623Y0026196D01*
X0338609Y0026276D01*
X0338599Y0026357D01*
X0338593Y0026439D01*
X0338591Y0026520D01*
D11*
X0250672Y0047400D03*
X0243979Y0047400D03*
X0242872Y0031800D03*
X0236179Y0031800D03*
X0160672Y0060400D03*
X0153979Y0060400D03*
X0177979Y0065600D03*
X0184672Y0065600D03*
X0115472Y0071200D03*
X0108779Y0071200D03*
X0039072Y0074600D03*
X0032379Y0074600D03*
X0133779Y0041200D03*
X0140472Y0041200D03*
X0140272Y0036000D03*
X0133579Y0036000D03*
X0133579Y0030600D03*
X0140272Y0030600D03*
X0042272Y0022000D03*
X0035579Y0022000D03*
X0029672Y0022000D03*
X0022979Y0022000D03*
D12*
X0169526Y0050454D03*
X0169526Y0057146D03*
X0197891Y0035630D03*
X0197891Y0028937D03*
X0263126Y0039254D03*
X0268526Y0039254D03*
X0280326Y0039254D03*
X0280326Y0045946D03*
X0268526Y0045946D03*
X0263126Y0045946D03*
X0245526Y0053054D03*
X0245526Y0059746D03*
D13*
X0250926Y0060047D03*
X0250926Y0065953D03*
X0257373Y0034000D03*
X0263278Y0034000D03*
X0026278Y0074600D03*
X0020373Y0074600D03*
D14*
X0248326Y0039543D03*
X0257326Y0038857D03*
X0248326Y0032457D03*
X0257326Y0045943D03*
D15*
X0256926Y0017600D03*
X0266926Y0017600D03*
X0276926Y0017600D03*
X0286926Y0017600D03*
X0296926Y0017600D03*
X0306926Y0017600D03*
X0316926Y0017600D03*
X0246926Y0017600D03*
X0236926Y0017600D03*
X0226926Y0017600D03*
X0216926Y0017600D03*
X0206926Y0017600D03*
X0196926Y0017600D03*
X0186926Y0017600D03*
X0176926Y0017600D03*
X0166926Y0017600D03*
X0156926Y0017600D03*
X0146926Y0017600D03*
X0136926Y0017600D03*
X0126926Y0017600D03*
X0116926Y0017600D03*
X0106926Y0017600D03*
X0096926Y0017600D03*
X0086926Y0017600D03*
X0076926Y0017600D03*
X0116926Y0032600D03*
X0116926Y0042600D03*
X0116926Y0052600D03*
X0126926Y0077600D03*
X0136926Y0077600D03*
X0146926Y0077600D03*
X0156926Y0077600D03*
X0166926Y0077600D03*
X0176926Y0077600D03*
X0186926Y0077600D03*
X0196926Y0077600D03*
X0206926Y0077600D03*
X0216926Y0077600D03*
X0226926Y0077600D03*
X0236926Y0077600D03*
X0246926Y0077600D03*
X0256926Y0077600D03*
X0266926Y0077600D03*
X0276926Y0077600D03*
X0286926Y0077600D03*
X0296926Y0077600D03*
X0306926Y0077600D03*
X0316926Y0077600D03*
D16*
X0261726Y0064702D03*
X0261726Y0052898D03*
D17*
X0262726Y0058800D03*
D18*
X0270273Y0058800D02*
X0270273Y0058800D01*
X0276179Y0058800D01*
X0276179Y0058800D01*
X0270273Y0058800D01*
D19*
G36*
X0238709Y0050314D02*
X0236483Y0048088D01*
X0235509Y0049062D01*
X0237735Y0051288D01*
X0238709Y0050314D01*
G37*
G36*
X0236899Y0052123D02*
X0234673Y0049897D01*
X0233699Y0050871D01*
X0235925Y0053097D01*
X0236899Y0052123D01*
G37*
G36*
X0235090Y0053933D02*
X0232864Y0051707D01*
X0231890Y0052681D01*
X0234116Y0054907D01*
X0235090Y0053933D01*
G37*
G36*
X0233280Y0055742D02*
X0231054Y0053516D01*
X0230080Y0054490D01*
X0232306Y0056716D01*
X0233280Y0055742D01*
G37*
G36*
X0231471Y0057552D02*
X0229245Y0055326D01*
X0228271Y0056300D01*
X0230497Y0058526D01*
X0231471Y0057552D01*
G37*
G36*
X0229661Y0059362D02*
X0227435Y0057136D01*
X0226461Y0058110D01*
X0228687Y0060336D01*
X0229661Y0059362D01*
G37*
G36*
X0224652Y0059919D02*
X0226878Y0062145D01*
X0227852Y0061171D01*
X0225626Y0058945D01*
X0224652Y0059919D01*
G37*
G36*
X0222842Y0061729D02*
X0225068Y0063955D01*
X0226042Y0062981D01*
X0223816Y0060755D01*
X0222842Y0061729D01*
G37*
G36*
X0221033Y0063538D02*
X0223259Y0065764D01*
X0224233Y0064790D01*
X0222007Y0062564D01*
X0221033Y0063538D01*
G37*
G36*
X0219223Y0065348D02*
X0221449Y0067574D01*
X0222423Y0066600D01*
X0220197Y0064374D01*
X0219223Y0065348D01*
G37*
G36*
X0212402Y0067574D02*
X0214628Y0065348D01*
X0213654Y0064374D01*
X0211428Y0066600D01*
X0212402Y0067574D01*
G37*
G36*
X0214212Y0069383D02*
X0216438Y0067157D01*
X0215464Y0066183D01*
X0213238Y0068409D01*
X0214212Y0069383D01*
G37*
G36*
X0217413Y0067157D02*
X0219639Y0069383D01*
X0220613Y0068409D01*
X0218387Y0066183D01*
X0217413Y0067157D01*
G37*
G36*
X0210593Y0065764D02*
X0212819Y0063538D01*
X0211845Y0062564D01*
X0209619Y0064790D01*
X0210593Y0065764D01*
G37*
G36*
X0208783Y0063955D02*
X0211009Y0061729D01*
X0210035Y0060755D01*
X0207809Y0062981D01*
X0208783Y0063955D01*
G37*
G36*
X0206974Y0062145D02*
X0209200Y0059919D01*
X0208226Y0058945D01*
X0206000Y0061171D01*
X0206974Y0062145D01*
G37*
G36*
X0205164Y0060336D02*
X0207390Y0058110D01*
X0206416Y0057136D01*
X0204190Y0059362D01*
X0205164Y0060336D01*
G37*
G36*
X0204607Y0055326D02*
X0202381Y0057552D01*
X0203355Y0058526D01*
X0205581Y0056300D01*
X0204607Y0055326D01*
G37*
G36*
X0202797Y0053516D02*
X0200571Y0055742D01*
X0201545Y0056716D01*
X0203771Y0054490D01*
X0202797Y0053516D01*
G37*
G36*
X0200987Y0051707D02*
X0198761Y0053933D01*
X0199735Y0054907D01*
X0201961Y0052681D01*
X0200987Y0051707D01*
G37*
G36*
X0199178Y0049897D02*
X0196952Y0052123D01*
X0197926Y0053097D01*
X0200152Y0050871D01*
X0199178Y0049897D01*
G37*
G36*
X0197368Y0048088D02*
X0195142Y0050314D01*
X0196116Y0051288D01*
X0198342Y0049062D01*
X0197368Y0048088D01*
G37*
G36*
X0195142Y0044886D02*
X0197368Y0047112D01*
X0198342Y0046138D01*
X0196116Y0043912D01*
X0195142Y0044886D01*
G37*
G36*
X0196952Y0043077D02*
X0199178Y0045303D01*
X0200152Y0044329D01*
X0197926Y0042103D01*
X0196952Y0043077D01*
G37*
G36*
X0198761Y0041267D02*
X0200987Y0043493D01*
X0201961Y0042519D01*
X0199735Y0040293D01*
X0198761Y0041267D01*
G37*
G36*
X0200571Y0039458D02*
X0202797Y0041684D01*
X0203771Y0040710D01*
X0201545Y0038484D01*
X0200571Y0039458D01*
G37*
G36*
X0202381Y0037648D02*
X0204607Y0039874D01*
X0205581Y0038900D01*
X0203355Y0036674D01*
X0202381Y0037648D01*
G37*
G36*
X0204190Y0035838D02*
X0206416Y0038064D01*
X0207390Y0037090D01*
X0205164Y0034864D01*
X0204190Y0035838D01*
G37*
G36*
X0209200Y0035281D02*
X0206974Y0033055D01*
X0206000Y0034029D01*
X0208226Y0036255D01*
X0209200Y0035281D01*
G37*
G36*
X0211009Y0033471D02*
X0208783Y0031245D01*
X0207809Y0032219D01*
X0210035Y0034445D01*
X0211009Y0033471D01*
G37*
G36*
X0212819Y0031662D02*
X0210593Y0029436D01*
X0209619Y0030410D01*
X0211845Y0032636D01*
X0212819Y0031662D01*
G37*
G36*
X0214628Y0029852D02*
X0212402Y0027626D01*
X0211428Y0028600D01*
X0213654Y0030826D01*
X0214628Y0029852D01*
G37*
G36*
X0216438Y0028043D02*
X0214212Y0025817D01*
X0213238Y0026791D01*
X0215464Y0029017D01*
X0216438Y0028043D01*
G37*
G36*
X0219639Y0025817D02*
X0217413Y0028043D01*
X0218387Y0029017D01*
X0220613Y0026791D01*
X0219639Y0025817D01*
G37*
G36*
X0221449Y0027626D02*
X0219223Y0029852D01*
X0220197Y0030826D01*
X0222423Y0028600D01*
X0221449Y0027626D01*
G37*
G36*
X0223259Y0029436D02*
X0221033Y0031662D01*
X0222007Y0032636D01*
X0224233Y0030410D01*
X0223259Y0029436D01*
G37*
G36*
X0225068Y0031245D02*
X0222842Y0033471D01*
X0223816Y0034445D01*
X0226042Y0032219D01*
X0225068Y0031245D01*
G37*
G36*
X0226878Y0033055D02*
X0224652Y0035281D01*
X0225626Y0036255D01*
X0227852Y0034029D01*
X0226878Y0033055D01*
G37*
G36*
X0228687Y0034864D02*
X0226461Y0037090D01*
X0227435Y0038064D01*
X0229661Y0035838D01*
X0228687Y0034864D01*
G37*
G36*
X0229245Y0039874D02*
X0231471Y0037648D01*
X0230497Y0036674D01*
X0228271Y0038900D01*
X0229245Y0039874D01*
G37*
G36*
X0231054Y0041684D02*
X0233280Y0039458D01*
X0232306Y0038484D01*
X0230080Y0040710D01*
X0231054Y0041684D01*
G37*
G36*
X0232864Y0043493D02*
X0235090Y0041267D01*
X0234116Y0040293D01*
X0231890Y0042519D01*
X0232864Y0043493D01*
G37*
G36*
X0234673Y0045303D02*
X0236899Y0043077D01*
X0235925Y0042103D01*
X0233699Y0044329D01*
X0234673Y0045303D01*
G37*
G36*
X0236483Y0047112D02*
X0238709Y0044886D01*
X0237735Y0043912D01*
X0235509Y0046138D01*
X0236483Y0047112D01*
G37*
D20*
X0337126Y0074400D03*
X0077926Y0071600D03*
D21*
X0077926Y0057820D03*
X0077926Y0044041D03*
X0077926Y0030261D03*
X0337126Y0060620D03*
D22*
X0160326Y0036400D03*
X0160326Y0034400D03*
X0160326Y0032400D03*
X0160326Y0030400D03*
X0149126Y0030400D03*
X0149126Y0032400D03*
X0149126Y0034400D03*
X0149126Y0036400D03*
D23*
X0116926Y0062600D03*
D24*
X0117426Y0062526D02*
X0127783Y0062526D01*
X0127783Y0061784D02*
X0127885Y0061402D01*
X0128083Y0061060D01*
X0128343Y0060800D01*
X0128083Y0060540D01*
X0127885Y0060198D01*
X0127783Y0059816D01*
X0127783Y0058036D01*
X0130669Y0058036D01*
X0130669Y0057265D01*
X0127783Y0057265D01*
X0127783Y0055484D01*
X0127885Y0055103D01*
X0128083Y0054761D01*
X0128362Y0054482D01*
X0128704Y0054284D01*
X0129086Y0054182D01*
X0130669Y0054182D01*
X0130669Y0057264D01*
X0131441Y0057264D01*
X0131441Y0057265D02*
X0131441Y0058036D01*
X0134326Y0058036D01*
X0134326Y0059816D01*
X0134224Y0060198D01*
X0134027Y0060540D01*
X0133767Y0060800D01*
X0134027Y0061060D01*
X0134224Y0061402D01*
X0134326Y0061784D01*
X0134326Y0063564D01*
X0131441Y0063564D01*
X0131441Y0064335D01*
X0134326Y0064335D01*
X0134326Y0066116D01*
X0134224Y0066497D01*
X0134027Y0066839D01*
X0133747Y0067118D01*
X0133405Y0067316D01*
X0133024Y0067418D01*
X0131441Y0067418D01*
X0131441Y0064336D01*
X0130669Y0064336D01*
X0130669Y0067418D01*
X0129086Y0067418D01*
X0128704Y0067316D01*
X0128362Y0067118D01*
X0128083Y0066839D01*
X0127885Y0066497D01*
X0127783Y0066116D01*
X0127783Y0064335D01*
X0130669Y0064335D01*
X0130669Y0063564D01*
X0127783Y0063564D01*
X0127783Y0061784D01*
X0127852Y0061527D02*
X0122126Y0061527D01*
X0122126Y0062100D02*
X0117426Y0062100D01*
X0117426Y0063100D01*
X0122126Y0063100D01*
X0122126Y0066497D01*
X0122023Y0066879D01*
X0121826Y0067221D01*
X0121547Y0067500D01*
X0121205Y0067698D01*
X0120823Y0067800D01*
X0118090Y0067800D01*
X0118216Y0067834D01*
X0118558Y0068031D01*
X0118838Y0068310D01*
X0119035Y0068653D01*
X0119137Y0069034D01*
X0119137Y0070716D01*
X0115956Y0070716D01*
X0115956Y0071684D01*
X0114988Y0071684D01*
X0114988Y0073338D01*
X0115381Y0073338D01*
X0115381Y0076913D01*
X0112594Y0076913D01*
X0112594Y0074640D01*
X0112629Y0074509D01*
X0112386Y0074369D01*
X0112126Y0074109D01*
X0111657Y0074577D01*
X0111657Y0080184D01*
X0110778Y0081062D01*
X0106386Y0081062D01*
X0105507Y0080184D01*
X0105507Y0074216D01*
X0105524Y0074200D01*
X0105114Y0073790D01*
X0105114Y0073100D01*
X0102539Y0073100D01*
X0102389Y0072950D01*
X0101779Y0072950D01*
X0100768Y0072531D01*
X0099994Y0071758D01*
X0099576Y0070747D01*
X0099576Y0069653D01*
X0099994Y0068642D01*
X0100768Y0067869D01*
X0101779Y0067450D01*
X0102873Y0067450D01*
X0103883Y0067869D01*
X0104657Y0068642D01*
X0104929Y0069300D01*
X0105114Y0069300D01*
X0105114Y0068610D01*
X0105992Y0067731D01*
X0111566Y0067731D01*
X0112126Y0068291D01*
X0112386Y0068031D01*
X0112728Y0067834D01*
X0112941Y0067777D01*
X0112647Y0067698D01*
X0112305Y0067500D01*
X0112025Y0067221D01*
X0111828Y0066879D01*
X0111726Y0066497D01*
X0111726Y0063100D01*
X0116426Y0063100D01*
X0116426Y0062100D01*
X0111726Y0062100D01*
X0111726Y0060416D01*
X0110376Y0061766D01*
X0109292Y0062850D01*
X0080339Y0062850D01*
X0080285Y0062796D01*
X0079020Y0063320D01*
X0076832Y0063320D01*
X0074810Y0062483D01*
X0073263Y0060936D01*
X0072426Y0058914D01*
X0072426Y0056726D01*
X0073263Y0054705D01*
X0074810Y0053158D01*
X0076832Y0052320D01*
X0079020Y0052320D01*
X0081041Y0053158D01*
X0082588Y0054705D01*
X0083426Y0056726D01*
X0083426Y0058914D01*
X0083328Y0059150D01*
X0107759Y0059150D01*
X0112179Y0054730D01*
X0111726Y0053634D01*
X0111726Y0051566D01*
X0112517Y0049654D01*
X0113980Y0048192D01*
X0115408Y0047600D01*
X0113980Y0047008D01*
X0112517Y0045546D01*
X0111726Y0043634D01*
X0111726Y0041566D01*
X0112179Y0040470D01*
X0108759Y0037050D01*
X0087533Y0037050D01*
X0082901Y0041681D01*
X0083426Y0042947D01*
X0083426Y0045135D01*
X0082588Y0047156D01*
X0081041Y0048704D01*
X0079020Y0049541D01*
X0076832Y0049541D01*
X0074810Y0048704D01*
X0073263Y0047156D01*
X0072426Y0045135D01*
X0072426Y0042947D01*
X0073263Y0040925D01*
X0074810Y0039378D01*
X0076832Y0038541D01*
X0079020Y0038541D01*
X0080285Y0039065D01*
X0086000Y0033350D01*
X0110292Y0033350D01*
X0111376Y0034434D01*
X0114796Y0037854D01*
X0115408Y0037600D01*
X0113980Y0037008D01*
X0112517Y0035546D01*
X0111726Y0033634D01*
X0111726Y0031566D01*
X0112517Y0029654D01*
X0113980Y0028192D01*
X0115891Y0027400D01*
X0117960Y0027400D01*
X0119871Y0028192D01*
X0121334Y0029654D01*
X0122126Y0031566D01*
X0122126Y0033634D01*
X0121334Y0035546D01*
X0119871Y0037008D01*
X0118443Y0037600D01*
X0119055Y0037854D01*
X0128159Y0028750D01*
X0129914Y0028750D01*
X0129914Y0028010D01*
X0130792Y0027131D01*
X0136366Y0027131D01*
X0136926Y0027691D01*
X0137485Y0027131D01*
X0143059Y0027131D01*
X0143937Y0028010D01*
X0143937Y0028750D01*
X0144492Y0028750D01*
X0145526Y0029784D01*
X0145526Y0029703D01*
X0145628Y0029321D01*
X0145825Y0028979D01*
X0146105Y0028700D01*
X0146447Y0028502D01*
X0146828Y0028400D01*
X0149126Y0028400D01*
X0151423Y0028400D01*
X0151805Y0028502D01*
X0152147Y0028700D01*
X0152426Y0028979D01*
X0152623Y0029321D01*
X0152726Y0029703D01*
X0152726Y0030400D01*
X0152726Y0031097D01*
X0152687Y0031240D01*
X0152726Y0031279D01*
X0152726Y0037521D01*
X0151847Y0038400D01*
X0146976Y0038400D01*
X0146976Y0038632D01*
X0147415Y0039071D01*
X0147597Y0039510D01*
X0147996Y0039111D01*
X0148989Y0038700D01*
X0150063Y0038700D01*
X0151055Y0039111D01*
X0151815Y0039871D01*
X0151865Y0039991D01*
X0155782Y0039991D01*
X0156660Y0040870D01*
X0156660Y0045656D01*
X0155782Y0046535D01*
X0151389Y0046535D01*
X0150511Y0045656D01*
X0150511Y0045050D01*
X0149559Y0045050D01*
X0148759Y0044250D01*
X0148341Y0043832D01*
X0147996Y0043689D01*
X0147237Y0042929D01*
X0147054Y0042490D01*
X0146655Y0042889D01*
X0145663Y0043300D01*
X0144589Y0043300D01*
X0144137Y0043113D01*
X0144137Y0043790D01*
X0143259Y0044668D01*
X0137685Y0044668D01*
X0137126Y0044109D01*
X0136866Y0044369D01*
X0136523Y0044566D01*
X0136142Y0044668D01*
X0134263Y0044668D01*
X0134263Y0041684D01*
X0133295Y0041684D01*
X0133295Y0040716D01*
X0130114Y0040716D01*
X0130114Y0039034D01*
X0130165Y0038841D01*
X0129914Y0038590D01*
X0129914Y0037850D01*
X0129692Y0037850D01*
X0127376Y0040166D01*
X0127376Y0044766D01*
X0121672Y0050470D01*
X0122126Y0051566D01*
X0122126Y0053634D01*
X0121334Y0055546D01*
X0119871Y0057008D01*
X0118926Y0057400D01*
X0120823Y0057400D01*
X0121205Y0057502D01*
X0121547Y0057700D01*
X0121826Y0057979D01*
X0122023Y0058321D01*
X0122126Y0058703D01*
X0122126Y0062100D01*
X0122126Y0063524D02*
X0127783Y0063524D01*
X0127783Y0064523D02*
X0122126Y0064523D01*
X0122126Y0065521D02*
X0127783Y0065521D01*
X0127898Y0066520D02*
X0122120Y0066520D01*
X0121516Y0067518D02*
X0174314Y0067518D01*
X0174314Y0067766D02*
X0174314Y0066084D01*
X0177495Y0066084D01*
X0177495Y0065116D01*
X0174314Y0065116D01*
X0174314Y0063434D01*
X0174416Y0063053D01*
X0174613Y0062710D01*
X0174893Y0062431D01*
X0175235Y0062234D01*
X0175616Y0062131D01*
X0177495Y0062131D01*
X0177495Y0065116D01*
X0178463Y0065116D01*
X0178463Y0062131D01*
X0180342Y0062131D01*
X0180723Y0062234D01*
X0181066Y0062431D01*
X0181326Y0062691D01*
X0181885Y0062131D01*
X0187459Y0062131D01*
X0188218Y0062891D01*
X0188676Y0062434D01*
X0189759Y0061350D01*
X0196357Y0061350D01*
X0196796Y0060911D01*
X0197789Y0060500D01*
X0198863Y0060500D01*
X0199855Y0060911D01*
X0200294Y0061350D01*
X0200559Y0061350D01*
X0202308Y0059602D01*
X0201806Y0059100D01*
X0201224Y0058518D01*
X0199692Y0060050D01*
X0194494Y0060050D01*
X0194055Y0060489D01*
X0193063Y0060900D01*
X0191989Y0060900D01*
X0190996Y0060489D01*
X0190557Y0060050D01*
X0188531Y0060050D01*
X0188531Y0060330D01*
X0187652Y0061209D01*
X0182866Y0061209D01*
X0181988Y0060330D01*
X0181988Y0055150D01*
X0182866Y0054272D01*
X0187652Y0054272D01*
X0188531Y0055150D01*
X0188531Y0056350D01*
X0190557Y0056350D01*
X0190996Y0055911D01*
X0191989Y0055500D01*
X0193063Y0055500D01*
X0194055Y0055911D01*
X0194494Y0056350D01*
X0194514Y0056350D01*
X0194426Y0056137D01*
X0194426Y0055063D01*
X0194514Y0054850D01*
X0193559Y0054850D01*
X0192809Y0054100D01*
X0192189Y0054100D01*
X0191196Y0053689D01*
X0190437Y0052929D01*
X0190026Y0051937D01*
X0190026Y0050863D01*
X0190099Y0050685D01*
X0190063Y0050700D01*
X0188989Y0050700D01*
X0187996Y0050289D01*
X0187581Y0049874D01*
X0185645Y0049874D01*
X0185645Y0046791D01*
X0187104Y0046791D01*
X0187237Y0046471D01*
X0187308Y0046399D01*
X0183546Y0042637D01*
X0183546Y0040218D01*
X0183003Y0040218D01*
X0182125Y0039339D01*
X0182125Y0034160D01*
X0182685Y0033600D01*
X0182125Y0033040D01*
X0182125Y0027861D01*
X0183003Y0026982D01*
X0187789Y0026982D01*
X0188668Y0027861D01*
X0188668Y0033040D01*
X0188108Y0033600D01*
X0188668Y0034160D01*
X0188668Y0039339D01*
X0187789Y0040218D01*
X0187246Y0040218D01*
X0187246Y0041105D01*
X0189676Y0043534D01*
X0189676Y0042968D01*
X0189237Y0042529D01*
X0188826Y0041537D01*
X0188826Y0040463D01*
X0189237Y0039471D01*
X0189996Y0038711D01*
X0190989Y0038300D01*
X0192063Y0038300D01*
X0193055Y0038711D01*
X0193326Y0038982D01*
X0193596Y0038711D01*
X0194513Y0038331D01*
X0194423Y0037993D01*
X0194423Y0036114D01*
X0197407Y0036114D01*
X0197407Y0039295D01*
X0197239Y0039295D01*
X0197415Y0039471D01*
X0197714Y0040193D01*
X0198611Y0039295D01*
X0198375Y0039295D01*
X0198375Y0036114D01*
X0197407Y0036114D01*
X0197407Y0035146D01*
X0194423Y0035146D01*
X0194423Y0034721D01*
X0193855Y0035289D01*
X0192863Y0035700D01*
X0191789Y0035700D01*
X0190796Y0035289D01*
X0190037Y0034529D01*
X0189626Y0033537D01*
X0189626Y0032463D01*
X0190037Y0031471D01*
X0190476Y0031032D01*
X0190476Y0029034D01*
X0191559Y0027950D01*
X0192359Y0027150D01*
X0194423Y0027150D01*
X0194423Y0026150D01*
X0195301Y0025272D01*
X0200481Y0025272D01*
X0201360Y0026150D01*
X0201360Y0027150D01*
X0202692Y0027150D01*
X0203776Y0028234D01*
X0206724Y0031182D01*
X0207318Y0030588D01*
X0206596Y0030289D01*
X0205837Y0029529D01*
X0205426Y0028537D01*
X0205426Y0027463D01*
X0205837Y0026471D01*
X0206596Y0025711D01*
X0206755Y0025645D01*
X0205559Y0024450D01*
X0201159Y0024450D01*
X0199055Y0022346D01*
X0197960Y0022800D01*
X0195891Y0022800D01*
X0193980Y0022008D01*
X0192517Y0020546D01*
X0191926Y0019117D01*
X0191334Y0020546D01*
X0189871Y0022008D01*
X0187960Y0022800D01*
X0185891Y0022800D01*
X0183980Y0022008D01*
X0182517Y0020546D01*
X0181926Y0019117D01*
X0181334Y0020546D01*
X0179871Y0022008D01*
X0177960Y0022800D01*
X0175891Y0022800D01*
X0174796Y0022346D01*
X0173376Y0023766D01*
X0172292Y0024850D01*
X0165092Y0024850D01*
X0164576Y0025366D01*
X0163492Y0026450D01*
X0094892Y0026450D01*
X0093826Y0027516D01*
X0093826Y0028137D01*
X0093415Y0029129D01*
X0092655Y0029889D01*
X0091663Y0030300D01*
X0090589Y0030300D01*
X0089596Y0029889D01*
X0089026Y0029318D01*
X0088455Y0029889D01*
X0087463Y0030300D01*
X0086389Y0030300D01*
X0085396Y0029889D01*
X0084637Y0029129D01*
X0084226Y0028137D01*
X0084226Y0027063D01*
X0084637Y0026071D01*
X0085396Y0025311D01*
X0086389Y0024900D01*
X0087009Y0024900D01*
X0090959Y0020950D01*
X0092932Y0020950D01*
X0092478Y0020325D01*
X0092107Y0019596D01*
X0091940Y0019083D01*
X0091334Y0020546D01*
X0089871Y0022008D01*
X0087960Y0022800D01*
X0085891Y0022800D01*
X0084796Y0022346D01*
X0083576Y0023566D01*
X0082492Y0024650D01*
X0071976Y0024650D01*
X0071976Y0035232D01*
X0072415Y0035671D01*
X0072826Y0036663D01*
X0072826Y0037737D01*
X0072415Y0038729D01*
X0071655Y0039489D01*
X0070663Y0039900D01*
X0069589Y0039900D01*
X0068596Y0039489D01*
X0067837Y0038729D01*
X0067426Y0037737D01*
X0067426Y0036663D01*
X0067837Y0035671D01*
X0068276Y0035232D01*
X0068276Y0023900D01*
X0045937Y0023900D01*
X0045937Y0024590D01*
X0045059Y0025468D01*
X0039881Y0025468D01*
X0040944Y0026531D01*
X0041045Y0026531D01*
X0041923Y0027410D01*
X0041923Y0033072D01*
X0041967Y0033028D01*
X0049115Y0033028D01*
X0049994Y0033906D01*
X0049994Y0037905D01*
X0049631Y0038268D01*
X0049936Y0038573D01*
X0052226Y0036284D01*
X0052226Y0035663D01*
X0052637Y0034671D01*
X0053396Y0033911D01*
X0054389Y0033500D01*
X0055463Y0033500D01*
X0056455Y0033911D01*
X0057215Y0034671D01*
X0057626Y0035663D01*
X0057626Y0036484D01*
X0058226Y0035884D01*
X0058226Y0035263D01*
X0058637Y0034271D01*
X0059396Y0033511D01*
X0060389Y0033100D01*
X0061463Y0033100D01*
X0062455Y0033511D01*
X0063215Y0034271D01*
X0063626Y0035263D01*
X0063626Y0036337D01*
X0063215Y0037329D01*
X0062455Y0038089D01*
X0061463Y0038500D01*
X0060842Y0038500D01*
X0052138Y0047204D01*
X0049994Y0047204D01*
X0049994Y0047354D01*
X0049631Y0047717D01*
X0049994Y0048079D01*
X0049994Y0052078D01*
X0049631Y0052441D01*
X0049670Y0052480D01*
X0050589Y0052100D01*
X0051663Y0052100D01*
X0052655Y0052511D01*
X0053415Y0053271D01*
X0053826Y0054263D01*
X0053826Y0055337D01*
X0053415Y0056329D01*
X0052655Y0057089D01*
X0051663Y0057500D01*
X0050589Y0057500D01*
X0049675Y0057122D01*
X0049631Y0057165D01*
X0049994Y0057528D01*
X0049994Y0061527D01*
X0073854Y0061527D01*
X0073094Y0060529D02*
X0049994Y0060529D01*
X0049994Y0061527D02*
X0049115Y0062405D01*
X0041967Y0062405D01*
X0041923Y0062361D01*
X0041923Y0068023D01*
X0041045Y0068902D01*
X0040895Y0068902D01*
X0040895Y0071131D01*
X0041859Y0071131D01*
X0042737Y0072010D01*
X0042737Y0077190D01*
X0041859Y0078068D01*
X0036285Y0078068D01*
X0035726Y0077509D01*
X0035166Y0078068D01*
X0029592Y0078068D01*
X0028837Y0077313D01*
X0028474Y0077675D01*
X0024082Y0077675D01*
X0023326Y0076918D01*
X0022569Y0077675D01*
X0018426Y0077675D01*
X0018426Y0081100D01*
X0123072Y0081100D01*
X0122517Y0080546D01*
X0121726Y0078634D01*
X0121726Y0076566D01*
X0122517Y0074654D01*
X0123980Y0073192D01*
X0125891Y0072400D01*
X0127960Y0072400D01*
X0129871Y0073192D01*
X0131334Y0074654D01*
X0131926Y0076083D01*
X0132517Y0074654D01*
X0133980Y0073192D01*
X0135891Y0072400D01*
X0137960Y0072400D01*
X0139871Y0073192D01*
X0141334Y0074654D01*
X0141926Y0076083D01*
X0142517Y0074654D01*
X0143980Y0073192D01*
X0145891Y0072400D01*
X0147960Y0072400D01*
X0149871Y0073192D01*
X0151334Y0074654D01*
X0151926Y0076083D01*
X0152517Y0074654D01*
X0153980Y0073192D01*
X0155891Y0072400D01*
X0157960Y0072400D01*
X0159055Y0072854D01*
X0161159Y0070750D01*
X0168559Y0070750D01*
X0170359Y0068950D01*
X0175207Y0068950D01*
X0174893Y0068769D01*
X0174613Y0068490D01*
X0174416Y0068147D01*
X0174314Y0067766D01*
X0174641Y0068517D02*
X0118957Y0068517D01*
X0119137Y0069515D02*
X0169794Y0069515D01*
X0168796Y0070514D02*
X0119137Y0070514D01*
X0119137Y0071684D02*
X0115956Y0071684D01*
X0115956Y0073338D01*
X0115956Y0076913D01*
X0115956Y0077487D01*
X0118744Y0077487D01*
X0118744Y0079760D01*
X0118641Y0080141D01*
X0118444Y0080483D01*
X0118165Y0080762D01*
X0117823Y0080960D01*
X0117441Y0081062D01*
X0115956Y0081062D01*
X0115956Y0077487D01*
X0115381Y0077487D01*
X0115381Y0076913D01*
X0115956Y0076913D01*
X0118744Y0076913D01*
X0118744Y0074640D01*
X0118647Y0074280D01*
X0118838Y0074090D01*
X0119035Y0073747D01*
X0119137Y0073366D01*
X0119137Y0071684D01*
X0119137Y0072511D02*
X0125624Y0072511D01*
X0123662Y0073509D02*
X0119099Y0073509D01*
X0118708Y0074508D02*
X0122664Y0074508D01*
X0122164Y0075506D02*
X0118744Y0075506D01*
X0118744Y0076505D02*
X0121751Y0076505D01*
X0121726Y0077503D02*
X0118744Y0077503D01*
X0118744Y0078502D02*
X0121726Y0078502D01*
X0122084Y0079500D02*
X0118744Y0079500D01*
X0118428Y0080499D02*
X0122498Y0080499D01*
X0115956Y0080499D02*
X0115381Y0080499D01*
X0115381Y0081062D02*
X0113897Y0081062D01*
X0113515Y0080960D01*
X0113173Y0080762D01*
X0112894Y0080483D01*
X0112696Y0080141D01*
X0112594Y0079760D01*
X0112594Y0077487D01*
X0115381Y0077487D01*
X0115381Y0081062D01*
X0112909Y0080499D02*
X0111342Y0080499D01*
X0111657Y0079500D02*
X0112594Y0079500D01*
X0112594Y0078502D02*
X0111657Y0078502D01*
X0111657Y0077503D02*
X0112594Y0077503D01*
X0112594Y0076505D02*
X0111657Y0076505D01*
X0111657Y0075506D02*
X0112594Y0075506D01*
X0112626Y0074508D02*
X0111727Y0074508D01*
X0115381Y0074508D02*
X0115956Y0074508D01*
X0115956Y0075506D02*
X0115381Y0075506D01*
X0115381Y0076505D02*
X0115956Y0076505D01*
X0115956Y0077503D02*
X0115381Y0077503D01*
X0115381Y0078502D02*
X0115956Y0078502D01*
X0115956Y0079500D02*
X0115381Y0079500D01*
X0105823Y0080499D02*
X0018426Y0080499D01*
X0018426Y0079500D02*
X0105507Y0079500D01*
X0105507Y0078502D02*
X0018426Y0078502D01*
X0022741Y0077503D02*
X0023911Y0077503D01*
X0028646Y0077503D02*
X0029027Y0077503D01*
X0042424Y0077503D02*
X0105507Y0077503D01*
X0105507Y0076505D02*
X0083135Y0076505D01*
X0083126Y0076521D02*
X0082847Y0076800D01*
X0082505Y0076998D01*
X0082123Y0077100D01*
X0078426Y0077100D01*
X0078426Y0072100D01*
X0083426Y0072100D01*
X0083426Y0075797D01*
X0083323Y0076179D01*
X0083126Y0076521D01*
X0083426Y0075506D02*
X0105507Y0075506D01*
X0105507Y0074508D02*
X0083426Y0074508D01*
X0083426Y0073509D02*
X0105114Y0073509D01*
X0100747Y0072511D02*
X0083426Y0072511D01*
X0083426Y0071100D02*
X0078426Y0071100D01*
X0078426Y0072100D01*
X0077426Y0072100D01*
X0077426Y0077100D01*
X0073728Y0077100D01*
X0073347Y0076998D01*
X0073005Y0076800D01*
X0072725Y0076521D01*
X0072528Y0076179D01*
X0072426Y0075797D01*
X0072426Y0072100D01*
X0077426Y0072100D01*
X0077426Y0071100D01*
X0078426Y0071100D01*
X0078426Y0066100D01*
X0082123Y0066100D01*
X0082505Y0066202D01*
X0082847Y0066400D01*
X0083126Y0066679D01*
X0083323Y0067021D01*
X0083426Y0067403D01*
X0083426Y0071100D01*
X0083426Y0070514D02*
X0099576Y0070514D01*
X0099633Y0069515D02*
X0083426Y0069515D01*
X0083426Y0068517D02*
X0100120Y0068517D01*
X0101614Y0067518D02*
X0083426Y0067518D01*
X0082967Y0066520D02*
X0111732Y0066520D01*
X0111726Y0065521D02*
X0041923Y0065521D01*
X0041923Y0064523D02*
X0111726Y0064523D01*
X0111726Y0063524D02*
X0041923Y0063524D01*
X0041923Y0062526D02*
X0074913Y0062526D01*
X0072681Y0059530D02*
X0049994Y0059530D01*
X0049994Y0058532D02*
X0072426Y0058532D01*
X0072426Y0057533D02*
X0049994Y0057533D01*
X0053209Y0056534D02*
X0072505Y0056534D01*
X0072919Y0055536D02*
X0053743Y0055536D01*
X0053826Y0054537D02*
X0073430Y0054537D01*
X0074429Y0053539D02*
X0053526Y0053539D01*
X0052684Y0052540D02*
X0076300Y0052540D01*
X0079551Y0052540D02*
X0095906Y0052540D01*
X0095355Y0051990D02*
X0094176Y0049142D01*
X0094176Y0046058D01*
X0095355Y0043210D01*
X0097536Y0041030D01*
X0100384Y0039850D01*
X0103467Y0039850D01*
X0106316Y0041030D01*
X0108496Y0043210D01*
X0109676Y0046058D01*
X0109676Y0049142D01*
X0108496Y0051990D01*
X0106316Y0054170D01*
X0103467Y0055350D01*
X0100384Y0055350D01*
X0097536Y0054170D01*
X0095355Y0051990D01*
X0095170Y0051542D02*
X0049994Y0051542D01*
X0049994Y0050543D02*
X0094756Y0050543D01*
X0094343Y0049545D02*
X0049994Y0049545D01*
X0049994Y0048546D02*
X0074653Y0048546D01*
X0073654Y0047548D02*
X0049800Y0047548D01*
X0052792Y0046549D02*
X0073011Y0046549D01*
X0072598Y0045551D02*
X0053791Y0045551D01*
X0054790Y0044552D02*
X0072426Y0044552D01*
X0072426Y0043554D02*
X0055788Y0043554D01*
X0056787Y0042555D02*
X0072588Y0042555D01*
X0073001Y0041557D02*
X0057785Y0041557D01*
X0058784Y0040558D02*
X0073630Y0040558D01*
X0074629Y0039560D02*
X0071484Y0039560D01*
X0072484Y0038561D02*
X0076782Y0038561D01*
X0079069Y0038561D02*
X0080789Y0038561D01*
X0081787Y0037563D02*
X0072826Y0037563D01*
X0072785Y0036564D02*
X0082786Y0036564D01*
X0083784Y0035566D02*
X0079492Y0035566D01*
X0079020Y0035761D02*
X0081041Y0034924D01*
X0082588Y0033377D01*
X0083426Y0031355D01*
X0083426Y0029167D01*
X0082588Y0027146D01*
X0081041Y0025599D01*
X0079020Y0024761D01*
X0076832Y0024761D01*
X0074810Y0025599D01*
X0073263Y0027146D01*
X0072426Y0029167D01*
X0072426Y0031355D01*
X0073263Y0033377D01*
X0074810Y0034924D01*
X0076832Y0035761D01*
X0079020Y0035761D01*
X0081398Y0034567D02*
X0084783Y0034567D01*
X0085781Y0033569D02*
X0082396Y0033569D01*
X0082922Y0032570D02*
X0111726Y0032570D01*
X0111726Y0031572D02*
X0083336Y0031572D01*
X0083426Y0030573D02*
X0112137Y0030573D01*
X0112597Y0029575D02*
X0092969Y0029575D01*
X0093644Y0028576D02*
X0113595Y0028576D01*
X0115462Y0027578D02*
X0093826Y0027578D01*
X0094763Y0026579D02*
X0194423Y0026579D01*
X0194992Y0025581D02*
X0164361Y0025581D01*
X0166283Y0027561D02*
X0166562Y0027282D01*
X0166904Y0027084D01*
X0167286Y0026982D01*
X0168869Y0026982D01*
X0168869Y0030064D01*
X0169641Y0030064D01*
X0169641Y0030065D02*
X0169641Y0030836D01*
X0172471Y0030836D01*
X0172796Y0030511D01*
X0173789Y0030100D01*
X0174863Y0030100D01*
X0175855Y0030511D01*
X0176615Y0031271D01*
X0177026Y0032263D01*
X0177026Y0033337D01*
X0176615Y0034329D01*
X0175855Y0035089D01*
X0174863Y0035500D01*
X0173789Y0035500D01*
X0173668Y0035450D01*
X0172526Y0035450D01*
X0172526Y0036364D01*
X0169641Y0036364D01*
X0169641Y0037135D01*
X0172526Y0037135D01*
X0172526Y0038916D01*
X0172424Y0039297D01*
X0172227Y0039639D01*
X0171947Y0039918D01*
X0171605Y0040116D01*
X0171224Y0040218D01*
X0169641Y0040218D01*
X0169641Y0037136D01*
X0168869Y0037136D01*
X0168869Y0040218D01*
X0167286Y0040218D01*
X0166904Y0040116D01*
X0166562Y0039918D01*
X0166283Y0039639D01*
X0166085Y0039297D01*
X0165983Y0038916D01*
X0165983Y0037967D01*
X0165663Y0038100D01*
X0164589Y0038100D01*
X0163711Y0037736D01*
X0163047Y0038400D01*
X0162176Y0038400D01*
X0162176Y0039991D01*
X0163262Y0039991D01*
X0164141Y0040870D01*
X0164141Y0045656D01*
X0163262Y0046535D01*
X0162576Y0046535D01*
X0162576Y0056931D01*
X0163459Y0056931D01*
X0164337Y0057810D01*
X0164337Y0062750D01*
X0165159Y0062750D01*
X0167098Y0060812D01*
X0166936Y0060812D01*
X0166057Y0059933D01*
X0166057Y0054360D01*
X0166617Y0053800D01*
X0166357Y0053540D01*
X0166159Y0053198D01*
X0166057Y0052816D01*
X0166057Y0050938D01*
X0169041Y0050938D01*
X0169041Y0049969D01*
X0166057Y0049969D01*
X0166057Y0048091D01*
X0166159Y0047709D01*
X0166357Y0047367D01*
X0166636Y0047088D01*
X0166978Y0046890D01*
X0167360Y0046788D01*
X0169041Y0046788D01*
X0169041Y0049969D01*
X0170010Y0049969D01*
X0170010Y0046788D01*
X0171692Y0046788D01*
X0172073Y0046890D01*
X0172415Y0047088D01*
X0172694Y0047367D01*
X0172892Y0047709D01*
X0172994Y0048091D01*
X0172994Y0049969D01*
X0170010Y0049969D01*
X0170010Y0050938D01*
X0172994Y0050938D01*
X0172994Y0052816D01*
X0172892Y0053198D01*
X0172694Y0053540D01*
X0172434Y0053800D01*
X0172994Y0054360D01*
X0172994Y0055350D01*
X0173720Y0055350D01*
X0173720Y0055150D01*
X0174599Y0054272D01*
X0179385Y0054272D01*
X0180263Y0055150D01*
X0180263Y0060330D01*
X0179385Y0061209D01*
X0174599Y0061209D01*
X0173720Y0060330D01*
X0173720Y0059050D01*
X0172994Y0059050D01*
X0172994Y0059933D01*
X0172115Y0060812D01*
X0171376Y0060812D01*
X0171376Y0061766D01*
X0170292Y0062850D01*
X0166692Y0066450D01*
X0162528Y0066450D01*
X0162089Y0066889D01*
X0161097Y0067300D01*
X0160023Y0067300D01*
X0159030Y0066889D01*
X0158271Y0066129D01*
X0157860Y0065137D01*
X0157860Y0064063D01*
X0157940Y0063868D01*
X0157885Y0063868D01*
X0157326Y0063309D01*
X0156766Y0063868D01*
X0151192Y0063868D01*
X0150468Y0063144D01*
X0150468Y0066539D01*
X0149589Y0067418D01*
X0144803Y0067418D01*
X0143925Y0066539D01*
X0143925Y0062650D01*
X0140866Y0062650D01*
X0140263Y0062900D01*
X0139189Y0062900D01*
X0138196Y0062489D01*
X0137437Y0061729D01*
X0137026Y0060737D01*
X0137026Y0059663D01*
X0137437Y0058671D01*
X0138196Y0057911D01*
X0139189Y0057500D01*
X0140263Y0057500D01*
X0141255Y0057911D01*
X0142015Y0058671D01*
X0142130Y0058950D01*
X0143925Y0058950D01*
X0143925Y0055061D01*
X0144803Y0054182D01*
X0149589Y0054182D01*
X0150468Y0055061D01*
X0150468Y0057656D01*
X0151192Y0056931D01*
X0156766Y0056931D01*
X0157326Y0057491D01*
X0157885Y0056931D01*
X0158876Y0056931D01*
X0158876Y0054802D01*
X0157613Y0054802D01*
X0157613Y0051818D01*
X0157038Y0051818D01*
X0157038Y0051243D01*
X0157613Y0051243D01*
X0157613Y0048259D01*
X0158876Y0048259D01*
X0158876Y0046535D01*
X0158870Y0046535D01*
X0157991Y0045656D01*
X0157991Y0040870D01*
X0158476Y0040385D01*
X0158476Y0038400D01*
X0157604Y0038400D01*
X0156726Y0037521D01*
X0156726Y0031279D01*
X0156764Y0031240D01*
X0156726Y0031097D01*
X0156726Y0030400D01*
X0156726Y0029703D01*
X0156828Y0029321D01*
X0157025Y0028979D01*
X0157305Y0028700D01*
X0157647Y0028502D01*
X0158028Y0028400D01*
X0160326Y0028400D01*
X0162623Y0028400D01*
X0163005Y0028502D01*
X0163347Y0028700D01*
X0163626Y0028979D01*
X0163823Y0029321D01*
X0163926Y0029703D01*
X0163926Y0030400D01*
X0163926Y0030550D01*
X0166292Y0030550D01*
X0166578Y0030836D01*
X0168869Y0030836D01*
X0168869Y0030065D01*
X0165983Y0030065D01*
X0165983Y0028284D01*
X0166085Y0027903D01*
X0166283Y0027561D01*
X0166273Y0027578D02*
X0143505Y0027578D01*
X0143937Y0028576D02*
X0146319Y0028576D01*
X0145560Y0029575D02*
X0145317Y0029575D01*
X0149126Y0029575D02*
X0149126Y0029575D01*
X0149126Y0030400D02*
X0149126Y0028400D01*
X0149126Y0030400D01*
X0151847Y0030400D01*
X0152726Y0030400D01*
X0149126Y0030400D01*
X0149126Y0030400D01*
X0149126Y0030400D01*
X0149126Y0028576D02*
X0149126Y0028576D01*
X0151933Y0028576D02*
X0157519Y0028576D01*
X0156760Y0029575D02*
X0152691Y0029575D01*
X0152726Y0030573D02*
X0156726Y0030573D01*
X0156726Y0030400D02*
X0157604Y0030400D01*
X0157604Y0030400D01*
X0160325Y0030400D01*
X0156726Y0030400D01*
X0156726Y0031572D02*
X0152726Y0031572D01*
X0152726Y0032570D02*
X0156726Y0032570D01*
X0156726Y0033569D02*
X0152726Y0033569D01*
X0152726Y0034567D02*
X0156726Y0034567D01*
X0156726Y0035566D02*
X0152726Y0035566D01*
X0152726Y0036564D02*
X0156726Y0036564D01*
X0156767Y0037563D02*
X0152684Y0037563D01*
X0146976Y0038561D02*
X0158476Y0038561D01*
X0158476Y0039560D02*
X0151504Y0039560D01*
X0156349Y0040558D02*
X0158303Y0040558D01*
X0157991Y0041557D02*
X0156660Y0041557D01*
X0156660Y0042555D02*
X0157991Y0042555D01*
X0157991Y0043554D02*
X0156660Y0043554D01*
X0156660Y0044552D02*
X0157991Y0044552D01*
X0157991Y0045551D02*
X0156660Y0045551D01*
X0158876Y0046549D02*
X0125592Y0046549D01*
X0124594Y0047548D02*
X0158876Y0047548D01*
X0157613Y0048546D02*
X0157038Y0048546D01*
X0157038Y0048259D02*
X0157038Y0051243D01*
X0154251Y0051243D01*
X0154251Y0049562D01*
X0154353Y0049180D01*
X0154550Y0048838D01*
X0154830Y0048559D01*
X0155172Y0048361D01*
X0155553Y0048259D01*
X0157038Y0048259D01*
X0157038Y0049545D02*
X0157613Y0049545D01*
X0157613Y0050543D02*
X0157038Y0050543D01*
X0157038Y0051542D02*
X0122116Y0051542D01*
X0122126Y0052540D02*
X0154251Y0052540D01*
X0154251Y0051818D02*
X0154251Y0053500D01*
X0154353Y0053881D01*
X0154550Y0054223D01*
X0154830Y0054503D01*
X0155172Y0054700D01*
X0155553Y0054802D01*
X0157038Y0054802D01*
X0157038Y0051818D01*
X0154251Y0051818D01*
X0154251Y0050543D02*
X0121702Y0050543D01*
X0122597Y0049545D02*
X0154255Y0049545D01*
X0154851Y0048546D02*
X0123595Y0048546D01*
X0126591Y0045551D02*
X0150511Y0045551D01*
X0149062Y0044552D02*
X0143375Y0044552D01*
X0144137Y0043554D02*
X0147861Y0043554D01*
X0148759Y0044250D02*
X0148759Y0044250D01*
X0147082Y0042555D02*
X0146989Y0042555D01*
X0137569Y0044552D02*
X0136548Y0044552D01*
X0134263Y0044552D02*
X0133295Y0044552D01*
X0133295Y0044668D02*
X0131416Y0044668D01*
X0131035Y0044566D01*
X0130693Y0044369D01*
X0130413Y0044090D01*
X0130216Y0043747D01*
X0130114Y0043366D01*
X0130114Y0041684D01*
X0133295Y0041684D01*
X0133295Y0044668D01*
X0133295Y0043554D02*
X0134263Y0043554D01*
X0134263Y0042555D02*
X0133295Y0042555D01*
X0133295Y0041557D02*
X0127376Y0041557D01*
X0127376Y0042555D02*
X0130114Y0042555D01*
X0130164Y0043554D02*
X0127376Y0043554D01*
X0127376Y0044552D02*
X0131011Y0044552D01*
X0130114Y0040558D02*
X0127376Y0040558D01*
X0127982Y0039560D02*
X0130114Y0039560D01*
X0129914Y0038561D02*
X0128981Y0038561D01*
X0120345Y0036564D02*
X0120315Y0036564D01*
X0119347Y0037563D02*
X0118533Y0037563D01*
X0115319Y0037563D02*
X0114505Y0037563D01*
X0113536Y0036564D02*
X0113506Y0036564D01*
X0112537Y0035566D02*
X0112508Y0035566D01*
X0112112Y0034567D02*
X0111509Y0034567D01*
X0111726Y0033569D02*
X0110511Y0033569D01*
X0109272Y0037563D02*
X0087020Y0037563D01*
X0086022Y0038561D02*
X0110271Y0038561D01*
X0111269Y0039560D02*
X0085023Y0039560D01*
X0084024Y0040558D02*
X0098674Y0040558D01*
X0097009Y0041557D02*
X0083026Y0041557D01*
X0083263Y0042555D02*
X0096010Y0042555D01*
X0095213Y0043554D02*
X0083426Y0043554D01*
X0083426Y0044552D02*
X0094799Y0044552D01*
X0094386Y0045551D02*
X0083253Y0045551D01*
X0082840Y0046549D02*
X0094176Y0046549D01*
X0094176Y0047548D02*
X0082197Y0047548D01*
X0081198Y0048546D02*
X0094176Y0048546D01*
X0107945Y0052540D02*
X0111726Y0052540D01*
X0111735Y0051542D02*
X0108681Y0051542D01*
X0109095Y0050543D02*
X0112149Y0050543D01*
X0112627Y0049545D02*
X0109509Y0049545D01*
X0109676Y0048546D02*
X0113625Y0048546D01*
X0115283Y0047548D02*
X0109676Y0047548D01*
X0109676Y0046549D02*
X0113521Y0046549D01*
X0112523Y0045551D02*
X0109465Y0045551D01*
X0109052Y0044552D02*
X0112106Y0044552D01*
X0111726Y0043554D02*
X0108638Y0043554D01*
X0107841Y0042555D02*
X0111726Y0042555D01*
X0111729Y0041557D02*
X0106843Y0041557D01*
X0105177Y0040558D02*
X0112143Y0040558D01*
X0121314Y0035566D02*
X0121344Y0035566D01*
X0121739Y0034567D02*
X0122342Y0034567D01*
X0122126Y0033569D02*
X0123341Y0033569D01*
X0124339Y0032570D02*
X0122126Y0032570D01*
X0122126Y0031572D02*
X0125338Y0031572D01*
X0126336Y0030573D02*
X0121714Y0030573D01*
X0121254Y0029575D02*
X0127335Y0029575D01*
X0129914Y0028576D02*
X0120256Y0028576D01*
X0118389Y0027578D02*
X0130346Y0027578D01*
X0136812Y0027578D02*
X0137039Y0027578D01*
X0151847Y0030400D02*
X0151847Y0030400D01*
X0160325Y0030400D02*
X0160325Y0030400D01*
X0160326Y0030400D02*
X0160326Y0030400D01*
X0163047Y0030400D01*
X0163926Y0030400D01*
X0160326Y0030400D01*
X0160326Y0030400D01*
X0160326Y0028400D01*
X0160326Y0030400D01*
X0160326Y0029575D02*
X0160326Y0029575D01*
X0160326Y0028576D02*
X0160326Y0028576D01*
X0163133Y0028576D02*
X0165983Y0028576D01*
X0165983Y0029575D02*
X0163891Y0029575D01*
X0163047Y0030400D02*
X0163047Y0030400D01*
X0166315Y0030573D02*
X0168869Y0030573D01*
X0169641Y0030573D02*
X0172734Y0030573D01*
X0172526Y0030065D02*
X0169641Y0030065D01*
X0169641Y0030064D02*
X0169641Y0026982D01*
X0171224Y0026982D01*
X0171605Y0027084D01*
X0171947Y0027282D01*
X0172227Y0027561D01*
X0172424Y0027903D01*
X0172526Y0028284D01*
X0172526Y0030065D01*
X0172526Y0029575D02*
X0182125Y0029575D01*
X0182125Y0030573D02*
X0175917Y0030573D01*
X0176739Y0031572D02*
X0182125Y0031572D01*
X0182125Y0032570D02*
X0177026Y0032570D01*
X0176930Y0033569D02*
X0182653Y0033569D01*
X0182125Y0034567D02*
X0176377Y0034567D01*
X0172526Y0035566D02*
X0182125Y0035566D01*
X0182125Y0036564D02*
X0169641Y0036564D01*
X0169641Y0037563D02*
X0168869Y0037563D01*
X0168869Y0038561D02*
X0169641Y0038561D01*
X0169641Y0039560D02*
X0168869Y0039560D01*
X0166237Y0039560D02*
X0162176Y0039560D01*
X0162176Y0038561D02*
X0165983Y0038561D01*
X0163829Y0040558D02*
X0183546Y0040558D01*
X0183546Y0041557D02*
X0164141Y0041557D01*
X0164141Y0042555D02*
X0183546Y0042555D01*
X0184463Y0043554D02*
X0164141Y0043554D01*
X0164141Y0044552D02*
X0185462Y0044552D01*
X0186460Y0045551D02*
X0164141Y0045551D01*
X0162576Y0046549D02*
X0187204Y0046549D01*
X0185645Y0047548D02*
X0184874Y0047548D01*
X0184874Y0046791D02*
X0184874Y0049874D01*
X0185645Y0049874D01*
X0185645Y0050646D01*
X0184874Y0050646D01*
X0184874Y0053728D01*
X0183290Y0053728D01*
X0182909Y0053626D01*
X0182567Y0053429D01*
X0182287Y0053149D01*
X0182090Y0052807D01*
X0181988Y0052426D01*
X0181988Y0050646D01*
X0184874Y0050646D01*
X0184874Y0049874D01*
X0181988Y0049874D01*
X0181988Y0048094D01*
X0182090Y0047712D01*
X0182287Y0047370D01*
X0182567Y0047091D01*
X0182909Y0046894D01*
X0183290Y0046791D01*
X0184874Y0046791D01*
X0184874Y0048546D02*
X0185645Y0048546D01*
X0185645Y0049545D02*
X0184874Y0049545D01*
X0184874Y0050543D02*
X0180263Y0050543D01*
X0180263Y0049545D02*
X0181988Y0049545D01*
X0181988Y0048546D02*
X0180263Y0048546D01*
X0180263Y0047670D02*
X0180263Y0052850D01*
X0179385Y0053728D01*
X0174599Y0053728D01*
X0173720Y0052850D01*
X0173720Y0047670D01*
X0174599Y0046791D01*
X0179385Y0046791D01*
X0180263Y0047670D01*
X0180141Y0047548D02*
X0182185Y0047548D01*
X0185645Y0050543D02*
X0188611Y0050543D01*
X0188531Y0050646D02*
X0188531Y0052426D01*
X0188429Y0052807D01*
X0188231Y0053149D01*
X0187952Y0053429D01*
X0187610Y0053626D01*
X0187229Y0053728D01*
X0185645Y0053728D01*
X0185645Y0050646D01*
X0188531Y0050646D01*
X0188531Y0051542D02*
X0190026Y0051542D01*
X0190276Y0052540D02*
X0188500Y0052540D01*
X0187761Y0053539D02*
X0191046Y0053539D01*
X0191902Y0055536D02*
X0188531Y0055536D01*
X0187918Y0054537D02*
X0193247Y0054537D01*
X0193150Y0055536D02*
X0194426Y0055536D01*
X0185645Y0053539D02*
X0184874Y0053539D01*
X0184874Y0052540D02*
X0185645Y0052540D01*
X0185645Y0051542D02*
X0184874Y0051542D01*
X0181988Y0051542D02*
X0180263Y0051542D01*
X0180263Y0052540D02*
X0182019Y0052540D01*
X0182758Y0053539D02*
X0179574Y0053539D01*
X0179651Y0054537D02*
X0182601Y0054537D01*
X0181988Y0055536D02*
X0180263Y0055536D01*
X0180263Y0056534D02*
X0181988Y0056534D01*
X0181988Y0057533D02*
X0180263Y0057533D01*
X0180263Y0058532D02*
X0181988Y0058532D01*
X0181988Y0059530D02*
X0180263Y0059530D01*
X0180065Y0060529D02*
X0182186Y0060529D01*
X0188333Y0060529D02*
X0191092Y0060529D01*
X0189582Y0061527D02*
X0171376Y0061527D01*
X0170616Y0062526D02*
X0174798Y0062526D01*
X0174314Y0063524D02*
X0169618Y0063524D01*
X0168619Y0064523D02*
X0174314Y0064523D01*
X0174314Y0066520D02*
X0162458Y0066520D01*
X0158661Y0066520D02*
X0150468Y0066520D01*
X0150468Y0065521D02*
X0158019Y0065521D01*
X0157860Y0064523D02*
X0150468Y0064523D01*
X0150468Y0063524D02*
X0150848Y0063524D01*
X0157110Y0063524D02*
X0157541Y0063524D01*
X0164337Y0062526D02*
X0165384Y0062526D01*
X0166382Y0061527D02*
X0164337Y0061527D01*
X0164337Y0060529D02*
X0166652Y0060529D01*
X0166057Y0059530D02*
X0164337Y0059530D01*
X0164337Y0058532D02*
X0166057Y0058532D01*
X0166057Y0057533D02*
X0164060Y0057533D01*
X0162576Y0056534D02*
X0166057Y0056534D01*
X0166057Y0055536D02*
X0162576Y0055536D01*
X0162576Y0054537D02*
X0166057Y0054537D01*
X0166356Y0053539D02*
X0162576Y0053539D01*
X0162576Y0052540D02*
X0166057Y0052540D01*
X0166057Y0051542D02*
X0162576Y0051542D01*
X0162576Y0050543D02*
X0169041Y0050543D01*
X0170010Y0050543D02*
X0173720Y0050543D01*
X0173720Y0049545D02*
X0172994Y0049545D01*
X0172994Y0048546D02*
X0173720Y0048546D01*
X0173842Y0047548D02*
X0172799Y0047548D01*
X0170010Y0047548D02*
X0169041Y0047548D01*
X0169041Y0048546D02*
X0170010Y0048546D01*
X0170010Y0049545D02*
X0169041Y0049545D01*
X0166057Y0049545D02*
X0162576Y0049545D01*
X0162576Y0048546D02*
X0166057Y0048546D01*
X0166252Y0047548D02*
X0162576Y0047548D01*
X0172994Y0051542D02*
X0173720Y0051542D01*
X0173720Y0052540D02*
X0172994Y0052540D01*
X0172695Y0053539D02*
X0174409Y0053539D01*
X0174333Y0054537D02*
X0172994Y0054537D01*
X0158876Y0055536D02*
X0150468Y0055536D01*
X0150468Y0056534D02*
X0158876Y0056534D01*
X0157613Y0054537D02*
X0157038Y0054537D01*
X0157038Y0053539D02*
X0157613Y0053539D01*
X0157613Y0052540D02*
X0157038Y0052540D01*
X0154890Y0054537D02*
X0149945Y0054537D01*
X0154261Y0053539D02*
X0122126Y0053539D01*
X0121752Y0054537D02*
X0128306Y0054537D01*
X0127783Y0055536D02*
X0121338Y0055536D01*
X0120345Y0056534D02*
X0127783Y0056534D01*
X0130669Y0056534D02*
X0131441Y0056534D01*
X0131441Y0057264D02*
X0131441Y0054182D01*
X0133024Y0054182D01*
X0133405Y0054284D01*
X0133747Y0054482D01*
X0134027Y0054761D01*
X0134224Y0055103D01*
X0134326Y0055484D01*
X0134326Y0057265D01*
X0131441Y0057265D01*
X0131441Y0057533D02*
X0139109Y0057533D01*
X0140342Y0057533D02*
X0143925Y0057533D01*
X0143925Y0056534D02*
X0134326Y0056534D01*
X0134326Y0055536D02*
X0143925Y0055536D01*
X0144448Y0054537D02*
X0133803Y0054537D01*
X0131441Y0054537D02*
X0130669Y0054537D01*
X0130669Y0055536D02*
X0131441Y0055536D01*
X0130669Y0057533D02*
X0121258Y0057533D01*
X0122080Y0058532D02*
X0127783Y0058532D01*
X0127783Y0059530D02*
X0122126Y0059530D01*
X0122126Y0060529D02*
X0128076Y0060529D01*
X0130669Y0060529D02*
X0131441Y0060529D01*
X0130669Y0061119D02*
X0130669Y0058036D01*
X0131441Y0058036D01*
X0131441Y0063564D01*
X0130669Y0063564D01*
X0130669Y0061119D01*
X0130669Y0061527D02*
X0131441Y0061527D01*
X0131441Y0062526D02*
X0130669Y0062526D01*
X0130669Y0063524D02*
X0131441Y0063524D01*
X0131441Y0064523D02*
X0130669Y0064523D01*
X0130669Y0065521D02*
X0131441Y0065521D01*
X0131441Y0066520D02*
X0130669Y0066520D01*
X0134211Y0066520D02*
X0143925Y0066520D01*
X0143925Y0065521D02*
X0134326Y0065521D01*
X0134326Y0064523D02*
X0143925Y0064523D01*
X0143925Y0063524D02*
X0134326Y0063524D01*
X0134326Y0062526D02*
X0138285Y0062526D01*
X0137353Y0061527D02*
X0134258Y0061527D01*
X0134033Y0060529D02*
X0137026Y0060529D01*
X0137081Y0059530D02*
X0134326Y0059530D01*
X0134326Y0058532D02*
X0137576Y0058532D01*
X0141875Y0058532D02*
X0143925Y0058532D01*
X0150468Y0057533D02*
X0150591Y0057533D01*
X0131441Y0058532D02*
X0130669Y0058532D01*
X0130669Y0059530D02*
X0131441Y0059530D01*
X0116426Y0062526D02*
X0109616Y0062526D01*
X0110615Y0061527D02*
X0111726Y0061527D01*
X0111726Y0060529D02*
X0111613Y0060529D01*
X0108378Y0058532D02*
X0083426Y0058532D01*
X0083426Y0057533D02*
X0109376Y0057533D01*
X0110375Y0056534D02*
X0083346Y0056534D01*
X0082932Y0055536D02*
X0111373Y0055536D01*
X0112100Y0054537D02*
X0105429Y0054537D01*
X0106947Y0053539D02*
X0111726Y0053539D01*
X0098422Y0054537D02*
X0082421Y0054537D01*
X0081422Y0053539D02*
X0096904Y0053539D01*
X0078426Y0066520D02*
X0077426Y0066520D01*
X0077426Y0066100D02*
X0077426Y0071100D01*
X0072426Y0071100D01*
X0072426Y0067403D01*
X0072528Y0067021D01*
X0072725Y0066679D01*
X0073005Y0066400D01*
X0073347Y0066202D01*
X0073728Y0066100D01*
X0077426Y0066100D01*
X0077426Y0067518D02*
X0078426Y0067518D01*
X0078426Y0068517D02*
X0077426Y0068517D01*
X0077426Y0069515D02*
X0078426Y0069515D01*
X0078426Y0070514D02*
X0077426Y0070514D01*
X0077426Y0071512D02*
X0042239Y0071512D01*
X0042737Y0072511D02*
X0072426Y0072511D01*
X0072426Y0073509D02*
X0042737Y0073509D01*
X0042737Y0074508D02*
X0072426Y0074508D01*
X0072426Y0075506D02*
X0042737Y0075506D01*
X0042737Y0076505D02*
X0072716Y0076505D01*
X0077426Y0076505D02*
X0078426Y0076505D01*
X0078426Y0075506D02*
X0077426Y0075506D01*
X0077426Y0074508D02*
X0078426Y0074508D01*
X0078426Y0073509D02*
X0077426Y0073509D01*
X0077426Y0072511D02*
X0078426Y0072511D01*
X0078426Y0071512D02*
X0099893Y0071512D01*
X0104531Y0068517D02*
X0105207Y0068517D01*
X0103037Y0067518D02*
X0112335Y0067518D01*
X0115956Y0071512D02*
X0160397Y0071512D01*
X0159399Y0072511D02*
X0158227Y0072511D01*
X0155624Y0072511D02*
X0148227Y0072511D01*
X0150189Y0073509D02*
X0153662Y0073509D01*
X0152664Y0074508D02*
X0151187Y0074508D01*
X0151687Y0075506D02*
X0152164Y0075506D01*
X0145624Y0072511D02*
X0138227Y0072511D01*
X0140189Y0073509D02*
X0143662Y0073509D01*
X0142664Y0074508D02*
X0141187Y0074508D01*
X0141687Y0075506D02*
X0142164Y0075506D01*
X0133662Y0073509D02*
X0130189Y0073509D01*
X0131187Y0074508D02*
X0132664Y0074508D01*
X0132164Y0075506D02*
X0131687Y0075506D01*
X0128227Y0072511D02*
X0135624Y0072511D01*
X0115956Y0072511D02*
X0114988Y0072511D01*
X0115381Y0073509D02*
X0115956Y0073509D01*
X0072426Y0070514D02*
X0040895Y0070514D01*
X0040895Y0069515D02*
X0072426Y0069515D01*
X0072426Y0068517D02*
X0041429Y0068517D01*
X0041923Y0067518D02*
X0072426Y0067518D01*
X0072885Y0066520D02*
X0041923Y0066520D01*
X0037195Y0068902D02*
X0037046Y0068902D01*
X0036683Y0068539D01*
X0036620Y0068602D01*
X0036278Y0068799D01*
X0035896Y0068902D01*
X0034510Y0068902D01*
X0034510Y0064638D01*
X0034132Y0064638D01*
X0034132Y0068902D01*
X0032745Y0068902D01*
X0032364Y0068799D01*
X0032022Y0068602D01*
X0031959Y0068539D01*
X0031596Y0068902D01*
X0031446Y0068902D01*
X0031446Y0069895D01*
X0030210Y0071131D01*
X0035166Y0071131D01*
X0035726Y0071691D01*
X0036285Y0071131D01*
X0037195Y0071131D01*
X0037195Y0068902D01*
X0037195Y0069515D02*
X0031446Y0069515D01*
X0030828Y0070514D02*
X0037195Y0070514D01*
X0035905Y0071512D02*
X0035546Y0071512D01*
X0034510Y0068517D02*
X0034132Y0068517D01*
X0034132Y0067518D02*
X0034510Y0067518D01*
X0034510Y0066520D02*
X0034132Y0066520D01*
X0034132Y0065521D02*
X0034510Y0065521D01*
X0034510Y0064260D02*
X0034510Y0059996D01*
X0035896Y0059996D01*
X0036278Y0060098D01*
X0036620Y0060296D01*
X0036683Y0060359D01*
X0037046Y0059996D01*
X0041045Y0059996D01*
X0041089Y0060040D01*
X0041089Y0057528D01*
X0041452Y0057165D01*
X0041089Y0056802D01*
X0041089Y0052804D01*
X0041452Y0052441D01*
X0041089Y0052078D01*
X0041089Y0048079D01*
X0041452Y0047717D01*
X0041089Y0047354D01*
X0041089Y0043355D01*
X0041452Y0042992D01*
X0041089Y0042629D01*
X0041089Y0038631D01*
X0041452Y0038268D01*
X0041089Y0037905D01*
X0041089Y0035393D01*
X0041045Y0035437D01*
X0037046Y0035437D01*
X0036683Y0035074D01*
X0036320Y0035437D01*
X0032322Y0035437D01*
X0031959Y0035074D01*
X0031596Y0035437D01*
X0027597Y0035437D01*
X0027234Y0035074D01*
X0027171Y0035137D01*
X0026829Y0035335D01*
X0026447Y0035437D01*
X0025061Y0035437D01*
X0025061Y0031173D01*
X0024683Y0031173D01*
X0024683Y0035437D01*
X0023297Y0035437D01*
X0022915Y0035335D01*
X0022573Y0035137D01*
X0022510Y0035074D01*
X0022147Y0035437D01*
X0018426Y0035437D01*
X0018426Y0059996D01*
X0022147Y0059996D01*
X0022510Y0060359D01*
X0022873Y0059996D01*
X0026871Y0059996D01*
X0027234Y0060359D01*
X0027597Y0059996D01*
X0031596Y0059996D01*
X0031959Y0060359D01*
X0032022Y0060296D01*
X0032364Y0060098D01*
X0032745Y0059996D01*
X0034132Y0059996D01*
X0034132Y0064260D01*
X0034510Y0064260D01*
X0034510Y0063524D02*
X0034132Y0063524D01*
X0034132Y0062526D02*
X0034510Y0062526D01*
X0034510Y0061527D02*
X0034132Y0061527D01*
X0034132Y0060529D02*
X0034510Y0060529D01*
X0041089Y0059530D02*
X0018426Y0059530D01*
X0018426Y0058532D02*
X0041089Y0058532D01*
X0041089Y0057533D02*
X0018426Y0057533D01*
X0018426Y0056534D02*
X0041089Y0056534D01*
X0041089Y0055536D02*
X0018426Y0055536D01*
X0018426Y0054537D02*
X0041089Y0054537D01*
X0041089Y0053539D02*
X0018426Y0053539D01*
X0018426Y0052540D02*
X0041352Y0052540D01*
X0041089Y0051542D02*
X0018426Y0051542D01*
X0018426Y0050543D02*
X0041089Y0050543D01*
X0041089Y0049545D02*
X0018426Y0049545D01*
X0018426Y0048546D02*
X0041089Y0048546D01*
X0041283Y0047548D02*
X0018426Y0047548D01*
X0018426Y0046549D02*
X0041089Y0046549D01*
X0041089Y0045551D02*
X0018426Y0045551D01*
X0018426Y0044552D02*
X0041089Y0044552D01*
X0041089Y0043554D02*
X0018426Y0043554D01*
X0018426Y0042555D02*
X0041089Y0042555D01*
X0041089Y0041557D02*
X0018426Y0041557D01*
X0018426Y0040558D02*
X0041089Y0040558D01*
X0041089Y0039560D02*
X0018426Y0039560D01*
X0018426Y0038561D02*
X0041158Y0038561D01*
X0041089Y0037563D02*
X0018426Y0037563D01*
X0018426Y0036564D02*
X0041089Y0036564D01*
X0041089Y0035566D02*
X0018426Y0035566D01*
X0024683Y0034567D02*
X0025061Y0034567D01*
X0025061Y0033569D02*
X0024683Y0033569D01*
X0024683Y0032570D02*
X0025061Y0032570D01*
X0025061Y0031572D02*
X0024683Y0031572D01*
X0024683Y0030795D02*
X0025061Y0030795D01*
X0025061Y0026769D01*
X0023761Y0025468D01*
X0020192Y0025468D01*
X0019314Y0024590D01*
X0019314Y0019410D01*
X0020192Y0018531D01*
X0025766Y0018531D01*
X0026326Y0019091D01*
X0026885Y0018531D01*
X0032459Y0018531D01*
X0032626Y0018698D01*
X0032792Y0018531D01*
X0036361Y0018531D01*
X0038192Y0016700D01*
X0045913Y0016700D01*
X0047026Y0017813D01*
X0047313Y0018100D01*
X0070539Y0018100D01*
X0071726Y0016913D01*
X0071726Y0016566D01*
X0072517Y0014654D01*
X0073072Y0014100D01*
X0018426Y0014100D01*
X0018426Y0026531D01*
X0022147Y0026531D01*
X0022510Y0026894D01*
X0022573Y0026831D01*
X0022915Y0026634D01*
X0023297Y0026531D01*
X0024683Y0026531D01*
X0024683Y0030795D01*
X0024683Y0030573D02*
X0025061Y0030573D01*
X0025061Y0029575D02*
X0024683Y0029575D01*
X0024683Y0028576D02*
X0025061Y0028576D01*
X0025061Y0027578D02*
X0024683Y0027578D01*
X0024683Y0026579D02*
X0024871Y0026579D01*
X0023873Y0025581D02*
X0018426Y0025581D01*
X0018426Y0024582D02*
X0019314Y0024582D01*
X0019314Y0023584D02*
X0018426Y0023584D01*
X0018426Y0022585D02*
X0019314Y0022585D01*
X0019314Y0021587D02*
X0018426Y0021587D01*
X0018426Y0020588D02*
X0019314Y0020588D01*
X0019314Y0019590D02*
X0018426Y0019590D01*
X0018426Y0018591D02*
X0020133Y0018591D01*
X0018426Y0017593D02*
X0037300Y0017593D01*
X0032733Y0018591D02*
X0032518Y0018591D01*
X0026826Y0018591D02*
X0025825Y0018591D01*
X0018426Y0016594D02*
X0071726Y0016594D01*
X0072127Y0015596D02*
X0018426Y0015596D01*
X0018426Y0014597D02*
X0072575Y0014597D01*
X0071046Y0017593D02*
X0046805Y0017593D01*
X0045937Y0024582D02*
X0068276Y0024582D01*
X0068276Y0025581D02*
X0039993Y0025581D01*
X0041092Y0026579D02*
X0068276Y0026579D01*
X0068276Y0027578D02*
X0041923Y0027578D01*
X0041923Y0028576D02*
X0068276Y0028576D01*
X0068276Y0029575D02*
X0041923Y0029575D01*
X0041923Y0030573D02*
X0068276Y0030573D01*
X0068276Y0031572D02*
X0041923Y0031572D01*
X0041923Y0032570D02*
X0068276Y0032570D01*
X0068276Y0033569D02*
X0062513Y0033569D01*
X0063337Y0034567D02*
X0068276Y0034567D01*
X0067941Y0035566D02*
X0063626Y0035566D01*
X0063531Y0036564D02*
X0067466Y0036564D01*
X0067426Y0037563D02*
X0062981Y0037563D01*
X0060781Y0038561D02*
X0067767Y0038561D01*
X0068767Y0039560D02*
X0059782Y0039560D01*
X0051945Y0036564D02*
X0049994Y0036564D01*
X0049994Y0035566D02*
X0052266Y0035566D01*
X0052740Y0034567D02*
X0049994Y0034567D01*
X0049657Y0033569D02*
X0054223Y0033569D01*
X0055629Y0033569D02*
X0059338Y0033569D01*
X0058514Y0034567D02*
X0057111Y0034567D01*
X0057585Y0035566D02*
X0058226Y0035566D01*
X0050947Y0037563D02*
X0049994Y0037563D01*
X0049948Y0038561D02*
X0049925Y0038561D01*
X0071976Y0034567D02*
X0074453Y0034567D01*
X0073455Y0033569D02*
X0071976Y0033569D01*
X0071976Y0032570D02*
X0072929Y0032570D01*
X0072515Y0031572D02*
X0071976Y0031572D01*
X0071976Y0030573D02*
X0072426Y0030573D01*
X0072426Y0029575D02*
X0071976Y0029575D01*
X0071976Y0028576D02*
X0072670Y0028576D01*
X0073084Y0027578D02*
X0071976Y0027578D01*
X0071976Y0026579D02*
X0073830Y0026579D01*
X0074854Y0025581D02*
X0071976Y0025581D01*
X0080997Y0025581D02*
X0085127Y0025581D01*
X0084426Y0026579D02*
X0082021Y0026579D01*
X0082767Y0027578D02*
X0084226Y0027578D01*
X0084407Y0028576D02*
X0083181Y0028576D01*
X0083426Y0029575D02*
X0085082Y0029575D01*
X0088769Y0029575D02*
X0089282Y0029575D01*
X0087327Y0024582D02*
X0082560Y0024582D01*
X0083558Y0023584D02*
X0088326Y0023584D01*
X0088479Y0022585D02*
X0089324Y0022585D01*
X0090293Y0021587D02*
X0090323Y0021587D01*
X0091291Y0020588D02*
X0092669Y0020588D01*
X0092104Y0019590D02*
X0091730Y0019590D01*
X0085372Y0022585D02*
X0084557Y0022585D01*
X0083576Y0023566D02*
X0083576Y0023566D01*
X0076359Y0035566D02*
X0072310Y0035566D01*
X0023119Y0026579D02*
X0022195Y0026579D01*
X0168869Y0027578D02*
X0169641Y0027578D01*
X0169641Y0028576D02*
X0168869Y0028576D01*
X0168869Y0029575D02*
X0169641Y0029575D01*
X0172526Y0028576D02*
X0182125Y0028576D01*
X0182408Y0027578D02*
X0172236Y0027578D01*
X0172560Y0024582D02*
X0205691Y0024582D01*
X0206690Y0025581D02*
X0200790Y0025581D01*
X0201360Y0026579D02*
X0205792Y0026579D01*
X0205426Y0027578D02*
X0203120Y0027578D01*
X0204118Y0028576D02*
X0205442Y0028576D01*
X0205117Y0029575D02*
X0205882Y0029575D01*
X0206115Y0030573D02*
X0207282Y0030573D01*
X0204108Y0033798D02*
X0201360Y0031050D01*
X0201360Y0031724D01*
X0200800Y0032283D01*
X0201060Y0032543D01*
X0201257Y0032886D01*
X0201360Y0033267D01*
X0201360Y0035146D01*
X0198375Y0035146D01*
X0198375Y0036114D01*
X0201360Y0036114D01*
X0201360Y0036547D01*
X0202733Y0035173D01*
X0202841Y0035173D01*
X0202989Y0034917D01*
X0203616Y0034290D01*
X0204108Y0033798D01*
X0203878Y0033569D02*
X0201360Y0033569D01*
X0201360Y0034567D02*
X0203339Y0034567D01*
X0203616Y0034290D02*
X0205790Y0036464D01*
X0203616Y0034290D01*
X0203893Y0034567D02*
X0203893Y0034567D01*
X0204891Y0035566D02*
X0204891Y0035566D01*
X0205790Y0036464D02*
X0205790Y0036464D01*
X0205790Y0036465D01*
X0207964Y0038639D01*
X0207472Y0039130D01*
X0209642Y0041300D01*
X0210263Y0041300D01*
X0211255Y0041711D01*
X0212015Y0042471D01*
X0212426Y0043463D01*
X0212426Y0044537D01*
X0212015Y0045529D01*
X0211255Y0046289D01*
X0210263Y0046700D01*
X0209558Y0046700D01*
X0209626Y0046863D01*
X0209626Y0047937D01*
X0209215Y0048929D01*
X0208455Y0049689D01*
X0207463Y0050100D01*
X0206826Y0050100D01*
X0206826Y0050537D01*
X0206415Y0051529D01*
X0205655Y0052289D01*
X0204663Y0052700D01*
X0204103Y0052700D01*
X0205272Y0053869D01*
X0205272Y0053977D01*
X0205528Y0054125D01*
X0206155Y0054752D01*
X0206782Y0055379D01*
X0206929Y0055635D01*
X0207038Y0055635D01*
X0207826Y0056423D01*
X0207826Y0055663D01*
X0208237Y0054671D01*
X0208996Y0053911D01*
X0209989Y0053500D01*
X0211063Y0053500D01*
X0212055Y0053911D01*
X0212815Y0054671D01*
X0213221Y0055652D01*
X0213589Y0055500D01*
X0214663Y0055500D01*
X0215655Y0055911D01*
X0216415Y0056671D01*
X0216826Y0057663D01*
X0216826Y0058737D01*
X0216665Y0059124D01*
X0219995Y0062453D01*
X0221385Y0061063D01*
X0222548Y0059900D01*
X0222389Y0059900D01*
X0221396Y0059489D01*
X0220637Y0058729D01*
X0220226Y0057737D01*
X0220226Y0056663D01*
X0220637Y0055671D01*
X0221396Y0054911D01*
X0222389Y0054500D01*
X0223463Y0054500D01*
X0224455Y0054911D01*
X0225215Y0055671D01*
X0225626Y0056663D01*
X0225626Y0056823D01*
X0226813Y0055635D01*
X0226922Y0055635D01*
X0227070Y0055379D01*
X0227696Y0054752D01*
X0229870Y0056926D01*
X0229871Y0056926D01*
X0229871Y0056926D01*
X0232045Y0059100D01*
X0232672Y0058473D01*
X0232820Y0058217D01*
X0232928Y0058217D01*
X0234327Y0056818D01*
X0234876Y0057366D01*
X0234876Y0065742D01*
X0234826Y0065863D01*
X0234826Y0066937D01*
X0235237Y0067929D01*
X0235996Y0068689D01*
X0236989Y0069100D01*
X0238063Y0069100D01*
X0239055Y0068689D01*
X0239815Y0067929D01*
X0239926Y0067661D01*
X0240037Y0067929D01*
X0240796Y0068689D01*
X0241789Y0069100D01*
X0242863Y0069100D01*
X0243855Y0068689D01*
X0244615Y0067929D01*
X0244972Y0067065D01*
X0244996Y0067089D01*
X0245989Y0067500D01*
X0247063Y0067500D01*
X0247851Y0067174D01*
X0247851Y0067725D01*
X0247953Y0068107D01*
X0248150Y0068449D01*
X0248430Y0068728D01*
X0248772Y0068925D01*
X0249153Y0069028D01*
X0250638Y0069028D01*
X0250638Y0066240D01*
X0251213Y0066240D01*
X0254000Y0066240D01*
X0254000Y0067725D01*
X0253898Y0068107D01*
X0253701Y0068449D01*
X0253421Y0068728D01*
X0253079Y0068925D01*
X0252698Y0069028D01*
X0251213Y0069028D01*
X0251213Y0066240D01*
X0251213Y0065665D01*
X0254000Y0065665D01*
X0254000Y0064180D01*
X0253898Y0063799D01*
X0253701Y0063457D01*
X0253421Y0063178D01*
X0253196Y0063048D01*
X0254000Y0062243D01*
X0254000Y0057851D01*
X0253122Y0056972D01*
X0252776Y0056972D01*
X0252776Y0056834D01*
X0251692Y0055750D01*
X0250576Y0054634D01*
X0250576Y0053034D01*
X0249492Y0051950D01*
X0249492Y0051950D01*
X0248994Y0051452D01*
X0248994Y0050868D01*
X0250188Y0050868D01*
X0250188Y0047884D01*
X0251156Y0047884D01*
X0251156Y0050868D01*
X0252626Y0050868D01*
X0252626Y0052387D01*
X0253739Y0053500D01*
X0253739Y0053500D01*
X0254026Y0053787D01*
X0254026Y0053787D01*
X0255139Y0054900D01*
X0257274Y0054900D01*
X0257274Y0055488D01*
X0257642Y0055857D01*
X0257289Y0056210D01*
X0257289Y0061390D01*
X0257642Y0061743D01*
X0257573Y0061812D01*
X0257376Y0062154D01*
X0257274Y0062536D01*
X0257274Y0064217D01*
X0260076Y0064217D01*
X0260067Y0065186D01*
X0257274Y0065186D01*
X0257274Y0066868D01*
X0257376Y0067249D01*
X0257573Y0067591D01*
X0257853Y0067870D01*
X0258195Y0068068D01*
X0258576Y0068170D01*
X0260040Y0068170D01*
X0260033Y0069006D01*
X0260026Y0069013D01*
X0260026Y0069791D01*
X0260019Y0070570D01*
X0260026Y0070577D01*
X0260026Y0070587D01*
X0260576Y0071137D01*
X0261121Y0071693D01*
X0261131Y0071693D01*
X0261139Y0071700D01*
X0261917Y0071700D01*
X0262695Y0071707D01*
X0262702Y0071700D01*
X0302913Y0071700D01*
X0304026Y0070587D01*
X0304026Y0066428D01*
X0304097Y0066500D01*
X0312426Y0066500D01*
X0312426Y0066828D01*
X0313597Y0068000D01*
X0315754Y0068000D01*
X0316926Y0066828D01*
X0316926Y0056172D01*
X0315754Y0055000D01*
X0314097Y0055000D01*
X0305754Y0055000D01*
X0304097Y0055000D01*
X0302926Y0056172D01*
X0302926Y0058513D01*
X0302913Y0058500D01*
X0302713Y0058300D01*
X0290913Y0058300D01*
X0283826Y0051213D01*
X0283826Y0047013D01*
X0283794Y0046982D01*
X0283794Y0043160D01*
X0283234Y0042600D01*
X0283494Y0042340D01*
X0283692Y0041998D01*
X0283794Y0041616D01*
X0283794Y0039738D01*
X0280810Y0039738D01*
X0280810Y0038769D01*
X0280810Y0035588D01*
X0282492Y0035588D01*
X0282873Y0035690D01*
X0283215Y0035888D01*
X0283494Y0036167D01*
X0283692Y0036509D01*
X0283794Y0036891D01*
X0283794Y0038769D01*
X0280810Y0038769D01*
X0279841Y0038769D01*
X0276857Y0038769D01*
X0276857Y0038485D01*
X0276026Y0039316D01*
X0276026Y0039937D01*
X0275615Y0040929D01*
X0274855Y0041689D01*
X0273863Y0042100D01*
X0272789Y0042100D01*
X0271994Y0041771D01*
X0271994Y0042040D01*
X0271434Y0042600D01*
X0271994Y0043160D01*
X0271994Y0045900D01*
X0276857Y0045900D01*
X0276857Y0043160D01*
X0277417Y0042600D01*
X0277157Y0042340D01*
X0276959Y0041998D01*
X0276857Y0041616D01*
X0276857Y0039738D01*
X0279841Y0039738D01*
X0279841Y0038769D01*
X0279841Y0035588D01*
X0278776Y0035588D01*
X0278776Y0022462D01*
X0279871Y0022008D01*
X0281334Y0020546D01*
X0281926Y0019117D01*
X0282179Y0019730D01*
X0281076Y0020834D01*
X0281076Y0030632D01*
X0280637Y0031071D01*
X0280226Y0032063D01*
X0280226Y0033137D01*
X0280637Y0034129D01*
X0281396Y0034889D01*
X0282389Y0035300D01*
X0283463Y0035300D01*
X0284455Y0034889D01*
X0284826Y0034518D01*
X0284826Y0035697D01*
X0284426Y0036663D01*
X0284426Y0037737D01*
X0284837Y0038729D01*
X0285596Y0039489D01*
X0286589Y0039900D01*
X0287663Y0039900D01*
X0288655Y0039489D01*
X0289415Y0038729D01*
X0289826Y0037737D01*
X0289826Y0036663D01*
X0289426Y0035697D01*
X0289426Y0028353D01*
X0295246Y0022533D01*
X0295891Y0022800D01*
X0297960Y0022800D01*
X0299871Y0022008D01*
X0301334Y0020546D01*
X0301940Y0019083D01*
X0302107Y0019596D01*
X0302478Y0020325D01*
X0302959Y0020988D01*
X0303538Y0021566D01*
X0304200Y0022047D01*
X0304929Y0022419D01*
X0305708Y0022672D01*
X0306426Y0022786D01*
X0306426Y0018100D01*
X0307426Y0018100D01*
X0307426Y0022786D01*
X0308143Y0022672D01*
X0308922Y0022419D01*
X0309651Y0022047D01*
X0310313Y0021566D01*
X0310892Y0020988D01*
X0311373Y0020325D01*
X0311745Y0019596D01*
X0311911Y0019083D01*
X0312517Y0020546D01*
X0313980Y0022008D01*
X0315891Y0022800D01*
X0317960Y0022800D01*
X0319871Y0022008D01*
X0321334Y0020546D01*
X0322126Y0018634D01*
X0322126Y0016566D01*
X0321334Y0014654D01*
X0320779Y0014100D01*
X0355426Y0014100D01*
X0355426Y0081100D01*
X0320779Y0081100D01*
X0321334Y0080546D01*
X0322126Y0078634D01*
X0322126Y0076566D01*
X0321334Y0074654D01*
X0319871Y0073192D01*
X0317960Y0072400D01*
X0315891Y0072400D01*
X0313980Y0073192D01*
X0312517Y0074654D01*
X0311911Y0076117D01*
X0311745Y0075604D01*
X0311373Y0074875D01*
X0310892Y0074212D01*
X0310313Y0073634D01*
X0309651Y0073153D01*
X0308922Y0072781D01*
X0308143Y0072528D01*
X0307426Y0072414D01*
X0307426Y0077100D01*
X0306426Y0077100D01*
X0306426Y0072414D01*
X0305708Y0072528D01*
X0304929Y0072781D01*
X0304200Y0073153D01*
X0303538Y0073634D01*
X0302959Y0074212D01*
X0302478Y0074875D01*
X0302107Y0075604D01*
X0301940Y0076117D01*
X0301334Y0074654D01*
X0299871Y0073192D01*
X0297960Y0072400D01*
X0295891Y0072400D01*
X0293980Y0073192D01*
X0292517Y0074654D01*
X0291926Y0076083D01*
X0291334Y0074654D01*
X0289871Y0073192D01*
X0287960Y0072400D01*
X0285891Y0072400D01*
X0283980Y0073192D01*
X0282517Y0074654D01*
X0281926Y0076083D01*
X0281334Y0074654D01*
X0279871Y0073192D01*
X0277960Y0072400D01*
X0275891Y0072400D01*
X0273980Y0073192D01*
X0272517Y0074654D01*
X0271926Y0076083D01*
X0271334Y0074654D01*
X0269871Y0073192D01*
X0267960Y0072400D01*
X0265891Y0072400D01*
X0263980Y0073192D01*
X0262517Y0074654D01*
X0261926Y0076083D01*
X0261334Y0074654D01*
X0259871Y0073192D01*
X0257960Y0072400D01*
X0255891Y0072400D01*
X0253980Y0073192D01*
X0252517Y0074654D01*
X0251926Y0076083D01*
X0251334Y0074654D01*
X0249871Y0073192D01*
X0247960Y0072400D01*
X0245891Y0072400D01*
X0243980Y0073192D01*
X0242517Y0074654D01*
X0241926Y0076083D01*
X0241334Y0074654D01*
X0239871Y0073192D01*
X0237960Y0072400D01*
X0235891Y0072400D01*
X0234796Y0072854D01*
X0229242Y0067300D01*
X0229663Y0067300D01*
X0230655Y0066889D01*
X0231415Y0066129D01*
X0231826Y0065137D01*
X0231826Y0064063D01*
X0231776Y0063942D01*
X0231776Y0059834D01*
X0231543Y0059602D01*
X0232045Y0059100D01*
X0229871Y0056926D01*
X0227696Y0054752D01*
X0228179Y0054269D01*
X0227076Y0053166D01*
X0227076Y0052968D01*
X0226637Y0052529D01*
X0226226Y0051537D01*
X0226226Y0050463D01*
X0226637Y0049471D01*
X0227308Y0048799D01*
X0222959Y0044450D01*
X0218294Y0044450D01*
X0217855Y0044889D01*
X0216863Y0045300D01*
X0215789Y0045300D01*
X0214796Y0044889D01*
X0214037Y0044129D01*
X0213626Y0043137D01*
X0213626Y0042063D01*
X0214037Y0041071D01*
X0214796Y0040311D01*
X0215789Y0039900D01*
X0216863Y0039900D01*
X0217855Y0040311D01*
X0218294Y0040750D01*
X0224492Y0040750D01*
X0229325Y0045583D01*
X0229996Y0044911D01*
X0230989Y0044500D01*
X0231748Y0044500D01*
X0230432Y0043184D01*
X0228623Y0041375D01*
X0226770Y0039522D01*
X0226770Y0039413D01*
X0226514Y0039265D01*
X0225887Y0038639D01*
X0228061Y0036465D01*
X0228061Y0036464D01*
X0228061Y0036464D01*
X0230235Y0034290D01*
X0229743Y0033798D01*
X0230376Y0033166D01*
X0230376Y0029566D01*
X0232092Y0027850D01*
X0239492Y0027850D01*
X0241092Y0026250D01*
X0250892Y0026250D01*
X0254796Y0022346D01*
X0255891Y0022800D01*
X0257960Y0022800D01*
X0259871Y0022008D01*
X0261334Y0020546D01*
X0261926Y0019117D01*
X0262517Y0020546D01*
X0263980Y0022008D01*
X0265891Y0022800D01*
X0267960Y0022800D01*
X0269055Y0022346D01*
X0271476Y0024766D01*
X0271476Y0034032D01*
X0271226Y0034282D01*
X0271226Y0033663D01*
X0270815Y0032671D01*
X0270055Y0031911D01*
X0269063Y0031500D01*
X0267989Y0031500D01*
X0266996Y0031911D01*
X0266353Y0032554D01*
X0266353Y0031804D01*
X0265474Y0030925D01*
X0261082Y0030925D01*
X0260278Y0031729D01*
X0260148Y0031504D01*
X0259869Y0031225D01*
X0259527Y0031027D01*
X0259145Y0030925D01*
X0257660Y0030925D01*
X0257660Y0033713D01*
X0257085Y0033713D01*
X0254298Y0033713D01*
X0254298Y0032228D01*
X0254400Y0031846D01*
X0254598Y0031504D01*
X0254877Y0031225D01*
X0255219Y0031027D01*
X0255601Y0030925D01*
X0257085Y0030925D01*
X0257085Y0033713D01*
X0257085Y0034287D01*
X0254298Y0034287D01*
X0254298Y0035772D01*
X0254336Y0035912D01*
X0254042Y0036082D01*
X0253763Y0036361D01*
X0253566Y0036703D01*
X0253463Y0037084D01*
X0253463Y0038569D01*
X0257038Y0038569D01*
X0257613Y0038569D01*
X0257613Y0035782D01*
X0257660Y0035782D01*
X0257660Y0034287D01*
X0257085Y0034287D01*
X0257085Y0037075D01*
X0257038Y0037075D01*
X0257038Y0038569D01*
X0257038Y0039144D01*
X0253463Y0039144D01*
X0253463Y0040629D01*
X0253566Y0041010D01*
X0253763Y0041353D01*
X0254042Y0041632D01*
X0254384Y0041829D01*
X0254766Y0041931D01*
X0257038Y0041931D01*
X0257038Y0039144D01*
X0257613Y0039144D01*
X0257613Y0041931D01*
X0259657Y0041931D01*
X0259657Y0042040D01*
X0259717Y0042100D01*
X0253739Y0042100D01*
X0252626Y0043213D01*
X0252626Y0043931D01*
X0251156Y0043931D01*
X0251156Y0046916D01*
X0250188Y0046916D01*
X0250188Y0043931D01*
X0248309Y0043931D01*
X0247928Y0044034D01*
X0247586Y0044231D01*
X0247326Y0044491D01*
X0246766Y0043931D01*
X0245776Y0043931D01*
X0245776Y0043834D01*
X0244692Y0042750D01*
X0243831Y0041889D01*
X0244226Y0040937D01*
X0244226Y0039863D01*
X0243886Y0039042D01*
X0244255Y0038889D01*
X0244463Y0038681D01*
X0244463Y0039256D01*
X0248038Y0039256D01*
X0248038Y0039831D01*
X0248038Y0042618D01*
X0245766Y0042618D01*
X0245384Y0042516D01*
X0245042Y0042318D01*
X0244763Y0042039D01*
X0244566Y0041697D01*
X0244463Y0041316D01*
X0244463Y0039831D01*
X0248038Y0039831D01*
X0248613Y0039831D01*
X0248613Y0042618D01*
X0250885Y0042618D01*
X0251267Y0042516D01*
X0251609Y0042318D01*
X0251888Y0042039D01*
X0252086Y0041697D01*
X0252188Y0041316D01*
X0252188Y0039831D01*
X0248613Y0039831D01*
X0248613Y0039256D01*
X0252188Y0039256D01*
X0252188Y0037771D01*
X0252086Y0037390D01*
X0251888Y0037047D01*
X0251609Y0036768D01*
X0251267Y0036571D01*
X0250885Y0036469D01*
X0248613Y0036469D01*
X0248613Y0039256D01*
X0248038Y0039256D01*
X0248038Y0036468D01*
X0245766Y0036469D01*
X0245426Y0036560D01*
X0245426Y0036063D01*
X0245109Y0035298D01*
X0245342Y0035531D01*
X0251309Y0035531D01*
X0252188Y0034653D01*
X0252188Y0030261D01*
X0251309Y0029382D01*
X0246537Y0029382D01*
X0246537Y0029210D01*
X0245659Y0028331D01*
X0240085Y0028331D01*
X0239526Y0028891D01*
X0239266Y0028631D01*
X0238923Y0028434D01*
X0238542Y0028331D01*
X0236663Y0028331D01*
X0236663Y0031316D01*
X0235695Y0031316D01*
X0232514Y0031316D01*
X0232514Y0029634D01*
X0232616Y0029253D01*
X0232813Y0028910D01*
X0233093Y0028631D01*
X0233435Y0028434D01*
X0233816Y0028331D01*
X0235695Y0028331D01*
X0235695Y0031316D01*
X0235695Y0032284D01*
X0232514Y0032284D01*
X0232514Y0033350D01*
X0232159Y0033350D01*
X0231076Y0034434D01*
X0231076Y0034434D01*
X0230727Y0034782D01*
X0230235Y0034290D01*
X0228061Y0036464D01*
X0225887Y0038639D01*
X0225260Y0038012D01*
X0225112Y0037756D01*
X0225004Y0037756D01*
X0223151Y0035903D01*
X0223151Y0035903D01*
X0221341Y0034093D01*
X0219575Y0032327D01*
X0217722Y0030474D01*
X0216926Y0029677D01*
X0216085Y0030518D01*
X0214276Y0032327D01*
X0214276Y0032327D01*
X0212872Y0033730D01*
X0214042Y0034900D01*
X0214663Y0034900D01*
X0215655Y0035311D01*
X0216415Y0036071D01*
X0216826Y0037063D01*
X0216826Y0038137D01*
X0216415Y0039129D01*
X0215655Y0039889D01*
X0214663Y0040300D01*
X0213589Y0040300D01*
X0212596Y0039889D01*
X0211837Y0039129D01*
X0211426Y0038137D01*
X0211426Y0037516D01*
X0210256Y0036347D01*
X0208847Y0037756D01*
X0208739Y0037756D01*
X0208591Y0038012D01*
X0207964Y0038639D01*
X0205790Y0036464D01*
X0205890Y0036564D02*
X0205890Y0036564D01*
X0206888Y0037563D02*
X0206888Y0037563D01*
X0207887Y0038561D02*
X0207887Y0038561D01*
X0208042Y0038561D02*
X0211601Y0038561D01*
X0211426Y0037563D02*
X0209040Y0037563D01*
X0210039Y0036564D02*
X0210474Y0036564D01*
X0213709Y0034567D02*
X0221816Y0034567D01*
X0222814Y0035566D02*
X0215910Y0035566D01*
X0216619Y0036564D02*
X0223813Y0036564D01*
X0224811Y0037563D02*
X0216826Y0037563D01*
X0216650Y0038561D02*
X0225810Y0038561D01*
X0225964Y0038561D02*
X0225964Y0038561D01*
X0226808Y0039560D02*
X0215984Y0039560D01*
X0214549Y0040558D02*
X0208900Y0040558D01*
X0207902Y0039560D02*
X0212267Y0039560D01*
X0210883Y0041557D02*
X0213835Y0041557D01*
X0213626Y0042555D02*
X0212050Y0042555D01*
X0212426Y0043554D02*
X0213798Y0043554D01*
X0214460Y0044552D02*
X0212419Y0044552D01*
X0211993Y0045551D02*
X0224060Y0045551D01*
X0223062Y0044552D02*
X0218192Y0044552D01*
X0225059Y0046549D02*
X0210626Y0046549D01*
X0209626Y0047548D02*
X0226057Y0047548D01*
X0227056Y0048546D02*
X0209373Y0048546D01*
X0208599Y0049545D02*
X0226606Y0049545D01*
X0226226Y0050543D02*
X0206823Y0050543D01*
X0206402Y0051542D02*
X0226228Y0051542D01*
X0226648Y0052540D02*
X0205048Y0052540D01*
X0204942Y0053539D02*
X0209894Y0053539D01*
X0211157Y0053539D02*
X0227448Y0053539D01*
X0227911Y0054537D02*
X0223553Y0054537D01*
X0222298Y0054537D02*
X0212681Y0054537D01*
X0213173Y0055536D02*
X0213502Y0055536D01*
X0214750Y0055536D02*
X0220771Y0055536D01*
X0220279Y0056534D02*
X0216278Y0056534D01*
X0216772Y0057533D02*
X0220226Y0057533D01*
X0220555Y0058532D02*
X0216826Y0058532D01*
X0217072Y0059530D02*
X0221495Y0059530D01*
X0221920Y0060529D02*
X0218070Y0060529D01*
X0219069Y0061527D02*
X0220921Y0061527D01*
X0230478Y0057533D02*
X0230478Y0057533D01*
X0231476Y0058532D02*
X0231476Y0058532D01*
X0231615Y0059530D02*
X0234876Y0059530D01*
X0234876Y0058532D02*
X0232614Y0058532D01*
X0233612Y0057533D02*
X0234876Y0057533D01*
X0234876Y0060529D02*
X0231776Y0060529D01*
X0231776Y0061527D02*
X0234876Y0061527D01*
X0234876Y0062526D02*
X0231776Y0062526D01*
X0231776Y0063524D02*
X0234876Y0063524D01*
X0234876Y0064523D02*
X0231826Y0064523D01*
X0231667Y0065521D02*
X0234876Y0065521D01*
X0234826Y0066520D02*
X0231024Y0066520D01*
X0229460Y0067518D02*
X0235066Y0067518D01*
X0235824Y0068517D02*
X0230459Y0068517D01*
X0231457Y0069515D02*
X0260026Y0069515D01*
X0260037Y0068517D02*
X0253633Y0068517D01*
X0254000Y0067518D02*
X0257531Y0067518D01*
X0257274Y0066520D02*
X0254000Y0066520D01*
X0254000Y0065521D02*
X0257274Y0065521D01*
X0260073Y0064523D02*
X0254000Y0064523D01*
X0253739Y0063524D02*
X0257274Y0063524D01*
X0257276Y0062526D02*
X0253718Y0062526D01*
X0254000Y0061527D02*
X0257427Y0061527D01*
X0257289Y0060529D02*
X0254000Y0060529D01*
X0254000Y0059530D02*
X0257289Y0059530D01*
X0257289Y0058532D02*
X0254000Y0058532D01*
X0253682Y0057533D02*
X0257289Y0057533D01*
X0257289Y0056534D02*
X0252476Y0056534D01*
X0251478Y0055536D02*
X0257321Y0055536D01*
X0254776Y0054537D02*
X0250576Y0054537D01*
X0250576Y0053539D02*
X0253778Y0053539D01*
X0252779Y0052540D02*
X0250082Y0052540D01*
X0249084Y0051542D02*
X0252626Y0051542D01*
X0251156Y0050543D02*
X0250188Y0050543D01*
X0250188Y0049545D02*
X0251156Y0049545D01*
X0251156Y0048546D02*
X0250188Y0048546D01*
X0250188Y0046549D02*
X0251156Y0046549D01*
X0251156Y0045551D02*
X0250188Y0045551D01*
X0250188Y0044552D02*
X0251156Y0044552D01*
X0252626Y0043554D02*
X0245496Y0043554D01*
X0245532Y0042555D02*
X0244497Y0042555D01*
X0244528Y0041557D02*
X0243969Y0041557D01*
X0244226Y0040558D02*
X0244463Y0040558D01*
X0244100Y0039560D02*
X0248038Y0039560D01*
X0248613Y0039560D02*
X0253463Y0039560D01*
X0253463Y0040558D02*
X0252188Y0040558D01*
X0252123Y0041557D02*
X0253967Y0041557D01*
X0253283Y0042555D02*
X0251119Y0042555D01*
X0248613Y0042555D02*
X0248038Y0042555D01*
X0248038Y0041557D02*
X0248613Y0041557D01*
X0248613Y0040558D02*
X0248038Y0040558D01*
X0248038Y0038561D02*
X0248613Y0038561D01*
X0248613Y0037563D02*
X0248038Y0037563D01*
X0248038Y0036564D02*
X0248613Y0036564D01*
X0251243Y0036564D02*
X0253646Y0036564D01*
X0253463Y0037563D02*
X0252132Y0037563D01*
X0252188Y0038561D02*
X0253463Y0038561D01*
X0257038Y0038561D02*
X0257613Y0038561D01*
X0257613Y0037563D02*
X0257038Y0037563D01*
X0257085Y0036564D02*
X0257613Y0036564D01*
X0257660Y0035566D02*
X0257085Y0035566D01*
X0257085Y0034567D02*
X0257660Y0034567D01*
X0257660Y0033569D02*
X0257085Y0033569D01*
X0257085Y0032570D02*
X0257660Y0032570D01*
X0257660Y0031572D02*
X0257085Y0031572D01*
X0254559Y0031572D02*
X0252188Y0031572D01*
X0252188Y0032570D02*
X0254298Y0032570D01*
X0254298Y0033569D02*
X0252188Y0033569D01*
X0252188Y0034567D02*
X0254298Y0034567D01*
X0254298Y0035566D02*
X0245220Y0035566D01*
X0235695Y0031572D02*
X0230376Y0031572D01*
X0230376Y0032570D02*
X0232514Y0032570D01*
X0231941Y0033569D02*
X0229973Y0033569D01*
X0229958Y0034567D02*
X0229958Y0034567D01*
X0230512Y0034567D02*
X0230942Y0034567D01*
X0228960Y0035566D02*
X0228960Y0035566D01*
X0227961Y0036564D02*
X0227961Y0036564D01*
X0226963Y0037563D02*
X0226963Y0037563D01*
X0227807Y0040558D02*
X0218102Y0040558D01*
X0225299Y0041557D02*
X0228805Y0041557D01*
X0228623Y0041375D02*
X0228623Y0041375D01*
X0229804Y0042555D02*
X0226297Y0042555D01*
X0227296Y0043554D02*
X0230802Y0043554D01*
X0230432Y0043184D02*
X0230432Y0043184D01*
X0230862Y0044552D02*
X0228294Y0044552D01*
X0229293Y0045551D02*
X0229356Y0045551D01*
X0208370Y0054537D02*
X0205940Y0054537D01*
X0206155Y0054752D02*
X0203981Y0056926D01*
X0206155Y0054752D01*
X0206872Y0055536D02*
X0207878Y0055536D01*
X0205371Y0055536D02*
X0205370Y0055536D01*
X0204372Y0056534D02*
X0204372Y0056534D01*
X0203981Y0056926D02*
X0203981Y0056926D01*
X0203980Y0056926D02*
X0203980Y0056926D01*
X0201806Y0059100D01*
X0203980Y0056926D01*
X0203374Y0057533D02*
X0203373Y0057533D01*
X0202375Y0058532D02*
X0202375Y0058532D01*
X0202236Y0059530D02*
X0200212Y0059530D01*
X0201210Y0058532D02*
X0201238Y0058532D01*
X0201381Y0060529D02*
X0198932Y0060529D01*
X0197720Y0060529D02*
X0193959Y0060529D01*
X0188584Y0062526D02*
X0187853Y0062526D01*
X0181491Y0062526D02*
X0181160Y0062526D01*
X0178463Y0062526D02*
X0177495Y0062526D01*
X0177495Y0063524D02*
X0178463Y0063524D01*
X0178463Y0064523D02*
X0177495Y0064523D01*
X0177495Y0065521D02*
X0167621Y0065521D01*
X0172399Y0060529D02*
X0173919Y0060529D01*
X0173720Y0059530D02*
X0172994Y0059530D01*
X0225080Y0055536D02*
X0226979Y0055536D01*
X0225914Y0056534D02*
X0225572Y0056534D01*
X0228481Y0055536D02*
X0228481Y0055536D01*
X0229479Y0056534D02*
X0229479Y0056534D01*
X0250638Y0066520D02*
X0251213Y0066520D01*
X0251213Y0067518D02*
X0250638Y0067518D01*
X0250638Y0068517D02*
X0251213Y0068517D01*
X0248219Y0068517D02*
X0244027Y0068517D01*
X0244785Y0067518D02*
X0247851Y0067518D01*
X0240624Y0068517D02*
X0239227Y0068517D01*
X0232456Y0070514D02*
X0260019Y0070514D01*
X0260944Y0071512D02*
X0233454Y0071512D01*
X0234453Y0072511D02*
X0235624Y0072511D01*
X0238227Y0072511D02*
X0245624Y0072511D01*
X0243662Y0073509D02*
X0240189Y0073509D01*
X0241187Y0074508D02*
X0242664Y0074508D01*
X0242164Y0075506D02*
X0241687Y0075506D01*
X0250189Y0073509D02*
X0253662Y0073509D01*
X0252664Y0074508D02*
X0251187Y0074508D01*
X0251687Y0075506D02*
X0252164Y0075506D01*
X0260189Y0073509D02*
X0263662Y0073509D01*
X0262664Y0074508D02*
X0261187Y0074508D01*
X0261687Y0075506D02*
X0262164Y0075506D01*
X0270189Y0073509D02*
X0273662Y0073509D01*
X0272664Y0074508D02*
X0271187Y0074508D01*
X0271687Y0075506D02*
X0272164Y0075506D01*
X0280189Y0073509D02*
X0283662Y0073509D01*
X0282664Y0074508D02*
X0281187Y0074508D01*
X0281687Y0075506D02*
X0282164Y0075506D01*
X0290189Y0073509D02*
X0293662Y0073509D01*
X0292664Y0074508D02*
X0291187Y0074508D01*
X0291687Y0075506D02*
X0292164Y0075506D01*
X0295624Y0072511D02*
X0288227Y0072511D01*
X0285624Y0072511D02*
X0278227Y0072511D01*
X0275624Y0072511D02*
X0268227Y0072511D01*
X0265624Y0072511D02*
X0258227Y0072511D01*
X0255624Y0072511D02*
X0248227Y0072511D01*
X0290146Y0057533D02*
X0302926Y0057533D01*
X0302926Y0056534D02*
X0289147Y0056534D01*
X0288149Y0055536D02*
X0303561Y0055536D01*
X0304926Y0057000D02*
X0304926Y0062000D01*
X0307426Y0064500D01*
X0309926Y0062000D01*
X0314926Y0062000D01*
X0314926Y0064500D01*
X0307426Y0064500D01*
X0304926Y0064500D01*
X0304926Y0062000D01*
X0305426Y0063500D02*
X0305926Y0064000D01*
X0305426Y0064000D01*
X0308926Y0064000D02*
X0309926Y0063000D01*
X0314426Y0063000D01*
X0314426Y0064000D01*
X0309926Y0064000D01*
X0314426Y0065000D02*
X0314426Y0066000D01*
X0314926Y0066000D01*
X0314926Y0064500D01*
X0316926Y0064523D02*
X0333250Y0064523D01*
X0334010Y0065283D02*
X0332463Y0063736D01*
X0331626Y0061714D01*
X0331626Y0059526D01*
X0332463Y0057505D01*
X0334010Y0055958D01*
X0336032Y0055120D01*
X0338220Y0055120D01*
X0340241Y0055958D01*
X0341788Y0057505D01*
X0342626Y0059526D01*
X0342626Y0061714D01*
X0341788Y0063736D01*
X0340241Y0065283D01*
X0338220Y0066120D01*
X0336032Y0066120D01*
X0334010Y0065283D01*
X0334585Y0065521D02*
X0316926Y0065521D01*
X0316926Y0066520D02*
X0355426Y0066520D01*
X0355426Y0067518D02*
X0316236Y0067518D01*
X0313115Y0067518D02*
X0304026Y0067518D01*
X0304026Y0066520D02*
X0312426Y0066520D01*
X0316926Y0063524D02*
X0332375Y0063524D01*
X0331962Y0062526D02*
X0316926Y0062526D01*
X0316926Y0061527D02*
X0331626Y0061527D01*
X0331626Y0060529D02*
X0316926Y0060529D01*
X0316926Y0059530D02*
X0323267Y0059530D01*
X0322771Y0059325D02*
X0324299Y0059957D01*
X0325953Y0059957D01*
X0327481Y0059325D01*
X0328650Y0058155D01*
X0329283Y0056627D01*
X0329283Y0054973D01*
X0328650Y0053445D01*
X0327481Y0052275D01*
X0325953Y0051643D01*
X0324299Y0051643D01*
X0324244Y0051665D01*
X0323952Y0051373D01*
X0324093Y0051232D01*
X0324093Y0041328D01*
X0323214Y0040450D01*
X0319412Y0040450D01*
X0318533Y0041328D01*
X0318533Y0051232D01*
X0319013Y0051712D01*
X0319013Y0052940D01*
X0320991Y0054918D01*
X0320968Y0054973D01*
X0320968Y0056627D01*
X0321601Y0058155D01*
X0322771Y0059325D01*
X0321978Y0058532D02*
X0316926Y0058532D01*
X0316926Y0057533D02*
X0321343Y0057533D01*
X0320968Y0056534D02*
X0316926Y0056534D01*
X0316290Y0055536D02*
X0320968Y0055536D01*
X0320610Y0054537D02*
X0300129Y0054537D01*
X0301016Y0054170D02*
X0298167Y0055350D01*
X0295084Y0055350D01*
X0292236Y0054170D01*
X0290055Y0051990D01*
X0288876Y0049142D01*
X0288876Y0046058D01*
X0290055Y0043210D01*
X0292236Y0041030D01*
X0295084Y0039850D01*
X0298167Y0039850D01*
X0301016Y0041030D01*
X0303196Y0043210D01*
X0304376Y0046058D01*
X0304376Y0049142D01*
X0303196Y0051990D01*
X0301016Y0054170D01*
X0301647Y0053539D02*
X0319612Y0053539D01*
X0319013Y0052540D02*
X0302645Y0052540D01*
X0303381Y0051542D02*
X0318843Y0051542D01*
X0318533Y0050543D02*
X0303795Y0050543D01*
X0304209Y0049545D02*
X0318533Y0049545D01*
X0318533Y0048546D02*
X0304376Y0048546D01*
X0304376Y0047548D02*
X0318533Y0047548D01*
X0318533Y0046549D02*
X0304376Y0046549D01*
X0304165Y0045551D02*
X0318533Y0045551D01*
X0318533Y0044552D02*
X0303752Y0044552D01*
X0303338Y0043554D02*
X0318533Y0043554D01*
X0318533Y0042555D02*
X0302541Y0042555D01*
X0301543Y0041557D02*
X0318533Y0041557D01*
X0319303Y0040558D02*
X0299877Y0040558D01*
X0293374Y0040558D02*
X0283794Y0040558D01*
X0283794Y0041557D02*
X0291709Y0041557D01*
X0290710Y0042555D02*
X0283279Y0042555D01*
X0283794Y0043554D02*
X0289913Y0043554D01*
X0289499Y0044552D02*
X0283794Y0044552D01*
X0283794Y0045551D02*
X0289086Y0045551D01*
X0288876Y0046549D02*
X0283794Y0046549D01*
X0283826Y0047548D02*
X0288876Y0047548D01*
X0288876Y0048546D02*
X0283826Y0048546D01*
X0283826Y0049545D02*
X0289043Y0049545D01*
X0289456Y0050543D02*
X0283826Y0050543D01*
X0284155Y0051542D02*
X0289870Y0051542D01*
X0290606Y0052540D02*
X0285153Y0052540D01*
X0286152Y0053539D02*
X0291604Y0053539D01*
X0293122Y0054537D02*
X0287150Y0054537D01*
X0304926Y0057000D02*
X0314926Y0057000D01*
X0314926Y0062000D01*
X0312926Y0060000D02*
X0312926Y0058500D01*
X0311926Y0058500D01*
X0311926Y0060000D01*
X0312926Y0060000D01*
X0307926Y0060000D02*
X0307926Y0058500D01*
X0306926Y0058500D01*
X0306926Y0060000D01*
X0307926Y0060000D01*
X0326984Y0059530D02*
X0331626Y0059530D01*
X0332038Y0058532D02*
X0328274Y0058532D01*
X0328908Y0057533D02*
X0332451Y0057533D01*
X0333433Y0056534D02*
X0329283Y0056534D01*
X0329283Y0055536D02*
X0335028Y0055536D01*
X0339223Y0055536D02*
X0355426Y0055536D01*
X0355426Y0056534D02*
X0340818Y0056534D01*
X0341800Y0057533D02*
X0355426Y0057533D01*
X0355426Y0058532D02*
X0342213Y0058532D01*
X0342626Y0059530D02*
X0355426Y0059530D01*
X0355426Y0060529D02*
X0342626Y0060529D01*
X0342626Y0061527D02*
X0355426Y0061527D01*
X0355426Y0062526D02*
X0342290Y0062526D01*
X0341876Y0063524D02*
X0355426Y0063524D01*
X0355426Y0064523D02*
X0341002Y0064523D01*
X0339667Y0065521D02*
X0355426Y0065521D01*
X0355426Y0068517D02*
X0304026Y0068517D01*
X0304026Y0069515D02*
X0331904Y0069515D01*
X0331925Y0069479D02*
X0332205Y0069200D01*
X0332547Y0069002D01*
X0332928Y0068900D01*
X0336626Y0068900D01*
X0336626Y0073900D01*
X0337626Y0073900D01*
X0337626Y0074900D01*
X0342626Y0074900D01*
X0342626Y0078597D01*
X0342523Y0078979D01*
X0342326Y0079321D01*
X0342047Y0079600D01*
X0341705Y0079798D01*
X0341323Y0079900D01*
X0337626Y0079900D01*
X0337626Y0074900D01*
X0336626Y0074900D01*
X0336626Y0079900D01*
X0332928Y0079900D01*
X0332547Y0079798D01*
X0332205Y0079600D01*
X0331925Y0079321D01*
X0331728Y0078979D01*
X0331626Y0078597D01*
X0331626Y0074900D01*
X0336626Y0074900D01*
X0336626Y0073900D01*
X0331626Y0073900D01*
X0331626Y0070203D01*
X0331728Y0069821D01*
X0331925Y0069479D01*
X0331626Y0070514D02*
X0304026Y0070514D01*
X0303100Y0071512D02*
X0331626Y0071512D01*
X0331626Y0072511D02*
X0318227Y0072511D01*
X0320189Y0073509D02*
X0331626Y0073509D01*
X0336626Y0073509D02*
X0337626Y0073509D01*
X0337626Y0073900D02*
X0337626Y0068900D01*
X0341323Y0068900D01*
X0341705Y0069002D01*
X0342047Y0069200D01*
X0342326Y0069479D01*
X0342523Y0069821D01*
X0342626Y0070203D01*
X0342626Y0073900D01*
X0337626Y0073900D01*
X0337626Y0074508D02*
X0355426Y0074508D01*
X0355426Y0075506D02*
X0342626Y0075506D01*
X0342626Y0076505D02*
X0355426Y0076505D01*
X0355426Y0077503D02*
X0342626Y0077503D01*
X0342626Y0078502D02*
X0355426Y0078502D01*
X0355426Y0079500D02*
X0342147Y0079500D01*
X0337626Y0079500D02*
X0336626Y0079500D01*
X0336626Y0078502D02*
X0337626Y0078502D01*
X0337626Y0077503D02*
X0336626Y0077503D01*
X0336626Y0076505D02*
X0337626Y0076505D01*
X0337626Y0075506D02*
X0336626Y0075506D01*
X0336626Y0074508D02*
X0321187Y0074508D01*
X0321687Y0075506D02*
X0331626Y0075506D01*
X0331626Y0076505D02*
X0322100Y0076505D01*
X0322126Y0077503D02*
X0331626Y0077503D01*
X0331626Y0078502D02*
X0322126Y0078502D01*
X0321767Y0079500D02*
X0332105Y0079500D01*
X0321353Y0080499D02*
X0355426Y0080499D01*
X0355426Y0073509D02*
X0342626Y0073509D01*
X0342626Y0072511D02*
X0355426Y0072511D01*
X0355426Y0071512D02*
X0342626Y0071512D01*
X0342626Y0070514D02*
X0355426Y0070514D01*
X0355426Y0069515D02*
X0342347Y0069515D01*
X0337626Y0069515D02*
X0336626Y0069515D01*
X0336626Y0070514D02*
X0337626Y0070514D01*
X0337626Y0071512D02*
X0336626Y0071512D01*
X0336626Y0072511D02*
X0337626Y0072511D01*
X0315624Y0072511D02*
X0308034Y0072511D01*
X0307426Y0072511D02*
X0306426Y0072511D01*
X0305818Y0072511D02*
X0298227Y0072511D01*
X0300189Y0073509D02*
X0303709Y0073509D01*
X0302745Y0074508D02*
X0301187Y0074508D01*
X0301687Y0075506D02*
X0302156Y0075506D01*
X0306426Y0075506D02*
X0307426Y0075506D01*
X0307426Y0074508D02*
X0306426Y0074508D01*
X0306426Y0073509D02*
X0307426Y0073509D01*
X0310142Y0073509D02*
X0313662Y0073509D01*
X0312664Y0074508D02*
X0311106Y0074508D01*
X0311695Y0075506D02*
X0312164Y0075506D01*
X0307426Y0076505D02*
X0306426Y0076505D01*
X0329103Y0054537D02*
X0355426Y0054537D01*
X0355426Y0053539D02*
X0352121Y0053539D01*
X0352076Y0053551D02*
X0349426Y0053551D01*
X0349426Y0049008D01*
X0353378Y0049008D01*
X0353378Y0052249D01*
X0353276Y0052630D01*
X0353079Y0052972D01*
X0352799Y0053251D01*
X0352457Y0053449D01*
X0352076Y0053551D01*
X0353300Y0052540D02*
X0355426Y0052540D01*
X0355426Y0051542D02*
X0353378Y0051542D01*
X0353378Y0050543D02*
X0355426Y0050543D01*
X0355426Y0049545D02*
X0353378Y0049545D01*
X0353378Y0048008D02*
X0349426Y0048008D01*
X0349426Y0049008D01*
X0348426Y0049008D01*
X0348426Y0053551D01*
X0345775Y0053551D01*
X0345394Y0053449D01*
X0345052Y0053251D01*
X0344773Y0052972D01*
X0344575Y0052630D01*
X0344473Y0052249D01*
X0344473Y0049008D01*
X0348426Y0049008D01*
X0348426Y0048008D01*
X0349426Y0048008D01*
X0349426Y0043465D01*
X0352076Y0043465D01*
X0352457Y0043567D01*
X0352799Y0043764D01*
X0353079Y0044044D01*
X0353276Y0044386D01*
X0353378Y0044767D01*
X0353378Y0048008D01*
X0353378Y0047548D02*
X0355426Y0047548D01*
X0355426Y0048546D02*
X0349426Y0048546D01*
X0349426Y0047548D02*
X0348426Y0047548D01*
X0348426Y0048008D02*
X0348426Y0043465D01*
X0345775Y0043465D01*
X0345394Y0043567D01*
X0345052Y0043764D01*
X0344773Y0044044D01*
X0344575Y0044386D01*
X0344473Y0044767D01*
X0344473Y0048008D01*
X0348426Y0048008D01*
X0348426Y0048546D02*
X0324093Y0048546D01*
X0324093Y0047548D02*
X0344473Y0047548D01*
X0344473Y0046549D02*
X0324093Y0046549D01*
X0324093Y0045551D02*
X0344473Y0045551D01*
X0344530Y0044552D02*
X0341140Y0044552D01*
X0340895Y0044654D02*
X0339633Y0044654D01*
X0338467Y0044170D01*
X0337574Y0043278D01*
X0337091Y0042112D01*
X0337091Y0041405D01*
X0335145Y0041405D01*
X0334764Y0041303D01*
X0334422Y0041106D01*
X0334143Y0040827D01*
X0333945Y0040484D01*
X0333927Y0040417D01*
X0333855Y0040489D01*
X0332863Y0040900D01*
X0331789Y0040900D01*
X0330796Y0040489D01*
X0330037Y0039729D01*
X0329626Y0038737D01*
X0329626Y0037663D01*
X0330037Y0036671D01*
X0330707Y0036000D01*
X0330637Y0035929D01*
X0330371Y0035289D01*
X0329863Y0035500D01*
X0328789Y0035500D01*
X0327796Y0035089D01*
X0327037Y0034329D01*
X0326626Y0033337D01*
X0326626Y0032263D01*
X0327037Y0031271D01*
X0327796Y0030511D01*
X0328789Y0030100D01*
X0329381Y0030100D01*
X0328902Y0029620D01*
X0328359Y0028309D01*
X0328359Y0026890D01*
X0328902Y0025579D01*
X0329905Y0024576D01*
X0331216Y0024033D01*
X0332635Y0024033D01*
X0333946Y0024576D01*
X0334949Y0025579D01*
X0335365Y0026582D01*
X0337091Y0026582D01*
X0337091Y0025888D01*
X0337574Y0024722D01*
X0338467Y0023830D01*
X0339633Y0023346D01*
X0340895Y0023346D01*
X0342062Y0023830D01*
X0342954Y0024722D01*
X0343437Y0025888D01*
X0343437Y0027151D01*
X0342954Y0028317D01*
X0342552Y0028720D01*
X0342552Y0037968D01*
X0342517Y0038003D01*
X0342552Y0038133D01*
X0342552Y0039118D01*
X0342389Y0039118D01*
X0342390Y0039118D01*
X0342552Y0039118D01*
X0342552Y0039280D01*
X0342954Y0039683D01*
X0343437Y0040849D01*
X0343437Y0042112D01*
X0342954Y0043278D01*
X0342062Y0044170D01*
X0340895Y0044654D01*
X0339389Y0044552D02*
X0324093Y0044552D01*
X0324093Y0043554D02*
X0337850Y0043554D01*
X0337275Y0042555D02*
X0324093Y0042555D01*
X0324093Y0041557D02*
X0337091Y0041557D01*
X0333988Y0040558D02*
X0333688Y0040558D01*
X0330964Y0040558D02*
X0323323Y0040558D01*
X0329626Y0038561D02*
X0289484Y0038561D01*
X0289826Y0037563D02*
X0329667Y0037563D01*
X0330143Y0036564D02*
X0324006Y0036564D01*
X0323990Y0036623D02*
X0323793Y0036965D01*
X0323514Y0037244D01*
X0323171Y0037442D01*
X0322790Y0037544D01*
X0321453Y0037544D01*
X0321453Y0031853D01*
X0324093Y0031853D01*
X0324093Y0036242D01*
X0323990Y0036623D01*
X0324093Y0035566D02*
X0330486Y0035566D01*
X0327274Y0034567D02*
X0324093Y0034567D01*
X0324093Y0033569D02*
X0326722Y0033569D01*
X0326626Y0032570D02*
X0324093Y0032570D01*
X0324092Y0031574D02*
X0321453Y0031574D01*
X0321453Y0031853D01*
X0321173Y0031853D01*
X0321173Y0031574D01*
X0318533Y0031574D01*
X0318533Y0027185D01*
X0318636Y0026804D01*
X0318833Y0026462D01*
X0319112Y0026182D01*
X0319454Y0025985D01*
X0319836Y0025883D01*
X0321173Y0025883D01*
X0321173Y0031574D01*
X0321453Y0031574D01*
X0321453Y0025883D01*
X0322790Y0025883D01*
X0323171Y0025985D01*
X0323514Y0026182D01*
X0323793Y0026462D01*
X0323990Y0026804D01*
X0324093Y0027185D01*
X0324092Y0031574D01*
X0324093Y0031572D02*
X0326912Y0031572D01*
X0327734Y0030573D02*
X0324093Y0030573D01*
X0324093Y0029575D02*
X0328883Y0029575D01*
X0328469Y0028576D02*
X0324093Y0028576D01*
X0324093Y0027578D02*
X0328359Y0027578D01*
X0328488Y0026579D02*
X0323861Y0026579D01*
X0321453Y0026579D02*
X0321173Y0026579D01*
X0321173Y0027578D02*
X0321453Y0027578D01*
X0321453Y0028576D02*
X0321173Y0028576D01*
X0321173Y0029575D02*
X0321453Y0029575D01*
X0321453Y0030573D02*
X0321173Y0030573D01*
X0321173Y0031572D02*
X0321453Y0031572D01*
X0321173Y0031853D02*
X0318533Y0031853D01*
X0318533Y0036242D01*
X0318636Y0036623D01*
X0318833Y0036965D01*
X0319112Y0037244D01*
X0319454Y0037442D01*
X0319836Y0037544D01*
X0321173Y0037544D01*
X0321173Y0031853D01*
X0321173Y0032570D02*
X0321453Y0032570D01*
X0321453Y0033569D02*
X0321173Y0033569D01*
X0321173Y0034567D02*
X0321453Y0034567D01*
X0321453Y0035566D02*
X0321173Y0035566D01*
X0321173Y0036564D02*
X0321453Y0036564D01*
X0318620Y0036564D02*
X0289785Y0036564D01*
X0289426Y0035566D02*
X0318533Y0035566D01*
X0318533Y0034567D02*
X0289426Y0034567D01*
X0289426Y0033569D02*
X0318533Y0033569D01*
X0318533Y0032570D02*
X0289426Y0032570D01*
X0289426Y0031572D02*
X0318533Y0031572D01*
X0318533Y0030573D02*
X0289426Y0030573D01*
X0289426Y0029575D02*
X0318533Y0029575D01*
X0318533Y0028576D02*
X0289426Y0028576D01*
X0290201Y0027578D02*
X0318533Y0027578D01*
X0318765Y0026579D02*
X0291199Y0026579D01*
X0292198Y0025581D02*
X0328901Y0025581D01*
X0329899Y0024582D02*
X0293196Y0024582D01*
X0294195Y0023584D02*
X0339060Y0023584D01*
X0337714Y0024582D02*
X0333952Y0024582D01*
X0334950Y0025581D02*
X0337218Y0025581D01*
X0337091Y0026579D02*
X0335364Y0026579D01*
X0342695Y0028576D02*
X0344555Y0028576D01*
X0344575Y0028500D02*
X0344473Y0028881D01*
X0344473Y0033500D01*
X0348426Y0033500D01*
X0349426Y0033500D01*
X0349426Y0034500D01*
X0353378Y0034500D01*
X0353378Y0039119D01*
X0353276Y0039500D01*
X0353079Y0039842D01*
X0352799Y0040122D01*
X0352457Y0040319D01*
X0352076Y0040421D01*
X0349426Y0040421D01*
X0349426Y0034500D01*
X0348426Y0034500D01*
X0348426Y0040421D01*
X0345775Y0040421D01*
X0345394Y0040319D01*
X0345052Y0040122D01*
X0344773Y0039842D01*
X0344575Y0039500D01*
X0344473Y0039119D01*
X0344473Y0034500D01*
X0348426Y0034500D01*
X0348426Y0033500D01*
X0348426Y0027579D01*
X0345775Y0027579D01*
X0345394Y0027681D01*
X0345052Y0027878D01*
X0344773Y0028158D01*
X0344575Y0028500D01*
X0344473Y0029575D02*
X0342552Y0029575D01*
X0342552Y0030573D02*
X0344473Y0030573D01*
X0344473Y0031572D02*
X0342552Y0031572D01*
X0342552Y0032570D02*
X0344473Y0032570D01*
X0342552Y0033569D02*
X0348426Y0033569D01*
X0348426Y0034567D02*
X0349426Y0034567D01*
X0349426Y0033569D02*
X0355426Y0033569D01*
X0355426Y0034567D02*
X0353378Y0034567D01*
X0353378Y0035566D02*
X0355426Y0035566D01*
X0355426Y0036564D02*
X0353378Y0036564D01*
X0353378Y0037563D02*
X0355426Y0037563D01*
X0355426Y0038561D02*
X0353378Y0038561D01*
X0353242Y0039560D02*
X0355426Y0039560D01*
X0355426Y0040558D02*
X0343317Y0040558D01*
X0343437Y0041557D02*
X0355426Y0041557D01*
X0355426Y0042555D02*
X0343254Y0042555D01*
X0342678Y0043554D02*
X0345442Y0043554D01*
X0348426Y0043554D02*
X0349426Y0043554D01*
X0349426Y0044552D02*
X0348426Y0044552D01*
X0348426Y0045551D02*
X0349426Y0045551D01*
X0349426Y0046549D02*
X0348426Y0046549D01*
X0353378Y0046549D02*
X0355426Y0046549D01*
X0355426Y0045551D02*
X0353378Y0045551D01*
X0353321Y0044552D02*
X0355426Y0044552D01*
X0355426Y0043554D02*
X0352409Y0043554D01*
X0349426Y0039560D02*
X0348426Y0039560D01*
X0348426Y0038561D02*
X0349426Y0038561D01*
X0349426Y0037563D02*
X0348426Y0037563D01*
X0348426Y0036564D02*
X0349426Y0036564D01*
X0349426Y0035566D02*
X0348426Y0035566D01*
X0349426Y0033500D02*
X0353378Y0033500D01*
X0353378Y0028881D01*
X0353276Y0028500D01*
X0353079Y0028158D01*
X0352799Y0027878D01*
X0352457Y0027681D01*
X0352076Y0027579D01*
X0349426Y0027579D01*
X0349426Y0033500D01*
X0349426Y0032570D02*
X0348426Y0032570D01*
X0348426Y0031572D02*
X0349426Y0031572D01*
X0349426Y0030573D02*
X0348426Y0030573D01*
X0348426Y0029575D02*
X0349426Y0029575D01*
X0349426Y0028576D02*
X0348426Y0028576D01*
X0353297Y0028576D02*
X0355426Y0028576D01*
X0355426Y0027578D02*
X0343261Y0027578D01*
X0343437Y0026579D02*
X0355426Y0026579D01*
X0355426Y0025581D02*
X0343310Y0025581D01*
X0342814Y0024582D02*
X0355426Y0024582D01*
X0355426Y0023584D02*
X0353284Y0023584D01*
X0353276Y0023614D02*
X0353079Y0023956D01*
X0352799Y0024236D01*
X0352457Y0024433D01*
X0352076Y0024535D01*
X0349426Y0024535D01*
X0349426Y0019992D01*
X0353378Y0019992D01*
X0353378Y0023233D01*
X0353276Y0023614D01*
X0353378Y0022585D02*
X0355426Y0022585D01*
X0355426Y0021587D02*
X0353378Y0021587D01*
X0353378Y0020588D02*
X0355426Y0020588D01*
X0355426Y0019590D02*
X0349426Y0019590D01*
X0349426Y0019992D02*
X0349426Y0018992D01*
X0353378Y0018992D01*
X0353378Y0015751D01*
X0353276Y0015370D01*
X0353079Y0015028D01*
X0352799Y0014749D01*
X0352457Y0014551D01*
X0352076Y0014449D01*
X0349426Y0014449D01*
X0349426Y0018992D01*
X0348426Y0018992D01*
X0348426Y0014449D01*
X0345775Y0014449D01*
X0345394Y0014551D01*
X0345052Y0014749D01*
X0344773Y0015028D01*
X0344575Y0015370D01*
X0344473Y0015751D01*
X0344473Y0018992D01*
X0348426Y0018992D01*
X0348426Y0019992D01*
X0348426Y0024535D01*
X0345775Y0024535D01*
X0345394Y0024433D01*
X0345052Y0024236D01*
X0344773Y0023956D01*
X0344575Y0023614D01*
X0344473Y0023233D01*
X0344473Y0019992D01*
X0348426Y0019992D01*
X0349426Y0019992D01*
X0349426Y0020588D02*
X0348426Y0020588D01*
X0348426Y0019590D02*
X0321730Y0019590D01*
X0322126Y0018591D02*
X0344473Y0018591D01*
X0344473Y0017593D02*
X0322126Y0017593D01*
X0322126Y0016594D02*
X0344473Y0016594D01*
X0344515Y0015596D02*
X0321724Y0015596D01*
X0321277Y0014597D02*
X0345314Y0014597D01*
X0348426Y0014597D02*
X0349426Y0014597D01*
X0349426Y0015596D02*
X0348426Y0015596D01*
X0348426Y0016594D02*
X0349426Y0016594D01*
X0349426Y0017593D02*
X0348426Y0017593D01*
X0348426Y0018591D02*
X0349426Y0018591D01*
X0353378Y0018591D02*
X0355426Y0018591D01*
X0355426Y0017593D02*
X0353378Y0017593D01*
X0353378Y0016594D02*
X0355426Y0016594D01*
X0355426Y0015596D02*
X0353337Y0015596D01*
X0352537Y0014597D02*
X0355426Y0014597D01*
X0344473Y0020588D02*
X0321291Y0020588D01*
X0320293Y0021587D02*
X0344473Y0021587D01*
X0344473Y0022585D02*
X0318479Y0022585D01*
X0315372Y0022585D02*
X0308411Y0022585D01*
X0307426Y0022585D02*
X0306426Y0022585D01*
X0305441Y0022585D02*
X0298479Y0022585D01*
X0300293Y0021587D02*
X0303566Y0021587D01*
X0302669Y0020588D02*
X0301291Y0020588D01*
X0301730Y0019590D02*
X0302104Y0019590D01*
X0306426Y0019590D02*
X0307426Y0019590D01*
X0307426Y0020588D02*
X0306426Y0020588D01*
X0306426Y0021587D02*
X0307426Y0021587D01*
X0310285Y0021587D02*
X0313558Y0021587D01*
X0312560Y0020588D02*
X0311182Y0020588D01*
X0311747Y0019590D02*
X0312121Y0019590D01*
X0307426Y0018591D02*
X0306426Y0018591D01*
X0295373Y0022585D02*
X0295193Y0022585D01*
X0282121Y0019590D02*
X0281730Y0019590D01*
X0281321Y0020588D02*
X0281291Y0020588D01*
X0281076Y0021587D02*
X0280293Y0021587D01*
X0281076Y0022585D02*
X0278776Y0022585D01*
X0278776Y0023584D02*
X0281076Y0023584D01*
X0281076Y0024582D02*
X0278776Y0024582D01*
X0278776Y0025581D02*
X0281076Y0025581D01*
X0281076Y0026579D02*
X0278776Y0026579D01*
X0278776Y0027578D02*
X0281076Y0027578D01*
X0281076Y0028576D02*
X0278776Y0028576D01*
X0278776Y0029575D02*
X0281076Y0029575D01*
X0281076Y0030573D02*
X0278776Y0030573D01*
X0278776Y0031572D02*
X0280429Y0031572D01*
X0280226Y0032570D02*
X0278776Y0032570D01*
X0278776Y0033569D02*
X0280404Y0033569D01*
X0281074Y0034567D02*
X0278776Y0034567D01*
X0278776Y0035566D02*
X0284826Y0035566D01*
X0284826Y0034567D02*
X0284777Y0034567D01*
X0284466Y0036564D02*
X0283707Y0036564D01*
X0283794Y0037563D02*
X0284426Y0037563D01*
X0284767Y0038561D02*
X0283794Y0038561D01*
X0285767Y0039560D02*
X0280810Y0039560D01*
X0279841Y0039560D02*
X0276026Y0039560D01*
X0275768Y0040558D02*
X0276857Y0040558D01*
X0276857Y0041557D02*
X0274987Y0041557D01*
X0277372Y0042555D02*
X0271479Y0042555D01*
X0271994Y0043554D02*
X0276857Y0043554D01*
X0276857Y0044552D02*
X0271994Y0044552D01*
X0271994Y0045551D02*
X0276857Y0045551D01*
X0288484Y0039560D02*
X0329966Y0039560D01*
X0334868Y0039118D02*
X0338139Y0039118D01*
X0334868Y0039118D01*
X0334868Y0039118D01*
X0338139Y0039118D02*
X0338139Y0039118D01*
X0342552Y0038561D02*
X0344473Y0038561D01*
X0344473Y0037563D02*
X0342552Y0037563D01*
X0342552Y0036564D02*
X0344473Y0036564D01*
X0344473Y0035566D02*
X0342552Y0035566D01*
X0342552Y0034567D02*
X0344473Y0034567D01*
X0353378Y0032570D02*
X0355426Y0032570D01*
X0355426Y0031572D02*
X0353378Y0031572D01*
X0353378Y0030573D02*
X0355426Y0030573D01*
X0355426Y0029575D02*
X0353378Y0029575D01*
X0349426Y0023584D02*
X0348426Y0023584D01*
X0348426Y0022585D02*
X0349426Y0022585D01*
X0349426Y0021587D02*
X0348426Y0021587D01*
X0344567Y0023584D02*
X0341468Y0023584D01*
X0342831Y0039560D02*
X0344609Y0039560D01*
X0344473Y0049545D02*
X0324093Y0049545D01*
X0324093Y0050543D02*
X0344473Y0050543D01*
X0344473Y0051542D02*
X0324120Y0051542D01*
X0327746Y0052540D02*
X0344551Y0052540D01*
X0345730Y0053539D02*
X0328689Y0053539D01*
X0348426Y0053539D02*
X0349426Y0053539D01*
X0349426Y0052540D02*
X0348426Y0052540D01*
X0348426Y0051542D02*
X0349426Y0051542D01*
X0349426Y0050543D02*
X0348426Y0050543D01*
X0348426Y0049545D02*
X0349426Y0049545D01*
X0280810Y0038561D02*
X0279841Y0038561D01*
X0279841Y0037563D02*
X0280810Y0037563D01*
X0280810Y0036564D02*
X0279841Y0036564D01*
X0276857Y0038561D02*
X0276781Y0038561D01*
X0271476Y0033569D02*
X0271187Y0033569D01*
X0271476Y0032570D02*
X0270714Y0032570D01*
X0271476Y0031572D02*
X0269236Y0031572D01*
X0267815Y0031572D02*
X0266121Y0031572D01*
X0260436Y0031572D02*
X0260187Y0031572D01*
X0252188Y0030573D02*
X0271476Y0030573D01*
X0271476Y0029575D02*
X0251502Y0029575D01*
X0245903Y0028576D02*
X0271476Y0028576D01*
X0271476Y0027578D02*
X0239764Y0027578D01*
X0239841Y0028576D02*
X0239170Y0028576D01*
X0236663Y0028576D02*
X0235695Y0028576D01*
X0235695Y0029575D02*
X0236663Y0029575D01*
X0236663Y0030573D02*
X0235695Y0030573D01*
X0232514Y0030573D02*
X0230376Y0030573D01*
X0230376Y0029575D02*
X0232530Y0029575D01*
X0233188Y0028576D02*
X0231366Y0028576D01*
X0240763Y0026579D02*
X0271476Y0026579D01*
X0271476Y0025581D02*
X0251561Y0025581D01*
X0252560Y0024582D02*
X0271291Y0024582D01*
X0270293Y0023584D02*
X0253558Y0023584D01*
X0254557Y0022585D02*
X0255372Y0022585D01*
X0258479Y0022585D02*
X0265372Y0022585D01*
X0263558Y0021587D02*
X0260293Y0021587D01*
X0261291Y0020588D02*
X0262560Y0020588D01*
X0262121Y0019590D02*
X0261730Y0019590D01*
X0268479Y0022585D02*
X0269294Y0022585D01*
X0220817Y0033569D02*
X0213034Y0033569D01*
X0214033Y0032570D02*
X0219818Y0032570D01*
X0219575Y0032327D02*
X0219575Y0032327D01*
X0218820Y0031572D02*
X0215031Y0031572D01*
X0216030Y0030573D02*
X0217821Y0030573D01*
X0202880Y0032570D02*
X0201075Y0032570D01*
X0201360Y0031572D02*
X0201881Y0031572D01*
X0202340Y0035566D02*
X0198375Y0035566D01*
X0197407Y0035566D02*
X0193187Y0035566D01*
X0194423Y0036564D02*
X0188668Y0036564D01*
X0188668Y0035566D02*
X0191464Y0035566D01*
X0190074Y0034567D02*
X0188668Y0034567D01*
X0188140Y0033569D02*
X0189639Y0033569D01*
X0189626Y0032570D02*
X0188668Y0032570D01*
X0188668Y0031572D02*
X0189995Y0031572D01*
X0190476Y0030573D02*
X0188668Y0030573D01*
X0188668Y0029575D02*
X0190476Y0029575D01*
X0190933Y0028576D02*
X0188668Y0028576D01*
X0188385Y0027578D02*
X0191932Y0027578D01*
X0200293Y0023584D02*
X0173558Y0023584D01*
X0174557Y0022585D02*
X0175372Y0022585D01*
X0178479Y0022585D02*
X0185372Y0022585D01*
X0183558Y0021587D02*
X0180293Y0021587D01*
X0181291Y0020588D02*
X0182560Y0020588D01*
X0182121Y0019590D02*
X0181730Y0019590D01*
X0188479Y0022585D02*
X0195372Y0022585D01*
X0193558Y0021587D02*
X0190293Y0021587D01*
X0191291Y0020588D02*
X0192560Y0020588D01*
X0192121Y0019590D02*
X0191730Y0019590D01*
X0198479Y0022585D02*
X0199294Y0022585D01*
X0198375Y0036564D02*
X0197407Y0036564D01*
X0197407Y0037563D02*
X0198375Y0037563D01*
X0198375Y0038561D02*
X0197407Y0038561D01*
X0197451Y0039560D02*
X0198346Y0039560D01*
X0193958Y0038561D02*
X0192693Y0038561D01*
X0194423Y0037563D02*
X0188668Y0037563D01*
X0188668Y0038561D02*
X0190358Y0038561D01*
X0189200Y0039560D02*
X0188448Y0039560D01*
X0188826Y0040558D02*
X0187246Y0040558D01*
X0187699Y0041557D02*
X0188834Y0041557D01*
X0188697Y0042555D02*
X0189263Y0042555D01*
X0182345Y0039560D02*
X0172272Y0039560D01*
X0172526Y0038561D02*
X0182125Y0038561D01*
X0182125Y0037563D02*
X0172526Y0037563D01*
X0257038Y0039560D02*
X0257613Y0039560D01*
X0257613Y0040558D02*
X0257038Y0040558D01*
X0257038Y0041557D02*
X0257613Y0041557D01*
D25*
X0321313Y0046280D03*
X0321313Y0031713D03*
D26*
X0039045Y0030984D03*
X0034321Y0030984D03*
X0029596Y0030984D03*
X0024872Y0030984D03*
X0020148Y0030984D03*
X0020148Y0064449D03*
X0024872Y0064449D03*
X0029596Y0064449D03*
X0034321Y0064449D03*
X0039045Y0064449D03*
D27*
X0045541Y0059528D03*
X0045541Y0054803D03*
X0045541Y0050079D03*
X0045541Y0045354D03*
X0045541Y0040630D03*
X0045541Y0035906D03*
D28*
X0338197Y0036559D03*
X0338197Y0034000D03*
X0338197Y0031441D03*
X0338197Y0028882D03*
X0338197Y0039118D03*
D29*
X0348926Y0048508D03*
X0348926Y0019492D03*
D30*
X0348926Y0034000D03*
D31*
X0161066Y0043263D03*
X0153585Y0043263D03*
X0157326Y0051531D03*
D32*
X0115669Y0077200D03*
X0108582Y0077200D03*
D33*
X0131055Y0063950D03*
X0147196Y0063950D03*
X0147196Y0057650D03*
X0131055Y0057650D03*
X0176992Y0057740D03*
X0185259Y0057740D03*
X0185259Y0050260D03*
X0176992Y0050260D03*
X0169255Y0036750D03*
X0169255Y0030450D03*
X0185396Y0030450D03*
X0185396Y0036750D03*
D34*
X0185396Y0041871D01*
X0189526Y0046000D01*
X0189526Y0048000D01*
X0191526Y0044800D02*
X0196413Y0049688D01*
X0200726Y0047800D02*
X0200726Y0045800D01*
X0198628Y0043703D01*
X0200419Y0041893D02*
X0204126Y0045600D01*
X0204126Y0050000D01*
X0200361Y0053307D02*
X0198868Y0054800D01*
X0197926Y0054800D01*
X0197126Y0055600D01*
X0198926Y0058200D02*
X0201971Y0055155D01*
X0198926Y0058200D02*
X0192526Y0058200D01*
X0185719Y0058200D01*
X0185259Y0057740D01*
X0176992Y0057740D02*
X0176452Y0057200D01*
X0170326Y0057200D01*
X0170272Y0057146D01*
X0169526Y0057146D01*
X0169526Y0061000D01*
X0165926Y0064600D01*
X0160560Y0064600D01*
X0160560Y0060512D01*
X0160672Y0060400D01*
X0160726Y0060346D01*
X0160726Y0043603D01*
X0161066Y0043263D01*
X0161066Y0042540D01*
X0160726Y0042200D01*
X0160326Y0042200D01*
X0160326Y0036400D01*
X0164126Y0034400D02*
X0165126Y0035400D01*
X0164126Y0034400D02*
X0160326Y0034400D01*
X0160326Y0032400D02*
X0165526Y0032400D01*
X0166726Y0033600D01*
X0173526Y0033600D01*
X0174326Y0032800D01*
X0185396Y0030450D02*
X0185396Y0036750D01*
X0192326Y0033000D02*
X0192326Y0029800D01*
X0193126Y0029000D01*
X0197954Y0029000D01*
X0197891Y0028937D01*
X0197954Y0029000D02*
X0201926Y0029000D01*
X0207581Y0034655D01*
X0209409Y0032884D02*
X0214126Y0037600D01*
X0209726Y0044000D02*
X0204000Y0038274D01*
X0202209Y0040084D02*
X0206926Y0044800D01*
X0206926Y0047400D01*
X0196742Y0045417D02*
X0195126Y0043800D01*
X0195126Y0041000D01*
X0191526Y0041000D02*
X0191526Y0044800D01*
X0192726Y0051400D02*
X0194326Y0053000D01*
X0196926Y0053000D01*
X0198428Y0051497D01*
X0210526Y0056200D02*
X0210526Y0059295D01*
X0219013Y0067783D01*
X0219013Y0067912D02*
X0209326Y0077600D01*
X0216926Y0077600D02*
X0222326Y0072200D01*
X0222326Y0067400D01*
X0220899Y0065974D01*
X0220823Y0065897D02*
X0214126Y0059200D01*
X0214126Y0058200D01*
X0205790Y0058736D02*
X0201326Y0063200D01*
X0198326Y0063200D01*
X0190526Y0063200D01*
X0188126Y0065600D01*
X0184672Y0065600D01*
X0187726Y0069000D02*
X0190926Y0065800D01*
X0202526Y0065800D01*
X0207600Y0060726D01*
X0209409Y0062516D02*
X0204326Y0067600D01*
X0191726Y0067600D01*
X0188526Y0070800D01*
X0181126Y0070800D01*
X0179326Y0072600D01*
X0171926Y0072600D01*
X0166926Y0077600D01*
X0176926Y0077600D02*
X0181926Y0072600D01*
X0189326Y0072600D01*
X0192726Y0069200D01*
X0206326Y0069200D01*
X0211219Y0064307D01*
X0213028Y0065974D02*
X0208202Y0070800D01*
X0193726Y0070800D01*
X0186926Y0077600D01*
X0196926Y0077600D02*
X0201926Y0072600D01*
X0210126Y0072600D01*
X0214838Y0067888D01*
X0222690Y0064164D02*
X0224126Y0065600D01*
X0224126Y0074800D01*
X0226926Y0077600D01*
X0236926Y0077600D02*
X0225926Y0066600D01*
X0225926Y0064000D01*
X0224442Y0062516D01*
X0226252Y0060545D02*
X0222926Y0057219D01*
X0228061Y0058736D02*
X0229926Y0060600D01*
X0229926Y0063800D01*
X0229126Y0064600D01*
X0236726Y0065600D02*
X0237526Y0066400D01*
X0236726Y0065600D02*
X0236726Y0056600D01*
X0233490Y0053364D01*
X0233490Y0053307D01*
X0233433Y0053307D01*
X0231726Y0051600D01*
X0231726Y0050600D01*
X0223726Y0042600D01*
X0216326Y0042600D01*
X0229871Y0038255D02*
X0232926Y0035200D01*
X0238726Y0035200D01*
X0239726Y0034200D01*
X0239726Y0032600D01*
X0240326Y0032000D01*
X0242072Y0032000D01*
X0242726Y0036600D02*
X0241926Y0037400D01*
X0234326Y0037400D01*
X0231680Y0040045D01*
X0233633Y0041893D02*
X0235126Y0040400D01*
X0241526Y0040400D01*
X0238526Y0042400D02*
X0236726Y0042400D01*
X0235423Y0043703D01*
X0238526Y0042400D02*
X0239726Y0043600D01*
X0242926Y0043600D01*
X0243926Y0044600D01*
X0243926Y0047346D01*
X0243979Y0047400D01*
X0237014Y0045512D02*
X0235326Y0047200D01*
X0231526Y0047200D01*
X0237213Y0049688D02*
X0241126Y0053600D01*
X0241126Y0062000D01*
X0242926Y0063800D01*
X0245526Y0063800D01*
X0246526Y0064800D01*
X0245526Y0063800D02*
X0245526Y0059746D01*
X0250926Y0060047D02*
X0250926Y0057600D01*
X0248726Y0055400D01*
X0248726Y0053800D01*
X0247979Y0053054D01*
X0245526Y0053054D01*
X0239126Y0055400D02*
X0239126Y0063200D01*
X0242326Y0066400D01*
X0239126Y0055400D02*
X0235299Y0051574D01*
X0231642Y0055116D02*
X0228926Y0052400D01*
X0228926Y0051000D01*
X0231642Y0055116D02*
X0231680Y0055116D01*
X0187726Y0069000D02*
X0180326Y0069000D01*
X0178526Y0070800D01*
X0171126Y0070800D01*
X0169326Y0072600D01*
X0161926Y0072600D01*
X0156926Y0077600D01*
X0147196Y0063950D02*
X0147196Y0061129D01*
X0147526Y0060800D01*
X0147196Y0060471D01*
X0147196Y0057650D01*
X0153579Y0060800D02*
X0153979Y0060400D01*
X0153579Y0060800D02*
X0147526Y0060800D01*
X0140326Y0060800D01*
X0139726Y0060200D01*
X0125526Y0044000D02*
X0116926Y0052600D01*
X0108526Y0061000D01*
X0081105Y0061000D01*
X0077926Y0057820D01*
X0051126Y0054800D02*
X0045544Y0054800D01*
X0045541Y0054803D01*
X0045541Y0045354D02*
X0051371Y0045354D01*
X0060926Y0035800D01*
X0054926Y0036200D02*
X0050496Y0040630D01*
X0045541Y0040630D01*
X0070126Y0037200D02*
X0070126Y0023000D01*
X0070326Y0022800D01*
X0081726Y0022800D01*
X0086926Y0017600D01*
X0091726Y0022800D02*
X0086926Y0027600D01*
X0091126Y0027600D02*
X0094126Y0024600D01*
X0162726Y0024600D01*
X0164326Y0023000D01*
X0171526Y0023000D01*
X0176926Y0017600D01*
X0166926Y0017600D02*
X0166926Y0017800D01*
X0161926Y0022800D01*
X0091726Y0022800D01*
X0086767Y0035200D02*
X0077926Y0044041D01*
X0086767Y0035200D02*
X0109526Y0035200D01*
X0116926Y0042600D01*
X0128926Y0030600D01*
X0133579Y0030600D01*
X0140272Y0030600D02*
X0143726Y0030600D01*
X0145526Y0032400D01*
X0149126Y0032400D01*
X0149126Y0034400D02*
X0145726Y0034400D01*
X0144126Y0036000D01*
X0140272Y0036000D01*
X0133579Y0036000D02*
X0128926Y0036000D01*
X0125526Y0039400D01*
X0125526Y0044000D01*
X0140472Y0041200D02*
X0144526Y0041200D01*
X0145126Y0040600D01*
X0145126Y0037600D01*
X0146326Y0036400D01*
X0149126Y0036400D01*
X0149526Y0041400D02*
X0149526Y0042400D01*
X0150326Y0043200D01*
X0153522Y0043200D01*
X0153585Y0043263D01*
X0208126Y0028000D02*
X0211219Y0031093D01*
X0212828Y0029103D02*
X0206326Y0022600D01*
X0201926Y0022600D01*
X0196926Y0017600D01*
X0206926Y0017600D02*
X0213326Y0024000D01*
X0213326Y0026000D01*
X0214414Y0027088D01*
X0214838Y0027088D02*
X0214838Y0027417D01*
X0216926Y0025200D02*
X0219013Y0027288D01*
X0219013Y0027417D01*
X0219109Y0027383D02*
X0219013Y0027288D01*
X0220899Y0029226D02*
X0222726Y0027400D01*
X0222726Y0026400D01*
X0226926Y0022200D01*
X0226926Y0017600D01*
X0236926Y0017600D02*
X0236926Y0022600D01*
X0229326Y0022600D01*
X0224926Y0027000D01*
X0224926Y0028800D01*
X0222690Y0031036D01*
X0224480Y0032845D02*
X0226726Y0030600D01*
X0226726Y0028000D01*
X0230526Y0024200D01*
X0237926Y0024200D01*
X0239526Y0022600D01*
X0241926Y0022600D01*
X0246926Y0017600D01*
X0250126Y0024400D02*
X0256926Y0017600D01*
X0266926Y0017600D02*
X0273326Y0024000D01*
X0273326Y0036000D01*
X0273326Y0039400D02*
X0276926Y0035800D01*
X0276926Y0017600D01*
X0282926Y0021600D02*
X0286926Y0017600D01*
X0282926Y0021600D02*
X0282926Y0032600D01*
X0268526Y0034200D02*
X0268526Y0039254D01*
X0263126Y0039254D02*
X0263126Y0034153D01*
X0240326Y0024400D02*
X0238726Y0026000D01*
X0231326Y0026000D01*
X0228526Y0028800D01*
X0228526Y0032400D01*
X0226271Y0034655D01*
X0216926Y0025200D02*
X0216926Y0017600D01*
X0240326Y0024400D02*
X0250126Y0024400D01*
X0329326Y0032800D02*
X0330685Y0031441D01*
X0338197Y0031441D01*
X0338197Y0034000D02*
X0333326Y0034000D01*
X0332926Y0034400D01*
X0333967Y0036559D02*
X0332326Y0038200D01*
X0336007Y0039118D02*
X0338197Y0039118D01*
X0338197Y0036559D02*
X0333967Y0036559D01*
X0039061Y0031000D02*
X0039045Y0030984D01*
X0039045Y0064449D02*
X0039045Y0074573D01*
X0039072Y0074600D01*
X0032379Y0074600D02*
X0026278Y0074600D01*
X0022926Y0070600D02*
X0020373Y0073153D01*
X0020373Y0074600D01*
X0022926Y0070600D02*
X0024926Y0070600D01*
X0028126Y0070600D01*
X0029596Y0069129D01*
X0029596Y0064449D01*
X0020148Y0064449D02*
X0020126Y0064471D01*
X0020126Y0069600D01*
D35*
X0287126Y0037200D02*
X0287126Y0027400D01*
X0296926Y0017600D01*
X0331926Y0027600D02*
X0333207Y0028882D01*
X0338197Y0028882D01*
X0336007Y0039118D02*
X0332926Y0042200D01*
X0321313Y0046280D02*
X0321313Y0051987D01*
X0325126Y0055800D01*
D36*
X0331326Y0044400D03*
X0332326Y0038200D03*
X0332926Y0034400D03*
X0329326Y0032800D03*
X0294526Y0036200D03*
X0287126Y0037200D03*
X0282926Y0032600D03*
X0273326Y0036000D03*
X0268526Y0034200D03*
X0253126Y0034200D03*
X0242726Y0036600D03*
X0241526Y0040400D03*
X0250526Y0043600D03*
X0239526Y0047600D03*
X0231526Y0047200D03*
X0222326Y0049000D03*
X0228926Y0051000D03*
X0225926Y0054400D03*
X0222926Y0057200D03*
X0214126Y0058200D03*
X0210526Y0056200D03*
X0207126Y0053600D03*
X0197126Y0055600D03*
X0192526Y0058200D03*
X0192726Y0051400D03*
X0189526Y0048000D03*
X0180926Y0046400D03*
X0165326Y0046400D03*
X0149326Y0047600D03*
X0149526Y0041400D03*
X0145126Y0040600D03*
X0165126Y0035400D03*
X0174326Y0032800D03*
X0180926Y0032600D03*
X0192326Y0033000D03*
X0208126Y0028000D03*
X0214126Y0037600D03*
X0209726Y0039000D03*
X0216326Y0042600D03*
X0209726Y0044000D03*
X0206926Y0047400D03*
X0200726Y0047800D03*
X0204126Y0050000D03*
X0195126Y0041000D03*
X0191526Y0041000D03*
X0224726Y0040000D03*
X0251126Y0052000D03*
X0256326Y0051200D03*
X0273326Y0051000D03*
X0279126Y0051000D03*
X0274326Y0045200D03*
X0286926Y0043800D03*
X0273326Y0039400D03*
X0255926Y0063200D03*
X0246526Y0064800D03*
X0242326Y0066400D03*
X0237526Y0066400D03*
X0229126Y0064600D03*
X0198326Y0063200D03*
X0161926Y0068400D03*
X0160560Y0064600D03*
X0139726Y0060200D03*
X0120526Y0074400D03*
X0051126Y0054800D03*
X0038926Y0045200D03*
X0020526Y0044200D03*
X0054926Y0036200D03*
X0060926Y0035800D03*
X0070126Y0037200D03*
X0086926Y0027600D03*
X0091126Y0027600D03*
X0102126Y0029000D03*
X0019126Y0025800D03*
X0020126Y0069600D03*
X0024926Y0070600D03*
X0035726Y0070400D03*
X0035726Y0079200D03*
X0273326Y0066600D03*
X0281926Y0064600D03*
D37*
X0279912Y0063171D02*
X0279183Y0063701D01*
X0278379Y0064111D01*
X0277521Y0064390D01*
X0276630Y0064531D01*
X0273626Y0064531D01*
X0273626Y0059200D01*
X0272826Y0059200D01*
X0272826Y0058400D01*
X0264543Y0058400D01*
X0263126Y0058400D01*
X0263126Y0059200D01*
X0272826Y0059200D01*
X0272826Y0064531D01*
X0269823Y0064531D01*
X0268932Y0064390D01*
X0268074Y0064111D01*
X0267270Y0063701D01*
X0266540Y0063171D01*
X0265902Y0062533D01*
X0265637Y0062168D01*
X0265529Y0062168D01*
X0265679Y0062319D01*
X0265679Y0067084D01*
X0265093Y0067670D01*
X0261945Y0067670D01*
X0261926Y0069800D01*
X0302126Y0069800D01*
X0302126Y0060400D01*
X0301926Y0060200D01*
X0290126Y0060200D01*
X0281926Y0052000D01*
X0281926Y0049512D01*
X0280726Y0049512D01*
X0280726Y0047800D01*
X0279926Y0047800D01*
X0279926Y0049512D01*
X0278173Y0049512D01*
X0277817Y0049416D01*
X0277497Y0049232D01*
X0277237Y0048971D01*
X0277052Y0048652D01*
X0276957Y0048296D01*
X0276957Y0047800D01*
X0271494Y0047800D01*
X0271494Y0048526D01*
X0270908Y0049112D01*
X0269394Y0049112D01*
X0267905Y0050600D01*
X0265679Y0050600D01*
X0265679Y0055281D01*
X0265529Y0055431D01*
X0265637Y0055431D01*
X0265902Y0055067D01*
X0266540Y0054429D01*
X0267270Y0053899D01*
X0268074Y0053489D01*
X0268932Y0053210D01*
X0269823Y0053069D01*
X0272826Y0053069D01*
X0272826Y0058400D01*
X0273626Y0058400D01*
X0273626Y0053069D01*
X0276630Y0053069D01*
X0277521Y0053210D01*
X0278379Y0053489D01*
X0279183Y0053899D01*
X0279912Y0054429D01*
X0280550Y0055067D01*
X0281080Y0055796D01*
X0281490Y0056600D01*
X0281769Y0057458D01*
X0281910Y0058349D01*
X0281910Y0058400D01*
X0273626Y0058400D01*
X0273626Y0059200D01*
X0281910Y0059200D01*
X0281910Y0059251D01*
X0281769Y0060142D01*
X0281490Y0061000D01*
X0281080Y0061804D01*
X0280550Y0062533D01*
X0279912Y0063171D01*
X0280177Y0062906D02*
X0302126Y0062906D01*
X0302126Y0062108D02*
X0280859Y0062108D01*
X0281332Y0061309D02*
X0302126Y0061309D01*
X0302126Y0060511D02*
X0281649Y0060511D01*
X0281837Y0059712D02*
X0289638Y0059712D01*
X0288839Y0058914D02*
X0273626Y0058914D01*
X0273626Y0059712D02*
X0272826Y0059712D01*
X0272826Y0058914D02*
X0263126Y0058914D01*
X0272826Y0058115D02*
X0273626Y0058115D01*
X0273626Y0057317D02*
X0272826Y0057317D01*
X0272826Y0056518D02*
X0273626Y0056518D01*
X0273626Y0055720D02*
X0272826Y0055720D01*
X0272826Y0054921D02*
X0273626Y0054921D01*
X0273626Y0054123D02*
X0272826Y0054123D01*
X0272826Y0053324D02*
X0273626Y0053324D01*
X0268582Y0053324D02*
X0265679Y0053324D01*
X0265679Y0052526D02*
X0282451Y0052526D01*
X0281926Y0051727D02*
X0265679Y0051727D01*
X0265679Y0050929D02*
X0281926Y0050929D01*
X0281926Y0050130D02*
X0268375Y0050130D01*
X0269174Y0049332D02*
X0277670Y0049332D01*
X0277021Y0048533D02*
X0271487Y0048533D01*
X0268126Y0046346D02*
X0265157Y0046346D01*
X0263526Y0046346D01*
X0263526Y0045546D01*
X0268126Y0045546D01*
X0268126Y0046346D01*
X0268126Y0046137D02*
X0263526Y0046137D01*
X0263526Y0046346D02*
X0262726Y0046346D01*
X0261088Y0046346D01*
X0261088Y0046331D01*
X0257713Y0046331D01*
X0256938Y0046331D01*
X0256938Y0048918D01*
X0254779Y0048918D01*
X0254526Y0048850D01*
X0254526Y0051600D01*
X0255926Y0053000D01*
X0261326Y0053000D01*
X0261326Y0052498D01*
X0262027Y0052498D01*
X0262126Y0052399D01*
X0262126Y0049530D01*
X0263796Y0049530D01*
X0263814Y0049512D01*
X0263526Y0049512D01*
X0263526Y0046346D01*
X0263526Y0046936D02*
X0262726Y0046936D01*
X0262726Y0046346D02*
X0262726Y0049512D01*
X0260973Y0049512D01*
X0260617Y0049416D01*
X0260297Y0049232D01*
X0260037Y0048971D01*
X0259988Y0048887D01*
X0259872Y0048918D01*
X0257713Y0048918D01*
X0257713Y0046331D01*
X0257713Y0045556D01*
X0261088Y0045556D01*
X0261088Y0045546D01*
X0262726Y0045546D01*
X0262726Y0046346D01*
X0262726Y0046137D02*
X0257713Y0046137D01*
X0257713Y0046936D02*
X0256938Y0046936D01*
X0256938Y0047734D02*
X0257713Y0047734D01*
X0257713Y0048533D02*
X0256938Y0048533D01*
X0257914Y0049810D02*
X0258233Y0049625D01*
X0258589Y0049530D01*
X0261326Y0049530D01*
X0261326Y0052498D01*
X0257374Y0052498D01*
X0257374Y0050746D01*
X0257469Y0050390D01*
X0257653Y0050070D01*
X0257914Y0049810D01*
X0257619Y0050130D02*
X0254526Y0050130D01*
X0254526Y0049332D02*
X0260470Y0049332D01*
X0261326Y0050130D02*
X0262126Y0050130D01*
X0262126Y0050929D02*
X0261326Y0050929D01*
X0261326Y0051727D02*
X0262126Y0051727D01*
X0261326Y0052526D02*
X0255451Y0052526D01*
X0254653Y0051727D02*
X0257374Y0051727D01*
X0257374Y0050929D02*
X0254526Y0050929D01*
X0262726Y0049332D02*
X0263526Y0049332D01*
X0263526Y0048533D02*
X0262726Y0048533D01*
X0262726Y0047734D02*
X0263526Y0047734D01*
X0277871Y0053324D02*
X0283250Y0053324D01*
X0284048Y0054123D02*
X0279491Y0054123D01*
X0280405Y0054921D02*
X0284847Y0054921D01*
X0285645Y0055720D02*
X0281025Y0055720D01*
X0281448Y0056518D02*
X0286444Y0056518D01*
X0287242Y0057317D02*
X0281723Y0057317D01*
X0281873Y0058115D02*
X0288041Y0058115D01*
X0273626Y0060511D02*
X0272826Y0060511D01*
X0272826Y0061309D02*
X0273626Y0061309D01*
X0273626Y0062108D02*
X0272826Y0062108D01*
X0272826Y0062906D02*
X0273626Y0062906D01*
X0273626Y0063705D02*
X0272826Y0063705D01*
X0272826Y0064503D02*
X0273626Y0064503D01*
X0276804Y0064503D02*
X0302126Y0064503D01*
X0302126Y0063705D02*
X0279176Y0063705D01*
X0269649Y0064503D02*
X0265679Y0064503D01*
X0265679Y0063705D02*
X0267277Y0063705D01*
X0266275Y0062906D02*
X0265679Y0062906D01*
X0265679Y0065302D02*
X0302126Y0065302D01*
X0302126Y0066100D02*
X0265679Y0066100D01*
X0265679Y0066899D02*
X0302126Y0066899D01*
X0302126Y0067697D02*
X0261945Y0067697D01*
X0261937Y0068496D02*
X0302126Y0068496D01*
X0302126Y0069294D02*
X0261930Y0069294D01*
X0224442Y0062516D02*
X0224442Y0062355D01*
X0222690Y0064164D02*
X0222633Y0064164D01*
X0220823Y0065897D02*
X0220823Y0065974D01*
X0220899Y0065974D01*
X0219013Y0067783D02*
X0219013Y0067912D01*
X0214838Y0067888D02*
X0214838Y0067783D01*
X0211219Y0064307D02*
X0211219Y0064164D01*
X0209409Y0062516D02*
X0209409Y0062355D01*
X0207600Y0060726D02*
X0207600Y0060545D01*
X0202171Y0055155D02*
X0201971Y0055155D01*
X0202171Y0055155D02*
X0202171Y0055116D01*
X0198552Y0051497D02*
X0198428Y0051497D01*
X0196742Y0049688D02*
X0196413Y0049688D01*
X0196742Y0045512D02*
X0196742Y0045417D01*
X0198552Y0043703D02*
X0198628Y0043703D01*
X0200361Y0041893D02*
X0200419Y0041893D01*
X0202171Y0040084D02*
X0202209Y0040084D01*
X0203981Y0038274D02*
X0204000Y0038274D01*
X0207581Y0034655D02*
X0207600Y0034655D01*
X0209409Y0032884D02*
X0209409Y0032845D01*
X0211219Y0031093D02*
X0211219Y0031036D01*
X0212828Y0029103D02*
X0213028Y0029103D01*
X0213028Y0029226D01*
X0214414Y0027088D02*
X0214838Y0027088D01*
X0219109Y0027383D02*
X0219109Y0027417D01*
X0220823Y0029226D02*
X0220899Y0029226D01*
X0222633Y0031036D02*
X0222690Y0031036D01*
X0224442Y0032845D02*
X0224480Y0032845D01*
X0226252Y0034655D02*
X0226271Y0034655D01*
X0229871Y0038255D02*
X0229871Y0038274D01*
X0231680Y0040045D02*
X0231680Y0040084D01*
X0233490Y0041893D02*
X0233633Y0041893D01*
X0235299Y0043703D02*
X0235423Y0043703D01*
X0237014Y0045512D02*
X0237109Y0045512D01*
X0243779Y0047600D02*
X0243979Y0047400D01*
X0243779Y0047600D02*
X0239526Y0047600D01*
X0237213Y0049688D02*
X0237109Y0049688D01*
X0235299Y0051497D02*
X0235299Y0051574D01*
X0222926Y0057200D02*
X0222926Y0057219D01*
X0265679Y0054921D02*
X0266048Y0054921D01*
X0265679Y0054123D02*
X0266962Y0054123D01*
X0279926Y0049332D02*
X0280726Y0049332D01*
X0280726Y0048533D02*
X0279926Y0048533D01*
X0263278Y0034000D02*
X0263126Y0034153D01*
X0248326Y0032457D02*
X0248269Y0032400D01*
X0244726Y0032400D01*
X0244379Y0032054D01*
X0242619Y0032054D01*
X0242872Y0031800D01*
X0242619Y0032054D02*
X0242126Y0032054D01*
X0242072Y0032000D01*
X0242126Y0032054D02*
X0240926Y0032054D01*
X0108779Y0071200D02*
X0103326Y0071200D01*
X0102326Y0070200D01*
X0108582Y0071397D02*
X0108779Y0071200D01*
X0108582Y0071397D02*
X0108582Y0077200D01*
X0206926Y0077600D02*
X0209326Y0077600D01*
X0070126Y0023000D02*
X0069126Y0022000D01*
X0042272Y0022000D01*
X0045126Y0018600D02*
X0046526Y0020000D01*
X0071326Y0020000D01*
X0073726Y0017600D01*
X0076926Y0017600D01*
X0045126Y0018600D02*
X0038979Y0018600D01*
X0035579Y0022000D01*
X0029672Y0022000D01*
X0027179Y0026200D02*
X0022979Y0022000D01*
X0027179Y0026200D02*
X0037926Y0026200D01*
X0039045Y0027320D01*
X0039045Y0030984D01*
D38*
X0102326Y0070200D03*
D39*
X0325126Y0055800D03*
D40*
X0331926Y0027600D03*
M02*
