%
M48
M72
T01C0.01200
T02C0.01300
T03C0.02756
T04C0.03346
T05C0.03543
T06C0.04000
T07C0.04724
T08C0.12500
%
T01
X19126Y25800
X54926Y36200
X60926Y35800
X70126Y37200
X86926Y27600
X91126Y27600
X102126Y29000
X145126Y40600
X149526Y41400
X165326Y46400
X180926Y46400
X189526Y48000
X192726Y51400
X197126Y55600
X192526Y58200
X207126Y53600
X210526Y56200
X214126Y58200
X222926Y57200
X225926Y54400
X228926Y51000
X222326Y49000
X231526Y47200
X239526Y47600
X251126Y52000
X256326Y51200
X273326Y51000
X279126Y51000
X274326Y45200
X286926Y43800
X273326Y39400
X273326Y36000
X268526Y34200
X282926Y32600
X294526Y36200
X287126Y37200
X253126Y34200
X242726Y36600
X241526Y40400
X250526Y43600
X224726Y40000
X216326Y42600
X209726Y44000
X206926Y47400
X200726Y47800
X204126Y50000
X195126Y41000
X191526Y41000
X209726Y39000
X214126Y37600
X192326Y33000
X180926Y32600
X174326Y32800
X165126Y35400
X149326Y47600
X139726Y60200
X160560Y64600
X161926Y68400
X198326Y63200
X229126Y64600
X237526Y66400
X242326Y66400
X246526Y64800
X255926Y63200
X273326Y66600
X281926Y64600
X331326Y44400
X332326Y38200
X332926Y34400
X329326Y32800
X208126Y28000
X120526Y74400
X51126Y54800
X38926Y45200
X20526Y44200
X20126Y69600
X24926Y70600
X35726Y70400
X35726Y79200
T02
X102326Y70200
T03
X331926Y27600
T04
X340264Y26520
X340264Y41480
T05
X325126Y55800
T06
X76926Y17600
X86926Y17600
X96926Y17600
X106926Y17600
X116926Y17600
X126926Y17600
X136926Y17600
X146926Y17600
X156926Y17600
X166926Y17600
X176926Y17600
X186926Y17600
X196926Y17600
X206926Y17600
X216926Y17600
X226926Y17600
X236926Y17600
X246926Y17600
X256926Y17600
X266926Y17600
X276926Y17600
X286926Y17600
X296926Y17600
X306926Y17600
X316926Y17600
X316926Y77600
X306926Y77600
X296926Y77600
X286926Y77600
X276926Y77600
X266926Y77600
X256926Y77600
X246926Y77600
X236926Y77600
X226926Y77600
X216926Y77600
X206926Y77600
X196926Y77600
X186926Y77600
X176926Y77600
X166926Y77600
X156926Y77600
X146926Y77600
X136926Y77600
X126926Y77600
X116926Y62600
X116926Y52600
X116926Y42600
X116926Y32600
T07
X77926Y30261
X77926Y44041
X77926Y57820
X77926Y71600
X337126Y74400
X337126Y60620
T08
X296626Y47600
X101926Y47600
M30
