G75*
%MOIN*%
%OFA0B0*%
%FSLAX25Y25*%
%IPPOS*%
%LPD*%
%AMOC8*
5,1,8,0,0,1.08239X$1,22.5*
%
%ADD10C,0.00000*%
%ADD11C,0.06000*%
%ADD12C,0.07087*%
%ADD13C,0.00700*%
%ADD14C,0.02400*%
%ADD15C,0.01600*%
%ADD16C,0.02500*%
%ADD17C,0.00800*%
%ADD18C,0.05000*%
%ADD19C,0.05315*%
%ADD20C,0.04134*%
%ADD21C,0.02400*%
%ADD22C,0.01000*%
D10*
X0016926Y0012600D02*
X0016926Y0082600D01*
X0356926Y0082600D01*
X0356926Y0012600D01*
X0016926Y0012600D01*
X0095676Y0047600D02*
X0095678Y0047758D01*
X0095684Y0047915D01*
X0095694Y0048073D01*
X0095708Y0048230D01*
X0095726Y0048386D01*
X0095747Y0048543D01*
X0095773Y0048698D01*
X0095803Y0048853D01*
X0095836Y0049007D01*
X0095874Y0049160D01*
X0095915Y0049313D01*
X0095960Y0049464D01*
X0096009Y0049614D01*
X0096062Y0049762D01*
X0096118Y0049910D01*
X0096179Y0050055D01*
X0096242Y0050200D01*
X0096310Y0050342D01*
X0096381Y0050483D01*
X0096455Y0050622D01*
X0096533Y0050759D01*
X0096615Y0050894D01*
X0096699Y0051027D01*
X0096788Y0051158D01*
X0096879Y0051286D01*
X0096974Y0051413D01*
X0097071Y0051536D01*
X0097172Y0051658D01*
X0097276Y0051776D01*
X0097383Y0051892D01*
X0097493Y0052005D01*
X0097605Y0052116D01*
X0097721Y0052223D01*
X0097839Y0052328D01*
X0097959Y0052430D01*
X0098082Y0052528D01*
X0098208Y0052624D01*
X0098336Y0052716D01*
X0098466Y0052805D01*
X0098598Y0052891D01*
X0098733Y0052973D01*
X0098870Y0053052D01*
X0099008Y0053127D01*
X0099148Y0053199D01*
X0099291Y0053267D01*
X0099434Y0053332D01*
X0099580Y0053393D01*
X0099727Y0053450D01*
X0099875Y0053504D01*
X0100025Y0053554D01*
X0100175Y0053600D01*
X0100327Y0053642D01*
X0100480Y0053681D01*
X0100634Y0053715D01*
X0100789Y0053746D01*
X0100944Y0053772D01*
X0101100Y0053795D01*
X0101257Y0053814D01*
X0101414Y0053829D01*
X0101571Y0053840D01*
X0101729Y0053847D01*
X0101887Y0053850D01*
X0102044Y0053849D01*
X0102202Y0053844D01*
X0102359Y0053835D01*
X0102517Y0053822D01*
X0102673Y0053805D01*
X0102830Y0053784D01*
X0102985Y0053760D01*
X0103140Y0053731D01*
X0103295Y0053698D01*
X0103448Y0053662D01*
X0103601Y0053621D01*
X0103752Y0053577D01*
X0103902Y0053529D01*
X0104051Y0053478D01*
X0104199Y0053422D01*
X0104345Y0053363D01*
X0104490Y0053300D01*
X0104633Y0053233D01*
X0104774Y0053163D01*
X0104913Y0053090D01*
X0105051Y0053013D01*
X0105187Y0052932D01*
X0105320Y0052848D01*
X0105451Y0052761D01*
X0105580Y0052670D01*
X0105707Y0052576D01*
X0105832Y0052479D01*
X0105953Y0052379D01*
X0106073Y0052276D01*
X0106189Y0052170D01*
X0106303Y0052061D01*
X0106415Y0051949D01*
X0106523Y0051835D01*
X0106628Y0051717D01*
X0106731Y0051597D01*
X0106830Y0051475D01*
X0106926Y0051350D01*
X0107019Y0051222D01*
X0107109Y0051093D01*
X0107195Y0050961D01*
X0107279Y0050827D01*
X0107358Y0050691D01*
X0107435Y0050553D01*
X0107507Y0050413D01*
X0107576Y0050271D01*
X0107642Y0050128D01*
X0107704Y0049983D01*
X0107762Y0049836D01*
X0107817Y0049688D01*
X0107868Y0049539D01*
X0107915Y0049388D01*
X0107958Y0049237D01*
X0107997Y0049084D01*
X0108033Y0048930D01*
X0108064Y0048776D01*
X0108092Y0048621D01*
X0108116Y0048465D01*
X0108136Y0048308D01*
X0108152Y0048151D01*
X0108164Y0047994D01*
X0108172Y0047837D01*
X0108176Y0047679D01*
X0108176Y0047521D01*
X0108172Y0047363D01*
X0108164Y0047206D01*
X0108152Y0047049D01*
X0108136Y0046892D01*
X0108116Y0046735D01*
X0108092Y0046579D01*
X0108064Y0046424D01*
X0108033Y0046270D01*
X0107997Y0046116D01*
X0107958Y0045963D01*
X0107915Y0045812D01*
X0107868Y0045661D01*
X0107817Y0045512D01*
X0107762Y0045364D01*
X0107704Y0045217D01*
X0107642Y0045072D01*
X0107576Y0044929D01*
X0107507Y0044787D01*
X0107435Y0044647D01*
X0107358Y0044509D01*
X0107279Y0044373D01*
X0107195Y0044239D01*
X0107109Y0044107D01*
X0107019Y0043978D01*
X0106926Y0043850D01*
X0106830Y0043725D01*
X0106731Y0043603D01*
X0106628Y0043483D01*
X0106523Y0043365D01*
X0106415Y0043251D01*
X0106303Y0043139D01*
X0106189Y0043030D01*
X0106073Y0042924D01*
X0105953Y0042821D01*
X0105832Y0042721D01*
X0105707Y0042624D01*
X0105580Y0042530D01*
X0105451Y0042439D01*
X0105320Y0042352D01*
X0105187Y0042268D01*
X0105051Y0042187D01*
X0104913Y0042110D01*
X0104774Y0042037D01*
X0104633Y0041967D01*
X0104490Y0041900D01*
X0104345Y0041837D01*
X0104199Y0041778D01*
X0104051Y0041722D01*
X0103902Y0041671D01*
X0103752Y0041623D01*
X0103601Y0041579D01*
X0103448Y0041538D01*
X0103295Y0041502D01*
X0103140Y0041469D01*
X0102985Y0041440D01*
X0102830Y0041416D01*
X0102673Y0041395D01*
X0102517Y0041378D01*
X0102359Y0041365D01*
X0102202Y0041356D01*
X0102044Y0041351D01*
X0101887Y0041350D01*
X0101729Y0041353D01*
X0101571Y0041360D01*
X0101414Y0041371D01*
X0101257Y0041386D01*
X0101100Y0041405D01*
X0100944Y0041428D01*
X0100789Y0041454D01*
X0100634Y0041485D01*
X0100480Y0041519D01*
X0100327Y0041558D01*
X0100175Y0041600D01*
X0100025Y0041646D01*
X0099875Y0041696D01*
X0099727Y0041750D01*
X0099580Y0041807D01*
X0099434Y0041868D01*
X0099291Y0041933D01*
X0099148Y0042001D01*
X0099008Y0042073D01*
X0098870Y0042148D01*
X0098733Y0042227D01*
X0098598Y0042309D01*
X0098466Y0042395D01*
X0098336Y0042484D01*
X0098208Y0042576D01*
X0098082Y0042672D01*
X0097959Y0042770D01*
X0097839Y0042872D01*
X0097721Y0042977D01*
X0097605Y0043084D01*
X0097493Y0043195D01*
X0097383Y0043308D01*
X0097276Y0043424D01*
X0097172Y0043542D01*
X0097071Y0043664D01*
X0096974Y0043787D01*
X0096879Y0043914D01*
X0096788Y0044042D01*
X0096699Y0044173D01*
X0096615Y0044306D01*
X0096533Y0044441D01*
X0096455Y0044578D01*
X0096381Y0044717D01*
X0096310Y0044858D01*
X0096242Y0045000D01*
X0096179Y0045145D01*
X0096118Y0045290D01*
X0096062Y0045438D01*
X0096009Y0045586D01*
X0095960Y0045736D01*
X0095915Y0045887D01*
X0095874Y0046040D01*
X0095836Y0046193D01*
X0095803Y0046347D01*
X0095773Y0046502D01*
X0095747Y0046657D01*
X0095726Y0046814D01*
X0095708Y0046970D01*
X0095694Y0047127D01*
X0095684Y0047285D01*
X0095678Y0047442D01*
X0095676Y0047600D01*
X0290376Y0047600D02*
X0290378Y0047758D01*
X0290384Y0047915D01*
X0290394Y0048073D01*
X0290408Y0048230D01*
X0290426Y0048386D01*
X0290447Y0048543D01*
X0290473Y0048698D01*
X0290503Y0048853D01*
X0290536Y0049007D01*
X0290574Y0049160D01*
X0290615Y0049313D01*
X0290660Y0049464D01*
X0290709Y0049614D01*
X0290762Y0049762D01*
X0290818Y0049910D01*
X0290879Y0050055D01*
X0290942Y0050200D01*
X0291010Y0050342D01*
X0291081Y0050483D01*
X0291155Y0050622D01*
X0291233Y0050759D01*
X0291315Y0050894D01*
X0291399Y0051027D01*
X0291488Y0051158D01*
X0291579Y0051286D01*
X0291674Y0051413D01*
X0291771Y0051536D01*
X0291872Y0051658D01*
X0291976Y0051776D01*
X0292083Y0051892D01*
X0292193Y0052005D01*
X0292305Y0052116D01*
X0292421Y0052223D01*
X0292539Y0052328D01*
X0292659Y0052430D01*
X0292782Y0052528D01*
X0292908Y0052624D01*
X0293036Y0052716D01*
X0293166Y0052805D01*
X0293298Y0052891D01*
X0293433Y0052973D01*
X0293570Y0053052D01*
X0293708Y0053127D01*
X0293848Y0053199D01*
X0293991Y0053267D01*
X0294134Y0053332D01*
X0294280Y0053393D01*
X0294427Y0053450D01*
X0294575Y0053504D01*
X0294725Y0053554D01*
X0294875Y0053600D01*
X0295027Y0053642D01*
X0295180Y0053681D01*
X0295334Y0053715D01*
X0295489Y0053746D01*
X0295644Y0053772D01*
X0295800Y0053795D01*
X0295957Y0053814D01*
X0296114Y0053829D01*
X0296271Y0053840D01*
X0296429Y0053847D01*
X0296587Y0053850D01*
X0296744Y0053849D01*
X0296902Y0053844D01*
X0297059Y0053835D01*
X0297217Y0053822D01*
X0297373Y0053805D01*
X0297530Y0053784D01*
X0297685Y0053760D01*
X0297840Y0053731D01*
X0297995Y0053698D01*
X0298148Y0053662D01*
X0298301Y0053621D01*
X0298452Y0053577D01*
X0298602Y0053529D01*
X0298751Y0053478D01*
X0298899Y0053422D01*
X0299045Y0053363D01*
X0299190Y0053300D01*
X0299333Y0053233D01*
X0299474Y0053163D01*
X0299613Y0053090D01*
X0299751Y0053013D01*
X0299887Y0052932D01*
X0300020Y0052848D01*
X0300151Y0052761D01*
X0300280Y0052670D01*
X0300407Y0052576D01*
X0300532Y0052479D01*
X0300653Y0052379D01*
X0300773Y0052276D01*
X0300889Y0052170D01*
X0301003Y0052061D01*
X0301115Y0051949D01*
X0301223Y0051835D01*
X0301328Y0051717D01*
X0301431Y0051597D01*
X0301530Y0051475D01*
X0301626Y0051350D01*
X0301719Y0051222D01*
X0301809Y0051093D01*
X0301895Y0050961D01*
X0301979Y0050827D01*
X0302058Y0050691D01*
X0302135Y0050553D01*
X0302207Y0050413D01*
X0302276Y0050271D01*
X0302342Y0050128D01*
X0302404Y0049983D01*
X0302462Y0049836D01*
X0302517Y0049688D01*
X0302568Y0049539D01*
X0302615Y0049388D01*
X0302658Y0049237D01*
X0302697Y0049084D01*
X0302733Y0048930D01*
X0302764Y0048776D01*
X0302792Y0048621D01*
X0302816Y0048465D01*
X0302836Y0048308D01*
X0302852Y0048151D01*
X0302864Y0047994D01*
X0302872Y0047837D01*
X0302876Y0047679D01*
X0302876Y0047521D01*
X0302872Y0047363D01*
X0302864Y0047206D01*
X0302852Y0047049D01*
X0302836Y0046892D01*
X0302816Y0046735D01*
X0302792Y0046579D01*
X0302764Y0046424D01*
X0302733Y0046270D01*
X0302697Y0046116D01*
X0302658Y0045963D01*
X0302615Y0045812D01*
X0302568Y0045661D01*
X0302517Y0045512D01*
X0302462Y0045364D01*
X0302404Y0045217D01*
X0302342Y0045072D01*
X0302276Y0044929D01*
X0302207Y0044787D01*
X0302135Y0044647D01*
X0302058Y0044509D01*
X0301979Y0044373D01*
X0301895Y0044239D01*
X0301809Y0044107D01*
X0301719Y0043978D01*
X0301626Y0043850D01*
X0301530Y0043725D01*
X0301431Y0043603D01*
X0301328Y0043483D01*
X0301223Y0043365D01*
X0301115Y0043251D01*
X0301003Y0043139D01*
X0300889Y0043030D01*
X0300773Y0042924D01*
X0300653Y0042821D01*
X0300532Y0042721D01*
X0300407Y0042624D01*
X0300280Y0042530D01*
X0300151Y0042439D01*
X0300020Y0042352D01*
X0299887Y0042268D01*
X0299751Y0042187D01*
X0299613Y0042110D01*
X0299474Y0042037D01*
X0299333Y0041967D01*
X0299190Y0041900D01*
X0299045Y0041837D01*
X0298899Y0041778D01*
X0298751Y0041722D01*
X0298602Y0041671D01*
X0298452Y0041623D01*
X0298301Y0041579D01*
X0298148Y0041538D01*
X0297995Y0041502D01*
X0297840Y0041469D01*
X0297685Y0041440D01*
X0297530Y0041416D01*
X0297373Y0041395D01*
X0297217Y0041378D01*
X0297059Y0041365D01*
X0296902Y0041356D01*
X0296744Y0041351D01*
X0296587Y0041350D01*
X0296429Y0041353D01*
X0296271Y0041360D01*
X0296114Y0041371D01*
X0295957Y0041386D01*
X0295800Y0041405D01*
X0295644Y0041428D01*
X0295489Y0041454D01*
X0295334Y0041485D01*
X0295180Y0041519D01*
X0295027Y0041558D01*
X0294875Y0041600D01*
X0294725Y0041646D01*
X0294575Y0041696D01*
X0294427Y0041750D01*
X0294280Y0041807D01*
X0294134Y0041868D01*
X0293991Y0041933D01*
X0293848Y0042001D01*
X0293708Y0042073D01*
X0293570Y0042148D01*
X0293433Y0042227D01*
X0293298Y0042309D01*
X0293166Y0042395D01*
X0293036Y0042484D01*
X0292908Y0042576D01*
X0292782Y0042672D01*
X0292659Y0042770D01*
X0292539Y0042872D01*
X0292421Y0042977D01*
X0292305Y0043084D01*
X0292193Y0043195D01*
X0292083Y0043308D01*
X0291976Y0043424D01*
X0291872Y0043542D01*
X0291771Y0043664D01*
X0291674Y0043787D01*
X0291579Y0043914D01*
X0291488Y0044042D01*
X0291399Y0044173D01*
X0291315Y0044306D01*
X0291233Y0044441D01*
X0291155Y0044578D01*
X0291081Y0044717D01*
X0291010Y0044858D01*
X0290942Y0045000D01*
X0290879Y0045145D01*
X0290818Y0045290D01*
X0290762Y0045438D01*
X0290709Y0045586D01*
X0290660Y0045736D01*
X0290615Y0045887D01*
X0290574Y0046040D01*
X0290536Y0046193D01*
X0290503Y0046347D01*
X0290473Y0046502D01*
X0290447Y0046657D01*
X0290426Y0046814D01*
X0290408Y0046970D01*
X0290394Y0047127D01*
X0290384Y0047285D01*
X0290378Y0047442D01*
X0290376Y0047600D01*
X0338591Y0041480D02*
X0338593Y0041561D01*
X0338599Y0041643D01*
X0338609Y0041724D01*
X0338623Y0041804D01*
X0338640Y0041883D01*
X0338662Y0041962D01*
X0338687Y0042039D01*
X0338716Y0042116D01*
X0338749Y0042190D01*
X0338786Y0042263D01*
X0338825Y0042334D01*
X0338869Y0042403D01*
X0338915Y0042470D01*
X0338965Y0042534D01*
X0339018Y0042596D01*
X0339074Y0042656D01*
X0339132Y0042712D01*
X0339194Y0042766D01*
X0339258Y0042817D01*
X0339324Y0042864D01*
X0339392Y0042908D01*
X0339463Y0042949D01*
X0339535Y0042986D01*
X0339610Y0043020D01*
X0339685Y0043050D01*
X0339763Y0043076D01*
X0339841Y0043099D01*
X0339920Y0043117D01*
X0340000Y0043132D01*
X0340081Y0043143D01*
X0340162Y0043150D01*
X0340244Y0043153D01*
X0340325Y0043152D01*
X0340406Y0043147D01*
X0340487Y0043138D01*
X0340568Y0043125D01*
X0340648Y0043108D01*
X0340726Y0043088D01*
X0340804Y0043063D01*
X0340881Y0043035D01*
X0340956Y0043003D01*
X0341029Y0042968D01*
X0341100Y0042929D01*
X0341170Y0042886D01*
X0341237Y0042841D01*
X0341303Y0042792D01*
X0341365Y0042740D01*
X0341425Y0042684D01*
X0341482Y0042626D01*
X0341537Y0042566D01*
X0341588Y0042502D01*
X0341636Y0042437D01*
X0341681Y0042369D01*
X0341723Y0042299D01*
X0341761Y0042227D01*
X0341796Y0042153D01*
X0341827Y0042078D01*
X0341854Y0042001D01*
X0341877Y0041923D01*
X0341897Y0041844D01*
X0341913Y0041764D01*
X0341925Y0041683D01*
X0341933Y0041602D01*
X0341937Y0041521D01*
X0341937Y0041439D01*
X0341933Y0041358D01*
X0341925Y0041277D01*
X0341913Y0041196D01*
X0341897Y0041116D01*
X0341877Y0041037D01*
X0341854Y0040959D01*
X0341827Y0040882D01*
X0341796Y0040807D01*
X0341761Y0040733D01*
X0341723Y0040661D01*
X0341681Y0040591D01*
X0341636Y0040523D01*
X0341588Y0040458D01*
X0341537Y0040394D01*
X0341482Y0040334D01*
X0341425Y0040276D01*
X0341365Y0040220D01*
X0341303Y0040168D01*
X0341237Y0040119D01*
X0341170Y0040074D01*
X0341101Y0040031D01*
X0341029Y0039992D01*
X0340956Y0039957D01*
X0340881Y0039925D01*
X0340804Y0039897D01*
X0340726Y0039872D01*
X0340648Y0039852D01*
X0340568Y0039835D01*
X0340487Y0039822D01*
X0340406Y0039813D01*
X0340325Y0039808D01*
X0340244Y0039807D01*
X0340162Y0039810D01*
X0340081Y0039817D01*
X0340000Y0039828D01*
X0339920Y0039843D01*
X0339841Y0039861D01*
X0339763Y0039884D01*
X0339685Y0039910D01*
X0339610Y0039940D01*
X0339535Y0039974D01*
X0339463Y0040011D01*
X0339392Y0040052D01*
X0339324Y0040096D01*
X0339258Y0040143D01*
X0339194Y0040194D01*
X0339132Y0040248D01*
X0339074Y0040304D01*
X0339018Y0040364D01*
X0338965Y0040426D01*
X0338915Y0040490D01*
X0338869Y0040557D01*
X0338825Y0040626D01*
X0338786Y0040697D01*
X0338749Y0040770D01*
X0338716Y0040844D01*
X0338687Y0040921D01*
X0338662Y0040998D01*
X0338640Y0041077D01*
X0338623Y0041156D01*
X0338609Y0041236D01*
X0338599Y0041317D01*
X0338593Y0041399D01*
X0338591Y0041480D01*
X0338591Y0026520D02*
X0338593Y0026601D01*
X0338599Y0026683D01*
X0338609Y0026764D01*
X0338623Y0026844D01*
X0338640Y0026923D01*
X0338662Y0027002D01*
X0338687Y0027079D01*
X0338716Y0027156D01*
X0338749Y0027230D01*
X0338786Y0027303D01*
X0338825Y0027374D01*
X0338869Y0027443D01*
X0338915Y0027510D01*
X0338965Y0027574D01*
X0339018Y0027636D01*
X0339074Y0027696D01*
X0339132Y0027752D01*
X0339194Y0027806D01*
X0339258Y0027857D01*
X0339324Y0027904D01*
X0339392Y0027948D01*
X0339463Y0027989D01*
X0339535Y0028026D01*
X0339610Y0028060D01*
X0339685Y0028090D01*
X0339763Y0028116D01*
X0339841Y0028139D01*
X0339920Y0028157D01*
X0340000Y0028172D01*
X0340081Y0028183D01*
X0340162Y0028190D01*
X0340244Y0028193D01*
X0340325Y0028192D01*
X0340406Y0028187D01*
X0340487Y0028178D01*
X0340568Y0028165D01*
X0340648Y0028148D01*
X0340726Y0028128D01*
X0340804Y0028103D01*
X0340881Y0028075D01*
X0340956Y0028043D01*
X0341029Y0028008D01*
X0341100Y0027969D01*
X0341170Y0027926D01*
X0341237Y0027881D01*
X0341303Y0027832D01*
X0341365Y0027780D01*
X0341425Y0027724D01*
X0341482Y0027666D01*
X0341537Y0027606D01*
X0341588Y0027542D01*
X0341636Y0027477D01*
X0341681Y0027409D01*
X0341723Y0027339D01*
X0341761Y0027267D01*
X0341796Y0027193D01*
X0341827Y0027118D01*
X0341854Y0027041D01*
X0341877Y0026963D01*
X0341897Y0026884D01*
X0341913Y0026804D01*
X0341925Y0026723D01*
X0341933Y0026642D01*
X0341937Y0026561D01*
X0341937Y0026479D01*
X0341933Y0026398D01*
X0341925Y0026317D01*
X0341913Y0026236D01*
X0341897Y0026156D01*
X0341877Y0026077D01*
X0341854Y0025999D01*
X0341827Y0025922D01*
X0341796Y0025847D01*
X0341761Y0025773D01*
X0341723Y0025701D01*
X0341681Y0025631D01*
X0341636Y0025563D01*
X0341588Y0025498D01*
X0341537Y0025434D01*
X0341482Y0025374D01*
X0341425Y0025316D01*
X0341365Y0025260D01*
X0341303Y0025208D01*
X0341237Y0025159D01*
X0341170Y0025114D01*
X0341101Y0025071D01*
X0341029Y0025032D01*
X0340956Y0024997D01*
X0340881Y0024965D01*
X0340804Y0024937D01*
X0340726Y0024912D01*
X0340648Y0024892D01*
X0340568Y0024875D01*
X0340487Y0024862D01*
X0340406Y0024853D01*
X0340325Y0024848D01*
X0340244Y0024847D01*
X0340162Y0024850D01*
X0340081Y0024857D01*
X0340000Y0024868D01*
X0339920Y0024883D01*
X0339841Y0024901D01*
X0339763Y0024924D01*
X0339685Y0024950D01*
X0339610Y0024980D01*
X0339535Y0025014D01*
X0339463Y0025051D01*
X0339392Y0025092D01*
X0339324Y0025136D01*
X0339258Y0025183D01*
X0339194Y0025234D01*
X0339132Y0025288D01*
X0339074Y0025344D01*
X0339018Y0025404D01*
X0338965Y0025466D01*
X0338915Y0025530D01*
X0338869Y0025597D01*
X0338825Y0025666D01*
X0338786Y0025737D01*
X0338749Y0025810D01*
X0338716Y0025884D01*
X0338687Y0025961D01*
X0338662Y0026038D01*
X0338640Y0026117D01*
X0338623Y0026196D01*
X0338609Y0026276D01*
X0338599Y0026357D01*
X0338593Y0026439D01*
X0338591Y0026520D01*
D11*
X0316926Y0017600D03*
X0306926Y0017600D03*
X0296926Y0017600D03*
X0286926Y0017600D03*
X0276926Y0017600D03*
X0266926Y0017600D03*
X0256926Y0017600D03*
X0246926Y0017600D03*
X0236926Y0017600D03*
X0226926Y0017600D03*
X0216926Y0017600D03*
X0206926Y0017600D03*
X0196926Y0017600D03*
X0186926Y0017600D03*
X0176926Y0017600D03*
X0166926Y0017600D03*
X0156926Y0017600D03*
X0146926Y0017600D03*
X0136926Y0017600D03*
X0126926Y0017600D03*
X0116926Y0017600D03*
X0106926Y0017600D03*
X0096926Y0017600D03*
X0086926Y0017600D03*
X0076926Y0017600D03*
X0116926Y0032600D03*
X0116926Y0042600D03*
X0116926Y0052600D03*
X0116926Y0062600D03*
X0126926Y0077600D03*
X0136926Y0077600D03*
X0146926Y0077600D03*
X0156926Y0077600D03*
X0166926Y0077600D03*
X0176926Y0077600D03*
X0186926Y0077600D03*
X0196926Y0077600D03*
X0206926Y0077600D03*
X0216926Y0077600D03*
X0226926Y0077600D03*
X0236926Y0077600D03*
X0246926Y0077600D03*
X0256926Y0077600D03*
X0266926Y0077600D03*
X0276926Y0077600D03*
X0286926Y0077600D03*
X0296926Y0077600D03*
X0306926Y0077600D03*
X0316926Y0077600D03*
D12*
X0337126Y0074400D03*
X0337126Y0060620D03*
X0077926Y0057820D03*
X0077926Y0044041D03*
X0077926Y0030261D03*
X0077926Y0071600D03*
D13*
X0078276Y0071275D02*
X0088762Y0071275D01*
X0088987Y0071500D02*
X0082787Y0065300D01*
X0032064Y0065300D01*
X0027076Y0070288D01*
X0027076Y0071491D01*
X0025816Y0072750D01*
X0024035Y0072750D01*
X0022776Y0071491D01*
X0022776Y0069709D01*
X0024035Y0068450D01*
X0025237Y0068450D01*
X0030987Y0062700D01*
X0068765Y0062700D01*
X0068765Y0038880D01*
X0067976Y0038091D01*
X0067976Y0036309D01*
X0069235Y0035050D01*
X0071016Y0035050D01*
X0072276Y0036309D01*
X0072276Y0038091D01*
X0071365Y0039002D01*
X0071365Y0062700D01*
X0083864Y0062700D01*
X0084626Y0063462D01*
X0090064Y0068900D01*
X0096316Y0068900D01*
X0096366Y0068850D01*
X0100564Y0068850D01*
X0101414Y0068000D01*
X0103237Y0068000D01*
X0104137Y0068900D01*
X0121387Y0068900D01*
X0126987Y0063300D01*
X0158819Y0063300D01*
X0159669Y0062450D01*
X0161450Y0062450D01*
X0162300Y0063300D01*
X0196176Y0063300D01*
X0196176Y0062309D01*
X0197435Y0061050D01*
X0199216Y0061050D01*
X0200476Y0062309D01*
X0200476Y0062850D01*
X0227835Y0062850D01*
X0228235Y0062450D01*
X0228801Y0062450D01*
X0237976Y0053275D01*
X0237976Y0049091D01*
X0237376Y0048491D01*
X0237376Y0046709D01*
X0238226Y0045859D01*
X0238226Y0044738D01*
X0227787Y0034300D01*
X0194066Y0034300D01*
X0193216Y0035150D01*
X0191435Y0035150D01*
X0190176Y0033891D01*
X0190176Y0032109D01*
X0191235Y0031050D01*
X0175616Y0031050D01*
X0176476Y0031909D01*
X0176476Y0033112D01*
X0178664Y0035300D01*
X0200264Y0035300D01*
X0201026Y0036062D01*
X0205264Y0040300D01*
X0215864Y0040300D01*
X0216014Y0040450D01*
X0217216Y0040450D01*
X0218476Y0041709D01*
X0218476Y0043491D01*
X0217216Y0044750D01*
X0215435Y0044750D01*
X0214176Y0043491D01*
X0214176Y0042900D01*
X0211666Y0042900D01*
X0211876Y0043109D01*
X0211876Y0044891D01*
X0210616Y0046150D01*
X0208835Y0046150D01*
X0207576Y0044891D01*
X0207576Y0043109D01*
X0207785Y0042900D01*
X0204187Y0042900D01*
X0199187Y0037900D01*
X0177587Y0037900D01*
X0174637Y0034950D01*
X0173435Y0034950D01*
X0172176Y0033691D01*
X0172176Y0031909D01*
X0173035Y0031050D01*
X0146426Y0031050D01*
X0146426Y0038859D01*
X0147276Y0039709D01*
X0147276Y0041491D01*
X0146016Y0042750D01*
X0144235Y0042750D01*
X0142976Y0041491D01*
X0142976Y0039709D01*
X0143826Y0038859D01*
X0143826Y0031050D01*
X0123355Y0031050D01*
X0120774Y0033630D01*
X0120274Y0034837D01*
X0119163Y0035949D01*
X0118297Y0036307D01*
X0117480Y0037125D01*
X0116212Y0037650D01*
X0081178Y0037650D01*
X0079910Y0037125D01*
X0077540Y0034755D01*
X0077032Y0034755D01*
X0075380Y0034071D01*
X0074116Y0032807D01*
X0073432Y0031155D01*
X0073432Y0029368D01*
X0074116Y0027716D01*
X0075380Y0026452D01*
X0077032Y0025768D01*
X0078819Y0025768D01*
X0080471Y0026452D01*
X0081735Y0027716D01*
X0082419Y0029368D01*
X0082419Y0029876D01*
X0083293Y0030750D01*
X0113416Y0030750D01*
X0113577Y0030362D01*
X0114688Y0029251D01*
X0115895Y0028751D01*
X0119347Y0025300D01*
X0074664Y0025300D01*
X0066626Y0033338D01*
X0066626Y0037938D01*
X0063426Y0041138D01*
X0062664Y0041900D01*
X0058787Y0041900D01*
X0058026Y0041138D01*
X0055237Y0038350D01*
X0054035Y0038350D01*
X0052776Y0037091D01*
X0052776Y0035309D01*
X0054035Y0034050D01*
X0055816Y0034050D01*
X0057076Y0035309D01*
X0057076Y0036512D01*
X0059864Y0039300D01*
X0061587Y0039300D01*
X0064026Y0036862D01*
X0064026Y0032338D01*
X0062265Y0034099D01*
X0063076Y0034909D01*
X0063076Y0036691D01*
X0061816Y0037950D01*
X0060035Y0037950D01*
X0058776Y0036691D01*
X0058776Y0034909D01*
X0059626Y0034059D01*
X0059626Y0033062D01*
X0060387Y0032300D01*
X0071587Y0021100D01*
X0075054Y0021100D01*
X0074688Y0020949D01*
X0073577Y0019837D01*
X0072976Y0018386D01*
X0072976Y0016814D01*
X0073577Y0015362D01*
X0074688Y0014251D01*
X0075416Y0013950D01*
X0018276Y0013950D01*
X0018276Y0068409D01*
X0019235Y0067450D01*
X0021016Y0067450D01*
X0022276Y0068709D01*
X0022276Y0070491D01*
X0021016Y0071750D01*
X0019235Y0071750D01*
X0018276Y0070791D01*
X0018276Y0081250D01*
X0125416Y0081250D01*
X0124688Y0080949D01*
X0123577Y0079837D01*
X0122976Y0078386D01*
X0122976Y0076814D01*
X0123577Y0075363D01*
X0124688Y0074251D01*
X0126140Y0073650D01*
X0127711Y0073650D01*
X0129163Y0074251D01*
X0130274Y0075363D01*
X0130876Y0076814D01*
X0130876Y0078386D01*
X0130274Y0079837D01*
X0129163Y0080949D01*
X0128435Y0081250D01*
X0135416Y0081250D01*
X0134688Y0080949D01*
X0133577Y0079837D01*
X0132976Y0078386D01*
X0132976Y0076814D01*
X0133577Y0075363D01*
X0134688Y0074251D01*
X0136140Y0073650D01*
X0137711Y0073650D01*
X0139163Y0074251D01*
X0140274Y0075363D01*
X0140876Y0076814D01*
X0140876Y0078386D01*
X0140274Y0079837D01*
X0139163Y0080949D01*
X0138435Y0081250D01*
X0145416Y0081250D01*
X0144688Y0080949D01*
X0143577Y0079837D01*
X0142976Y0078386D01*
X0142976Y0076814D01*
X0143577Y0075363D01*
X0144688Y0074251D01*
X0146140Y0073650D01*
X0147711Y0073650D01*
X0149163Y0074251D01*
X0150274Y0075363D01*
X0150876Y0076814D01*
X0150876Y0078386D01*
X0150274Y0079837D01*
X0149163Y0080949D01*
X0148435Y0081250D01*
X0155416Y0081250D01*
X0154688Y0080949D01*
X0153577Y0079837D01*
X0152976Y0078386D01*
X0152976Y0076814D01*
X0153577Y0075363D01*
X0154688Y0074251D01*
X0156140Y0073650D01*
X0157711Y0073650D01*
X0159163Y0074251D01*
X0160274Y0075363D01*
X0160876Y0076814D01*
X0160876Y0078386D01*
X0160274Y0079837D01*
X0159163Y0080949D01*
X0158435Y0081250D01*
X0165416Y0081250D01*
X0164688Y0080949D01*
X0163577Y0079837D01*
X0162976Y0078386D01*
X0162976Y0076814D01*
X0163577Y0075363D01*
X0164688Y0074251D01*
X0166140Y0073650D01*
X0167711Y0073650D01*
X0169163Y0074251D01*
X0170274Y0075363D01*
X0170876Y0076814D01*
X0170876Y0078386D01*
X0170274Y0079837D01*
X0169163Y0080949D01*
X0168435Y0081250D01*
X0175416Y0081250D01*
X0174688Y0080949D01*
X0173577Y0079837D01*
X0172976Y0078386D01*
X0172976Y0076814D01*
X0173577Y0075363D01*
X0174688Y0074251D01*
X0176140Y0073650D01*
X0177711Y0073650D01*
X0179163Y0074251D01*
X0180274Y0075363D01*
X0180876Y0076814D01*
X0180876Y0078386D01*
X0180274Y0079837D01*
X0179163Y0080949D01*
X0178435Y0081250D01*
X0185416Y0081250D01*
X0184688Y0080949D01*
X0183577Y0079837D01*
X0182976Y0078386D01*
X0182976Y0076814D01*
X0183577Y0075363D01*
X0184688Y0074251D01*
X0186140Y0073650D01*
X0187711Y0073650D01*
X0189163Y0074251D01*
X0190274Y0075363D01*
X0190876Y0076814D01*
X0190876Y0078386D01*
X0190274Y0079837D01*
X0189163Y0080949D01*
X0188435Y0081250D01*
X0195416Y0081250D01*
X0194688Y0080949D01*
X0193577Y0079837D01*
X0192976Y0078386D01*
X0192976Y0076814D01*
X0193577Y0075363D01*
X0194688Y0074251D01*
X0196140Y0073650D01*
X0197711Y0073650D01*
X0199163Y0074251D01*
X0200274Y0075363D01*
X0200876Y0076814D01*
X0200876Y0078386D01*
X0200274Y0079837D01*
X0199163Y0080949D01*
X0198435Y0081250D01*
X0205416Y0081250D01*
X0204688Y0080949D01*
X0203577Y0079837D01*
X0202976Y0078386D01*
X0202976Y0076814D01*
X0203577Y0075363D01*
X0204688Y0074251D01*
X0206140Y0073650D01*
X0207711Y0073650D01*
X0209163Y0074251D01*
X0210274Y0075363D01*
X0210876Y0076814D01*
X0210876Y0078386D01*
X0210274Y0079837D01*
X0209163Y0080949D01*
X0208435Y0081250D01*
X0215416Y0081250D01*
X0214688Y0080949D01*
X0213577Y0079837D01*
X0212976Y0078386D01*
X0212976Y0076814D01*
X0213577Y0075363D01*
X0214688Y0074251D01*
X0216140Y0073650D01*
X0217711Y0073650D01*
X0219163Y0074251D01*
X0220274Y0075363D01*
X0220876Y0076814D01*
X0220876Y0078386D01*
X0220274Y0079837D01*
X0219163Y0080949D01*
X0218435Y0081250D01*
X0225416Y0081250D01*
X0224688Y0080949D01*
X0223577Y0079837D01*
X0222976Y0078386D01*
X0222976Y0076814D01*
X0223577Y0075363D01*
X0224688Y0074251D01*
X0226140Y0073650D01*
X0227711Y0073650D01*
X0229163Y0074251D01*
X0230274Y0075363D01*
X0230876Y0076814D01*
X0230876Y0078386D01*
X0230274Y0079837D01*
X0229163Y0080949D01*
X0228435Y0081250D01*
X0235416Y0081250D01*
X0234688Y0080949D01*
X0233577Y0079837D01*
X0232976Y0078386D01*
X0232976Y0076814D01*
X0233577Y0075363D01*
X0234688Y0074251D01*
X0236140Y0073650D01*
X0237711Y0073650D01*
X0239163Y0074251D01*
X0240274Y0075363D01*
X0240876Y0076814D01*
X0240876Y0078386D01*
X0240274Y0079837D01*
X0239163Y0080949D01*
X0238435Y0081250D01*
X0245416Y0081250D01*
X0244688Y0080949D01*
X0243577Y0079837D01*
X0242976Y0078386D01*
X0242976Y0076814D01*
X0243577Y0075363D01*
X0244688Y0074251D01*
X0246140Y0073650D01*
X0247711Y0073650D01*
X0249163Y0074251D01*
X0250274Y0075363D01*
X0250876Y0076814D01*
X0250876Y0078386D01*
X0250274Y0079837D01*
X0249163Y0080949D01*
X0248435Y0081250D01*
X0255416Y0081250D01*
X0254688Y0080949D01*
X0253577Y0079837D01*
X0252976Y0078386D01*
X0252976Y0076814D01*
X0253577Y0075363D01*
X0254688Y0074251D01*
X0256140Y0073650D01*
X0257711Y0073650D01*
X0259163Y0074251D01*
X0260274Y0075363D01*
X0260876Y0076814D01*
X0260876Y0078386D01*
X0260274Y0079837D01*
X0259163Y0080949D01*
X0258435Y0081250D01*
X0265416Y0081250D01*
X0264688Y0080949D01*
X0263577Y0079837D01*
X0262976Y0078386D01*
X0262976Y0076814D01*
X0263577Y0075363D01*
X0264688Y0074251D01*
X0266140Y0073650D01*
X0267711Y0073650D01*
X0269163Y0074251D01*
X0270274Y0075363D01*
X0270876Y0076814D01*
X0270876Y0078386D01*
X0270274Y0079837D01*
X0269163Y0080949D01*
X0268435Y0081250D01*
X0275416Y0081250D01*
X0274688Y0080949D01*
X0273577Y0079837D01*
X0272976Y0078386D01*
X0272976Y0076814D01*
X0273577Y0075363D01*
X0274688Y0074251D01*
X0276140Y0073650D01*
X0277711Y0073650D01*
X0279163Y0074251D01*
X0280274Y0075363D01*
X0280876Y0076814D01*
X0280876Y0078386D01*
X0280274Y0079837D01*
X0279163Y0080949D01*
X0278435Y0081250D01*
X0285416Y0081250D01*
X0284688Y0080949D01*
X0283577Y0079837D01*
X0282976Y0078386D01*
X0282976Y0076814D01*
X0283577Y0075363D01*
X0284688Y0074251D01*
X0286140Y0073650D01*
X0287711Y0073650D01*
X0289163Y0074251D01*
X0290274Y0075363D01*
X0290876Y0076814D01*
X0290876Y0078386D01*
X0290274Y0079837D01*
X0289163Y0080949D01*
X0288435Y0081250D01*
X0295416Y0081250D01*
X0294688Y0080949D01*
X0293577Y0079837D01*
X0292976Y0078386D01*
X0292976Y0076814D01*
X0293178Y0076327D01*
X0288601Y0071750D01*
X0267001Y0071750D01*
X0255401Y0060150D01*
X0254376Y0059125D01*
X0254376Y0052291D01*
X0254176Y0052091D01*
X0254176Y0050309D01*
X0254576Y0049909D01*
X0254576Y0049550D01*
X0241476Y0049550D01*
X0241476Y0054725D01*
X0231276Y0064925D01*
X0231276Y0065491D01*
X0230016Y0066750D01*
X0228235Y0066750D01*
X0227835Y0066350D01*
X0197601Y0066350D01*
X0197151Y0065900D01*
X0162300Y0065900D01*
X0161450Y0066750D01*
X0159669Y0066750D01*
X0158819Y0065900D01*
X0128064Y0065900D01*
X0123226Y0070738D01*
X0122464Y0071500D01*
X0104137Y0071500D01*
X0103237Y0072400D01*
X0101414Y0072400D01*
X0100564Y0071550D01*
X0096366Y0071550D01*
X0096316Y0071500D01*
X0088987Y0071500D01*
X0088064Y0070576D02*
X0082718Y0070576D01*
X0082698Y0070454D02*
X0082819Y0071215D01*
X0082819Y0071250D01*
X0078276Y0071250D01*
X0078276Y0071950D01*
X0082819Y0071950D01*
X0082819Y0071985D01*
X0082698Y0072746D01*
X0082460Y0073478D01*
X0082111Y0074165D01*
X0081658Y0074788D01*
X0081113Y0075332D01*
X0080490Y0075785D01*
X0079804Y0076135D01*
X0079071Y0076373D01*
X0078311Y0076493D01*
X0078276Y0076493D01*
X0078276Y0071950D01*
X0077576Y0071950D01*
X0077576Y0076493D01*
X0077540Y0076493D01*
X0076780Y0076373D01*
X0076047Y0076135D01*
X0075361Y0075785D01*
X0074738Y0075332D01*
X0074193Y0074788D01*
X0073740Y0074165D01*
X0073391Y0073478D01*
X0073153Y0072746D01*
X0073032Y0071985D01*
X0073032Y0071950D01*
X0077576Y0071950D01*
X0077576Y0071250D01*
X0078276Y0071250D01*
X0078276Y0066707D01*
X0078311Y0066707D01*
X0079071Y0066827D01*
X0079804Y0067065D01*
X0080490Y0067415D01*
X0081113Y0067868D01*
X0081658Y0068412D01*
X0082111Y0069035D01*
X0082460Y0069722D01*
X0082698Y0070454D01*
X0082511Y0069878D02*
X0087365Y0069878D01*
X0086667Y0069179D02*
X0082184Y0069179D01*
X0081708Y0068481D02*
X0085968Y0068481D01*
X0085270Y0067782D02*
X0080996Y0067782D01*
X0079841Y0067084D02*
X0084571Y0067084D01*
X0083872Y0066385D02*
X0030979Y0066385D01*
X0031677Y0065687D02*
X0083174Y0065687D01*
X0085454Y0064290D02*
X0112904Y0064290D01*
X0112894Y0064270D02*
X0112683Y0063619D01*
X0112577Y0062950D01*
X0116576Y0062950D01*
X0116576Y0066949D01*
X0115907Y0066843D01*
X0115256Y0066631D01*
X0114646Y0066320D01*
X0114092Y0065918D01*
X0113608Y0065434D01*
X0113205Y0064880D01*
X0112894Y0064270D01*
X0112678Y0063591D02*
X0084755Y0063591D01*
X0084057Y0062893D02*
X0116576Y0062893D01*
X0116576Y0062950D02*
X0116576Y0062250D01*
X0117276Y0062250D01*
X0117276Y0062950D01*
X0121274Y0062950D01*
X0121168Y0063619D01*
X0120957Y0064270D01*
X0120646Y0064880D01*
X0120244Y0065434D01*
X0119759Y0065918D01*
X0119205Y0066320D01*
X0118595Y0066631D01*
X0117944Y0066843D01*
X0117276Y0066949D01*
X0117276Y0062950D01*
X0116576Y0062950D01*
X0116576Y0063591D02*
X0117276Y0063591D01*
X0117276Y0062893D02*
X0159226Y0062893D01*
X0161893Y0062893D02*
X0196176Y0062893D01*
X0196291Y0062194D02*
X0140772Y0062194D01*
X0140616Y0062350D02*
X0141876Y0061091D01*
X0141876Y0059309D01*
X0140616Y0058050D01*
X0138835Y0058050D01*
X0137576Y0059309D01*
X0137576Y0061091D01*
X0138835Y0062350D01*
X0140616Y0062350D01*
X0141470Y0061496D02*
X0196989Y0061496D01*
X0199662Y0061496D02*
X0229755Y0061496D01*
X0229056Y0062194D02*
X0200360Y0062194D01*
X0198326Y0064600D02*
X0160560Y0064600D01*
X0127526Y0064600D01*
X0121926Y0070200D01*
X0102326Y0070200D01*
X0103663Y0071973D02*
X0288824Y0071973D01*
X0289523Y0072672D02*
X0082710Y0072672D01*
X0082819Y0071973D02*
X0100988Y0071973D01*
X0096926Y0070200D02*
X0089526Y0070200D01*
X0083326Y0064000D01*
X0070065Y0064000D01*
X0070065Y0037261D01*
X0070126Y0037200D01*
X0072276Y0037048D02*
X0079833Y0037048D01*
X0079135Y0036349D02*
X0072276Y0036349D01*
X0071617Y0035651D02*
X0078436Y0035651D01*
X0077738Y0034952D02*
X0066626Y0034952D01*
X0066626Y0034254D02*
X0075823Y0034254D01*
X0074865Y0033555D02*
X0066626Y0033555D01*
X0067107Y0032857D02*
X0074167Y0032857D01*
X0073848Y0032158D02*
X0067806Y0032158D01*
X0068504Y0031460D02*
X0073558Y0031460D01*
X0073432Y0030761D02*
X0069203Y0030761D01*
X0069901Y0030063D02*
X0073432Y0030063D01*
X0073434Y0029364D02*
X0070600Y0029364D01*
X0071298Y0028666D02*
X0073723Y0028666D01*
X0074012Y0027967D02*
X0071997Y0027967D01*
X0072695Y0027269D02*
X0074564Y0027269D01*
X0075262Y0026570D02*
X0073394Y0026570D01*
X0074092Y0025872D02*
X0076782Y0025872D01*
X0079069Y0025872D02*
X0085613Y0025872D01*
X0086035Y0025450D02*
X0087816Y0025450D01*
X0089026Y0026659D01*
X0090235Y0025450D01*
X0092016Y0025450D01*
X0093276Y0026709D01*
X0093276Y0028491D01*
X0092016Y0029750D01*
X0090235Y0029750D01*
X0089026Y0028541D01*
X0087816Y0029750D01*
X0086035Y0029750D01*
X0084776Y0028491D01*
X0084776Y0026709D01*
X0086035Y0025450D01*
X0084915Y0026570D02*
X0080589Y0026570D01*
X0081287Y0027269D02*
X0084776Y0027269D01*
X0084776Y0027967D02*
X0081839Y0027967D01*
X0082128Y0028666D02*
X0084951Y0028666D01*
X0085649Y0029364D02*
X0082417Y0029364D01*
X0082606Y0030063D02*
X0113877Y0030063D01*
X0114575Y0029364D02*
X0092402Y0029364D01*
X0093100Y0028666D02*
X0115981Y0028666D01*
X0116679Y0027967D02*
X0093276Y0027967D01*
X0093276Y0027269D02*
X0117378Y0027269D01*
X0118076Y0026570D02*
X0093136Y0026570D01*
X0092438Y0025872D02*
X0118775Y0025872D01*
X0105054Y0021100D02*
X0104688Y0020949D01*
X0103577Y0019837D01*
X0102976Y0018386D01*
X0102976Y0016814D01*
X0103577Y0015362D01*
X0104688Y0014251D01*
X0105416Y0013950D01*
X0099302Y0013950D01*
X0099759Y0014282D01*
X0100244Y0014766D01*
X0100646Y0015320D01*
X0100957Y0015930D01*
X0101168Y0016581D01*
X0101274Y0017250D01*
X0097276Y0017250D01*
X0097276Y0017950D01*
X0101274Y0017950D01*
X0101168Y0018619D01*
X0100957Y0019270D01*
X0100646Y0019880D01*
X0100244Y0020434D01*
X0099759Y0020918D01*
X0099509Y0021100D01*
X0105054Y0021100D01*
X0104769Y0020982D02*
X0099671Y0020982D01*
X0100353Y0020284D02*
X0104023Y0020284D01*
X0103472Y0019585D02*
X0100796Y0019585D01*
X0101081Y0018887D02*
X0103183Y0018887D01*
X0102976Y0018188D02*
X0101237Y0018188D01*
X0101202Y0016791D02*
X0102985Y0016791D01*
X0102976Y0017490D02*
X0097276Y0017490D01*
X0096576Y0017490D02*
X0090876Y0017490D01*
X0090876Y0016814D02*
X0090876Y0018386D01*
X0090274Y0019837D01*
X0089163Y0020949D01*
X0088798Y0021100D01*
X0094342Y0021100D01*
X0094092Y0020918D01*
X0093608Y0020434D01*
X0093205Y0019880D01*
X0092894Y0019270D01*
X0092683Y0018619D01*
X0092577Y0017950D01*
X0096576Y0017950D01*
X0096576Y0017250D01*
X0092577Y0017250D01*
X0092683Y0016581D01*
X0092894Y0015930D01*
X0093205Y0015320D01*
X0093608Y0014766D01*
X0094092Y0014282D01*
X0094549Y0013950D01*
X0088435Y0013950D01*
X0089163Y0014251D01*
X0090274Y0015362D01*
X0090876Y0016814D01*
X0090866Y0016791D02*
X0092649Y0016791D01*
X0092842Y0016093D02*
X0090577Y0016093D01*
X0090287Y0015394D02*
X0093167Y0015394D01*
X0093678Y0014696D02*
X0089607Y0014696D01*
X0088549Y0013997D02*
X0094484Y0013997D01*
X0099367Y0013997D02*
X0105302Y0013997D01*
X0104244Y0014696D02*
X0100173Y0014696D01*
X0100684Y0015394D02*
X0103564Y0015394D01*
X0103275Y0016093D02*
X0101010Y0016093D01*
X0092615Y0018188D02*
X0090876Y0018188D01*
X0090668Y0018887D02*
X0092770Y0018887D01*
X0093055Y0019585D02*
X0090379Y0019585D01*
X0089828Y0020284D02*
X0093498Y0020284D01*
X0094180Y0020982D02*
X0089082Y0020982D01*
X0089813Y0025872D02*
X0088238Y0025872D01*
X0088936Y0026570D02*
X0089115Y0026570D01*
X0089151Y0028666D02*
X0088900Y0028666D01*
X0088202Y0029364D02*
X0089849Y0029364D01*
X0074126Y0024000D02*
X0065326Y0032800D01*
X0065326Y0037400D01*
X0062126Y0040600D01*
X0059326Y0040600D01*
X0054926Y0036200D01*
X0053431Y0037746D02*
X0018276Y0037746D01*
X0018276Y0037048D02*
X0052776Y0037048D01*
X0052776Y0036349D02*
X0018276Y0036349D01*
X0018276Y0035651D02*
X0052776Y0035651D01*
X0053133Y0034952D02*
X0018276Y0034952D01*
X0018276Y0034254D02*
X0053831Y0034254D01*
X0056020Y0034254D02*
X0059431Y0034254D01*
X0059626Y0033555D02*
X0018276Y0033555D01*
X0018276Y0032857D02*
X0059830Y0032857D01*
X0060529Y0032158D02*
X0018276Y0032158D01*
X0018276Y0031460D02*
X0061227Y0031460D01*
X0061926Y0030761D02*
X0018276Y0030761D01*
X0018276Y0030063D02*
X0062624Y0030063D01*
X0063323Y0029364D02*
X0018276Y0029364D01*
X0018276Y0028666D02*
X0064021Y0028666D01*
X0064720Y0027967D02*
X0018276Y0027967D01*
X0018276Y0027269D02*
X0065418Y0027269D01*
X0066117Y0026570D02*
X0018276Y0026570D01*
X0018276Y0025872D02*
X0066815Y0025872D01*
X0067514Y0025173D02*
X0018276Y0025173D01*
X0018276Y0024475D02*
X0068212Y0024475D01*
X0068911Y0023776D02*
X0018276Y0023776D01*
X0018276Y0023078D02*
X0069609Y0023078D01*
X0070308Y0022379D02*
X0018276Y0022379D01*
X0018276Y0021681D02*
X0071006Y0021681D01*
X0072126Y0022400D02*
X0060926Y0033600D01*
X0060926Y0035800D01*
X0063076Y0035651D02*
X0064026Y0035651D01*
X0064026Y0036349D02*
X0063076Y0036349D01*
X0062718Y0037048D02*
X0063839Y0037048D01*
X0063141Y0037746D02*
X0062020Y0037746D01*
X0062442Y0038445D02*
X0059009Y0038445D01*
X0059707Y0039143D02*
X0061744Y0039143D01*
X0059831Y0037746D02*
X0058310Y0037746D01*
X0057612Y0037048D02*
X0059133Y0037048D01*
X0058776Y0036349D02*
X0057076Y0036349D01*
X0057076Y0035651D02*
X0058776Y0035651D01*
X0058776Y0034952D02*
X0056719Y0034952D01*
X0062420Y0034254D02*
X0064026Y0034254D01*
X0064026Y0034952D02*
X0063076Y0034952D01*
X0062809Y0033555D02*
X0064026Y0033555D01*
X0064026Y0032857D02*
X0063507Y0032857D01*
X0066626Y0035651D02*
X0068634Y0035651D01*
X0067976Y0036349D02*
X0066626Y0036349D01*
X0066626Y0037048D02*
X0067976Y0037048D01*
X0067976Y0037746D02*
X0066626Y0037746D01*
X0066119Y0038445D02*
X0068330Y0038445D01*
X0068765Y0039143D02*
X0065421Y0039143D01*
X0064722Y0039842D02*
X0068765Y0039842D01*
X0068765Y0040540D02*
X0064024Y0040540D01*
X0063325Y0041239D02*
X0068765Y0041239D01*
X0068765Y0041937D02*
X0018276Y0041937D01*
X0018276Y0041239D02*
X0058126Y0041239D01*
X0057428Y0040540D02*
X0018276Y0040540D01*
X0018276Y0039842D02*
X0056729Y0039842D01*
X0056031Y0039143D02*
X0018276Y0039143D01*
X0018276Y0038445D02*
X0055332Y0038445D01*
X0068765Y0042636D02*
X0018276Y0042636D01*
X0018276Y0043334D02*
X0068765Y0043334D01*
X0068765Y0044033D02*
X0018276Y0044033D01*
X0018276Y0044732D02*
X0068765Y0044732D01*
X0068765Y0045430D02*
X0018276Y0045430D01*
X0018276Y0046129D02*
X0068765Y0046129D01*
X0068765Y0046827D02*
X0018276Y0046827D01*
X0018276Y0047526D02*
X0068765Y0047526D01*
X0068765Y0048224D02*
X0018276Y0048224D01*
X0018276Y0048923D02*
X0068765Y0048923D01*
X0068765Y0049621D02*
X0018276Y0049621D01*
X0018276Y0050320D02*
X0068765Y0050320D01*
X0068765Y0051018D02*
X0018276Y0051018D01*
X0018276Y0051717D02*
X0068765Y0051717D01*
X0068765Y0052415D02*
X0018276Y0052415D01*
X0018276Y0053114D02*
X0049771Y0053114D01*
X0050235Y0052650D02*
X0052016Y0052650D01*
X0053276Y0053909D01*
X0053276Y0055691D01*
X0052016Y0056950D01*
X0050235Y0056950D01*
X0048976Y0055691D01*
X0048976Y0053909D01*
X0050235Y0052650D01*
X0049073Y0053812D02*
X0018276Y0053812D01*
X0018276Y0054511D02*
X0048976Y0054511D01*
X0048976Y0055209D02*
X0018276Y0055209D01*
X0018276Y0055908D02*
X0049193Y0055908D01*
X0049891Y0056606D02*
X0018276Y0056606D01*
X0018276Y0057305D02*
X0068765Y0057305D01*
X0068765Y0058003D02*
X0018276Y0058003D01*
X0018276Y0058702D02*
X0068765Y0058702D01*
X0068765Y0059400D02*
X0018276Y0059400D01*
X0018276Y0060099D02*
X0068765Y0060099D01*
X0068765Y0060797D02*
X0018276Y0060797D01*
X0018276Y0061496D02*
X0068765Y0061496D01*
X0068765Y0062194D02*
X0018276Y0062194D01*
X0018276Y0062893D02*
X0030794Y0062893D01*
X0030096Y0063591D02*
X0018276Y0063591D01*
X0018276Y0064290D02*
X0029397Y0064290D01*
X0028699Y0064988D02*
X0018276Y0064988D01*
X0018276Y0065687D02*
X0028000Y0065687D01*
X0027302Y0066385D02*
X0018276Y0066385D01*
X0018276Y0067084D02*
X0026603Y0067084D01*
X0025905Y0067782D02*
X0021349Y0067782D01*
X0022047Y0068481D02*
X0024004Y0068481D01*
X0023306Y0069179D02*
X0022276Y0069179D01*
X0022276Y0069878D02*
X0022776Y0069878D01*
X0022776Y0070576D02*
X0022190Y0070576D01*
X0022776Y0071275D02*
X0021491Y0071275D01*
X0023259Y0071973D02*
X0018276Y0071973D01*
X0018276Y0071275D02*
X0018760Y0071275D01*
X0024926Y0070600D02*
X0031526Y0064000D01*
X0070065Y0064000D01*
X0071365Y0062194D02*
X0076743Y0062194D01*
X0077032Y0062314D02*
X0075380Y0061630D01*
X0074116Y0060366D01*
X0073432Y0058714D01*
X0073432Y0056927D01*
X0074116Y0055275D01*
X0075380Y0054011D01*
X0077032Y0053327D01*
X0078819Y0053327D01*
X0080471Y0054011D01*
X0081735Y0055275D01*
X0082419Y0056927D01*
X0082419Y0058714D01*
X0081735Y0060366D01*
X0080471Y0061630D01*
X0078819Y0062314D01*
X0077032Y0062314D01*
X0075246Y0061496D02*
X0071365Y0061496D01*
X0071365Y0060797D02*
X0074548Y0060797D01*
X0074006Y0060099D02*
X0071365Y0060099D01*
X0071365Y0059400D02*
X0073716Y0059400D01*
X0073432Y0058702D02*
X0071365Y0058702D01*
X0071365Y0058003D02*
X0073432Y0058003D01*
X0073432Y0057305D02*
X0071365Y0057305D01*
X0071365Y0056606D02*
X0073565Y0056606D01*
X0073854Y0055908D02*
X0071365Y0055908D01*
X0071365Y0055209D02*
X0074182Y0055209D01*
X0074881Y0054511D02*
X0071365Y0054511D01*
X0071365Y0053812D02*
X0075861Y0053812D01*
X0079990Y0053812D02*
X0097390Y0053812D01*
X0097621Y0054043D02*
X0095483Y0051905D01*
X0094326Y0049112D01*
X0094326Y0046088D01*
X0095483Y0043295D01*
X0097621Y0041157D01*
X0100414Y0040000D01*
X0103437Y0040000D01*
X0106231Y0041157D01*
X0108369Y0043295D01*
X0109526Y0046088D01*
X0109526Y0049112D01*
X0108369Y0051905D01*
X0106231Y0054043D01*
X0103437Y0055200D01*
X0100414Y0055200D01*
X0097621Y0054043D01*
X0098750Y0054511D02*
X0080970Y0054511D01*
X0081669Y0055209D02*
X0113949Y0055209D01*
X0113577Y0054837D02*
X0112976Y0053386D01*
X0112976Y0051814D01*
X0113577Y0050362D01*
X0114688Y0049251D01*
X0116140Y0048650D01*
X0117711Y0048650D01*
X0119163Y0049251D01*
X0120274Y0050362D01*
X0120876Y0051814D01*
X0120876Y0053386D01*
X0120274Y0054837D01*
X0119163Y0055949D01*
X0117711Y0056550D01*
X0116140Y0056550D01*
X0114688Y0055949D01*
X0113577Y0054837D01*
X0113442Y0054511D02*
X0105101Y0054511D01*
X0106461Y0053812D02*
X0113152Y0053812D01*
X0112976Y0053114D02*
X0107160Y0053114D01*
X0107858Y0052415D02*
X0112976Y0052415D01*
X0113016Y0051717D02*
X0108447Y0051717D01*
X0108736Y0051018D02*
X0113305Y0051018D01*
X0113620Y0050320D02*
X0109025Y0050320D01*
X0109315Y0049621D02*
X0114318Y0049621D01*
X0115482Y0048923D02*
X0109526Y0048923D01*
X0109526Y0048224D02*
X0187376Y0048224D01*
X0187376Y0048891D02*
X0187376Y0047109D01*
X0188635Y0045850D01*
X0190416Y0045850D01*
X0191676Y0047109D01*
X0191676Y0048891D01*
X0190416Y0050150D01*
X0188635Y0050150D01*
X0187376Y0048891D01*
X0187408Y0048923D02*
X0118369Y0048923D01*
X0119533Y0049621D02*
X0188106Y0049621D01*
X0190576Y0050509D02*
X0191835Y0049250D01*
X0193616Y0049250D01*
X0194876Y0050509D01*
X0194876Y0052291D01*
X0193616Y0053550D01*
X0191835Y0053550D01*
X0190576Y0052291D01*
X0190576Y0050509D01*
X0190765Y0050320D02*
X0120231Y0050320D01*
X0120546Y0051018D02*
X0190576Y0051018D01*
X0190576Y0051717D02*
X0120835Y0051717D01*
X0120876Y0052415D02*
X0190700Y0052415D01*
X0191399Y0053114D02*
X0120876Y0053114D01*
X0120699Y0053812D02*
X0195873Y0053812D01*
X0196235Y0053450D02*
X0198016Y0053450D01*
X0199276Y0054709D01*
X0199276Y0056491D01*
X0198016Y0057750D01*
X0196235Y0057750D01*
X0194976Y0056491D01*
X0194976Y0054709D01*
X0196235Y0053450D01*
X0195174Y0054511D02*
X0120410Y0054511D01*
X0119903Y0055209D02*
X0194976Y0055209D01*
X0194976Y0055908D02*
X0119204Y0055908D01*
X0117944Y0058357D02*
X0117276Y0058251D01*
X0117276Y0062250D01*
X0121274Y0062250D01*
X0121168Y0061581D01*
X0120957Y0060930D01*
X0120646Y0060320D01*
X0120244Y0059766D01*
X0119759Y0059282D01*
X0119205Y0058880D01*
X0118595Y0058569D01*
X0117944Y0058357D01*
X0117276Y0058702D02*
X0116576Y0058702D01*
X0116576Y0058251D02*
X0115907Y0058357D01*
X0115256Y0058569D01*
X0114646Y0058880D01*
X0114092Y0059282D01*
X0113608Y0059766D01*
X0113205Y0060320D01*
X0112894Y0060930D01*
X0112683Y0061581D01*
X0112577Y0062250D01*
X0116576Y0062250D01*
X0116576Y0058251D01*
X0116576Y0059400D02*
X0117276Y0059400D01*
X0117276Y0060099D02*
X0116576Y0060099D01*
X0116576Y0060797D02*
X0117276Y0060797D01*
X0117276Y0061496D02*
X0116576Y0061496D01*
X0116576Y0062194D02*
X0117276Y0062194D01*
X0120889Y0060797D02*
X0137576Y0060797D01*
X0137576Y0060099D02*
X0120485Y0060099D01*
X0119878Y0059400D02*
X0137576Y0059400D01*
X0138183Y0058702D02*
X0118857Y0058702D01*
X0114995Y0058702D02*
X0082419Y0058702D01*
X0082419Y0058003D02*
X0190376Y0058003D01*
X0190376Y0057309D02*
X0191635Y0056050D01*
X0193416Y0056050D01*
X0194676Y0057309D01*
X0194676Y0059091D01*
X0193416Y0060350D01*
X0191635Y0060350D01*
X0190376Y0059091D01*
X0190376Y0057309D01*
X0190380Y0057305D02*
X0082419Y0057305D01*
X0082286Y0056606D02*
X0191079Y0056606D01*
X0193972Y0056606D02*
X0195091Y0056606D01*
X0194671Y0057305D02*
X0195790Y0057305D01*
X0194676Y0058003D02*
X0209288Y0058003D01*
X0209635Y0058350D02*
X0208376Y0057091D01*
X0208376Y0055309D01*
X0209635Y0054050D01*
X0211416Y0054050D01*
X0212676Y0055309D01*
X0212676Y0056609D01*
X0213235Y0056050D01*
X0215016Y0056050D01*
X0216276Y0057309D01*
X0216276Y0059091D01*
X0215016Y0060350D01*
X0213235Y0060350D01*
X0211976Y0059091D01*
X0211976Y0057791D01*
X0211416Y0058350D01*
X0209635Y0058350D01*
X0208590Y0057305D02*
X0198461Y0057305D01*
X0199160Y0056606D02*
X0208376Y0056606D01*
X0208376Y0055908D02*
X0199276Y0055908D01*
X0199276Y0055209D02*
X0208476Y0055209D01*
X0209174Y0054511D02*
X0199077Y0054511D01*
X0198378Y0053812D02*
X0237439Y0053812D01*
X0237976Y0053114D02*
X0229852Y0053114D01*
X0229816Y0053150D02*
X0228035Y0053150D01*
X0226776Y0051891D01*
X0226776Y0050109D01*
X0228035Y0048850D01*
X0229816Y0048850D01*
X0231076Y0050109D01*
X0231076Y0051891D01*
X0229816Y0053150D01*
X0230551Y0052415D02*
X0237976Y0052415D01*
X0237976Y0051717D02*
X0231076Y0051717D01*
X0231076Y0051018D02*
X0237976Y0051018D01*
X0237976Y0050320D02*
X0231076Y0050320D01*
X0230587Y0049621D02*
X0237976Y0049621D01*
X0237808Y0048923D02*
X0232844Y0048923D01*
X0232416Y0049350D02*
X0230635Y0049350D01*
X0229376Y0048091D01*
X0229376Y0046309D01*
X0230635Y0045050D01*
X0232416Y0045050D01*
X0233676Y0046309D01*
X0233676Y0048091D01*
X0232416Y0049350D01*
X0233542Y0048224D02*
X0237376Y0048224D01*
X0237376Y0047526D02*
X0233676Y0047526D01*
X0233676Y0046827D02*
X0237376Y0046827D01*
X0237956Y0046129D02*
X0233495Y0046129D01*
X0232796Y0045430D02*
X0238226Y0045430D01*
X0238219Y0044732D02*
X0217235Y0044732D01*
X0217933Y0044033D02*
X0237520Y0044033D01*
X0236822Y0043334D02*
X0218476Y0043334D01*
X0218476Y0042636D02*
X0236123Y0042636D01*
X0235425Y0041937D02*
X0218476Y0041937D01*
X0218005Y0041239D02*
X0234726Y0041239D01*
X0234028Y0040540D02*
X0217307Y0040540D01*
X0215326Y0041600D02*
X0204726Y0041600D01*
X0199726Y0036600D01*
X0178126Y0036600D01*
X0174326Y0032800D01*
X0176476Y0032857D02*
X0190176Y0032857D01*
X0190176Y0033555D02*
X0176919Y0033555D01*
X0177618Y0034254D02*
X0190539Y0034254D01*
X0191237Y0034952D02*
X0178316Y0034952D01*
X0176037Y0036349D02*
X0167217Y0036349D01*
X0167276Y0036291D02*
X0166016Y0037550D01*
X0164235Y0037550D01*
X0162976Y0036291D01*
X0162976Y0034509D01*
X0164235Y0033250D01*
X0166016Y0033250D01*
X0167276Y0034509D01*
X0167276Y0036291D01*
X0167276Y0035651D02*
X0175338Y0035651D01*
X0174639Y0034952D02*
X0167276Y0034952D01*
X0167020Y0034254D02*
X0172739Y0034254D01*
X0172176Y0033555D02*
X0166321Y0033555D01*
X0163930Y0033555D02*
X0146426Y0033555D01*
X0146426Y0032857D02*
X0172176Y0032857D01*
X0172176Y0032158D02*
X0146426Y0032158D01*
X0146426Y0031460D02*
X0172625Y0031460D01*
X0176026Y0031460D02*
X0190825Y0031460D01*
X0190176Y0032158D02*
X0176476Y0032158D01*
X0163231Y0034254D02*
X0146426Y0034254D01*
X0146426Y0034952D02*
X0162976Y0034952D01*
X0162976Y0035651D02*
X0146426Y0035651D01*
X0146426Y0036349D02*
X0163034Y0036349D01*
X0163733Y0037048D02*
X0146426Y0037048D01*
X0146426Y0037746D02*
X0177434Y0037746D01*
X0176735Y0037048D02*
X0166518Y0037048D01*
X0151676Y0040509D02*
X0151676Y0042291D01*
X0150416Y0043550D01*
X0148635Y0043550D01*
X0147376Y0042291D01*
X0147376Y0040509D01*
X0148635Y0039250D01*
X0150416Y0039250D01*
X0151676Y0040509D01*
X0151676Y0040540D02*
X0189376Y0040540D01*
X0189376Y0040109D02*
X0190635Y0038850D01*
X0192416Y0038850D01*
X0193326Y0039759D01*
X0194235Y0038850D01*
X0196016Y0038850D01*
X0197276Y0040109D01*
X0197276Y0041891D01*
X0196016Y0043150D01*
X0194235Y0043150D01*
X0193326Y0042241D01*
X0192416Y0043150D01*
X0190635Y0043150D01*
X0189376Y0041891D01*
X0189376Y0040109D01*
X0189643Y0039842D02*
X0151008Y0039842D01*
X0151676Y0041239D02*
X0189376Y0041239D01*
X0189423Y0041937D02*
X0151676Y0041937D01*
X0151330Y0042636D02*
X0190121Y0042636D01*
X0192930Y0042636D02*
X0193721Y0042636D01*
X0196530Y0042636D02*
X0203923Y0042636D01*
X0203225Y0041937D02*
X0197229Y0041937D01*
X0197276Y0041239D02*
X0202526Y0041239D01*
X0201828Y0040540D02*
X0197276Y0040540D01*
X0197008Y0039842D02*
X0201129Y0039842D01*
X0200431Y0039143D02*
X0196310Y0039143D01*
X0193942Y0039143D02*
X0192710Y0039143D01*
X0190342Y0039143D02*
X0146710Y0039143D01*
X0146426Y0038445D02*
X0199732Y0038445D01*
X0202012Y0037048D02*
X0211976Y0037048D01*
X0211976Y0036709D02*
X0213235Y0035450D01*
X0215016Y0035450D01*
X0216276Y0036709D01*
X0216276Y0038491D01*
X0215016Y0039750D01*
X0213235Y0039750D01*
X0211976Y0038491D01*
X0211976Y0036709D01*
X0212336Y0036349D02*
X0201313Y0036349D01*
X0200615Y0035651D02*
X0213034Y0035651D01*
X0215217Y0035651D02*
X0229138Y0035651D01*
X0229837Y0036349D02*
X0215916Y0036349D01*
X0216276Y0037048D02*
X0230535Y0037048D01*
X0231234Y0037746D02*
X0216276Y0037746D01*
X0216276Y0038445D02*
X0231932Y0038445D01*
X0232631Y0039143D02*
X0215623Y0039143D01*
X0212628Y0039143D02*
X0204107Y0039143D01*
X0203409Y0038445D02*
X0211976Y0038445D01*
X0211976Y0037746D02*
X0202710Y0037746D01*
X0204806Y0039842D02*
X0233329Y0039842D01*
X0235609Y0038445D02*
X0240440Y0038445D01*
X0240635Y0038250D02*
X0241335Y0038250D01*
X0240576Y0037491D01*
X0240576Y0035709D01*
X0241835Y0034450D01*
X0243616Y0034450D01*
X0244876Y0035709D01*
X0244876Y0037491D01*
X0243616Y0038750D01*
X0242916Y0038750D01*
X0243676Y0039509D01*
X0243676Y0041291D01*
X0242416Y0042550D01*
X0240635Y0042550D01*
X0239376Y0041291D01*
X0239376Y0039509D01*
X0240635Y0038250D01*
X0240831Y0037746D02*
X0234910Y0037746D01*
X0234212Y0037048D02*
X0240576Y0037048D01*
X0240576Y0036349D02*
X0233513Y0036349D01*
X0232815Y0035651D02*
X0240634Y0035651D01*
X0241333Y0034952D02*
X0232116Y0034952D01*
X0231418Y0034254D02*
X0266376Y0034254D01*
X0266376Y0034952D02*
X0244119Y0034952D01*
X0244817Y0035651D02*
X0266936Y0035651D01*
X0266376Y0035091D02*
X0266376Y0033309D01*
X0267635Y0032050D01*
X0269416Y0032050D01*
X0270676Y0033309D01*
X0270676Y0035091D01*
X0269416Y0036350D01*
X0267635Y0036350D01*
X0266376Y0035091D01*
X0266376Y0033555D02*
X0230719Y0033555D01*
X0230021Y0032857D02*
X0266828Y0032857D01*
X0267527Y0032158D02*
X0229322Y0032158D01*
X0228864Y0031700D02*
X0240064Y0042900D01*
X0240826Y0043662D01*
X0240826Y0045859D01*
X0241016Y0046050D01*
X0255601Y0046050D01*
X0259776Y0041875D01*
X0260801Y0040850D01*
X0271735Y0040850D01*
X0271176Y0040291D01*
X0271176Y0038509D01*
X0271985Y0037700D01*
X0271176Y0036891D01*
X0271176Y0035109D01*
X0272435Y0033850D01*
X0274216Y0033850D01*
X0275476Y0035109D01*
X0275476Y0036891D01*
X0274666Y0037700D01*
X0275476Y0038509D01*
X0275476Y0040291D01*
X0274916Y0040850D01*
X0281001Y0040850D01*
X0284976Y0036875D01*
X0284976Y0036309D01*
X0286235Y0035050D01*
X0288016Y0035050D01*
X0289276Y0036309D01*
X0289276Y0038091D01*
X0288016Y0039350D01*
X0287450Y0039350D01*
X0282450Y0044350D01*
X0262250Y0044350D01*
X0258076Y0048525D01*
X0258076Y0049909D01*
X0258476Y0050309D01*
X0258476Y0052091D01*
X0257876Y0052691D01*
X0257876Y0057675D01*
X0268450Y0068250D01*
X0271935Y0068250D01*
X0271176Y0067491D01*
X0271176Y0065709D01*
X0272435Y0064450D01*
X0274216Y0064450D01*
X0275476Y0065709D01*
X0275476Y0067491D01*
X0274716Y0068250D01*
X0290050Y0068250D01*
X0291076Y0069275D01*
X0295652Y0073852D01*
X0296140Y0073650D01*
X0297711Y0073650D01*
X0299163Y0074251D01*
X0300274Y0075363D01*
X0300876Y0076814D01*
X0300876Y0078386D01*
X0300274Y0079837D01*
X0299163Y0080949D01*
X0298435Y0081250D01*
X0304549Y0081250D01*
X0304092Y0080918D01*
X0303608Y0080434D01*
X0303205Y0079880D01*
X0302894Y0079270D01*
X0302683Y0078619D01*
X0302577Y0077950D01*
X0306576Y0077950D01*
X0306576Y0077250D01*
X0307276Y0077250D01*
X0307276Y0077950D01*
X0311274Y0077950D01*
X0311168Y0078619D01*
X0310957Y0079270D01*
X0310646Y0079880D01*
X0310244Y0080434D01*
X0309759Y0080918D01*
X0309302Y0081250D01*
X0315416Y0081250D01*
X0314688Y0080949D01*
X0313577Y0079837D01*
X0312976Y0078386D01*
X0312976Y0076814D01*
X0313577Y0075363D01*
X0314688Y0074251D01*
X0315176Y0074049D01*
X0315176Y0072325D01*
X0309601Y0066750D01*
X0281035Y0066750D01*
X0279776Y0065491D01*
X0279776Y0063709D01*
X0281035Y0062450D01*
X0309035Y0062450D01*
X0318476Y0053009D01*
X0318476Y0031050D01*
X0284416Y0031050D01*
X0285076Y0031709D01*
X0285076Y0033491D01*
X0283816Y0034750D01*
X0282035Y0034750D01*
X0280776Y0033491D01*
X0280776Y0031709D01*
X0281435Y0031050D01*
X0193416Y0031050D01*
X0194066Y0031700D01*
X0228864Y0031700D01*
X0228326Y0033000D02*
X0239526Y0044200D01*
X0239526Y0047600D01*
X0241476Y0049621D02*
X0254576Y0049621D01*
X0254176Y0050320D02*
X0241476Y0050320D01*
X0241476Y0051018D02*
X0254176Y0051018D01*
X0254176Y0051717D02*
X0241476Y0051717D01*
X0241476Y0052415D02*
X0254376Y0052415D01*
X0254376Y0053114D02*
X0241476Y0053114D01*
X0241476Y0053812D02*
X0254376Y0053812D01*
X0254376Y0054511D02*
X0241476Y0054511D01*
X0240991Y0055209D02*
X0254376Y0055209D01*
X0254376Y0055908D02*
X0240293Y0055908D01*
X0239594Y0056606D02*
X0254376Y0056606D01*
X0254376Y0057305D02*
X0238896Y0057305D01*
X0238197Y0058003D02*
X0254376Y0058003D01*
X0254376Y0058702D02*
X0237499Y0058702D01*
X0236800Y0059400D02*
X0254651Y0059400D01*
X0255349Y0060099D02*
X0236102Y0060099D01*
X0235403Y0060797D02*
X0256048Y0060797D01*
X0256747Y0061496D02*
X0234705Y0061496D01*
X0234006Y0062194D02*
X0257445Y0062194D01*
X0258144Y0062893D02*
X0247659Y0062893D01*
X0247416Y0062650D02*
X0248676Y0063909D01*
X0248676Y0065691D01*
X0247416Y0066950D01*
X0245635Y0066950D01*
X0244476Y0065791D01*
X0244476Y0067291D01*
X0243216Y0068550D01*
X0241435Y0068550D01*
X0240176Y0067291D01*
X0240176Y0065509D01*
X0241435Y0064250D01*
X0243216Y0064250D01*
X0244376Y0065409D01*
X0244376Y0063909D01*
X0245635Y0062650D01*
X0247416Y0062650D01*
X0248357Y0063591D02*
X0258842Y0063591D01*
X0259541Y0064290D02*
X0248676Y0064290D01*
X0248676Y0064988D02*
X0260239Y0064988D01*
X0260938Y0065687D02*
X0248676Y0065687D01*
X0247981Y0066385D02*
X0261636Y0066385D01*
X0262335Y0067084D02*
X0244476Y0067084D01*
X0244476Y0066385D02*
X0245070Y0066385D01*
X0244376Y0064988D02*
X0243954Y0064988D01*
X0244376Y0064290D02*
X0243256Y0064290D01*
X0244694Y0063591D02*
X0232609Y0063591D01*
X0233308Y0062893D02*
X0245392Y0062893D01*
X0241395Y0064290D02*
X0238456Y0064290D01*
X0238416Y0064250D02*
X0239676Y0065509D01*
X0239676Y0067291D01*
X0238416Y0068550D01*
X0236635Y0068550D01*
X0235376Y0067291D01*
X0235376Y0065509D01*
X0236635Y0064250D01*
X0238416Y0064250D01*
X0239154Y0064988D02*
X0240697Y0064988D01*
X0240176Y0065687D02*
X0239676Y0065687D01*
X0239676Y0066385D02*
X0240176Y0066385D01*
X0240176Y0067084D02*
X0239676Y0067084D01*
X0239184Y0067782D02*
X0240667Y0067782D01*
X0241366Y0068481D02*
X0238485Y0068481D01*
X0236566Y0068481D02*
X0125483Y0068481D01*
X0124785Y0069179D02*
X0264430Y0069179D01*
X0263732Y0068481D02*
X0243285Y0068481D01*
X0243984Y0067782D02*
X0263033Y0067782D01*
X0265129Y0069878D02*
X0124086Y0069878D01*
X0123388Y0070576D02*
X0265827Y0070576D01*
X0266526Y0071275D02*
X0122689Y0071275D01*
X0123226Y0070738D02*
X0123226Y0070738D01*
X0121806Y0068481D02*
X0103718Y0068481D01*
X0100933Y0068481D02*
X0089645Y0068481D01*
X0088946Y0067782D02*
X0122505Y0067782D01*
X0123203Y0067084D02*
X0088248Y0067084D01*
X0087549Y0066385D02*
X0114773Y0066385D01*
X0113861Y0065687D02*
X0086851Y0065687D01*
X0086152Y0064988D02*
X0113284Y0064988D01*
X0116576Y0064988D02*
X0117276Y0064988D01*
X0117276Y0064290D02*
X0116576Y0064290D01*
X0116576Y0065687D02*
X0117276Y0065687D01*
X0117276Y0066385D02*
X0116576Y0066385D01*
X0119078Y0066385D02*
X0123902Y0066385D01*
X0124600Y0065687D02*
X0119991Y0065687D01*
X0120567Y0064988D02*
X0125299Y0064988D01*
X0125997Y0064290D02*
X0120947Y0064290D01*
X0121173Y0063591D02*
X0126696Y0063591D01*
X0127579Y0066385D02*
X0159304Y0066385D01*
X0161815Y0066385D02*
X0227870Y0066385D01*
X0230381Y0066385D02*
X0235376Y0066385D01*
X0235376Y0065687D02*
X0231079Y0065687D01*
X0231276Y0064988D02*
X0235897Y0064988D01*
X0236595Y0064290D02*
X0231911Y0064290D01*
X0235376Y0067084D02*
X0126880Y0067084D01*
X0126182Y0067782D02*
X0235867Y0067782D01*
X0235128Y0074069D02*
X0228723Y0074069D01*
X0229679Y0074768D02*
X0234172Y0074768D01*
X0233534Y0075466D02*
X0230317Y0075466D01*
X0230606Y0076165D02*
X0233245Y0076165D01*
X0232976Y0076863D02*
X0230876Y0076863D01*
X0230876Y0077562D02*
X0232976Y0077562D01*
X0232976Y0078260D02*
X0230876Y0078260D01*
X0230638Y0078959D02*
X0233213Y0078959D01*
X0233502Y0079657D02*
X0230349Y0079657D01*
X0229756Y0080356D02*
X0234095Y0080356D01*
X0234943Y0081054D02*
X0228908Y0081054D01*
X0224943Y0081054D02*
X0218908Y0081054D01*
X0219756Y0080356D02*
X0224095Y0080356D01*
X0223502Y0079657D02*
X0220349Y0079657D01*
X0220638Y0078959D02*
X0223213Y0078959D01*
X0222976Y0078260D02*
X0220876Y0078260D01*
X0220876Y0077562D02*
X0222976Y0077562D01*
X0222976Y0076863D02*
X0220876Y0076863D01*
X0220606Y0076165D02*
X0223245Y0076165D01*
X0223534Y0075466D02*
X0220317Y0075466D01*
X0219679Y0074768D02*
X0224172Y0074768D01*
X0225128Y0074069D02*
X0218723Y0074069D01*
X0215128Y0074069D02*
X0208723Y0074069D01*
X0209679Y0074768D02*
X0214172Y0074768D01*
X0213534Y0075466D02*
X0210317Y0075466D01*
X0210606Y0076165D02*
X0213245Y0076165D01*
X0212976Y0076863D02*
X0210876Y0076863D01*
X0210876Y0077562D02*
X0212976Y0077562D01*
X0212976Y0078260D02*
X0210876Y0078260D01*
X0210638Y0078959D02*
X0213213Y0078959D01*
X0213502Y0079657D02*
X0210349Y0079657D01*
X0209756Y0080356D02*
X0214095Y0080356D01*
X0214943Y0081054D02*
X0208908Y0081054D01*
X0204943Y0081054D02*
X0198908Y0081054D01*
X0199756Y0080356D02*
X0204095Y0080356D01*
X0203502Y0079657D02*
X0200349Y0079657D01*
X0200638Y0078959D02*
X0203213Y0078959D01*
X0202976Y0078260D02*
X0200876Y0078260D01*
X0200876Y0077562D02*
X0202976Y0077562D01*
X0202976Y0076863D02*
X0200876Y0076863D01*
X0200606Y0076165D02*
X0203245Y0076165D01*
X0203534Y0075466D02*
X0200317Y0075466D01*
X0199679Y0074768D02*
X0204172Y0074768D01*
X0205128Y0074069D02*
X0198723Y0074069D01*
X0195128Y0074069D02*
X0188723Y0074069D01*
X0189679Y0074768D02*
X0194172Y0074768D01*
X0193534Y0075466D02*
X0190317Y0075466D01*
X0190606Y0076165D02*
X0193245Y0076165D01*
X0192976Y0076863D02*
X0190876Y0076863D01*
X0190876Y0077562D02*
X0192976Y0077562D01*
X0192976Y0078260D02*
X0190876Y0078260D01*
X0190638Y0078959D02*
X0193213Y0078959D01*
X0193502Y0079657D02*
X0190349Y0079657D01*
X0189756Y0080356D02*
X0194095Y0080356D01*
X0194943Y0081054D02*
X0188908Y0081054D01*
X0184943Y0081054D02*
X0178908Y0081054D01*
X0179756Y0080356D02*
X0184095Y0080356D01*
X0183502Y0079657D02*
X0180349Y0079657D01*
X0180638Y0078959D02*
X0183213Y0078959D01*
X0182976Y0078260D02*
X0180876Y0078260D01*
X0180876Y0077562D02*
X0182976Y0077562D01*
X0182976Y0076863D02*
X0180876Y0076863D01*
X0180606Y0076165D02*
X0183245Y0076165D01*
X0183534Y0075466D02*
X0180317Y0075466D01*
X0179679Y0074768D02*
X0184172Y0074768D01*
X0185128Y0074069D02*
X0178723Y0074069D01*
X0175128Y0074069D02*
X0168723Y0074069D01*
X0169679Y0074768D02*
X0174172Y0074768D01*
X0173534Y0075466D02*
X0170317Y0075466D01*
X0170606Y0076165D02*
X0173245Y0076165D01*
X0172976Y0076863D02*
X0170876Y0076863D01*
X0170876Y0077562D02*
X0172976Y0077562D01*
X0172976Y0078260D02*
X0170876Y0078260D01*
X0170638Y0078959D02*
X0173213Y0078959D01*
X0173502Y0079657D02*
X0170349Y0079657D01*
X0169756Y0080356D02*
X0174095Y0080356D01*
X0174943Y0081054D02*
X0168908Y0081054D01*
X0164943Y0081054D02*
X0158908Y0081054D01*
X0159756Y0080356D02*
X0164095Y0080356D01*
X0163502Y0079657D02*
X0160349Y0079657D01*
X0160638Y0078959D02*
X0163213Y0078959D01*
X0162976Y0078260D02*
X0160876Y0078260D01*
X0160876Y0077562D02*
X0162976Y0077562D01*
X0162976Y0076863D02*
X0160876Y0076863D01*
X0160606Y0076165D02*
X0163245Y0076165D01*
X0163534Y0075466D02*
X0160317Y0075466D01*
X0159679Y0074768D02*
X0164172Y0074768D01*
X0165128Y0074069D02*
X0158723Y0074069D01*
X0155128Y0074069D02*
X0148723Y0074069D01*
X0149679Y0074768D02*
X0154172Y0074768D01*
X0153534Y0075466D02*
X0150317Y0075466D01*
X0150606Y0076165D02*
X0153245Y0076165D01*
X0152976Y0076863D02*
X0150876Y0076863D01*
X0150876Y0077562D02*
X0152976Y0077562D01*
X0152976Y0078260D02*
X0150876Y0078260D01*
X0150638Y0078959D02*
X0153213Y0078959D01*
X0153502Y0079657D02*
X0150349Y0079657D01*
X0149756Y0080356D02*
X0154095Y0080356D01*
X0154943Y0081054D02*
X0148908Y0081054D01*
X0144943Y0081054D02*
X0138908Y0081054D01*
X0139756Y0080356D02*
X0144095Y0080356D01*
X0143502Y0079657D02*
X0140349Y0079657D01*
X0140638Y0078959D02*
X0143213Y0078959D01*
X0142976Y0078260D02*
X0140876Y0078260D01*
X0140876Y0077562D02*
X0142976Y0077562D01*
X0142976Y0076863D02*
X0140876Y0076863D01*
X0140606Y0076165D02*
X0143245Y0076165D01*
X0143534Y0075466D02*
X0140317Y0075466D01*
X0139679Y0074768D02*
X0144172Y0074768D01*
X0145128Y0074069D02*
X0138723Y0074069D01*
X0135128Y0074069D02*
X0128723Y0074069D01*
X0129679Y0074768D02*
X0134172Y0074768D01*
X0133534Y0075466D02*
X0130317Y0075466D01*
X0130606Y0076165D02*
X0133245Y0076165D01*
X0132976Y0076863D02*
X0130876Y0076863D01*
X0130876Y0077562D02*
X0132976Y0077562D01*
X0132976Y0078260D02*
X0130876Y0078260D01*
X0130638Y0078959D02*
X0133213Y0078959D01*
X0133502Y0079657D02*
X0130349Y0079657D01*
X0129756Y0080356D02*
X0134095Y0080356D01*
X0134943Y0081054D02*
X0128908Y0081054D01*
X0124943Y0081054D02*
X0018276Y0081054D01*
X0018276Y0080356D02*
X0124095Y0080356D01*
X0123502Y0079657D02*
X0018276Y0079657D01*
X0018276Y0078959D02*
X0123213Y0078959D01*
X0122976Y0078260D02*
X0018276Y0078260D01*
X0018276Y0077562D02*
X0122976Y0077562D01*
X0122976Y0076863D02*
X0018276Y0076863D01*
X0018276Y0076165D02*
X0076139Y0076165D01*
X0074922Y0075466D02*
X0018276Y0075466D01*
X0018276Y0074768D02*
X0074178Y0074768D01*
X0073692Y0074069D02*
X0018276Y0074069D01*
X0018276Y0073370D02*
X0073356Y0073370D01*
X0073141Y0072672D02*
X0025894Y0072672D01*
X0026593Y0071973D02*
X0073032Y0071973D01*
X0073032Y0071250D02*
X0073032Y0071215D01*
X0073153Y0070454D01*
X0073391Y0069722D01*
X0073740Y0069035D01*
X0074193Y0068412D01*
X0074738Y0067868D01*
X0075361Y0067415D01*
X0076047Y0067065D01*
X0076780Y0066827D01*
X0077540Y0066707D01*
X0077576Y0066707D01*
X0077576Y0071250D01*
X0073032Y0071250D01*
X0073133Y0070576D02*
X0027076Y0070576D01*
X0027076Y0071275D02*
X0077576Y0071275D01*
X0077576Y0071973D02*
X0078276Y0071973D01*
X0078276Y0072672D02*
X0077576Y0072672D01*
X0077576Y0073370D02*
X0078276Y0073370D01*
X0078276Y0074069D02*
X0077576Y0074069D01*
X0077576Y0074768D02*
X0078276Y0074768D01*
X0078276Y0075466D02*
X0077576Y0075466D01*
X0077576Y0076165D02*
X0078276Y0076165D01*
X0079712Y0076165D02*
X0123245Y0076165D01*
X0123534Y0075466D02*
X0080929Y0075466D01*
X0081673Y0074768D02*
X0124172Y0074768D01*
X0125128Y0074069D02*
X0082159Y0074069D01*
X0082495Y0073370D02*
X0290221Y0073370D01*
X0290920Y0074069D02*
X0288723Y0074069D01*
X0289679Y0074768D02*
X0291618Y0074768D01*
X0292317Y0075466D02*
X0290317Y0075466D01*
X0290606Y0076165D02*
X0293015Y0076165D01*
X0292976Y0076863D02*
X0290876Y0076863D01*
X0290876Y0077562D02*
X0292976Y0077562D01*
X0292976Y0078260D02*
X0290876Y0078260D01*
X0290638Y0078959D02*
X0293213Y0078959D01*
X0293502Y0079657D02*
X0290349Y0079657D01*
X0289756Y0080356D02*
X0294095Y0080356D01*
X0294943Y0081054D02*
X0288908Y0081054D01*
X0284943Y0081054D02*
X0278908Y0081054D01*
X0279756Y0080356D02*
X0284095Y0080356D01*
X0283502Y0079657D02*
X0280349Y0079657D01*
X0280638Y0078959D02*
X0283213Y0078959D01*
X0282976Y0078260D02*
X0280876Y0078260D01*
X0280876Y0077562D02*
X0282976Y0077562D01*
X0282976Y0076863D02*
X0280876Y0076863D01*
X0280606Y0076165D02*
X0283245Y0076165D01*
X0283534Y0075466D02*
X0280317Y0075466D01*
X0279679Y0074768D02*
X0284172Y0074768D01*
X0285128Y0074069D02*
X0278723Y0074069D01*
X0275128Y0074069D02*
X0268723Y0074069D01*
X0269679Y0074768D02*
X0274172Y0074768D01*
X0273534Y0075466D02*
X0270317Y0075466D01*
X0270606Y0076165D02*
X0273245Y0076165D01*
X0272976Y0076863D02*
X0270876Y0076863D01*
X0270876Y0077562D02*
X0272976Y0077562D01*
X0272976Y0078260D02*
X0270876Y0078260D01*
X0270638Y0078959D02*
X0273213Y0078959D01*
X0273502Y0079657D02*
X0270349Y0079657D01*
X0269756Y0080356D02*
X0274095Y0080356D01*
X0274943Y0081054D02*
X0268908Y0081054D01*
X0264943Y0081054D02*
X0258908Y0081054D01*
X0259756Y0080356D02*
X0264095Y0080356D01*
X0263502Y0079657D02*
X0260349Y0079657D01*
X0260638Y0078959D02*
X0263213Y0078959D01*
X0262976Y0078260D02*
X0260876Y0078260D01*
X0260876Y0077562D02*
X0262976Y0077562D01*
X0262976Y0076863D02*
X0260876Y0076863D01*
X0260606Y0076165D02*
X0263245Y0076165D01*
X0263534Y0075466D02*
X0260317Y0075466D01*
X0259679Y0074768D02*
X0264172Y0074768D01*
X0265128Y0074069D02*
X0258723Y0074069D01*
X0255128Y0074069D02*
X0248723Y0074069D01*
X0249679Y0074768D02*
X0254172Y0074768D01*
X0253534Y0075466D02*
X0250317Y0075466D01*
X0250606Y0076165D02*
X0253245Y0076165D01*
X0252976Y0076863D02*
X0250876Y0076863D01*
X0250876Y0077562D02*
X0252976Y0077562D01*
X0252976Y0078260D02*
X0250876Y0078260D01*
X0250638Y0078959D02*
X0253213Y0078959D01*
X0253502Y0079657D02*
X0250349Y0079657D01*
X0249756Y0080356D02*
X0254095Y0080356D01*
X0254943Y0081054D02*
X0248908Y0081054D01*
X0244943Y0081054D02*
X0238908Y0081054D01*
X0239756Y0080356D02*
X0244095Y0080356D01*
X0243502Y0079657D02*
X0240349Y0079657D01*
X0240638Y0078959D02*
X0243213Y0078959D01*
X0242976Y0078260D02*
X0240876Y0078260D01*
X0240876Y0077562D02*
X0242976Y0077562D01*
X0242976Y0076863D02*
X0240876Y0076863D01*
X0240606Y0076165D02*
X0243245Y0076165D01*
X0243534Y0075466D02*
X0240317Y0075466D01*
X0239679Y0074768D02*
X0244172Y0074768D01*
X0245128Y0074069D02*
X0238723Y0074069D01*
X0265887Y0065687D02*
X0271198Y0065687D01*
X0271176Y0066385D02*
X0266586Y0066385D01*
X0267284Y0067084D02*
X0271176Y0067084D01*
X0271467Y0067782D02*
X0267983Y0067782D01*
X0275184Y0067782D02*
X0310633Y0067782D01*
X0309935Y0067084D02*
X0275476Y0067084D01*
X0275476Y0066385D02*
X0280670Y0066385D01*
X0279972Y0065687D02*
X0275453Y0065687D01*
X0274754Y0064988D02*
X0279776Y0064988D01*
X0279776Y0064290D02*
X0264490Y0064290D01*
X0263792Y0063591D02*
X0279894Y0063591D01*
X0280592Y0062893D02*
X0263093Y0062893D01*
X0262395Y0062194D02*
X0309291Y0062194D01*
X0309989Y0061496D02*
X0261696Y0061496D01*
X0260998Y0060797D02*
X0310688Y0060797D01*
X0311386Y0060099D02*
X0260299Y0060099D01*
X0259601Y0059400D02*
X0312085Y0059400D01*
X0312783Y0058702D02*
X0258902Y0058702D01*
X0258204Y0058003D02*
X0313482Y0058003D01*
X0314180Y0057305D02*
X0257876Y0057305D01*
X0257876Y0056606D02*
X0314879Y0056606D01*
X0315577Y0055908D02*
X0257876Y0055908D01*
X0257876Y0055209D02*
X0316276Y0055209D01*
X0316974Y0054511D02*
X0299801Y0054511D01*
X0300931Y0054043D02*
X0298137Y0055200D01*
X0295114Y0055200D01*
X0292321Y0054043D01*
X0290183Y0051905D01*
X0289026Y0049112D01*
X0289026Y0046088D01*
X0290183Y0043295D01*
X0292321Y0041157D01*
X0295114Y0040000D01*
X0298137Y0040000D01*
X0300931Y0041157D01*
X0303069Y0043295D01*
X0304226Y0046088D01*
X0304226Y0049112D01*
X0303069Y0051905D01*
X0300931Y0054043D01*
X0301161Y0053812D02*
X0317673Y0053812D01*
X0318371Y0053114D02*
X0301860Y0053114D01*
X0302558Y0052415D02*
X0318476Y0052415D01*
X0318476Y0051717D02*
X0303147Y0051717D01*
X0303436Y0051018D02*
X0318476Y0051018D01*
X0318476Y0050320D02*
X0303725Y0050320D01*
X0304015Y0049621D02*
X0318476Y0049621D01*
X0318476Y0048923D02*
X0304226Y0048923D01*
X0304226Y0048224D02*
X0318476Y0048224D01*
X0318476Y0047526D02*
X0304226Y0047526D01*
X0304226Y0046827D02*
X0318476Y0046827D01*
X0318476Y0046129D02*
X0304226Y0046129D01*
X0303953Y0045430D02*
X0318476Y0045430D01*
X0318476Y0044732D02*
X0303664Y0044732D01*
X0303374Y0044033D02*
X0318476Y0044033D01*
X0318476Y0043334D02*
X0303085Y0043334D01*
X0302410Y0042636D02*
X0318476Y0042636D01*
X0318476Y0041937D02*
X0301711Y0041937D01*
X0301013Y0041239D02*
X0318476Y0041239D01*
X0318476Y0040540D02*
X0299442Y0040540D01*
X0293809Y0040540D02*
X0286260Y0040540D01*
X0286959Y0039842D02*
X0318476Y0039842D01*
X0318476Y0039143D02*
X0288223Y0039143D01*
X0288921Y0038445D02*
X0318476Y0038445D01*
X0318476Y0037746D02*
X0289276Y0037746D01*
X0289276Y0037048D02*
X0318476Y0037048D01*
X0318476Y0036349D02*
X0289276Y0036349D01*
X0288617Y0035651D02*
X0318476Y0035651D01*
X0318476Y0034952D02*
X0275319Y0034952D01*
X0275476Y0035651D02*
X0285634Y0035651D01*
X0284976Y0036349D02*
X0275476Y0036349D01*
X0275318Y0037048D02*
X0284803Y0037048D01*
X0284104Y0037746D02*
X0274713Y0037746D01*
X0275411Y0038445D02*
X0283406Y0038445D01*
X0282707Y0039143D02*
X0275476Y0039143D01*
X0275476Y0039842D02*
X0282009Y0039842D01*
X0281310Y0040540D02*
X0275226Y0040540D01*
X0271426Y0040540D02*
X0243676Y0040540D01*
X0243676Y0039842D02*
X0271176Y0039842D01*
X0271176Y0039143D02*
X0243310Y0039143D01*
X0243921Y0038445D02*
X0271240Y0038445D01*
X0271939Y0037746D02*
X0244620Y0037746D01*
X0244876Y0037048D02*
X0271333Y0037048D01*
X0271176Y0036349D02*
X0269417Y0036349D01*
X0270115Y0035651D02*
X0271176Y0035651D01*
X0271333Y0034952D02*
X0270676Y0034952D01*
X0270676Y0034254D02*
X0272031Y0034254D01*
X0270676Y0033555D02*
X0280840Y0033555D01*
X0280776Y0032857D02*
X0270223Y0032857D01*
X0269524Y0032158D02*
X0280776Y0032158D01*
X0281025Y0031460D02*
X0193826Y0031460D01*
X0192326Y0033000D02*
X0228326Y0033000D01*
X0228439Y0034952D02*
X0193414Y0034952D01*
X0208126Y0028000D02*
X0208126Y0027600D01*
X0210526Y0024000D02*
X0074126Y0024000D01*
X0072126Y0022400D02*
X0202126Y0022400D01*
X0206926Y0017600D01*
X0210526Y0024000D02*
X0216926Y0017600D01*
X0220577Y0016093D02*
X0223275Y0016093D01*
X0222985Y0016791D02*
X0220866Y0016791D01*
X0220876Y0016814D02*
X0220876Y0018386D01*
X0220274Y0019837D01*
X0219163Y0020949D01*
X0217711Y0021550D01*
X0216140Y0021550D01*
X0215202Y0021162D01*
X0212214Y0024150D01*
X0315176Y0024150D01*
X0315176Y0021151D01*
X0314688Y0020949D01*
X0313577Y0019837D01*
X0312976Y0018386D01*
X0312976Y0016814D01*
X0313577Y0015362D01*
X0314688Y0014251D01*
X0315416Y0013950D01*
X0309302Y0013950D01*
X0309759Y0014282D01*
X0310244Y0014766D01*
X0310646Y0015320D01*
X0310957Y0015930D01*
X0311168Y0016581D01*
X0311274Y0017250D01*
X0307276Y0017250D01*
X0307276Y0017950D01*
X0311274Y0017950D01*
X0311168Y0018619D01*
X0310957Y0019270D01*
X0310646Y0019880D01*
X0310244Y0020434D01*
X0309759Y0020918D01*
X0309205Y0021320D01*
X0308595Y0021631D01*
X0307944Y0021843D01*
X0307276Y0021949D01*
X0307276Y0017950D01*
X0306576Y0017950D01*
X0306576Y0021949D01*
X0305907Y0021843D01*
X0305256Y0021631D01*
X0304646Y0021320D01*
X0304092Y0020918D01*
X0303608Y0020434D01*
X0303205Y0019880D01*
X0302894Y0019270D01*
X0302683Y0018619D01*
X0302577Y0017950D01*
X0306576Y0017950D01*
X0306576Y0017250D01*
X0302577Y0017250D01*
X0302683Y0016581D01*
X0302894Y0015930D01*
X0303205Y0015320D01*
X0303608Y0014766D01*
X0304092Y0014282D01*
X0304549Y0013950D01*
X0298435Y0013950D01*
X0299163Y0014251D01*
X0300274Y0015362D01*
X0300876Y0016814D01*
X0300876Y0018386D01*
X0300274Y0019837D01*
X0299163Y0020949D01*
X0297711Y0021550D01*
X0296140Y0021550D01*
X0294688Y0020949D01*
X0293577Y0019837D01*
X0292976Y0018386D01*
X0292976Y0016814D01*
X0293577Y0015362D01*
X0294688Y0014251D01*
X0295416Y0013950D01*
X0288435Y0013950D01*
X0289163Y0014251D01*
X0290274Y0015362D01*
X0290876Y0016814D01*
X0290876Y0018386D01*
X0290274Y0019837D01*
X0289163Y0020949D01*
X0287711Y0021550D01*
X0286140Y0021550D01*
X0284688Y0020949D01*
X0283577Y0019837D01*
X0282976Y0018386D01*
X0282976Y0016814D01*
X0283577Y0015362D01*
X0284688Y0014251D01*
X0285416Y0013950D01*
X0278435Y0013950D01*
X0279163Y0014251D01*
X0280274Y0015362D01*
X0280876Y0016814D01*
X0280876Y0018386D01*
X0280274Y0019837D01*
X0279163Y0020949D01*
X0277711Y0021550D01*
X0276140Y0021550D01*
X0274688Y0020949D01*
X0273577Y0019837D01*
X0272976Y0018386D01*
X0272976Y0016814D01*
X0273577Y0015362D01*
X0274688Y0014251D01*
X0275416Y0013950D01*
X0268435Y0013950D01*
X0269163Y0014251D01*
X0270274Y0015362D01*
X0270876Y0016814D01*
X0270876Y0018386D01*
X0270274Y0019837D01*
X0269163Y0020949D01*
X0267711Y0021550D01*
X0266140Y0021550D01*
X0264688Y0020949D01*
X0263577Y0019837D01*
X0262976Y0018386D01*
X0262976Y0016814D01*
X0263577Y0015362D01*
X0264688Y0014251D01*
X0265416Y0013950D01*
X0258435Y0013950D01*
X0259163Y0014251D01*
X0260274Y0015362D01*
X0260876Y0016814D01*
X0260876Y0018386D01*
X0260274Y0019837D01*
X0259163Y0020949D01*
X0257711Y0021550D01*
X0256140Y0021550D01*
X0254688Y0020949D01*
X0253577Y0019837D01*
X0252976Y0018386D01*
X0252976Y0016814D01*
X0253577Y0015362D01*
X0254688Y0014251D01*
X0255416Y0013950D01*
X0248435Y0013950D01*
X0249163Y0014251D01*
X0250274Y0015362D01*
X0250876Y0016814D01*
X0250876Y0018386D01*
X0250274Y0019837D01*
X0249163Y0020949D01*
X0247711Y0021550D01*
X0246140Y0021550D01*
X0244688Y0020949D01*
X0243577Y0019837D01*
X0242976Y0018386D01*
X0242976Y0016814D01*
X0243577Y0015362D01*
X0244688Y0014251D01*
X0245416Y0013950D01*
X0238435Y0013950D01*
X0239163Y0014251D01*
X0240274Y0015362D01*
X0240876Y0016814D01*
X0240876Y0018386D01*
X0240274Y0019837D01*
X0239163Y0020949D01*
X0237711Y0021550D01*
X0236140Y0021550D01*
X0234688Y0020949D01*
X0233577Y0019837D01*
X0232976Y0018386D01*
X0232976Y0016814D01*
X0233577Y0015362D01*
X0234688Y0014251D01*
X0235416Y0013950D01*
X0228435Y0013950D01*
X0229163Y0014251D01*
X0230274Y0015362D01*
X0230876Y0016814D01*
X0230876Y0018386D01*
X0230274Y0019837D01*
X0229163Y0020949D01*
X0227711Y0021550D01*
X0226140Y0021550D01*
X0224688Y0020949D01*
X0223577Y0019837D01*
X0222976Y0018386D01*
X0222976Y0016814D01*
X0223577Y0015362D01*
X0224688Y0014251D01*
X0225416Y0013950D01*
X0218435Y0013950D01*
X0219163Y0014251D01*
X0220274Y0015362D01*
X0220876Y0016814D01*
X0220876Y0017490D02*
X0222976Y0017490D01*
X0222976Y0018188D02*
X0220876Y0018188D01*
X0220668Y0018887D02*
X0223183Y0018887D01*
X0223472Y0019585D02*
X0220379Y0019585D01*
X0219828Y0020284D02*
X0224023Y0020284D01*
X0224769Y0020982D02*
X0219082Y0020982D01*
X0214683Y0021681D02*
X0305408Y0021681D01*
X0306576Y0021681D02*
X0307276Y0021681D01*
X0307276Y0020982D02*
X0306576Y0020982D01*
X0306576Y0020284D02*
X0307276Y0020284D01*
X0307276Y0019585D02*
X0306576Y0019585D01*
X0306576Y0018887D02*
X0307276Y0018887D01*
X0307276Y0018188D02*
X0306576Y0018188D01*
X0306576Y0017490D02*
X0300876Y0017490D01*
X0300876Y0018188D02*
X0302615Y0018188D01*
X0302770Y0018887D02*
X0300668Y0018887D01*
X0300379Y0019585D02*
X0303055Y0019585D01*
X0303498Y0020284D02*
X0299828Y0020284D01*
X0299082Y0020982D02*
X0304180Y0020982D01*
X0308444Y0021681D02*
X0315176Y0021681D01*
X0315176Y0022379D02*
X0213985Y0022379D01*
X0213286Y0023078D02*
X0315176Y0023078D01*
X0315176Y0023776D02*
X0212588Y0023776D01*
X0229082Y0020982D02*
X0234769Y0020982D01*
X0234023Y0020284D02*
X0229828Y0020284D01*
X0230379Y0019585D02*
X0233472Y0019585D01*
X0233183Y0018887D02*
X0230668Y0018887D01*
X0230876Y0018188D02*
X0232976Y0018188D01*
X0232976Y0017490D02*
X0230876Y0017490D01*
X0230866Y0016791D02*
X0232985Y0016791D01*
X0233275Y0016093D02*
X0230577Y0016093D01*
X0230287Y0015394D02*
X0233564Y0015394D01*
X0234244Y0014696D02*
X0229607Y0014696D01*
X0228549Y0013997D02*
X0235302Y0013997D01*
X0238549Y0013997D02*
X0245302Y0013997D01*
X0244244Y0014696D02*
X0239607Y0014696D01*
X0240287Y0015394D02*
X0243564Y0015394D01*
X0243275Y0016093D02*
X0240577Y0016093D01*
X0240866Y0016791D02*
X0242985Y0016791D01*
X0242976Y0017490D02*
X0240876Y0017490D01*
X0240876Y0018188D02*
X0242976Y0018188D01*
X0243183Y0018887D02*
X0240668Y0018887D01*
X0240379Y0019585D02*
X0243472Y0019585D01*
X0244023Y0020284D02*
X0239828Y0020284D01*
X0239082Y0020982D02*
X0244769Y0020982D01*
X0249082Y0020982D02*
X0254769Y0020982D01*
X0254023Y0020284D02*
X0249828Y0020284D01*
X0250379Y0019585D02*
X0253472Y0019585D01*
X0253183Y0018887D02*
X0250668Y0018887D01*
X0250876Y0018188D02*
X0252976Y0018188D01*
X0252976Y0017490D02*
X0250876Y0017490D01*
X0250866Y0016791D02*
X0252985Y0016791D01*
X0253275Y0016093D02*
X0250577Y0016093D01*
X0250287Y0015394D02*
X0253564Y0015394D01*
X0254244Y0014696D02*
X0249607Y0014696D01*
X0248549Y0013997D02*
X0255302Y0013997D01*
X0258549Y0013997D02*
X0265302Y0013997D01*
X0264244Y0014696D02*
X0259607Y0014696D01*
X0260287Y0015394D02*
X0263564Y0015394D01*
X0263275Y0016093D02*
X0260577Y0016093D01*
X0260866Y0016791D02*
X0262985Y0016791D01*
X0262976Y0017490D02*
X0260876Y0017490D01*
X0260876Y0018188D02*
X0262976Y0018188D01*
X0263183Y0018887D02*
X0260668Y0018887D01*
X0260379Y0019585D02*
X0263472Y0019585D01*
X0264023Y0020284D02*
X0259828Y0020284D01*
X0259082Y0020982D02*
X0264769Y0020982D01*
X0269082Y0020982D02*
X0274769Y0020982D01*
X0274023Y0020284D02*
X0269828Y0020284D01*
X0270379Y0019585D02*
X0273472Y0019585D01*
X0273183Y0018887D02*
X0270668Y0018887D01*
X0270876Y0018188D02*
X0272976Y0018188D01*
X0272976Y0017490D02*
X0270876Y0017490D01*
X0270866Y0016791D02*
X0272985Y0016791D01*
X0273275Y0016093D02*
X0270577Y0016093D01*
X0270287Y0015394D02*
X0273564Y0015394D01*
X0274244Y0014696D02*
X0269607Y0014696D01*
X0268549Y0013997D02*
X0275302Y0013997D01*
X0278549Y0013997D02*
X0285302Y0013997D01*
X0284244Y0014696D02*
X0279607Y0014696D01*
X0280287Y0015394D02*
X0283564Y0015394D01*
X0283275Y0016093D02*
X0280577Y0016093D01*
X0280866Y0016791D02*
X0282985Y0016791D01*
X0282976Y0017490D02*
X0280876Y0017490D01*
X0280876Y0018188D02*
X0282976Y0018188D01*
X0283183Y0018887D02*
X0280668Y0018887D01*
X0280379Y0019585D02*
X0283472Y0019585D01*
X0284023Y0020284D02*
X0279828Y0020284D01*
X0279082Y0020982D02*
X0284769Y0020982D01*
X0289082Y0020982D02*
X0294769Y0020982D01*
X0294023Y0020284D02*
X0289828Y0020284D01*
X0290379Y0019585D02*
X0293472Y0019585D01*
X0293183Y0018887D02*
X0290668Y0018887D01*
X0290876Y0018188D02*
X0292976Y0018188D01*
X0292976Y0017490D02*
X0290876Y0017490D01*
X0290866Y0016791D02*
X0292985Y0016791D01*
X0293275Y0016093D02*
X0290577Y0016093D01*
X0290287Y0015394D02*
X0293564Y0015394D01*
X0294244Y0014696D02*
X0289607Y0014696D01*
X0288549Y0013997D02*
X0295302Y0013997D01*
X0298549Y0013997D02*
X0304484Y0013997D01*
X0303678Y0014696D02*
X0299607Y0014696D01*
X0300287Y0015394D02*
X0303167Y0015394D01*
X0302842Y0016093D02*
X0300577Y0016093D01*
X0300866Y0016791D02*
X0302649Y0016791D01*
X0307276Y0017490D02*
X0312976Y0017490D01*
X0312976Y0018188D02*
X0311237Y0018188D01*
X0311081Y0018887D02*
X0313183Y0018887D01*
X0313472Y0019585D02*
X0310796Y0019585D01*
X0310353Y0020284D02*
X0314023Y0020284D01*
X0314769Y0020982D02*
X0309671Y0020982D01*
X0311202Y0016791D02*
X0312985Y0016791D01*
X0313275Y0016093D02*
X0311010Y0016093D01*
X0310684Y0015394D02*
X0313564Y0015394D01*
X0314244Y0014696D02*
X0310173Y0014696D01*
X0309367Y0013997D02*
X0315302Y0013997D01*
X0318435Y0013950D02*
X0319163Y0014251D01*
X0320274Y0015362D01*
X0320876Y0016814D01*
X0320876Y0018386D01*
X0320274Y0019837D01*
X0319163Y0020949D01*
X0318676Y0021151D01*
X0318676Y0024150D01*
X0332612Y0024150D01*
X0333880Y0024675D01*
X0334850Y0025646D01*
X0335376Y0026914D01*
X0335376Y0028286D01*
X0334850Y0029554D01*
X0333880Y0030525D01*
X0332612Y0031050D01*
X0330616Y0031050D01*
X0331476Y0031909D01*
X0331476Y0032809D01*
X0332035Y0032250D01*
X0333816Y0032250D01*
X0335076Y0033509D01*
X0335076Y0035291D01*
X0333816Y0036550D01*
X0333716Y0036550D01*
X0334476Y0037309D01*
X0334476Y0039091D01*
X0333216Y0040350D01*
X0331435Y0040350D01*
X0330176Y0039091D01*
X0330176Y0037309D01*
X0331435Y0036050D01*
X0331535Y0036050D01*
X0330776Y0035291D01*
X0330776Y0034391D01*
X0330216Y0034950D01*
X0328435Y0034950D01*
X0327176Y0033691D01*
X0327176Y0031909D01*
X0328035Y0031050D01*
X0325376Y0031050D01*
X0325376Y0051171D01*
X0326789Y0052584D01*
X0327169Y0052742D01*
X0328184Y0053757D01*
X0328341Y0054137D01*
X0331375Y0057170D01*
X0334221Y0057170D01*
X0334580Y0056811D01*
X0336232Y0056127D01*
X0338019Y0056127D01*
X0339671Y0056811D01*
X0340935Y0058075D01*
X0341619Y0059727D01*
X0341619Y0061514D01*
X0340935Y0063166D01*
X0339671Y0064430D01*
X0338019Y0065114D01*
X0336232Y0065114D01*
X0334580Y0064430D01*
X0334221Y0064070D01*
X0329260Y0064070D01*
X0327992Y0063545D01*
X0327001Y0062554D01*
X0323462Y0059016D01*
X0323082Y0058858D01*
X0322067Y0057843D01*
X0321910Y0057463D01*
X0321006Y0056560D01*
X0312683Y0064883D01*
X0317650Y0069850D01*
X0318676Y0070875D01*
X0318676Y0074049D01*
X0319163Y0074251D01*
X0320274Y0075363D01*
X0320876Y0076814D01*
X0320876Y0078386D01*
X0320274Y0079837D01*
X0319163Y0080949D01*
X0318435Y0081250D01*
X0355576Y0081250D01*
X0355576Y0013950D01*
X0318435Y0013950D01*
X0318549Y0013997D02*
X0355576Y0013997D01*
X0355576Y0014696D02*
X0319607Y0014696D01*
X0320287Y0015394D02*
X0355576Y0015394D01*
X0355576Y0016093D02*
X0320577Y0016093D01*
X0320866Y0016791D02*
X0355576Y0016791D01*
X0355576Y0017490D02*
X0320876Y0017490D01*
X0320876Y0018188D02*
X0355576Y0018188D01*
X0355576Y0018887D02*
X0320668Y0018887D01*
X0320379Y0019585D02*
X0355576Y0019585D01*
X0355576Y0020284D02*
X0319828Y0020284D01*
X0319082Y0020982D02*
X0355576Y0020982D01*
X0355576Y0021681D02*
X0318676Y0021681D01*
X0318676Y0022379D02*
X0355576Y0022379D01*
X0355576Y0023078D02*
X0318676Y0023078D01*
X0318676Y0023776D02*
X0338987Y0023776D01*
X0338552Y0023957D02*
X0339663Y0023496D01*
X0340866Y0023496D01*
X0341977Y0023957D01*
X0342827Y0024807D01*
X0343287Y0025918D01*
X0343287Y0027121D01*
X0342827Y0028232D01*
X0341977Y0029083D01*
X0340866Y0029543D01*
X0339663Y0029543D01*
X0338552Y0029083D01*
X0337701Y0028232D01*
X0337241Y0027121D01*
X0337241Y0025918D01*
X0337701Y0024807D01*
X0338552Y0023957D01*
X0338034Y0024475D02*
X0333396Y0024475D01*
X0334378Y0025173D02*
X0337550Y0025173D01*
X0337260Y0025872D02*
X0334944Y0025872D01*
X0335233Y0026570D02*
X0337241Y0026570D01*
X0337302Y0027269D02*
X0335376Y0027269D01*
X0335376Y0027967D02*
X0337591Y0027967D01*
X0338135Y0028666D02*
X0335218Y0028666D01*
X0334929Y0029364D02*
X0339232Y0029364D01*
X0341297Y0029364D02*
X0355576Y0029364D01*
X0355576Y0028666D02*
X0342394Y0028666D01*
X0342937Y0027967D02*
X0355576Y0027967D01*
X0355576Y0027269D02*
X0343226Y0027269D01*
X0343287Y0026570D02*
X0355576Y0026570D01*
X0355576Y0025872D02*
X0343268Y0025872D01*
X0342979Y0025173D02*
X0355576Y0025173D01*
X0355576Y0024475D02*
X0342495Y0024475D01*
X0341541Y0023776D02*
X0355576Y0023776D01*
X0355576Y0030063D02*
X0334342Y0030063D01*
X0333309Y0030761D02*
X0355576Y0030761D01*
X0355576Y0031460D02*
X0331026Y0031460D01*
X0331476Y0032158D02*
X0355576Y0032158D01*
X0355576Y0032857D02*
X0334423Y0032857D01*
X0335076Y0033555D02*
X0355576Y0033555D01*
X0355576Y0034254D02*
X0335076Y0034254D01*
X0335076Y0034952D02*
X0355576Y0034952D01*
X0355576Y0035651D02*
X0334715Y0035651D01*
X0334017Y0036349D02*
X0355576Y0036349D01*
X0355576Y0037048D02*
X0334214Y0037048D01*
X0334476Y0037746D02*
X0355576Y0037746D01*
X0355576Y0038445D02*
X0334476Y0038445D01*
X0334423Y0039143D02*
X0338326Y0039143D01*
X0338552Y0038917D02*
X0339663Y0038457D01*
X0340866Y0038457D01*
X0341977Y0038917D01*
X0342827Y0039768D01*
X0343287Y0040879D01*
X0343287Y0042082D01*
X0342827Y0043193D01*
X0341977Y0044043D01*
X0340866Y0044504D01*
X0339663Y0044504D01*
X0338552Y0044043D01*
X0337701Y0043193D01*
X0337241Y0042082D01*
X0337241Y0040879D01*
X0337701Y0039768D01*
X0338552Y0038917D01*
X0337670Y0039842D02*
X0333724Y0039842D01*
X0330927Y0039842D02*
X0325376Y0039842D01*
X0325376Y0040540D02*
X0337381Y0040540D01*
X0337241Y0041239D02*
X0325376Y0041239D01*
X0325376Y0041937D02*
X0337241Y0041937D01*
X0337471Y0042636D02*
X0325376Y0042636D01*
X0325376Y0043334D02*
X0337843Y0043334D01*
X0338541Y0044033D02*
X0325376Y0044033D01*
X0325376Y0044732D02*
X0355576Y0044732D01*
X0355576Y0045430D02*
X0325376Y0045430D01*
X0325376Y0046129D02*
X0355576Y0046129D01*
X0355576Y0046827D02*
X0325376Y0046827D01*
X0325376Y0047526D02*
X0355576Y0047526D01*
X0355576Y0048224D02*
X0325376Y0048224D01*
X0325376Y0048923D02*
X0355576Y0048923D01*
X0355576Y0049621D02*
X0325376Y0049621D01*
X0325376Y0050320D02*
X0355576Y0050320D01*
X0355576Y0051018D02*
X0325376Y0051018D01*
X0325921Y0051717D02*
X0355576Y0051717D01*
X0355576Y0052415D02*
X0326620Y0052415D01*
X0327541Y0053114D02*
X0355576Y0053114D01*
X0355576Y0053812D02*
X0328207Y0053812D01*
X0328715Y0054511D02*
X0355576Y0054511D01*
X0355576Y0055209D02*
X0329414Y0055209D01*
X0330112Y0055908D02*
X0355576Y0055908D01*
X0355576Y0056606D02*
X0339176Y0056606D01*
X0340164Y0057305D02*
X0355576Y0057305D01*
X0355576Y0058003D02*
X0340863Y0058003D01*
X0341194Y0058702D02*
X0355576Y0058702D01*
X0355576Y0059400D02*
X0341484Y0059400D01*
X0341619Y0060099D02*
X0355576Y0060099D01*
X0355576Y0060797D02*
X0341619Y0060797D01*
X0341619Y0061496D02*
X0355576Y0061496D01*
X0355576Y0062194D02*
X0341337Y0062194D01*
X0341048Y0062893D02*
X0355576Y0062893D01*
X0355576Y0063591D02*
X0340509Y0063591D01*
X0339811Y0064290D02*
X0355576Y0064290D01*
X0355576Y0064988D02*
X0338322Y0064988D01*
X0335929Y0064988D02*
X0312789Y0064988D01*
X0313276Y0064290D02*
X0334440Y0064290D01*
X0328103Y0063591D02*
X0313975Y0063591D01*
X0314673Y0062893D02*
X0327339Y0062893D01*
X0326641Y0062194D02*
X0315372Y0062194D01*
X0316070Y0061496D02*
X0325942Y0061496D01*
X0325244Y0060797D02*
X0316769Y0060797D01*
X0317467Y0060099D02*
X0324545Y0060099D01*
X0323847Y0059400D02*
X0318166Y0059400D01*
X0318864Y0058702D02*
X0322926Y0058702D01*
X0322227Y0058003D02*
X0319563Y0058003D01*
X0320261Y0057305D02*
X0321751Y0057305D01*
X0321053Y0056606D02*
X0320960Y0056606D01*
X0330811Y0056606D02*
X0335075Y0056606D01*
X0355576Y0065687D02*
X0313487Y0065687D01*
X0314186Y0066385D02*
X0355576Y0066385D01*
X0355576Y0067084D02*
X0314884Y0067084D01*
X0315583Y0067782D02*
X0355576Y0067782D01*
X0355576Y0068481D02*
X0316281Y0068481D01*
X0316980Y0069179D02*
X0355576Y0069179D01*
X0355576Y0069878D02*
X0339029Y0069878D01*
X0339004Y0069865D02*
X0339690Y0070215D01*
X0340313Y0070668D01*
X0340858Y0071212D01*
X0341311Y0071835D01*
X0341660Y0072522D01*
X0341898Y0073254D01*
X0342019Y0074015D01*
X0342019Y0074050D01*
X0337476Y0074050D01*
X0337476Y0074750D01*
X0342019Y0074750D01*
X0342019Y0074785D01*
X0341898Y0075546D01*
X0341660Y0076278D01*
X0341311Y0076965D01*
X0340858Y0077588D01*
X0340313Y0078132D01*
X0339690Y0078585D01*
X0339004Y0078935D01*
X0338271Y0079173D01*
X0337511Y0079293D01*
X0337476Y0079293D01*
X0337476Y0074750D01*
X0336776Y0074750D01*
X0336776Y0079293D01*
X0336740Y0079293D01*
X0335980Y0079173D01*
X0335247Y0078935D01*
X0334561Y0078585D01*
X0333938Y0078132D01*
X0333393Y0077588D01*
X0332940Y0076965D01*
X0332591Y0076278D01*
X0332353Y0075546D01*
X0332232Y0074785D01*
X0332232Y0074750D01*
X0336776Y0074750D01*
X0336776Y0074050D01*
X0337476Y0074050D01*
X0337476Y0069507D01*
X0337511Y0069507D01*
X0338271Y0069627D01*
X0339004Y0069865D01*
X0340188Y0070576D02*
X0355576Y0070576D01*
X0355576Y0071275D02*
X0340904Y0071275D01*
X0341381Y0071973D02*
X0355576Y0071973D01*
X0355576Y0072672D02*
X0341709Y0072672D01*
X0341917Y0073370D02*
X0355576Y0073370D01*
X0355576Y0074069D02*
X0337476Y0074069D01*
X0337476Y0074768D02*
X0336776Y0074768D01*
X0336776Y0075466D02*
X0337476Y0075466D01*
X0337476Y0076165D02*
X0336776Y0076165D01*
X0336776Y0076863D02*
X0337476Y0076863D01*
X0337476Y0077562D02*
X0336776Y0077562D01*
X0336776Y0078260D02*
X0337476Y0078260D01*
X0337476Y0078959D02*
X0336776Y0078959D01*
X0335320Y0078959D02*
X0320638Y0078959D01*
X0320876Y0078260D02*
X0334114Y0078260D01*
X0333374Y0077562D02*
X0320876Y0077562D01*
X0320876Y0076863D02*
X0332889Y0076863D01*
X0332554Y0076165D02*
X0320606Y0076165D01*
X0320317Y0075466D02*
X0332340Y0075466D01*
X0332232Y0074768D02*
X0319679Y0074768D01*
X0318723Y0074069D02*
X0336776Y0074069D01*
X0336776Y0074050D02*
X0332232Y0074050D01*
X0332232Y0074015D01*
X0332353Y0073254D01*
X0332591Y0072522D01*
X0332940Y0071835D01*
X0333393Y0071212D01*
X0333938Y0070668D01*
X0334561Y0070215D01*
X0335247Y0069865D01*
X0335980Y0069627D01*
X0336740Y0069507D01*
X0336776Y0069507D01*
X0336776Y0074050D01*
X0336776Y0073370D02*
X0337476Y0073370D01*
X0337476Y0072672D02*
X0336776Y0072672D01*
X0336776Y0071973D02*
X0337476Y0071973D01*
X0337476Y0071275D02*
X0336776Y0071275D01*
X0336776Y0070576D02*
X0337476Y0070576D01*
X0337476Y0069878D02*
X0336776Y0069878D01*
X0335222Y0069878D02*
X0317678Y0069878D01*
X0318377Y0070576D02*
X0334063Y0070576D01*
X0333348Y0071275D02*
X0318676Y0071275D01*
X0318676Y0071973D02*
X0332870Y0071973D01*
X0332542Y0072672D02*
X0318676Y0072672D01*
X0318676Y0073370D02*
X0332334Y0073370D01*
X0341362Y0076863D02*
X0355576Y0076863D01*
X0355576Y0076165D02*
X0341697Y0076165D01*
X0341911Y0075466D02*
X0355576Y0075466D01*
X0355576Y0074768D02*
X0342019Y0074768D01*
X0340877Y0077562D02*
X0355576Y0077562D01*
X0355576Y0078260D02*
X0340138Y0078260D01*
X0338931Y0078959D02*
X0355576Y0078959D01*
X0355576Y0079657D02*
X0320349Y0079657D01*
X0319756Y0080356D02*
X0355576Y0080356D01*
X0355576Y0081054D02*
X0318908Y0081054D01*
X0314943Y0081054D02*
X0309572Y0081054D01*
X0310300Y0080356D02*
X0314095Y0080356D01*
X0313502Y0079657D02*
X0310760Y0079657D01*
X0311058Y0078959D02*
X0313213Y0078959D01*
X0312976Y0078260D02*
X0311225Y0078260D01*
X0311274Y0077250D02*
X0307276Y0077250D01*
X0307276Y0073251D01*
X0307944Y0073357D01*
X0308595Y0073569D01*
X0309205Y0073880D01*
X0309759Y0074282D01*
X0310244Y0074766D01*
X0310646Y0075320D01*
X0310957Y0075930D01*
X0311168Y0076581D01*
X0311274Y0077250D01*
X0311213Y0076863D02*
X0312976Y0076863D01*
X0312976Y0077562D02*
X0307276Y0077562D01*
X0307276Y0076863D02*
X0306576Y0076863D01*
X0306576Y0077250D02*
X0306576Y0073251D01*
X0305907Y0073357D01*
X0305256Y0073569D01*
X0304646Y0073880D01*
X0304092Y0074282D01*
X0303608Y0074766D01*
X0303205Y0075320D01*
X0302894Y0075930D01*
X0302683Y0076581D01*
X0302577Y0077250D01*
X0306576Y0077250D01*
X0306576Y0077562D02*
X0300876Y0077562D01*
X0300876Y0078260D02*
X0302626Y0078260D01*
X0302793Y0078959D02*
X0300638Y0078959D01*
X0300349Y0079657D02*
X0303092Y0079657D01*
X0303551Y0080356D02*
X0299756Y0080356D01*
X0298908Y0081054D02*
X0304279Y0081054D01*
X0302638Y0076863D02*
X0300876Y0076863D01*
X0300606Y0076165D02*
X0302818Y0076165D01*
X0303131Y0075466D02*
X0300317Y0075466D01*
X0299679Y0074768D02*
X0303607Y0074768D01*
X0304385Y0074069D02*
X0298723Y0074069D01*
X0295171Y0073370D02*
X0305866Y0073370D01*
X0306576Y0073370D02*
X0307276Y0073370D01*
X0307276Y0074069D02*
X0306576Y0074069D01*
X0306576Y0074768D02*
X0307276Y0074768D01*
X0307276Y0075466D02*
X0306576Y0075466D01*
X0306576Y0076165D02*
X0307276Y0076165D01*
X0310720Y0075466D02*
X0313534Y0075466D01*
X0313245Y0076165D02*
X0311033Y0076165D01*
X0310245Y0074768D02*
X0314172Y0074768D01*
X0315128Y0074069D02*
X0309466Y0074069D01*
X0307985Y0073370D02*
X0315176Y0073370D01*
X0315176Y0072672D02*
X0294472Y0072672D01*
X0293774Y0071973D02*
X0314824Y0071973D01*
X0314126Y0071275D02*
X0293075Y0071275D01*
X0292377Y0070576D02*
X0313427Y0070576D01*
X0312729Y0069878D02*
X0291678Y0069878D01*
X0290980Y0069179D02*
X0312030Y0069179D01*
X0311332Y0068481D02*
X0290281Y0068481D01*
X0271897Y0064988D02*
X0265189Y0064988D01*
X0236042Y0055209D02*
X0223975Y0055209D01*
X0223816Y0055050D02*
X0225076Y0056309D01*
X0225076Y0058091D01*
X0223816Y0059350D01*
X0222035Y0059350D01*
X0220776Y0058091D01*
X0220776Y0056309D01*
X0222035Y0055050D01*
X0223816Y0055050D01*
X0224674Y0055908D02*
X0235343Y0055908D01*
X0234645Y0056606D02*
X0225076Y0056606D01*
X0225076Y0057305D02*
X0233946Y0057305D01*
X0233247Y0058003D02*
X0225076Y0058003D01*
X0224464Y0058702D02*
X0232549Y0058702D01*
X0231850Y0059400D02*
X0215966Y0059400D01*
X0216276Y0058702D02*
X0221387Y0058702D01*
X0220776Y0058003D02*
X0216276Y0058003D01*
X0216271Y0057305D02*
X0220776Y0057305D01*
X0220776Y0056606D02*
X0215572Y0056606D01*
X0212679Y0056606D02*
X0212676Y0056606D01*
X0212676Y0055908D02*
X0221177Y0055908D01*
X0221876Y0055209D02*
X0212575Y0055209D01*
X0211877Y0054511D02*
X0236740Y0054511D01*
X0227999Y0053114D02*
X0194052Y0053114D01*
X0194751Y0052415D02*
X0227300Y0052415D01*
X0226776Y0051717D02*
X0205449Y0051717D01*
X0205016Y0052150D02*
X0203235Y0052150D01*
X0201976Y0050891D01*
X0201976Y0049591D01*
X0201616Y0049950D01*
X0199835Y0049950D01*
X0198576Y0048691D01*
X0198576Y0046909D01*
X0199835Y0045650D01*
X0201616Y0045650D01*
X0202876Y0046909D01*
X0202876Y0048209D01*
X0203235Y0047850D01*
X0204776Y0047850D01*
X0204776Y0046509D01*
X0206035Y0045250D01*
X0207816Y0045250D01*
X0209076Y0046509D01*
X0209076Y0048291D01*
X0207816Y0049550D01*
X0206276Y0049550D01*
X0206276Y0050891D01*
X0205016Y0052150D01*
X0206148Y0051018D02*
X0226776Y0051018D01*
X0226776Y0050320D02*
X0206276Y0050320D01*
X0206276Y0049621D02*
X0227264Y0049621D01*
X0227962Y0048923D02*
X0208444Y0048923D01*
X0209076Y0048224D02*
X0229509Y0048224D01*
X0229376Y0047526D02*
X0209076Y0047526D01*
X0209076Y0046827D02*
X0229376Y0046827D01*
X0229556Y0046129D02*
X0210638Y0046129D01*
X0211336Y0045430D02*
X0230255Y0045430D01*
X0240499Y0043334D02*
X0258316Y0043334D01*
X0259015Y0042636D02*
X0239800Y0042636D01*
X0240023Y0041937D02*
X0239102Y0041937D01*
X0239376Y0041239D02*
X0238403Y0041239D01*
X0237705Y0040540D02*
X0239376Y0040540D01*
X0239376Y0039842D02*
X0237006Y0039842D01*
X0236307Y0039143D02*
X0239742Y0039143D01*
X0243676Y0041239D02*
X0260412Y0041239D01*
X0259713Y0041937D02*
X0243029Y0041937D01*
X0240826Y0044033D02*
X0257618Y0044033D01*
X0256919Y0044732D02*
X0240826Y0044732D01*
X0240826Y0045430D02*
X0256221Y0045430D01*
X0259075Y0047526D02*
X0289026Y0047526D01*
X0289026Y0048224D02*
X0258376Y0048224D01*
X0258076Y0048923D02*
X0272362Y0048923D01*
X0272435Y0048850D02*
X0274216Y0048850D01*
X0275476Y0050109D01*
X0275476Y0051891D01*
X0274216Y0053150D01*
X0272435Y0053150D01*
X0271176Y0051891D01*
X0271176Y0050109D01*
X0272435Y0048850D01*
X0271664Y0049621D02*
X0258076Y0049621D01*
X0258476Y0050320D02*
X0271176Y0050320D01*
X0271176Y0051018D02*
X0258476Y0051018D01*
X0258476Y0051717D02*
X0271176Y0051717D01*
X0271700Y0052415D02*
X0258151Y0052415D01*
X0257876Y0053114D02*
X0272399Y0053114D01*
X0274252Y0053114D02*
X0278199Y0053114D01*
X0278235Y0053150D02*
X0276976Y0051891D01*
X0276976Y0050109D01*
X0278235Y0048850D01*
X0280016Y0048850D01*
X0281276Y0050109D01*
X0281276Y0051891D01*
X0280016Y0053150D01*
X0278235Y0053150D01*
X0277500Y0052415D02*
X0274951Y0052415D01*
X0275476Y0051717D02*
X0276976Y0051717D01*
X0276976Y0051018D02*
X0275476Y0051018D01*
X0275476Y0050320D02*
X0276976Y0050320D01*
X0277464Y0049621D02*
X0274987Y0049621D01*
X0274289Y0048923D02*
X0278162Y0048923D01*
X0280089Y0048923D02*
X0289026Y0048923D01*
X0289237Y0049621D02*
X0280787Y0049621D01*
X0281276Y0050320D02*
X0289526Y0050320D01*
X0289815Y0051018D02*
X0281276Y0051018D01*
X0281276Y0051717D02*
X0290105Y0051717D01*
X0290693Y0052415D02*
X0280751Y0052415D01*
X0280052Y0053114D02*
X0291391Y0053114D01*
X0292090Y0053812D02*
X0257876Y0053812D01*
X0257876Y0054511D02*
X0293450Y0054511D01*
X0289026Y0046827D02*
X0259773Y0046827D01*
X0260472Y0046129D02*
X0289026Y0046129D01*
X0289298Y0045430D02*
X0261170Y0045430D01*
X0261869Y0044732D02*
X0289588Y0044732D01*
X0289877Y0044033D02*
X0282767Y0044033D01*
X0283466Y0043334D02*
X0290166Y0043334D01*
X0290842Y0042636D02*
X0284164Y0042636D01*
X0284863Y0041937D02*
X0291540Y0041937D01*
X0292239Y0041239D02*
X0285561Y0041239D01*
X0267634Y0036349D02*
X0244876Y0036349D01*
X0216326Y0042600D02*
X0215326Y0041600D01*
X0214176Y0043334D02*
X0211876Y0043334D01*
X0211876Y0044033D02*
X0214718Y0044033D01*
X0215417Y0044732D02*
X0211876Y0044732D01*
X0208814Y0046129D02*
X0208695Y0046129D01*
X0208115Y0045430D02*
X0207996Y0045430D01*
X0207576Y0044732D02*
X0120318Y0044732D01*
X0120274Y0044837D02*
X0119163Y0045949D01*
X0117711Y0046550D01*
X0116140Y0046550D01*
X0114688Y0045949D01*
X0113577Y0044837D01*
X0112976Y0043386D01*
X0112976Y0041814D01*
X0113577Y0040363D01*
X0114688Y0039251D01*
X0116140Y0038650D01*
X0117711Y0038650D01*
X0119163Y0039251D01*
X0120274Y0040363D01*
X0120876Y0041814D01*
X0120876Y0043386D01*
X0120274Y0044837D01*
X0119682Y0045430D02*
X0205855Y0045430D01*
X0205156Y0046129D02*
X0202095Y0046129D01*
X0202793Y0046827D02*
X0204776Y0046827D01*
X0204776Y0047526D02*
X0202876Y0047526D01*
X0199356Y0046129D02*
X0190695Y0046129D01*
X0191393Y0046827D02*
X0198658Y0046827D01*
X0198576Y0047526D02*
X0191676Y0047526D01*
X0191676Y0048224D02*
X0198576Y0048224D01*
X0198808Y0048923D02*
X0191644Y0048923D01*
X0191464Y0049621D02*
X0190945Y0049621D01*
X0193987Y0049621D02*
X0199506Y0049621D01*
X0201945Y0049621D02*
X0201976Y0049621D01*
X0201976Y0050320D02*
X0194686Y0050320D01*
X0194876Y0051018D02*
X0202103Y0051018D01*
X0202802Y0051717D02*
X0194876Y0051717D01*
X0187376Y0047526D02*
X0109526Y0047526D01*
X0109526Y0046827D02*
X0187658Y0046827D01*
X0188356Y0046129D02*
X0118729Y0046129D01*
X0120607Y0044033D02*
X0207576Y0044033D01*
X0207576Y0043334D02*
X0150632Y0043334D01*
X0148420Y0043334D02*
X0120876Y0043334D01*
X0120876Y0042636D02*
X0144121Y0042636D01*
X0143423Y0041937D02*
X0120876Y0041937D01*
X0120637Y0041239D02*
X0142976Y0041239D01*
X0142976Y0040540D02*
X0120348Y0040540D01*
X0119754Y0039842D02*
X0142976Y0039842D01*
X0143542Y0039143D02*
X0118903Y0039143D01*
X0117557Y0037048D02*
X0143826Y0037048D01*
X0143826Y0037746D02*
X0072276Y0037746D01*
X0071921Y0038445D02*
X0143826Y0038445D01*
X0147276Y0039842D02*
X0148043Y0039842D01*
X0147376Y0040540D02*
X0147276Y0040540D01*
X0147276Y0041239D02*
X0147376Y0041239D01*
X0147376Y0041937D02*
X0146829Y0041937D01*
X0146130Y0042636D02*
X0147721Y0042636D01*
X0145126Y0040600D02*
X0145126Y0027800D01*
X0144926Y0027600D01*
X0143826Y0031460D02*
X0122945Y0031460D01*
X0122246Y0032158D02*
X0143826Y0032158D01*
X0143826Y0032857D02*
X0121548Y0032857D01*
X0120849Y0033555D02*
X0143826Y0033555D01*
X0143826Y0034254D02*
X0120516Y0034254D01*
X0120159Y0034952D02*
X0143826Y0034952D01*
X0143826Y0035651D02*
X0119461Y0035651D01*
X0118255Y0036349D02*
X0143826Y0036349D01*
X0114949Y0039143D02*
X0071365Y0039143D01*
X0071365Y0039842D02*
X0076321Y0039842D01*
X0077032Y0039548D02*
X0078819Y0039548D01*
X0080471Y0040232D01*
X0081735Y0041496D01*
X0082419Y0043147D01*
X0082419Y0044935D01*
X0081735Y0046586D01*
X0080471Y0047850D01*
X0078819Y0048534D01*
X0077032Y0048534D01*
X0075380Y0047850D01*
X0074116Y0046586D01*
X0073432Y0044935D01*
X0073432Y0043147D01*
X0074116Y0041496D01*
X0075380Y0040232D01*
X0077032Y0039548D01*
X0075072Y0040540D02*
X0071365Y0040540D01*
X0071365Y0041239D02*
X0074373Y0041239D01*
X0073933Y0041937D02*
X0071365Y0041937D01*
X0071365Y0042636D02*
X0073644Y0042636D01*
X0073432Y0043334D02*
X0071365Y0043334D01*
X0071365Y0044033D02*
X0073432Y0044033D01*
X0073432Y0044732D02*
X0071365Y0044732D01*
X0071365Y0045430D02*
X0073637Y0045430D01*
X0073927Y0046129D02*
X0071365Y0046129D01*
X0071365Y0046827D02*
X0074357Y0046827D01*
X0075056Y0047526D02*
X0071365Y0047526D01*
X0071365Y0048224D02*
X0076283Y0048224D01*
X0079568Y0048224D02*
X0094326Y0048224D01*
X0094326Y0047526D02*
X0080795Y0047526D01*
X0081494Y0046827D02*
X0094326Y0046827D01*
X0094326Y0046129D02*
X0081924Y0046129D01*
X0082214Y0045430D02*
X0094598Y0045430D01*
X0094888Y0044732D02*
X0082419Y0044732D01*
X0082419Y0044033D02*
X0095177Y0044033D01*
X0095466Y0043334D02*
X0082419Y0043334D01*
X0082207Y0042636D02*
X0096142Y0042636D01*
X0096840Y0041937D02*
X0081918Y0041937D01*
X0081478Y0041239D02*
X0097539Y0041239D01*
X0099109Y0040540D02*
X0080780Y0040540D01*
X0079530Y0039842D02*
X0114098Y0039842D01*
X0113503Y0040540D02*
X0104742Y0040540D01*
X0106313Y0041239D02*
X0113214Y0041239D01*
X0112976Y0041937D02*
X0107011Y0041937D01*
X0107710Y0042636D02*
X0112976Y0042636D01*
X0112976Y0043334D02*
X0108385Y0043334D01*
X0108674Y0044033D02*
X0113244Y0044033D01*
X0113533Y0044732D02*
X0108964Y0044732D01*
X0109253Y0045430D02*
X0114169Y0045430D01*
X0115122Y0046129D02*
X0109526Y0046129D01*
X0095115Y0051018D02*
X0071365Y0051018D01*
X0071365Y0050320D02*
X0094826Y0050320D01*
X0094537Y0049621D02*
X0071365Y0049621D01*
X0071365Y0048923D02*
X0094326Y0048923D01*
X0095405Y0051717D02*
X0071365Y0051717D01*
X0071365Y0052415D02*
X0095993Y0052415D01*
X0096691Y0053114D02*
X0071365Y0053114D01*
X0068765Y0053114D02*
X0052480Y0053114D01*
X0053178Y0053812D02*
X0068765Y0053812D01*
X0068765Y0054511D02*
X0053276Y0054511D01*
X0053276Y0055209D02*
X0068765Y0055209D01*
X0068765Y0055908D02*
X0053058Y0055908D01*
X0052360Y0056606D02*
X0068765Y0056606D01*
X0080605Y0061496D02*
X0112710Y0061496D01*
X0112586Y0062194D02*
X0079108Y0062194D01*
X0081303Y0060797D02*
X0112962Y0060797D01*
X0113366Y0060099D02*
X0081845Y0060099D01*
X0082135Y0059400D02*
X0113973Y0059400D01*
X0114647Y0055908D02*
X0081997Y0055908D01*
X0078276Y0067084D02*
X0077576Y0067084D01*
X0077576Y0067782D02*
X0078276Y0067782D01*
X0078276Y0068481D02*
X0077576Y0068481D01*
X0077576Y0069179D02*
X0078276Y0069179D01*
X0078276Y0069878D02*
X0077576Y0069878D01*
X0077576Y0070576D02*
X0078276Y0070576D01*
X0074855Y0067782D02*
X0029582Y0067782D01*
X0030280Y0067084D02*
X0076011Y0067084D01*
X0074143Y0068481D02*
X0028883Y0068481D01*
X0028185Y0069179D02*
X0073667Y0069179D01*
X0073340Y0069878D02*
X0027486Y0069878D01*
X0018903Y0067782D02*
X0018276Y0067782D01*
X0018276Y0072672D02*
X0023957Y0072672D01*
X0121141Y0061496D02*
X0137981Y0061496D01*
X0138679Y0062194D02*
X0121266Y0062194D01*
X0141268Y0058702D02*
X0190376Y0058702D01*
X0190685Y0059400D02*
X0141876Y0059400D01*
X0141876Y0060099D02*
X0191384Y0060099D01*
X0193667Y0060099D02*
X0212984Y0060099D01*
X0212285Y0059400D02*
X0194366Y0059400D01*
X0194676Y0058702D02*
X0211976Y0058702D01*
X0211976Y0058003D02*
X0211763Y0058003D01*
X0215267Y0060099D02*
X0231152Y0060099D01*
X0230453Y0060797D02*
X0141876Y0060797D01*
X0229889Y0048923D02*
X0230208Y0048923D01*
X0274620Y0034254D02*
X0281539Y0034254D01*
X0284312Y0034254D02*
X0318476Y0034254D01*
X0318476Y0033555D02*
X0285011Y0033555D01*
X0285076Y0032857D02*
X0318476Y0032857D01*
X0318476Y0032158D02*
X0285076Y0032158D01*
X0284826Y0031460D02*
X0318476Y0031460D01*
X0325376Y0031460D02*
X0327625Y0031460D01*
X0327176Y0032158D02*
X0325376Y0032158D01*
X0325376Y0032857D02*
X0327176Y0032857D01*
X0327176Y0033555D02*
X0325376Y0033555D01*
X0325376Y0034254D02*
X0327739Y0034254D01*
X0325376Y0034952D02*
X0330776Y0034952D01*
X0331136Y0035651D02*
X0325376Y0035651D01*
X0325376Y0036349D02*
X0331136Y0036349D01*
X0330437Y0037048D02*
X0325376Y0037048D01*
X0325376Y0037746D02*
X0330176Y0037746D01*
X0330176Y0038445D02*
X0325376Y0038445D01*
X0325376Y0039143D02*
X0330228Y0039143D01*
X0342203Y0039143D02*
X0355576Y0039143D01*
X0355576Y0039842D02*
X0342858Y0039842D01*
X0343147Y0040540D02*
X0355576Y0040540D01*
X0355576Y0041239D02*
X0343287Y0041239D01*
X0343287Y0041937D02*
X0355576Y0041937D01*
X0355576Y0042636D02*
X0343058Y0042636D01*
X0342685Y0043334D02*
X0355576Y0043334D01*
X0355576Y0044033D02*
X0341987Y0044033D01*
X0225302Y0013997D02*
X0218549Y0013997D01*
X0219607Y0014696D02*
X0224244Y0014696D01*
X0223564Y0015394D02*
X0220287Y0015394D01*
X0075302Y0013997D02*
X0018276Y0013997D01*
X0018276Y0014696D02*
X0074244Y0014696D01*
X0073564Y0015394D02*
X0018276Y0015394D01*
X0018276Y0016093D02*
X0073275Y0016093D01*
X0072985Y0016791D02*
X0018276Y0016791D01*
X0018276Y0017490D02*
X0072976Y0017490D01*
X0072976Y0018188D02*
X0018276Y0018188D01*
X0018276Y0018887D02*
X0073183Y0018887D01*
X0073472Y0019585D02*
X0018276Y0019585D01*
X0018276Y0020284D02*
X0074023Y0020284D01*
X0074769Y0020982D02*
X0018276Y0020982D01*
D14*
X0019126Y0025800D03*
X0054926Y0036200D03*
X0060926Y0035800D03*
X0070126Y0037200D03*
X0086926Y0027600D03*
X0091126Y0027600D03*
X0102126Y0029000D03*
X0145126Y0040600D03*
X0149526Y0041400D03*
X0165326Y0046400D03*
X0180926Y0046400D03*
X0189526Y0048000D03*
X0192726Y0051400D03*
X0197126Y0055600D03*
X0192526Y0058200D03*
X0207126Y0053600D03*
X0210526Y0056200D03*
X0214126Y0058200D03*
X0222926Y0057200D03*
X0225926Y0054400D03*
X0228926Y0051000D03*
X0222326Y0049000D03*
X0231526Y0047200D03*
X0239526Y0047600D03*
X0251126Y0052000D03*
X0256326Y0051200D03*
X0273326Y0051000D03*
X0279126Y0051000D03*
X0274326Y0045200D03*
X0286926Y0043800D03*
X0273326Y0039400D03*
X0273326Y0036000D03*
X0268526Y0034200D03*
X0282926Y0032600D03*
X0294526Y0036200D03*
X0287126Y0037200D03*
X0253126Y0034200D03*
X0242726Y0036600D03*
X0241526Y0040400D03*
X0250526Y0043600D03*
X0224726Y0040000D03*
X0216326Y0042600D03*
X0209726Y0044000D03*
X0206926Y0047400D03*
X0200726Y0047800D03*
X0204126Y0050000D03*
X0195126Y0041000D03*
X0191526Y0041000D03*
X0209726Y0039000D03*
X0214126Y0037600D03*
X0192326Y0033000D03*
X0180926Y0032600D03*
X0174326Y0032800D03*
X0165126Y0035400D03*
X0149326Y0047600D03*
X0139726Y0060200D03*
X0160560Y0064600D03*
X0161926Y0068400D03*
X0198326Y0063200D03*
X0229126Y0064600D03*
X0237526Y0066400D03*
X0242326Y0066400D03*
X0246526Y0064800D03*
X0255926Y0063200D03*
X0273326Y0066600D03*
X0281926Y0064600D03*
X0331326Y0044400D03*
X0332326Y0038200D03*
X0332926Y0034400D03*
X0329326Y0032800D03*
X0208126Y0028000D03*
X0120526Y0074400D03*
X0051126Y0054800D03*
X0038926Y0045200D03*
X0020526Y0044200D03*
X0020126Y0069600D03*
X0024926Y0070600D03*
X0035726Y0070400D03*
X0035726Y0079200D03*
D15*
X0198326Y0064600D02*
X0198326Y0063200D01*
X0198326Y0064600D02*
X0229126Y0064600D01*
X0239726Y0054000D01*
X0239726Y0047800D01*
X0239526Y0047600D01*
X0239726Y0047800D02*
X0256326Y0047800D01*
X0261526Y0042600D01*
X0281726Y0042600D01*
X0287126Y0037200D01*
X0316926Y0027600D02*
X0316926Y0017600D01*
X0256326Y0047800D02*
X0256326Y0051200D01*
X0256126Y0051400D01*
X0256126Y0058400D01*
X0267726Y0070000D01*
X0289326Y0070000D01*
X0296926Y0077600D01*
X0309926Y0064600D02*
X0316926Y0071600D01*
X0316926Y0077600D01*
X0321926Y0052600D02*
X0321926Y0052200D01*
D16*
X0102326Y0070200D03*
D17*
X0096926Y0070200D01*
D18*
X0081864Y0034200D02*
X0077926Y0030261D01*
X0081864Y0034200D02*
X0115526Y0034200D01*
X0116926Y0032800D01*
X0116926Y0032600D01*
X0121926Y0027600D01*
X0144926Y0027600D01*
X0208126Y0027600D01*
X0316926Y0027600D01*
X0321926Y0027600D01*
X0331926Y0027600D01*
X0321926Y0027600D02*
X0321926Y0052200D01*
X0321926Y0052600D02*
X0325126Y0055800D01*
X0329926Y0060600D01*
X0329946Y0060620D01*
X0337126Y0060620D01*
D19*
X0325126Y0055800D03*
D20*
X0331926Y0027600D03*
D21*
X0321926Y0052600D02*
X0309926Y0064600D01*
X0281926Y0064600D01*
D22*
X0329926Y0060600D02*
X0329946Y0060600D01*
M02*
