G75*
%MOIN*%
%OFA0B0*%
%FSLAX25Y25*%
%IPPOS*%
%LPD*%
%AMOC8*
5,1,8,0,0,1.08239X$1,22.5*
%
%ADD10C,0.00000*%
%ADD11C,0.07400*%
%ADD12R,0.08000X0.08000*%
%ADD13C,0.08000*%
%ADD14R,0.07400X0.07400*%
%ADD15C,0.01000*%
%ADD16C,0.02400*%
%ADD17C,0.01600*%
%ADD18C,0.06600*%
%ADD19C,0.02500*%
%ADD20C,0.00700*%
%ADD21C,0.00800*%
%ADD22C,0.05315*%
%ADD23C,0.04134*%
D10*
X0016926Y0012600D02*
X0016926Y0082600D01*
X0356926Y0082600D01*
X0356926Y0012600D01*
X0016926Y0012600D01*
X0095676Y0047600D02*
X0095678Y0047758D01*
X0095684Y0047915D01*
X0095694Y0048073D01*
X0095708Y0048230D01*
X0095726Y0048386D01*
X0095747Y0048543D01*
X0095773Y0048698D01*
X0095803Y0048853D01*
X0095836Y0049007D01*
X0095874Y0049160D01*
X0095915Y0049313D01*
X0095960Y0049464D01*
X0096009Y0049614D01*
X0096062Y0049762D01*
X0096118Y0049910D01*
X0096179Y0050055D01*
X0096242Y0050200D01*
X0096310Y0050342D01*
X0096381Y0050483D01*
X0096455Y0050622D01*
X0096533Y0050759D01*
X0096615Y0050894D01*
X0096699Y0051027D01*
X0096788Y0051158D01*
X0096879Y0051286D01*
X0096974Y0051413D01*
X0097071Y0051536D01*
X0097172Y0051658D01*
X0097276Y0051776D01*
X0097383Y0051892D01*
X0097493Y0052005D01*
X0097605Y0052116D01*
X0097721Y0052223D01*
X0097839Y0052328D01*
X0097959Y0052430D01*
X0098082Y0052528D01*
X0098208Y0052624D01*
X0098336Y0052716D01*
X0098466Y0052805D01*
X0098598Y0052891D01*
X0098733Y0052973D01*
X0098870Y0053052D01*
X0099008Y0053127D01*
X0099148Y0053199D01*
X0099291Y0053267D01*
X0099434Y0053332D01*
X0099580Y0053393D01*
X0099727Y0053450D01*
X0099875Y0053504D01*
X0100025Y0053554D01*
X0100175Y0053600D01*
X0100327Y0053642D01*
X0100480Y0053681D01*
X0100634Y0053715D01*
X0100789Y0053746D01*
X0100944Y0053772D01*
X0101100Y0053795D01*
X0101257Y0053814D01*
X0101414Y0053829D01*
X0101571Y0053840D01*
X0101729Y0053847D01*
X0101887Y0053850D01*
X0102044Y0053849D01*
X0102202Y0053844D01*
X0102359Y0053835D01*
X0102517Y0053822D01*
X0102673Y0053805D01*
X0102830Y0053784D01*
X0102985Y0053760D01*
X0103140Y0053731D01*
X0103295Y0053698D01*
X0103448Y0053662D01*
X0103601Y0053621D01*
X0103752Y0053577D01*
X0103902Y0053529D01*
X0104051Y0053478D01*
X0104199Y0053422D01*
X0104345Y0053363D01*
X0104490Y0053300D01*
X0104633Y0053233D01*
X0104774Y0053163D01*
X0104913Y0053090D01*
X0105051Y0053013D01*
X0105187Y0052932D01*
X0105320Y0052848D01*
X0105451Y0052761D01*
X0105580Y0052670D01*
X0105707Y0052576D01*
X0105832Y0052479D01*
X0105953Y0052379D01*
X0106073Y0052276D01*
X0106189Y0052170D01*
X0106303Y0052061D01*
X0106415Y0051949D01*
X0106523Y0051835D01*
X0106628Y0051717D01*
X0106731Y0051597D01*
X0106830Y0051475D01*
X0106926Y0051350D01*
X0107019Y0051222D01*
X0107109Y0051093D01*
X0107195Y0050961D01*
X0107279Y0050827D01*
X0107358Y0050691D01*
X0107435Y0050553D01*
X0107507Y0050413D01*
X0107576Y0050271D01*
X0107642Y0050128D01*
X0107704Y0049983D01*
X0107762Y0049836D01*
X0107817Y0049688D01*
X0107868Y0049539D01*
X0107915Y0049388D01*
X0107958Y0049237D01*
X0107997Y0049084D01*
X0108033Y0048930D01*
X0108064Y0048776D01*
X0108092Y0048621D01*
X0108116Y0048465D01*
X0108136Y0048308D01*
X0108152Y0048151D01*
X0108164Y0047994D01*
X0108172Y0047837D01*
X0108176Y0047679D01*
X0108176Y0047521D01*
X0108172Y0047363D01*
X0108164Y0047206D01*
X0108152Y0047049D01*
X0108136Y0046892D01*
X0108116Y0046735D01*
X0108092Y0046579D01*
X0108064Y0046424D01*
X0108033Y0046270D01*
X0107997Y0046116D01*
X0107958Y0045963D01*
X0107915Y0045812D01*
X0107868Y0045661D01*
X0107817Y0045512D01*
X0107762Y0045364D01*
X0107704Y0045217D01*
X0107642Y0045072D01*
X0107576Y0044929D01*
X0107507Y0044787D01*
X0107435Y0044647D01*
X0107358Y0044509D01*
X0107279Y0044373D01*
X0107195Y0044239D01*
X0107109Y0044107D01*
X0107019Y0043978D01*
X0106926Y0043850D01*
X0106830Y0043725D01*
X0106731Y0043603D01*
X0106628Y0043483D01*
X0106523Y0043365D01*
X0106415Y0043251D01*
X0106303Y0043139D01*
X0106189Y0043030D01*
X0106073Y0042924D01*
X0105953Y0042821D01*
X0105832Y0042721D01*
X0105707Y0042624D01*
X0105580Y0042530D01*
X0105451Y0042439D01*
X0105320Y0042352D01*
X0105187Y0042268D01*
X0105051Y0042187D01*
X0104913Y0042110D01*
X0104774Y0042037D01*
X0104633Y0041967D01*
X0104490Y0041900D01*
X0104345Y0041837D01*
X0104199Y0041778D01*
X0104051Y0041722D01*
X0103902Y0041671D01*
X0103752Y0041623D01*
X0103601Y0041579D01*
X0103448Y0041538D01*
X0103295Y0041502D01*
X0103140Y0041469D01*
X0102985Y0041440D01*
X0102830Y0041416D01*
X0102673Y0041395D01*
X0102517Y0041378D01*
X0102359Y0041365D01*
X0102202Y0041356D01*
X0102044Y0041351D01*
X0101887Y0041350D01*
X0101729Y0041353D01*
X0101571Y0041360D01*
X0101414Y0041371D01*
X0101257Y0041386D01*
X0101100Y0041405D01*
X0100944Y0041428D01*
X0100789Y0041454D01*
X0100634Y0041485D01*
X0100480Y0041519D01*
X0100327Y0041558D01*
X0100175Y0041600D01*
X0100025Y0041646D01*
X0099875Y0041696D01*
X0099727Y0041750D01*
X0099580Y0041807D01*
X0099434Y0041868D01*
X0099291Y0041933D01*
X0099148Y0042001D01*
X0099008Y0042073D01*
X0098870Y0042148D01*
X0098733Y0042227D01*
X0098598Y0042309D01*
X0098466Y0042395D01*
X0098336Y0042484D01*
X0098208Y0042576D01*
X0098082Y0042672D01*
X0097959Y0042770D01*
X0097839Y0042872D01*
X0097721Y0042977D01*
X0097605Y0043084D01*
X0097493Y0043195D01*
X0097383Y0043308D01*
X0097276Y0043424D01*
X0097172Y0043542D01*
X0097071Y0043664D01*
X0096974Y0043787D01*
X0096879Y0043914D01*
X0096788Y0044042D01*
X0096699Y0044173D01*
X0096615Y0044306D01*
X0096533Y0044441D01*
X0096455Y0044578D01*
X0096381Y0044717D01*
X0096310Y0044858D01*
X0096242Y0045000D01*
X0096179Y0045145D01*
X0096118Y0045290D01*
X0096062Y0045438D01*
X0096009Y0045586D01*
X0095960Y0045736D01*
X0095915Y0045887D01*
X0095874Y0046040D01*
X0095836Y0046193D01*
X0095803Y0046347D01*
X0095773Y0046502D01*
X0095747Y0046657D01*
X0095726Y0046814D01*
X0095708Y0046970D01*
X0095694Y0047127D01*
X0095684Y0047285D01*
X0095678Y0047442D01*
X0095676Y0047600D01*
X0290376Y0047600D02*
X0290378Y0047758D01*
X0290384Y0047915D01*
X0290394Y0048073D01*
X0290408Y0048230D01*
X0290426Y0048386D01*
X0290447Y0048543D01*
X0290473Y0048698D01*
X0290503Y0048853D01*
X0290536Y0049007D01*
X0290574Y0049160D01*
X0290615Y0049313D01*
X0290660Y0049464D01*
X0290709Y0049614D01*
X0290762Y0049762D01*
X0290818Y0049910D01*
X0290879Y0050055D01*
X0290942Y0050200D01*
X0291010Y0050342D01*
X0291081Y0050483D01*
X0291155Y0050622D01*
X0291233Y0050759D01*
X0291315Y0050894D01*
X0291399Y0051027D01*
X0291488Y0051158D01*
X0291579Y0051286D01*
X0291674Y0051413D01*
X0291771Y0051536D01*
X0291872Y0051658D01*
X0291976Y0051776D01*
X0292083Y0051892D01*
X0292193Y0052005D01*
X0292305Y0052116D01*
X0292421Y0052223D01*
X0292539Y0052328D01*
X0292659Y0052430D01*
X0292782Y0052528D01*
X0292908Y0052624D01*
X0293036Y0052716D01*
X0293166Y0052805D01*
X0293298Y0052891D01*
X0293433Y0052973D01*
X0293570Y0053052D01*
X0293708Y0053127D01*
X0293848Y0053199D01*
X0293991Y0053267D01*
X0294134Y0053332D01*
X0294280Y0053393D01*
X0294427Y0053450D01*
X0294575Y0053504D01*
X0294725Y0053554D01*
X0294875Y0053600D01*
X0295027Y0053642D01*
X0295180Y0053681D01*
X0295334Y0053715D01*
X0295489Y0053746D01*
X0295644Y0053772D01*
X0295800Y0053795D01*
X0295957Y0053814D01*
X0296114Y0053829D01*
X0296271Y0053840D01*
X0296429Y0053847D01*
X0296587Y0053850D01*
X0296744Y0053849D01*
X0296902Y0053844D01*
X0297059Y0053835D01*
X0297217Y0053822D01*
X0297373Y0053805D01*
X0297530Y0053784D01*
X0297685Y0053760D01*
X0297840Y0053731D01*
X0297995Y0053698D01*
X0298148Y0053662D01*
X0298301Y0053621D01*
X0298452Y0053577D01*
X0298602Y0053529D01*
X0298751Y0053478D01*
X0298899Y0053422D01*
X0299045Y0053363D01*
X0299190Y0053300D01*
X0299333Y0053233D01*
X0299474Y0053163D01*
X0299613Y0053090D01*
X0299751Y0053013D01*
X0299887Y0052932D01*
X0300020Y0052848D01*
X0300151Y0052761D01*
X0300280Y0052670D01*
X0300407Y0052576D01*
X0300532Y0052479D01*
X0300653Y0052379D01*
X0300773Y0052276D01*
X0300889Y0052170D01*
X0301003Y0052061D01*
X0301115Y0051949D01*
X0301223Y0051835D01*
X0301328Y0051717D01*
X0301431Y0051597D01*
X0301530Y0051475D01*
X0301626Y0051350D01*
X0301719Y0051222D01*
X0301809Y0051093D01*
X0301895Y0050961D01*
X0301979Y0050827D01*
X0302058Y0050691D01*
X0302135Y0050553D01*
X0302207Y0050413D01*
X0302276Y0050271D01*
X0302342Y0050128D01*
X0302404Y0049983D01*
X0302462Y0049836D01*
X0302517Y0049688D01*
X0302568Y0049539D01*
X0302615Y0049388D01*
X0302658Y0049237D01*
X0302697Y0049084D01*
X0302733Y0048930D01*
X0302764Y0048776D01*
X0302792Y0048621D01*
X0302816Y0048465D01*
X0302836Y0048308D01*
X0302852Y0048151D01*
X0302864Y0047994D01*
X0302872Y0047837D01*
X0302876Y0047679D01*
X0302876Y0047521D01*
X0302872Y0047363D01*
X0302864Y0047206D01*
X0302852Y0047049D01*
X0302836Y0046892D01*
X0302816Y0046735D01*
X0302792Y0046579D01*
X0302764Y0046424D01*
X0302733Y0046270D01*
X0302697Y0046116D01*
X0302658Y0045963D01*
X0302615Y0045812D01*
X0302568Y0045661D01*
X0302517Y0045512D01*
X0302462Y0045364D01*
X0302404Y0045217D01*
X0302342Y0045072D01*
X0302276Y0044929D01*
X0302207Y0044787D01*
X0302135Y0044647D01*
X0302058Y0044509D01*
X0301979Y0044373D01*
X0301895Y0044239D01*
X0301809Y0044107D01*
X0301719Y0043978D01*
X0301626Y0043850D01*
X0301530Y0043725D01*
X0301431Y0043603D01*
X0301328Y0043483D01*
X0301223Y0043365D01*
X0301115Y0043251D01*
X0301003Y0043139D01*
X0300889Y0043030D01*
X0300773Y0042924D01*
X0300653Y0042821D01*
X0300532Y0042721D01*
X0300407Y0042624D01*
X0300280Y0042530D01*
X0300151Y0042439D01*
X0300020Y0042352D01*
X0299887Y0042268D01*
X0299751Y0042187D01*
X0299613Y0042110D01*
X0299474Y0042037D01*
X0299333Y0041967D01*
X0299190Y0041900D01*
X0299045Y0041837D01*
X0298899Y0041778D01*
X0298751Y0041722D01*
X0298602Y0041671D01*
X0298452Y0041623D01*
X0298301Y0041579D01*
X0298148Y0041538D01*
X0297995Y0041502D01*
X0297840Y0041469D01*
X0297685Y0041440D01*
X0297530Y0041416D01*
X0297373Y0041395D01*
X0297217Y0041378D01*
X0297059Y0041365D01*
X0296902Y0041356D01*
X0296744Y0041351D01*
X0296587Y0041350D01*
X0296429Y0041353D01*
X0296271Y0041360D01*
X0296114Y0041371D01*
X0295957Y0041386D01*
X0295800Y0041405D01*
X0295644Y0041428D01*
X0295489Y0041454D01*
X0295334Y0041485D01*
X0295180Y0041519D01*
X0295027Y0041558D01*
X0294875Y0041600D01*
X0294725Y0041646D01*
X0294575Y0041696D01*
X0294427Y0041750D01*
X0294280Y0041807D01*
X0294134Y0041868D01*
X0293991Y0041933D01*
X0293848Y0042001D01*
X0293708Y0042073D01*
X0293570Y0042148D01*
X0293433Y0042227D01*
X0293298Y0042309D01*
X0293166Y0042395D01*
X0293036Y0042484D01*
X0292908Y0042576D01*
X0292782Y0042672D01*
X0292659Y0042770D01*
X0292539Y0042872D01*
X0292421Y0042977D01*
X0292305Y0043084D01*
X0292193Y0043195D01*
X0292083Y0043308D01*
X0291976Y0043424D01*
X0291872Y0043542D01*
X0291771Y0043664D01*
X0291674Y0043787D01*
X0291579Y0043914D01*
X0291488Y0044042D01*
X0291399Y0044173D01*
X0291315Y0044306D01*
X0291233Y0044441D01*
X0291155Y0044578D01*
X0291081Y0044717D01*
X0291010Y0044858D01*
X0290942Y0045000D01*
X0290879Y0045145D01*
X0290818Y0045290D01*
X0290762Y0045438D01*
X0290709Y0045586D01*
X0290660Y0045736D01*
X0290615Y0045887D01*
X0290574Y0046040D01*
X0290536Y0046193D01*
X0290503Y0046347D01*
X0290473Y0046502D01*
X0290447Y0046657D01*
X0290426Y0046814D01*
X0290408Y0046970D01*
X0290394Y0047127D01*
X0290384Y0047285D01*
X0290378Y0047442D01*
X0290376Y0047600D01*
X0338591Y0041480D02*
X0338593Y0041561D01*
X0338599Y0041643D01*
X0338609Y0041724D01*
X0338623Y0041804D01*
X0338640Y0041883D01*
X0338662Y0041962D01*
X0338687Y0042039D01*
X0338716Y0042116D01*
X0338749Y0042190D01*
X0338786Y0042263D01*
X0338825Y0042334D01*
X0338869Y0042403D01*
X0338915Y0042470D01*
X0338965Y0042534D01*
X0339018Y0042596D01*
X0339074Y0042656D01*
X0339132Y0042712D01*
X0339194Y0042766D01*
X0339258Y0042817D01*
X0339324Y0042864D01*
X0339392Y0042908D01*
X0339463Y0042949D01*
X0339535Y0042986D01*
X0339610Y0043020D01*
X0339685Y0043050D01*
X0339763Y0043076D01*
X0339841Y0043099D01*
X0339920Y0043117D01*
X0340000Y0043132D01*
X0340081Y0043143D01*
X0340162Y0043150D01*
X0340244Y0043153D01*
X0340325Y0043152D01*
X0340406Y0043147D01*
X0340487Y0043138D01*
X0340568Y0043125D01*
X0340648Y0043108D01*
X0340726Y0043088D01*
X0340804Y0043063D01*
X0340881Y0043035D01*
X0340956Y0043003D01*
X0341029Y0042968D01*
X0341100Y0042929D01*
X0341170Y0042886D01*
X0341237Y0042841D01*
X0341303Y0042792D01*
X0341365Y0042740D01*
X0341425Y0042684D01*
X0341482Y0042626D01*
X0341537Y0042566D01*
X0341588Y0042502D01*
X0341636Y0042437D01*
X0341681Y0042369D01*
X0341723Y0042299D01*
X0341761Y0042227D01*
X0341796Y0042153D01*
X0341827Y0042078D01*
X0341854Y0042001D01*
X0341877Y0041923D01*
X0341897Y0041844D01*
X0341913Y0041764D01*
X0341925Y0041683D01*
X0341933Y0041602D01*
X0341937Y0041521D01*
X0341937Y0041439D01*
X0341933Y0041358D01*
X0341925Y0041277D01*
X0341913Y0041196D01*
X0341897Y0041116D01*
X0341877Y0041037D01*
X0341854Y0040959D01*
X0341827Y0040882D01*
X0341796Y0040807D01*
X0341761Y0040733D01*
X0341723Y0040661D01*
X0341681Y0040591D01*
X0341636Y0040523D01*
X0341588Y0040458D01*
X0341537Y0040394D01*
X0341482Y0040334D01*
X0341425Y0040276D01*
X0341365Y0040220D01*
X0341303Y0040168D01*
X0341237Y0040119D01*
X0341170Y0040074D01*
X0341101Y0040031D01*
X0341029Y0039992D01*
X0340956Y0039957D01*
X0340881Y0039925D01*
X0340804Y0039897D01*
X0340726Y0039872D01*
X0340648Y0039852D01*
X0340568Y0039835D01*
X0340487Y0039822D01*
X0340406Y0039813D01*
X0340325Y0039808D01*
X0340244Y0039807D01*
X0340162Y0039810D01*
X0340081Y0039817D01*
X0340000Y0039828D01*
X0339920Y0039843D01*
X0339841Y0039861D01*
X0339763Y0039884D01*
X0339685Y0039910D01*
X0339610Y0039940D01*
X0339535Y0039974D01*
X0339463Y0040011D01*
X0339392Y0040052D01*
X0339324Y0040096D01*
X0339258Y0040143D01*
X0339194Y0040194D01*
X0339132Y0040248D01*
X0339074Y0040304D01*
X0339018Y0040364D01*
X0338965Y0040426D01*
X0338915Y0040490D01*
X0338869Y0040557D01*
X0338825Y0040626D01*
X0338786Y0040697D01*
X0338749Y0040770D01*
X0338716Y0040844D01*
X0338687Y0040921D01*
X0338662Y0040998D01*
X0338640Y0041077D01*
X0338623Y0041156D01*
X0338609Y0041236D01*
X0338599Y0041317D01*
X0338593Y0041399D01*
X0338591Y0041480D01*
X0338591Y0026520D02*
X0338593Y0026601D01*
X0338599Y0026683D01*
X0338609Y0026764D01*
X0338623Y0026844D01*
X0338640Y0026923D01*
X0338662Y0027002D01*
X0338687Y0027079D01*
X0338716Y0027156D01*
X0338749Y0027230D01*
X0338786Y0027303D01*
X0338825Y0027374D01*
X0338869Y0027443D01*
X0338915Y0027510D01*
X0338965Y0027574D01*
X0339018Y0027636D01*
X0339074Y0027696D01*
X0339132Y0027752D01*
X0339194Y0027806D01*
X0339258Y0027857D01*
X0339324Y0027904D01*
X0339392Y0027948D01*
X0339463Y0027989D01*
X0339535Y0028026D01*
X0339610Y0028060D01*
X0339685Y0028090D01*
X0339763Y0028116D01*
X0339841Y0028139D01*
X0339920Y0028157D01*
X0340000Y0028172D01*
X0340081Y0028183D01*
X0340162Y0028190D01*
X0340244Y0028193D01*
X0340325Y0028192D01*
X0340406Y0028187D01*
X0340487Y0028178D01*
X0340568Y0028165D01*
X0340648Y0028148D01*
X0340726Y0028128D01*
X0340804Y0028103D01*
X0340881Y0028075D01*
X0340956Y0028043D01*
X0341029Y0028008D01*
X0341100Y0027969D01*
X0341170Y0027926D01*
X0341237Y0027881D01*
X0341303Y0027832D01*
X0341365Y0027780D01*
X0341425Y0027724D01*
X0341482Y0027666D01*
X0341537Y0027606D01*
X0341588Y0027542D01*
X0341636Y0027477D01*
X0341681Y0027409D01*
X0341723Y0027339D01*
X0341761Y0027267D01*
X0341796Y0027193D01*
X0341827Y0027118D01*
X0341854Y0027041D01*
X0341877Y0026963D01*
X0341897Y0026884D01*
X0341913Y0026804D01*
X0341925Y0026723D01*
X0341933Y0026642D01*
X0341937Y0026561D01*
X0341937Y0026479D01*
X0341933Y0026398D01*
X0341925Y0026317D01*
X0341913Y0026236D01*
X0341897Y0026156D01*
X0341877Y0026077D01*
X0341854Y0025999D01*
X0341827Y0025922D01*
X0341796Y0025847D01*
X0341761Y0025773D01*
X0341723Y0025701D01*
X0341681Y0025631D01*
X0341636Y0025563D01*
X0341588Y0025498D01*
X0341537Y0025434D01*
X0341482Y0025374D01*
X0341425Y0025316D01*
X0341365Y0025260D01*
X0341303Y0025208D01*
X0341237Y0025159D01*
X0341170Y0025114D01*
X0341101Y0025071D01*
X0341029Y0025032D01*
X0340956Y0024997D01*
X0340881Y0024965D01*
X0340804Y0024937D01*
X0340726Y0024912D01*
X0340648Y0024892D01*
X0340568Y0024875D01*
X0340487Y0024862D01*
X0340406Y0024853D01*
X0340325Y0024848D01*
X0340244Y0024847D01*
X0340162Y0024850D01*
X0340081Y0024857D01*
X0340000Y0024868D01*
X0339920Y0024883D01*
X0339841Y0024901D01*
X0339763Y0024924D01*
X0339685Y0024950D01*
X0339610Y0024980D01*
X0339535Y0025014D01*
X0339463Y0025051D01*
X0339392Y0025092D01*
X0339324Y0025136D01*
X0339258Y0025183D01*
X0339194Y0025234D01*
X0339132Y0025288D01*
X0339074Y0025344D01*
X0339018Y0025404D01*
X0338965Y0025466D01*
X0338915Y0025530D01*
X0338869Y0025597D01*
X0338825Y0025666D01*
X0338786Y0025737D01*
X0338749Y0025810D01*
X0338716Y0025884D01*
X0338687Y0025961D01*
X0338662Y0026038D01*
X0338640Y0026117D01*
X0338623Y0026196D01*
X0338609Y0026276D01*
X0338599Y0026357D01*
X0338593Y0026439D01*
X0338591Y0026520D01*
D11*
X0316926Y0017600D03*
X0306926Y0017600D03*
X0296926Y0017600D03*
X0286926Y0017600D03*
X0276926Y0017600D03*
X0266926Y0017600D03*
X0256926Y0017600D03*
X0246926Y0017600D03*
X0236926Y0017600D03*
X0226926Y0017600D03*
X0216926Y0017600D03*
X0206926Y0017600D03*
X0196926Y0017600D03*
X0186926Y0017600D03*
X0176926Y0017600D03*
X0166926Y0017600D03*
X0156926Y0017600D03*
X0146926Y0017600D03*
X0136926Y0017600D03*
X0126926Y0017600D03*
X0116926Y0017600D03*
X0106926Y0017600D03*
X0096926Y0017600D03*
X0086926Y0017600D03*
X0076926Y0017600D03*
X0116926Y0032600D03*
X0116926Y0042600D03*
X0116926Y0052600D03*
X0126926Y0077600D03*
X0136926Y0077600D03*
X0146926Y0077600D03*
X0156926Y0077600D03*
X0166926Y0077600D03*
X0176926Y0077600D03*
X0186926Y0077600D03*
X0196926Y0077600D03*
X0206926Y0077600D03*
X0216926Y0077600D03*
X0226926Y0077600D03*
X0236926Y0077600D03*
X0246926Y0077600D03*
X0256926Y0077600D03*
X0266926Y0077600D03*
X0276926Y0077600D03*
X0286926Y0077600D03*
X0296926Y0077600D03*
X0306926Y0077600D03*
X0316926Y0077600D03*
D12*
X0337126Y0074400D03*
X0077926Y0071600D03*
D13*
X0077926Y0057820D03*
X0077926Y0044041D03*
X0077926Y0030261D03*
X0337126Y0060620D03*
D14*
X0116926Y0062600D03*
D15*
X0117426Y0062526D02*
X0134784Y0062526D01*
X0133785Y0063524D02*
X0122126Y0063524D01*
X0122126Y0063100D02*
X0122126Y0066497D01*
X0122023Y0066879D01*
X0121826Y0067221D01*
X0121547Y0067500D01*
X0121205Y0067698D01*
X0120823Y0067800D01*
X0117426Y0067800D01*
X0117426Y0063100D01*
X0122126Y0063100D01*
X0122126Y0062100D02*
X0117426Y0062100D01*
X0117426Y0063100D01*
X0116426Y0063100D01*
X0116426Y0067800D01*
X0113028Y0067800D01*
X0112647Y0067698D01*
X0112305Y0067500D01*
X0112025Y0067221D01*
X0111828Y0066879D01*
X0111726Y0066497D01*
X0111726Y0063100D01*
X0116426Y0063100D01*
X0116426Y0062100D01*
X0111726Y0062100D01*
X0111726Y0058703D01*
X0111828Y0058321D01*
X0112025Y0057979D01*
X0112305Y0057700D01*
X0112647Y0057502D01*
X0113028Y0057400D01*
X0114926Y0057400D01*
X0113980Y0057008D01*
X0112517Y0055546D01*
X0111726Y0053634D01*
X0111726Y0051566D01*
X0112517Y0049654D01*
X0113980Y0048192D01*
X0115408Y0047600D01*
X0113980Y0047008D01*
X0112517Y0045546D01*
X0111726Y0043634D01*
X0111726Y0041566D01*
X0112517Y0039654D01*
X0113980Y0038192D01*
X0115408Y0037600D01*
X0113980Y0037008D01*
X0112517Y0035546D01*
X0111726Y0033634D01*
X0111726Y0031566D01*
X0112517Y0029654D01*
X0113980Y0028192D01*
X0114322Y0028050D01*
X0093826Y0028050D01*
X0093826Y0028137D01*
X0093415Y0029129D01*
X0092655Y0029889D01*
X0091663Y0030300D01*
X0090589Y0030300D01*
X0089596Y0029889D01*
X0089026Y0029318D01*
X0088776Y0029568D01*
X0088776Y0031166D01*
X0082976Y0036966D01*
X0081892Y0038050D01*
X0076492Y0038050D01*
X0075414Y0039128D01*
X0076832Y0038541D01*
X0079020Y0038541D01*
X0081041Y0039378D01*
X0082588Y0040925D01*
X0083426Y0042947D01*
X0083426Y0045135D01*
X0082588Y0047156D01*
X0081041Y0048704D01*
X0079020Y0049541D01*
X0076832Y0049541D01*
X0074810Y0048704D01*
X0073263Y0047156D01*
X0072976Y0046463D01*
X0072976Y0050166D01*
X0054776Y0068366D01*
X0053692Y0069450D01*
X0027372Y0069450D01*
X0027626Y0070063D01*
X0027626Y0071137D01*
X0027215Y0072129D01*
X0026455Y0072889D01*
X0025463Y0073300D01*
X0024389Y0073300D01*
X0023396Y0072889D01*
X0022637Y0072129D01*
X0022279Y0071265D01*
X0021655Y0071889D01*
X0020663Y0072300D01*
X0019589Y0072300D01*
X0018596Y0071889D01*
X0018426Y0071718D01*
X0018426Y0081100D01*
X0123072Y0081100D01*
X0122517Y0080546D01*
X0121726Y0078634D01*
X0121726Y0076566D01*
X0122517Y0074654D01*
X0123980Y0073192D01*
X0125076Y0072738D01*
X0125076Y0072234D01*
X0137026Y0060284D01*
X0137026Y0059663D01*
X0137437Y0058671D01*
X0138196Y0057911D01*
X0139189Y0057500D01*
X0139809Y0057500D01*
X0145276Y0052034D01*
X0145276Y0052034D01*
X0146359Y0050950D01*
X0172559Y0050950D01*
X0173959Y0049550D01*
X0185659Y0049550D01*
X0180959Y0044850D01*
X0161159Y0044850D01*
X0151576Y0035266D01*
X0151576Y0039632D01*
X0151815Y0039871D01*
X0152226Y0040863D01*
X0152226Y0041937D01*
X0151815Y0042929D01*
X0151055Y0043689D01*
X0150063Y0044100D01*
X0148989Y0044100D01*
X0147996Y0043689D01*
X0147237Y0042929D01*
X0147054Y0042490D01*
X0146655Y0042889D01*
X0145663Y0043300D01*
X0144589Y0043300D01*
X0143596Y0042889D01*
X0142837Y0042129D01*
X0142426Y0041137D01*
X0142426Y0040063D01*
X0142837Y0039071D01*
X0143596Y0038311D01*
X0144589Y0037900D01*
X0145663Y0037900D01*
X0146655Y0038311D01*
X0147415Y0039071D01*
X0147597Y0039510D01*
X0147876Y0039232D01*
X0147876Y0034766D01*
X0147759Y0034650D01*
X0123959Y0034650D01*
X0122876Y0033566D01*
X0122126Y0032816D01*
X0122126Y0033634D01*
X0121334Y0035546D01*
X0119871Y0037008D01*
X0118443Y0037600D01*
X0119871Y0038192D01*
X0121334Y0039654D01*
X0122126Y0041566D01*
X0122126Y0043634D01*
X0121334Y0045546D01*
X0119871Y0047008D01*
X0118443Y0047600D01*
X0119871Y0048192D01*
X0121334Y0049654D01*
X0122126Y0051566D01*
X0122126Y0053634D01*
X0121334Y0055546D01*
X0119871Y0057008D01*
X0118926Y0057400D01*
X0120823Y0057400D01*
X0121205Y0057502D01*
X0121547Y0057700D01*
X0121826Y0057979D01*
X0122023Y0058321D01*
X0122126Y0058703D01*
X0122126Y0062100D01*
X0122126Y0061527D02*
X0135782Y0061527D01*
X0136781Y0060529D02*
X0122126Y0060529D01*
X0122126Y0059530D02*
X0137081Y0059530D01*
X0137576Y0058532D02*
X0122080Y0058532D01*
X0121258Y0057533D02*
X0139109Y0057533D01*
X0140775Y0056534D02*
X0120345Y0056534D01*
X0121338Y0055536D02*
X0141773Y0055536D01*
X0142772Y0054537D02*
X0121752Y0054537D01*
X0122126Y0053539D02*
X0143770Y0053539D01*
X0144769Y0052540D02*
X0122126Y0052540D01*
X0122116Y0051542D02*
X0145767Y0051542D01*
X0160862Y0044552D02*
X0121745Y0044552D01*
X0122126Y0043554D02*
X0147861Y0043554D01*
X0147082Y0042555D02*
X0146989Y0042555D01*
X0143263Y0042555D02*
X0122126Y0042555D01*
X0122122Y0041557D02*
X0142599Y0041557D01*
X0142426Y0040558D02*
X0121708Y0040558D01*
X0121239Y0039560D02*
X0142634Y0039560D01*
X0143346Y0038561D02*
X0120241Y0038561D01*
X0118533Y0037563D02*
X0147876Y0037563D01*
X0147876Y0038561D02*
X0146905Y0038561D01*
X0151576Y0038561D02*
X0154871Y0038561D01*
X0155869Y0039560D02*
X0151576Y0039560D01*
X0152099Y0040558D02*
X0156868Y0040558D01*
X0157866Y0041557D02*
X0152226Y0041557D01*
X0151969Y0042555D02*
X0158865Y0042555D01*
X0159863Y0043554D02*
X0151190Y0043554D01*
X0151576Y0037563D02*
X0153872Y0037563D01*
X0152874Y0036564D02*
X0151576Y0036564D01*
X0151576Y0035566D02*
X0151875Y0035566D01*
X0147876Y0035566D02*
X0121314Y0035566D01*
X0121739Y0034567D02*
X0123877Y0034567D01*
X0122878Y0033569D02*
X0122126Y0033569D01*
X0120315Y0036564D02*
X0147876Y0036564D01*
X0156792Y0024450D02*
X0165042Y0032700D01*
X0165663Y0032700D01*
X0166655Y0033111D01*
X0167415Y0033871D01*
X0167613Y0034350D01*
X0172057Y0034350D01*
X0172037Y0034329D01*
X0171626Y0033337D01*
X0171626Y0032263D01*
X0172037Y0031271D01*
X0172796Y0030511D01*
X0173789Y0030100D01*
X0174863Y0030100D01*
X0175855Y0030511D01*
X0176615Y0031271D01*
X0177026Y0032263D01*
X0177026Y0033337D01*
X0176615Y0034329D01*
X0176594Y0034350D01*
X0189962Y0034350D01*
X0189626Y0033537D01*
X0189626Y0032463D01*
X0190037Y0031471D01*
X0190057Y0031450D01*
X0177959Y0031450D01*
X0174159Y0027650D01*
X0170159Y0027650D01*
X0169076Y0026566D01*
X0168759Y0026250D01*
X0163159Y0026250D01*
X0162076Y0025166D01*
X0161359Y0024450D01*
X0156792Y0024450D01*
X0156924Y0024582D02*
X0161491Y0024582D01*
X0162490Y0025581D02*
X0157923Y0025581D01*
X0158921Y0026579D02*
X0169088Y0026579D01*
X0170087Y0027578D02*
X0159920Y0027578D01*
X0160918Y0028576D02*
X0175085Y0028576D01*
X0176084Y0029575D02*
X0161917Y0029575D01*
X0162915Y0030573D02*
X0172734Y0030573D01*
X0171912Y0031572D02*
X0163914Y0031572D01*
X0164912Y0032570D02*
X0171626Y0032570D01*
X0171722Y0033569D02*
X0167113Y0033569D01*
X0176930Y0033569D02*
X0189639Y0033569D01*
X0189626Y0032570D02*
X0177026Y0032570D01*
X0176739Y0031572D02*
X0189995Y0031572D01*
X0203120Y0027578D02*
X0205426Y0027578D01*
X0205426Y0027463D02*
X0205837Y0026471D01*
X0206596Y0025711D01*
X0207589Y0025300D01*
X0208663Y0025300D01*
X0209655Y0025711D01*
X0210415Y0026471D01*
X0210826Y0027463D01*
X0210826Y0028537D01*
X0210415Y0029529D01*
X0209655Y0030289D01*
X0208663Y0030700D01*
X0207589Y0030700D01*
X0206596Y0030289D01*
X0205837Y0029529D01*
X0205426Y0028537D01*
X0205426Y0027463D01*
X0205792Y0026579D02*
X0202121Y0026579D01*
X0201123Y0025581D02*
X0206911Y0025581D01*
X0209340Y0025581D02*
X0212276Y0025581D01*
X0212276Y0026579D02*
X0210459Y0026579D01*
X0210826Y0027578D02*
X0212276Y0027578D01*
X0212276Y0028576D02*
X0210809Y0028576D01*
X0210369Y0029575D02*
X0212276Y0029575D01*
X0212276Y0030573D02*
X0208969Y0030573D01*
X0207282Y0030573D02*
X0205576Y0030573D01*
X0205576Y0030034D02*
X0205576Y0037234D01*
X0209642Y0041300D01*
X0210263Y0041300D01*
X0211255Y0041711D01*
X0212015Y0042471D01*
X0212426Y0043463D01*
X0212426Y0044537D01*
X0212015Y0045529D01*
X0211255Y0046289D01*
X0210263Y0046700D01*
X0209558Y0046700D01*
X0209626Y0046863D01*
X0209626Y0047937D01*
X0209215Y0048929D01*
X0208455Y0049689D01*
X0207463Y0050100D01*
X0206826Y0050100D01*
X0206826Y0050537D01*
X0206415Y0051529D01*
X0205655Y0052289D01*
X0204663Y0052700D01*
X0204642Y0052700D01*
X0206292Y0054350D01*
X0208557Y0054350D01*
X0208996Y0053911D01*
X0209989Y0053500D01*
X0211063Y0053500D01*
X0212055Y0053911D01*
X0212815Y0054671D01*
X0213221Y0055652D01*
X0213589Y0055500D01*
X0214663Y0055500D01*
X0215655Y0055911D01*
X0216415Y0056671D01*
X0216826Y0057663D01*
X0216826Y0058737D01*
X0216489Y0059550D01*
X0217959Y0059550D01*
X0220226Y0057284D01*
X0220226Y0057116D01*
X0217676Y0054566D01*
X0217676Y0044963D01*
X0216863Y0045300D01*
X0215789Y0045300D01*
X0214796Y0044889D01*
X0214037Y0044129D01*
X0213626Y0043137D01*
X0213626Y0042063D01*
X0214037Y0041071D01*
X0214796Y0040311D01*
X0215789Y0039900D01*
X0216863Y0039900D01*
X0217676Y0040237D01*
X0217676Y0026834D01*
X0218759Y0025750D01*
X0220059Y0024450D01*
X0215976Y0024450D01*
X0215976Y0035632D01*
X0216415Y0036071D01*
X0216826Y0037063D01*
X0216826Y0038137D01*
X0216415Y0039129D01*
X0215655Y0039889D01*
X0214663Y0040300D01*
X0213589Y0040300D01*
X0212596Y0039889D01*
X0211837Y0039129D01*
X0211426Y0038137D01*
X0211426Y0037063D01*
X0211837Y0036071D01*
X0212276Y0035632D01*
X0212276Y0024450D01*
X0199992Y0024450D01*
X0204492Y0028950D01*
X0205576Y0030034D01*
X0205882Y0029575D02*
X0205117Y0029575D01*
X0205442Y0028576D02*
X0204118Y0028576D01*
X0205576Y0031572D02*
X0212276Y0031572D01*
X0212276Y0032570D02*
X0205576Y0032570D01*
X0205576Y0033569D02*
X0212276Y0033569D01*
X0212276Y0034567D02*
X0205576Y0034567D01*
X0205576Y0035566D02*
X0212276Y0035566D01*
X0211632Y0036564D02*
X0205576Y0036564D01*
X0205905Y0037563D02*
X0211426Y0037563D01*
X0211601Y0038561D02*
X0206903Y0038561D01*
X0207902Y0039560D02*
X0212267Y0039560D01*
X0210883Y0041557D02*
X0213835Y0041557D01*
X0213626Y0042555D02*
X0212050Y0042555D01*
X0212426Y0043554D02*
X0213798Y0043554D01*
X0214460Y0044552D02*
X0212419Y0044552D01*
X0211993Y0045551D02*
X0217676Y0045551D01*
X0217676Y0046549D02*
X0210626Y0046549D01*
X0209626Y0047548D02*
X0217676Y0047548D01*
X0217676Y0048546D02*
X0209373Y0048546D01*
X0208599Y0049545D02*
X0217676Y0049545D01*
X0217676Y0050543D02*
X0206823Y0050543D01*
X0206402Y0051542D02*
X0217676Y0051542D01*
X0217676Y0052540D02*
X0205048Y0052540D01*
X0205481Y0053539D02*
X0209894Y0053539D01*
X0211157Y0053539D02*
X0217676Y0053539D01*
X0217676Y0054537D02*
X0212681Y0054537D01*
X0213173Y0055536D02*
X0213502Y0055536D01*
X0214750Y0055536D02*
X0218645Y0055536D01*
X0219644Y0056534D02*
X0216278Y0056534D01*
X0216772Y0057533D02*
X0219976Y0057533D01*
X0218978Y0058532D02*
X0216826Y0058532D01*
X0216497Y0059530D02*
X0217979Y0059530D01*
X0221215Y0061527D02*
X0232076Y0061527D01*
X0232076Y0060529D02*
X0222213Y0060529D01*
X0222842Y0059900D02*
X0220576Y0062166D01*
X0219492Y0063250D01*
X0205359Y0063250D01*
X0204276Y0062166D01*
X0199327Y0057217D01*
X0198655Y0057889D01*
X0197663Y0058300D01*
X0196589Y0058300D01*
X0195596Y0057889D01*
X0195157Y0057450D01*
X0195137Y0057450D01*
X0195226Y0057663D01*
X0195226Y0058737D01*
X0194815Y0059729D01*
X0194055Y0060489D01*
X0193063Y0060900D01*
X0191989Y0060900D01*
X0190996Y0060489D01*
X0190557Y0060050D01*
X0159492Y0060050D01*
X0148776Y0070766D01*
X0148776Y0072738D01*
X0149871Y0073192D01*
X0151334Y0074654D01*
X0151926Y0076083D01*
X0152517Y0074654D01*
X0153980Y0073192D01*
X0155891Y0072400D01*
X0157960Y0072400D01*
X0159871Y0073192D01*
X0161334Y0074654D01*
X0161926Y0076083D01*
X0162517Y0074654D01*
X0163980Y0073192D01*
X0165891Y0072400D01*
X0167960Y0072400D01*
X0169871Y0073192D01*
X0171334Y0074654D01*
X0171926Y0076083D01*
X0172517Y0074654D01*
X0173980Y0073192D01*
X0175891Y0072400D01*
X0177960Y0072400D01*
X0179871Y0073192D01*
X0181334Y0074654D01*
X0181926Y0076083D01*
X0182517Y0074654D01*
X0183980Y0073192D01*
X0185891Y0072400D01*
X0187960Y0072400D01*
X0189871Y0073192D01*
X0191334Y0074654D01*
X0191926Y0076083D01*
X0192517Y0074654D01*
X0193980Y0073192D01*
X0195891Y0072400D01*
X0197960Y0072400D01*
X0199871Y0073192D01*
X0201334Y0074654D01*
X0201926Y0076083D01*
X0202517Y0074654D01*
X0203980Y0073192D01*
X0205891Y0072400D01*
X0207960Y0072400D01*
X0209871Y0073192D01*
X0211334Y0074654D01*
X0211926Y0076083D01*
X0212517Y0074654D01*
X0213980Y0073192D01*
X0215891Y0072400D01*
X0217960Y0072400D01*
X0219871Y0073192D01*
X0221334Y0074654D01*
X0221926Y0076083D01*
X0222517Y0074654D01*
X0223980Y0073192D01*
X0225891Y0072400D01*
X0227960Y0072400D01*
X0229871Y0073192D01*
X0231334Y0074654D01*
X0231926Y0076083D01*
X0232517Y0074654D01*
X0233980Y0073192D01*
X0234773Y0072863D01*
X0233159Y0071250D01*
X0232076Y0070166D01*
X0232076Y0056766D01*
X0229009Y0053700D01*
X0228389Y0053700D01*
X0227396Y0053289D01*
X0226637Y0052529D01*
X0226226Y0051537D01*
X0226226Y0050463D01*
X0226637Y0049471D01*
X0227396Y0048711D01*
X0228389Y0048300D01*
X0229059Y0048300D01*
X0228826Y0047737D01*
X0228826Y0046663D01*
X0229237Y0045671D01*
X0229996Y0044911D01*
X0230989Y0044500D01*
X0232063Y0044500D01*
X0233055Y0044911D01*
X0233815Y0045671D01*
X0234226Y0046663D01*
X0234226Y0047737D01*
X0234007Y0048265D01*
X0243892Y0058150D01*
X0248892Y0058150D01*
X0257226Y0066484D01*
X0257226Y0053750D01*
X0256863Y0053900D01*
X0255789Y0053900D01*
X0254796Y0053489D01*
X0254037Y0052729D01*
X0253626Y0051737D01*
X0253626Y0050663D01*
X0254037Y0049671D01*
X0254796Y0048911D01*
X0255789Y0048500D01*
X0256863Y0048500D01*
X0257226Y0048650D01*
X0257226Y0048377D01*
X0257219Y0048370D01*
X0257226Y0047592D01*
X0257226Y0046813D01*
X0257232Y0046806D01*
X0257233Y0046796D01*
X0257788Y0046250D01*
X0258339Y0045700D01*
X0258348Y0045700D01*
X0258355Y0045693D01*
X0259134Y0045700D01*
X0259913Y0045700D01*
X0259919Y0045707D01*
X0281934Y0045900D01*
X0282713Y0045900D01*
X0282719Y0045907D01*
X0282729Y0045907D01*
X0283275Y0046463D01*
X0283826Y0047013D01*
X0283826Y0047023D01*
X0283832Y0047030D01*
X0283826Y0047808D01*
X0283826Y0051213D01*
X0292713Y0060100D01*
X0293826Y0061213D01*
X0293826Y0070787D01*
X0292713Y0071900D01*
X0283842Y0071900D01*
X0284796Y0072854D01*
X0285891Y0072400D01*
X0287960Y0072400D01*
X0289871Y0073192D01*
X0291334Y0074654D01*
X0291926Y0076083D01*
X0292517Y0074654D01*
X0293980Y0073192D01*
X0295891Y0072400D01*
X0297960Y0072400D01*
X0299871Y0073192D01*
X0301334Y0074654D01*
X0301940Y0076117D01*
X0302107Y0075604D01*
X0302478Y0074875D01*
X0302959Y0074212D01*
X0303538Y0073634D01*
X0304200Y0073153D01*
X0304929Y0072781D01*
X0305708Y0072528D01*
X0306426Y0072414D01*
X0306426Y0077100D01*
X0307426Y0077100D01*
X0307426Y0072414D01*
X0308143Y0072528D01*
X0308922Y0072781D01*
X0309651Y0073153D01*
X0310313Y0073634D01*
X0310892Y0074212D01*
X0311373Y0074875D01*
X0311745Y0075604D01*
X0311911Y0076117D01*
X0312517Y0074654D01*
X0313980Y0073192D01*
X0315891Y0072400D01*
X0317960Y0072400D01*
X0319871Y0073192D01*
X0321334Y0074654D01*
X0322126Y0076566D01*
X0322126Y0078634D01*
X0321334Y0080546D01*
X0320779Y0081100D01*
X0355426Y0081100D01*
X0355426Y0079300D01*
X0342338Y0079300D01*
X0342326Y0079321D01*
X0342047Y0079600D01*
X0341705Y0079798D01*
X0341323Y0079900D01*
X0337626Y0079900D01*
X0337626Y0074900D01*
X0336626Y0074900D01*
X0336626Y0079900D01*
X0332928Y0079900D01*
X0332547Y0079798D01*
X0332205Y0079600D01*
X0331925Y0079321D01*
X0331728Y0078979D01*
X0331626Y0078597D01*
X0331626Y0074900D01*
X0336626Y0074900D01*
X0336626Y0073900D01*
X0337626Y0073900D01*
X0337626Y0068900D01*
X0341323Y0068900D01*
X0341705Y0069002D01*
X0342047Y0069200D01*
X0342147Y0069300D01*
X0355426Y0069300D01*
X0355426Y0065500D01*
X0340904Y0065500D01*
X0340464Y0065060D01*
X0340241Y0065283D01*
X0338220Y0066120D01*
X0336032Y0066120D01*
X0334010Y0065283D01*
X0332463Y0063736D01*
X0331626Y0061714D01*
X0331626Y0059526D01*
X0332463Y0057505D01*
X0334010Y0055958D01*
X0336032Y0055120D01*
X0338220Y0055120D01*
X0340241Y0055958D01*
X0340344Y0056060D01*
X0340904Y0055500D01*
X0355426Y0055500D01*
X0355426Y0014100D01*
X0320779Y0014100D01*
X0321334Y0014654D01*
X0322126Y0016566D01*
X0322126Y0018634D01*
X0321334Y0020546D01*
X0319871Y0022008D01*
X0317960Y0022800D01*
X0315891Y0022800D01*
X0313980Y0022008D01*
X0312517Y0020546D01*
X0311911Y0019083D01*
X0311745Y0019596D01*
X0311373Y0020325D01*
X0310892Y0020988D01*
X0310313Y0021566D01*
X0309651Y0022047D01*
X0308922Y0022419D01*
X0308143Y0022672D01*
X0307426Y0022786D01*
X0307426Y0018100D01*
X0306426Y0018100D01*
X0306426Y0022786D01*
X0305708Y0022672D01*
X0304929Y0022419D01*
X0304200Y0022047D01*
X0303538Y0021566D01*
X0302959Y0020988D01*
X0302478Y0020325D01*
X0302107Y0019596D01*
X0301940Y0019083D01*
X0301334Y0020546D01*
X0299871Y0022008D01*
X0297960Y0022800D01*
X0295891Y0022800D01*
X0293980Y0022008D01*
X0292517Y0020546D01*
X0291926Y0019117D01*
X0291334Y0020546D01*
X0289871Y0022008D01*
X0287960Y0022800D01*
X0285891Y0022800D01*
X0283980Y0022008D01*
X0282517Y0020546D01*
X0281926Y0019117D01*
X0281672Y0019730D01*
X0285692Y0023750D01*
X0322892Y0023750D01*
X0329242Y0030100D01*
X0329381Y0030100D01*
X0328902Y0029620D01*
X0328359Y0028309D01*
X0328359Y0026890D01*
X0328902Y0025579D01*
X0329905Y0024576D01*
X0331216Y0024033D01*
X0332635Y0024033D01*
X0333946Y0024576D01*
X0334949Y0025579D01*
X0335493Y0026890D01*
X0335493Y0028309D01*
X0334949Y0029620D01*
X0333946Y0030624D01*
X0332635Y0031167D01*
X0331511Y0031167D01*
X0331615Y0031271D01*
X0331880Y0031911D01*
X0332389Y0031700D01*
X0333463Y0031700D01*
X0334455Y0032111D01*
X0335215Y0032871D01*
X0335626Y0033863D01*
X0335626Y0034937D01*
X0335215Y0035929D01*
X0334544Y0036600D01*
X0334615Y0036671D01*
X0335026Y0037663D01*
X0335026Y0038737D01*
X0334615Y0039729D01*
X0333855Y0040489D01*
X0332863Y0040900D01*
X0331789Y0040900D01*
X0330796Y0040489D01*
X0330357Y0040050D01*
X0327359Y0040050D01*
X0317959Y0030650D01*
X0289097Y0030650D01*
X0289097Y0032645D01*
X0287242Y0034500D01*
X0287663Y0034500D01*
X0288655Y0034911D01*
X0289415Y0035671D01*
X0289826Y0036663D01*
X0289826Y0037737D01*
X0289415Y0038729D01*
X0288655Y0039489D01*
X0287663Y0039900D01*
X0286589Y0039900D01*
X0285596Y0039489D01*
X0284837Y0038729D01*
X0284426Y0037737D01*
X0284426Y0036850D01*
X0280759Y0036850D01*
X0278959Y0035050D01*
X0275855Y0035050D01*
X0276026Y0035463D01*
X0276026Y0036537D01*
X0275615Y0037529D01*
X0275444Y0037700D01*
X0275615Y0037871D01*
X0276026Y0038863D01*
X0276026Y0039937D01*
X0275615Y0040929D01*
X0274855Y0041689D01*
X0273863Y0042100D01*
X0272789Y0042100D01*
X0271796Y0041689D01*
X0271357Y0041250D01*
X0244096Y0041250D01*
X0243815Y0041929D01*
X0243055Y0042689D01*
X0242063Y0043100D01*
X0240989Y0043100D01*
X0239996Y0042689D01*
X0239237Y0041929D01*
X0238826Y0040937D01*
X0238826Y0039863D01*
X0239237Y0038871D01*
X0239996Y0038111D01*
X0240366Y0037958D01*
X0240026Y0037137D01*
X0240026Y0036063D01*
X0240437Y0035071D01*
X0241196Y0034311D01*
X0242189Y0033900D01*
X0243263Y0033900D01*
X0244255Y0034311D01*
X0245015Y0035071D01*
X0245296Y0035750D01*
X0266257Y0035750D01*
X0266237Y0035729D01*
X0265826Y0034737D01*
X0265826Y0033663D01*
X0265997Y0033250D01*
X0264159Y0033250D01*
X0263076Y0032166D01*
X0257759Y0026850D01*
X0222892Y0026850D01*
X0221376Y0028366D01*
X0221376Y0053034D01*
X0222842Y0054500D01*
X0223463Y0054500D01*
X0224455Y0054911D01*
X0225215Y0055671D01*
X0225626Y0056663D01*
X0225626Y0057737D01*
X0225215Y0058729D01*
X0224455Y0059489D01*
X0223463Y0059900D01*
X0222842Y0059900D01*
X0224356Y0059530D02*
X0232076Y0059530D01*
X0232076Y0058532D02*
X0225297Y0058532D01*
X0225626Y0057533D02*
X0232076Y0057533D01*
X0231844Y0056534D02*
X0225572Y0056534D01*
X0225080Y0055536D02*
X0230845Y0055536D01*
X0229847Y0054537D02*
X0223553Y0054537D01*
X0221881Y0053539D02*
X0228000Y0053539D01*
X0226648Y0052540D02*
X0221376Y0052540D01*
X0221376Y0051542D02*
X0226228Y0051542D01*
X0226226Y0050543D02*
X0221376Y0050543D01*
X0221376Y0049545D02*
X0226606Y0049545D01*
X0227794Y0048546D02*
X0221376Y0048546D01*
X0221376Y0047548D02*
X0228826Y0047548D01*
X0228873Y0046549D02*
X0221376Y0046549D01*
X0221376Y0045551D02*
X0229356Y0045551D01*
X0230862Y0044552D02*
X0221376Y0044552D01*
X0221376Y0043554D02*
X0289913Y0043554D01*
X0290055Y0043210D02*
X0292236Y0041030D01*
X0295084Y0039850D01*
X0298167Y0039850D01*
X0301016Y0041030D01*
X0303196Y0043210D01*
X0304376Y0046058D01*
X0304376Y0049142D01*
X0303196Y0051990D01*
X0301016Y0054170D01*
X0298167Y0055350D01*
X0295084Y0055350D01*
X0292236Y0054170D01*
X0290055Y0051990D01*
X0288876Y0049142D01*
X0288876Y0046058D01*
X0290055Y0043210D01*
X0290710Y0042555D02*
X0243189Y0042555D01*
X0243969Y0041557D02*
X0271664Y0041557D01*
X0274987Y0041557D02*
X0291709Y0041557D01*
X0293374Y0040558D02*
X0275768Y0040558D01*
X0276026Y0039560D02*
X0285767Y0039560D01*
X0284767Y0038561D02*
X0275901Y0038561D01*
X0275581Y0037563D02*
X0284426Y0037563D01*
X0280474Y0036564D02*
X0276014Y0036564D01*
X0276026Y0035566D02*
X0279475Y0035566D01*
X0287825Y0034567D02*
X0321877Y0034567D01*
X0322875Y0035566D02*
X0289310Y0035566D01*
X0289785Y0036564D02*
X0323874Y0036564D01*
X0324872Y0037563D02*
X0289826Y0037563D01*
X0289484Y0038561D02*
X0325871Y0038561D01*
X0326869Y0039560D02*
X0288484Y0039560D01*
X0299877Y0040558D02*
X0330964Y0040558D01*
X0333688Y0040558D02*
X0337211Y0040558D01*
X0337091Y0040849D02*
X0337574Y0039683D01*
X0338467Y0038790D01*
X0339633Y0038307D01*
X0340895Y0038307D01*
X0342062Y0038790D01*
X0342954Y0039683D01*
X0343437Y0040849D01*
X0343437Y0042112D01*
X0342954Y0043278D01*
X0342062Y0044170D01*
X0340895Y0044654D01*
X0339633Y0044654D01*
X0338467Y0044170D01*
X0337574Y0043278D01*
X0337091Y0042112D01*
X0337091Y0040849D01*
X0337091Y0041557D02*
X0301543Y0041557D01*
X0302541Y0042555D02*
X0337275Y0042555D01*
X0337850Y0043554D02*
X0303338Y0043554D01*
X0303752Y0044552D02*
X0339389Y0044552D01*
X0341140Y0044552D02*
X0355426Y0044552D01*
X0355426Y0043554D02*
X0342678Y0043554D01*
X0343254Y0042555D02*
X0355426Y0042555D01*
X0355426Y0041557D02*
X0343437Y0041557D01*
X0343317Y0040558D02*
X0355426Y0040558D01*
X0355426Y0039560D02*
X0342831Y0039560D01*
X0341509Y0038561D02*
X0355426Y0038561D01*
X0355426Y0037563D02*
X0334984Y0037563D01*
X0335026Y0038561D02*
X0339019Y0038561D01*
X0337697Y0039560D02*
X0334685Y0039560D01*
X0334580Y0036564D02*
X0355426Y0036564D01*
X0355426Y0035566D02*
X0335365Y0035566D01*
X0335626Y0034567D02*
X0355426Y0034567D01*
X0355426Y0033569D02*
X0335504Y0033569D01*
X0334914Y0032570D02*
X0355426Y0032570D01*
X0355426Y0031572D02*
X0331739Y0031572D01*
X0333997Y0030573D02*
X0355426Y0030573D01*
X0355426Y0029575D02*
X0341181Y0029575D01*
X0340895Y0029693D02*
X0339633Y0029693D01*
X0338467Y0029210D01*
X0337574Y0028317D01*
X0337091Y0027151D01*
X0337091Y0025888D01*
X0337574Y0024722D01*
X0338467Y0023830D01*
X0339633Y0023346D01*
X0340895Y0023346D01*
X0342062Y0023830D01*
X0342954Y0024722D01*
X0343437Y0025888D01*
X0343437Y0027151D01*
X0342954Y0028317D01*
X0342062Y0029210D01*
X0340895Y0029693D01*
X0339348Y0029575D02*
X0334968Y0029575D01*
X0335382Y0028576D02*
X0337833Y0028576D01*
X0337268Y0027578D02*
X0335493Y0027578D01*
X0335364Y0026579D02*
X0337091Y0026579D01*
X0337218Y0025581D02*
X0334950Y0025581D01*
X0333952Y0024582D02*
X0337714Y0024582D01*
X0339060Y0023584D02*
X0285525Y0023584D01*
X0285372Y0022585D02*
X0284527Y0022585D01*
X0283558Y0021587D02*
X0283528Y0021587D01*
X0282560Y0020588D02*
X0282530Y0020588D01*
X0282121Y0019590D02*
X0281730Y0019590D01*
X0288479Y0022585D02*
X0295372Y0022585D01*
X0293558Y0021587D02*
X0290293Y0021587D01*
X0291291Y0020588D02*
X0292560Y0020588D01*
X0292121Y0019590D02*
X0291730Y0019590D01*
X0298479Y0022585D02*
X0305441Y0022585D01*
X0306426Y0022585D02*
X0307426Y0022585D01*
X0308411Y0022585D02*
X0315372Y0022585D01*
X0313558Y0021587D02*
X0310285Y0021587D01*
X0311182Y0020588D02*
X0312560Y0020588D01*
X0312121Y0019590D02*
X0311747Y0019590D01*
X0307426Y0019590D02*
X0306426Y0019590D01*
X0306426Y0020588D02*
X0307426Y0020588D01*
X0307426Y0021587D02*
X0306426Y0021587D01*
X0303566Y0021587D02*
X0300293Y0021587D01*
X0301291Y0020588D02*
X0302669Y0020588D01*
X0302104Y0019590D02*
X0301730Y0019590D01*
X0306426Y0018591D02*
X0307426Y0018591D01*
X0318479Y0022585D02*
X0355426Y0022585D01*
X0355426Y0021587D02*
X0320293Y0021587D01*
X0321291Y0020588D02*
X0355426Y0020588D01*
X0355426Y0019590D02*
X0321730Y0019590D01*
X0322126Y0018591D02*
X0355426Y0018591D01*
X0355426Y0017593D02*
X0322126Y0017593D01*
X0322126Y0016594D02*
X0355426Y0016594D01*
X0355426Y0015596D02*
X0321724Y0015596D01*
X0321277Y0014597D02*
X0355426Y0014597D01*
X0355426Y0023584D02*
X0341468Y0023584D01*
X0342814Y0024582D02*
X0355426Y0024582D01*
X0355426Y0025581D02*
X0343310Y0025581D01*
X0343437Y0026579D02*
X0355426Y0026579D01*
X0355426Y0027578D02*
X0343261Y0027578D01*
X0342695Y0028576D02*
X0355426Y0028576D01*
X0329899Y0024582D02*
X0323724Y0024582D01*
X0324723Y0025581D02*
X0328901Y0025581D01*
X0328488Y0026579D02*
X0325721Y0026579D01*
X0326720Y0027578D02*
X0328359Y0027578D01*
X0328469Y0028576D02*
X0327718Y0028576D01*
X0328717Y0029575D02*
X0328883Y0029575D01*
X0318881Y0031572D02*
X0289097Y0031572D01*
X0289097Y0032570D02*
X0319880Y0032570D01*
X0320878Y0033569D02*
X0288173Y0033569D01*
X0266169Y0035566D02*
X0245220Y0035566D01*
X0244511Y0034567D02*
X0265826Y0034567D01*
X0265865Y0033569D02*
X0221376Y0033569D01*
X0221376Y0034567D02*
X0240940Y0034567D01*
X0240232Y0035566D02*
X0221376Y0035566D01*
X0221376Y0036564D02*
X0240026Y0036564D01*
X0240202Y0037563D02*
X0221376Y0037563D01*
X0221376Y0038561D02*
X0239546Y0038561D01*
X0238951Y0039560D02*
X0221376Y0039560D01*
X0221376Y0040558D02*
X0238826Y0040558D01*
X0239082Y0041557D02*
X0221376Y0041557D01*
X0221376Y0042555D02*
X0239863Y0042555D01*
X0240063Y0044900D02*
X0241055Y0045311D01*
X0241815Y0046071D01*
X0242226Y0047063D01*
X0242226Y0048137D01*
X0241815Y0049129D01*
X0241055Y0049889D01*
X0240063Y0050300D01*
X0238989Y0050300D01*
X0237996Y0049889D01*
X0237237Y0049129D01*
X0236826Y0048137D01*
X0236826Y0047063D01*
X0237237Y0046071D01*
X0237996Y0045311D01*
X0238989Y0044900D01*
X0240063Y0044900D01*
X0241295Y0045551D02*
X0289086Y0045551D01*
X0288876Y0046549D02*
X0283362Y0046549D01*
X0283828Y0047548D02*
X0288876Y0047548D01*
X0288876Y0048546D02*
X0283826Y0048546D01*
X0283826Y0049545D02*
X0289043Y0049545D01*
X0289456Y0050543D02*
X0283826Y0050543D01*
X0284155Y0051542D02*
X0289870Y0051542D01*
X0290606Y0052540D02*
X0285153Y0052540D01*
X0286152Y0053539D02*
X0291604Y0053539D01*
X0293122Y0054537D02*
X0287150Y0054537D01*
X0288149Y0055536D02*
X0320968Y0055536D01*
X0320968Y0054973D02*
X0321601Y0053445D01*
X0322771Y0052275D01*
X0324299Y0051643D01*
X0325953Y0051643D01*
X0327481Y0052275D01*
X0328650Y0053445D01*
X0329283Y0054973D01*
X0329283Y0056627D01*
X0328650Y0058155D01*
X0327481Y0059325D01*
X0325953Y0059957D01*
X0324299Y0059957D01*
X0322771Y0059325D01*
X0321601Y0058155D01*
X0320968Y0056627D01*
X0320968Y0054973D01*
X0321149Y0054537D02*
X0300129Y0054537D01*
X0301647Y0053539D02*
X0321562Y0053539D01*
X0322506Y0052540D02*
X0302645Y0052540D01*
X0303381Y0051542D02*
X0355426Y0051542D01*
X0355426Y0052540D02*
X0327746Y0052540D01*
X0328689Y0053539D02*
X0355426Y0053539D01*
X0355426Y0054537D02*
X0329103Y0054537D01*
X0329283Y0055536D02*
X0335028Y0055536D01*
X0333433Y0056534D02*
X0329283Y0056534D01*
X0328908Y0057533D02*
X0332451Y0057533D01*
X0332038Y0058532D02*
X0328274Y0058532D01*
X0326984Y0059530D02*
X0331626Y0059530D01*
X0331626Y0060529D02*
X0293141Y0060529D01*
X0293826Y0061527D02*
X0331626Y0061527D01*
X0331962Y0062526D02*
X0293826Y0062526D01*
X0293826Y0063524D02*
X0332375Y0063524D01*
X0333250Y0064523D02*
X0293826Y0064523D01*
X0293826Y0065521D02*
X0334585Y0065521D01*
X0339667Y0065521D02*
X0355426Y0065521D01*
X0355426Y0066520D02*
X0293826Y0066520D01*
X0293826Y0067518D02*
X0355426Y0067518D01*
X0355426Y0068517D02*
X0293826Y0068517D01*
X0293826Y0069515D02*
X0331904Y0069515D01*
X0331925Y0069479D02*
X0332205Y0069200D01*
X0332547Y0069002D01*
X0332928Y0068900D01*
X0336626Y0068900D01*
X0336626Y0073900D01*
X0331626Y0073900D01*
X0331626Y0070203D01*
X0331728Y0069821D01*
X0331925Y0069479D01*
X0331626Y0070514D02*
X0293826Y0070514D01*
X0293100Y0071512D02*
X0331626Y0071512D01*
X0331626Y0072511D02*
X0318227Y0072511D01*
X0320189Y0073509D02*
X0331626Y0073509D01*
X0336626Y0073509D02*
X0337626Y0073509D01*
X0337626Y0072511D02*
X0336626Y0072511D01*
X0336626Y0071512D02*
X0337626Y0071512D01*
X0337626Y0070514D02*
X0336626Y0070514D01*
X0336626Y0069515D02*
X0337626Y0069515D01*
X0336626Y0074508D02*
X0321187Y0074508D01*
X0321687Y0075506D02*
X0331626Y0075506D01*
X0331626Y0076505D02*
X0322100Y0076505D01*
X0322126Y0077503D02*
X0331626Y0077503D01*
X0331626Y0078502D02*
X0322126Y0078502D01*
X0321767Y0079500D02*
X0332105Y0079500D01*
X0336626Y0079500D02*
X0337626Y0079500D01*
X0337626Y0078502D02*
X0336626Y0078502D01*
X0336626Y0077503D02*
X0337626Y0077503D01*
X0337626Y0076505D02*
X0336626Y0076505D01*
X0336626Y0075506D02*
X0337626Y0075506D01*
X0342147Y0079500D02*
X0355426Y0079500D01*
X0355426Y0080499D02*
X0321353Y0080499D01*
X0307426Y0076505D02*
X0306426Y0076505D01*
X0306426Y0075506D02*
X0307426Y0075506D01*
X0307426Y0074508D02*
X0306426Y0074508D01*
X0306426Y0073509D02*
X0307426Y0073509D01*
X0307426Y0072511D02*
X0306426Y0072511D01*
X0305818Y0072511D02*
X0298227Y0072511D01*
X0300189Y0073509D02*
X0303709Y0073509D01*
X0302745Y0074508D02*
X0301187Y0074508D01*
X0301687Y0075506D02*
X0302156Y0075506D01*
X0310142Y0073509D02*
X0313662Y0073509D01*
X0312664Y0074508D02*
X0311106Y0074508D01*
X0311695Y0075506D02*
X0312164Y0075506D01*
X0315624Y0072511D02*
X0308034Y0072511D01*
X0295624Y0072511D02*
X0288227Y0072511D01*
X0290189Y0073509D02*
X0293662Y0073509D01*
X0292664Y0074508D02*
X0291187Y0074508D01*
X0291687Y0075506D02*
X0292164Y0075506D01*
X0285624Y0072511D02*
X0284453Y0072511D01*
X0257226Y0065521D02*
X0256263Y0065521D01*
X0257226Y0064523D02*
X0255264Y0064523D01*
X0254266Y0063524D02*
X0257226Y0063524D01*
X0257226Y0062526D02*
X0253267Y0062526D01*
X0252269Y0061527D02*
X0257226Y0061527D01*
X0257226Y0060529D02*
X0251270Y0060529D01*
X0250272Y0059530D02*
X0257226Y0059530D01*
X0257226Y0058532D02*
X0249273Y0058532D01*
X0243275Y0057533D02*
X0257226Y0057533D01*
X0257226Y0056534D02*
X0242276Y0056534D01*
X0241278Y0055536D02*
X0257226Y0055536D01*
X0257226Y0054537D02*
X0240279Y0054537D01*
X0239281Y0053539D02*
X0254917Y0053539D01*
X0253958Y0052540D02*
X0238282Y0052540D01*
X0237284Y0051542D02*
X0253626Y0051542D01*
X0253675Y0050543D02*
X0236285Y0050543D01*
X0235287Y0049545D02*
X0237652Y0049545D01*
X0236995Y0048546D02*
X0234288Y0048546D01*
X0234226Y0047548D02*
X0236826Y0047548D01*
X0237038Y0046549D02*
X0234179Y0046549D01*
X0233695Y0045551D02*
X0237756Y0045551D01*
X0242013Y0046549D02*
X0257484Y0046549D01*
X0257226Y0047548D02*
X0242226Y0047548D01*
X0242056Y0048546D02*
X0255676Y0048546D01*
X0256975Y0048546D02*
X0257226Y0048546D01*
X0254162Y0049545D02*
X0241399Y0049545D01*
X0232189Y0044552D02*
X0289499Y0044552D01*
X0304165Y0045551D02*
X0355426Y0045551D01*
X0355426Y0046549D02*
X0304376Y0046549D01*
X0304376Y0047548D02*
X0355426Y0047548D01*
X0355426Y0048546D02*
X0304376Y0048546D01*
X0304209Y0049545D02*
X0355426Y0049545D01*
X0355426Y0050543D02*
X0303795Y0050543D01*
X0289147Y0056534D02*
X0320968Y0056534D01*
X0321343Y0057533D02*
X0290146Y0057533D01*
X0291144Y0058532D02*
X0321978Y0058532D01*
X0323267Y0059530D02*
X0292143Y0059530D01*
X0339223Y0055536D02*
X0340868Y0055536D01*
X0263480Y0032570D02*
X0221376Y0032570D01*
X0221376Y0031572D02*
X0262481Y0031572D01*
X0261483Y0030573D02*
X0221376Y0030573D01*
X0221376Y0029575D02*
X0260484Y0029575D01*
X0259485Y0028576D02*
X0221376Y0028576D01*
X0222164Y0027578D02*
X0258487Y0027578D01*
X0219927Y0024582D02*
X0215976Y0024582D01*
X0215976Y0025581D02*
X0218929Y0025581D01*
X0217930Y0026579D02*
X0215976Y0026579D01*
X0215976Y0027578D02*
X0217676Y0027578D01*
X0217676Y0028576D02*
X0215976Y0028576D01*
X0215976Y0029575D02*
X0217676Y0029575D01*
X0217676Y0030573D02*
X0215976Y0030573D01*
X0215976Y0031572D02*
X0217676Y0031572D01*
X0217676Y0032570D02*
X0215976Y0032570D01*
X0215976Y0033569D02*
X0217676Y0033569D01*
X0217676Y0034567D02*
X0215976Y0034567D01*
X0215976Y0035566D02*
X0217676Y0035566D01*
X0217676Y0036564D02*
X0216619Y0036564D01*
X0216826Y0037563D02*
X0217676Y0037563D01*
X0217676Y0038561D02*
X0216650Y0038561D01*
X0215984Y0039560D02*
X0217676Y0039560D01*
X0214549Y0040558D02*
X0208900Y0040558D01*
X0185654Y0049545D02*
X0121224Y0049545D01*
X0121702Y0050543D02*
X0172966Y0050543D01*
X0182659Y0046549D02*
X0120330Y0046549D01*
X0121329Y0045551D02*
X0181660Y0045551D01*
X0183657Y0047548D02*
X0118569Y0047548D01*
X0120226Y0048546D02*
X0184656Y0048546D01*
X0195172Y0057533D02*
X0195240Y0057533D01*
X0195226Y0058532D02*
X0200641Y0058532D01*
X0201639Y0059530D02*
X0194897Y0059530D01*
X0193959Y0060529D02*
X0197720Y0060529D01*
X0197789Y0060500D02*
X0198863Y0060500D01*
X0199855Y0060911D01*
X0200615Y0061671D01*
X0201026Y0062663D01*
X0201026Y0063737D01*
X0200615Y0064729D01*
X0199855Y0065489D01*
X0198863Y0065900D01*
X0197789Y0065900D01*
X0196796Y0065489D01*
X0196037Y0064729D01*
X0195626Y0063737D01*
X0195626Y0062663D01*
X0196037Y0061671D01*
X0196796Y0060911D01*
X0197789Y0060500D01*
X0198932Y0060529D02*
X0202638Y0060529D01*
X0203636Y0061527D02*
X0200471Y0061527D01*
X0200969Y0062526D02*
X0204635Y0062526D01*
X0204276Y0062166D02*
X0204276Y0062166D01*
X0201026Y0063524D02*
X0226649Y0063524D01*
X0226837Y0063071D02*
X0227596Y0062311D01*
X0228589Y0061900D01*
X0229663Y0061900D01*
X0230655Y0062311D01*
X0231415Y0063071D01*
X0231826Y0064063D01*
X0231826Y0065137D01*
X0231415Y0066129D01*
X0230655Y0066889D01*
X0229663Y0067300D01*
X0228589Y0067300D01*
X0227596Y0066889D01*
X0226837Y0066129D01*
X0226426Y0065137D01*
X0226426Y0064063D01*
X0226837Y0063071D01*
X0227382Y0062526D02*
X0220216Y0062526D01*
X0226426Y0064523D02*
X0200700Y0064523D01*
X0199777Y0065521D02*
X0226585Y0065521D01*
X0227227Y0066520D02*
X0162458Y0066520D01*
X0162089Y0066889D02*
X0162849Y0066129D01*
X0163260Y0065137D01*
X0163260Y0064063D01*
X0162849Y0063071D01*
X0162089Y0062311D01*
X0161097Y0061900D01*
X0160023Y0061900D01*
X0159030Y0062311D01*
X0158271Y0063071D01*
X0157860Y0064063D01*
X0157860Y0065137D01*
X0158271Y0066129D01*
X0159030Y0066889D01*
X0160023Y0067300D01*
X0161097Y0067300D01*
X0162089Y0066889D01*
X0163101Y0065521D02*
X0196874Y0065521D01*
X0195951Y0064523D02*
X0163260Y0064523D01*
X0163036Y0063524D02*
X0195626Y0063524D01*
X0195682Y0062526D02*
X0162304Y0062526D01*
X0158816Y0062526D02*
X0157016Y0062526D01*
X0156018Y0063524D02*
X0158083Y0063524D01*
X0157860Y0064523D02*
X0155019Y0064523D01*
X0154021Y0065521D02*
X0158019Y0065521D01*
X0158661Y0066520D02*
X0153022Y0066520D01*
X0152024Y0067518D02*
X0232076Y0067518D01*
X0232076Y0066520D02*
X0231024Y0066520D01*
X0231667Y0065521D02*
X0232076Y0065521D01*
X0232076Y0064523D02*
X0231826Y0064523D01*
X0231602Y0063524D02*
X0232076Y0063524D01*
X0232076Y0062526D02*
X0230870Y0062526D01*
X0232076Y0068517D02*
X0151025Y0068517D01*
X0150027Y0069515D02*
X0232076Y0069515D01*
X0232423Y0070514D02*
X0149028Y0070514D01*
X0148776Y0071512D02*
X0233421Y0071512D01*
X0234420Y0072511D02*
X0228227Y0072511D01*
X0230189Y0073509D02*
X0233662Y0073509D01*
X0232664Y0074508D02*
X0231187Y0074508D01*
X0231687Y0075506D02*
X0232164Y0075506D01*
X0223662Y0073509D02*
X0220189Y0073509D01*
X0221187Y0074508D02*
X0222664Y0074508D01*
X0222164Y0075506D02*
X0221687Y0075506D01*
X0213662Y0073509D02*
X0210189Y0073509D01*
X0211187Y0074508D02*
X0212664Y0074508D01*
X0212164Y0075506D02*
X0211687Y0075506D01*
X0203662Y0073509D02*
X0200189Y0073509D01*
X0201187Y0074508D02*
X0202664Y0074508D01*
X0202164Y0075506D02*
X0201687Y0075506D01*
X0193662Y0073509D02*
X0190189Y0073509D01*
X0191187Y0074508D02*
X0192664Y0074508D01*
X0192164Y0075506D02*
X0191687Y0075506D01*
X0183662Y0073509D02*
X0180189Y0073509D01*
X0181187Y0074508D02*
X0182664Y0074508D01*
X0182164Y0075506D02*
X0181687Y0075506D01*
X0178227Y0072511D02*
X0185624Y0072511D01*
X0188227Y0072511D02*
X0195624Y0072511D01*
X0198227Y0072511D02*
X0205624Y0072511D01*
X0208227Y0072511D02*
X0215624Y0072511D01*
X0218227Y0072511D02*
X0225624Y0072511D01*
X0196180Y0061527D02*
X0158015Y0061527D01*
X0159013Y0060529D02*
X0191092Y0060529D01*
X0199011Y0057533D02*
X0199642Y0057533D01*
X0175624Y0072511D02*
X0168227Y0072511D01*
X0170189Y0073509D02*
X0173662Y0073509D01*
X0172664Y0074508D02*
X0171187Y0074508D01*
X0171687Y0075506D02*
X0172164Y0075506D01*
X0163662Y0073509D02*
X0160189Y0073509D01*
X0161187Y0074508D02*
X0162664Y0074508D01*
X0162164Y0075506D02*
X0161687Y0075506D01*
X0153662Y0073509D02*
X0150189Y0073509D01*
X0151187Y0074508D02*
X0152664Y0074508D01*
X0152164Y0075506D02*
X0151687Y0075506D01*
X0148776Y0072511D02*
X0155624Y0072511D01*
X0158227Y0072511D02*
X0165624Y0072511D01*
X0132787Y0064523D02*
X0122126Y0064523D01*
X0122126Y0065521D02*
X0131788Y0065521D01*
X0130790Y0066520D02*
X0122120Y0066520D01*
X0121516Y0067518D02*
X0129791Y0067518D01*
X0128793Y0068517D02*
X0104531Y0068517D01*
X0104657Y0068642D02*
X0105076Y0069653D01*
X0105076Y0070747D01*
X0104657Y0071758D01*
X0103883Y0072531D01*
X0102873Y0072950D01*
X0101779Y0072950D01*
X0100768Y0072531D01*
X0099994Y0071758D01*
X0099576Y0070747D01*
X0099576Y0069653D01*
X0099994Y0068642D01*
X0100768Y0067869D01*
X0101779Y0067450D01*
X0102873Y0067450D01*
X0103883Y0067869D01*
X0104657Y0068642D01*
X0105018Y0069515D02*
X0127794Y0069515D01*
X0126796Y0070514D02*
X0105076Y0070514D01*
X0104759Y0071512D02*
X0125797Y0071512D01*
X0125076Y0072511D02*
X0103904Y0072511D01*
X0100747Y0072511D02*
X0083426Y0072511D01*
X0083426Y0072100D02*
X0083426Y0075797D01*
X0083323Y0076179D01*
X0083126Y0076521D01*
X0082847Y0076800D01*
X0082505Y0076998D01*
X0082123Y0077100D01*
X0078426Y0077100D01*
X0078426Y0072100D01*
X0083426Y0072100D01*
X0083426Y0071100D02*
X0078426Y0071100D01*
X0078426Y0072100D01*
X0077426Y0072100D01*
X0077426Y0077100D01*
X0073728Y0077100D01*
X0073347Y0076998D01*
X0073005Y0076800D01*
X0072725Y0076521D01*
X0072528Y0076179D01*
X0072426Y0075797D01*
X0072426Y0072100D01*
X0077426Y0072100D01*
X0077426Y0071100D01*
X0078426Y0071100D01*
X0078426Y0066100D01*
X0082123Y0066100D01*
X0082505Y0066202D01*
X0082847Y0066400D01*
X0083126Y0066679D01*
X0083323Y0067021D01*
X0083426Y0067403D01*
X0083426Y0071100D01*
X0083426Y0070514D02*
X0099576Y0070514D01*
X0099633Y0069515D02*
X0083426Y0069515D01*
X0083426Y0068517D02*
X0100120Y0068517D01*
X0101614Y0067518D02*
X0083426Y0067518D01*
X0082967Y0066520D02*
X0111732Y0066520D01*
X0111726Y0065521D02*
X0057621Y0065521D01*
X0058619Y0064523D02*
X0111726Y0064523D01*
X0111726Y0063524D02*
X0059618Y0063524D01*
X0060616Y0062526D02*
X0074913Y0062526D01*
X0074810Y0062483D02*
X0073263Y0060936D01*
X0072426Y0058914D01*
X0072426Y0056726D01*
X0073263Y0054705D01*
X0074810Y0053158D01*
X0076832Y0052320D01*
X0079020Y0052320D01*
X0081041Y0053158D01*
X0082588Y0054705D01*
X0083426Y0056726D01*
X0083426Y0058914D01*
X0082588Y0060936D01*
X0081041Y0062483D01*
X0079020Y0063320D01*
X0076832Y0063320D01*
X0074810Y0062483D01*
X0073854Y0061527D02*
X0061615Y0061527D01*
X0062613Y0060529D02*
X0073094Y0060529D01*
X0072681Y0059530D02*
X0063612Y0059530D01*
X0064610Y0058532D02*
X0072426Y0058532D01*
X0072426Y0057533D02*
X0065609Y0057533D01*
X0066607Y0056534D02*
X0072505Y0056534D01*
X0072919Y0055536D02*
X0067606Y0055536D01*
X0068604Y0054537D02*
X0073430Y0054537D01*
X0074429Y0053539D02*
X0069603Y0053539D01*
X0070601Y0052540D02*
X0076300Y0052540D01*
X0079551Y0052540D02*
X0095906Y0052540D01*
X0095355Y0051990D02*
X0094176Y0049142D01*
X0094176Y0046058D01*
X0095355Y0043210D01*
X0097536Y0041030D01*
X0100384Y0039850D01*
X0103467Y0039850D01*
X0106316Y0041030D01*
X0108496Y0043210D01*
X0109676Y0046058D01*
X0109676Y0049142D01*
X0108496Y0051990D01*
X0106316Y0054170D01*
X0103467Y0055350D01*
X0100384Y0055350D01*
X0097536Y0054170D01*
X0095355Y0051990D01*
X0095170Y0051542D02*
X0071600Y0051542D01*
X0072598Y0050543D02*
X0094756Y0050543D01*
X0094343Y0049545D02*
X0072976Y0049545D01*
X0072976Y0048546D02*
X0074653Y0048546D01*
X0073654Y0047548D02*
X0072976Y0047548D01*
X0072976Y0046549D02*
X0073011Y0046549D01*
X0069276Y0046549D02*
X0061992Y0046549D01*
X0060994Y0047548D02*
X0069276Y0047548D01*
X0069276Y0048546D02*
X0059995Y0048546D01*
X0058997Y0049545D02*
X0068364Y0049545D01*
X0069276Y0048634D02*
X0069276Y0040034D01*
X0069462Y0039847D01*
X0068596Y0039489D01*
X0067837Y0038729D01*
X0067426Y0037737D01*
X0067426Y0036663D01*
X0067837Y0035671D01*
X0068596Y0034911D01*
X0069589Y0034500D01*
X0070663Y0034500D01*
X0071655Y0034911D01*
X0072415Y0035671D01*
X0072773Y0036536D01*
X0074598Y0034712D01*
X0073263Y0033377D01*
X0072426Y0031355D01*
X0072426Y0029167D01*
X0073263Y0027146D01*
X0074810Y0025599D01*
X0076135Y0025050D01*
X0072692Y0025050D01*
X0067176Y0030566D01*
X0067176Y0041366D01*
X0053826Y0054716D01*
X0053826Y0055337D01*
X0053415Y0056329D01*
X0052655Y0057089D01*
X0051663Y0057500D01*
X0050589Y0057500D01*
X0049596Y0057089D01*
X0048837Y0056329D01*
X0048426Y0055337D01*
X0048426Y0054263D01*
X0048837Y0053271D01*
X0049596Y0052511D01*
X0050589Y0052100D01*
X0051209Y0052100D01*
X0063476Y0039834D01*
X0063476Y0036699D01*
X0063215Y0037329D01*
X0062455Y0038089D01*
X0061463Y0038500D01*
X0060389Y0038500D01*
X0059396Y0038089D01*
X0058637Y0037329D01*
X0058226Y0036337D01*
X0058226Y0035263D01*
X0058637Y0034271D01*
X0059396Y0033511D01*
X0060389Y0033100D01*
X0061463Y0033100D01*
X0062455Y0033511D01*
X0063215Y0034271D01*
X0063476Y0034901D01*
X0063476Y0029034D01*
X0064559Y0027950D01*
X0071159Y0021350D01*
X0073322Y0021350D01*
X0072517Y0020546D01*
X0071726Y0018634D01*
X0071726Y0016566D01*
X0072517Y0014654D01*
X0073072Y0014100D01*
X0018426Y0014100D01*
X0018426Y0067482D01*
X0018596Y0067311D01*
X0019589Y0066900D01*
X0020209Y0066900D01*
X0021359Y0065750D01*
X0022892Y0065750D01*
X0052159Y0065750D01*
X0069276Y0048634D01*
X0067366Y0050543D02*
X0057998Y0050543D01*
X0057000Y0051542D02*
X0066367Y0051542D01*
X0065369Y0052540D02*
X0056001Y0052540D01*
X0055003Y0053539D02*
X0064370Y0053539D01*
X0063372Y0054537D02*
X0054004Y0054537D01*
X0053743Y0055536D02*
X0062373Y0055536D01*
X0061375Y0056534D02*
X0053209Y0056534D01*
X0049042Y0056534D02*
X0018426Y0056534D01*
X0018426Y0055536D02*
X0048508Y0055536D01*
X0048426Y0054537D02*
X0018426Y0054537D01*
X0018426Y0053539D02*
X0048725Y0053539D01*
X0049567Y0052540D02*
X0018426Y0052540D01*
X0018426Y0051542D02*
X0051767Y0051542D01*
X0052766Y0050543D02*
X0018426Y0050543D01*
X0018426Y0049545D02*
X0053764Y0049545D01*
X0054763Y0048546D02*
X0018426Y0048546D01*
X0018426Y0047548D02*
X0055761Y0047548D01*
X0056760Y0046549D02*
X0018426Y0046549D01*
X0018426Y0045551D02*
X0057758Y0045551D01*
X0058757Y0044552D02*
X0018426Y0044552D01*
X0018426Y0043554D02*
X0059755Y0043554D01*
X0060754Y0042555D02*
X0018426Y0042555D01*
X0018426Y0041557D02*
X0061752Y0041557D01*
X0062751Y0040558D02*
X0018426Y0040558D01*
X0018426Y0039560D02*
X0063476Y0039560D01*
X0063476Y0038561D02*
X0056280Y0038561D01*
X0056455Y0038489D02*
X0055463Y0038900D01*
X0054389Y0038900D01*
X0053396Y0038489D01*
X0052637Y0037729D01*
X0052226Y0036737D01*
X0052226Y0035663D01*
X0052637Y0034671D01*
X0053396Y0033911D01*
X0054389Y0033500D01*
X0055463Y0033500D01*
X0056455Y0033911D01*
X0057215Y0034671D01*
X0057626Y0035663D01*
X0057626Y0036737D01*
X0057215Y0037729D01*
X0056455Y0038489D01*
X0057284Y0037563D02*
X0058870Y0037563D01*
X0058320Y0036564D02*
X0057626Y0036564D01*
X0057585Y0035566D02*
X0058226Y0035566D01*
X0058514Y0034567D02*
X0057111Y0034567D01*
X0055629Y0033569D02*
X0059338Y0033569D01*
X0062513Y0033569D02*
X0063476Y0033569D01*
X0063476Y0034567D02*
X0063337Y0034567D01*
X0067176Y0034567D02*
X0069426Y0034567D01*
X0070825Y0034567D02*
X0074453Y0034567D01*
X0073744Y0035566D02*
X0072310Y0035566D01*
X0073455Y0033569D02*
X0067176Y0033569D01*
X0067176Y0032570D02*
X0072929Y0032570D01*
X0072515Y0031572D02*
X0067176Y0031572D01*
X0067176Y0030573D02*
X0072426Y0030573D01*
X0072426Y0029575D02*
X0068167Y0029575D01*
X0069166Y0028576D02*
X0072670Y0028576D01*
X0073084Y0027578D02*
X0070164Y0027578D01*
X0071163Y0026579D02*
X0073830Y0026579D01*
X0074854Y0025581D02*
X0072161Y0025581D01*
X0067927Y0024582D02*
X0018426Y0024582D01*
X0018426Y0023584D02*
X0068926Y0023584D01*
X0069924Y0022585D02*
X0018426Y0022585D01*
X0018426Y0021587D02*
X0070923Y0021587D01*
X0072560Y0020588D02*
X0018426Y0020588D01*
X0018426Y0019590D02*
X0072121Y0019590D01*
X0071726Y0018591D02*
X0018426Y0018591D01*
X0018426Y0017593D02*
X0071726Y0017593D01*
X0071726Y0016594D02*
X0018426Y0016594D01*
X0018426Y0015596D02*
X0072127Y0015596D01*
X0072575Y0014597D02*
X0018426Y0014597D01*
X0018426Y0025581D02*
X0066929Y0025581D01*
X0065930Y0026579D02*
X0018426Y0026579D01*
X0018426Y0027578D02*
X0064932Y0027578D01*
X0063933Y0028576D02*
X0018426Y0028576D01*
X0018426Y0029575D02*
X0063476Y0029575D01*
X0063476Y0030573D02*
X0018426Y0030573D01*
X0018426Y0031572D02*
X0063476Y0031572D01*
X0063476Y0032570D02*
X0018426Y0032570D01*
X0018426Y0033569D02*
X0054223Y0033569D01*
X0052740Y0034567D02*
X0018426Y0034567D01*
X0018426Y0035566D02*
X0052266Y0035566D01*
X0052226Y0036564D02*
X0018426Y0036564D01*
X0018426Y0037563D02*
X0052568Y0037563D01*
X0053571Y0038561D02*
X0018426Y0038561D01*
X0062981Y0037563D02*
X0063476Y0037563D01*
X0067176Y0037563D02*
X0067426Y0037563D01*
X0067466Y0036564D02*
X0067176Y0036564D01*
X0067176Y0035566D02*
X0067941Y0035566D01*
X0067767Y0038561D02*
X0067176Y0038561D01*
X0067176Y0039560D02*
X0068767Y0039560D01*
X0069276Y0040558D02*
X0067176Y0040558D01*
X0066985Y0041557D02*
X0069276Y0041557D01*
X0069276Y0042555D02*
X0065987Y0042555D01*
X0064988Y0043554D02*
X0069276Y0043554D01*
X0069276Y0044552D02*
X0063990Y0044552D01*
X0062991Y0045551D02*
X0069276Y0045551D01*
X0081198Y0048546D02*
X0094176Y0048546D01*
X0094176Y0047548D02*
X0082197Y0047548D01*
X0082840Y0046549D02*
X0094176Y0046549D01*
X0094386Y0045551D02*
X0083253Y0045551D01*
X0083426Y0044552D02*
X0094799Y0044552D01*
X0095213Y0043554D02*
X0083426Y0043554D01*
X0083263Y0042555D02*
X0096010Y0042555D01*
X0097009Y0041557D02*
X0082850Y0041557D01*
X0082221Y0040558D02*
X0098674Y0040558D01*
X0105177Y0040558D02*
X0112143Y0040558D01*
X0111729Y0041557D02*
X0106843Y0041557D01*
X0107841Y0042555D02*
X0111726Y0042555D01*
X0111726Y0043554D02*
X0108638Y0043554D01*
X0109052Y0044552D02*
X0112106Y0044552D01*
X0112523Y0045551D02*
X0109465Y0045551D01*
X0109676Y0046549D02*
X0113521Y0046549D01*
X0113625Y0048546D02*
X0109676Y0048546D01*
X0109676Y0047548D02*
X0115283Y0047548D01*
X0112627Y0049545D02*
X0109509Y0049545D01*
X0109095Y0050543D02*
X0112149Y0050543D01*
X0111735Y0051542D02*
X0108681Y0051542D01*
X0107945Y0052540D02*
X0111726Y0052540D01*
X0111726Y0053539D02*
X0106947Y0053539D01*
X0105429Y0054537D02*
X0112100Y0054537D01*
X0112513Y0055536D02*
X0082932Y0055536D01*
X0083346Y0056534D02*
X0113506Y0056534D01*
X0112593Y0057533D02*
X0083426Y0057533D01*
X0083426Y0058532D02*
X0111771Y0058532D01*
X0111726Y0059530D02*
X0083171Y0059530D01*
X0082757Y0060529D02*
X0111726Y0060529D01*
X0111726Y0061527D02*
X0081997Y0061527D01*
X0080939Y0062526D02*
X0116426Y0062526D01*
X0116426Y0063524D02*
X0117426Y0063524D01*
X0117426Y0064523D02*
X0116426Y0064523D01*
X0116426Y0065521D02*
X0117426Y0065521D01*
X0117426Y0066520D02*
X0116426Y0066520D01*
X0116426Y0067518D02*
X0117426Y0067518D01*
X0112335Y0067518D02*
X0103037Y0067518D01*
X0099893Y0071512D02*
X0078426Y0071512D01*
X0078426Y0070514D02*
X0077426Y0070514D01*
X0077426Y0071100D02*
X0077426Y0066100D01*
X0073728Y0066100D01*
X0073347Y0066202D01*
X0073005Y0066400D01*
X0072725Y0066679D01*
X0072528Y0067021D01*
X0072426Y0067403D01*
X0072426Y0071100D01*
X0077426Y0071100D01*
X0077426Y0071512D02*
X0027470Y0071512D01*
X0027626Y0070514D02*
X0072426Y0070514D01*
X0072426Y0069515D02*
X0027399Y0069515D01*
X0026833Y0072511D02*
X0072426Y0072511D01*
X0072426Y0073509D02*
X0018426Y0073509D01*
X0018426Y0072511D02*
X0023018Y0072511D01*
X0022381Y0071512D02*
X0022032Y0071512D01*
X0018426Y0074508D02*
X0072426Y0074508D01*
X0072426Y0075506D02*
X0018426Y0075506D01*
X0018426Y0076505D02*
X0072716Y0076505D01*
X0077426Y0076505D02*
X0078426Y0076505D01*
X0078426Y0075506D02*
X0077426Y0075506D01*
X0077426Y0074508D02*
X0078426Y0074508D01*
X0078426Y0073509D02*
X0077426Y0073509D01*
X0077426Y0072511D02*
X0078426Y0072511D01*
X0083426Y0073509D02*
X0123662Y0073509D01*
X0122664Y0074508D02*
X0083426Y0074508D01*
X0083426Y0075506D02*
X0122164Y0075506D01*
X0121751Y0076505D02*
X0083135Y0076505D01*
X0078426Y0069515D02*
X0077426Y0069515D01*
X0077426Y0068517D02*
X0078426Y0068517D01*
X0078426Y0067518D02*
X0077426Y0067518D01*
X0077426Y0066520D02*
X0078426Y0066520D01*
X0072885Y0066520D02*
X0056622Y0066520D01*
X0055624Y0067518D02*
X0072426Y0067518D01*
X0072426Y0068517D02*
X0054625Y0068517D01*
X0052388Y0065521D02*
X0018426Y0065521D01*
X0018426Y0064523D02*
X0053387Y0064523D01*
X0054385Y0063524D02*
X0018426Y0063524D01*
X0018426Y0062526D02*
X0055384Y0062526D01*
X0056382Y0061527D02*
X0018426Y0061527D01*
X0018426Y0060529D02*
X0057381Y0060529D01*
X0058379Y0059530D02*
X0018426Y0059530D01*
X0018426Y0058532D02*
X0059378Y0058532D01*
X0060376Y0057533D02*
X0018426Y0057533D01*
X0018426Y0066520D02*
X0020590Y0066520D01*
X0018426Y0077503D02*
X0121726Y0077503D01*
X0121726Y0078502D02*
X0018426Y0078502D01*
X0018426Y0079500D02*
X0122084Y0079500D01*
X0122498Y0080499D02*
X0018426Y0080499D01*
X0081422Y0053539D02*
X0096904Y0053539D01*
X0098422Y0054537D02*
X0082421Y0054537D01*
X0081223Y0039560D02*
X0112612Y0039560D01*
X0113610Y0038561D02*
X0079069Y0038561D01*
X0076782Y0038561D02*
X0075981Y0038561D01*
X0082379Y0037563D02*
X0115319Y0037563D01*
X0113536Y0036564D02*
X0083378Y0036564D01*
X0084376Y0035566D02*
X0112537Y0035566D01*
X0112112Y0034567D02*
X0085375Y0034567D01*
X0086373Y0033569D02*
X0111726Y0033569D01*
X0111726Y0032570D02*
X0087372Y0032570D01*
X0088370Y0031572D02*
X0111726Y0031572D01*
X0112137Y0030573D02*
X0088776Y0030573D01*
X0088776Y0029575D02*
X0089282Y0029575D01*
X0092969Y0029575D02*
X0112597Y0029575D01*
X0113595Y0028576D02*
X0093644Y0028576D01*
X0175917Y0030573D02*
X0177083Y0030573D01*
X0200124Y0024582D02*
X0212276Y0024582D01*
D16*
X0208126Y0028000D03*
X0192326Y0033000D03*
X0180926Y0032600D03*
X0174326Y0032800D03*
X0165126Y0035400D03*
X0149526Y0041400D03*
X0145126Y0040600D03*
X0165326Y0046400D03*
X0180926Y0046400D03*
X0189526Y0048000D03*
X0192726Y0051400D03*
X0197126Y0055600D03*
X0192526Y0058200D03*
X0207126Y0053600D03*
X0210526Y0056200D03*
X0214126Y0058200D03*
X0222926Y0057200D03*
X0225926Y0054400D03*
X0228926Y0051000D03*
X0222326Y0049000D03*
X0231526Y0047200D03*
X0239526Y0047600D03*
X0251126Y0052000D03*
X0256326Y0051200D03*
X0273326Y0051000D03*
X0279126Y0051000D03*
X0274326Y0045200D03*
X0286926Y0043800D03*
X0273326Y0039400D03*
X0273326Y0036000D03*
X0268526Y0034200D03*
X0282926Y0032600D03*
X0294526Y0036200D03*
X0287126Y0037200D03*
X0253126Y0034200D03*
X0242726Y0036600D03*
X0241526Y0040400D03*
X0250526Y0043600D03*
X0224726Y0040000D03*
X0216326Y0042600D03*
X0209726Y0044000D03*
X0206926Y0047400D03*
X0200726Y0047800D03*
X0204126Y0050000D03*
X0195126Y0041000D03*
X0191526Y0041000D03*
X0209726Y0039000D03*
X0214126Y0037600D03*
X0149326Y0047600D03*
X0139726Y0060200D03*
X0160560Y0064600D03*
X0161926Y0068400D03*
X0198326Y0063200D03*
X0229126Y0064600D03*
X0237526Y0066400D03*
X0242326Y0066400D03*
X0246526Y0064800D03*
X0255926Y0063200D03*
X0273326Y0066600D03*
X0281926Y0064600D03*
X0331326Y0044400D03*
X0332326Y0038200D03*
X0332926Y0034400D03*
X0329326Y0032800D03*
X0120526Y0074400D03*
X0051126Y0054800D03*
X0038926Y0045200D03*
X0020526Y0044200D03*
X0054926Y0036200D03*
X0060926Y0035800D03*
X0070126Y0037200D03*
X0086926Y0027600D03*
X0091126Y0027600D03*
X0102126Y0029000D03*
X0019126Y0025800D03*
X0020126Y0069600D03*
X0024926Y0070600D03*
X0035726Y0070400D03*
X0035726Y0079200D03*
D17*
X0337126Y0074400D02*
X0345526Y0074400D01*
X0345126Y0060600D02*
X0337126Y0060600D01*
X0337126Y0060620D01*
D18*
X0345126Y0060600D02*
X0352526Y0060600D01*
X0352526Y0074400D02*
X0345526Y0074400D01*
D19*
X0102326Y0070200D03*
D20*
X0126926Y0073000D02*
X0139726Y0060200D01*
X0147126Y0052800D01*
X0173326Y0052800D01*
X0174726Y0051400D01*
X0192726Y0051400D01*
X0194326Y0054600D02*
X0176326Y0054600D01*
X0175126Y0055800D01*
X0151126Y0055800D01*
X0136926Y0070000D01*
X0136926Y0077600D01*
X0126926Y0077600D02*
X0126926Y0073000D01*
X0146926Y0070000D02*
X0158726Y0058200D01*
X0192526Y0058200D01*
X0195326Y0055600D02*
X0194326Y0054600D01*
X0195326Y0055600D02*
X0197126Y0055600D01*
X0205526Y0056200D02*
X0210526Y0056200D01*
X0213726Y0058600D02*
X0214126Y0058200D01*
X0213726Y0058600D02*
X0205726Y0058600D01*
X0192326Y0045200D01*
X0186326Y0045200D01*
X0182526Y0041400D01*
X0162726Y0041400D01*
X0150726Y0029400D01*
X0126326Y0029400D01*
X0119926Y0023000D01*
X0112326Y0023000D01*
X0106926Y0017600D01*
X0116926Y0017600D02*
X0127126Y0027800D01*
X0151326Y0027800D01*
X0163326Y0039800D01*
X0183126Y0039800D01*
X0186926Y0043600D01*
X0192926Y0043600D01*
X0205526Y0056200D01*
X0206126Y0061400D02*
X0192726Y0048000D01*
X0189526Y0048000D01*
X0186726Y0048000D01*
X0181726Y0043000D01*
X0161926Y0043000D01*
X0149926Y0031000D01*
X0125526Y0031000D01*
X0119126Y0024600D01*
X0110326Y0024600D01*
X0108526Y0022800D01*
X0082126Y0022800D01*
X0076926Y0017600D01*
X0080326Y0023200D02*
X0071926Y0023200D01*
X0065326Y0029800D01*
X0065326Y0040600D01*
X0051126Y0054800D01*
X0052926Y0067600D02*
X0071126Y0049400D01*
X0071126Y0040800D01*
X0075726Y0036200D01*
X0081126Y0036200D01*
X0086926Y0030400D01*
X0086926Y0027600D01*
X0087926Y0024400D02*
X0091126Y0027600D01*
X0092526Y0026200D01*
X0118126Y0026200D01*
X0124726Y0032800D01*
X0148526Y0032800D01*
X0149726Y0034000D01*
X0149726Y0041200D01*
X0149526Y0041400D01*
X0164126Y0038200D02*
X0188726Y0038200D01*
X0191526Y0041000D01*
X0195126Y0041000D02*
X0190326Y0036200D01*
X0165926Y0036200D01*
X0165126Y0035400D01*
X0154126Y0024400D01*
X0143726Y0024400D01*
X0136926Y0017600D01*
X0132326Y0023000D02*
X0126926Y0017600D01*
X0132326Y0023000D02*
X0139926Y0023000D01*
X0143126Y0026200D01*
X0152126Y0026200D01*
X0164126Y0038200D01*
X0174926Y0025800D02*
X0178726Y0029600D01*
X0194726Y0029600D01*
X0197926Y0032800D01*
X0197926Y0045000D01*
X0200726Y0047800D01*
X0204126Y0047400D02*
X0204126Y0050000D01*
X0204126Y0047400D02*
X0199726Y0043000D01*
X0199726Y0031600D01*
X0195926Y0027800D01*
X0179726Y0027800D01*
X0176126Y0024200D01*
X0171726Y0024200D01*
X0170126Y0022600D01*
X0164526Y0022600D01*
X0159526Y0017600D01*
X0156926Y0017600D01*
X0151926Y0022600D02*
X0146926Y0017600D01*
X0151926Y0022600D02*
X0162126Y0022600D01*
X0163926Y0024400D01*
X0169526Y0024400D01*
X0170926Y0025800D01*
X0174926Y0025800D01*
X0177326Y0022600D02*
X0180726Y0026000D01*
X0196326Y0026000D01*
X0201726Y0031400D01*
X0201726Y0042200D01*
X0206926Y0047400D01*
X0209726Y0044000D02*
X0203726Y0038000D01*
X0203726Y0030800D01*
X0197326Y0024400D01*
X0181726Y0024400D01*
X0176926Y0019600D01*
X0176926Y0017600D01*
X0172726Y0022600D02*
X0170326Y0020200D01*
X0169526Y0020200D01*
X0166926Y0017600D01*
X0172726Y0022600D02*
X0177326Y0022600D01*
X0186926Y0017600D02*
X0191926Y0022600D01*
X0214126Y0022600D01*
X0214126Y0037600D01*
X0219526Y0027600D02*
X0219526Y0053800D01*
X0222926Y0057200D01*
X0218726Y0061400D01*
X0206126Y0061400D01*
X0228926Y0051000D02*
X0233926Y0056000D01*
X0233926Y0069400D01*
X0236926Y0072400D01*
X0241726Y0072400D01*
X0246926Y0077600D01*
X0249526Y0070200D02*
X0256926Y0077600D01*
X0261526Y0072200D02*
X0266926Y0077600D01*
X0271526Y0072200D02*
X0276926Y0077600D01*
X0281526Y0072200D02*
X0286926Y0077600D01*
X0281526Y0072200D02*
X0274926Y0072200D01*
X0273126Y0070400D01*
X0265326Y0070400D01*
X0263326Y0068400D01*
X0256526Y0068400D01*
X0248126Y0060000D01*
X0243126Y0060000D01*
X0231526Y0048400D01*
X0231526Y0047200D01*
X0241526Y0040400D02*
X0242526Y0039400D01*
X0273326Y0039400D01*
X0271726Y0037600D02*
X0273326Y0036000D01*
X0271726Y0037600D02*
X0243726Y0037600D01*
X0242726Y0036600D01*
X0258526Y0025000D02*
X0264926Y0031400D01*
X0281726Y0031400D01*
X0282926Y0032600D01*
X0284126Y0035000D02*
X0287247Y0031879D01*
X0287247Y0028800D01*
X0318726Y0028800D01*
X0328126Y0038200D01*
X0332326Y0038200D01*
X0331726Y0035600D02*
X0327926Y0035600D01*
X0319526Y0027200D01*
X0276526Y0027200D01*
X0266926Y0017600D01*
X0276926Y0017600D02*
X0284926Y0025600D01*
X0322126Y0025600D01*
X0329326Y0032800D01*
X0331726Y0035600D02*
X0332926Y0034400D01*
X0287247Y0028800D02*
X0266526Y0028800D01*
X0260326Y0022600D01*
X0214126Y0022600D01*
X0219526Y0027600D02*
X0222126Y0025000D01*
X0258526Y0025000D01*
X0268526Y0034200D02*
X0269526Y0033200D01*
X0279726Y0033200D01*
X0281526Y0035000D01*
X0284126Y0035000D01*
X0249926Y0064800D02*
X0246526Y0064800D01*
X0249926Y0064800D02*
X0255526Y0070400D01*
X0262526Y0070400D01*
X0264326Y0072200D01*
X0271526Y0072200D01*
X0261526Y0072200D02*
X0254326Y0072200D01*
X0249926Y0067800D01*
X0243726Y0067800D01*
X0242326Y0066400D01*
X0241326Y0070200D02*
X0237526Y0066400D01*
X0241326Y0070200D02*
X0249526Y0070200D01*
X0146926Y0070000D02*
X0146926Y0077600D01*
X0052926Y0067600D02*
X0022126Y0067600D01*
X0020126Y0069600D01*
X0080326Y0023200D02*
X0081526Y0024400D01*
X0087926Y0024400D01*
D21*
X0259126Y0047600D02*
X0281926Y0047800D01*
X0281926Y0052000D01*
X0291926Y0062000D01*
X0291926Y0070000D01*
X0274635Y0070000D01*
X0273685Y0069050D01*
X0265885Y0069050D01*
X0263885Y0067050D01*
X0259126Y0067050D01*
X0259126Y0047600D01*
X0259126Y0047734D02*
X0274458Y0047734D01*
X0281926Y0048533D02*
X0259126Y0048533D01*
X0259126Y0049332D02*
X0281926Y0049332D01*
X0281926Y0050130D02*
X0259126Y0050130D01*
X0259126Y0050929D02*
X0281926Y0050929D01*
X0281926Y0051727D02*
X0259126Y0051727D01*
X0259126Y0052526D02*
X0282451Y0052526D01*
X0283250Y0053324D02*
X0259126Y0053324D01*
X0259126Y0054123D02*
X0284048Y0054123D01*
X0284847Y0054921D02*
X0259126Y0054921D01*
X0259126Y0055720D02*
X0285645Y0055720D01*
X0286444Y0056518D02*
X0259126Y0056518D01*
X0259126Y0057317D02*
X0287242Y0057317D01*
X0288041Y0058115D02*
X0259126Y0058115D01*
X0259126Y0058914D02*
X0288839Y0058914D01*
X0289638Y0059712D02*
X0259126Y0059712D01*
X0259126Y0060511D02*
X0290436Y0060511D01*
X0291235Y0061309D02*
X0259126Y0061309D01*
X0259126Y0062108D02*
X0291926Y0062108D01*
X0291926Y0062906D02*
X0259126Y0062906D01*
X0259126Y0063705D02*
X0291926Y0063705D01*
X0291926Y0064503D02*
X0259126Y0064503D01*
X0259126Y0065302D02*
X0291926Y0065302D01*
X0291926Y0066100D02*
X0259126Y0066100D01*
X0259126Y0066899D02*
X0291926Y0066899D01*
X0291926Y0067697D02*
X0264532Y0067697D01*
X0265331Y0068496D02*
X0291926Y0068496D01*
X0291926Y0069294D02*
X0273929Y0069294D01*
D22*
X0325126Y0055800D03*
D23*
X0331926Y0027600D03*
M02*
