%
M48
M72
T01C0.01200
T02C0.02756
T03C0.03346
T04C0.03543
T05C0.04000
T06C0.04724
T07C0.12500
%
T01
X44949Y29262
X40549Y48462
X58949Y49462
X72549Y44862
X80949Y40062
X90149Y41462
X106949Y31862
X111149Y31862
X122949Y33662
X161349Y58062
X169349Y51862
X169549Y45662
X165149Y44862
X183549Y53862
X185149Y39662
X191149Y37662
X196349Y37262
X200949Y50662
X209549Y52262
X212749Y55662
X217149Y59862
X212549Y62462
X218349Y67462
X227149Y57862
X230549Y60462
X234149Y62462
X224149Y54262
X226949Y51662
X229749Y48262
X229749Y43262
X234149Y41862
X236349Y46862
X242349Y53262
X245949Y58662
X242949Y61462
X248949Y55262
X251549Y51462
X259549Y51862
X261549Y44662
X262749Y40862
X270549Y47862
X271149Y56262
X276349Y55462
X275949Y67462
X266549Y69062
X262349Y70662
X257549Y70662
X249149Y68862
X244749Y44262
X228149Y32262
X215149Y45262
X211549Y45262
X212349Y37262
X220749Y52062
X184549Y72462
X180583Y68862
X191149Y109162
X185149Y111162
X196349Y108762
X200949Y122162
X209549Y123762
X212749Y127162
X217149Y131362
X212549Y133962
X218349Y138962
X227149Y129362
X230549Y131962
X234149Y133962
X224149Y125762
X226949Y123162
X229749Y119762
X229749Y114762
X234149Y113362
X236349Y118362
X242349Y124762
X245949Y130162
X242949Y132962
X248949Y126762
X251549Y122962
X259549Y123362
X261549Y116162
X262749Y112362
X270549Y119362
X276349Y126962
X271149Y127762
X275949Y138962
X266549Y140562
X262349Y142162
X257549Y142162
X249149Y140362
X244749Y115762
X228149Y103762
X215149Y116762
X211549Y116762
X212349Y108762
X220749Y123562
X183549Y125362
X169349Y123362
X169549Y117162
X165149Y116362
X161349Y129562
X180583Y140362
X184549Y143962
X191149Y180662
X185149Y182662
X196349Y180262
X200949Y193662
X209549Y195262
X212749Y198662
X217149Y202862
X212549Y205462
X218349Y210462
X227149Y200862
X230549Y203462
X234149Y205462
X224149Y197262
X226949Y194662
X229749Y191262
X229749Y186262
X234149Y184862
X236349Y189862
X242349Y196262
X245949Y201662
X242949Y204462
X249149Y211862
X257549Y213662
X262349Y213662
X266549Y212062
X275949Y210462
X276349Y198462
X271149Y199262
X270549Y190862
X261549Y187662
X262749Y183862
X273149Y181462
X259549Y194862
X251549Y194462
X248949Y198262
X244749Y187262
X228149Y175262
X215149Y188262
X211549Y188262
X212349Y180262
X220749Y195062
X183549Y196862
X180583Y211862
X184549Y215462
X169349Y194862
X169549Y188662
X165149Y187862
X161349Y201062
X122949Y176662
X111149Y174862
X106949Y174862
X90149Y184462
X80949Y183062
X72549Y187862
X74149Y202062
X64949Y211262
X54149Y217262
X40149Y216862
X40549Y191462
X58949Y192462
X44949Y172262
X40149Y145362
X54149Y145762
X64949Y139762
X74149Y130562
X72549Y116362
X80949Y111562
X90149Y112962
X106949Y103362
X111149Y103362
X122949Y105162
X76349Y79462
X76549Y73462
X64949Y68262
X54149Y74262
X40149Y73862
X44949Y100762
X40549Y119962
X58949Y120962
X76549Y144962
X76349Y150962
X76549Y216462
X76349Y222462
X80949Y254562
X72549Y259362
X58949Y263962
X74149Y273562
X64949Y282762
X54149Y288762
X40149Y288362
X40549Y262962
X44949Y243762
X76549Y287962
X76349Y293962
X80949Y326062
X72549Y330862
X58949Y335462
X74149Y345062
X64949Y354262
X54149Y360262
X40149Y359862
X40549Y334462
X44949Y315262
X76549Y359462
X76349Y365462
X90149Y327462
X106949Y317862
X111149Y317862
X122949Y319662
X161349Y344062
X169349Y337862
X169549Y331662
X165149Y330862
X183549Y339862
X185149Y325662
X191149Y323662
X196349Y323262
X200949Y336662
X209549Y338262
X212749Y341662
X217149Y345862
X212549Y348462
X218349Y353462
X227149Y343862
X230549Y346462
X234149Y348462
X224149Y340262
X226949Y337662
X229749Y334262
X229749Y329262
X234149Y327862
X236349Y332862
X242349Y339262
X248949Y341262
X245949Y344662
X242949Y347462
X249149Y354862
X257549Y356662
X262349Y356662
X266549Y355062
X275949Y353462
X276349Y341462
X271149Y342262
X270549Y333862
X261549Y330662
X262749Y326862
X273149Y324462
X259549Y337862
X251549Y337462
X244749Y330262
X228149Y318262
X215149Y331262
X211549Y331262
X212349Y323262
X220749Y338062
X184549Y358462
X180583Y354862
X184549Y286962
X180583Y283362
X183549Y268362
X185149Y254162
X191149Y252162
X196349Y251762
X200949Y265162
X209549Y266762
X212749Y270162
X217149Y274362
X212549Y276962
X218349Y281962
X227149Y272362
X230549Y274962
X234149Y276962
X224149Y268762
X226949Y266162
X229749Y262762
X229749Y257762
X234149Y256362
X236349Y261362
X242349Y267762
X248949Y269762
X245949Y273162
X242949Y275962
X249149Y283362
X257549Y285162
X262349Y285162
X266549Y283562
X275949Y281962
X276349Y269962
X271149Y270762
X270549Y262362
X261549Y259162
X262749Y255362
X273149Y252962
X259549Y266362
X251549Y265962
X244749Y258762
X228149Y246762
X215149Y259762
X211549Y259762
X212349Y251762
X220749Y266562
X169349Y266362
X169549Y260162
X165149Y259362
X161349Y272562
X122949Y248162
X111149Y246362
X106949Y246362
X90149Y255962
X273149Y109962
X288549Y109962
X293349Y111762
X293349Y115162
X294349Y120962
X293349Y126762
X299149Y126762
X306949Y119562
X307149Y112962
X302949Y108362
X314549Y111962
X301949Y140362
X293349Y142362
X302949Y179862
X307149Y184462
X306949Y191062
X299149Y198262
X293349Y198262
X294349Y192462
X293349Y186662
X293349Y183262
X288549Y181462
X314549Y183462
X301949Y211862
X293349Y213862
X302949Y251362
X307149Y255962
X306949Y262562
X299149Y269762
X293349Y269762
X294349Y263962
X293349Y258162
X293349Y254762
X288549Y252962
X314549Y254962
X301949Y283362
X293349Y285362
X302949Y322862
X307149Y327462
X306949Y334062
X299149Y341262
X293349Y341262
X294349Y335462
X293349Y329662
X293349Y326262
X288549Y324462
X314549Y326462
X301949Y354862
X293349Y356862
X349349Y323062
X352949Y324662
X352349Y328462
X351349Y334662
X351349Y263162
X352349Y256962
X352949Y253162
X349349Y251562
X351349Y191662
X352349Y185462
X352949Y181662
X349349Y180062
X351349Y120162
X352349Y113962
X352949Y110162
X349349Y108562
X301949Y68862
X293349Y70862
X293349Y55262
X299149Y55262
X294349Y49462
X293349Y43662
X293349Y40262
X288549Y38462
X302949Y36862
X307149Y41462
X306949Y48062
X314549Y40462
X349349Y37062
X352949Y38662
X352349Y42462
X351349Y48662
X273149Y38462
X74149Y59062
T02
X351949Y31862
X351949Y103362
X351949Y174862
X351949Y246362
X351949Y317862
T03
X360287Y316782
X360287Y331743
X360287Y260243
X360287Y245282
X360287Y188743
X360287Y173782
X360287Y117243
X360287Y102282
X360287Y45743
X360287Y30782
T04
X345149Y60062
X345149Y131562
X345149Y203062
X345149Y274562
X345149Y346062
T05
X357149Y354662
X357149Y364662
X336949Y367862
X326949Y367862
X316949Y367862
X306949Y367862
X296949Y367862
X286949Y367862
X276949Y367862
X266949Y367862
X256949Y367862
X246949Y367862
X236949Y367862
X226949Y367862
X216949Y367862
X206949Y367862
X196949Y367862
X186949Y367862
X176949Y367862
X166949Y367862
X156949Y367862
X146949Y367862
X136949Y352862
X136949Y342862
X136949Y332862
X136949Y322862
X136949Y307862
X146949Y307862
X156949Y307862
X166949Y307862
X176949Y307862
X186949Y307862
X196949Y307862
X206949Y307862
X216949Y307862
X226949Y307862
X236949Y307862
X246949Y307862
X256949Y307862
X266949Y307862
X276949Y307862
X286949Y307862
X296949Y307862
X306949Y307862
X316949Y307862
X326949Y307862
X336949Y307862
X336949Y296362
X326949Y296362
X316949Y296362
X306949Y296362
X296949Y296362
X286949Y296362
X276949Y296362
X266949Y296362
X256949Y296362
X246949Y296362
X236949Y296362
X226949Y296362
X216949Y296362
X206949Y296362
X196949Y296362
X186949Y296362
X176949Y296362
X166949Y296362
X156949Y296362
X146949Y296362
X136949Y281362
X136949Y271362
X136949Y261362
X136949Y251362
X136949Y236362
X146949Y236362
X156949Y236362
X166949Y236362
X176949Y236362
X186949Y236362
X196949Y236362
X206949Y236362
X216949Y236362
X226949Y236362
X236949Y236362
X246949Y236362
X256949Y236362
X266949Y236362
X276949Y236362
X286949Y236362
X296949Y236362
X306949Y236362
X316949Y236362
X326949Y236362
X336949Y236362
X336949Y224862
X326949Y224862
X316949Y224862
X306949Y224862
X296949Y224862
X286949Y224862
X276949Y224862
X266949Y224862
X256949Y224862
X246949Y224862
X236949Y224862
X226949Y224862
X216949Y224862
X206949Y224862
X196949Y224862
X186949Y224862
X176949Y224862
X166949Y224862
X156949Y224862
X146949Y224862
X136949Y209862
X136949Y199862
X136949Y189862
X136949Y179862
X136949Y164862
X146949Y164862
X146949Y153362
X156949Y153362
X166949Y153362
X166949Y164862
X156949Y164862
X176949Y164862
X186949Y164862
X186949Y153362
X176949Y153362
X196949Y153362
X196949Y164862
X206949Y164862
X216949Y164862
X216949Y153362
X206949Y153362
X226949Y153362
X236949Y153362
X236949Y164862
X226949Y164862
X246949Y164862
X256949Y164862
X256949Y153362
X246949Y153362
X266949Y153362
X276949Y153362
X276949Y164862
X266949Y164862
X286949Y164862
X286949Y153362
X296949Y153362
X306949Y153362
X306949Y164862
X296949Y164862
X316949Y164862
X326949Y164862
X326949Y153362
X316949Y153362
X336949Y153362
X336949Y164862
X357149Y150162
X357149Y140162
X336949Y93362
X336949Y81862
X326949Y81862
X316949Y81862
X316949Y93362
X326949Y93362
X306949Y93362
X296949Y93362
X296949Y81862
X306949Y81862
X286949Y81862
X286949Y93362
X276949Y93362
X266949Y93362
X266949Y81862
X276949Y81862
X256949Y81862
X246949Y81862
X246949Y93362
X256949Y93362
X236949Y93362
X226949Y93362
X226949Y81862
X236949Y81862
X216949Y81862
X206949Y81862
X206949Y93362
X216949Y93362
X196949Y93362
X196949Y81862
X186949Y81862
X176949Y81862
X176949Y93362
X186949Y93362
X166949Y93362
X156949Y93362
X156949Y81862
X166949Y81862
X146949Y81862
X146949Y93362
X136949Y93362
X126949Y93362
X116949Y93362
X106949Y93362
X96949Y93362
X136949Y108362
X136949Y118362
X136949Y128362
X136949Y138362
X126949Y164862
X116949Y164862
X106949Y164862
X96949Y164862
X96949Y236362
X106949Y236362
X116949Y236362
X126949Y236362
X126949Y307862
X116949Y307862
X106949Y307862
X96949Y307862
X136949Y66862
X136949Y56862
X136949Y46862
X136949Y36862
X136949Y21862
X146949Y21862
X156949Y21862
X166949Y21862
X176949Y21862
X186949Y21862
X196949Y21862
X206949Y21862
X216949Y21862
X226949Y21862
X236949Y21862
X246949Y21862
X256949Y21862
X266949Y21862
X276949Y21862
X286949Y21862
X296949Y21862
X306949Y21862
X316949Y21862
X326949Y21862
X336949Y21862
X357149Y68662
X357149Y78662
X357149Y211662
X357149Y221662
X357149Y283162
X357149Y293162
X126949Y21862
X116949Y21862
X106949Y21862
X96949Y21862
T06
X97949Y33724
X97949Y47503
X97949Y61283
X97949Y75062
X97949Y105224
X97949Y119003
X97949Y132783
X97949Y146562
X97949Y176724
X97949Y190503
X97949Y204283
X97949Y218062
X97949Y248224
X97949Y262003
X97949Y275783
X97949Y289562
X97949Y319724
X97949Y333503
X97949Y347283
X97949Y361062
T07
X121949Y337862
X121949Y266362
X121949Y194862
X121949Y123362
X121949Y51862
X316649Y51862
X316649Y123362
X316649Y194862
X316649Y266362
X316649Y337862
M30
