G75*
%MOIN*%
%OFA0B0*%
%FSLAX25Y25*%
%IPPOS*%
%LPD*%
%AMOC8*
5,1,8,0,0,1.08239X$1,22.5*
%
%ADD10C,0.00000*%
%ADD11C,0.00200*%
%ADD12R,0.04331X0.03937*%
%ADD13R,0.03937X0.04331*%
%ADD14R,0.03150X0.03150*%
%ADD15R,0.04724X0.03150*%
%ADD16R,0.05512X0.03150*%
%ADD17R,0.08661X0.07087*%
%ADD18R,0.03150X0.01378*%
%ADD19R,0.04200X0.01000*%
%ADD20R,0.02559X0.08661*%
%ADD21R,0.02756X0.05906*%
%ADD22R,0.05906X0.02756*%
%ADD23R,0.05709X0.01575*%
%ADD24R,0.05906X0.07087*%
%ADD25R,0.03937X0.03150*%
%ADD26R,0.01969X0.03740*%
%ADD27R,0.03150X0.04724*%
%ADD28R,0.03543X0.03937*%
D10*
X0025950Y0016000D02*
X0036950Y0016000D01*
X0036950Y0001000D01*
X0376950Y0001000D01*
X0376950Y0016000D01*
X0382950Y0016000D01*
X0376950Y0016000D02*
X0036950Y0016000D01*
X0036950Y0087500D01*
X0022148Y0087500D01*
X0036950Y0087500D02*
X0036950Y0159000D01*
X0020648Y0159000D01*
X0036950Y0159000D02*
X0036950Y0230500D01*
X0019648Y0230500D01*
X0036950Y0230500D02*
X0036950Y0302000D01*
X0019148Y0302000D01*
X0036950Y0302000D02*
X0036950Y0373500D01*
X0020948Y0373500D01*
X0036950Y0373500D02*
X0036950Y0394500D01*
X0376950Y0394500D01*
X0376950Y0373500D01*
X0384409Y0373500D01*
X0376950Y0373500D02*
X0376950Y0302000D01*
X0385609Y0302000D01*
X0376950Y0302000D02*
X0036950Y0302000D01*
X0036950Y0373500D02*
X0376950Y0373500D01*
X0358614Y0331743D02*
X0358616Y0331824D01*
X0358622Y0331906D01*
X0358632Y0331987D01*
X0358646Y0332067D01*
X0358663Y0332146D01*
X0358685Y0332225D01*
X0358710Y0332302D01*
X0358739Y0332379D01*
X0358772Y0332453D01*
X0358809Y0332526D01*
X0358848Y0332597D01*
X0358892Y0332666D01*
X0358938Y0332733D01*
X0358988Y0332797D01*
X0359041Y0332859D01*
X0359097Y0332919D01*
X0359155Y0332975D01*
X0359217Y0333029D01*
X0359281Y0333080D01*
X0359347Y0333127D01*
X0359415Y0333171D01*
X0359486Y0333212D01*
X0359558Y0333249D01*
X0359633Y0333283D01*
X0359708Y0333313D01*
X0359786Y0333339D01*
X0359864Y0333362D01*
X0359943Y0333380D01*
X0360023Y0333395D01*
X0360104Y0333406D01*
X0360185Y0333413D01*
X0360267Y0333416D01*
X0360348Y0333415D01*
X0360429Y0333410D01*
X0360510Y0333401D01*
X0360591Y0333388D01*
X0360671Y0333371D01*
X0360749Y0333351D01*
X0360827Y0333326D01*
X0360904Y0333298D01*
X0360979Y0333266D01*
X0361052Y0333231D01*
X0361123Y0333192D01*
X0361193Y0333149D01*
X0361260Y0333104D01*
X0361326Y0333055D01*
X0361388Y0333003D01*
X0361448Y0332947D01*
X0361505Y0332889D01*
X0361560Y0332829D01*
X0361611Y0332765D01*
X0361659Y0332700D01*
X0361704Y0332632D01*
X0361746Y0332562D01*
X0361784Y0332490D01*
X0361819Y0332416D01*
X0361850Y0332341D01*
X0361877Y0332264D01*
X0361900Y0332186D01*
X0361920Y0332107D01*
X0361936Y0332027D01*
X0361948Y0331946D01*
X0361956Y0331865D01*
X0361960Y0331784D01*
X0361960Y0331702D01*
X0361956Y0331621D01*
X0361948Y0331540D01*
X0361936Y0331459D01*
X0361920Y0331379D01*
X0361900Y0331300D01*
X0361877Y0331222D01*
X0361850Y0331145D01*
X0361819Y0331070D01*
X0361784Y0330996D01*
X0361746Y0330924D01*
X0361704Y0330854D01*
X0361659Y0330786D01*
X0361611Y0330721D01*
X0361560Y0330657D01*
X0361505Y0330597D01*
X0361448Y0330539D01*
X0361388Y0330483D01*
X0361326Y0330431D01*
X0361260Y0330382D01*
X0361193Y0330337D01*
X0361124Y0330294D01*
X0361052Y0330255D01*
X0360979Y0330220D01*
X0360904Y0330188D01*
X0360827Y0330160D01*
X0360749Y0330135D01*
X0360671Y0330115D01*
X0360591Y0330098D01*
X0360510Y0330085D01*
X0360429Y0330076D01*
X0360348Y0330071D01*
X0360267Y0330070D01*
X0360185Y0330073D01*
X0360104Y0330080D01*
X0360023Y0330091D01*
X0359943Y0330106D01*
X0359864Y0330124D01*
X0359786Y0330147D01*
X0359708Y0330173D01*
X0359633Y0330203D01*
X0359558Y0330237D01*
X0359486Y0330274D01*
X0359415Y0330315D01*
X0359347Y0330359D01*
X0359281Y0330406D01*
X0359217Y0330457D01*
X0359155Y0330511D01*
X0359097Y0330567D01*
X0359041Y0330627D01*
X0358988Y0330689D01*
X0358938Y0330753D01*
X0358892Y0330820D01*
X0358848Y0330889D01*
X0358809Y0330960D01*
X0358772Y0331033D01*
X0358739Y0331107D01*
X0358710Y0331184D01*
X0358685Y0331261D01*
X0358663Y0331340D01*
X0358646Y0331419D01*
X0358632Y0331499D01*
X0358622Y0331580D01*
X0358616Y0331662D01*
X0358614Y0331743D01*
X0358614Y0316782D02*
X0358616Y0316863D01*
X0358622Y0316945D01*
X0358632Y0317026D01*
X0358646Y0317106D01*
X0358663Y0317185D01*
X0358685Y0317264D01*
X0358710Y0317341D01*
X0358739Y0317418D01*
X0358772Y0317492D01*
X0358809Y0317565D01*
X0358848Y0317636D01*
X0358892Y0317705D01*
X0358938Y0317772D01*
X0358988Y0317836D01*
X0359041Y0317898D01*
X0359097Y0317958D01*
X0359155Y0318014D01*
X0359217Y0318068D01*
X0359281Y0318119D01*
X0359347Y0318166D01*
X0359415Y0318210D01*
X0359486Y0318251D01*
X0359558Y0318288D01*
X0359633Y0318322D01*
X0359708Y0318352D01*
X0359786Y0318378D01*
X0359864Y0318401D01*
X0359943Y0318419D01*
X0360023Y0318434D01*
X0360104Y0318445D01*
X0360185Y0318452D01*
X0360267Y0318455D01*
X0360348Y0318454D01*
X0360429Y0318449D01*
X0360510Y0318440D01*
X0360591Y0318427D01*
X0360671Y0318410D01*
X0360749Y0318390D01*
X0360827Y0318365D01*
X0360904Y0318337D01*
X0360979Y0318305D01*
X0361052Y0318270D01*
X0361123Y0318231D01*
X0361193Y0318188D01*
X0361260Y0318143D01*
X0361326Y0318094D01*
X0361388Y0318042D01*
X0361448Y0317986D01*
X0361505Y0317928D01*
X0361560Y0317868D01*
X0361611Y0317804D01*
X0361659Y0317739D01*
X0361704Y0317671D01*
X0361746Y0317601D01*
X0361784Y0317529D01*
X0361819Y0317455D01*
X0361850Y0317380D01*
X0361877Y0317303D01*
X0361900Y0317225D01*
X0361920Y0317146D01*
X0361936Y0317066D01*
X0361948Y0316985D01*
X0361956Y0316904D01*
X0361960Y0316823D01*
X0361960Y0316741D01*
X0361956Y0316660D01*
X0361948Y0316579D01*
X0361936Y0316498D01*
X0361920Y0316418D01*
X0361900Y0316339D01*
X0361877Y0316261D01*
X0361850Y0316184D01*
X0361819Y0316109D01*
X0361784Y0316035D01*
X0361746Y0315963D01*
X0361704Y0315893D01*
X0361659Y0315825D01*
X0361611Y0315760D01*
X0361560Y0315696D01*
X0361505Y0315636D01*
X0361448Y0315578D01*
X0361388Y0315522D01*
X0361326Y0315470D01*
X0361260Y0315421D01*
X0361193Y0315376D01*
X0361124Y0315333D01*
X0361052Y0315294D01*
X0360979Y0315259D01*
X0360904Y0315227D01*
X0360827Y0315199D01*
X0360749Y0315174D01*
X0360671Y0315154D01*
X0360591Y0315137D01*
X0360510Y0315124D01*
X0360429Y0315115D01*
X0360348Y0315110D01*
X0360267Y0315109D01*
X0360185Y0315112D01*
X0360104Y0315119D01*
X0360023Y0315130D01*
X0359943Y0315145D01*
X0359864Y0315163D01*
X0359786Y0315186D01*
X0359708Y0315212D01*
X0359633Y0315242D01*
X0359558Y0315276D01*
X0359486Y0315313D01*
X0359415Y0315354D01*
X0359347Y0315398D01*
X0359281Y0315445D01*
X0359217Y0315496D01*
X0359155Y0315550D01*
X0359097Y0315606D01*
X0359041Y0315666D01*
X0358988Y0315728D01*
X0358938Y0315792D01*
X0358892Y0315859D01*
X0358848Y0315928D01*
X0358809Y0315999D01*
X0358772Y0316072D01*
X0358739Y0316146D01*
X0358710Y0316223D01*
X0358685Y0316300D01*
X0358663Y0316379D01*
X0358646Y0316458D01*
X0358632Y0316538D01*
X0358622Y0316619D01*
X0358616Y0316701D01*
X0358614Y0316782D01*
X0376950Y0302000D02*
X0376950Y0230500D01*
X0385509Y0230500D01*
X0376950Y0230500D02*
X0036950Y0230500D01*
X0036950Y0159000D02*
X0376950Y0159000D01*
X0385509Y0159000D01*
X0376950Y0159000D02*
X0376950Y0230500D01*
X0358614Y0245282D02*
X0358616Y0245363D01*
X0358622Y0245445D01*
X0358632Y0245526D01*
X0358646Y0245606D01*
X0358663Y0245685D01*
X0358685Y0245764D01*
X0358710Y0245841D01*
X0358739Y0245918D01*
X0358772Y0245992D01*
X0358809Y0246065D01*
X0358848Y0246136D01*
X0358892Y0246205D01*
X0358938Y0246272D01*
X0358988Y0246336D01*
X0359041Y0246398D01*
X0359097Y0246458D01*
X0359155Y0246514D01*
X0359217Y0246568D01*
X0359281Y0246619D01*
X0359347Y0246666D01*
X0359415Y0246710D01*
X0359486Y0246751D01*
X0359558Y0246788D01*
X0359633Y0246822D01*
X0359708Y0246852D01*
X0359786Y0246878D01*
X0359864Y0246901D01*
X0359943Y0246919D01*
X0360023Y0246934D01*
X0360104Y0246945D01*
X0360185Y0246952D01*
X0360267Y0246955D01*
X0360348Y0246954D01*
X0360429Y0246949D01*
X0360510Y0246940D01*
X0360591Y0246927D01*
X0360671Y0246910D01*
X0360749Y0246890D01*
X0360827Y0246865D01*
X0360904Y0246837D01*
X0360979Y0246805D01*
X0361052Y0246770D01*
X0361123Y0246731D01*
X0361193Y0246688D01*
X0361260Y0246643D01*
X0361326Y0246594D01*
X0361388Y0246542D01*
X0361448Y0246486D01*
X0361505Y0246428D01*
X0361560Y0246368D01*
X0361611Y0246304D01*
X0361659Y0246239D01*
X0361704Y0246171D01*
X0361746Y0246101D01*
X0361784Y0246029D01*
X0361819Y0245955D01*
X0361850Y0245880D01*
X0361877Y0245803D01*
X0361900Y0245725D01*
X0361920Y0245646D01*
X0361936Y0245566D01*
X0361948Y0245485D01*
X0361956Y0245404D01*
X0361960Y0245323D01*
X0361960Y0245241D01*
X0361956Y0245160D01*
X0361948Y0245079D01*
X0361936Y0244998D01*
X0361920Y0244918D01*
X0361900Y0244839D01*
X0361877Y0244761D01*
X0361850Y0244684D01*
X0361819Y0244609D01*
X0361784Y0244535D01*
X0361746Y0244463D01*
X0361704Y0244393D01*
X0361659Y0244325D01*
X0361611Y0244260D01*
X0361560Y0244196D01*
X0361505Y0244136D01*
X0361448Y0244078D01*
X0361388Y0244022D01*
X0361326Y0243970D01*
X0361260Y0243921D01*
X0361193Y0243876D01*
X0361124Y0243833D01*
X0361052Y0243794D01*
X0360979Y0243759D01*
X0360904Y0243727D01*
X0360827Y0243699D01*
X0360749Y0243674D01*
X0360671Y0243654D01*
X0360591Y0243637D01*
X0360510Y0243624D01*
X0360429Y0243615D01*
X0360348Y0243610D01*
X0360267Y0243609D01*
X0360185Y0243612D01*
X0360104Y0243619D01*
X0360023Y0243630D01*
X0359943Y0243645D01*
X0359864Y0243663D01*
X0359786Y0243686D01*
X0359708Y0243712D01*
X0359633Y0243742D01*
X0359558Y0243776D01*
X0359486Y0243813D01*
X0359415Y0243854D01*
X0359347Y0243898D01*
X0359281Y0243945D01*
X0359217Y0243996D01*
X0359155Y0244050D01*
X0359097Y0244106D01*
X0359041Y0244166D01*
X0358988Y0244228D01*
X0358938Y0244292D01*
X0358892Y0244359D01*
X0358848Y0244428D01*
X0358809Y0244499D01*
X0358772Y0244572D01*
X0358739Y0244646D01*
X0358710Y0244723D01*
X0358685Y0244800D01*
X0358663Y0244879D01*
X0358646Y0244958D01*
X0358632Y0245038D01*
X0358622Y0245119D01*
X0358616Y0245201D01*
X0358614Y0245282D01*
X0358614Y0260243D02*
X0358616Y0260324D01*
X0358622Y0260406D01*
X0358632Y0260487D01*
X0358646Y0260567D01*
X0358663Y0260646D01*
X0358685Y0260725D01*
X0358710Y0260802D01*
X0358739Y0260879D01*
X0358772Y0260953D01*
X0358809Y0261026D01*
X0358848Y0261097D01*
X0358892Y0261166D01*
X0358938Y0261233D01*
X0358988Y0261297D01*
X0359041Y0261359D01*
X0359097Y0261419D01*
X0359155Y0261475D01*
X0359217Y0261529D01*
X0359281Y0261580D01*
X0359347Y0261627D01*
X0359415Y0261671D01*
X0359486Y0261712D01*
X0359558Y0261749D01*
X0359633Y0261783D01*
X0359708Y0261813D01*
X0359786Y0261839D01*
X0359864Y0261862D01*
X0359943Y0261880D01*
X0360023Y0261895D01*
X0360104Y0261906D01*
X0360185Y0261913D01*
X0360267Y0261916D01*
X0360348Y0261915D01*
X0360429Y0261910D01*
X0360510Y0261901D01*
X0360591Y0261888D01*
X0360671Y0261871D01*
X0360749Y0261851D01*
X0360827Y0261826D01*
X0360904Y0261798D01*
X0360979Y0261766D01*
X0361052Y0261731D01*
X0361123Y0261692D01*
X0361193Y0261649D01*
X0361260Y0261604D01*
X0361326Y0261555D01*
X0361388Y0261503D01*
X0361448Y0261447D01*
X0361505Y0261389D01*
X0361560Y0261329D01*
X0361611Y0261265D01*
X0361659Y0261200D01*
X0361704Y0261132D01*
X0361746Y0261062D01*
X0361784Y0260990D01*
X0361819Y0260916D01*
X0361850Y0260841D01*
X0361877Y0260764D01*
X0361900Y0260686D01*
X0361920Y0260607D01*
X0361936Y0260527D01*
X0361948Y0260446D01*
X0361956Y0260365D01*
X0361960Y0260284D01*
X0361960Y0260202D01*
X0361956Y0260121D01*
X0361948Y0260040D01*
X0361936Y0259959D01*
X0361920Y0259879D01*
X0361900Y0259800D01*
X0361877Y0259722D01*
X0361850Y0259645D01*
X0361819Y0259570D01*
X0361784Y0259496D01*
X0361746Y0259424D01*
X0361704Y0259354D01*
X0361659Y0259286D01*
X0361611Y0259221D01*
X0361560Y0259157D01*
X0361505Y0259097D01*
X0361448Y0259039D01*
X0361388Y0258983D01*
X0361326Y0258931D01*
X0361260Y0258882D01*
X0361193Y0258837D01*
X0361124Y0258794D01*
X0361052Y0258755D01*
X0360979Y0258720D01*
X0360904Y0258688D01*
X0360827Y0258660D01*
X0360749Y0258635D01*
X0360671Y0258615D01*
X0360591Y0258598D01*
X0360510Y0258585D01*
X0360429Y0258576D01*
X0360348Y0258571D01*
X0360267Y0258570D01*
X0360185Y0258573D01*
X0360104Y0258580D01*
X0360023Y0258591D01*
X0359943Y0258606D01*
X0359864Y0258624D01*
X0359786Y0258647D01*
X0359708Y0258673D01*
X0359633Y0258703D01*
X0359558Y0258737D01*
X0359486Y0258774D01*
X0359415Y0258815D01*
X0359347Y0258859D01*
X0359281Y0258906D01*
X0359217Y0258957D01*
X0359155Y0259011D01*
X0359097Y0259067D01*
X0359041Y0259127D01*
X0358988Y0259189D01*
X0358938Y0259253D01*
X0358892Y0259320D01*
X0358848Y0259389D01*
X0358809Y0259460D01*
X0358772Y0259533D01*
X0358739Y0259607D01*
X0358710Y0259684D01*
X0358685Y0259761D01*
X0358663Y0259840D01*
X0358646Y0259919D01*
X0358632Y0259999D01*
X0358622Y0260080D01*
X0358616Y0260162D01*
X0358614Y0260243D01*
X0310399Y0266362D02*
X0310401Y0266520D01*
X0310407Y0266677D01*
X0310417Y0266835D01*
X0310431Y0266992D01*
X0310449Y0267148D01*
X0310470Y0267305D01*
X0310496Y0267460D01*
X0310526Y0267615D01*
X0310559Y0267769D01*
X0310597Y0267922D01*
X0310638Y0268075D01*
X0310683Y0268226D01*
X0310732Y0268376D01*
X0310785Y0268524D01*
X0310841Y0268672D01*
X0310902Y0268817D01*
X0310965Y0268962D01*
X0311033Y0269104D01*
X0311104Y0269245D01*
X0311178Y0269384D01*
X0311256Y0269521D01*
X0311338Y0269656D01*
X0311422Y0269789D01*
X0311511Y0269920D01*
X0311602Y0270048D01*
X0311697Y0270175D01*
X0311794Y0270298D01*
X0311895Y0270420D01*
X0311999Y0270538D01*
X0312106Y0270654D01*
X0312216Y0270767D01*
X0312328Y0270878D01*
X0312444Y0270985D01*
X0312562Y0271090D01*
X0312682Y0271192D01*
X0312805Y0271290D01*
X0312931Y0271386D01*
X0313059Y0271478D01*
X0313189Y0271567D01*
X0313321Y0271653D01*
X0313456Y0271735D01*
X0313593Y0271814D01*
X0313731Y0271889D01*
X0313871Y0271961D01*
X0314014Y0272029D01*
X0314157Y0272094D01*
X0314303Y0272155D01*
X0314450Y0272212D01*
X0314598Y0272266D01*
X0314748Y0272316D01*
X0314898Y0272362D01*
X0315050Y0272404D01*
X0315203Y0272443D01*
X0315357Y0272477D01*
X0315512Y0272508D01*
X0315667Y0272534D01*
X0315823Y0272557D01*
X0315980Y0272576D01*
X0316137Y0272591D01*
X0316294Y0272602D01*
X0316452Y0272609D01*
X0316610Y0272612D01*
X0316767Y0272611D01*
X0316925Y0272606D01*
X0317082Y0272597D01*
X0317240Y0272584D01*
X0317396Y0272567D01*
X0317553Y0272546D01*
X0317708Y0272522D01*
X0317863Y0272493D01*
X0318018Y0272460D01*
X0318171Y0272424D01*
X0318324Y0272383D01*
X0318475Y0272339D01*
X0318625Y0272291D01*
X0318774Y0272240D01*
X0318922Y0272184D01*
X0319068Y0272125D01*
X0319213Y0272062D01*
X0319356Y0271995D01*
X0319497Y0271925D01*
X0319636Y0271852D01*
X0319774Y0271775D01*
X0319910Y0271694D01*
X0320043Y0271610D01*
X0320174Y0271523D01*
X0320303Y0271432D01*
X0320430Y0271338D01*
X0320555Y0271241D01*
X0320676Y0271141D01*
X0320796Y0271038D01*
X0320912Y0270932D01*
X0321026Y0270823D01*
X0321138Y0270711D01*
X0321246Y0270597D01*
X0321351Y0270479D01*
X0321454Y0270359D01*
X0321553Y0270237D01*
X0321649Y0270112D01*
X0321742Y0269984D01*
X0321832Y0269855D01*
X0321918Y0269723D01*
X0322002Y0269589D01*
X0322081Y0269453D01*
X0322158Y0269315D01*
X0322230Y0269175D01*
X0322299Y0269033D01*
X0322365Y0268890D01*
X0322427Y0268745D01*
X0322485Y0268598D01*
X0322540Y0268450D01*
X0322591Y0268301D01*
X0322638Y0268150D01*
X0322681Y0267999D01*
X0322720Y0267846D01*
X0322756Y0267692D01*
X0322787Y0267538D01*
X0322815Y0267383D01*
X0322839Y0267227D01*
X0322859Y0267070D01*
X0322875Y0266913D01*
X0322887Y0266756D01*
X0322895Y0266599D01*
X0322899Y0266441D01*
X0322899Y0266283D01*
X0322895Y0266125D01*
X0322887Y0265968D01*
X0322875Y0265811D01*
X0322859Y0265654D01*
X0322839Y0265497D01*
X0322815Y0265341D01*
X0322787Y0265186D01*
X0322756Y0265032D01*
X0322720Y0264878D01*
X0322681Y0264725D01*
X0322638Y0264574D01*
X0322591Y0264423D01*
X0322540Y0264274D01*
X0322485Y0264126D01*
X0322427Y0263979D01*
X0322365Y0263834D01*
X0322299Y0263691D01*
X0322230Y0263549D01*
X0322158Y0263409D01*
X0322081Y0263271D01*
X0322002Y0263135D01*
X0321918Y0263001D01*
X0321832Y0262869D01*
X0321742Y0262740D01*
X0321649Y0262612D01*
X0321553Y0262487D01*
X0321454Y0262365D01*
X0321351Y0262245D01*
X0321246Y0262127D01*
X0321138Y0262013D01*
X0321026Y0261901D01*
X0320912Y0261792D01*
X0320796Y0261686D01*
X0320676Y0261583D01*
X0320555Y0261483D01*
X0320430Y0261386D01*
X0320303Y0261292D01*
X0320174Y0261201D01*
X0320043Y0261114D01*
X0319910Y0261030D01*
X0319774Y0260949D01*
X0319636Y0260872D01*
X0319497Y0260799D01*
X0319356Y0260729D01*
X0319213Y0260662D01*
X0319068Y0260599D01*
X0318922Y0260540D01*
X0318774Y0260484D01*
X0318625Y0260433D01*
X0318475Y0260385D01*
X0318324Y0260341D01*
X0318171Y0260300D01*
X0318018Y0260264D01*
X0317863Y0260231D01*
X0317708Y0260202D01*
X0317553Y0260178D01*
X0317396Y0260157D01*
X0317240Y0260140D01*
X0317082Y0260127D01*
X0316925Y0260118D01*
X0316767Y0260113D01*
X0316610Y0260112D01*
X0316452Y0260115D01*
X0316294Y0260122D01*
X0316137Y0260133D01*
X0315980Y0260148D01*
X0315823Y0260167D01*
X0315667Y0260190D01*
X0315512Y0260216D01*
X0315357Y0260247D01*
X0315203Y0260281D01*
X0315050Y0260320D01*
X0314898Y0260362D01*
X0314748Y0260408D01*
X0314598Y0260458D01*
X0314450Y0260512D01*
X0314303Y0260569D01*
X0314157Y0260630D01*
X0314014Y0260695D01*
X0313871Y0260763D01*
X0313731Y0260835D01*
X0313593Y0260910D01*
X0313456Y0260989D01*
X0313321Y0261071D01*
X0313189Y0261157D01*
X0313059Y0261246D01*
X0312931Y0261338D01*
X0312805Y0261434D01*
X0312682Y0261532D01*
X0312562Y0261634D01*
X0312444Y0261739D01*
X0312328Y0261846D01*
X0312216Y0261957D01*
X0312106Y0262070D01*
X0311999Y0262186D01*
X0311895Y0262304D01*
X0311794Y0262426D01*
X0311697Y0262549D01*
X0311602Y0262676D01*
X0311511Y0262804D01*
X0311422Y0262935D01*
X0311338Y0263068D01*
X0311256Y0263203D01*
X0311178Y0263340D01*
X0311104Y0263479D01*
X0311033Y0263620D01*
X0310965Y0263762D01*
X0310902Y0263907D01*
X0310841Y0264052D01*
X0310785Y0264200D01*
X0310732Y0264348D01*
X0310683Y0264498D01*
X0310638Y0264649D01*
X0310597Y0264802D01*
X0310559Y0264955D01*
X0310526Y0265109D01*
X0310496Y0265264D01*
X0310470Y0265419D01*
X0310449Y0265576D01*
X0310431Y0265732D01*
X0310417Y0265889D01*
X0310407Y0266047D01*
X0310401Y0266204D01*
X0310399Y0266362D01*
X0310399Y0194862D02*
X0310401Y0195020D01*
X0310407Y0195177D01*
X0310417Y0195335D01*
X0310431Y0195492D01*
X0310449Y0195648D01*
X0310470Y0195805D01*
X0310496Y0195960D01*
X0310526Y0196115D01*
X0310559Y0196269D01*
X0310597Y0196422D01*
X0310638Y0196575D01*
X0310683Y0196726D01*
X0310732Y0196876D01*
X0310785Y0197024D01*
X0310841Y0197172D01*
X0310902Y0197317D01*
X0310965Y0197462D01*
X0311033Y0197604D01*
X0311104Y0197745D01*
X0311178Y0197884D01*
X0311256Y0198021D01*
X0311338Y0198156D01*
X0311422Y0198289D01*
X0311511Y0198420D01*
X0311602Y0198548D01*
X0311697Y0198675D01*
X0311794Y0198798D01*
X0311895Y0198920D01*
X0311999Y0199038D01*
X0312106Y0199154D01*
X0312216Y0199267D01*
X0312328Y0199378D01*
X0312444Y0199485D01*
X0312562Y0199590D01*
X0312682Y0199692D01*
X0312805Y0199790D01*
X0312931Y0199886D01*
X0313059Y0199978D01*
X0313189Y0200067D01*
X0313321Y0200153D01*
X0313456Y0200235D01*
X0313593Y0200314D01*
X0313731Y0200389D01*
X0313871Y0200461D01*
X0314014Y0200529D01*
X0314157Y0200594D01*
X0314303Y0200655D01*
X0314450Y0200712D01*
X0314598Y0200766D01*
X0314748Y0200816D01*
X0314898Y0200862D01*
X0315050Y0200904D01*
X0315203Y0200943D01*
X0315357Y0200977D01*
X0315512Y0201008D01*
X0315667Y0201034D01*
X0315823Y0201057D01*
X0315980Y0201076D01*
X0316137Y0201091D01*
X0316294Y0201102D01*
X0316452Y0201109D01*
X0316610Y0201112D01*
X0316767Y0201111D01*
X0316925Y0201106D01*
X0317082Y0201097D01*
X0317240Y0201084D01*
X0317396Y0201067D01*
X0317553Y0201046D01*
X0317708Y0201022D01*
X0317863Y0200993D01*
X0318018Y0200960D01*
X0318171Y0200924D01*
X0318324Y0200883D01*
X0318475Y0200839D01*
X0318625Y0200791D01*
X0318774Y0200740D01*
X0318922Y0200684D01*
X0319068Y0200625D01*
X0319213Y0200562D01*
X0319356Y0200495D01*
X0319497Y0200425D01*
X0319636Y0200352D01*
X0319774Y0200275D01*
X0319910Y0200194D01*
X0320043Y0200110D01*
X0320174Y0200023D01*
X0320303Y0199932D01*
X0320430Y0199838D01*
X0320555Y0199741D01*
X0320676Y0199641D01*
X0320796Y0199538D01*
X0320912Y0199432D01*
X0321026Y0199323D01*
X0321138Y0199211D01*
X0321246Y0199097D01*
X0321351Y0198979D01*
X0321454Y0198859D01*
X0321553Y0198737D01*
X0321649Y0198612D01*
X0321742Y0198484D01*
X0321832Y0198355D01*
X0321918Y0198223D01*
X0322002Y0198089D01*
X0322081Y0197953D01*
X0322158Y0197815D01*
X0322230Y0197675D01*
X0322299Y0197533D01*
X0322365Y0197390D01*
X0322427Y0197245D01*
X0322485Y0197098D01*
X0322540Y0196950D01*
X0322591Y0196801D01*
X0322638Y0196650D01*
X0322681Y0196499D01*
X0322720Y0196346D01*
X0322756Y0196192D01*
X0322787Y0196038D01*
X0322815Y0195883D01*
X0322839Y0195727D01*
X0322859Y0195570D01*
X0322875Y0195413D01*
X0322887Y0195256D01*
X0322895Y0195099D01*
X0322899Y0194941D01*
X0322899Y0194783D01*
X0322895Y0194625D01*
X0322887Y0194468D01*
X0322875Y0194311D01*
X0322859Y0194154D01*
X0322839Y0193997D01*
X0322815Y0193841D01*
X0322787Y0193686D01*
X0322756Y0193532D01*
X0322720Y0193378D01*
X0322681Y0193225D01*
X0322638Y0193074D01*
X0322591Y0192923D01*
X0322540Y0192774D01*
X0322485Y0192626D01*
X0322427Y0192479D01*
X0322365Y0192334D01*
X0322299Y0192191D01*
X0322230Y0192049D01*
X0322158Y0191909D01*
X0322081Y0191771D01*
X0322002Y0191635D01*
X0321918Y0191501D01*
X0321832Y0191369D01*
X0321742Y0191240D01*
X0321649Y0191112D01*
X0321553Y0190987D01*
X0321454Y0190865D01*
X0321351Y0190745D01*
X0321246Y0190627D01*
X0321138Y0190513D01*
X0321026Y0190401D01*
X0320912Y0190292D01*
X0320796Y0190186D01*
X0320676Y0190083D01*
X0320555Y0189983D01*
X0320430Y0189886D01*
X0320303Y0189792D01*
X0320174Y0189701D01*
X0320043Y0189614D01*
X0319910Y0189530D01*
X0319774Y0189449D01*
X0319636Y0189372D01*
X0319497Y0189299D01*
X0319356Y0189229D01*
X0319213Y0189162D01*
X0319068Y0189099D01*
X0318922Y0189040D01*
X0318774Y0188984D01*
X0318625Y0188933D01*
X0318475Y0188885D01*
X0318324Y0188841D01*
X0318171Y0188800D01*
X0318018Y0188764D01*
X0317863Y0188731D01*
X0317708Y0188702D01*
X0317553Y0188678D01*
X0317396Y0188657D01*
X0317240Y0188640D01*
X0317082Y0188627D01*
X0316925Y0188618D01*
X0316767Y0188613D01*
X0316610Y0188612D01*
X0316452Y0188615D01*
X0316294Y0188622D01*
X0316137Y0188633D01*
X0315980Y0188648D01*
X0315823Y0188667D01*
X0315667Y0188690D01*
X0315512Y0188716D01*
X0315357Y0188747D01*
X0315203Y0188781D01*
X0315050Y0188820D01*
X0314898Y0188862D01*
X0314748Y0188908D01*
X0314598Y0188958D01*
X0314450Y0189012D01*
X0314303Y0189069D01*
X0314157Y0189130D01*
X0314014Y0189195D01*
X0313871Y0189263D01*
X0313731Y0189335D01*
X0313593Y0189410D01*
X0313456Y0189489D01*
X0313321Y0189571D01*
X0313189Y0189657D01*
X0313059Y0189746D01*
X0312931Y0189838D01*
X0312805Y0189934D01*
X0312682Y0190032D01*
X0312562Y0190134D01*
X0312444Y0190239D01*
X0312328Y0190346D01*
X0312216Y0190457D01*
X0312106Y0190570D01*
X0311999Y0190686D01*
X0311895Y0190804D01*
X0311794Y0190926D01*
X0311697Y0191049D01*
X0311602Y0191176D01*
X0311511Y0191304D01*
X0311422Y0191435D01*
X0311338Y0191568D01*
X0311256Y0191703D01*
X0311178Y0191840D01*
X0311104Y0191979D01*
X0311033Y0192120D01*
X0310965Y0192262D01*
X0310902Y0192407D01*
X0310841Y0192552D01*
X0310785Y0192700D01*
X0310732Y0192848D01*
X0310683Y0192998D01*
X0310638Y0193149D01*
X0310597Y0193302D01*
X0310559Y0193455D01*
X0310526Y0193609D01*
X0310496Y0193764D01*
X0310470Y0193919D01*
X0310449Y0194076D01*
X0310431Y0194232D01*
X0310417Y0194389D01*
X0310407Y0194547D01*
X0310401Y0194704D01*
X0310399Y0194862D01*
X0358614Y0188743D02*
X0358616Y0188824D01*
X0358622Y0188906D01*
X0358632Y0188987D01*
X0358646Y0189067D01*
X0358663Y0189146D01*
X0358685Y0189225D01*
X0358710Y0189302D01*
X0358739Y0189379D01*
X0358772Y0189453D01*
X0358809Y0189526D01*
X0358848Y0189597D01*
X0358892Y0189666D01*
X0358938Y0189733D01*
X0358988Y0189797D01*
X0359041Y0189859D01*
X0359097Y0189919D01*
X0359155Y0189975D01*
X0359217Y0190029D01*
X0359281Y0190080D01*
X0359347Y0190127D01*
X0359415Y0190171D01*
X0359486Y0190212D01*
X0359558Y0190249D01*
X0359633Y0190283D01*
X0359708Y0190313D01*
X0359786Y0190339D01*
X0359864Y0190362D01*
X0359943Y0190380D01*
X0360023Y0190395D01*
X0360104Y0190406D01*
X0360185Y0190413D01*
X0360267Y0190416D01*
X0360348Y0190415D01*
X0360429Y0190410D01*
X0360510Y0190401D01*
X0360591Y0190388D01*
X0360671Y0190371D01*
X0360749Y0190351D01*
X0360827Y0190326D01*
X0360904Y0190298D01*
X0360979Y0190266D01*
X0361052Y0190231D01*
X0361123Y0190192D01*
X0361193Y0190149D01*
X0361260Y0190104D01*
X0361326Y0190055D01*
X0361388Y0190003D01*
X0361448Y0189947D01*
X0361505Y0189889D01*
X0361560Y0189829D01*
X0361611Y0189765D01*
X0361659Y0189700D01*
X0361704Y0189632D01*
X0361746Y0189562D01*
X0361784Y0189490D01*
X0361819Y0189416D01*
X0361850Y0189341D01*
X0361877Y0189264D01*
X0361900Y0189186D01*
X0361920Y0189107D01*
X0361936Y0189027D01*
X0361948Y0188946D01*
X0361956Y0188865D01*
X0361960Y0188784D01*
X0361960Y0188702D01*
X0361956Y0188621D01*
X0361948Y0188540D01*
X0361936Y0188459D01*
X0361920Y0188379D01*
X0361900Y0188300D01*
X0361877Y0188222D01*
X0361850Y0188145D01*
X0361819Y0188070D01*
X0361784Y0187996D01*
X0361746Y0187924D01*
X0361704Y0187854D01*
X0361659Y0187786D01*
X0361611Y0187721D01*
X0361560Y0187657D01*
X0361505Y0187597D01*
X0361448Y0187539D01*
X0361388Y0187483D01*
X0361326Y0187431D01*
X0361260Y0187382D01*
X0361193Y0187337D01*
X0361124Y0187294D01*
X0361052Y0187255D01*
X0360979Y0187220D01*
X0360904Y0187188D01*
X0360827Y0187160D01*
X0360749Y0187135D01*
X0360671Y0187115D01*
X0360591Y0187098D01*
X0360510Y0187085D01*
X0360429Y0187076D01*
X0360348Y0187071D01*
X0360267Y0187070D01*
X0360185Y0187073D01*
X0360104Y0187080D01*
X0360023Y0187091D01*
X0359943Y0187106D01*
X0359864Y0187124D01*
X0359786Y0187147D01*
X0359708Y0187173D01*
X0359633Y0187203D01*
X0359558Y0187237D01*
X0359486Y0187274D01*
X0359415Y0187315D01*
X0359347Y0187359D01*
X0359281Y0187406D01*
X0359217Y0187457D01*
X0359155Y0187511D01*
X0359097Y0187567D01*
X0359041Y0187627D01*
X0358988Y0187689D01*
X0358938Y0187753D01*
X0358892Y0187820D01*
X0358848Y0187889D01*
X0358809Y0187960D01*
X0358772Y0188033D01*
X0358739Y0188107D01*
X0358710Y0188184D01*
X0358685Y0188261D01*
X0358663Y0188340D01*
X0358646Y0188419D01*
X0358632Y0188499D01*
X0358622Y0188580D01*
X0358616Y0188662D01*
X0358614Y0188743D01*
X0358614Y0173782D02*
X0358616Y0173863D01*
X0358622Y0173945D01*
X0358632Y0174026D01*
X0358646Y0174106D01*
X0358663Y0174185D01*
X0358685Y0174264D01*
X0358710Y0174341D01*
X0358739Y0174418D01*
X0358772Y0174492D01*
X0358809Y0174565D01*
X0358848Y0174636D01*
X0358892Y0174705D01*
X0358938Y0174772D01*
X0358988Y0174836D01*
X0359041Y0174898D01*
X0359097Y0174958D01*
X0359155Y0175014D01*
X0359217Y0175068D01*
X0359281Y0175119D01*
X0359347Y0175166D01*
X0359415Y0175210D01*
X0359486Y0175251D01*
X0359558Y0175288D01*
X0359633Y0175322D01*
X0359708Y0175352D01*
X0359786Y0175378D01*
X0359864Y0175401D01*
X0359943Y0175419D01*
X0360023Y0175434D01*
X0360104Y0175445D01*
X0360185Y0175452D01*
X0360267Y0175455D01*
X0360348Y0175454D01*
X0360429Y0175449D01*
X0360510Y0175440D01*
X0360591Y0175427D01*
X0360671Y0175410D01*
X0360749Y0175390D01*
X0360827Y0175365D01*
X0360904Y0175337D01*
X0360979Y0175305D01*
X0361052Y0175270D01*
X0361123Y0175231D01*
X0361193Y0175188D01*
X0361260Y0175143D01*
X0361326Y0175094D01*
X0361388Y0175042D01*
X0361448Y0174986D01*
X0361505Y0174928D01*
X0361560Y0174868D01*
X0361611Y0174804D01*
X0361659Y0174739D01*
X0361704Y0174671D01*
X0361746Y0174601D01*
X0361784Y0174529D01*
X0361819Y0174455D01*
X0361850Y0174380D01*
X0361877Y0174303D01*
X0361900Y0174225D01*
X0361920Y0174146D01*
X0361936Y0174066D01*
X0361948Y0173985D01*
X0361956Y0173904D01*
X0361960Y0173823D01*
X0361960Y0173741D01*
X0361956Y0173660D01*
X0361948Y0173579D01*
X0361936Y0173498D01*
X0361920Y0173418D01*
X0361900Y0173339D01*
X0361877Y0173261D01*
X0361850Y0173184D01*
X0361819Y0173109D01*
X0361784Y0173035D01*
X0361746Y0172963D01*
X0361704Y0172893D01*
X0361659Y0172825D01*
X0361611Y0172760D01*
X0361560Y0172696D01*
X0361505Y0172636D01*
X0361448Y0172578D01*
X0361388Y0172522D01*
X0361326Y0172470D01*
X0361260Y0172421D01*
X0361193Y0172376D01*
X0361124Y0172333D01*
X0361052Y0172294D01*
X0360979Y0172259D01*
X0360904Y0172227D01*
X0360827Y0172199D01*
X0360749Y0172174D01*
X0360671Y0172154D01*
X0360591Y0172137D01*
X0360510Y0172124D01*
X0360429Y0172115D01*
X0360348Y0172110D01*
X0360267Y0172109D01*
X0360185Y0172112D01*
X0360104Y0172119D01*
X0360023Y0172130D01*
X0359943Y0172145D01*
X0359864Y0172163D01*
X0359786Y0172186D01*
X0359708Y0172212D01*
X0359633Y0172242D01*
X0359558Y0172276D01*
X0359486Y0172313D01*
X0359415Y0172354D01*
X0359347Y0172398D01*
X0359281Y0172445D01*
X0359217Y0172496D01*
X0359155Y0172550D01*
X0359097Y0172606D01*
X0359041Y0172666D01*
X0358988Y0172728D01*
X0358938Y0172792D01*
X0358892Y0172859D01*
X0358848Y0172928D01*
X0358809Y0172999D01*
X0358772Y0173072D01*
X0358739Y0173146D01*
X0358710Y0173223D01*
X0358685Y0173300D01*
X0358663Y0173379D01*
X0358646Y0173458D01*
X0358632Y0173538D01*
X0358622Y0173619D01*
X0358616Y0173701D01*
X0358614Y0173782D01*
X0376950Y0159000D02*
X0376950Y0087500D01*
X0385498Y0087500D01*
X0376950Y0087500D02*
X0036950Y0087500D01*
X0115699Y0051862D02*
X0115701Y0052020D01*
X0115707Y0052177D01*
X0115717Y0052335D01*
X0115731Y0052492D01*
X0115749Y0052648D01*
X0115770Y0052805D01*
X0115796Y0052960D01*
X0115826Y0053115D01*
X0115859Y0053269D01*
X0115897Y0053422D01*
X0115938Y0053575D01*
X0115983Y0053726D01*
X0116032Y0053876D01*
X0116085Y0054024D01*
X0116141Y0054172D01*
X0116202Y0054317D01*
X0116265Y0054462D01*
X0116333Y0054604D01*
X0116404Y0054745D01*
X0116478Y0054884D01*
X0116556Y0055021D01*
X0116638Y0055156D01*
X0116722Y0055289D01*
X0116811Y0055420D01*
X0116902Y0055548D01*
X0116997Y0055675D01*
X0117094Y0055798D01*
X0117195Y0055920D01*
X0117299Y0056038D01*
X0117406Y0056154D01*
X0117516Y0056267D01*
X0117628Y0056378D01*
X0117744Y0056485D01*
X0117862Y0056590D01*
X0117982Y0056692D01*
X0118105Y0056790D01*
X0118231Y0056886D01*
X0118359Y0056978D01*
X0118489Y0057067D01*
X0118621Y0057153D01*
X0118756Y0057235D01*
X0118893Y0057314D01*
X0119031Y0057389D01*
X0119171Y0057461D01*
X0119314Y0057529D01*
X0119457Y0057594D01*
X0119603Y0057655D01*
X0119750Y0057712D01*
X0119898Y0057766D01*
X0120048Y0057816D01*
X0120198Y0057862D01*
X0120350Y0057904D01*
X0120503Y0057943D01*
X0120657Y0057977D01*
X0120812Y0058008D01*
X0120967Y0058034D01*
X0121123Y0058057D01*
X0121280Y0058076D01*
X0121437Y0058091D01*
X0121594Y0058102D01*
X0121752Y0058109D01*
X0121910Y0058112D01*
X0122067Y0058111D01*
X0122225Y0058106D01*
X0122382Y0058097D01*
X0122540Y0058084D01*
X0122696Y0058067D01*
X0122853Y0058046D01*
X0123008Y0058022D01*
X0123163Y0057993D01*
X0123318Y0057960D01*
X0123471Y0057924D01*
X0123624Y0057883D01*
X0123775Y0057839D01*
X0123925Y0057791D01*
X0124074Y0057740D01*
X0124222Y0057684D01*
X0124368Y0057625D01*
X0124513Y0057562D01*
X0124656Y0057495D01*
X0124797Y0057425D01*
X0124936Y0057352D01*
X0125074Y0057275D01*
X0125210Y0057194D01*
X0125343Y0057110D01*
X0125474Y0057023D01*
X0125603Y0056932D01*
X0125730Y0056838D01*
X0125855Y0056741D01*
X0125976Y0056641D01*
X0126096Y0056538D01*
X0126212Y0056432D01*
X0126326Y0056323D01*
X0126438Y0056211D01*
X0126546Y0056097D01*
X0126651Y0055979D01*
X0126754Y0055859D01*
X0126853Y0055737D01*
X0126949Y0055612D01*
X0127042Y0055484D01*
X0127132Y0055355D01*
X0127218Y0055223D01*
X0127302Y0055089D01*
X0127381Y0054953D01*
X0127458Y0054815D01*
X0127530Y0054675D01*
X0127599Y0054533D01*
X0127665Y0054390D01*
X0127727Y0054245D01*
X0127785Y0054098D01*
X0127840Y0053950D01*
X0127891Y0053801D01*
X0127938Y0053650D01*
X0127981Y0053499D01*
X0128020Y0053346D01*
X0128056Y0053192D01*
X0128087Y0053038D01*
X0128115Y0052883D01*
X0128139Y0052727D01*
X0128159Y0052570D01*
X0128175Y0052413D01*
X0128187Y0052256D01*
X0128195Y0052099D01*
X0128199Y0051941D01*
X0128199Y0051783D01*
X0128195Y0051625D01*
X0128187Y0051468D01*
X0128175Y0051311D01*
X0128159Y0051154D01*
X0128139Y0050997D01*
X0128115Y0050841D01*
X0128087Y0050686D01*
X0128056Y0050532D01*
X0128020Y0050378D01*
X0127981Y0050225D01*
X0127938Y0050074D01*
X0127891Y0049923D01*
X0127840Y0049774D01*
X0127785Y0049626D01*
X0127727Y0049479D01*
X0127665Y0049334D01*
X0127599Y0049191D01*
X0127530Y0049049D01*
X0127458Y0048909D01*
X0127381Y0048771D01*
X0127302Y0048635D01*
X0127218Y0048501D01*
X0127132Y0048369D01*
X0127042Y0048240D01*
X0126949Y0048112D01*
X0126853Y0047987D01*
X0126754Y0047865D01*
X0126651Y0047745D01*
X0126546Y0047627D01*
X0126438Y0047513D01*
X0126326Y0047401D01*
X0126212Y0047292D01*
X0126096Y0047186D01*
X0125976Y0047083D01*
X0125855Y0046983D01*
X0125730Y0046886D01*
X0125603Y0046792D01*
X0125474Y0046701D01*
X0125343Y0046614D01*
X0125210Y0046530D01*
X0125074Y0046449D01*
X0124936Y0046372D01*
X0124797Y0046299D01*
X0124656Y0046229D01*
X0124513Y0046162D01*
X0124368Y0046099D01*
X0124222Y0046040D01*
X0124074Y0045984D01*
X0123925Y0045933D01*
X0123775Y0045885D01*
X0123624Y0045841D01*
X0123471Y0045800D01*
X0123318Y0045764D01*
X0123163Y0045731D01*
X0123008Y0045702D01*
X0122853Y0045678D01*
X0122696Y0045657D01*
X0122540Y0045640D01*
X0122382Y0045627D01*
X0122225Y0045618D01*
X0122067Y0045613D01*
X0121910Y0045612D01*
X0121752Y0045615D01*
X0121594Y0045622D01*
X0121437Y0045633D01*
X0121280Y0045648D01*
X0121123Y0045667D01*
X0120967Y0045690D01*
X0120812Y0045716D01*
X0120657Y0045747D01*
X0120503Y0045781D01*
X0120350Y0045820D01*
X0120198Y0045862D01*
X0120048Y0045908D01*
X0119898Y0045958D01*
X0119750Y0046012D01*
X0119603Y0046069D01*
X0119457Y0046130D01*
X0119314Y0046195D01*
X0119171Y0046263D01*
X0119031Y0046335D01*
X0118893Y0046410D01*
X0118756Y0046489D01*
X0118621Y0046571D01*
X0118489Y0046657D01*
X0118359Y0046746D01*
X0118231Y0046838D01*
X0118105Y0046934D01*
X0117982Y0047032D01*
X0117862Y0047134D01*
X0117744Y0047239D01*
X0117628Y0047346D01*
X0117516Y0047457D01*
X0117406Y0047570D01*
X0117299Y0047686D01*
X0117195Y0047804D01*
X0117094Y0047926D01*
X0116997Y0048049D01*
X0116902Y0048176D01*
X0116811Y0048304D01*
X0116722Y0048435D01*
X0116638Y0048568D01*
X0116556Y0048703D01*
X0116478Y0048840D01*
X0116404Y0048979D01*
X0116333Y0049120D01*
X0116265Y0049262D01*
X0116202Y0049407D01*
X0116141Y0049552D01*
X0116085Y0049700D01*
X0116032Y0049848D01*
X0115983Y0049998D01*
X0115938Y0050149D01*
X0115897Y0050302D01*
X0115859Y0050455D01*
X0115826Y0050609D01*
X0115796Y0050764D01*
X0115770Y0050919D01*
X0115749Y0051076D01*
X0115731Y0051232D01*
X0115717Y0051389D01*
X0115707Y0051547D01*
X0115701Y0051704D01*
X0115699Y0051862D01*
X0115699Y0123362D02*
X0115701Y0123520D01*
X0115707Y0123677D01*
X0115717Y0123835D01*
X0115731Y0123992D01*
X0115749Y0124148D01*
X0115770Y0124305D01*
X0115796Y0124460D01*
X0115826Y0124615D01*
X0115859Y0124769D01*
X0115897Y0124922D01*
X0115938Y0125075D01*
X0115983Y0125226D01*
X0116032Y0125376D01*
X0116085Y0125524D01*
X0116141Y0125672D01*
X0116202Y0125817D01*
X0116265Y0125962D01*
X0116333Y0126104D01*
X0116404Y0126245D01*
X0116478Y0126384D01*
X0116556Y0126521D01*
X0116638Y0126656D01*
X0116722Y0126789D01*
X0116811Y0126920D01*
X0116902Y0127048D01*
X0116997Y0127175D01*
X0117094Y0127298D01*
X0117195Y0127420D01*
X0117299Y0127538D01*
X0117406Y0127654D01*
X0117516Y0127767D01*
X0117628Y0127878D01*
X0117744Y0127985D01*
X0117862Y0128090D01*
X0117982Y0128192D01*
X0118105Y0128290D01*
X0118231Y0128386D01*
X0118359Y0128478D01*
X0118489Y0128567D01*
X0118621Y0128653D01*
X0118756Y0128735D01*
X0118893Y0128814D01*
X0119031Y0128889D01*
X0119171Y0128961D01*
X0119314Y0129029D01*
X0119457Y0129094D01*
X0119603Y0129155D01*
X0119750Y0129212D01*
X0119898Y0129266D01*
X0120048Y0129316D01*
X0120198Y0129362D01*
X0120350Y0129404D01*
X0120503Y0129443D01*
X0120657Y0129477D01*
X0120812Y0129508D01*
X0120967Y0129534D01*
X0121123Y0129557D01*
X0121280Y0129576D01*
X0121437Y0129591D01*
X0121594Y0129602D01*
X0121752Y0129609D01*
X0121910Y0129612D01*
X0122067Y0129611D01*
X0122225Y0129606D01*
X0122382Y0129597D01*
X0122540Y0129584D01*
X0122696Y0129567D01*
X0122853Y0129546D01*
X0123008Y0129522D01*
X0123163Y0129493D01*
X0123318Y0129460D01*
X0123471Y0129424D01*
X0123624Y0129383D01*
X0123775Y0129339D01*
X0123925Y0129291D01*
X0124074Y0129240D01*
X0124222Y0129184D01*
X0124368Y0129125D01*
X0124513Y0129062D01*
X0124656Y0128995D01*
X0124797Y0128925D01*
X0124936Y0128852D01*
X0125074Y0128775D01*
X0125210Y0128694D01*
X0125343Y0128610D01*
X0125474Y0128523D01*
X0125603Y0128432D01*
X0125730Y0128338D01*
X0125855Y0128241D01*
X0125976Y0128141D01*
X0126096Y0128038D01*
X0126212Y0127932D01*
X0126326Y0127823D01*
X0126438Y0127711D01*
X0126546Y0127597D01*
X0126651Y0127479D01*
X0126754Y0127359D01*
X0126853Y0127237D01*
X0126949Y0127112D01*
X0127042Y0126984D01*
X0127132Y0126855D01*
X0127218Y0126723D01*
X0127302Y0126589D01*
X0127381Y0126453D01*
X0127458Y0126315D01*
X0127530Y0126175D01*
X0127599Y0126033D01*
X0127665Y0125890D01*
X0127727Y0125745D01*
X0127785Y0125598D01*
X0127840Y0125450D01*
X0127891Y0125301D01*
X0127938Y0125150D01*
X0127981Y0124999D01*
X0128020Y0124846D01*
X0128056Y0124692D01*
X0128087Y0124538D01*
X0128115Y0124383D01*
X0128139Y0124227D01*
X0128159Y0124070D01*
X0128175Y0123913D01*
X0128187Y0123756D01*
X0128195Y0123599D01*
X0128199Y0123441D01*
X0128199Y0123283D01*
X0128195Y0123125D01*
X0128187Y0122968D01*
X0128175Y0122811D01*
X0128159Y0122654D01*
X0128139Y0122497D01*
X0128115Y0122341D01*
X0128087Y0122186D01*
X0128056Y0122032D01*
X0128020Y0121878D01*
X0127981Y0121725D01*
X0127938Y0121574D01*
X0127891Y0121423D01*
X0127840Y0121274D01*
X0127785Y0121126D01*
X0127727Y0120979D01*
X0127665Y0120834D01*
X0127599Y0120691D01*
X0127530Y0120549D01*
X0127458Y0120409D01*
X0127381Y0120271D01*
X0127302Y0120135D01*
X0127218Y0120001D01*
X0127132Y0119869D01*
X0127042Y0119740D01*
X0126949Y0119612D01*
X0126853Y0119487D01*
X0126754Y0119365D01*
X0126651Y0119245D01*
X0126546Y0119127D01*
X0126438Y0119013D01*
X0126326Y0118901D01*
X0126212Y0118792D01*
X0126096Y0118686D01*
X0125976Y0118583D01*
X0125855Y0118483D01*
X0125730Y0118386D01*
X0125603Y0118292D01*
X0125474Y0118201D01*
X0125343Y0118114D01*
X0125210Y0118030D01*
X0125074Y0117949D01*
X0124936Y0117872D01*
X0124797Y0117799D01*
X0124656Y0117729D01*
X0124513Y0117662D01*
X0124368Y0117599D01*
X0124222Y0117540D01*
X0124074Y0117484D01*
X0123925Y0117433D01*
X0123775Y0117385D01*
X0123624Y0117341D01*
X0123471Y0117300D01*
X0123318Y0117264D01*
X0123163Y0117231D01*
X0123008Y0117202D01*
X0122853Y0117178D01*
X0122696Y0117157D01*
X0122540Y0117140D01*
X0122382Y0117127D01*
X0122225Y0117118D01*
X0122067Y0117113D01*
X0121910Y0117112D01*
X0121752Y0117115D01*
X0121594Y0117122D01*
X0121437Y0117133D01*
X0121280Y0117148D01*
X0121123Y0117167D01*
X0120967Y0117190D01*
X0120812Y0117216D01*
X0120657Y0117247D01*
X0120503Y0117281D01*
X0120350Y0117320D01*
X0120198Y0117362D01*
X0120048Y0117408D01*
X0119898Y0117458D01*
X0119750Y0117512D01*
X0119603Y0117569D01*
X0119457Y0117630D01*
X0119314Y0117695D01*
X0119171Y0117763D01*
X0119031Y0117835D01*
X0118893Y0117910D01*
X0118756Y0117989D01*
X0118621Y0118071D01*
X0118489Y0118157D01*
X0118359Y0118246D01*
X0118231Y0118338D01*
X0118105Y0118434D01*
X0117982Y0118532D01*
X0117862Y0118634D01*
X0117744Y0118739D01*
X0117628Y0118846D01*
X0117516Y0118957D01*
X0117406Y0119070D01*
X0117299Y0119186D01*
X0117195Y0119304D01*
X0117094Y0119426D01*
X0116997Y0119549D01*
X0116902Y0119676D01*
X0116811Y0119804D01*
X0116722Y0119935D01*
X0116638Y0120068D01*
X0116556Y0120203D01*
X0116478Y0120340D01*
X0116404Y0120479D01*
X0116333Y0120620D01*
X0116265Y0120762D01*
X0116202Y0120907D01*
X0116141Y0121052D01*
X0116085Y0121200D01*
X0116032Y0121348D01*
X0115983Y0121498D01*
X0115938Y0121649D01*
X0115897Y0121802D01*
X0115859Y0121955D01*
X0115826Y0122109D01*
X0115796Y0122264D01*
X0115770Y0122419D01*
X0115749Y0122576D01*
X0115731Y0122732D01*
X0115717Y0122889D01*
X0115707Y0123047D01*
X0115701Y0123204D01*
X0115699Y0123362D01*
X0115699Y0194862D02*
X0115701Y0195020D01*
X0115707Y0195177D01*
X0115717Y0195335D01*
X0115731Y0195492D01*
X0115749Y0195648D01*
X0115770Y0195805D01*
X0115796Y0195960D01*
X0115826Y0196115D01*
X0115859Y0196269D01*
X0115897Y0196422D01*
X0115938Y0196575D01*
X0115983Y0196726D01*
X0116032Y0196876D01*
X0116085Y0197024D01*
X0116141Y0197172D01*
X0116202Y0197317D01*
X0116265Y0197462D01*
X0116333Y0197604D01*
X0116404Y0197745D01*
X0116478Y0197884D01*
X0116556Y0198021D01*
X0116638Y0198156D01*
X0116722Y0198289D01*
X0116811Y0198420D01*
X0116902Y0198548D01*
X0116997Y0198675D01*
X0117094Y0198798D01*
X0117195Y0198920D01*
X0117299Y0199038D01*
X0117406Y0199154D01*
X0117516Y0199267D01*
X0117628Y0199378D01*
X0117744Y0199485D01*
X0117862Y0199590D01*
X0117982Y0199692D01*
X0118105Y0199790D01*
X0118231Y0199886D01*
X0118359Y0199978D01*
X0118489Y0200067D01*
X0118621Y0200153D01*
X0118756Y0200235D01*
X0118893Y0200314D01*
X0119031Y0200389D01*
X0119171Y0200461D01*
X0119314Y0200529D01*
X0119457Y0200594D01*
X0119603Y0200655D01*
X0119750Y0200712D01*
X0119898Y0200766D01*
X0120048Y0200816D01*
X0120198Y0200862D01*
X0120350Y0200904D01*
X0120503Y0200943D01*
X0120657Y0200977D01*
X0120812Y0201008D01*
X0120967Y0201034D01*
X0121123Y0201057D01*
X0121280Y0201076D01*
X0121437Y0201091D01*
X0121594Y0201102D01*
X0121752Y0201109D01*
X0121910Y0201112D01*
X0122067Y0201111D01*
X0122225Y0201106D01*
X0122382Y0201097D01*
X0122540Y0201084D01*
X0122696Y0201067D01*
X0122853Y0201046D01*
X0123008Y0201022D01*
X0123163Y0200993D01*
X0123318Y0200960D01*
X0123471Y0200924D01*
X0123624Y0200883D01*
X0123775Y0200839D01*
X0123925Y0200791D01*
X0124074Y0200740D01*
X0124222Y0200684D01*
X0124368Y0200625D01*
X0124513Y0200562D01*
X0124656Y0200495D01*
X0124797Y0200425D01*
X0124936Y0200352D01*
X0125074Y0200275D01*
X0125210Y0200194D01*
X0125343Y0200110D01*
X0125474Y0200023D01*
X0125603Y0199932D01*
X0125730Y0199838D01*
X0125855Y0199741D01*
X0125976Y0199641D01*
X0126096Y0199538D01*
X0126212Y0199432D01*
X0126326Y0199323D01*
X0126438Y0199211D01*
X0126546Y0199097D01*
X0126651Y0198979D01*
X0126754Y0198859D01*
X0126853Y0198737D01*
X0126949Y0198612D01*
X0127042Y0198484D01*
X0127132Y0198355D01*
X0127218Y0198223D01*
X0127302Y0198089D01*
X0127381Y0197953D01*
X0127458Y0197815D01*
X0127530Y0197675D01*
X0127599Y0197533D01*
X0127665Y0197390D01*
X0127727Y0197245D01*
X0127785Y0197098D01*
X0127840Y0196950D01*
X0127891Y0196801D01*
X0127938Y0196650D01*
X0127981Y0196499D01*
X0128020Y0196346D01*
X0128056Y0196192D01*
X0128087Y0196038D01*
X0128115Y0195883D01*
X0128139Y0195727D01*
X0128159Y0195570D01*
X0128175Y0195413D01*
X0128187Y0195256D01*
X0128195Y0195099D01*
X0128199Y0194941D01*
X0128199Y0194783D01*
X0128195Y0194625D01*
X0128187Y0194468D01*
X0128175Y0194311D01*
X0128159Y0194154D01*
X0128139Y0193997D01*
X0128115Y0193841D01*
X0128087Y0193686D01*
X0128056Y0193532D01*
X0128020Y0193378D01*
X0127981Y0193225D01*
X0127938Y0193074D01*
X0127891Y0192923D01*
X0127840Y0192774D01*
X0127785Y0192626D01*
X0127727Y0192479D01*
X0127665Y0192334D01*
X0127599Y0192191D01*
X0127530Y0192049D01*
X0127458Y0191909D01*
X0127381Y0191771D01*
X0127302Y0191635D01*
X0127218Y0191501D01*
X0127132Y0191369D01*
X0127042Y0191240D01*
X0126949Y0191112D01*
X0126853Y0190987D01*
X0126754Y0190865D01*
X0126651Y0190745D01*
X0126546Y0190627D01*
X0126438Y0190513D01*
X0126326Y0190401D01*
X0126212Y0190292D01*
X0126096Y0190186D01*
X0125976Y0190083D01*
X0125855Y0189983D01*
X0125730Y0189886D01*
X0125603Y0189792D01*
X0125474Y0189701D01*
X0125343Y0189614D01*
X0125210Y0189530D01*
X0125074Y0189449D01*
X0124936Y0189372D01*
X0124797Y0189299D01*
X0124656Y0189229D01*
X0124513Y0189162D01*
X0124368Y0189099D01*
X0124222Y0189040D01*
X0124074Y0188984D01*
X0123925Y0188933D01*
X0123775Y0188885D01*
X0123624Y0188841D01*
X0123471Y0188800D01*
X0123318Y0188764D01*
X0123163Y0188731D01*
X0123008Y0188702D01*
X0122853Y0188678D01*
X0122696Y0188657D01*
X0122540Y0188640D01*
X0122382Y0188627D01*
X0122225Y0188618D01*
X0122067Y0188613D01*
X0121910Y0188612D01*
X0121752Y0188615D01*
X0121594Y0188622D01*
X0121437Y0188633D01*
X0121280Y0188648D01*
X0121123Y0188667D01*
X0120967Y0188690D01*
X0120812Y0188716D01*
X0120657Y0188747D01*
X0120503Y0188781D01*
X0120350Y0188820D01*
X0120198Y0188862D01*
X0120048Y0188908D01*
X0119898Y0188958D01*
X0119750Y0189012D01*
X0119603Y0189069D01*
X0119457Y0189130D01*
X0119314Y0189195D01*
X0119171Y0189263D01*
X0119031Y0189335D01*
X0118893Y0189410D01*
X0118756Y0189489D01*
X0118621Y0189571D01*
X0118489Y0189657D01*
X0118359Y0189746D01*
X0118231Y0189838D01*
X0118105Y0189934D01*
X0117982Y0190032D01*
X0117862Y0190134D01*
X0117744Y0190239D01*
X0117628Y0190346D01*
X0117516Y0190457D01*
X0117406Y0190570D01*
X0117299Y0190686D01*
X0117195Y0190804D01*
X0117094Y0190926D01*
X0116997Y0191049D01*
X0116902Y0191176D01*
X0116811Y0191304D01*
X0116722Y0191435D01*
X0116638Y0191568D01*
X0116556Y0191703D01*
X0116478Y0191840D01*
X0116404Y0191979D01*
X0116333Y0192120D01*
X0116265Y0192262D01*
X0116202Y0192407D01*
X0116141Y0192552D01*
X0116085Y0192700D01*
X0116032Y0192848D01*
X0115983Y0192998D01*
X0115938Y0193149D01*
X0115897Y0193302D01*
X0115859Y0193455D01*
X0115826Y0193609D01*
X0115796Y0193764D01*
X0115770Y0193919D01*
X0115749Y0194076D01*
X0115731Y0194232D01*
X0115717Y0194389D01*
X0115707Y0194547D01*
X0115701Y0194704D01*
X0115699Y0194862D01*
X0115699Y0266362D02*
X0115701Y0266520D01*
X0115707Y0266677D01*
X0115717Y0266835D01*
X0115731Y0266992D01*
X0115749Y0267148D01*
X0115770Y0267305D01*
X0115796Y0267460D01*
X0115826Y0267615D01*
X0115859Y0267769D01*
X0115897Y0267922D01*
X0115938Y0268075D01*
X0115983Y0268226D01*
X0116032Y0268376D01*
X0116085Y0268524D01*
X0116141Y0268672D01*
X0116202Y0268817D01*
X0116265Y0268962D01*
X0116333Y0269104D01*
X0116404Y0269245D01*
X0116478Y0269384D01*
X0116556Y0269521D01*
X0116638Y0269656D01*
X0116722Y0269789D01*
X0116811Y0269920D01*
X0116902Y0270048D01*
X0116997Y0270175D01*
X0117094Y0270298D01*
X0117195Y0270420D01*
X0117299Y0270538D01*
X0117406Y0270654D01*
X0117516Y0270767D01*
X0117628Y0270878D01*
X0117744Y0270985D01*
X0117862Y0271090D01*
X0117982Y0271192D01*
X0118105Y0271290D01*
X0118231Y0271386D01*
X0118359Y0271478D01*
X0118489Y0271567D01*
X0118621Y0271653D01*
X0118756Y0271735D01*
X0118893Y0271814D01*
X0119031Y0271889D01*
X0119171Y0271961D01*
X0119314Y0272029D01*
X0119457Y0272094D01*
X0119603Y0272155D01*
X0119750Y0272212D01*
X0119898Y0272266D01*
X0120048Y0272316D01*
X0120198Y0272362D01*
X0120350Y0272404D01*
X0120503Y0272443D01*
X0120657Y0272477D01*
X0120812Y0272508D01*
X0120967Y0272534D01*
X0121123Y0272557D01*
X0121280Y0272576D01*
X0121437Y0272591D01*
X0121594Y0272602D01*
X0121752Y0272609D01*
X0121910Y0272612D01*
X0122067Y0272611D01*
X0122225Y0272606D01*
X0122382Y0272597D01*
X0122540Y0272584D01*
X0122696Y0272567D01*
X0122853Y0272546D01*
X0123008Y0272522D01*
X0123163Y0272493D01*
X0123318Y0272460D01*
X0123471Y0272424D01*
X0123624Y0272383D01*
X0123775Y0272339D01*
X0123925Y0272291D01*
X0124074Y0272240D01*
X0124222Y0272184D01*
X0124368Y0272125D01*
X0124513Y0272062D01*
X0124656Y0271995D01*
X0124797Y0271925D01*
X0124936Y0271852D01*
X0125074Y0271775D01*
X0125210Y0271694D01*
X0125343Y0271610D01*
X0125474Y0271523D01*
X0125603Y0271432D01*
X0125730Y0271338D01*
X0125855Y0271241D01*
X0125976Y0271141D01*
X0126096Y0271038D01*
X0126212Y0270932D01*
X0126326Y0270823D01*
X0126438Y0270711D01*
X0126546Y0270597D01*
X0126651Y0270479D01*
X0126754Y0270359D01*
X0126853Y0270237D01*
X0126949Y0270112D01*
X0127042Y0269984D01*
X0127132Y0269855D01*
X0127218Y0269723D01*
X0127302Y0269589D01*
X0127381Y0269453D01*
X0127458Y0269315D01*
X0127530Y0269175D01*
X0127599Y0269033D01*
X0127665Y0268890D01*
X0127727Y0268745D01*
X0127785Y0268598D01*
X0127840Y0268450D01*
X0127891Y0268301D01*
X0127938Y0268150D01*
X0127981Y0267999D01*
X0128020Y0267846D01*
X0128056Y0267692D01*
X0128087Y0267538D01*
X0128115Y0267383D01*
X0128139Y0267227D01*
X0128159Y0267070D01*
X0128175Y0266913D01*
X0128187Y0266756D01*
X0128195Y0266599D01*
X0128199Y0266441D01*
X0128199Y0266283D01*
X0128195Y0266125D01*
X0128187Y0265968D01*
X0128175Y0265811D01*
X0128159Y0265654D01*
X0128139Y0265497D01*
X0128115Y0265341D01*
X0128087Y0265186D01*
X0128056Y0265032D01*
X0128020Y0264878D01*
X0127981Y0264725D01*
X0127938Y0264574D01*
X0127891Y0264423D01*
X0127840Y0264274D01*
X0127785Y0264126D01*
X0127727Y0263979D01*
X0127665Y0263834D01*
X0127599Y0263691D01*
X0127530Y0263549D01*
X0127458Y0263409D01*
X0127381Y0263271D01*
X0127302Y0263135D01*
X0127218Y0263001D01*
X0127132Y0262869D01*
X0127042Y0262740D01*
X0126949Y0262612D01*
X0126853Y0262487D01*
X0126754Y0262365D01*
X0126651Y0262245D01*
X0126546Y0262127D01*
X0126438Y0262013D01*
X0126326Y0261901D01*
X0126212Y0261792D01*
X0126096Y0261686D01*
X0125976Y0261583D01*
X0125855Y0261483D01*
X0125730Y0261386D01*
X0125603Y0261292D01*
X0125474Y0261201D01*
X0125343Y0261114D01*
X0125210Y0261030D01*
X0125074Y0260949D01*
X0124936Y0260872D01*
X0124797Y0260799D01*
X0124656Y0260729D01*
X0124513Y0260662D01*
X0124368Y0260599D01*
X0124222Y0260540D01*
X0124074Y0260484D01*
X0123925Y0260433D01*
X0123775Y0260385D01*
X0123624Y0260341D01*
X0123471Y0260300D01*
X0123318Y0260264D01*
X0123163Y0260231D01*
X0123008Y0260202D01*
X0122853Y0260178D01*
X0122696Y0260157D01*
X0122540Y0260140D01*
X0122382Y0260127D01*
X0122225Y0260118D01*
X0122067Y0260113D01*
X0121910Y0260112D01*
X0121752Y0260115D01*
X0121594Y0260122D01*
X0121437Y0260133D01*
X0121280Y0260148D01*
X0121123Y0260167D01*
X0120967Y0260190D01*
X0120812Y0260216D01*
X0120657Y0260247D01*
X0120503Y0260281D01*
X0120350Y0260320D01*
X0120198Y0260362D01*
X0120048Y0260408D01*
X0119898Y0260458D01*
X0119750Y0260512D01*
X0119603Y0260569D01*
X0119457Y0260630D01*
X0119314Y0260695D01*
X0119171Y0260763D01*
X0119031Y0260835D01*
X0118893Y0260910D01*
X0118756Y0260989D01*
X0118621Y0261071D01*
X0118489Y0261157D01*
X0118359Y0261246D01*
X0118231Y0261338D01*
X0118105Y0261434D01*
X0117982Y0261532D01*
X0117862Y0261634D01*
X0117744Y0261739D01*
X0117628Y0261846D01*
X0117516Y0261957D01*
X0117406Y0262070D01*
X0117299Y0262186D01*
X0117195Y0262304D01*
X0117094Y0262426D01*
X0116997Y0262549D01*
X0116902Y0262676D01*
X0116811Y0262804D01*
X0116722Y0262935D01*
X0116638Y0263068D01*
X0116556Y0263203D01*
X0116478Y0263340D01*
X0116404Y0263479D01*
X0116333Y0263620D01*
X0116265Y0263762D01*
X0116202Y0263907D01*
X0116141Y0264052D01*
X0116085Y0264200D01*
X0116032Y0264348D01*
X0115983Y0264498D01*
X0115938Y0264649D01*
X0115897Y0264802D01*
X0115859Y0264955D01*
X0115826Y0265109D01*
X0115796Y0265264D01*
X0115770Y0265419D01*
X0115749Y0265576D01*
X0115731Y0265732D01*
X0115717Y0265889D01*
X0115707Y0266047D01*
X0115701Y0266204D01*
X0115699Y0266362D01*
X0115699Y0337862D02*
X0115701Y0338020D01*
X0115707Y0338177D01*
X0115717Y0338335D01*
X0115731Y0338492D01*
X0115749Y0338648D01*
X0115770Y0338805D01*
X0115796Y0338960D01*
X0115826Y0339115D01*
X0115859Y0339269D01*
X0115897Y0339422D01*
X0115938Y0339575D01*
X0115983Y0339726D01*
X0116032Y0339876D01*
X0116085Y0340024D01*
X0116141Y0340172D01*
X0116202Y0340317D01*
X0116265Y0340462D01*
X0116333Y0340604D01*
X0116404Y0340745D01*
X0116478Y0340884D01*
X0116556Y0341021D01*
X0116638Y0341156D01*
X0116722Y0341289D01*
X0116811Y0341420D01*
X0116902Y0341548D01*
X0116997Y0341675D01*
X0117094Y0341798D01*
X0117195Y0341920D01*
X0117299Y0342038D01*
X0117406Y0342154D01*
X0117516Y0342267D01*
X0117628Y0342378D01*
X0117744Y0342485D01*
X0117862Y0342590D01*
X0117982Y0342692D01*
X0118105Y0342790D01*
X0118231Y0342886D01*
X0118359Y0342978D01*
X0118489Y0343067D01*
X0118621Y0343153D01*
X0118756Y0343235D01*
X0118893Y0343314D01*
X0119031Y0343389D01*
X0119171Y0343461D01*
X0119314Y0343529D01*
X0119457Y0343594D01*
X0119603Y0343655D01*
X0119750Y0343712D01*
X0119898Y0343766D01*
X0120048Y0343816D01*
X0120198Y0343862D01*
X0120350Y0343904D01*
X0120503Y0343943D01*
X0120657Y0343977D01*
X0120812Y0344008D01*
X0120967Y0344034D01*
X0121123Y0344057D01*
X0121280Y0344076D01*
X0121437Y0344091D01*
X0121594Y0344102D01*
X0121752Y0344109D01*
X0121910Y0344112D01*
X0122067Y0344111D01*
X0122225Y0344106D01*
X0122382Y0344097D01*
X0122540Y0344084D01*
X0122696Y0344067D01*
X0122853Y0344046D01*
X0123008Y0344022D01*
X0123163Y0343993D01*
X0123318Y0343960D01*
X0123471Y0343924D01*
X0123624Y0343883D01*
X0123775Y0343839D01*
X0123925Y0343791D01*
X0124074Y0343740D01*
X0124222Y0343684D01*
X0124368Y0343625D01*
X0124513Y0343562D01*
X0124656Y0343495D01*
X0124797Y0343425D01*
X0124936Y0343352D01*
X0125074Y0343275D01*
X0125210Y0343194D01*
X0125343Y0343110D01*
X0125474Y0343023D01*
X0125603Y0342932D01*
X0125730Y0342838D01*
X0125855Y0342741D01*
X0125976Y0342641D01*
X0126096Y0342538D01*
X0126212Y0342432D01*
X0126326Y0342323D01*
X0126438Y0342211D01*
X0126546Y0342097D01*
X0126651Y0341979D01*
X0126754Y0341859D01*
X0126853Y0341737D01*
X0126949Y0341612D01*
X0127042Y0341484D01*
X0127132Y0341355D01*
X0127218Y0341223D01*
X0127302Y0341089D01*
X0127381Y0340953D01*
X0127458Y0340815D01*
X0127530Y0340675D01*
X0127599Y0340533D01*
X0127665Y0340390D01*
X0127727Y0340245D01*
X0127785Y0340098D01*
X0127840Y0339950D01*
X0127891Y0339801D01*
X0127938Y0339650D01*
X0127981Y0339499D01*
X0128020Y0339346D01*
X0128056Y0339192D01*
X0128087Y0339038D01*
X0128115Y0338883D01*
X0128139Y0338727D01*
X0128159Y0338570D01*
X0128175Y0338413D01*
X0128187Y0338256D01*
X0128195Y0338099D01*
X0128199Y0337941D01*
X0128199Y0337783D01*
X0128195Y0337625D01*
X0128187Y0337468D01*
X0128175Y0337311D01*
X0128159Y0337154D01*
X0128139Y0336997D01*
X0128115Y0336841D01*
X0128087Y0336686D01*
X0128056Y0336532D01*
X0128020Y0336378D01*
X0127981Y0336225D01*
X0127938Y0336074D01*
X0127891Y0335923D01*
X0127840Y0335774D01*
X0127785Y0335626D01*
X0127727Y0335479D01*
X0127665Y0335334D01*
X0127599Y0335191D01*
X0127530Y0335049D01*
X0127458Y0334909D01*
X0127381Y0334771D01*
X0127302Y0334635D01*
X0127218Y0334501D01*
X0127132Y0334369D01*
X0127042Y0334240D01*
X0126949Y0334112D01*
X0126853Y0333987D01*
X0126754Y0333865D01*
X0126651Y0333745D01*
X0126546Y0333627D01*
X0126438Y0333513D01*
X0126326Y0333401D01*
X0126212Y0333292D01*
X0126096Y0333186D01*
X0125976Y0333083D01*
X0125855Y0332983D01*
X0125730Y0332886D01*
X0125603Y0332792D01*
X0125474Y0332701D01*
X0125343Y0332614D01*
X0125210Y0332530D01*
X0125074Y0332449D01*
X0124936Y0332372D01*
X0124797Y0332299D01*
X0124656Y0332229D01*
X0124513Y0332162D01*
X0124368Y0332099D01*
X0124222Y0332040D01*
X0124074Y0331984D01*
X0123925Y0331933D01*
X0123775Y0331885D01*
X0123624Y0331841D01*
X0123471Y0331800D01*
X0123318Y0331764D01*
X0123163Y0331731D01*
X0123008Y0331702D01*
X0122853Y0331678D01*
X0122696Y0331657D01*
X0122540Y0331640D01*
X0122382Y0331627D01*
X0122225Y0331618D01*
X0122067Y0331613D01*
X0121910Y0331612D01*
X0121752Y0331615D01*
X0121594Y0331622D01*
X0121437Y0331633D01*
X0121280Y0331648D01*
X0121123Y0331667D01*
X0120967Y0331690D01*
X0120812Y0331716D01*
X0120657Y0331747D01*
X0120503Y0331781D01*
X0120350Y0331820D01*
X0120198Y0331862D01*
X0120048Y0331908D01*
X0119898Y0331958D01*
X0119750Y0332012D01*
X0119603Y0332069D01*
X0119457Y0332130D01*
X0119314Y0332195D01*
X0119171Y0332263D01*
X0119031Y0332335D01*
X0118893Y0332410D01*
X0118756Y0332489D01*
X0118621Y0332571D01*
X0118489Y0332657D01*
X0118359Y0332746D01*
X0118231Y0332838D01*
X0118105Y0332934D01*
X0117982Y0333032D01*
X0117862Y0333134D01*
X0117744Y0333239D01*
X0117628Y0333346D01*
X0117516Y0333457D01*
X0117406Y0333570D01*
X0117299Y0333686D01*
X0117195Y0333804D01*
X0117094Y0333926D01*
X0116997Y0334049D01*
X0116902Y0334176D01*
X0116811Y0334304D01*
X0116722Y0334435D01*
X0116638Y0334568D01*
X0116556Y0334703D01*
X0116478Y0334840D01*
X0116404Y0334979D01*
X0116333Y0335120D01*
X0116265Y0335262D01*
X0116202Y0335407D01*
X0116141Y0335552D01*
X0116085Y0335700D01*
X0116032Y0335848D01*
X0115983Y0335998D01*
X0115938Y0336149D01*
X0115897Y0336302D01*
X0115859Y0336455D01*
X0115826Y0336609D01*
X0115796Y0336764D01*
X0115770Y0336919D01*
X0115749Y0337076D01*
X0115731Y0337232D01*
X0115717Y0337389D01*
X0115707Y0337547D01*
X0115701Y0337704D01*
X0115699Y0337862D01*
X0310399Y0337862D02*
X0310401Y0338020D01*
X0310407Y0338177D01*
X0310417Y0338335D01*
X0310431Y0338492D01*
X0310449Y0338648D01*
X0310470Y0338805D01*
X0310496Y0338960D01*
X0310526Y0339115D01*
X0310559Y0339269D01*
X0310597Y0339422D01*
X0310638Y0339575D01*
X0310683Y0339726D01*
X0310732Y0339876D01*
X0310785Y0340024D01*
X0310841Y0340172D01*
X0310902Y0340317D01*
X0310965Y0340462D01*
X0311033Y0340604D01*
X0311104Y0340745D01*
X0311178Y0340884D01*
X0311256Y0341021D01*
X0311338Y0341156D01*
X0311422Y0341289D01*
X0311511Y0341420D01*
X0311602Y0341548D01*
X0311697Y0341675D01*
X0311794Y0341798D01*
X0311895Y0341920D01*
X0311999Y0342038D01*
X0312106Y0342154D01*
X0312216Y0342267D01*
X0312328Y0342378D01*
X0312444Y0342485D01*
X0312562Y0342590D01*
X0312682Y0342692D01*
X0312805Y0342790D01*
X0312931Y0342886D01*
X0313059Y0342978D01*
X0313189Y0343067D01*
X0313321Y0343153D01*
X0313456Y0343235D01*
X0313593Y0343314D01*
X0313731Y0343389D01*
X0313871Y0343461D01*
X0314014Y0343529D01*
X0314157Y0343594D01*
X0314303Y0343655D01*
X0314450Y0343712D01*
X0314598Y0343766D01*
X0314748Y0343816D01*
X0314898Y0343862D01*
X0315050Y0343904D01*
X0315203Y0343943D01*
X0315357Y0343977D01*
X0315512Y0344008D01*
X0315667Y0344034D01*
X0315823Y0344057D01*
X0315980Y0344076D01*
X0316137Y0344091D01*
X0316294Y0344102D01*
X0316452Y0344109D01*
X0316610Y0344112D01*
X0316767Y0344111D01*
X0316925Y0344106D01*
X0317082Y0344097D01*
X0317240Y0344084D01*
X0317396Y0344067D01*
X0317553Y0344046D01*
X0317708Y0344022D01*
X0317863Y0343993D01*
X0318018Y0343960D01*
X0318171Y0343924D01*
X0318324Y0343883D01*
X0318475Y0343839D01*
X0318625Y0343791D01*
X0318774Y0343740D01*
X0318922Y0343684D01*
X0319068Y0343625D01*
X0319213Y0343562D01*
X0319356Y0343495D01*
X0319497Y0343425D01*
X0319636Y0343352D01*
X0319774Y0343275D01*
X0319910Y0343194D01*
X0320043Y0343110D01*
X0320174Y0343023D01*
X0320303Y0342932D01*
X0320430Y0342838D01*
X0320555Y0342741D01*
X0320676Y0342641D01*
X0320796Y0342538D01*
X0320912Y0342432D01*
X0321026Y0342323D01*
X0321138Y0342211D01*
X0321246Y0342097D01*
X0321351Y0341979D01*
X0321454Y0341859D01*
X0321553Y0341737D01*
X0321649Y0341612D01*
X0321742Y0341484D01*
X0321832Y0341355D01*
X0321918Y0341223D01*
X0322002Y0341089D01*
X0322081Y0340953D01*
X0322158Y0340815D01*
X0322230Y0340675D01*
X0322299Y0340533D01*
X0322365Y0340390D01*
X0322427Y0340245D01*
X0322485Y0340098D01*
X0322540Y0339950D01*
X0322591Y0339801D01*
X0322638Y0339650D01*
X0322681Y0339499D01*
X0322720Y0339346D01*
X0322756Y0339192D01*
X0322787Y0339038D01*
X0322815Y0338883D01*
X0322839Y0338727D01*
X0322859Y0338570D01*
X0322875Y0338413D01*
X0322887Y0338256D01*
X0322895Y0338099D01*
X0322899Y0337941D01*
X0322899Y0337783D01*
X0322895Y0337625D01*
X0322887Y0337468D01*
X0322875Y0337311D01*
X0322859Y0337154D01*
X0322839Y0336997D01*
X0322815Y0336841D01*
X0322787Y0336686D01*
X0322756Y0336532D01*
X0322720Y0336378D01*
X0322681Y0336225D01*
X0322638Y0336074D01*
X0322591Y0335923D01*
X0322540Y0335774D01*
X0322485Y0335626D01*
X0322427Y0335479D01*
X0322365Y0335334D01*
X0322299Y0335191D01*
X0322230Y0335049D01*
X0322158Y0334909D01*
X0322081Y0334771D01*
X0322002Y0334635D01*
X0321918Y0334501D01*
X0321832Y0334369D01*
X0321742Y0334240D01*
X0321649Y0334112D01*
X0321553Y0333987D01*
X0321454Y0333865D01*
X0321351Y0333745D01*
X0321246Y0333627D01*
X0321138Y0333513D01*
X0321026Y0333401D01*
X0320912Y0333292D01*
X0320796Y0333186D01*
X0320676Y0333083D01*
X0320555Y0332983D01*
X0320430Y0332886D01*
X0320303Y0332792D01*
X0320174Y0332701D01*
X0320043Y0332614D01*
X0319910Y0332530D01*
X0319774Y0332449D01*
X0319636Y0332372D01*
X0319497Y0332299D01*
X0319356Y0332229D01*
X0319213Y0332162D01*
X0319068Y0332099D01*
X0318922Y0332040D01*
X0318774Y0331984D01*
X0318625Y0331933D01*
X0318475Y0331885D01*
X0318324Y0331841D01*
X0318171Y0331800D01*
X0318018Y0331764D01*
X0317863Y0331731D01*
X0317708Y0331702D01*
X0317553Y0331678D01*
X0317396Y0331657D01*
X0317240Y0331640D01*
X0317082Y0331627D01*
X0316925Y0331618D01*
X0316767Y0331613D01*
X0316610Y0331612D01*
X0316452Y0331615D01*
X0316294Y0331622D01*
X0316137Y0331633D01*
X0315980Y0331648D01*
X0315823Y0331667D01*
X0315667Y0331690D01*
X0315512Y0331716D01*
X0315357Y0331747D01*
X0315203Y0331781D01*
X0315050Y0331820D01*
X0314898Y0331862D01*
X0314748Y0331908D01*
X0314598Y0331958D01*
X0314450Y0332012D01*
X0314303Y0332069D01*
X0314157Y0332130D01*
X0314014Y0332195D01*
X0313871Y0332263D01*
X0313731Y0332335D01*
X0313593Y0332410D01*
X0313456Y0332489D01*
X0313321Y0332571D01*
X0313189Y0332657D01*
X0313059Y0332746D01*
X0312931Y0332838D01*
X0312805Y0332934D01*
X0312682Y0333032D01*
X0312562Y0333134D01*
X0312444Y0333239D01*
X0312328Y0333346D01*
X0312216Y0333457D01*
X0312106Y0333570D01*
X0311999Y0333686D01*
X0311895Y0333804D01*
X0311794Y0333926D01*
X0311697Y0334049D01*
X0311602Y0334176D01*
X0311511Y0334304D01*
X0311422Y0334435D01*
X0311338Y0334568D01*
X0311256Y0334703D01*
X0311178Y0334840D01*
X0311104Y0334979D01*
X0311033Y0335120D01*
X0310965Y0335262D01*
X0310902Y0335407D01*
X0310841Y0335552D01*
X0310785Y0335700D01*
X0310732Y0335848D01*
X0310683Y0335998D01*
X0310638Y0336149D01*
X0310597Y0336302D01*
X0310559Y0336455D01*
X0310526Y0336609D01*
X0310496Y0336764D01*
X0310470Y0336919D01*
X0310449Y0337076D01*
X0310431Y0337232D01*
X0310417Y0337389D01*
X0310407Y0337547D01*
X0310401Y0337704D01*
X0310399Y0337862D01*
X0310399Y0123362D02*
X0310401Y0123520D01*
X0310407Y0123677D01*
X0310417Y0123835D01*
X0310431Y0123992D01*
X0310449Y0124148D01*
X0310470Y0124305D01*
X0310496Y0124460D01*
X0310526Y0124615D01*
X0310559Y0124769D01*
X0310597Y0124922D01*
X0310638Y0125075D01*
X0310683Y0125226D01*
X0310732Y0125376D01*
X0310785Y0125524D01*
X0310841Y0125672D01*
X0310902Y0125817D01*
X0310965Y0125962D01*
X0311033Y0126104D01*
X0311104Y0126245D01*
X0311178Y0126384D01*
X0311256Y0126521D01*
X0311338Y0126656D01*
X0311422Y0126789D01*
X0311511Y0126920D01*
X0311602Y0127048D01*
X0311697Y0127175D01*
X0311794Y0127298D01*
X0311895Y0127420D01*
X0311999Y0127538D01*
X0312106Y0127654D01*
X0312216Y0127767D01*
X0312328Y0127878D01*
X0312444Y0127985D01*
X0312562Y0128090D01*
X0312682Y0128192D01*
X0312805Y0128290D01*
X0312931Y0128386D01*
X0313059Y0128478D01*
X0313189Y0128567D01*
X0313321Y0128653D01*
X0313456Y0128735D01*
X0313593Y0128814D01*
X0313731Y0128889D01*
X0313871Y0128961D01*
X0314014Y0129029D01*
X0314157Y0129094D01*
X0314303Y0129155D01*
X0314450Y0129212D01*
X0314598Y0129266D01*
X0314748Y0129316D01*
X0314898Y0129362D01*
X0315050Y0129404D01*
X0315203Y0129443D01*
X0315357Y0129477D01*
X0315512Y0129508D01*
X0315667Y0129534D01*
X0315823Y0129557D01*
X0315980Y0129576D01*
X0316137Y0129591D01*
X0316294Y0129602D01*
X0316452Y0129609D01*
X0316610Y0129612D01*
X0316767Y0129611D01*
X0316925Y0129606D01*
X0317082Y0129597D01*
X0317240Y0129584D01*
X0317396Y0129567D01*
X0317553Y0129546D01*
X0317708Y0129522D01*
X0317863Y0129493D01*
X0318018Y0129460D01*
X0318171Y0129424D01*
X0318324Y0129383D01*
X0318475Y0129339D01*
X0318625Y0129291D01*
X0318774Y0129240D01*
X0318922Y0129184D01*
X0319068Y0129125D01*
X0319213Y0129062D01*
X0319356Y0128995D01*
X0319497Y0128925D01*
X0319636Y0128852D01*
X0319774Y0128775D01*
X0319910Y0128694D01*
X0320043Y0128610D01*
X0320174Y0128523D01*
X0320303Y0128432D01*
X0320430Y0128338D01*
X0320555Y0128241D01*
X0320676Y0128141D01*
X0320796Y0128038D01*
X0320912Y0127932D01*
X0321026Y0127823D01*
X0321138Y0127711D01*
X0321246Y0127597D01*
X0321351Y0127479D01*
X0321454Y0127359D01*
X0321553Y0127237D01*
X0321649Y0127112D01*
X0321742Y0126984D01*
X0321832Y0126855D01*
X0321918Y0126723D01*
X0322002Y0126589D01*
X0322081Y0126453D01*
X0322158Y0126315D01*
X0322230Y0126175D01*
X0322299Y0126033D01*
X0322365Y0125890D01*
X0322427Y0125745D01*
X0322485Y0125598D01*
X0322540Y0125450D01*
X0322591Y0125301D01*
X0322638Y0125150D01*
X0322681Y0124999D01*
X0322720Y0124846D01*
X0322756Y0124692D01*
X0322787Y0124538D01*
X0322815Y0124383D01*
X0322839Y0124227D01*
X0322859Y0124070D01*
X0322875Y0123913D01*
X0322887Y0123756D01*
X0322895Y0123599D01*
X0322899Y0123441D01*
X0322899Y0123283D01*
X0322895Y0123125D01*
X0322887Y0122968D01*
X0322875Y0122811D01*
X0322859Y0122654D01*
X0322839Y0122497D01*
X0322815Y0122341D01*
X0322787Y0122186D01*
X0322756Y0122032D01*
X0322720Y0121878D01*
X0322681Y0121725D01*
X0322638Y0121574D01*
X0322591Y0121423D01*
X0322540Y0121274D01*
X0322485Y0121126D01*
X0322427Y0120979D01*
X0322365Y0120834D01*
X0322299Y0120691D01*
X0322230Y0120549D01*
X0322158Y0120409D01*
X0322081Y0120271D01*
X0322002Y0120135D01*
X0321918Y0120001D01*
X0321832Y0119869D01*
X0321742Y0119740D01*
X0321649Y0119612D01*
X0321553Y0119487D01*
X0321454Y0119365D01*
X0321351Y0119245D01*
X0321246Y0119127D01*
X0321138Y0119013D01*
X0321026Y0118901D01*
X0320912Y0118792D01*
X0320796Y0118686D01*
X0320676Y0118583D01*
X0320555Y0118483D01*
X0320430Y0118386D01*
X0320303Y0118292D01*
X0320174Y0118201D01*
X0320043Y0118114D01*
X0319910Y0118030D01*
X0319774Y0117949D01*
X0319636Y0117872D01*
X0319497Y0117799D01*
X0319356Y0117729D01*
X0319213Y0117662D01*
X0319068Y0117599D01*
X0318922Y0117540D01*
X0318774Y0117484D01*
X0318625Y0117433D01*
X0318475Y0117385D01*
X0318324Y0117341D01*
X0318171Y0117300D01*
X0318018Y0117264D01*
X0317863Y0117231D01*
X0317708Y0117202D01*
X0317553Y0117178D01*
X0317396Y0117157D01*
X0317240Y0117140D01*
X0317082Y0117127D01*
X0316925Y0117118D01*
X0316767Y0117113D01*
X0316610Y0117112D01*
X0316452Y0117115D01*
X0316294Y0117122D01*
X0316137Y0117133D01*
X0315980Y0117148D01*
X0315823Y0117167D01*
X0315667Y0117190D01*
X0315512Y0117216D01*
X0315357Y0117247D01*
X0315203Y0117281D01*
X0315050Y0117320D01*
X0314898Y0117362D01*
X0314748Y0117408D01*
X0314598Y0117458D01*
X0314450Y0117512D01*
X0314303Y0117569D01*
X0314157Y0117630D01*
X0314014Y0117695D01*
X0313871Y0117763D01*
X0313731Y0117835D01*
X0313593Y0117910D01*
X0313456Y0117989D01*
X0313321Y0118071D01*
X0313189Y0118157D01*
X0313059Y0118246D01*
X0312931Y0118338D01*
X0312805Y0118434D01*
X0312682Y0118532D01*
X0312562Y0118634D01*
X0312444Y0118739D01*
X0312328Y0118846D01*
X0312216Y0118957D01*
X0312106Y0119070D01*
X0311999Y0119186D01*
X0311895Y0119304D01*
X0311794Y0119426D01*
X0311697Y0119549D01*
X0311602Y0119676D01*
X0311511Y0119804D01*
X0311422Y0119935D01*
X0311338Y0120068D01*
X0311256Y0120203D01*
X0311178Y0120340D01*
X0311104Y0120479D01*
X0311033Y0120620D01*
X0310965Y0120762D01*
X0310902Y0120907D01*
X0310841Y0121052D01*
X0310785Y0121200D01*
X0310732Y0121348D01*
X0310683Y0121498D01*
X0310638Y0121649D01*
X0310597Y0121802D01*
X0310559Y0121955D01*
X0310526Y0122109D01*
X0310496Y0122264D01*
X0310470Y0122419D01*
X0310449Y0122576D01*
X0310431Y0122732D01*
X0310417Y0122889D01*
X0310407Y0123047D01*
X0310401Y0123204D01*
X0310399Y0123362D01*
X0358614Y0117243D02*
X0358616Y0117324D01*
X0358622Y0117406D01*
X0358632Y0117487D01*
X0358646Y0117567D01*
X0358663Y0117646D01*
X0358685Y0117725D01*
X0358710Y0117802D01*
X0358739Y0117879D01*
X0358772Y0117953D01*
X0358809Y0118026D01*
X0358848Y0118097D01*
X0358892Y0118166D01*
X0358938Y0118233D01*
X0358988Y0118297D01*
X0359041Y0118359D01*
X0359097Y0118419D01*
X0359155Y0118475D01*
X0359217Y0118529D01*
X0359281Y0118580D01*
X0359347Y0118627D01*
X0359415Y0118671D01*
X0359486Y0118712D01*
X0359558Y0118749D01*
X0359633Y0118783D01*
X0359708Y0118813D01*
X0359786Y0118839D01*
X0359864Y0118862D01*
X0359943Y0118880D01*
X0360023Y0118895D01*
X0360104Y0118906D01*
X0360185Y0118913D01*
X0360267Y0118916D01*
X0360348Y0118915D01*
X0360429Y0118910D01*
X0360510Y0118901D01*
X0360591Y0118888D01*
X0360671Y0118871D01*
X0360749Y0118851D01*
X0360827Y0118826D01*
X0360904Y0118798D01*
X0360979Y0118766D01*
X0361052Y0118731D01*
X0361123Y0118692D01*
X0361193Y0118649D01*
X0361260Y0118604D01*
X0361326Y0118555D01*
X0361388Y0118503D01*
X0361448Y0118447D01*
X0361505Y0118389D01*
X0361560Y0118329D01*
X0361611Y0118265D01*
X0361659Y0118200D01*
X0361704Y0118132D01*
X0361746Y0118062D01*
X0361784Y0117990D01*
X0361819Y0117916D01*
X0361850Y0117841D01*
X0361877Y0117764D01*
X0361900Y0117686D01*
X0361920Y0117607D01*
X0361936Y0117527D01*
X0361948Y0117446D01*
X0361956Y0117365D01*
X0361960Y0117284D01*
X0361960Y0117202D01*
X0361956Y0117121D01*
X0361948Y0117040D01*
X0361936Y0116959D01*
X0361920Y0116879D01*
X0361900Y0116800D01*
X0361877Y0116722D01*
X0361850Y0116645D01*
X0361819Y0116570D01*
X0361784Y0116496D01*
X0361746Y0116424D01*
X0361704Y0116354D01*
X0361659Y0116286D01*
X0361611Y0116221D01*
X0361560Y0116157D01*
X0361505Y0116097D01*
X0361448Y0116039D01*
X0361388Y0115983D01*
X0361326Y0115931D01*
X0361260Y0115882D01*
X0361193Y0115837D01*
X0361124Y0115794D01*
X0361052Y0115755D01*
X0360979Y0115720D01*
X0360904Y0115688D01*
X0360827Y0115660D01*
X0360749Y0115635D01*
X0360671Y0115615D01*
X0360591Y0115598D01*
X0360510Y0115585D01*
X0360429Y0115576D01*
X0360348Y0115571D01*
X0360267Y0115570D01*
X0360185Y0115573D01*
X0360104Y0115580D01*
X0360023Y0115591D01*
X0359943Y0115606D01*
X0359864Y0115624D01*
X0359786Y0115647D01*
X0359708Y0115673D01*
X0359633Y0115703D01*
X0359558Y0115737D01*
X0359486Y0115774D01*
X0359415Y0115815D01*
X0359347Y0115859D01*
X0359281Y0115906D01*
X0359217Y0115957D01*
X0359155Y0116011D01*
X0359097Y0116067D01*
X0359041Y0116127D01*
X0358988Y0116189D01*
X0358938Y0116253D01*
X0358892Y0116320D01*
X0358848Y0116389D01*
X0358809Y0116460D01*
X0358772Y0116533D01*
X0358739Y0116607D01*
X0358710Y0116684D01*
X0358685Y0116761D01*
X0358663Y0116840D01*
X0358646Y0116919D01*
X0358632Y0116999D01*
X0358622Y0117080D01*
X0358616Y0117162D01*
X0358614Y0117243D01*
X0358614Y0102282D02*
X0358616Y0102363D01*
X0358622Y0102445D01*
X0358632Y0102526D01*
X0358646Y0102606D01*
X0358663Y0102685D01*
X0358685Y0102764D01*
X0358710Y0102841D01*
X0358739Y0102918D01*
X0358772Y0102992D01*
X0358809Y0103065D01*
X0358848Y0103136D01*
X0358892Y0103205D01*
X0358938Y0103272D01*
X0358988Y0103336D01*
X0359041Y0103398D01*
X0359097Y0103458D01*
X0359155Y0103514D01*
X0359217Y0103568D01*
X0359281Y0103619D01*
X0359347Y0103666D01*
X0359415Y0103710D01*
X0359486Y0103751D01*
X0359558Y0103788D01*
X0359633Y0103822D01*
X0359708Y0103852D01*
X0359786Y0103878D01*
X0359864Y0103901D01*
X0359943Y0103919D01*
X0360023Y0103934D01*
X0360104Y0103945D01*
X0360185Y0103952D01*
X0360267Y0103955D01*
X0360348Y0103954D01*
X0360429Y0103949D01*
X0360510Y0103940D01*
X0360591Y0103927D01*
X0360671Y0103910D01*
X0360749Y0103890D01*
X0360827Y0103865D01*
X0360904Y0103837D01*
X0360979Y0103805D01*
X0361052Y0103770D01*
X0361123Y0103731D01*
X0361193Y0103688D01*
X0361260Y0103643D01*
X0361326Y0103594D01*
X0361388Y0103542D01*
X0361448Y0103486D01*
X0361505Y0103428D01*
X0361560Y0103368D01*
X0361611Y0103304D01*
X0361659Y0103239D01*
X0361704Y0103171D01*
X0361746Y0103101D01*
X0361784Y0103029D01*
X0361819Y0102955D01*
X0361850Y0102880D01*
X0361877Y0102803D01*
X0361900Y0102725D01*
X0361920Y0102646D01*
X0361936Y0102566D01*
X0361948Y0102485D01*
X0361956Y0102404D01*
X0361960Y0102323D01*
X0361960Y0102241D01*
X0361956Y0102160D01*
X0361948Y0102079D01*
X0361936Y0101998D01*
X0361920Y0101918D01*
X0361900Y0101839D01*
X0361877Y0101761D01*
X0361850Y0101684D01*
X0361819Y0101609D01*
X0361784Y0101535D01*
X0361746Y0101463D01*
X0361704Y0101393D01*
X0361659Y0101325D01*
X0361611Y0101260D01*
X0361560Y0101196D01*
X0361505Y0101136D01*
X0361448Y0101078D01*
X0361388Y0101022D01*
X0361326Y0100970D01*
X0361260Y0100921D01*
X0361193Y0100876D01*
X0361124Y0100833D01*
X0361052Y0100794D01*
X0360979Y0100759D01*
X0360904Y0100727D01*
X0360827Y0100699D01*
X0360749Y0100674D01*
X0360671Y0100654D01*
X0360591Y0100637D01*
X0360510Y0100624D01*
X0360429Y0100615D01*
X0360348Y0100610D01*
X0360267Y0100609D01*
X0360185Y0100612D01*
X0360104Y0100619D01*
X0360023Y0100630D01*
X0359943Y0100645D01*
X0359864Y0100663D01*
X0359786Y0100686D01*
X0359708Y0100712D01*
X0359633Y0100742D01*
X0359558Y0100776D01*
X0359486Y0100813D01*
X0359415Y0100854D01*
X0359347Y0100898D01*
X0359281Y0100945D01*
X0359217Y0100996D01*
X0359155Y0101050D01*
X0359097Y0101106D01*
X0359041Y0101166D01*
X0358988Y0101228D01*
X0358938Y0101292D01*
X0358892Y0101359D01*
X0358848Y0101428D01*
X0358809Y0101499D01*
X0358772Y0101572D01*
X0358739Y0101646D01*
X0358710Y0101723D01*
X0358685Y0101800D01*
X0358663Y0101879D01*
X0358646Y0101958D01*
X0358632Y0102038D01*
X0358622Y0102119D01*
X0358616Y0102201D01*
X0358614Y0102282D01*
X0376950Y0087500D02*
X0376950Y0016000D01*
X0358614Y0030782D02*
X0358616Y0030863D01*
X0358622Y0030945D01*
X0358632Y0031026D01*
X0358646Y0031106D01*
X0358663Y0031185D01*
X0358685Y0031264D01*
X0358710Y0031341D01*
X0358739Y0031418D01*
X0358772Y0031492D01*
X0358809Y0031565D01*
X0358848Y0031636D01*
X0358892Y0031705D01*
X0358938Y0031772D01*
X0358988Y0031836D01*
X0359041Y0031898D01*
X0359097Y0031958D01*
X0359155Y0032014D01*
X0359217Y0032068D01*
X0359281Y0032119D01*
X0359347Y0032166D01*
X0359415Y0032210D01*
X0359486Y0032251D01*
X0359558Y0032288D01*
X0359633Y0032322D01*
X0359708Y0032352D01*
X0359786Y0032378D01*
X0359864Y0032401D01*
X0359943Y0032419D01*
X0360023Y0032434D01*
X0360104Y0032445D01*
X0360185Y0032452D01*
X0360267Y0032455D01*
X0360348Y0032454D01*
X0360429Y0032449D01*
X0360510Y0032440D01*
X0360591Y0032427D01*
X0360671Y0032410D01*
X0360749Y0032390D01*
X0360827Y0032365D01*
X0360904Y0032337D01*
X0360979Y0032305D01*
X0361052Y0032270D01*
X0361123Y0032231D01*
X0361193Y0032188D01*
X0361260Y0032143D01*
X0361326Y0032094D01*
X0361388Y0032042D01*
X0361448Y0031986D01*
X0361505Y0031928D01*
X0361560Y0031868D01*
X0361611Y0031804D01*
X0361659Y0031739D01*
X0361704Y0031671D01*
X0361746Y0031601D01*
X0361784Y0031529D01*
X0361819Y0031455D01*
X0361850Y0031380D01*
X0361877Y0031303D01*
X0361900Y0031225D01*
X0361920Y0031146D01*
X0361936Y0031066D01*
X0361948Y0030985D01*
X0361956Y0030904D01*
X0361960Y0030823D01*
X0361960Y0030741D01*
X0361956Y0030660D01*
X0361948Y0030579D01*
X0361936Y0030498D01*
X0361920Y0030418D01*
X0361900Y0030339D01*
X0361877Y0030261D01*
X0361850Y0030184D01*
X0361819Y0030109D01*
X0361784Y0030035D01*
X0361746Y0029963D01*
X0361704Y0029893D01*
X0361659Y0029825D01*
X0361611Y0029760D01*
X0361560Y0029696D01*
X0361505Y0029636D01*
X0361448Y0029578D01*
X0361388Y0029522D01*
X0361326Y0029470D01*
X0361260Y0029421D01*
X0361193Y0029376D01*
X0361124Y0029333D01*
X0361052Y0029294D01*
X0360979Y0029259D01*
X0360904Y0029227D01*
X0360827Y0029199D01*
X0360749Y0029174D01*
X0360671Y0029154D01*
X0360591Y0029137D01*
X0360510Y0029124D01*
X0360429Y0029115D01*
X0360348Y0029110D01*
X0360267Y0029109D01*
X0360185Y0029112D01*
X0360104Y0029119D01*
X0360023Y0029130D01*
X0359943Y0029145D01*
X0359864Y0029163D01*
X0359786Y0029186D01*
X0359708Y0029212D01*
X0359633Y0029242D01*
X0359558Y0029276D01*
X0359486Y0029313D01*
X0359415Y0029354D01*
X0359347Y0029398D01*
X0359281Y0029445D01*
X0359217Y0029496D01*
X0359155Y0029550D01*
X0359097Y0029606D01*
X0359041Y0029666D01*
X0358988Y0029728D01*
X0358938Y0029792D01*
X0358892Y0029859D01*
X0358848Y0029928D01*
X0358809Y0029999D01*
X0358772Y0030072D01*
X0358739Y0030146D01*
X0358710Y0030223D01*
X0358685Y0030300D01*
X0358663Y0030379D01*
X0358646Y0030458D01*
X0358632Y0030538D01*
X0358622Y0030619D01*
X0358616Y0030701D01*
X0358614Y0030782D01*
X0358614Y0045743D02*
X0358616Y0045824D01*
X0358622Y0045906D01*
X0358632Y0045987D01*
X0358646Y0046067D01*
X0358663Y0046146D01*
X0358685Y0046225D01*
X0358710Y0046302D01*
X0358739Y0046379D01*
X0358772Y0046453D01*
X0358809Y0046526D01*
X0358848Y0046597D01*
X0358892Y0046666D01*
X0358938Y0046733D01*
X0358988Y0046797D01*
X0359041Y0046859D01*
X0359097Y0046919D01*
X0359155Y0046975D01*
X0359217Y0047029D01*
X0359281Y0047080D01*
X0359347Y0047127D01*
X0359415Y0047171D01*
X0359486Y0047212D01*
X0359558Y0047249D01*
X0359633Y0047283D01*
X0359708Y0047313D01*
X0359786Y0047339D01*
X0359864Y0047362D01*
X0359943Y0047380D01*
X0360023Y0047395D01*
X0360104Y0047406D01*
X0360185Y0047413D01*
X0360267Y0047416D01*
X0360348Y0047415D01*
X0360429Y0047410D01*
X0360510Y0047401D01*
X0360591Y0047388D01*
X0360671Y0047371D01*
X0360749Y0047351D01*
X0360827Y0047326D01*
X0360904Y0047298D01*
X0360979Y0047266D01*
X0361052Y0047231D01*
X0361123Y0047192D01*
X0361193Y0047149D01*
X0361260Y0047104D01*
X0361326Y0047055D01*
X0361388Y0047003D01*
X0361448Y0046947D01*
X0361505Y0046889D01*
X0361560Y0046829D01*
X0361611Y0046765D01*
X0361659Y0046700D01*
X0361704Y0046632D01*
X0361746Y0046562D01*
X0361784Y0046490D01*
X0361819Y0046416D01*
X0361850Y0046341D01*
X0361877Y0046264D01*
X0361900Y0046186D01*
X0361920Y0046107D01*
X0361936Y0046027D01*
X0361948Y0045946D01*
X0361956Y0045865D01*
X0361960Y0045784D01*
X0361960Y0045702D01*
X0361956Y0045621D01*
X0361948Y0045540D01*
X0361936Y0045459D01*
X0361920Y0045379D01*
X0361900Y0045300D01*
X0361877Y0045222D01*
X0361850Y0045145D01*
X0361819Y0045070D01*
X0361784Y0044996D01*
X0361746Y0044924D01*
X0361704Y0044854D01*
X0361659Y0044786D01*
X0361611Y0044721D01*
X0361560Y0044657D01*
X0361505Y0044597D01*
X0361448Y0044539D01*
X0361388Y0044483D01*
X0361326Y0044431D01*
X0361260Y0044382D01*
X0361193Y0044337D01*
X0361124Y0044294D01*
X0361052Y0044255D01*
X0360979Y0044220D01*
X0360904Y0044188D01*
X0360827Y0044160D01*
X0360749Y0044135D01*
X0360671Y0044115D01*
X0360591Y0044098D01*
X0360510Y0044085D01*
X0360429Y0044076D01*
X0360348Y0044071D01*
X0360267Y0044070D01*
X0360185Y0044073D01*
X0360104Y0044080D01*
X0360023Y0044091D01*
X0359943Y0044106D01*
X0359864Y0044124D01*
X0359786Y0044147D01*
X0359708Y0044173D01*
X0359633Y0044203D01*
X0359558Y0044237D01*
X0359486Y0044274D01*
X0359415Y0044315D01*
X0359347Y0044359D01*
X0359281Y0044406D01*
X0359217Y0044457D01*
X0359155Y0044511D01*
X0359097Y0044567D01*
X0359041Y0044627D01*
X0358988Y0044689D01*
X0358938Y0044753D01*
X0358892Y0044820D01*
X0358848Y0044889D01*
X0358809Y0044960D01*
X0358772Y0045033D01*
X0358739Y0045107D01*
X0358710Y0045184D01*
X0358685Y0045261D01*
X0358663Y0045340D01*
X0358646Y0045419D01*
X0358632Y0045499D01*
X0358622Y0045580D01*
X0358616Y0045662D01*
X0358614Y0045743D01*
X0310399Y0051862D02*
X0310401Y0052020D01*
X0310407Y0052177D01*
X0310417Y0052335D01*
X0310431Y0052492D01*
X0310449Y0052648D01*
X0310470Y0052805D01*
X0310496Y0052960D01*
X0310526Y0053115D01*
X0310559Y0053269D01*
X0310597Y0053422D01*
X0310638Y0053575D01*
X0310683Y0053726D01*
X0310732Y0053876D01*
X0310785Y0054024D01*
X0310841Y0054172D01*
X0310902Y0054317D01*
X0310965Y0054462D01*
X0311033Y0054604D01*
X0311104Y0054745D01*
X0311178Y0054884D01*
X0311256Y0055021D01*
X0311338Y0055156D01*
X0311422Y0055289D01*
X0311511Y0055420D01*
X0311602Y0055548D01*
X0311697Y0055675D01*
X0311794Y0055798D01*
X0311895Y0055920D01*
X0311999Y0056038D01*
X0312106Y0056154D01*
X0312216Y0056267D01*
X0312328Y0056378D01*
X0312444Y0056485D01*
X0312562Y0056590D01*
X0312682Y0056692D01*
X0312805Y0056790D01*
X0312931Y0056886D01*
X0313059Y0056978D01*
X0313189Y0057067D01*
X0313321Y0057153D01*
X0313456Y0057235D01*
X0313593Y0057314D01*
X0313731Y0057389D01*
X0313871Y0057461D01*
X0314014Y0057529D01*
X0314157Y0057594D01*
X0314303Y0057655D01*
X0314450Y0057712D01*
X0314598Y0057766D01*
X0314748Y0057816D01*
X0314898Y0057862D01*
X0315050Y0057904D01*
X0315203Y0057943D01*
X0315357Y0057977D01*
X0315512Y0058008D01*
X0315667Y0058034D01*
X0315823Y0058057D01*
X0315980Y0058076D01*
X0316137Y0058091D01*
X0316294Y0058102D01*
X0316452Y0058109D01*
X0316610Y0058112D01*
X0316767Y0058111D01*
X0316925Y0058106D01*
X0317082Y0058097D01*
X0317240Y0058084D01*
X0317396Y0058067D01*
X0317553Y0058046D01*
X0317708Y0058022D01*
X0317863Y0057993D01*
X0318018Y0057960D01*
X0318171Y0057924D01*
X0318324Y0057883D01*
X0318475Y0057839D01*
X0318625Y0057791D01*
X0318774Y0057740D01*
X0318922Y0057684D01*
X0319068Y0057625D01*
X0319213Y0057562D01*
X0319356Y0057495D01*
X0319497Y0057425D01*
X0319636Y0057352D01*
X0319774Y0057275D01*
X0319910Y0057194D01*
X0320043Y0057110D01*
X0320174Y0057023D01*
X0320303Y0056932D01*
X0320430Y0056838D01*
X0320555Y0056741D01*
X0320676Y0056641D01*
X0320796Y0056538D01*
X0320912Y0056432D01*
X0321026Y0056323D01*
X0321138Y0056211D01*
X0321246Y0056097D01*
X0321351Y0055979D01*
X0321454Y0055859D01*
X0321553Y0055737D01*
X0321649Y0055612D01*
X0321742Y0055484D01*
X0321832Y0055355D01*
X0321918Y0055223D01*
X0322002Y0055089D01*
X0322081Y0054953D01*
X0322158Y0054815D01*
X0322230Y0054675D01*
X0322299Y0054533D01*
X0322365Y0054390D01*
X0322427Y0054245D01*
X0322485Y0054098D01*
X0322540Y0053950D01*
X0322591Y0053801D01*
X0322638Y0053650D01*
X0322681Y0053499D01*
X0322720Y0053346D01*
X0322756Y0053192D01*
X0322787Y0053038D01*
X0322815Y0052883D01*
X0322839Y0052727D01*
X0322859Y0052570D01*
X0322875Y0052413D01*
X0322887Y0052256D01*
X0322895Y0052099D01*
X0322899Y0051941D01*
X0322899Y0051783D01*
X0322895Y0051625D01*
X0322887Y0051468D01*
X0322875Y0051311D01*
X0322859Y0051154D01*
X0322839Y0050997D01*
X0322815Y0050841D01*
X0322787Y0050686D01*
X0322756Y0050532D01*
X0322720Y0050378D01*
X0322681Y0050225D01*
X0322638Y0050074D01*
X0322591Y0049923D01*
X0322540Y0049774D01*
X0322485Y0049626D01*
X0322427Y0049479D01*
X0322365Y0049334D01*
X0322299Y0049191D01*
X0322230Y0049049D01*
X0322158Y0048909D01*
X0322081Y0048771D01*
X0322002Y0048635D01*
X0321918Y0048501D01*
X0321832Y0048369D01*
X0321742Y0048240D01*
X0321649Y0048112D01*
X0321553Y0047987D01*
X0321454Y0047865D01*
X0321351Y0047745D01*
X0321246Y0047627D01*
X0321138Y0047513D01*
X0321026Y0047401D01*
X0320912Y0047292D01*
X0320796Y0047186D01*
X0320676Y0047083D01*
X0320555Y0046983D01*
X0320430Y0046886D01*
X0320303Y0046792D01*
X0320174Y0046701D01*
X0320043Y0046614D01*
X0319910Y0046530D01*
X0319774Y0046449D01*
X0319636Y0046372D01*
X0319497Y0046299D01*
X0319356Y0046229D01*
X0319213Y0046162D01*
X0319068Y0046099D01*
X0318922Y0046040D01*
X0318774Y0045984D01*
X0318625Y0045933D01*
X0318475Y0045885D01*
X0318324Y0045841D01*
X0318171Y0045800D01*
X0318018Y0045764D01*
X0317863Y0045731D01*
X0317708Y0045702D01*
X0317553Y0045678D01*
X0317396Y0045657D01*
X0317240Y0045640D01*
X0317082Y0045627D01*
X0316925Y0045618D01*
X0316767Y0045613D01*
X0316610Y0045612D01*
X0316452Y0045615D01*
X0316294Y0045622D01*
X0316137Y0045633D01*
X0315980Y0045648D01*
X0315823Y0045667D01*
X0315667Y0045690D01*
X0315512Y0045716D01*
X0315357Y0045747D01*
X0315203Y0045781D01*
X0315050Y0045820D01*
X0314898Y0045862D01*
X0314748Y0045908D01*
X0314598Y0045958D01*
X0314450Y0046012D01*
X0314303Y0046069D01*
X0314157Y0046130D01*
X0314014Y0046195D01*
X0313871Y0046263D01*
X0313731Y0046335D01*
X0313593Y0046410D01*
X0313456Y0046489D01*
X0313321Y0046571D01*
X0313189Y0046657D01*
X0313059Y0046746D01*
X0312931Y0046838D01*
X0312805Y0046934D01*
X0312682Y0047032D01*
X0312562Y0047134D01*
X0312444Y0047239D01*
X0312328Y0047346D01*
X0312216Y0047457D01*
X0312106Y0047570D01*
X0311999Y0047686D01*
X0311895Y0047804D01*
X0311794Y0047926D01*
X0311697Y0048049D01*
X0311602Y0048176D01*
X0311511Y0048304D01*
X0311422Y0048435D01*
X0311338Y0048568D01*
X0311256Y0048703D01*
X0311178Y0048840D01*
X0311104Y0048979D01*
X0311033Y0049120D01*
X0310965Y0049262D01*
X0310902Y0049407D01*
X0310841Y0049552D01*
X0310785Y0049700D01*
X0310732Y0049848D01*
X0310683Y0049998D01*
X0310638Y0050149D01*
X0310597Y0050302D01*
X0310559Y0050455D01*
X0310526Y0050609D01*
X0310496Y0050764D01*
X0310470Y0050919D01*
X0310449Y0051076D01*
X0310431Y0051232D01*
X0310417Y0051389D01*
X0310407Y0051547D01*
X0310401Y0051704D01*
X0310399Y0051862D01*
D11*
X0005818Y0015684D02*
X0004884Y0014750D01*
X0003950Y0015684D01*
X0003950Y0017552D01*
X0005818Y0017552D02*
X0005818Y0015684D01*
X0006712Y0016151D02*
X0008581Y0016151D01*
X0009475Y0015217D02*
X0009942Y0014750D01*
X0010876Y0014750D01*
X0011343Y0015217D01*
X0012237Y0015217D02*
X0012237Y0017552D01*
X0011343Y0017085D02*
X0010876Y0017552D01*
X0009942Y0017552D01*
X0009475Y0017085D01*
X0009475Y0015217D01*
X0012237Y0015217D02*
X0012704Y0014750D01*
X0013638Y0014750D01*
X0014105Y0015217D01*
X0014105Y0017552D01*
X0014999Y0017552D02*
X0016868Y0017552D01*
X0015934Y0017552D02*
X0015934Y0014750D01*
X0015084Y0086200D02*
X0015084Y0089002D01*
X0016018Y0089002D02*
X0014149Y0089002D01*
X0013255Y0089002D02*
X0013255Y0086667D01*
X0012788Y0086200D01*
X0011854Y0086200D01*
X0011387Y0086667D01*
X0011387Y0089002D01*
X0010493Y0088535D02*
X0010026Y0089002D01*
X0009092Y0089002D01*
X0008625Y0088535D01*
X0008625Y0086667D01*
X0009092Y0086200D01*
X0010026Y0086200D01*
X0010493Y0086667D01*
X0007731Y0087601D02*
X0005862Y0087601D01*
X0004968Y0087134D02*
X0004968Y0089002D01*
X0004968Y0087134D02*
X0004034Y0086200D01*
X0003100Y0087134D01*
X0003100Y0089002D01*
X0004234Y0157100D02*
X0005168Y0158034D01*
X0005168Y0159902D01*
X0006062Y0158501D02*
X0007931Y0158501D01*
X0008825Y0157567D02*
X0009292Y0157100D01*
X0010226Y0157100D01*
X0010693Y0157567D01*
X0011587Y0157567D02*
X0012054Y0157100D01*
X0012988Y0157100D01*
X0013455Y0157567D01*
X0013455Y0159902D01*
X0014349Y0159902D02*
X0016218Y0159902D01*
X0015284Y0159902D02*
X0015284Y0157100D01*
X0011587Y0157567D02*
X0011587Y0159902D01*
X0010693Y0159435D02*
X0010226Y0159902D01*
X0009292Y0159902D01*
X0008825Y0159435D01*
X0008825Y0157567D01*
X0004234Y0157100D02*
X0003300Y0158034D01*
X0003300Y0159902D01*
X0005734Y0229200D02*
X0006668Y0230134D01*
X0006668Y0232002D01*
X0007562Y0230601D02*
X0009431Y0230601D01*
X0010325Y0231535D02*
X0010325Y0229667D01*
X0010792Y0229200D01*
X0011726Y0229200D01*
X0012193Y0229667D01*
X0013087Y0229667D02*
X0013554Y0229200D01*
X0014488Y0229200D01*
X0014955Y0229667D01*
X0014955Y0232002D01*
X0015849Y0232002D02*
X0017718Y0232002D01*
X0016784Y0232002D02*
X0016784Y0229200D01*
X0013087Y0229667D02*
X0013087Y0232002D01*
X0012193Y0231535D02*
X0011726Y0232002D01*
X0010792Y0232002D01*
X0010325Y0231535D01*
X0005734Y0229200D02*
X0004800Y0230134D01*
X0004800Y0232002D01*
X0006419Y0300926D02*
X0007353Y0301860D01*
X0007353Y0303728D01*
X0008247Y0302327D02*
X0010116Y0302327D01*
X0011010Y0303261D02*
X0011010Y0301393D01*
X0011477Y0300926D01*
X0012411Y0300926D01*
X0012878Y0301393D01*
X0013772Y0301393D02*
X0014239Y0300926D01*
X0015173Y0300926D01*
X0015640Y0301393D01*
X0015640Y0303728D01*
X0016534Y0303728D02*
X0018403Y0303728D01*
X0017469Y0303728D02*
X0017469Y0300926D01*
X0013772Y0301393D02*
X0013772Y0303728D01*
X0012878Y0303261D02*
X0012411Y0303728D01*
X0011477Y0303728D01*
X0011010Y0303261D01*
X0006419Y0300926D02*
X0005485Y0301860D01*
X0005485Y0303728D01*
X0006519Y0371876D02*
X0007453Y0372810D01*
X0007453Y0374678D01*
X0008347Y0373277D02*
X0010216Y0373277D01*
X0011110Y0372343D02*
X0011577Y0371876D01*
X0012511Y0371876D01*
X0012978Y0372343D01*
X0013872Y0372343D02*
X0014339Y0371876D01*
X0015273Y0371876D01*
X0015740Y0372343D01*
X0015740Y0374678D01*
X0016634Y0374678D02*
X0018503Y0374678D01*
X0017569Y0374678D02*
X0017569Y0371876D01*
X0013872Y0372343D02*
X0013872Y0374678D01*
X0012978Y0374211D02*
X0012511Y0374678D01*
X0011577Y0374678D01*
X0011110Y0374211D01*
X0011110Y0372343D01*
X0006519Y0371876D02*
X0005585Y0372810D01*
X0005585Y0374678D01*
D12*
X0041602Y0364262D03*
X0048295Y0364262D03*
X0064802Y0359462D03*
X0071495Y0359462D03*
X0048295Y0292762D03*
X0041602Y0292762D03*
X0064802Y0287962D03*
X0071495Y0287962D03*
X0048295Y0221262D03*
X0041602Y0221262D03*
X0064802Y0216462D03*
X0071495Y0216462D03*
X0048295Y0149762D03*
X0041602Y0149762D03*
X0064802Y0144962D03*
X0071495Y0144962D03*
X0048295Y0078262D03*
X0041602Y0078262D03*
X0064802Y0073462D03*
X0071495Y0073462D03*
X0153802Y0045462D03*
X0153602Y0040262D03*
X0153602Y0034862D03*
X0160295Y0034862D03*
X0160295Y0040262D03*
X0160495Y0045462D03*
X0174002Y0064662D03*
X0180695Y0064662D03*
X0198002Y0069862D03*
X0204695Y0069862D03*
X0160295Y0106362D03*
X0160295Y0111762D03*
X0160495Y0116962D03*
X0153802Y0116962D03*
X0153602Y0111762D03*
X0153602Y0106362D03*
X0174002Y0136162D03*
X0180695Y0136162D03*
X0198002Y0141362D03*
X0204695Y0141362D03*
X0160295Y0177862D03*
X0160295Y0183262D03*
X0160495Y0188462D03*
X0153802Y0188462D03*
X0153602Y0183262D03*
X0153602Y0177862D03*
X0174002Y0207662D03*
X0180695Y0207662D03*
X0198002Y0212862D03*
X0204695Y0212862D03*
X0160295Y0249362D03*
X0160295Y0254762D03*
X0160495Y0259962D03*
X0153802Y0259962D03*
X0153602Y0254762D03*
X0153602Y0249362D03*
X0174002Y0279162D03*
X0180695Y0279162D03*
X0198002Y0284362D03*
X0204695Y0284362D03*
X0160295Y0320862D03*
X0160295Y0326262D03*
X0160495Y0331462D03*
X0153802Y0331462D03*
X0153602Y0326262D03*
X0153602Y0320862D03*
X0174002Y0350662D03*
X0180695Y0350662D03*
X0198002Y0355862D03*
X0204695Y0355862D03*
X0256202Y0322062D03*
X0262895Y0322062D03*
X0264002Y0337662D03*
X0270695Y0337662D03*
X0270695Y0266162D03*
X0264002Y0266162D03*
X0262895Y0250562D03*
X0256202Y0250562D03*
X0264002Y0194662D03*
X0270695Y0194662D03*
X0262895Y0179062D03*
X0256202Y0179062D03*
X0264002Y0123162D03*
X0270695Y0123162D03*
X0262895Y0107562D03*
X0256202Y0107562D03*
X0264002Y0051662D03*
X0270695Y0051662D03*
X0262895Y0036062D03*
X0256202Y0036062D03*
D13*
X0265549Y0057316D03*
X0265549Y0064009D03*
X0283149Y0050209D03*
X0288549Y0050209D03*
X0288549Y0043516D03*
X0283149Y0043516D03*
X0300349Y0043516D03*
X0300349Y0050209D03*
X0300349Y0115016D03*
X0300349Y0121709D03*
X0288549Y0121709D03*
X0283149Y0121709D03*
X0283149Y0115016D03*
X0288549Y0115016D03*
X0265549Y0128816D03*
X0265549Y0135509D03*
X0283149Y0186516D03*
X0288549Y0186516D03*
X0288549Y0193209D03*
X0283149Y0193209D03*
X0300349Y0193209D03*
X0300349Y0186516D03*
X0265549Y0200316D03*
X0265549Y0207009D03*
X0283149Y0258016D03*
X0288549Y0258016D03*
X0288549Y0264709D03*
X0283149Y0264709D03*
X0300349Y0264709D03*
X0300349Y0258016D03*
X0265549Y0271816D03*
X0265549Y0278509D03*
X0283149Y0329516D03*
X0288549Y0329516D03*
X0288549Y0336209D03*
X0283149Y0336209D03*
X0300349Y0336209D03*
X0300349Y0329516D03*
X0265549Y0343316D03*
X0265549Y0350009D03*
X0217914Y0325892D03*
X0217914Y0319199D03*
X0189549Y0340716D03*
X0189549Y0347409D03*
X0189549Y0275909D03*
X0189549Y0269216D03*
X0217914Y0254392D03*
X0217914Y0247699D03*
X0189549Y0204409D03*
X0189549Y0197716D03*
X0217914Y0182892D03*
X0217914Y0176199D03*
X0189549Y0132909D03*
X0189549Y0126216D03*
X0217914Y0111392D03*
X0217914Y0104699D03*
X0189549Y0061409D03*
X0189549Y0054716D03*
X0217914Y0039892D03*
X0217914Y0033199D03*
X0075149Y0032009D03*
X0069749Y0032009D03*
X0069749Y0025316D03*
X0075149Y0025316D03*
X0075149Y0096816D03*
X0069749Y0096816D03*
X0069749Y0103509D03*
X0075149Y0103509D03*
X0075149Y0168316D03*
X0069749Y0168316D03*
X0069749Y0175009D03*
X0075149Y0175009D03*
X0075149Y0239816D03*
X0075149Y0246509D03*
X0069749Y0246509D03*
X0069749Y0239816D03*
X0069749Y0311316D03*
X0069749Y0318009D03*
X0075149Y0318009D03*
X0075149Y0311316D03*
D14*
X0059502Y0292762D03*
X0053596Y0292762D03*
X0053596Y0221262D03*
X0059502Y0221262D03*
X0059502Y0149762D03*
X0053596Y0149762D03*
X0053596Y0078262D03*
X0059502Y0078262D03*
X0270949Y0070215D03*
X0270949Y0064309D03*
X0277396Y0038262D03*
X0283302Y0038262D03*
X0283302Y0109762D03*
X0277396Y0109762D03*
X0270949Y0135809D03*
X0270949Y0141715D03*
X0277396Y0181262D03*
X0283302Y0181262D03*
X0270949Y0207309D03*
X0270949Y0213215D03*
X0277396Y0252762D03*
X0283302Y0252762D03*
X0270949Y0278809D03*
X0270949Y0284715D03*
X0277396Y0324262D03*
X0283302Y0324262D03*
X0270949Y0350309D03*
X0270949Y0356215D03*
X0059502Y0364262D03*
X0053596Y0364262D03*
D15*
X0268349Y0329806D03*
X0268349Y0322719D03*
X0277349Y0329119D03*
X0277349Y0336206D03*
X0277349Y0264706D03*
X0277349Y0257619D03*
X0268349Y0258306D03*
X0268349Y0251219D03*
X0277349Y0193206D03*
X0277349Y0186119D03*
X0268349Y0186806D03*
X0268349Y0179719D03*
X0277349Y0121706D03*
X0277349Y0114619D03*
X0268349Y0115306D03*
X0268349Y0108219D03*
X0277349Y0050206D03*
X0277349Y0043119D03*
X0268349Y0043806D03*
X0268349Y0036719D03*
D16*
X0281754Y0057157D03*
X0281754Y0063062D03*
X0281754Y0068968D03*
X0281754Y0128657D03*
X0281754Y0134562D03*
X0281754Y0140468D03*
X0281754Y0200157D03*
X0281754Y0206062D03*
X0281754Y0211968D03*
X0281754Y0271657D03*
X0281754Y0277562D03*
X0281754Y0283468D03*
X0281754Y0343157D03*
X0281754Y0349062D03*
X0281754Y0354968D03*
D17*
X0293880Y0349062D03*
X0293880Y0277562D03*
X0293880Y0206062D03*
X0293880Y0134562D03*
X0293880Y0063062D03*
D18*
G36*
X0258732Y0054576D02*
X0256506Y0052350D01*
X0255532Y0053324D01*
X0257758Y0055550D01*
X0258732Y0054576D01*
G37*
G36*
X0256922Y0056386D02*
X0254696Y0054160D01*
X0253722Y0055134D01*
X0255948Y0057360D01*
X0256922Y0056386D01*
G37*
G36*
X0255113Y0058195D02*
X0252887Y0055969D01*
X0251913Y0056943D01*
X0254139Y0059169D01*
X0255113Y0058195D01*
G37*
G36*
X0253303Y0060005D02*
X0251077Y0057779D01*
X0250103Y0058753D01*
X0252329Y0060979D01*
X0253303Y0060005D01*
G37*
G36*
X0251494Y0061814D02*
X0249268Y0059588D01*
X0248294Y0060562D01*
X0250520Y0062788D01*
X0251494Y0061814D01*
G37*
G36*
X0249684Y0063624D02*
X0247458Y0061398D01*
X0246484Y0062372D01*
X0248710Y0064598D01*
X0249684Y0063624D01*
G37*
G36*
X0244675Y0064181D02*
X0246901Y0066407D01*
X0247875Y0065433D01*
X0245649Y0063207D01*
X0244675Y0064181D01*
G37*
G36*
X0242865Y0065991D02*
X0245091Y0068217D01*
X0246065Y0067243D01*
X0243839Y0065017D01*
X0242865Y0065991D01*
G37*
G36*
X0241056Y0067800D02*
X0243282Y0070026D01*
X0244256Y0069052D01*
X0242030Y0066826D01*
X0241056Y0067800D01*
G37*
G36*
X0239246Y0069610D02*
X0241472Y0071836D01*
X0242446Y0070862D01*
X0240220Y0068636D01*
X0239246Y0069610D01*
G37*
G36*
X0237437Y0071419D02*
X0239663Y0073645D01*
X0240637Y0072671D01*
X0238411Y0070445D01*
X0237437Y0071419D01*
G37*
G36*
X0234235Y0073645D02*
X0236461Y0071419D01*
X0235487Y0070445D01*
X0233261Y0072671D01*
X0234235Y0073645D01*
G37*
G36*
X0232425Y0071836D02*
X0234651Y0069610D01*
X0233677Y0068636D01*
X0231451Y0070862D01*
X0232425Y0071836D01*
G37*
G36*
X0230616Y0070026D02*
X0232842Y0067800D01*
X0231868Y0066826D01*
X0229642Y0069052D01*
X0230616Y0070026D01*
G37*
G36*
X0228806Y0068217D02*
X0231032Y0065991D01*
X0230058Y0065017D01*
X0227832Y0067243D01*
X0228806Y0068217D01*
G37*
G36*
X0226997Y0066407D02*
X0229223Y0064181D01*
X0228249Y0063207D01*
X0226023Y0065433D01*
X0226997Y0066407D01*
G37*
G36*
X0225187Y0064598D02*
X0227413Y0062372D01*
X0226439Y0061398D01*
X0224213Y0063624D01*
X0225187Y0064598D01*
G37*
G36*
X0224630Y0059588D02*
X0222404Y0061814D01*
X0223378Y0062788D01*
X0225604Y0060562D01*
X0224630Y0059588D01*
G37*
G36*
X0222820Y0057779D02*
X0220594Y0060005D01*
X0221568Y0060979D01*
X0223794Y0058753D01*
X0222820Y0057779D01*
G37*
G36*
X0221011Y0055969D02*
X0218785Y0058195D01*
X0219759Y0059169D01*
X0221985Y0056943D01*
X0221011Y0055969D01*
G37*
G36*
X0219201Y0054160D02*
X0216975Y0056386D01*
X0217949Y0057360D01*
X0220175Y0055134D01*
X0219201Y0054160D01*
G37*
G36*
X0217392Y0052350D02*
X0215166Y0054576D01*
X0216140Y0055550D01*
X0218366Y0053324D01*
X0217392Y0052350D01*
G37*
G36*
X0215166Y0049148D02*
X0217392Y0051374D01*
X0218366Y0050400D01*
X0216140Y0048174D01*
X0215166Y0049148D01*
G37*
G36*
X0216975Y0047339D02*
X0219201Y0049565D01*
X0220175Y0048591D01*
X0217949Y0046365D01*
X0216975Y0047339D01*
G37*
G36*
X0218785Y0045529D02*
X0221011Y0047755D01*
X0221985Y0046781D01*
X0219759Y0044555D01*
X0218785Y0045529D01*
G37*
G36*
X0220594Y0043720D02*
X0222820Y0045946D01*
X0223794Y0044972D01*
X0221568Y0042746D01*
X0220594Y0043720D01*
G37*
G36*
X0222404Y0041910D02*
X0224630Y0044136D01*
X0225604Y0043162D01*
X0223378Y0040936D01*
X0222404Y0041910D01*
G37*
G36*
X0224213Y0040101D02*
X0226439Y0042327D01*
X0227413Y0041353D01*
X0225187Y0039127D01*
X0224213Y0040101D01*
G37*
G36*
X0229223Y0039543D02*
X0226997Y0037317D01*
X0226023Y0038291D01*
X0228249Y0040517D01*
X0229223Y0039543D01*
G37*
G36*
X0231032Y0037734D02*
X0228806Y0035508D01*
X0227832Y0036482D01*
X0230058Y0038708D01*
X0231032Y0037734D01*
G37*
G36*
X0232842Y0035924D02*
X0230616Y0033698D01*
X0229642Y0034672D01*
X0231868Y0036898D01*
X0232842Y0035924D01*
G37*
G36*
X0234651Y0034115D02*
X0232425Y0031889D01*
X0231451Y0032863D01*
X0233677Y0035089D01*
X0234651Y0034115D01*
G37*
G36*
X0236461Y0032305D02*
X0234235Y0030079D01*
X0233261Y0031053D01*
X0235487Y0033279D01*
X0236461Y0032305D01*
G37*
G36*
X0239663Y0030079D02*
X0237437Y0032305D01*
X0238411Y0033279D01*
X0240637Y0031053D01*
X0239663Y0030079D01*
G37*
G36*
X0241472Y0031889D02*
X0239246Y0034115D01*
X0240220Y0035089D01*
X0242446Y0032863D01*
X0241472Y0031889D01*
G37*
G36*
X0243282Y0033698D02*
X0241056Y0035924D01*
X0242030Y0036898D01*
X0244256Y0034672D01*
X0243282Y0033698D01*
G37*
G36*
X0245091Y0035508D02*
X0242865Y0037734D01*
X0243839Y0038708D01*
X0246065Y0036482D01*
X0245091Y0035508D01*
G37*
G36*
X0246901Y0037317D02*
X0244675Y0039543D01*
X0245649Y0040517D01*
X0247875Y0038291D01*
X0246901Y0037317D01*
G37*
G36*
X0248710Y0039127D02*
X0246484Y0041353D01*
X0247458Y0042327D01*
X0249684Y0040101D01*
X0248710Y0039127D01*
G37*
G36*
X0249268Y0044136D02*
X0251494Y0041910D01*
X0250520Y0040936D01*
X0248294Y0043162D01*
X0249268Y0044136D01*
G37*
G36*
X0251077Y0045946D02*
X0253303Y0043720D01*
X0252329Y0042746D01*
X0250103Y0044972D01*
X0251077Y0045946D01*
G37*
G36*
X0252887Y0047755D02*
X0255113Y0045529D01*
X0254139Y0044555D01*
X0251913Y0046781D01*
X0252887Y0047755D01*
G37*
G36*
X0254696Y0049565D02*
X0256922Y0047339D01*
X0255948Y0046365D01*
X0253722Y0048591D01*
X0254696Y0049565D01*
G37*
G36*
X0256506Y0051374D02*
X0258732Y0049148D01*
X0257758Y0048174D01*
X0255532Y0050400D01*
X0256506Y0051374D01*
G37*
G36*
X0239663Y0101579D02*
X0237437Y0103805D01*
X0238411Y0104779D01*
X0240637Y0102553D01*
X0239663Y0101579D01*
G37*
G36*
X0241472Y0103389D02*
X0239246Y0105615D01*
X0240220Y0106589D01*
X0242446Y0104363D01*
X0241472Y0103389D01*
G37*
G36*
X0243282Y0105198D02*
X0241056Y0107424D01*
X0242030Y0108398D01*
X0244256Y0106172D01*
X0243282Y0105198D01*
G37*
G36*
X0245091Y0107008D02*
X0242865Y0109234D01*
X0243839Y0110208D01*
X0246065Y0107982D01*
X0245091Y0107008D01*
G37*
G36*
X0246901Y0108817D02*
X0244675Y0111043D01*
X0245649Y0112017D01*
X0247875Y0109791D01*
X0246901Y0108817D01*
G37*
G36*
X0248710Y0110627D02*
X0246484Y0112853D01*
X0247458Y0113827D01*
X0249684Y0111601D01*
X0248710Y0110627D01*
G37*
G36*
X0249268Y0115636D02*
X0251494Y0113410D01*
X0250520Y0112436D01*
X0248294Y0114662D01*
X0249268Y0115636D01*
G37*
G36*
X0251077Y0117446D02*
X0253303Y0115220D01*
X0252329Y0114246D01*
X0250103Y0116472D01*
X0251077Y0117446D01*
G37*
G36*
X0252887Y0119255D02*
X0255113Y0117029D01*
X0254139Y0116055D01*
X0251913Y0118281D01*
X0252887Y0119255D01*
G37*
G36*
X0254696Y0121065D02*
X0256922Y0118839D01*
X0255948Y0117865D01*
X0253722Y0120091D01*
X0254696Y0121065D01*
G37*
G36*
X0256506Y0122874D02*
X0258732Y0120648D01*
X0257758Y0119674D01*
X0255532Y0121900D01*
X0256506Y0122874D01*
G37*
G36*
X0258732Y0126076D02*
X0256506Y0123850D01*
X0255532Y0124824D01*
X0257758Y0127050D01*
X0258732Y0126076D01*
G37*
G36*
X0256922Y0127886D02*
X0254696Y0125660D01*
X0253722Y0126634D01*
X0255948Y0128860D01*
X0256922Y0127886D01*
G37*
G36*
X0255113Y0129695D02*
X0252887Y0127469D01*
X0251913Y0128443D01*
X0254139Y0130669D01*
X0255113Y0129695D01*
G37*
G36*
X0253303Y0131505D02*
X0251077Y0129279D01*
X0250103Y0130253D01*
X0252329Y0132479D01*
X0253303Y0131505D01*
G37*
G36*
X0251494Y0133314D02*
X0249268Y0131088D01*
X0248294Y0132062D01*
X0250520Y0134288D01*
X0251494Y0133314D01*
G37*
G36*
X0249684Y0135124D02*
X0247458Y0132898D01*
X0246484Y0133872D01*
X0248710Y0136098D01*
X0249684Y0135124D01*
G37*
G36*
X0244675Y0135681D02*
X0246901Y0137907D01*
X0247875Y0136933D01*
X0245649Y0134707D01*
X0244675Y0135681D01*
G37*
G36*
X0242865Y0137491D02*
X0245091Y0139717D01*
X0246065Y0138743D01*
X0243839Y0136517D01*
X0242865Y0137491D01*
G37*
G36*
X0241056Y0139300D02*
X0243282Y0141526D01*
X0244256Y0140552D01*
X0242030Y0138326D01*
X0241056Y0139300D01*
G37*
G36*
X0239246Y0141110D02*
X0241472Y0143336D01*
X0242446Y0142362D01*
X0240220Y0140136D01*
X0239246Y0141110D01*
G37*
G36*
X0237437Y0142919D02*
X0239663Y0145145D01*
X0240637Y0144171D01*
X0238411Y0141945D01*
X0237437Y0142919D01*
G37*
G36*
X0234235Y0145145D02*
X0236461Y0142919D01*
X0235487Y0141945D01*
X0233261Y0144171D01*
X0234235Y0145145D01*
G37*
G36*
X0232425Y0143336D02*
X0234651Y0141110D01*
X0233677Y0140136D01*
X0231451Y0142362D01*
X0232425Y0143336D01*
G37*
G36*
X0230616Y0141526D02*
X0232842Y0139300D01*
X0231868Y0138326D01*
X0229642Y0140552D01*
X0230616Y0141526D01*
G37*
G36*
X0228806Y0139717D02*
X0231032Y0137491D01*
X0230058Y0136517D01*
X0227832Y0138743D01*
X0228806Y0139717D01*
G37*
G36*
X0226997Y0137907D02*
X0229223Y0135681D01*
X0228249Y0134707D01*
X0226023Y0136933D01*
X0226997Y0137907D01*
G37*
G36*
X0225187Y0136098D02*
X0227413Y0133872D01*
X0226439Y0132898D01*
X0224213Y0135124D01*
X0225187Y0136098D01*
G37*
G36*
X0224630Y0131088D02*
X0222404Y0133314D01*
X0223378Y0134288D01*
X0225604Y0132062D01*
X0224630Y0131088D01*
G37*
G36*
X0222820Y0129279D02*
X0220594Y0131505D01*
X0221568Y0132479D01*
X0223794Y0130253D01*
X0222820Y0129279D01*
G37*
G36*
X0221011Y0127469D02*
X0218785Y0129695D01*
X0219759Y0130669D01*
X0221985Y0128443D01*
X0221011Y0127469D01*
G37*
G36*
X0219201Y0125660D02*
X0216975Y0127886D01*
X0217949Y0128860D01*
X0220175Y0126634D01*
X0219201Y0125660D01*
G37*
G36*
X0217392Y0123850D02*
X0215166Y0126076D01*
X0216140Y0127050D01*
X0218366Y0124824D01*
X0217392Y0123850D01*
G37*
G36*
X0215166Y0120648D02*
X0217392Y0122874D01*
X0218366Y0121900D01*
X0216140Y0119674D01*
X0215166Y0120648D01*
G37*
G36*
X0216975Y0118839D02*
X0219201Y0121065D01*
X0220175Y0120091D01*
X0217949Y0117865D01*
X0216975Y0118839D01*
G37*
G36*
X0218785Y0117029D02*
X0221011Y0119255D01*
X0221985Y0118281D01*
X0219759Y0116055D01*
X0218785Y0117029D01*
G37*
G36*
X0220594Y0115220D02*
X0222820Y0117446D01*
X0223794Y0116472D01*
X0221568Y0114246D01*
X0220594Y0115220D01*
G37*
G36*
X0222404Y0113410D02*
X0224630Y0115636D01*
X0225604Y0114662D01*
X0223378Y0112436D01*
X0222404Y0113410D01*
G37*
G36*
X0224213Y0111601D02*
X0226439Y0113827D01*
X0227413Y0112853D01*
X0225187Y0110627D01*
X0224213Y0111601D01*
G37*
G36*
X0229223Y0111043D02*
X0226997Y0108817D01*
X0226023Y0109791D01*
X0228249Y0112017D01*
X0229223Y0111043D01*
G37*
G36*
X0231032Y0109234D02*
X0228806Y0107008D01*
X0227832Y0107982D01*
X0230058Y0110208D01*
X0231032Y0109234D01*
G37*
G36*
X0232842Y0107424D02*
X0230616Y0105198D01*
X0229642Y0106172D01*
X0231868Y0108398D01*
X0232842Y0107424D01*
G37*
G36*
X0234651Y0105615D02*
X0232425Y0103389D01*
X0231451Y0104363D01*
X0233677Y0106589D01*
X0234651Y0105615D01*
G37*
G36*
X0236461Y0103805D02*
X0234235Y0101579D01*
X0233261Y0102553D01*
X0235487Y0104779D01*
X0236461Y0103805D01*
G37*
G36*
X0236461Y0175305D02*
X0234235Y0173079D01*
X0233261Y0174053D01*
X0235487Y0176279D01*
X0236461Y0175305D01*
G37*
G36*
X0239663Y0173079D02*
X0237437Y0175305D01*
X0238411Y0176279D01*
X0240637Y0174053D01*
X0239663Y0173079D01*
G37*
G36*
X0241472Y0174889D02*
X0239246Y0177115D01*
X0240220Y0178089D01*
X0242446Y0175863D01*
X0241472Y0174889D01*
G37*
G36*
X0243282Y0176698D02*
X0241056Y0178924D01*
X0242030Y0179898D01*
X0244256Y0177672D01*
X0243282Y0176698D01*
G37*
G36*
X0245091Y0178508D02*
X0242865Y0180734D01*
X0243839Y0181708D01*
X0246065Y0179482D01*
X0245091Y0178508D01*
G37*
G36*
X0246901Y0180317D02*
X0244675Y0182543D01*
X0245649Y0183517D01*
X0247875Y0181291D01*
X0246901Y0180317D01*
G37*
G36*
X0248710Y0182127D02*
X0246484Y0184353D01*
X0247458Y0185327D01*
X0249684Y0183101D01*
X0248710Y0182127D01*
G37*
G36*
X0249268Y0187136D02*
X0251494Y0184910D01*
X0250520Y0183936D01*
X0248294Y0186162D01*
X0249268Y0187136D01*
G37*
G36*
X0251077Y0188946D02*
X0253303Y0186720D01*
X0252329Y0185746D01*
X0250103Y0187972D01*
X0251077Y0188946D01*
G37*
G36*
X0252887Y0190755D02*
X0255113Y0188529D01*
X0254139Y0187555D01*
X0251913Y0189781D01*
X0252887Y0190755D01*
G37*
G36*
X0254696Y0192565D02*
X0256922Y0190339D01*
X0255948Y0189365D01*
X0253722Y0191591D01*
X0254696Y0192565D01*
G37*
G36*
X0256506Y0194374D02*
X0258732Y0192148D01*
X0257758Y0191174D01*
X0255532Y0193400D01*
X0256506Y0194374D01*
G37*
G36*
X0258732Y0197576D02*
X0256506Y0195350D01*
X0255532Y0196324D01*
X0257758Y0198550D01*
X0258732Y0197576D01*
G37*
G36*
X0256922Y0199386D02*
X0254696Y0197160D01*
X0253722Y0198134D01*
X0255948Y0200360D01*
X0256922Y0199386D01*
G37*
G36*
X0255113Y0201195D02*
X0252887Y0198969D01*
X0251913Y0199943D01*
X0254139Y0202169D01*
X0255113Y0201195D01*
G37*
G36*
X0253303Y0203005D02*
X0251077Y0200779D01*
X0250103Y0201753D01*
X0252329Y0203979D01*
X0253303Y0203005D01*
G37*
G36*
X0251494Y0204814D02*
X0249268Y0202588D01*
X0248294Y0203562D01*
X0250520Y0205788D01*
X0251494Y0204814D01*
G37*
G36*
X0249684Y0206624D02*
X0247458Y0204398D01*
X0246484Y0205372D01*
X0248710Y0207598D01*
X0249684Y0206624D01*
G37*
G36*
X0244675Y0207181D02*
X0246901Y0209407D01*
X0247875Y0208433D01*
X0245649Y0206207D01*
X0244675Y0207181D01*
G37*
G36*
X0242865Y0208991D02*
X0245091Y0211217D01*
X0246065Y0210243D01*
X0243839Y0208017D01*
X0242865Y0208991D01*
G37*
G36*
X0241056Y0210800D02*
X0243282Y0213026D01*
X0244256Y0212052D01*
X0242030Y0209826D01*
X0241056Y0210800D01*
G37*
G36*
X0239246Y0212610D02*
X0241472Y0214836D01*
X0242446Y0213862D01*
X0240220Y0211636D01*
X0239246Y0212610D01*
G37*
G36*
X0237437Y0214419D02*
X0239663Y0216645D01*
X0240637Y0215671D01*
X0238411Y0213445D01*
X0237437Y0214419D01*
G37*
G36*
X0234235Y0216645D02*
X0236461Y0214419D01*
X0235487Y0213445D01*
X0233261Y0215671D01*
X0234235Y0216645D01*
G37*
G36*
X0232425Y0214836D02*
X0234651Y0212610D01*
X0233677Y0211636D01*
X0231451Y0213862D01*
X0232425Y0214836D01*
G37*
G36*
X0230616Y0213026D02*
X0232842Y0210800D01*
X0231868Y0209826D01*
X0229642Y0212052D01*
X0230616Y0213026D01*
G37*
G36*
X0228806Y0211217D02*
X0231032Y0208991D01*
X0230058Y0208017D01*
X0227832Y0210243D01*
X0228806Y0211217D01*
G37*
G36*
X0226997Y0209407D02*
X0229223Y0207181D01*
X0228249Y0206207D01*
X0226023Y0208433D01*
X0226997Y0209407D01*
G37*
G36*
X0225187Y0207598D02*
X0227413Y0205372D01*
X0226439Y0204398D01*
X0224213Y0206624D01*
X0225187Y0207598D01*
G37*
G36*
X0224630Y0202588D02*
X0222404Y0204814D01*
X0223378Y0205788D01*
X0225604Y0203562D01*
X0224630Y0202588D01*
G37*
G36*
X0222820Y0200779D02*
X0220594Y0203005D01*
X0221568Y0203979D01*
X0223794Y0201753D01*
X0222820Y0200779D01*
G37*
G36*
X0221011Y0198969D02*
X0218785Y0201195D01*
X0219759Y0202169D01*
X0221985Y0199943D01*
X0221011Y0198969D01*
G37*
G36*
X0219201Y0197160D02*
X0216975Y0199386D01*
X0217949Y0200360D01*
X0220175Y0198134D01*
X0219201Y0197160D01*
G37*
G36*
X0217392Y0195350D02*
X0215166Y0197576D01*
X0216140Y0198550D01*
X0218366Y0196324D01*
X0217392Y0195350D01*
G37*
G36*
X0215166Y0192148D02*
X0217392Y0194374D01*
X0218366Y0193400D01*
X0216140Y0191174D01*
X0215166Y0192148D01*
G37*
G36*
X0216975Y0190339D02*
X0219201Y0192565D01*
X0220175Y0191591D01*
X0217949Y0189365D01*
X0216975Y0190339D01*
G37*
G36*
X0218785Y0188529D02*
X0221011Y0190755D01*
X0221985Y0189781D01*
X0219759Y0187555D01*
X0218785Y0188529D01*
G37*
G36*
X0220594Y0186720D02*
X0222820Y0188946D01*
X0223794Y0187972D01*
X0221568Y0185746D01*
X0220594Y0186720D01*
G37*
G36*
X0222404Y0184910D02*
X0224630Y0187136D01*
X0225604Y0186162D01*
X0223378Y0183936D01*
X0222404Y0184910D01*
G37*
G36*
X0224213Y0183101D02*
X0226439Y0185327D01*
X0227413Y0184353D01*
X0225187Y0182127D01*
X0224213Y0183101D01*
G37*
G36*
X0229223Y0182543D02*
X0226997Y0180317D01*
X0226023Y0181291D01*
X0228249Y0183517D01*
X0229223Y0182543D01*
G37*
G36*
X0231032Y0180734D02*
X0228806Y0178508D01*
X0227832Y0179482D01*
X0230058Y0181708D01*
X0231032Y0180734D01*
G37*
G36*
X0232842Y0178924D02*
X0230616Y0176698D01*
X0229642Y0177672D01*
X0231868Y0179898D01*
X0232842Y0178924D01*
G37*
G36*
X0234651Y0177115D02*
X0232425Y0174889D01*
X0231451Y0175863D01*
X0233677Y0178089D01*
X0234651Y0177115D01*
G37*
G36*
X0236461Y0246805D02*
X0234235Y0244579D01*
X0233261Y0245553D01*
X0235487Y0247779D01*
X0236461Y0246805D01*
G37*
G36*
X0239663Y0244579D02*
X0237437Y0246805D01*
X0238411Y0247779D01*
X0240637Y0245553D01*
X0239663Y0244579D01*
G37*
G36*
X0241472Y0246389D02*
X0239246Y0248615D01*
X0240220Y0249589D01*
X0242446Y0247363D01*
X0241472Y0246389D01*
G37*
G36*
X0243282Y0248198D02*
X0241056Y0250424D01*
X0242030Y0251398D01*
X0244256Y0249172D01*
X0243282Y0248198D01*
G37*
G36*
X0245091Y0250008D02*
X0242865Y0252234D01*
X0243839Y0253208D01*
X0246065Y0250982D01*
X0245091Y0250008D01*
G37*
G36*
X0246901Y0251817D02*
X0244675Y0254043D01*
X0245649Y0255017D01*
X0247875Y0252791D01*
X0246901Y0251817D01*
G37*
G36*
X0248710Y0253627D02*
X0246484Y0255853D01*
X0247458Y0256827D01*
X0249684Y0254601D01*
X0248710Y0253627D01*
G37*
G36*
X0249268Y0258636D02*
X0251494Y0256410D01*
X0250520Y0255436D01*
X0248294Y0257662D01*
X0249268Y0258636D01*
G37*
G36*
X0251077Y0260446D02*
X0253303Y0258220D01*
X0252329Y0257246D01*
X0250103Y0259472D01*
X0251077Y0260446D01*
G37*
G36*
X0252887Y0262255D02*
X0255113Y0260029D01*
X0254139Y0259055D01*
X0251913Y0261281D01*
X0252887Y0262255D01*
G37*
G36*
X0254696Y0264065D02*
X0256922Y0261839D01*
X0255948Y0260865D01*
X0253722Y0263091D01*
X0254696Y0264065D01*
G37*
G36*
X0256506Y0265874D02*
X0258732Y0263648D01*
X0257758Y0262674D01*
X0255532Y0264900D01*
X0256506Y0265874D01*
G37*
G36*
X0258732Y0269076D02*
X0256506Y0266850D01*
X0255532Y0267824D01*
X0257758Y0270050D01*
X0258732Y0269076D01*
G37*
G36*
X0256922Y0270886D02*
X0254696Y0268660D01*
X0253722Y0269634D01*
X0255948Y0271860D01*
X0256922Y0270886D01*
G37*
G36*
X0255113Y0272695D02*
X0252887Y0270469D01*
X0251913Y0271443D01*
X0254139Y0273669D01*
X0255113Y0272695D01*
G37*
G36*
X0253303Y0274505D02*
X0251077Y0272279D01*
X0250103Y0273253D01*
X0252329Y0275479D01*
X0253303Y0274505D01*
G37*
G36*
X0251494Y0276314D02*
X0249268Y0274088D01*
X0248294Y0275062D01*
X0250520Y0277288D01*
X0251494Y0276314D01*
G37*
G36*
X0249684Y0278124D02*
X0247458Y0275898D01*
X0246484Y0276872D01*
X0248710Y0279098D01*
X0249684Y0278124D01*
G37*
G36*
X0244675Y0278681D02*
X0246901Y0280907D01*
X0247875Y0279933D01*
X0245649Y0277707D01*
X0244675Y0278681D01*
G37*
G36*
X0242865Y0280491D02*
X0245091Y0282717D01*
X0246065Y0281743D01*
X0243839Y0279517D01*
X0242865Y0280491D01*
G37*
G36*
X0241056Y0282300D02*
X0243282Y0284526D01*
X0244256Y0283552D01*
X0242030Y0281326D01*
X0241056Y0282300D01*
G37*
G36*
X0239246Y0284110D02*
X0241472Y0286336D01*
X0242446Y0285362D01*
X0240220Y0283136D01*
X0239246Y0284110D01*
G37*
G36*
X0237437Y0285919D02*
X0239663Y0288145D01*
X0240637Y0287171D01*
X0238411Y0284945D01*
X0237437Y0285919D01*
G37*
G36*
X0234235Y0288145D02*
X0236461Y0285919D01*
X0235487Y0284945D01*
X0233261Y0287171D01*
X0234235Y0288145D01*
G37*
G36*
X0232425Y0286336D02*
X0234651Y0284110D01*
X0233677Y0283136D01*
X0231451Y0285362D01*
X0232425Y0286336D01*
G37*
G36*
X0230616Y0284526D02*
X0232842Y0282300D01*
X0231868Y0281326D01*
X0229642Y0283552D01*
X0230616Y0284526D01*
G37*
G36*
X0228806Y0282717D02*
X0231032Y0280491D01*
X0230058Y0279517D01*
X0227832Y0281743D01*
X0228806Y0282717D01*
G37*
G36*
X0226997Y0280907D02*
X0229223Y0278681D01*
X0228249Y0277707D01*
X0226023Y0279933D01*
X0226997Y0280907D01*
G37*
G36*
X0225187Y0279098D02*
X0227413Y0276872D01*
X0226439Y0275898D01*
X0224213Y0278124D01*
X0225187Y0279098D01*
G37*
G36*
X0224630Y0274088D02*
X0222404Y0276314D01*
X0223378Y0277288D01*
X0225604Y0275062D01*
X0224630Y0274088D01*
G37*
G36*
X0222820Y0272279D02*
X0220594Y0274505D01*
X0221568Y0275479D01*
X0223794Y0273253D01*
X0222820Y0272279D01*
G37*
G36*
X0221011Y0270469D02*
X0218785Y0272695D01*
X0219759Y0273669D01*
X0221985Y0271443D01*
X0221011Y0270469D01*
G37*
G36*
X0219201Y0268660D02*
X0216975Y0270886D01*
X0217949Y0271860D01*
X0220175Y0269634D01*
X0219201Y0268660D01*
G37*
G36*
X0217392Y0266850D02*
X0215166Y0269076D01*
X0216140Y0270050D01*
X0218366Y0267824D01*
X0217392Y0266850D01*
G37*
G36*
X0215166Y0263648D02*
X0217392Y0265874D01*
X0218366Y0264900D01*
X0216140Y0262674D01*
X0215166Y0263648D01*
G37*
G36*
X0216975Y0261839D02*
X0219201Y0264065D01*
X0220175Y0263091D01*
X0217949Y0260865D01*
X0216975Y0261839D01*
G37*
G36*
X0218785Y0260029D02*
X0221011Y0262255D01*
X0221985Y0261281D01*
X0219759Y0259055D01*
X0218785Y0260029D01*
G37*
G36*
X0220594Y0258220D02*
X0222820Y0260446D01*
X0223794Y0259472D01*
X0221568Y0257246D01*
X0220594Y0258220D01*
G37*
G36*
X0222404Y0256410D02*
X0224630Y0258636D01*
X0225604Y0257662D01*
X0223378Y0255436D01*
X0222404Y0256410D01*
G37*
G36*
X0224213Y0254601D02*
X0226439Y0256827D01*
X0227413Y0255853D01*
X0225187Y0253627D01*
X0224213Y0254601D01*
G37*
G36*
X0229223Y0254043D02*
X0226997Y0251817D01*
X0226023Y0252791D01*
X0228249Y0255017D01*
X0229223Y0254043D01*
G37*
G36*
X0231032Y0252234D02*
X0228806Y0250008D01*
X0227832Y0250982D01*
X0230058Y0253208D01*
X0231032Y0252234D01*
G37*
G36*
X0232842Y0250424D02*
X0230616Y0248198D01*
X0229642Y0249172D01*
X0231868Y0251398D01*
X0232842Y0250424D01*
G37*
G36*
X0234651Y0248615D02*
X0232425Y0246389D01*
X0231451Y0247363D01*
X0233677Y0249589D01*
X0234651Y0248615D01*
G37*
G36*
X0236461Y0318305D02*
X0234235Y0316079D01*
X0233261Y0317053D01*
X0235487Y0319279D01*
X0236461Y0318305D01*
G37*
G36*
X0239663Y0316079D02*
X0237437Y0318305D01*
X0238411Y0319279D01*
X0240637Y0317053D01*
X0239663Y0316079D01*
G37*
G36*
X0241472Y0317889D02*
X0239246Y0320115D01*
X0240220Y0321089D01*
X0242446Y0318863D01*
X0241472Y0317889D01*
G37*
G36*
X0243282Y0319698D02*
X0241056Y0321924D01*
X0242030Y0322898D01*
X0244256Y0320672D01*
X0243282Y0319698D01*
G37*
G36*
X0245091Y0321508D02*
X0242865Y0323734D01*
X0243839Y0324708D01*
X0246065Y0322482D01*
X0245091Y0321508D01*
G37*
G36*
X0246901Y0323317D02*
X0244675Y0325543D01*
X0245649Y0326517D01*
X0247875Y0324291D01*
X0246901Y0323317D01*
G37*
G36*
X0248710Y0325127D02*
X0246484Y0327353D01*
X0247458Y0328327D01*
X0249684Y0326101D01*
X0248710Y0325127D01*
G37*
G36*
X0249268Y0330136D02*
X0251494Y0327910D01*
X0250520Y0326936D01*
X0248294Y0329162D01*
X0249268Y0330136D01*
G37*
G36*
X0251077Y0331946D02*
X0253303Y0329720D01*
X0252329Y0328746D01*
X0250103Y0330972D01*
X0251077Y0331946D01*
G37*
G36*
X0252887Y0333755D02*
X0255113Y0331529D01*
X0254139Y0330555D01*
X0251913Y0332781D01*
X0252887Y0333755D01*
G37*
G36*
X0254696Y0335565D02*
X0256922Y0333339D01*
X0255948Y0332365D01*
X0253722Y0334591D01*
X0254696Y0335565D01*
G37*
G36*
X0256506Y0337374D02*
X0258732Y0335148D01*
X0257758Y0334174D01*
X0255532Y0336400D01*
X0256506Y0337374D01*
G37*
G36*
X0258732Y0340576D02*
X0256506Y0338350D01*
X0255532Y0339324D01*
X0257758Y0341550D01*
X0258732Y0340576D01*
G37*
G36*
X0256922Y0342386D02*
X0254696Y0340160D01*
X0253722Y0341134D01*
X0255948Y0343360D01*
X0256922Y0342386D01*
G37*
G36*
X0255113Y0344195D02*
X0252887Y0341969D01*
X0251913Y0342943D01*
X0254139Y0345169D01*
X0255113Y0344195D01*
G37*
G36*
X0253303Y0346005D02*
X0251077Y0343779D01*
X0250103Y0344753D01*
X0252329Y0346979D01*
X0253303Y0346005D01*
G37*
G36*
X0251494Y0347814D02*
X0249268Y0345588D01*
X0248294Y0346562D01*
X0250520Y0348788D01*
X0251494Y0347814D01*
G37*
G36*
X0249684Y0349624D02*
X0247458Y0347398D01*
X0246484Y0348372D01*
X0248710Y0350598D01*
X0249684Y0349624D01*
G37*
G36*
X0244675Y0350181D02*
X0246901Y0352407D01*
X0247875Y0351433D01*
X0245649Y0349207D01*
X0244675Y0350181D01*
G37*
G36*
X0242865Y0351991D02*
X0245091Y0354217D01*
X0246065Y0353243D01*
X0243839Y0351017D01*
X0242865Y0351991D01*
G37*
G36*
X0241056Y0353800D02*
X0243282Y0356026D01*
X0244256Y0355052D01*
X0242030Y0352826D01*
X0241056Y0353800D01*
G37*
G36*
X0239246Y0355610D02*
X0241472Y0357836D01*
X0242446Y0356862D01*
X0240220Y0354636D01*
X0239246Y0355610D01*
G37*
G36*
X0237437Y0357419D02*
X0239663Y0359645D01*
X0240637Y0358671D01*
X0238411Y0356445D01*
X0237437Y0357419D01*
G37*
G36*
X0234235Y0359645D02*
X0236461Y0357419D01*
X0235487Y0356445D01*
X0233261Y0358671D01*
X0234235Y0359645D01*
G37*
G36*
X0232425Y0357836D02*
X0234651Y0355610D01*
X0233677Y0354636D01*
X0231451Y0356862D01*
X0232425Y0357836D01*
G37*
G36*
X0230616Y0356026D02*
X0232842Y0353800D01*
X0231868Y0352826D01*
X0229642Y0355052D01*
X0230616Y0356026D01*
G37*
G36*
X0228806Y0354217D02*
X0231032Y0351991D01*
X0230058Y0351017D01*
X0227832Y0353243D01*
X0228806Y0354217D01*
G37*
G36*
X0226997Y0352407D02*
X0229223Y0350181D01*
X0228249Y0349207D01*
X0226023Y0351433D01*
X0226997Y0352407D01*
G37*
G36*
X0225187Y0350598D02*
X0227413Y0348372D01*
X0226439Y0347398D01*
X0224213Y0349624D01*
X0225187Y0350598D01*
G37*
G36*
X0224630Y0345588D02*
X0222404Y0347814D01*
X0223378Y0348788D01*
X0225604Y0346562D01*
X0224630Y0345588D01*
G37*
G36*
X0222820Y0343779D02*
X0220594Y0346005D01*
X0221568Y0346979D01*
X0223794Y0344753D01*
X0222820Y0343779D01*
G37*
G36*
X0221011Y0341969D02*
X0218785Y0344195D01*
X0219759Y0345169D01*
X0221985Y0342943D01*
X0221011Y0341969D01*
G37*
G36*
X0219201Y0340160D02*
X0216975Y0342386D01*
X0217949Y0343360D01*
X0220175Y0341134D01*
X0219201Y0340160D01*
G37*
G36*
X0217392Y0338350D02*
X0215166Y0340576D01*
X0216140Y0341550D01*
X0218366Y0339324D01*
X0217392Y0338350D01*
G37*
G36*
X0215166Y0335148D02*
X0217392Y0337374D01*
X0218366Y0336400D01*
X0216140Y0334174D01*
X0215166Y0335148D01*
G37*
G36*
X0216975Y0333339D02*
X0219201Y0335565D01*
X0220175Y0334591D01*
X0217949Y0332365D01*
X0216975Y0333339D01*
G37*
G36*
X0218785Y0331529D02*
X0221011Y0333755D01*
X0221985Y0332781D01*
X0219759Y0330555D01*
X0218785Y0331529D01*
G37*
G36*
X0220594Y0329720D02*
X0222820Y0331946D01*
X0223794Y0330972D01*
X0221568Y0328746D01*
X0220594Y0329720D01*
G37*
G36*
X0222404Y0327910D02*
X0224630Y0330136D01*
X0225604Y0329162D01*
X0223378Y0326936D01*
X0222404Y0327910D01*
G37*
G36*
X0224213Y0326101D02*
X0226439Y0328327D01*
X0227413Y0327353D01*
X0225187Y0325127D01*
X0224213Y0326101D01*
G37*
G36*
X0229223Y0325543D02*
X0226997Y0323317D01*
X0226023Y0324291D01*
X0228249Y0326517D01*
X0229223Y0325543D01*
G37*
G36*
X0231032Y0323734D02*
X0228806Y0321508D01*
X0227832Y0322482D01*
X0230058Y0324708D01*
X0231032Y0323734D01*
G37*
G36*
X0232842Y0321924D02*
X0230616Y0319698D01*
X0229642Y0320672D01*
X0231868Y0322898D01*
X0232842Y0321924D01*
G37*
G36*
X0234651Y0320115D02*
X0232425Y0317889D01*
X0231451Y0318863D01*
X0233677Y0321089D01*
X0234651Y0320115D01*
G37*
D19*
X0180349Y0320662D03*
X0180349Y0322662D03*
X0180349Y0324662D03*
X0180349Y0326662D03*
X0169149Y0326662D03*
X0169149Y0324662D03*
X0169149Y0322662D03*
X0169149Y0320662D03*
X0169149Y0255162D03*
X0169149Y0253162D03*
X0169149Y0251162D03*
X0169149Y0249162D03*
X0180349Y0249162D03*
X0180349Y0251162D03*
X0180349Y0253162D03*
X0180349Y0255162D03*
X0180349Y0183662D03*
X0180349Y0181662D03*
X0180349Y0179662D03*
X0180349Y0177662D03*
X0169149Y0177662D03*
X0169149Y0179662D03*
X0169149Y0181662D03*
X0169149Y0183662D03*
X0169149Y0112162D03*
X0169149Y0110162D03*
X0169149Y0108162D03*
X0169149Y0106162D03*
X0180349Y0106162D03*
X0180349Y0108162D03*
X0180349Y0110162D03*
X0180349Y0112162D03*
X0180349Y0040662D03*
X0180349Y0038662D03*
X0180349Y0036662D03*
X0180349Y0034662D03*
X0169149Y0034662D03*
X0169149Y0036662D03*
X0169149Y0038662D03*
X0169149Y0040662D03*
D20*
X0341336Y0035976D03*
X0341336Y0050543D03*
X0341336Y0107476D03*
X0341336Y0122043D03*
X0341336Y0178976D03*
X0341336Y0193543D03*
X0341336Y0250476D03*
X0341336Y0265043D03*
X0341336Y0321976D03*
X0341336Y0336543D03*
D21*
X0368949Y0324262D03*
X0368949Y0252762D03*
X0368949Y0181262D03*
X0368949Y0109762D03*
X0368949Y0038262D03*
X0059069Y0035246D03*
X0054344Y0035246D03*
X0049620Y0035246D03*
X0044895Y0035246D03*
X0040171Y0035246D03*
X0040171Y0068711D03*
X0044895Y0068711D03*
X0049620Y0068711D03*
X0054344Y0068711D03*
X0059069Y0068711D03*
X0059069Y0106746D03*
X0054344Y0106746D03*
X0049620Y0106746D03*
X0044895Y0106746D03*
X0040171Y0106746D03*
X0040171Y0140211D03*
X0044895Y0140211D03*
X0049620Y0140211D03*
X0054344Y0140211D03*
X0059069Y0140211D03*
X0059069Y0178246D03*
X0054344Y0178246D03*
X0049620Y0178246D03*
X0044895Y0178246D03*
X0040171Y0178246D03*
X0040171Y0211711D03*
X0044895Y0211711D03*
X0049620Y0211711D03*
X0054344Y0211711D03*
X0059069Y0211711D03*
X0059069Y0249746D03*
X0054344Y0249746D03*
X0049620Y0249746D03*
X0044895Y0249746D03*
X0040171Y0249746D03*
X0040171Y0283211D03*
X0044895Y0283211D03*
X0049620Y0283211D03*
X0054344Y0283211D03*
X0059069Y0283211D03*
X0059069Y0321246D03*
X0054344Y0321246D03*
X0049620Y0321246D03*
X0044895Y0321246D03*
X0040171Y0321246D03*
X0040171Y0354711D03*
X0044895Y0354711D03*
X0049620Y0354711D03*
X0054344Y0354711D03*
X0059069Y0354711D03*
D22*
X0065565Y0349790D03*
X0065565Y0345065D03*
X0065565Y0340341D03*
X0065565Y0335617D03*
X0065565Y0330892D03*
X0065565Y0326168D03*
X0065565Y0278290D03*
X0065565Y0273565D03*
X0065565Y0268841D03*
X0065565Y0264117D03*
X0065565Y0259392D03*
X0065565Y0254668D03*
X0065565Y0206790D03*
X0065565Y0202065D03*
X0065565Y0197341D03*
X0065565Y0192617D03*
X0065565Y0187892D03*
X0065565Y0183168D03*
X0065565Y0135290D03*
X0065565Y0130565D03*
X0065565Y0125841D03*
X0065565Y0121117D03*
X0065565Y0116392D03*
X0065565Y0111668D03*
X0065565Y0063790D03*
X0065565Y0059065D03*
X0065565Y0054341D03*
X0065565Y0049617D03*
X0065565Y0044892D03*
X0065565Y0040168D03*
D23*
X0358220Y0040821D03*
X0358220Y0038262D03*
X0358220Y0035703D03*
X0358220Y0033144D03*
X0358220Y0043380D03*
X0358220Y0104644D03*
X0358220Y0107203D03*
X0358220Y0109762D03*
X0358220Y0112321D03*
X0358220Y0114880D03*
X0358220Y0176144D03*
X0358220Y0178703D03*
X0358220Y0181262D03*
X0358220Y0183821D03*
X0358220Y0186380D03*
X0358220Y0247644D03*
X0358220Y0250203D03*
X0358220Y0252762D03*
X0358220Y0255321D03*
X0358220Y0257880D03*
X0358220Y0319144D03*
X0358220Y0321703D03*
X0358220Y0324262D03*
X0358220Y0326821D03*
X0358220Y0329380D03*
D24*
X0368949Y0338766D03*
X0368949Y0309758D03*
X0368949Y0267266D03*
X0368949Y0238258D03*
X0368949Y0195766D03*
X0368949Y0166758D03*
X0368949Y0124266D03*
X0368949Y0095258D03*
X0368949Y0052766D03*
X0368949Y0023758D03*
D25*
X0204035Y0033331D03*
X0204035Y0041993D03*
X0189862Y0041993D03*
X0189862Y0033331D03*
X0168035Y0056331D03*
X0168035Y0064993D03*
X0153862Y0064993D03*
X0153862Y0056331D03*
X0189862Y0104831D03*
X0189862Y0113493D03*
X0204035Y0113493D03*
X0204035Y0104831D03*
X0168035Y0127831D03*
X0168035Y0136493D03*
X0153862Y0136493D03*
X0153862Y0127831D03*
X0189862Y0176331D03*
X0189862Y0184993D03*
X0204035Y0184993D03*
X0204035Y0176331D03*
X0168035Y0199331D03*
X0168035Y0207993D03*
X0153862Y0207993D03*
X0153862Y0199331D03*
X0189862Y0247831D03*
X0189862Y0256493D03*
X0204035Y0256493D03*
X0204035Y0247831D03*
X0168035Y0270831D03*
X0168035Y0279493D03*
X0153862Y0279493D03*
X0153862Y0270831D03*
X0189862Y0319331D03*
X0189862Y0327993D03*
X0204035Y0327993D03*
X0204035Y0319331D03*
X0168035Y0342331D03*
X0168035Y0350993D03*
X0153862Y0350993D03*
X0153862Y0342331D03*
D26*
X0174949Y0340393D03*
X0177508Y0331731D03*
X0172390Y0331731D03*
X0174949Y0268893D03*
X0177508Y0260231D03*
X0172390Y0260231D03*
X0174949Y0197393D03*
X0177508Y0188731D03*
X0172390Y0188731D03*
X0174949Y0125893D03*
X0177508Y0117231D03*
X0172390Y0117231D03*
X0174949Y0054393D03*
X0177508Y0045731D03*
X0172390Y0045731D03*
D27*
X0071892Y0079462D03*
X0064806Y0079462D03*
X0064806Y0150962D03*
X0071892Y0150962D03*
X0071892Y0222462D03*
X0064806Y0222462D03*
X0064806Y0293962D03*
X0071892Y0293962D03*
X0071892Y0365462D03*
X0064806Y0365462D03*
D28*
X0197015Y0348002D03*
X0197015Y0340522D03*
X0205283Y0340522D03*
X0205283Y0348002D03*
X0205283Y0276502D03*
X0205283Y0269022D03*
X0197015Y0269022D03*
X0197015Y0276502D03*
X0197015Y0205002D03*
X0197015Y0197522D03*
X0205283Y0197522D03*
X0205283Y0205002D03*
X0205283Y0133502D03*
X0205283Y0126022D03*
X0197015Y0126022D03*
X0197015Y0133502D03*
X0197015Y0062002D03*
X0197015Y0054522D03*
X0205283Y0054522D03*
X0205283Y0062002D03*
M02*
