G04 EAGLE Gerber X2 export*
%TF.Part,Single*%
%TF.FileFunction,Copper,L2,Inr,Mixed*%
%TF.FilePolarity,Positive*%
%TF.GenerationSoftware,Autodesk,EAGLE,8.7.0*%
%TF.CreationDate,2018-03-14T16:40:36Z*%
G75*
%MOMM*%
%FSLAX34Y34*%
%LPD*%
%AMOC8*
5,1,8,0,0,1.08239X$1,22.5*%
G01*
%ADD10C,1.524000*%
%ADD11C,1.800000*%
%ADD12C,0.711200*%
%ADD13C,0.736600*%
%ADD14C,1.350000*%
%ADD15C,1.106400*%
%ADD16C,0.756400*%

G36*
X857562Y2552D02*
X857562Y2552D01*
X857620Y2551D01*
X857702Y2572D01*
X857785Y2584D01*
X857839Y2608D01*
X857895Y2623D01*
X857968Y2666D01*
X858044Y2700D01*
X858089Y2738D01*
X858140Y2768D01*
X858197Y2829D01*
X858262Y2884D01*
X858294Y2932D01*
X858334Y2975D01*
X858373Y3050D01*
X858419Y3120D01*
X858437Y3176D01*
X858464Y3228D01*
X858475Y3296D01*
X858505Y3391D01*
X858508Y3491D01*
X858519Y3560D01*
X858519Y173736D01*
X858511Y173794D01*
X858513Y173852D01*
X858491Y173934D01*
X858479Y174018D01*
X858456Y174071D01*
X858441Y174127D01*
X858398Y174200D01*
X858363Y174277D01*
X858325Y174322D01*
X858296Y174372D01*
X858234Y174430D01*
X858180Y174494D01*
X858131Y174526D01*
X858088Y174566D01*
X858013Y174605D01*
X857943Y174652D01*
X857887Y174669D01*
X857835Y174696D01*
X857767Y174707D01*
X857672Y174737D01*
X857572Y174740D01*
X857504Y174751D01*
X766373Y174751D01*
X766287Y174739D01*
X766202Y174737D01*
X766147Y174719D01*
X766091Y174711D01*
X766013Y174676D01*
X765931Y174650D01*
X765883Y174618D01*
X765832Y174595D01*
X765766Y174540D01*
X765695Y174492D01*
X765658Y174448D01*
X765615Y174412D01*
X765567Y174340D01*
X765512Y174274D01*
X765489Y174222D01*
X765457Y174175D01*
X765431Y174093D01*
X765396Y174014D01*
X765388Y173958D01*
X765371Y173904D01*
X765369Y173818D01*
X765357Y173733D01*
X765365Y173677D01*
X765364Y173620D01*
X765386Y173537D01*
X765398Y173451D01*
X765421Y173400D01*
X765436Y173345D01*
X765480Y173271D01*
X765515Y173192D01*
X765552Y173149D01*
X765581Y173100D01*
X765644Y173041D01*
X765699Y172976D01*
X765741Y172950D01*
X765788Y172906D01*
X765918Y172840D01*
X765984Y172798D01*
X766892Y172422D01*
X769322Y169992D01*
X770637Y166818D01*
X770637Y163382D01*
X769322Y160208D01*
X766892Y157778D01*
X763718Y156463D01*
X760282Y156463D01*
X757108Y157778D01*
X754678Y160208D01*
X753363Y163382D01*
X753363Y166818D01*
X754678Y169992D01*
X757108Y172422D01*
X758016Y172798D01*
X758090Y172842D01*
X758168Y172877D01*
X758212Y172914D01*
X758261Y172943D01*
X758320Y173005D01*
X758385Y173061D01*
X758417Y173108D01*
X758456Y173149D01*
X758495Y173226D01*
X758543Y173297D01*
X758560Y173351D01*
X758586Y173402D01*
X758603Y173486D01*
X758629Y173568D01*
X758630Y173625D01*
X758641Y173681D01*
X758634Y173766D01*
X758636Y173852D01*
X758622Y173907D01*
X758617Y173964D01*
X758586Y174044D01*
X758564Y174127D01*
X758535Y174176D01*
X758515Y174229D01*
X758463Y174298D01*
X758419Y174372D01*
X758377Y174411D01*
X758343Y174456D01*
X758274Y174508D01*
X758212Y174566D01*
X758161Y174592D01*
X758115Y174626D01*
X758035Y174657D01*
X757958Y174696D01*
X757910Y174704D01*
X757849Y174727D01*
X757705Y174738D01*
X757627Y174751D01*
X743727Y174751D01*
X743620Y174736D01*
X743511Y174728D01*
X743479Y174716D01*
X743446Y174711D01*
X743347Y174667D01*
X743244Y174629D01*
X743217Y174609D01*
X743186Y174595D01*
X743103Y174525D01*
X743016Y174460D01*
X742995Y174433D01*
X742969Y174412D01*
X742909Y174321D01*
X742843Y174235D01*
X742831Y174203D01*
X742812Y174175D01*
X742779Y174071D01*
X742739Y173970D01*
X742736Y173936D01*
X742726Y173904D01*
X742723Y173795D01*
X742713Y173687D01*
X742720Y173653D01*
X742719Y173620D01*
X742746Y173515D01*
X742767Y173407D01*
X742782Y173377D01*
X742790Y173345D01*
X742846Y173251D01*
X742895Y173154D01*
X742917Y173132D01*
X742936Y173100D01*
X743096Y172950D01*
X743131Y172915D01*
X743219Y172850D01*
X744350Y171719D01*
X745290Y170425D01*
X746016Y169000D01*
X746511Y167479D01*
X746566Y167131D01*
X737616Y167131D01*
X737558Y167123D01*
X737500Y167125D01*
X737418Y167103D01*
X737335Y167091D01*
X737281Y167067D01*
X737225Y167053D01*
X737152Y167010D01*
X737075Y166975D01*
X737031Y166937D01*
X736980Y166907D01*
X736923Y166846D01*
X736858Y166791D01*
X736826Y166743D01*
X736786Y166700D01*
X736747Y166625D01*
X736701Y166555D01*
X736683Y166499D01*
X736656Y166447D01*
X736645Y166379D01*
X736615Y166284D01*
X736612Y166184D01*
X736601Y166116D01*
X736601Y165099D01*
X736599Y165099D01*
X736599Y166116D01*
X736591Y166174D01*
X736592Y166232D01*
X736571Y166314D01*
X736559Y166397D01*
X736535Y166451D01*
X736521Y166507D01*
X736478Y166580D01*
X736443Y166657D01*
X736405Y166702D01*
X736375Y166752D01*
X736314Y166810D01*
X736259Y166874D01*
X736211Y166906D01*
X736168Y166946D01*
X736093Y166985D01*
X736023Y167031D01*
X735967Y167049D01*
X735915Y167076D01*
X735847Y167087D01*
X735752Y167117D01*
X735652Y167120D01*
X735584Y167131D01*
X726634Y167131D01*
X726689Y167479D01*
X727184Y169000D01*
X727910Y170425D01*
X728850Y171719D01*
X729981Y172850D01*
X730069Y172915D01*
X730148Y172990D01*
X730231Y173061D01*
X730249Y173089D01*
X730274Y173112D01*
X730328Y173207D01*
X730388Y173297D01*
X730398Y173329D01*
X730415Y173359D01*
X730441Y173464D01*
X730474Y173568D01*
X730475Y173602D01*
X730483Y173635D01*
X730479Y173744D01*
X730481Y173852D01*
X730473Y173885D01*
X730471Y173919D01*
X730437Y174022D01*
X730410Y174127D01*
X730392Y174156D01*
X730382Y174189D01*
X730320Y174278D01*
X730264Y174372D01*
X730240Y174395D01*
X730220Y174423D01*
X730136Y174492D01*
X730057Y174566D01*
X730027Y174582D01*
X730001Y174603D01*
X729901Y174646D01*
X729804Y174696D01*
X729774Y174701D01*
X729740Y174716D01*
X729522Y174743D01*
X729473Y174751D01*
X715573Y174751D01*
X715487Y174739D01*
X715402Y174737D01*
X715347Y174719D01*
X715291Y174711D01*
X715213Y174676D01*
X715131Y174650D01*
X715083Y174618D01*
X715032Y174595D01*
X714966Y174540D01*
X714895Y174492D01*
X714858Y174448D01*
X714815Y174412D01*
X714767Y174340D01*
X714712Y174274D01*
X714689Y174222D01*
X714657Y174175D01*
X714631Y174093D01*
X714596Y174014D01*
X714588Y173958D01*
X714571Y173904D01*
X714569Y173818D01*
X714557Y173733D01*
X714565Y173677D01*
X714564Y173620D01*
X714586Y173537D01*
X714598Y173451D01*
X714621Y173400D01*
X714636Y173345D01*
X714680Y173271D01*
X714715Y173192D01*
X714752Y173149D01*
X714781Y173100D01*
X714844Y173041D01*
X714899Y172976D01*
X714941Y172950D01*
X714988Y172906D01*
X715118Y172840D01*
X715184Y172798D01*
X716092Y172422D01*
X718522Y169992D01*
X719837Y166818D01*
X719837Y163382D01*
X718522Y160208D01*
X716092Y157778D01*
X712918Y156463D01*
X709482Y156463D01*
X706308Y157778D01*
X703878Y160208D01*
X702563Y163382D01*
X702563Y166818D01*
X703878Y169992D01*
X706308Y172422D01*
X707216Y172798D01*
X707290Y172842D01*
X707368Y172877D01*
X707412Y172914D01*
X707461Y172943D01*
X707520Y173005D01*
X707585Y173061D01*
X707617Y173108D01*
X707656Y173149D01*
X707695Y173226D01*
X707743Y173297D01*
X707760Y173351D01*
X707786Y173402D01*
X707803Y173486D01*
X707829Y173568D01*
X707830Y173625D01*
X707841Y173681D01*
X707834Y173766D01*
X707836Y173852D01*
X707822Y173907D01*
X707817Y173964D01*
X707786Y174044D01*
X707764Y174127D01*
X707735Y174176D01*
X707715Y174229D01*
X707663Y174298D01*
X707619Y174372D01*
X707577Y174411D01*
X707543Y174456D01*
X707474Y174508D01*
X707412Y174566D01*
X707361Y174592D01*
X707315Y174626D01*
X707235Y174657D01*
X707158Y174696D01*
X707110Y174704D01*
X707049Y174727D01*
X706905Y174738D01*
X706827Y174751D01*
X690173Y174751D01*
X690087Y174739D01*
X690002Y174737D01*
X689947Y174719D01*
X689891Y174711D01*
X689813Y174676D01*
X689731Y174650D01*
X689683Y174618D01*
X689632Y174595D01*
X689566Y174540D01*
X689495Y174492D01*
X689458Y174448D01*
X689415Y174412D01*
X689367Y174340D01*
X689312Y174274D01*
X689289Y174222D01*
X689257Y174175D01*
X689231Y174093D01*
X689196Y174014D01*
X689188Y173958D01*
X689171Y173904D01*
X689169Y173818D01*
X689157Y173733D01*
X689165Y173677D01*
X689164Y173620D01*
X689186Y173537D01*
X689198Y173451D01*
X689221Y173400D01*
X689236Y173345D01*
X689280Y173271D01*
X689315Y173192D01*
X689352Y173149D01*
X689381Y173100D01*
X689444Y173041D01*
X689499Y172976D01*
X689541Y172950D01*
X689588Y172906D01*
X689718Y172840D01*
X689784Y172798D01*
X690692Y172422D01*
X693122Y169992D01*
X694437Y166818D01*
X694437Y163382D01*
X693122Y160208D01*
X690692Y157778D01*
X687518Y156463D01*
X684082Y156463D01*
X680908Y157778D01*
X678478Y160208D01*
X677163Y163382D01*
X677163Y166818D01*
X678478Y169992D01*
X680908Y172422D01*
X681816Y172798D01*
X681890Y172842D01*
X681968Y172877D01*
X682012Y172914D01*
X682061Y172943D01*
X682120Y173005D01*
X682185Y173061D01*
X682217Y173108D01*
X682256Y173149D01*
X682295Y173226D01*
X682343Y173297D01*
X682360Y173351D01*
X682386Y173402D01*
X682403Y173486D01*
X682429Y173568D01*
X682430Y173625D01*
X682441Y173681D01*
X682434Y173766D01*
X682436Y173852D01*
X682422Y173907D01*
X682417Y173964D01*
X682386Y174044D01*
X682364Y174127D01*
X682335Y174176D01*
X682315Y174229D01*
X682263Y174298D01*
X682219Y174372D01*
X682177Y174411D01*
X682143Y174456D01*
X682074Y174508D01*
X682012Y174566D01*
X681961Y174592D01*
X681915Y174626D01*
X681835Y174657D01*
X681758Y174696D01*
X681710Y174704D01*
X681649Y174727D01*
X681505Y174738D01*
X681427Y174751D01*
X664773Y174751D01*
X664687Y174739D01*
X664602Y174737D01*
X664547Y174719D01*
X664491Y174711D01*
X664413Y174676D01*
X664331Y174650D01*
X664283Y174618D01*
X664232Y174595D01*
X664166Y174540D01*
X664095Y174492D01*
X664058Y174448D01*
X664015Y174412D01*
X663967Y174340D01*
X663912Y174274D01*
X663889Y174222D01*
X663857Y174175D01*
X663831Y174093D01*
X663796Y174014D01*
X663788Y173958D01*
X663771Y173904D01*
X663769Y173818D01*
X663757Y173733D01*
X663765Y173677D01*
X663764Y173620D01*
X663786Y173537D01*
X663798Y173451D01*
X663821Y173400D01*
X663836Y173345D01*
X663880Y173271D01*
X663915Y173192D01*
X663952Y173149D01*
X663981Y173100D01*
X664044Y173041D01*
X664099Y172976D01*
X664141Y172950D01*
X664188Y172906D01*
X664318Y172840D01*
X664384Y172798D01*
X665292Y172422D01*
X667722Y169992D01*
X669037Y166818D01*
X669037Y163382D01*
X667722Y160208D01*
X665292Y157778D01*
X662118Y156463D01*
X658682Y156463D01*
X655508Y157778D01*
X653078Y160208D01*
X651763Y163382D01*
X651763Y166818D01*
X653078Y169992D01*
X655508Y172422D01*
X656416Y172798D01*
X656490Y172842D01*
X656568Y172877D01*
X656612Y172914D01*
X656661Y172943D01*
X656720Y173005D01*
X656785Y173061D01*
X656817Y173108D01*
X656856Y173149D01*
X656895Y173226D01*
X656943Y173297D01*
X656960Y173351D01*
X656986Y173402D01*
X657003Y173486D01*
X657029Y173568D01*
X657030Y173625D01*
X657041Y173681D01*
X657034Y173766D01*
X657036Y173852D01*
X657022Y173907D01*
X657017Y173964D01*
X656986Y174044D01*
X656964Y174127D01*
X656935Y174176D01*
X656915Y174229D01*
X656863Y174298D01*
X656819Y174372D01*
X656777Y174411D01*
X656743Y174456D01*
X656674Y174508D01*
X656612Y174566D01*
X656561Y174592D01*
X656515Y174626D01*
X656435Y174657D01*
X656358Y174696D01*
X656310Y174704D01*
X656249Y174727D01*
X656105Y174738D01*
X656027Y174751D01*
X639373Y174751D01*
X639287Y174739D01*
X639202Y174737D01*
X639147Y174719D01*
X639091Y174711D01*
X639013Y174676D01*
X638931Y174650D01*
X638883Y174618D01*
X638832Y174595D01*
X638766Y174540D01*
X638695Y174492D01*
X638658Y174448D01*
X638615Y174412D01*
X638567Y174340D01*
X638512Y174274D01*
X638489Y174222D01*
X638457Y174175D01*
X638431Y174093D01*
X638396Y174014D01*
X638388Y173958D01*
X638371Y173904D01*
X638369Y173818D01*
X638357Y173733D01*
X638365Y173677D01*
X638364Y173620D01*
X638386Y173537D01*
X638398Y173451D01*
X638421Y173400D01*
X638436Y173345D01*
X638480Y173271D01*
X638515Y173192D01*
X638552Y173149D01*
X638581Y173100D01*
X638644Y173041D01*
X638699Y172976D01*
X638741Y172950D01*
X638788Y172906D01*
X638918Y172840D01*
X638984Y172798D01*
X639892Y172422D01*
X642322Y169992D01*
X643637Y166818D01*
X643637Y163382D01*
X642322Y160208D01*
X639892Y157778D01*
X636718Y156463D01*
X633282Y156463D01*
X630108Y157778D01*
X627678Y160208D01*
X626363Y163382D01*
X626363Y166818D01*
X627678Y169992D01*
X630108Y172422D01*
X631016Y172798D01*
X631090Y172842D01*
X631168Y172877D01*
X631212Y172914D01*
X631261Y172943D01*
X631320Y173005D01*
X631385Y173061D01*
X631417Y173108D01*
X631456Y173149D01*
X631495Y173226D01*
X631543Y173297D01*
X631560Y173351D01*
X631586Y173402D01*
X631603Y173486D01*
X631629Y173568D01*
X631630Y173625D01*
X631641Y173681D01*
X631634Y173766D01*
X631636Y173852D01*
X631622Y173907D01*
X631617Y173964D01*
X631586Y174044D01*
X631564Y174127D01*
X631535Y174176D01*
X631515Y174229D01*
X631463Y174298D01*
X631419Y174372D01*
X631377Y174411D01*
X631343Y174456D01*
X631274Y174508D01*
X631212Y174566D01*
X631161Y174592D01*
X631115Y174626D01*
X631035Y174657D01*
X630958Y174696D01*
X630910Y174704D01*
X630849Y174727D01*
X630705Y174738D01*
X630627Y174751D01*
X613973Y174751D01*
X613887Y174739D01*
X613802Y174737D01*
X613747Y174719D01*
X613691Y174711D01*
X613613Y174676D01*
X613531Y174650D01*
X613483Y174618D01*
X613432Y174595D01*
X613366Y174540D01*
X613295Y174492D01*
X613258Y174448D01*
X613215Y174412D01*
X613167Y174340D01*
X613112Y174274D01*
X613089Y174222D01*
X613057Y174175D01*
X613031Y174093D01*
X612996Y174014D01*
X612988Y173958D01*
X612971Y173904D01*
X612969Y173818D01*
X612957Y173733D01*
X612965Y173677D01*
X612964Y173620D01*
X612986Y173537D01*
X612998Y173451D01*
X613021Y173400D01*
X613036Y173345D01*
X613080Y173271D01*
X613115Y173192D01*
X613152Y173149D01*
X613181Y173100D01*
X613244Y173041D01*
X613299Y172976D01*
X613341Y172950D01*
X613388Y172906D01*
X613518Y172840D01*
X613584Y172798D01*
X614492Y172422D01*
X616922Y169992D01*
X618237Y166818D01*
X618237Y163382D01*
X616922Y160208D01*
X614492Y157778D01*
X611318Y156463D01*
X607882Y156463D01*
X604708Y157778D01*
X602278Y160208D01*
X600963Y163382D01*
X600963Y166818D01*
X602278Y169992D01*
X604708Y172422D01*
X605616Y172798D01*
X605690Y172842D01*
X605768Y172877D01*
X605812Y172914D01*
X605861Y172943D01*
X605920Y173005D01*
X605985Y173061D01*
X606017Y173108D01*
X606056Y173149D01*
X606095Y173226D01*
X606143Y173297D01*
X606160Y173351D01*
X606186Y173402D01*
X606203Y173486D01*
X606229Y173568D01*
X606230Y173625D01*
X606241Y173681D01*
X606234Y173766D01*
X606236Y173852D01*
X606222Y173907D01*
X606217Y173964D01*
X606186Y174044D01*
X606164Y174127D01*
X606135Y174176D01*
X606115Y174229D01*
X606063Y174298D01*
X606019Y174372D01*
X605977Y174411D01*
X605943Y174456D01*
X605874Y174508D01*
X605812Y174566D01*
X605761Y174592D01*
X605715Y174626D01*
X605635Y174657D01*
X605558Y174696D01*
X605510Y174704D01*
X605449Y174727D01*
X605305Y174738D01*
X605227Y174751D01*
X588573Y174751D01*
X588487Y174739D01*
X588402Y174737D01*
X588347Y174719D01*
X588291Y174711D01*
X588213Y174676D01*
X588131Y174650D01*
X588083Y174618D01*
X588032Y174595D01*
X587966Y174540D01*
X587895Y174492D01*
X587858Y174448D01*
X587815Y174412D01*
X587767Y174340D01*
X587712Y174274D01*
X587689Y174222D01*
X587657Y174175D01*
X587631Y174093D01*
X587596Y174014D01*
X587588Y173958D01*
X587571Y173904D01*
X587569Y173818D01*
X587557Y173733D01*
X587565Y173677D01*
X587564Y173620D01*
X587586Y173537D01*
X587598Y173451D01*
X587621Y173400D01*
X587636Y173345D01*
X587680Y173271D01*
X587715Y173192D01*
X587752Y173149D01*
X587781Y173100D01*
X587844Y173041D01*
X587899Y172976D01*
X587941Y172950D01*
X587988Y172906D01*
X588118Y172840D01*
X588184Y172798D01*
X589092Y172422D01*
X591522Y169992D01*
X592837Y166818D01*
X592837Y163382D01*
X591522Y160208D01*
X589092Y157778D01*
X585918Y156463D01*
X582482Y156463D01*
X579308Y157778D01*
X576878Y160208D01*
X575563Y163382D01*
X575563Y166818D01*
X576878Y169992D01*
X579308Y172422D01*
X580216Y172798D01*
X580290Y172842D01*
X580368Y172877D01*
X580412Y172914D01*
X580461Y172943D01*
X580520Y173005D01*
X580585Y173061D01*
X580617Y173108D01*
X580656Y173149D01*
X580695Y173226D01*
X580743Y173297D01*
X580760Y173351D01*
X580786Y173402D01*
X580803Y173486D01*
X580829Y173568D01*
X580830Y173625D01*
X580841Y173681D01*
X580834Y173766D01*
X580836Y173852D01*
X580822Y173907D01*
X580817Y173964D01*
X580786Y174044D01*
X580764Y174127D01*
X580735Y174176D01*
X580715Y174229D01*
X580663Y174298D01*
X580619Y174372D01*
X580577Y174411D01*
X580543Y174456D01*
X580474Y174508D01*
X580412Y174566D01*
X580361Y174592D01*
X580315Y174626D01*
X580235Y174657D01*
X580158Y174696D01*
X580110Y174704D01*
X580049Y174727D01*
X579905Y174738D01*
X579827Y174751D01*
X563173Y174751D01*
X563087Y174739D01*
X563002Y174737D01*
X562947Y174719D01*
X562891Y174711D01*
X562813Y174676D01*
X562731Y174650D01*
X562683Y174618D01*
X562632Y174595D01*
X562566Y174540D01*
X562495Y174492D01*
X562458Y174448D01*
X562415Y174412D01*
X562367Y174340D01*
X562312Y174274D01*
X562289Y174222D01*
X562257Y174175D01*
X562231Y174093D01*
X562196Y174014D01*
X562188Y173958D01*
X562171Y173904D01*
X562169Y173818D01*
X562157Y173733D01*
X562165Y173677D01*
X562164Y173620D01*
X562186Y173537D01*
X562198Y173451D01*
X562221Y173400D01*
X562236Y173345D01*
X562280Y173271D01*
X562315Y173192D01*
X562352Y173149D01*
X562381Y173100D01*
X562444Y173041D01*
X562499Y172976D01*
X562541Y172950D01*
X562588Y172906D01*
X562718Y172840D01*
X562784Y172798D01*
X563692Y172422D01*
X566122Y169992D01*
X567437Y166818D01*
X567437Y163382D01*
X566122Y160208D01*
X563692Y157778D01*
X560518Y156463D01*
X557082Y156463D01*
X553908Y157778D01*
X551478Y160208D01*
X550163Y163382D01*
X550163Y166818D01*
X551478Y169992D01*
X553908Y172422D01*
X554816Y172798D01*
X554890Y172842D01*
X554968Y172877D01*
X555012Y172914D01*
X555061Y172943D01*
X555120Y173005D01*
X555185Y173061D01*
X555217Y173108D01*
X555256Y173149D01*
X555295Y173226D01*
X555343Y173297D01*
X555360Y173351D01*
X555386Y173402D01*
X555403Y173486D01*
X555429Y173568D01*
X555430Y173625D01*
X555441Y173681D01*
X555434Y173766D01*
X555436Y173852D01*
X555422Y173907D01*
X555417Y173964D01*
X555386Y174044D01*
X555364Y174127D01*
X555335Y174176D01*
X555315Y174229D01*
X555263Y174298D01*
X555219Y174372D01*
X555177Y174411D01*
X555143Y174456D01*
X555074Y174508D01*
X555012Y174566D01*
X554961Y174592D01*
X554915Y174626D01*
X554835Y174657D01*
X554758Y174696D01*
X554710Y174704D01*
X554649Y174727D01*
X554505Y174738D01*
X554427Y174751D01*
X537773Y174751D01*
X537687Y174739D01*
X537602Y174737D01*
X537547Y174719D01*
X537491Y174711D01*
X537413Y174676D01*
X537331Y174650D01*
X537283Y174618D01*
X537232Y174595D01*
X537166Y174540D01*
X537095Y174492D01*
X537058Y174448D01*
X537015Y174412D01*
X536967Y174340D01*
X536912Y174274D01*
X536889Y174222D01*
X536857Y174175D01*
X536831Y174093D01*
X536796Y174014D01*
X536788Y173958D01*
X536771Y173904D01*
X536769Y173818D01*
X536757Y173733D01*
X536765Y173677D01*
X536764Y173620D01*
X536786Y173537D01*
X536798Y173451D01*
X536821Y173400D01*
X536836Y173345D01*
X536880Y173271D01*
X536915Y173192D01*
X536952Y173149D01*
X536981Y173100D01*
X537044Y173041D01*
X537099Y172976D01*
X537141Y172950D01*
X537188Y172906D01*
X537318Y172840D01*
X537384Y172798D01*
X538292Y172422D01*
X540722Y169992D01*
X542037Y166818D01*
X542037Y163382D01*
X540722Y160208D01*
X538292Y157778D01*
X535118Y156463D01*
X531682Y156463D01*
X528508Y157778D01*
X526078Y160208D01*
X524763Y163382D01*
X524763Y166818D01*
X526078Y169992D01*
X528508Y172422D01*
X529416Y172798D01*
X529490Y172842D01*
X529568Y172877D01*
X529612Y172914D01*
X529661Y172943D01*
X529720Y173005D01*
X529785Y173061D01*
X529817Y173108D01*
X529856Y173149D01*
X529895Y173226D01*
X529943Y173297D01*
X529960Y173351D01*
X529986Y173402D01*
X530003Y173486D01*
X530029Y173568D01*
X530030Y173625D01*
X530041Y173681D01*
X530034Y173766D01*
X530036Y173852D01*
X530022Y173907D01*
X530017Y173964D01*
X529986Y174044D01*
X529964Y174127D01*
X529935Y174176D01*
X529915Y174229D01*
X529863Y174298D01*
X529819Y174372D01*
X529777Y174411D01*
X529743Y174456D01*
X529674Y174508D01*
X529612Y174566D01*
X529561Y174592D01*
X529515Y174626D01*
X529435Y174657D01*
X529358Y174696D01*
X529310Y174704D01*
X529249Y174727D01*
X529105Y174738D01*
X529027Y174751D01*
X512373Y174751D01*
X512287Y174739D01*
X512202Y174737D01*
X512147Y174719D01*
X512091Y174711D01*
X512013Y174676D01*
X511931Y174650D01*
X511883Y174618D01*
X511832Y174595D01*
X511766Y174540D01*
X511695Y174492D01*
X511658Y174448D01*
X511615Y174412D01*
X511567Y174340D01*
X511512Y174274D01*
X511489Y174222D01*
X511457Y174175D01*
X511431Y174093D01*
X511396Y174014D01*
X511388Y173958D01*
X511371Y173904D01*
X511369Y173818D01*
X511357Y173733D01*
X511365Y173677D01*
X511364Y173620D01*
X511386Y173537D01*
X511398Y173451D01*
X511421Y173400D01*
X511436Y173345D01*
X511480Y173271D01*
X511515Y173192D01*
X511552Y173149D01*
X511581Y173100D01*
X511644Y173041D01*
X511699Y172976D01*
X511741Y172950D01*
X511788Y172906D01*
X511918Y172840D01*
X511984Y172798D01*
X512892Y172422D01*
X515322Y169992D01*
X516637Y166818D01*
X516637Y163382D01*
X515322Y160208D01*
X512892Y157778D01*
X509718Y156463D01*
X506282Y156463D01*
X503108Y157778D01*
X500678Y160208D01*
X499363Y163382D01*
X499363Y166818D01*
X500678Y169992D01*
X503108Y172422D01*
X504016Y172798D01*
X504090Y172842D01*
X504168Y172877D01*
X504212Y172914D01*
X504261Y172943D01*
X504320Y173005D01*
X504385Y173061D01*
X504417Y173108D01*
X504456Y173149D01*
X504495Y173226D01*
X504543Y173297D01*
X504560Y173351D01*
X504586Y173402D01*
X504603Y173486D01*
X504629Y173568D01*
X504630Y173625D01*
X504641Y173681D01*
X504634Y173766D01*
X504636Y173852D01*
X504622Y173907D01*
X504617Y173964D01*
X504586Y174044D01*
X504564Y174127D01*
X504535Y174176D01*
X504515Y174229D01*
X504463Y174298D01*
X504419Y174372D01*
X504377Y174411D01*
X504343Y174456D01*
X504274Y174508D01*
X504212Y174566D01*
X504161Y174592D01*
X504115Y174626D01*
X504035Y174657D01*
X503958Y174696D01*
X503910Y174704D01*
X503849Y174727D01*
X503705Y174738D01*
X503627Y174751D01*
X486973Y174751D01*
X486887Y174739D01*
X486802Y174737D01*
X486747Y174719D01*
X486691Y174711D01*
X486613Y174676D01*
X486531Y174650D01*
X486483Y174618D01*
X486432Y174595D01*
X486366Y174540D01*
X486295Y174492D01*
X486258Y174448D01*
X486215Y174412D01*
X486167Y174340D01*
X486112Y174274D01*
X486089Y174222D01*
X486057Y174175D01*
X486031Y174093D01*
X485996Y174014D01*
X485988Y173958D01*
X485971Y173904D01*
X485969Y173818D01*
X485957Y173733D01*
X485965Y173677D01*
X485964Y173620D01*
X485986Y173537D01*
X485998Y173451D01*
X486021Y173400D01*
X486036Y173345D01*
X486080Y173271D01*
X486115Y173192D01*
X486152Y173149D01*
X486181Y173100D01*
X486244Y173041D01*
X486299Y172976D01*
X486341Y172950D01*
X486388Y172906D01*
X486518Y172840D01*
X486584Y172798D01*
X487492Y172422D01*
X489922Y169992D01*
X491237Y166818D01*
X491237Y163382D01*
X489922Y160208D01*
X487492Y157778D01*
X484318Y156463D01*
X480882Y156463D01*
X477708Y157778D01*
X475278Y160208D01*
X473963Y163382D01*
X473963Y166818D01*
X475278Y169992D01*
X477708Y172422D01*
X478616Y172798D01*
X478690Y172842D01*
X478768Y172877D01*
X478812Y172914D01*
X478861Y172943D01*
X478920Y173005D01*
X478985Y173061D01*
X479017Y173108D01*
X479056Y173149D01*
X479095Y173226D01*
X479143Y173297D01*
X479160Y173351D01*
X479186Y173402D01*
X479203Y173486D01*
X479229Y173568D01*
X479230Y173625D01*
X479241Y173681D01*
X479234Y173766D01*
X479236Y173852D01*
X479222Y173907D01*
X479217Y173964D01*
X479186Y174044D01*
X479164Y174127D01*
X479135Y174176D01*
X479115Y174229D01*
X479063Y174298D01*
X479019Y174372D01*
X478977Y174411D01*
X478943Y174456D01*
X478874Y174508D01*
X478812Y174566D01*
X478761Y174592D01*
X478715Y174626D01*
X478635Y174657D01*
X478558Y174696D01*
X478510Y174704D01*
X478449Y174727D01*
X478305Y174738D01*
X478227Y174751D01*
X461573Y174751D01*
X461487Y174739D01*
X461402Y174737D01*
X461347Y174719D01*
X461291Y174711D01*
X461213Y174676D01*
X461131Y174650D01*
X461083Y174618D01*
X461032Y174595D01*
X460966Y174540D01*
X460895Y174492D01*
X460858Y174448D01*
X460815Y174412D01*
X460767Y174340D01*
X460712Y174274D01*
X460689Y174222D01*
X460657Y174175D01*
X460631Y174093D01*
X460596Y174014D01*
X460588Y173958D01*
X460571Y173904D01*
X460569Y173818D01*
X460557Y173733D01*
X460565Y173677D01*
X460564Y173620D01*
X460586Y173537D01*
X460598Y173451D01*
X460621Y173400D01*
X460636Y173345D01*
X460680Y173271D01*
X460715Y173192D01*
X460752Y173149D01*
X460781Y173100D01*
X460844Y173041D01*
X460899Y172976D01*
X460941Y172950D01*
X460988Y172906D01*
X461118Y172840D01*
X461184Y172798D01*
X462092Y172422D01*
X464522Y169992D01*
X465837Y166818D01*
X465837Y163382D01*
X464522Y160208D01*
X462092Y157778D01*
X458918Y156463D01*
X455482Y156463D01*
X452308Y157778D01*
X449878Y160208D01*
X448563Y163382D01*
X448563Y166818D01*
X449878Y169992D01*
X452308Y172422D01*
X453216Y172798D01*
X453290Y172842D01*
X453368Y172877D01*
X453412Y172914D01*
X453461Y172943D01*
X453520Y173005D01*
X453585Y173061D01*
X453617Y173108D01*
X453656Y173149D01*
X453695Y173226D01*
X453743Y173297D01*
X453760Y173351D01*
X453786Y173402D01*
X453803Y173486D01*
X453829Y173568D01*
X453830Y173625D01*
X453841Y173681D01*
X453834Y173766D01*
X453836Y173852D01*
X453822Y173907D01*
X453817Y173964D01*
X453786Y174044D01*
X453764Y174127D01*
X453735Y174176D01*
X453715Y174229D01*
X453663Y174298D01*
X453619Y174372D01*
X453577Y174411D01*
X453543Y174456D01*
X453474Y174508D01*
X453412Y174566D01*
X453361Y174592D01*
X453315Y174626D01*
X453235Y174657D01*
X453158Y174696D01*
X453110Y174704D01*
X453049Y174727D01*
X452905Y174738D01*
X452827Y174751D01*
X436173Y174751D01*
X436087Y174739D01*
X436002Y174737D01*
X435947Y174719D01*
X435891Y174711D01*
X435813Y174676D01*
X435731Y174650D01*
X435683Y174618D01*
X435632Y174595D01*
X435566Y174540D01*
X435495Y174492D01*
X435458Y174448D01*
X435415Y174412D01*
X435367Y174340D01*
X435312Y174274D01*
X435289Y174222D01*
X435257Y174175D01*
X435231Y174093D01*
X435196Y174014D01*
X435188Y173958D01*
X435171Y173904D01*
X435169Y173818D01*
X435157Y173733D01*
X435165Y173677D01*
X435164Y173620D01*
X435186Y173537D01*
X435198Y173451D01*
X435221Y173400D01*
X435236Y173345D01*
X435280Y173271D01*
X435315Y173192D01*
X435352Y173149D01*
X435381Y173100D01*
X435444Y173041D01*
X435499Y172976D01*
X435541Y172950D01*
X435588Y172906D01*
X435718Y172840D01*
X435784Y172798D01*
X436692Y172422D01*
X439122Y169992D01*
X440437Y166818D01*
X440437Y163382D01*
X439122Y160208D01*
X436692Y157778D01*
X433518Y156463D01*
X430082Y156463D01*
X426908Y157778D01*
X424478Y160208D01*
X423163Y163382D01*
X423163Y166818D01*
X424478Y169992D01*
X426908Y172422D01*
X427816Y172798D01*
X427890Y172842D01*
X427968Y172877D01*
X428012Y172914D01*
X428061Y172943D01*
X428120Y173005D01*
X428185Y173061D01*
X428217Y173108D01*
X428256Y173149D01*
X428295Y173226D01*
X428343Y173297D01*
X428360Y173351D01*
X428386Y173402D01*
X428403Y173486D01*
X428429Y173568D01*
X428430Y173625D01*
X428441Y173681D01*
X428434Y173766D01*
X428436Y173852D01*
X428422Y173907D01*
X428417Y173964D01*
X428386Y174044D01*
X428364Y174127D01*
X428335Y174176D01*
X428315Y174229D01*
X428263Y174298D01*
X428219Y174372D01*
X428177Y174411D01*
X428143Y174456D01*
X428074Y174508D01*
X428012Y174566D01*
X427961Y174592D01*
X427915Y174626D01*
X427835Y174657D01*
X427758Y174696D01*
X427710Y174704D01*
X427649Y174727D01*
X427505Y174738D01*
X427427Y174751D01*
X410773Y174751D01*
X410687Y174739D01*
X410602Y174737D01*
X410547Y174719D01*
X410491Y174711D01*
X410413Y174676D01*
X410331Y174650D01*
X410283Y174618D01*
X410232Y174595D01*
X410166Y174540D01*
X410095Y174492D01*
X410058Y174448D01*
X410015Y174412D01*
X409967Y174340D01*
X409912Y174274D01*
X409889Y174222D01*
X409857Y174175D01*
X409831Y174093D01*
X409796Y174014D01*
X409788Y173958D01*
X409771Y173904D01*
X409769Y173818D01*
X409757Y173733D01*
X409765Y173677D01*
X409764Y173620D01*
X409786Y173537D01*
X409798Y173451D01*
X409821Y173400D01*
X409836Y173345D01*
X409880Y173271D01*
X409915Y173192D01*
X409952Y173149D01*
X409981Y173100D01*
X410044Y173041D01*
X410099Y172976D01*
X410141Y172950D01*
X410188Y172906D01*
X410318Y172840D01*
X410384Y172798D01*
X411292Y172422D01*
X413722Y169992D01*
X415037Y166818D01*
X415037Y163382D01*
X413722Y160208D01*
X411292Y157778D01*
X408118Y156463D01*
X404682Y156463D01*
X401508Y157778D01*
X399078Y160208D01*
X397763Y163382D01*
X397763Y166818D01*
X399078Y169992D01*
X401508Y172422D01*
X402416Y172798D01*
X402490Y172842D01*
X402568Y172877D01*
X402612Y172914D01*
X402661Y172943D01*
X402720Y173005D01*
X402785Y173061D01*
X402817Y173108D01*
X402856Y173149D01*
X402895Y173226D01*
X402943Y173297D01*
X402960Y173351D01*
X402986Y173402D01*
X403003Y173486D01*
X403029Y173568D01*
X403030Y173625D01*
X403041Y173681D01*
X403034Y173766D01*
X403036Y173852D01*
X403022Y173907D01*
X403017Y173964D01*
X402986Y174044D01*
X402964Y174127D01*
X402935Y174176D01*
X402915Y174229D01*
X402863Y174298D01*
X402819Y174372D01*
X402777Y174411D01*
X402743Y174456D01*
X402674Y174508D01*
X402612Y174566D01*
X402561Y174592D01*
X402515Y174626D01*
X402435Y174657D01*
X402358Y174696D01*
X402310Y174704D01*
X402249Y174727D01*
X402105Y174738D01*
X402027Y174751D01*
X385373Y174751D01*
X385287Y174739D01*
X385202Y174737D01*
X385147Y174719D01*
X385091Y174711D01*
X385013Y174676D01*
X384931Y174650D01*
X384883Y174618D01*
X384832Y174595D01*
X384766Y174540D01*
X384695Y174492D01*
X384658Y174448D01*
X384615Y174412D01*
X384567Y174340D01*
X384512Y174274D01*
X384489Y174222D01*
X384457Y174175D01*
X384431Y174093D01*
X384396Y174014D01*
X384388Y173958D01*
X384371Y173904D01*
X384369Y173818D01*
X384357Y173733D01*
X384365Y173677D01*
X384364Y173620D01*
X384386Y173537D01*
X384398Y173451D01*
X384421Y173400D01*
X384436Y173345D01*
X384480Y173271D01*
X384515Y173192D01*
X384552Y173149D01*
X384581Y173100D01*
X384644Y173041D01*
X384699Y172976D01*
X384741Y172950D01*
X384788Y172906D01*
X384918Y172840D01*
X384984Y172798D01*
X385892Y172422D01*
X388322Y169992D01*
X389637Y166818D01*
X389637Y163382D01*
X388322Y160208D01*
X385892Y157778D01*
X382718Y156463D01*
X379282Y156463D01*
X376108Y157778D01*
X373678Y160208D01*
X372363Y163382D01*
X372363Y166818D01*
X373678Y169992D01*
X376108Y172422D01*
X377016Y172798D01*
X377090Y172842D01*
X377168Y172877D01*
X377212Y172914D01*
X377261Y172943D01*
X377320Y173005D01*
X377385Y173061D01*
X377417Y173108D01*
X377456Y173149D01*
X377495Y173226D01*
X377543Y173297D01*
X377560Y173351D01*
X377586Y173402D01*
X377603Y173486D01*
X377629Y173568D01*
X377630Y173625D01*
X377641Y173681D01*
X377634Y173766D01*
X377636Y173852D01*
X377622Y173907D01*
X377617Y173964D01*
X377586Y174044D01*
X377564Y174127D01*
X377535Y174176D01*
X377515Y174229D01*
X377463Y174298D01*
X377419Y174372D01*
X377377Y174411D01*
X377343Y174456D01*
X377274Y174508D01*
X377212Y174566D01*
X377161Y174592D01*
X377115Y174626D01*
X377035Y174657D01*
X376958Y174696D01*
X376910Y174704D01*
X376849Y174727D01*
X376705Y174738D01*
X376627Y174751D01*
X359973Y174751D01*
X359888Y174739D01*
X359802Y174737D01*
X359747Y174719D01*
X359691Y174711D01*
X359613Y174676D01*
X359531Y174650D01*
X359484Y174618D01*
X359432Y174595D01*
X359366Y174540D01*
X359295Y174492D01*
X359258Y174448D01*
X359215Y174412D01*
X359167Y174340D01*
X359112Y174274D01*
X359089Y174222D01*
X359057Y174175D01*
X359031Y174093D01*
X358996Y174014D01*
X358989Y173958D01*
X358971Y173904D01*
X358969Y173818D01*
X358957Y173733D01*
X358966Y173677D01*
X358964Y173620D01*
X358986Y173537D01*
X358998Y173451D01*
X359022Y173400D01*
X359036Y173345D01*
X359080Y173271D01*
X359115Y173192D01*
X359152Y173149D01*
X359181Y173100D01*
X359244Y173041D01*
X359299Y172976D01*
X359341Y172950D01*
X359388Y172906D01*
X359518Y172840D01*
X359584Y172798D01*
X360492Y172422D01*
X362922Y169992D01*
X364237Y166818D01*
X364237Y163382D01*
X362922Y160208D01*
X360492Y157778D01*
X357318Y156463D01*
X353882Y156463D01*
X350708Y157778D01*
X348278Y160208D01*
X346963Y163382D01*
X346963Y166818D01*
X348278Y169992D01*
X350708Y172422D01*
X351616Y172798D01*
X351690Y172842D01*
X351768Y172877D01*
X351812Y172914D01*
X351861Y172943D01*
X351920Y173005D01*
X351985Y173061D01*
X352017Y173108D01*
X352056Y173149D01*
X352095Y173226D01*
X352143Y173297D01*
X352160Y173351D01*
X352186Y173402D01*
X352203Y173486D01*
X352229Y173568D01*
X352230Y173625D01*
X352241Y173681D01*
X352234Y173766D01*
X352236Y173852D01*
X352222Y173907D01*
X352217Y173964D01*
X352186Y174045D01*
X352164Y174127D01*
X352135Y174176D01*
X352115Y174229D01*
X352063Y174298D01*
X352019Y174372D01*
X351977Y174411D01*
X351943Y174456D01*
X351874Y174508D01*
X351812Y174566D01*
X351761Y174592D01*
X351715Y174626D01*
X351635Y174657D01*
X351558Y174696D01*
X351510Y174704D01*
X351449Y174727D01*
X351305Y174738D01*
X351227Y174751D01*
X334573Y174751D01*
X334488Y174739D01*
X334402Y174737D01*
X334347Y174719D01*
X334291Y174711D01*
X334213Y174676D01*
X334131Y174650D01*
X334084Y174618D01*
X334032Y174595D01*
X333966Y174540D01*
X333895Y174492D01*
X333858Y174448D01*
X333815Y174412D01*
X333767Y174340D01*
X333712Y174274D01*
X333689Y174222D01*
X333657Y174175D01*
X333631Y174093D01*
X333596Y174014D01*
X333589Y173958D01*
X333571Y173904D01*
X333569Y173818D01*
X333557Y173733D01*
X333566Y173677D01*
X333564Y173620D01*
X333586Y173537D01*
X333598Y173451D01*
X333622Y173400D01*
X333636Y173345D01*
X333680Y173271D01*
X333715Y173192D01*
X333752Y173149D01*
X333781Y173100D01*
X333844Y173041D01*
X333899Y172976D01*
X333941Y172950D01*
X333988Y172906D01*
X334118Y172840D01*
X334184Y172798D01*
X335092Y172422D01*
X337522Y169992D01*
X338837Y166818D01*
X338837Y163382D01*
X337522Y160208D01*
X335092Y157778D01*
X331918Y156463D01*
X328482Y156463D01*
X325308Y157778D01*
X322878Y160208D01*
X321563Y163382D01*
X321563Y166818D01*
X322878Y169992D01*
X325308Y172422D01*
X326216Y172798D01*
X326290Y172842D01*
X326368Y172877D01*
X326412Y172914D01*
X326461Y172943D01*
X326520Y173005D01*
X326585Y173061D01*
X326617Y173108D01*
X326656Y173149D01*
X326695Y173226D01*
X326743Y173297D01*
X326760Y173351D01*
X326786Y173402D01*
X326803Y173486D01*
X326829Y173568D01*
X326830Y173625D01*
X326841Y173681D01*
X326834Y173766D01*
X326836Y173852D01*
X326822Y173907D01*
X326817Y173964D01*
X326786Y174045D01*
X326764Y174127D01*
X326735Y174176D01*
X326715Y174229D01*
X326663Y174298D01*
X326619Y174372D01*
X326577Y174411D01*
X326543Y174456D01*
X326474Y174508D01*
X326412Y174566D01*
X326361Y174592D01*
X326315Y174626D01*
X326235Y174657D01*
X326158Y174696D01*
X326110Y174704D01*
X326049Y174727D01*
X325905Y174738D01*
X325827Y174751D01*
X309173Y174751D01*
X309088Y174739D01*
X309002Y174737D01*
X308947Y174719D01*
X308891Y174711D01*
X308813Y174676D01*
X308731Y174650D01*
X308684Y174618D01*
X308632Y174595D01*
X308566Y174540D01*
X308495Y174492D01*
X308458Y174448D01*
X308415Y174412D01*
X308367Y174340D01*
X308312Y174274D01*
X308289Y174222D01*
X308257Y174175D01*
X308231Y174093D01*
X308196Y174014D01*
X308189Y173958D01*
X308171Y173904D01*
X308169Y173818D01*
X308157Y173733D01*
X308166Y173677D01*
X308164Y173620D01*
X308186Y173537D01*
X308198Y173451D01*
X308222Y173400D01*
X308236Y173345D01*
X308280Y173271D01*
X308315Y173192D01*
X308352Y173149D01*
X308381Y173100D01*
X308444Y173041D01*
X308499Y172976D01*
X308541Y172950D01*
X308588Y172906D01*
X308718Y172840D01*
X308784Y172798D01*
X309692Y172422D01*
X312122Y169992D01*
X313437Y166818D01*
X313437Y163382D01*
X312122Y160208D01*
X309692Y157778D01*
X306518Y156463D01*
X303082Y156463D01*
X299908Y157778D01*
X297478Y160208D01*
X296163Y163382D01*
X296163Y166818D01*
X297478Y169992D01*
X299908Y172422D01*
X300816Y172798D01*
X300890Y172842D01*
X300968Y172877D01*
X301012Y172914D01*
X301061Y172943D01*
X301120Y173005D01*
X301185Y173061D01*
X301217Y173108D01*
X301256Y173149D01*
X301295Y173226D01*
X301343Y173297D01*
X301360Y173351D01*
X301386Y173402D01*
X301403Y173486D01*
X301429Y173568D01*
X301430Y173625D01*
X301441Y173681D01*
X301434Y173766D01*
X301436Y173852D01*
X301422Y173907D01*
X301417Y173964D01*
X301386Y174045D01*
X301364Y174127D01*
X301335Y174176D01*
X301315Y174229D01*
X301263Y174298D01*
X301219Y174372D01*
X301177Y174411D01*
X301143Y174456D01*
X301074Y174508D01*
X301012Y174566D01*
X300961Y174592D01*
X300915Y174626D01*
X300835Y174657D01*
X300758Y174696D01*
X300710Y174704D01*
X300649Y174727D01*
X300505Y174738D01*
X300427Y174751D01*
X283773Y174751D01*
X283688Y174739D01*
X283602Y174737D01*
X283547Y174719D01*
X283491Y174711D01*
X283413Y174676D01*
X283331Y174650D01*
X283284Y174618D01*
X283232Y174595D01*
X283166Y174540D01*
X283095Y174492D01*
X283058Y174448D01*
X283015Y174412D01*
X282967Y174340D01*
X282912Y174274D01*
X282889Y174222D01*
X282857Y174175D01*
X282831Y174093D01*
X282796Y174014D01*
X282789Y173958D01*
X282771Y173904D01*
X282769Y173818D01*
X282757Y173733D01*
X282766Y173677D01*
X282764Y173620D01*
X282786Y173537D01*
X282798Y173451D01*
X282822Y173400D01*
X282836Y173345D01*
X282880Y173271D01*
X282915Y173192D01*
X282952Y173149D01*
X282981Y173100D01*
X283044Y173041D01*
X283099Y172976D01*
X283141Y172950D01*
X283188Y172906D01*
X283318Y172840D01*
X283384Y172798D01*
X284292Y172422D01*
X286722Y169992D01*
X288037Y166818D01*
X288037Y163382D01*
X286722Y160208D01*
X284292Y157778D01*
X281118Y156463D01*
X277682Y156463D01*
X274508Y157778D01*
X272078Y160208D01*
X270763Y163382D01*
X270763Y166818D01*
X272078Y169992D01*
X274508Y172422D01*
X275416Y172798D01*
X275490Y172842D01*
X275568Y172877D01*
X275612Y172914D01*
X275661Y172943D01*
X275720Y173005D01*
X275785Y173061D01*
X275817Y173108D01*
X275856Y173149D01*
X275895Y173226D01*
X275943Y173297D01*
X275960Y173351D01*
X275986Y173402D01*
X276003Y173486D01*
X276029Y173568D01*
X276030Y173625D01*
X276041Y173681D01*
X276034Y173766D01*
X276036Y173852D01*
X276022Y173907D01*
X276017Y173964D01*
X275986Y174045D01*
X275964Y174127D01*
X275935Y174176D01*
X275915Y174229D01*
X275863Y174298D01*
X275819Y174372D01*
X275777Y174411D01*
X275743Y174456D01*
X275674Y174508D01*
X275612Y174566D01*
X275561Y174592D01*
X275515Y174626D01*
X275435Y174657D01*
X275358Y174696D01*
X275310Y174704D01*
X275249Y174727D01*
X275105Y174738D01*
X275027Y174751D01*
X5588Y174751D01*
X5530Y174743D01*
X5472Y174745D01*
X5390Y174723D01*
X5306Y174711D01*
X5253Y174688D01*
X5197Y174673D01*
X5124Y174630D01*
X5047Y174595D01*
X5002Y174557D01*
X4952Y174528D01*
X4894Y174466D01*
X4830Y174412D01*
X4798Y174363D01*
X4758Y174320D01*
X4719Y174245D01*
X4672Y174175D01*
X4655Y174119D01*
X4628Y174067D01*
X4617Y173999D01*
X4587Y173904D01*
X4584Y173804D01*
X4573Y173736D01*
X4573Y150143D01*
X4577Y150113D01*
X4574Y150084D01*
X4597Y149973D01*
X4613Y149861D01*
X4625Y149834D01*
X4630Y149806D01*
X4682Y149705D01*
X4729Y149602D01*
X4748Y149579D01*
X4761Y149553D01*
X4839Y149471D01*
X4912Y149385D01*
X4937Y149368D01*
X4957Y149347D01*
X5055Y149290D01*
X5149Y149227D01*
X5177Y149218D01*
X5202Y149203D01*
X5312Y149175D01*
X5420Y149141D01*
X5449Y149141D01*
X5478Y149133D01*
X5591Y149137D01*
X5704Y149134D01*
X5733Y149141D01*
X5762Y149142D01*
X5870Y149177D01*
X5979Y149206D01*
X6005Y149221D01*
X6033Y149230D01*
X6096Y149275D01*
X6224Y149351D01*
X6225Y149353D01*
X10022Y149353D01*
X12701Y146674D01*
X12701Y142886D01*
X10022Y140207D01*
X6216Y140207D01*
X6169Y140238D01*
X6079Y140306D01*
X6051Y140317D01*
X6027Y140333D01*
X5919Y140367D01*
X5813Y140407D01*
X5784Y140410D01*
X5756Y140419D01*
X5643Y140422D01*
X5530Y140431D01*
X5501Y140425D01*
X5472Y140426D01*
X5362Y140397D01*
X5251Y140375D01*
X5225Y140362D01*
X5197Y140354D01*
X5100Y140297D01*
X4999Y140244D01*
X4977Y140224D01*
X4952Y140209D01*
X4875Y140126D01*
X4793Y140048D01*
X4778Y140023D01*
X4758Y140002D01*
X4706Y139901D01*
X4649Y139803D01*
X4642Y139775D01*
X4628Y139748D01*
X4615Y139671D01*
X4579Y139528D01*
X4581Y139465D01*
X4573Y139417D01*
X4573Y4060D01*
X4581Y4003D01*
X4579Y3945D01*
X4601Y3863D01*
X4613Y3779D01*
X4636Y3726D01*
X4651Y3670D01*
X4694Y3597D01*
X4729Y3519D01*
X4766Y3475D01*
X4796Y3425D01*
X4858Y3367D01*
X4912Y3302D01*
X4961Y3270D01*
X5003Y3230D01*
X5079Y3192D01*
X5149Y3145D01*
X5205Y3127D01*
X5256Y3101D01*
X5325Y3089D01*
X5420Y3059D01*
X5519Y3057D01*
X5587Y3045D01*
X148238Y2961D01*
X148323Y2973D01*
X148409Y2976D01*
X148463Y2993D01*
X148519Y3001D01*
X148598Y3036D01*
X148680Y3062D01*
X148727Y3094D01*
X148779Y3117D01*
X148845Y3173D01*
X148916Y3221D01*
X148953Y3264D01*
X148996Y3301D01*
X149044Y3372D01*
X149099Y3438D01*
X149122Y3490D01*
X149154Y3537D01*
X149180Y3619D01*
X149215Y3698D01*
X149223Y3754D01*
X149240Y3808D01*
X149242Y3894D01*
X149254Y3980D01*
X149246Y4036D01*
X149247Y4092D01*
X149225Y4176D01*
X149213Y4261D01*
X149190Y4313D01*
X149176Y4367D01*
X149131Y4442D01*
X149096Y4520D01*
X149059Y4563D01*
X149030Y4612D01*
X148968Y4671D01*
X148912Y4737D01*
X148870Y4763D01*
X148823Y4807D01*
X148694Y4873D01*
X148627Y4914D01*
X147508Y5378D01*
X145078Y7808D01*
X143763Y10982D01*
X143763Y14418D01*
X145078Y17592D01*
X147508Y20022D01*
X150682Y21337D01*
X154118Y21337D01*
X157292Y20022D01*
X159722Y17592D01*
X161037Y14418D01*
X161037Y10982D01*
X159722Y7808D01*
X157292Y5378D01*
X156161Y4910D01*
X156087Y4866D01*
X156009Y4831D01*
X155966Y4794D01*
X155916Y4765D01*
X155858Y4703D01*
X155792Y4648D01*
X155761Y4600D01*
X155721Y4558D01*
X155682Y4482D01*
X155634Y4411D01*
X155617Y4357D01*
X155591Y4306D01*
X155574Y4222D01*
X155549Y4140D01*
X155547Y4083D01*
X155536Y4027D01*
X155543Y3942D01*
X155541Y3856D01*
X155556Y3800D01*
X155560Y3744D01*
X155591Y3664D01*
X155613Y3581D01*
X155642Y3532D01*
X155662Y3478D01*
X155714Y3410D01*
X155758Y3336D01*
X155800Y3297D01*
X155834Y3252D01*
X155903Y3200D01*
X155965Y3142D01*
X156016Y3116D01*
X156062Y3081D01*
X156142Y3051D01*
X156218Y3012D01*
X156267Y3004D01*
X156328Y2981D01*
X156472Y2969D01*
X156549Y2956D01*
X173674Y2946D01*
X173759Y2958D01*
X173846Y2961D01*
X173899Y2978D01*
X173956Y2986D01*
X174034Y3021D01*
X174116Y3047D01*
X174163Y3079D01*
X174215Y3102D01*
X174281Y3158D01*
X174352Y3206D01*
X174389Y3249D01*
X174432Y3286D01*
X174480Y3357D01*
X174535Y3423D01*
X174559Y3475D01*
X174590Y3522D01*
X174616Y3604D01*
X174651Y3683D01*
X174659Y3739D01*
X174676Y3793D01*
X174678Y3879D01*
X174690Y3965D01*
X174682Y4021D01*
X174683Y4077D01*
X174662Y4161D01*
X174649Y4246D01*
X174626Y4298D01*
X174612Y4352D01*
X174568Y4427D01*
X174532Y4505D01*
X174495Y4548D01*
X174466Y4597D01*
X174404Y4656D01*
X174348Y4722D01*
X174306Y4748D01*
X174259Y4792D01*
X174129Y4858D01*
X174063Y4900D01*
X172908Y5378D01*
X170478Y7808D01*
X169163Y10982D01*
X169163Y14418D01*
X170478Y17592D01*
X172908Y20022D01*
X176082Y21337D01*
X179518Y21337D01*
X182692Y20022D01*
X185122Y17592D01*
X186437Y14418D01*
X186437Y10982D01*
X185122Y7808D01*
X182692Y5378D01*
X181525Y4895D01*
X181452Y4851D01*
X181373Y4816D01*
X181330Y4779D01*
X181280Y4750D01*
X181222Y4688D01*
X181156Y4633D01*
X181125Y4585D01*
X181085Y4544D01*
X181046Y4467D01*
X180998Y4396D01*
X180981Y4342D01*
X180955Y4291D01*
X180938Y4207D01*
X180913Y4125D01*
X180911Y4068D01*
X180900Y4012D01*
X180907Y3927D01*
X180905Y3841D01*
X180920Y3786D01*
X180924Y3729D01*
X180955Y3649D01*
X180977Y3566D01*
X181006Y3517D01*
X181026Y3463D01*
X181078Y3395D01*
X181122Y3321D01*
X181164Y3282D01*
X181198Y3237D01*
X181267Y3185D01*
X181329Y3127D01*
X181380Y3101D01*
X181426Y3066D01*
X181506Y3036D01*
X181582Y2997D01*
X181631Y2989D01*
X181692Y2966D01*
X181836Y2955D01*
X181913Y2941D01*
X196231Y2933D01*
X196339Y2948D01*
X196448Y2956D01*
X196480Y2968D01*
X196513Y2973D01*
X196613Y3017D01*
X196715Y3055D01*
X196742Y3075D01*
X196772Y3089D01*
X196855Y3159D01*
X196943Y3224D01*
X196964Y3251D01*
X196989Y3272D01*
X197050Y3363D01*
X197116Y3450D01*
X197129Y3481D01*
X197147Y3509D01*
X197180Y3613D01*
X197220Y3714D01*
X197223Y3748D01*
X197233Y3780D01*
X197236Y3889D01*
X197246Y3998D01*
X197240Y4031D01*
X197241Y4064D01*
X197213Y4170D01*
X197193Y4277D01*
X197177Y4307D01*
X197169Y4339D01*
X197113Y4433D01*
X197064Y4530D01*
X197043Y4552D01*
X197024Y4584D01*
X196863Y4735D01*
X196829Y4770D01*
X196581Y4950D01*
X195450Y6081D01*
X194510Y7375D01*
X193784Y8800D01*
X193289Y10321D01*
X193234Y10669D01*
X202184Y10669D01*
X202242Y10677D01*
X202300Y10675D01*
X202382Y10697D01*
X202465Y10709D01*
X202519Y10733D01*
X202575Y10747D01*
X202648Y10790D01*
X202725Y10825D01*
X202769Y10863D01*
X202820Y10893D01*
X202877Y10954D01*
X202942Y11009D01*
X202974Y11057D01*
X203014Y11100D01*
X203053Y11175D01*
X203099Y11245D01*
X203117Y11301D01*
X203144Y11353D01*
X203155Y11421D01*
X203185Y11516D01*
X203188Y11616D01*
X203199Y11684D01*
X203199Y12701D01*
X203201Y12701D01*
X203201Y11684D01*
X203209Y11626D01*
X203208Y11568D01*
X203229Y11486D01*
X203241Y11403D01*
X203265Y11349D01*
X203279Y11293D01*
X203322Y11220D01*
X203357Y11143D01*
X203395Y11098D01*
X203425Y11048D01*
X203486Y10990D01*
X203541Y10926D01*
X203589Y10894D01*
X203632Y10854D01*
X203707Y10815D01*
X203777Y10769D01*
X203833Y10751D01*
X203885Y10724D01*
X203953Y10713D01*
X204048Y10683D01*
X204148Y10680D01*
X204216Y10669D01*
X213166Y10669D01*
X213111Y10321D01*
X212616Y8800D01*
X211890Y7375D01*
X210950Y6081D01*
X209819Y4950D01*
X209560Y4762D01*
X209482Y4686D01*
X209399Y4616D01*
X209380Y4588D01*
X209356Y4564D01*
X209302Y4470D01*
X209242Y4380D01*
X209231Y4347D01*
X209214Y4317D01*
X209188Y4212D01*
X209156Y4109D01*
X209155Y4074D01*
X209147Y4041D01*
X209151Y3933D01*
X209148Y3824D01*
X209157Y3791D01*
X209158Y3757D01*
X209192Y3654D01*
X209220Y3549D01*
X209237Y3520D01*
X209248Y3487D01*
X209309Y3398D01*
X209365Y3305D01*
X209390Y3281D01*
X209409Y3253D01*
X209493Y3185D01*
X209572Y3110D01*
X209603Y3095D01*
X209629Y3073D01*
X209728Y3030D01*
X209825Y2981D01*
X209855Y2976D01*
X209890Y2961D01*
X210106Y2933D01*
X210156Y2925D01*
X224546Y2916D01*
X224632Y2928D01*
X224718Y2931D01*
X224772Y2948D01*
X224828Y2956D01*
X224906Y2991D01*
X224989Y3018D01*
X225036Y3049D01*
X225087Y3072D01*
X225153Y3128D01*
X225225Y3176D01*
X225261Y3219D01*
X225304Y3256D01*
X225352Y3327D01*
X225408Y3393D01*
X225431Y3445D01*
X225462Y3492D01*
X225488Y3574D01*
X225523Y3653D01*
X225531Y3709D01*
X225548Y3763D01*
X225550Y3849D01*
X225562Y3935D01*
X225554Y3991D01*
X225555Y4047D01*
X225534Y4131D01*
X225521Y4216D01*
X225498Y4268D01*
X225484Y4323D01*
X225440Y4397D01*
X225404Y4475D01*
X225368Y4518D01*
X225339Y4567D01*
X225276Y4626D01*
X225220Y4692D01*
X225178Y4718D01*
X225131Y4762D01*
X225002Y4828D01*
X224935Y4870D01*
X223708Y5378D01*
X221278Y7808D01*
X219963Y10982D01*
X219963Y14418D01*
X221278Y17592D01*
X223708Y20022D01*
X226882Y21337D01*
X230318Y21337D01*
X233492Y20022D01*
X235922Y17592D01*
X237237Y14418D01*
X237237Y10982D01*
X235922Y7808D01*
X233492Y5378D01*
X232253Y4865D01*
X232180Y4821D01*
X232101Y4786D01*
X232058Y4749D01*
X232008Y4720D01*
X231950Y4658D01*
X231884Y4603D01*
X231853Y4555D01*
X231813Y4514D01*
X231774Y4438D01*
X231726Y4366D01*
X231709Y4312D01*
X231683Y4261D01*
X231666Y4177D01*
X231641Y4095D01*
X231639Y4038D01*
X231628Y3982D01*
X231635Y3897D01*
X231633Y3811D01*
X231648Y3756D01*
X231652Y3699D01*
X231683Y3619D01*
X231705Y3536D01*
X231734Y3487D01*
X231754Y3433D01*
X231806Y3365D01*
X231850Y3292D01*
X231891Y3252D01*
X231926Y3207D01*
X231995Y3156D01*
X232057Y3097D01*
X232108Y3071D01*
X232154Y3037D01*
X232234Y3006D01*
X232310Y2967D01*
X232359Y2959D01*
X232420Y2936D01*
X232564Y2925D01*
X232641Y2912D01*
X249982Y2901D01*
X250068Y2913D01*
X250154Y2916D01*
X250208Y2933D01*
X250264Y2941D01*
X250343Y2976D01*
X250425Y3003D01*
X250472Y3034D01*
X250523Y3057D01*
X250589Y3113D01*
X250661Y3161D01*
X250697Y3204D01*
X250740Y3241D01*
X250788Y3312D01*
X250844Y3378D01*
X250867Y3430D01*
X250898Y3477D01*
X250924Y3559D01*
X250959Y3638D01*
X250967Y3694D01*
X250984Y3748D01*
X250986Y3834D01*
X250998Y3920D01*
X250990Y3976D01*
X250992Y4032D01*
X250970Y4116D01*
X250957Y4201D01*
X250934Y4253D01*
X250920Y4308D01*
X250876Y4382D01*
X250840Y4460D01*
X250804Y4503D01*
X250775Y4552D01*
X250712Y4611D01*
X250656Y4677D01*
X250614Y4703D01*
X250568Y4747D01*
X250438Y4813D01*
X250371Y4855D01*
X249108Y5378D01*
X246678Y7808D01*
X245363Y10982D01*
X245363Y14418D01*
X246678Y17592D01*
X249108Y20022D01*
X252282Y21337D01*
X255718Y21337D01*
X258892Y20022D01*
X261322Y17592D01*
X262637Y14418D01*
X262637Y10982D01*
X261322Y7808D01*
X258892Y5378D01*
X257617Y4850D01*
X257543Y4806D01*
X257465Y4771D01*
X257422Y4735D01*
X257372Y4705D01*
X257314Y4643D01*
X257248Y4588D01*
X257217Y4540D01*
X257177Y4499D01*
X257138Y4422D01*
X257090Y4351D01*
X257073Y4297D01*
X257047Y4246D01*
X257030Y4162D01*
X257005Y4080D01*
X257003Y4023D01*
X256992Y3967D01*
X256999Y3882D01*
X256997Y3796D01*
X257012Y3741D01*
X257016Y3684D01*
X257047Y3604D01*
X257069Y3521D01*
X257098Y3472D01*
X257118Y3419D01*
X257170Y3350D01*
X257214Y3277D01*
X257256Y3237D01*
X257290Y3192D01*
X257359Y3141D01*
X257421Y3082D01*
X257472Y3056D01*
X257518Y3022D01*
X257598Y2991D01*
X257674Y2952D01*
X257723Y2944D01*
X257784Y2921D01*
X257928Y2910D01*
X258005Y2897D01*
X275418Y2887D01*
X275504Y2899D01*
X275590Y2901D01*
X275644Y2918D01*
X275700Y2926D01*
X275779Y2961D01*
X275861Y2988D01*
X275908Y3019D01*
X275959Y3042D01*
X276025Y3098D01*
X276097Y3146D01*
X276133Y3189D01*
X276177Y3226D01*
X276224Y3297D01*
X276280Y3364D01*
X276303Y3415D01*
X276334Y3462D01*
X276360Y3544D01*
X276395Y3623D01*
X276403Y3679D01*
X276420Y3733D01*
X276422Y3820D01*
X276434Y3905D01*
X276426Y3961D01*
X276428Y4018D01*
X276406Y4101D01*
X276394Y4186D01*
X276370Y4238D01*
X276356Y4293D01*
X276312Y4367D01*
X276276Y4445D01*
X276240Y4488D01*
X276211Y4537D01*
X276148Y4596D01*
X276092Y4662D01*
X276050Y4688D01*
X276004Y4732D01*
X275874Y4798D01*
X275808Y4840D01*
X274508Y5378D01*
X272078Y7808D01*
X270763Y10982D01*
X270763Y14418D01*
X272078Y17592D01*
X274508Y20022D01*
X277682Y21337D01*
X281118Y21337D01*
X284292Y20022D01*
X286722Y17592D01*
X288037Y14418D01*
X288037Y10982D01*
X286722Y7808D01*
X284292Y5378D01*
X282981Y4835D01*
X282907Y4792D01*
X282829Y4757D01*
X282786Y4720D01*
X282736Y4691D01*
X282677Y4628D01*
X282612Y4573D01*
X282581Y4526D01*
X282541Y4484D01*
X282502Y4408D01*
X282454Y4336D01*
X282437Y4282D01*
X282411Y4231D01*
X282394Y4147D01*
X282369Y4066D01*
X282367Y4008D01*
X282356Y3952D01*
X282363Y3867D01*
X282361Y3781D01*
X282376Y3726D01*
X282380Y3669D01*
X282411Y3589D01*
X282433Y3506D01*
X282462Y3457D01*
X282482Y3404D01*
X282534Y3336D01*
X282578Y3262D01*
X282620Y3222D01*
X282654Y3177D01*
X282722Y3126D01*
X282785Y3067D01*
X282836Y3041D01*
X282882Y3007D01*
X282962Y2977D01*
X283038Y2938D01*
X283087Y2929D01*
X283148Y2906D01*
X283292Y2895D01*
X283369Y2882D01*
X300855Y2872D01*
X300940Y2884D01*
X301026Y2886D01*
X301080Y2903D01*
X301136Y2911D01*
X301215Y2946D01*
X301297Y2973D01*
X301344Y3004D01*
X301396Y3027D01*
X301461Y3083D01*
X301533Y3131D01*
X301569Y3174D01*
X301613Y3211D01*
X301660Y3283D01*
X301716Y3349D01*
X301739Y3400D01*
X301770Y3447D01*
X301796Y3530D01*
X301831Y3608D01*
X301839Y3664D01*
X301856Y3718D01*
X301859Y3805D01*
X301870Y3890D01*
X301862Y3946D01*
X301864Y4003D01*
X301842Y4086D01*
X301830Y4171D01*
X301806Y4223D01*
X301792Y4278D01*
X301748Y4352D01*
X301713Y4430D01*
X301676Y4473D01*
X301647Y4522D01*
X301584Y4581D01*
X301528Y4647D01*
X301487Y4673D01*
X301440Y4717D01*
X301310Y4783D01*
X301244Y4825D01*
X299908Y5378D01*
X297478Y7808D01*
X296163Y10982D01*
X296163Y14418D01*
X297478Y17592D01*
X299908Y20022D01*
X303082Y21337D01*
X306518Y21337D01*
X309692Y20022D01*
X312122Y17592D01*
X313437Y14418D01*
X313437Y10982D01*
X312122Y7808D01*
X309692Y5378D01*
X308345Y4820D01*
X308271Y4777D01*
X308193Y4742D01*
X308150Y4705D01*
X308100Y4676D01*
X308042Y4613D01*
X307976Y4558D01*
X307945Y4511D01*
X307905Y4469D01*
X307866Y4393D01*
X307818Y4322D01*
X307801Y4267D01*
X307775Y4216D01*
X307758Y4132D01*
X307733Y4051D01*
X307731Y3993D01*
X307720Y3937D01*
X307727Y3852D01*
X307725Y3766D01*
X307740Y3711D01*
X307744Y3654D01*
X307775Y3574D01*
X307797Y3491D01*
X307826Y3442D01*
X307846Y3389D01*
X307898Y3320D01*
X307942Y3247D01*
X307984Y3208D01*
X308018Y3162D01*
X308087Y3111D01*
X308149Y3052D01*
X308200Y3026D01*
X308246Y2992D01*
X308326Y2962D01*
X308402Y2923D01*
X308451Y2914D01*
X308512Y2891D01*
X308656Y2880D01*
X308733Y2867D01*
X326291Y2857D01*
X326376Y2869D01*
X326462Y2871D01*
X326516Y2888D01*
X326572Y2896D01*
X326651Y2931D01*
X326733Y2958D01*
X326780Y2989D01*
X326832Y3012D01*
X326897Y3068D01*
X326969Y3116D01*
X327006Y3159D01*
X327049Y3196D01*
X327096Y3267D01*
X327152Y3334D01*
X327175Y3385D01*
X327206Y3432D01*
X327232Y3515D01*
X327268Y3593D01*
X327275Y3649D01*
X327292Y3703D01*
X327295Y3790D01*
X327306Y3875D01*
X327298Y3931D01*
X327300Y3988D01*
X327278Y4071D01*
X327266Y4156D01*
X327242Y4208D01*
X327228Y4263D01*
X327184Y4337D01*
X327149Y4415D01*
X327112Y4458D01*
X327083Y4507D01*
X327020Y4566D01*
X326964Y4632D01*
X326923Y4658D01*
X326876Y4702D01*
X326746Y4768D01*
X326680Y4810D01*
X325308Y5378D01*
X322878Y7808D01*
X321563Y10982D01*
X321563Y14418D01*
X322878Y17592D01*
X325308Y20022D01*
X328482Y21337D01*
X331918Y21337D01*
X335092Y20022D01*
X337522Y17592D01*
X338837Y14418D01*
X338837Y10982D01*
X337522Y7808D01*
X335092Y5378D01*
X333709Y4805D01*
X333636Y4762D01*
X333557Y4727D01*
X333514Y4690D01*
X333464Y4661D01*
X333406Y4598D01*
X333340Y4543D01*
X333309Y4496D01*
X333269Y4454D01*
X333230Y4378D01*
X333182Y4307D01*
X333165Y4252D01*
X333139Y4201D01*
X333122Y4117D01*
X333097Y4036D01*
X333095Y3978D01*
X333084Y3922D01*
X333091Y3837D01*
X333089Y3752D01*
X333104Y3696D01*
X333108Y3639D01*
X333139Y3559D01*
X333161Y3476D01*
X333190Y3427D01*
X333210Y3374D01*
X333262Y3306D01*
X333306Y3232D01*
X333348Y3193D01*
X333382Y3147D01*
X333451Y3096D01*
X333513Y3037D01*
X333564Y3011D01*
X333610Y2977D01*
X333690Y2947D01*
X333766Y2908D01*
X333815Y2899D01*
X333876Y2877D01*
X334020Y2865D01*
X334097Y2852D01*
X351727Y2842D01*
X351812Y2854D01*
X351898Y2856D01*
X351952Y2873D01*
X352008Y2881D01*
X352087Y2917D01*
X352169Y2943D01*
X352216Y2974D01*
X352268Y2997D01*
X352333Y3053D01*
X352405Y3101D01*
X352442Y3144D01*
X352485Y3181D01*
X352533Y3253D01*
X352588Y3319D01*
X352611Y3370D01*
X352643Y3417D01*
X352669Y3500D01*
X352704Y3578D01*
X352711Y3634D01*
X352728Y3688D01*
X352731Y3775D01*
X352743Y3860D01*
X352734Y3916D01*
X352736Y3973D01*
X352714Y4056D01*
X352702Y4141D01*
X352679Y4193D01*
X352664Y4248D01*
X352620Y4322D01*
X352585Y4400D01*
X352548Y4444D01*
X352519Y4492D01*
X352456Y4551D01*
X352400Y4617D01*
X352359Y4643D01*
X352312Y4687D01*
X352182Y4753D01*
X352116Y4795D01*
X350708Y5378D01*
X348278Y7808D01*
X346963Y10982D01*
X346963Y14418D01*
X348278Y17592D01*
X350708Y20022D01*
X353882Y21337D01*
X357318Y21337D01*
X360492Y20022D01*
X362922Y17592D01*
X364237Y14418D01*
X364237Y10982D01*
X362922Y7808D01*
X360492Y5378D01*
X359073Y4790D01*
X359000Y4747D01*
X358921Y4712D01*
X358878Y4675D01*
X358828Y4646D01*
X358770Y4584D01*
X358704Y4528D01*
X358673Y4481D01*
X358633Y4439D01*
X358594Y4363D01*
X358546Y4292D01*
X358529Y4237D01*
X358503Y4186D01*
X358486Y4102D01*
X358461Y4021D01*
X358459Y3964D01*
X358448Y3908D01*
X358455Y3822D01*
X358453Y3737D01*
X358468Y3681D01*
X358472Y3624D01*
X358503Y3544D01*
X358525Y3461D01*
X358554Y3412D01*
X358574Y3359D01*
X358626Y3291D01*
X358670Y3217D01*
X358711Y3178D01*
X358746Y3132D01*
X358815Y3081D01*
X358877Y3022D01*
X358928Y2996D01*
X358974Y2962D01*
X359054Y2932D01*
X359130Y2893D01*
X359179Y2885D01*
X359240Y2862D01*
X359384Y2850D01*
X359461Y2837D01*
X377163Y2827D01*
X377248Y2839D01*
X377334Y2841D01*
X377388Y2858D01*
X377444Y2866D01*
X377523Y2902D01*
X377605Y2928D01*
X377652Y2959D01*
X377704Y2982D01*
X377770Y3038D01*
X377841Y3086D01*
X377878Y3130D01*
X377921Y3166D01*
X377969Y3238D01*
X378024Y3304D01*
X378047Y3356D01*
X378079Y3403D01*
X378105Y3485D01*
X378140Y3563D01*
X378147Y3620D01*
X378165Y3674D01*
X378167Y3760D01*
X378179Y3845D01*
X378171Y3901D01*
X378172Y3958D01*
X378150Y4041D01*
X378138Y4126D01*
X378115Y4178D01*
X378100Y4233D01*
X378056Y4307D01*
X378021Y4386D01*
X377984Y4429D01*
X377955Y4477D01*
X377892Y4536D01*
X377837Y4602D01*
X377795Y4628D01*
X377748Y4672D01*
X377618Y4738D01*
X377552Y4780D01*
X376108Y5378D01*
X373678Y7808D01*
X372363Y10982D01*
X372363Y14418D01*
X373678Y17592D01*
X376108Y20022D01*
X379282Y21337D01*
X382718Y21337D01*
X385892Y20022D01*
X388322Y17592D01*
X389637Y14418D01*
X389637Y10982D01*
X388322Y7808D01*
X385892Y5378D01*
X384437Y4775D01*
X384364Y4732D01*
X384285Y4697D01*
X384242Y4660D01*
X384192Y4631D01*
X384134Y4569D01*
X384068Y4513D01*
X384037Y4466D01*
X383997Y4424D01*
X383958Y4348D01*
X383910Y4277D01*
X383893Y4222D01*
X383867Y4172D01*
X383850Y4087D01*
X383825Y4006D01*
X383823Y3949D01*
X383812Y3893D01*
X383819Y3807D01*
X383817Y3722D01*
X383832Y3666D01*
X383836Y3609D01*
X383867Y3530D01*
X383889Y3447D01*
X383918Y3397D01*
X383938Y3344D01*
X383990Y3276D01*
X384034Y3202D01*
X384075Y3163D01*
X384110Y3117D01*
X384179Y3066D01*
X384241Y3007D01*
X384292Y2981D01*
X384338Y2947D01*
X384418Y2917D01*
X384494Y2878D01*
X384543Y2870D01*
X384604Y2847D01*
X384748Y2835D01*
X384825Y2822D01*
X402599Y2812D01*
X402684Y2824D01*
X402770Y2826D01*
X402824Y2843D01*
X402880Y2851D01*
X402959Y2887D01*
X403041Y2913D01*
X403088Y2944D01*
X403140Y2968D01*
X403206Y3023D01*
X403277Y3071D01*
X403314Y3115D01*
X403357Y3151D01*
X403405Y3223D01*
X403460Y3289D01*
X403483Y3341D01*
X403515Y3388D01*
X403541Y3470D01*
X403576Y3549D01*
X403584Y3605D01*
X403601Y3659D01*
X403603Y3745D01*
X403615Y3830D01*
X403607Y3886D01*
X403608Y3943D01*
X403586Y4026D01*
X403574Y4111D01*
X403551Y4163D01*
X403537Y4218D01*
X403492Y4292D01*
X403457Y4371D01*
X403420Y4414D01*
X403391Y4462D01*
X403329Y4521D01*
X403273Y4587D01*
X403231Y4613D01*
X403184Y4657D01*
X403055Y4723D01*
X402988Y4765D01*
X401508Y5378D01*
X399078Y7808D01*
X397763Y10982D01*
X397763Y14418D01*
X399078Y17592D01*
X401508Y20022D01*
X404682Y21337D01*
X408118Y21337D01*
X411292Y20022D01*
X413722Y17592D01*
X415037Y14418D01*
X415037Y10982D01*
X413722Y7808D01*
X411292Y5378D01*
X409801Y4760D01*
X409727Y4717D01*
X409649Y4682D01*
X409606Y4645D01*
X409556Y4616D01*
X409498Y4554D01*
X409432Y4498D01*
X409401Y4451D01*
X409361Y4409D01*
X409322Y4333D01*
X409274Y4262D01*
X409257Y4207D01*
X409231Y4157D01*
X409214Y4073D01*
X409189Y3991D01*
X409187Y3934D01*
X409176Y3878D01*
X409183Y3792D01*
X409181Y3707D01*
X409196Y3651D01*
X409200Y3594D01*
X409231Y3515D01*
X409253Y3432D01*
X409282Y3382D01*
X409302Y3329D01*
X409354Y3261D01*
X409398Y3187D01*
X409440Y3148D01*
X409474Y3102D01*
X409542Y3051D01*
X409605Y2993D01*
X409656Y2966D01*
X409702Y2932D01*
X409782Y2902D01*
X409858Y2863D01*
X409907Y2855D01*
X409968Y2832D01*
X410112Y2820D01*
X410189Y2807D01*
X428035Y2797D01*
X428120Y2809D01*
X428207Y2811D01*
X428260Y2829D01*
X428317Y2836D01*
X428395Y2872D01*
X428477Y2898D01*
X428524Y2929D01*
X428576Y2953D01*
X428642Y3008D01*
X428713Y3056D01*
X428750Y3100D01*
X428793Y3136D01*
X428841Y3208D01*
X428896Y3274D01*
X428920Y3326D01*
X428951Y3373D01*
X428977Y3455D01*
X429012Y3534D01*
X429020Y3590D01*
X429037Y3644D01*
X429039Y3730D01*
X429051Y3815D01*
X429043Y3871D01*
X429044Y3928D01*
X429023Y4011D01*
X429010Y4097D01*
X428987Y4148D01*
X428973Y4203D01*
X428929Y4277D01*
X428893Y4356D01*
X428856Y4399D01*
X428827Y4447D01*
X428765Y4506D01*
X428709Y4572D01*
X428667Y4598D01*
X428620Y4642D01*
X428491Y4708D01*
X428424Y4750D01*
X426908Y5378D01*
X424478Y7808D01*
X423163Y10982D01*
X423163Y14418D01*
X424478Y17592D01*
X426908Y20022D01*
X430082Y21337D01*
X433518Y21337D01*
X436692Y20022D01*
X439122Y17592D01*
X440437Y14418D01*
X440437Y10982D01*
X439122Y7808D01*
X436692Y5378D01*
X435165Y4746D01*
X435091Y4702D01*
X435013Y4667D01*
X434970Y4630D01*
X434920Y4601D01*
X434862Y4539D01*
X434796Y4484D01*
X434765Y4436D01*
X434725Y4394D01*
X434686Y4318D01*
X434638Y4247D01*
X434621Y4193D01*
X434595Y4142D01*
X434578Y4058D01*
X434553Y3976D01*
X434551Y3919D01*
X434540Y3863D01*
X434547Y3777D01*
X434545Y3692D01*
X434560Y3636D01*
X434564Y3580D01*
X434595Y3500D01*
X434617Y3417D01*
X434646Y3367D01*
X434666Y3314D01*
X434718Y3246D01*
X434762Y3172D01*
X434804Y3133D01*
X434838Y3088D01*
X434906Y3036D01*
X434969Y2978D01*
X435020Y2951D01*
X435066Y2917D01*
X435146Y2887D01*
X435222Y2848D01*
X435271Y2840D01*
X435332Y2817D01*
X435476Y2805D01*
X435553Y2792D01*
X453471Y2782D01*
X453557Y2794D01*
X453643Y2796D01*
X453697Y2814D01*
X453753Y2821D01*
X453831Y2857D01*
X453913Y2883D01*
X453960Y2914D01*
X454012Y2938D01*
X454078Y2993D01*
X454150Y3041D01*
X454186Y3085D01*
X454229Y3121D01*
X454277Y3193D01*
X454333Y3259D01*
X454356Y3311D01*
X454387Y3358D01*
X454413Y3440D01*
X454448Y3519D01*
X454456Y3575D01*
X454473Y3629D01*
X454475Y3715D01*
X454487Y3800D01*
X454479Y3856D01*
X454480Y3913D01*
X454459Y3996D01*
X454446Y4082D01*
X454423Y4133D01*
X454409Y4188D01*
X454365Y4262D01*
X454329Y4341D01*
X454293Y4384D01*
X454264Y4432D01*
X454201Y4491D01*
X454145Y4557D01*
X454103Y4583D01*
X454056Y4627D01*
X453927Y4693D01*
X453860Y4735D01*
X452308Y5378D01*
X449878Y7808D01*
X448563Y10982D01*
X448563Y14418D01*
X449878Y17592D01*
X452308Y20022D01*
X455482Y21337D01*
X458918Y21337D01*
X462092Y20022D01*
X464522Y17592D01*
X465837Y14418D01*
X465837Y10982D01*
X464522Y7808D01*
X462092Y5378D01*
X460529Y4731D01*
X460455Y4687D01*
X460377Y4652D01*
X460334Y4615D01*
X460284Y4586D01*
X460226Y4524D01*
X460160Y4469D01*
X460129Y4421D01*
X460089Y4379D01*
X460050Y4303D01*
X460002Y4232D01*
X459985Y4178D01*
X459959Y4127D01*
X459942Y4043D01*
X459917Y3961D01*
X459915Y3904D01*
X459904Y3848D01*
X459911Y3763D01*
X459909Y3677D01*
X459924Y3622D01*
X459928Y3565D01*
X459959Y3485D01*
X459981Y3402D01*
X460010Y3353D01*
X460030Y3299D01*
X460082Y3231D01*
X460126Y3157D01*
X460168Y3118D01*
X460202Y3073D01*
X460271Y3021D01*
X460333Y2963D01*
X460384Y2937D01*
X460430Y2902D01*
X460510Y2872D01*
X460586Y2833D01*
X460635Y2825D01*
X460696Y2802D01*
X460840Y2790D01*
X460917Y2777D01*
X478907Y2767D01*
X478993Y2779D01*
X479079Y2781D01*
X479133Y2799D01*
X479189Y2807D01*
X479267Y2842D01*
X479350Y2868D01*
X479397Y2900D01*
X479448Y2923D01*
X479514Y2978D01*
X479586Y3026D01*
X479622Y3070D01*
X479665Y3106D01*
X479713Y3178D01*
X479769Y3244D01*
X479792Y3296D01*
X479823Y3343D01*
X479849Y3425D01*
X479884Y3504D01*
X479892Y3560D01*
X479909Y3614D01*
X479911Y3700D01*
X479923Y3785D01*
X479915Y3841D01*
X479916Y3898D01*
X479895Y3981D01*
X479882Y4067D01*
X479859Y4118D01*
X479845Y4173D01*
X479801Y4247D01*
X479765Y4326D01*
X479729Y4369D01*
X479700Y4417D01*
X479637Y4477D01*
X479581Y4542D01*
X479539Y4568D01*
X479493Y4612D01*
X479363Y4679D01*
X479296Y4720D01*
X477708Y5378D01*
X475278Y7808D01*
X473963Y10982D01*
X473963Y14418D01*
X475278Y17592D01*
X477708Y20022D01*
X480882Y21337D01*
X484318Y21337D01*
X487492Y20022D01*
X489922Y17592D01*
X491237Y14418D01*
X491237Y10982D01*
X489922Y7808D01*
X487492Y5378D01*
X485893Y4716D01*
X485820Y4672D01*
X485741Y4637D01*
X485698Y4600D01*
X485648Y4571D01*
X485590Y4509D01*
X485524Y4454D01*
X485493Y4406D01*
X485453Y4365D01*
X485414Y4288D01*
X485366Y4217D01*
X485349Y4163D01*
X485323Y4112D01*
X485306Y4028D01*
X485281Y3946D01*
X485279Y3889D01*
X485268Y3833D01*
X485275Y3748D01*
X485273Y3662D01*
X485288Y3607D01*
X485292Y3550D01*
X485323Y3470D01*
X485345Y3387D01*
X485374Y3338D01*
X485394Y3284D01*
X485446Y3216D01*
X485490Y3142D01*
X485532Y3103D01*
X485566Y3058D01*
X485635Y3007D01*
X485697Y2948D01*
X485748Y2922D01*
X485794Y2887D01*
X485874Y2857D01*
X485950Y2818D01*
X485999Y2810D01*
X486060Y2787D01*
X486204Y2776D01*
X486281Y2763D01*
X504343Y2752D01*
X504429Y2764D01*
X504515Y2766D01*
X504569Y2784D01*
X504625Y2792D01*
X504704Y2827D01*
X504786Y2853D01*
X504833Y2885D01*
X504884Y2908D01*
X504950Y2963D01*
X505022Y3011D01*
X505058Y3055D01*
X505101Y3091D01*
X505149Y3163D01*
X505205Y3229D01*
X505228Y3281D01*
X505259Y3328D01*
X505285Y3410D01*
X505320Y3489D01*
X505328Y3545D01*
X505345Y3599D01*
X505347Y3685D01*
X505359Y3770D01*
X505351Y3826D01*
X505353Y3883D01*
X505331Y3966D01*
X505319Y4052D01*
X505295Y4103D01*
X505281Y4158D01*
X505237Y4232D01*
X505201Y4311D01*
X505165Y4354D01*
X505136Y4403D01*
X505073Y4462D01*
X505017Y4527D01*
X504975Y4553D01*
X504929Y4597D01*
X504799Y4664D01*
X504732Y4705D01*
X503108Y5378D01*
X500678Y7808D01*
X499363Y10982D01*
X499363Y14418D01*
X500678Y17592D01*
X503108Y20022D01*
X506282Y21337D01*
X509718Y21337D01*
X512892Y20022D01*
X515322Y17592D01*
X516637Y14418D01*
X516637Y10982D01*
X515322Y7808D01*
X512892Y5378D01*
X511257Y4701D01*
X511184Y4657D01*
X511105Y4622D01*
X511062Y4585D01*
X511012Y4556D01*
X510954Y4494D01*
X510888Y4439D01*
X510857Y4391D01*
X510817Y4350D01*
X510778Y4273D01*
X510730Y4202D01*
X510713Y4148D01*
X510687Y4097D01*
X510670Y4013D01*
X510645Y3931D01*
X510643Y3874D01*
X510632Y3818D01*
X510639Y3733D01*
X510637Y3647D01*
X510652Y3592D01*
X510656Y3535D01*
X510687Y3455D01*
X510709Y3372D01*
X510738Y3323D01*
X510758Y3269D01*
X510810Y3201D01*
X510854Y3128D01*
X510896Y3088D01*
X510930Y3043D01*
X510999Y2992D01*
X511061Y2933D01*
X511112Y2907D01*
X511158Y2873D01*
X511238Y2842D01*
X511314Y2803D01*
X511363Y2795D01*
X511424Y2772D01*
X511568Y2761D01*
X511645Y2748D01*
X529779Y2737D01*
X529865Y2749D01*
X529951Y2751D01*
X530005Y2769D01*
X530061Y2777D01*
X530140Y2812D01*
X530222Y2838D01*
X530269Y2870D01*
X530320Y2893D01*
X530386Y2948D01*
X530458Y2996D01*
X530494Y3040D01*
X530538Y3076D01*
X530585Y3148D01*
X530641Y3214D01*
X530664Y3266D01*
X530695Y3313D01*
X530721Y3395D01*
X530756Y3474D01*
X530764Y3530D01*
X530781Y3584D01*
X530783Y3670D01*
X530795Y3755D01*
X530787Y3811D01*
X530789Y3868D01*
X530767Y3951D01*
X530755Y4037D01*
X530731Y4088D01*
X530717Y4143D01*
X530673Y4217D01*
X530638Y4296D01*
X530601Y4339D01*
X530572Y4388D01*
X530509Y4447D01*
X530453Y4512D01*
X530411Y4538D01*
X530365Y4582D01*
X530235Y4649D01*
X530169Y4690D01*
X528508Y5378D01*
X526078Y7808D01*
X524763Y10982D01*
X524763Y14418D01*
X526078Y17592D01*
X528508Y20022D01*
X531682Y21337D01*
X535118Y21337D01*
X538292Y20022D01*
X540722Y17592D01*
X542037Y14418D01*
X542037Y10982D01*
X540722Y7808D01*
X538292Y5378D01*
X536621Y4686D01*
X536548Y4642D01*
X536469Y4607D01*
X536426Y4571D01*
X536376Y4541D01*
X536318Y4479D01*
X536252Y4424D01*
X536221Y4376D01*
X536181Y4335D01*
X536142Y4259D01*
X536094Y4187D01*
X536077Y4133D01*
X536051Y4082D01*
X536034Y3998D01*
X536009Y3916D01*
X536007Y3859D01*
X535996Y3803D01*
X536003Y3718D01*
X536001Y3632D01*
X536016Y3577D01*
X536020Y3520D01*
X536051Y3440D01*
X536073Y3357D01*
X536102Y3308D01*
X536122Y3255D01*
X536174Y3186D01*
X536218Y3113D01*
X536259Y3074D01*
X536294Y3028D01*
X536363Y2977D01*
X536425Y2918D01*
X536476Y2892D01*
X536522Y2858D01*
X536602Y2828D01*
X536678Y2788D01*
X536727Y2780D01*
X536788Y2757D01*
X536932Y2746D01*
X537009Y2733D01*
X555216Y2722D01*
X555301Y2734D01*
X555387Y2737D01*
X555441Y2754D01*
X555497Y2762D01*
X555576Y2797D01*
X555658Y2823D01*
X555705Y2855D01*
X555757Y2878D01*
X555822Y2933D01*
X555894Y2981D01*
X555930Y3025D01*
X555974Y3061D01*
X556021Y3133D01*
X556077Y3199D01*
X556100Y3251D01*
X556131Y3298D01*
X556157Y3380D01*
X556192Y3459D01*
X556200Y3515D01*
X556217Y3569D01*
X556220Y3655D01*
X556231Y3740D01*
X556223Y3796D01*
X556225Y3853D01*
X556203Y3936D01*
X556191Y4022D01*
X556167Y4073D01*
X556153Y4128D01*
X556109Y4202D01*
X556074Y4281D01*
X556037Y4324D01*
X556008Y4373D01*
X555945Y4432D01*
X555889Y4497D01*
X555848Y4523D01*
X555801Y4567D01*
X555671Y4634D01*
X555605Y4675D01*
X553908Y5378D01*
X551478Y7808D01*
X550163Y10982D01*
X550163Y14418D01*
X551478Y17592D01*
X553908Y20022D01*
X557082Y21337D01*
X560518Y21337D01*
X563692Y20022D01*
X566122Y17592D01*
X567437Y14418D01*
X567437Y10982D01*
X566122Y7808D01*
X563692Y5378D01*
X561985Y4671D01*
X561911Y4627D01*
X561833Y4593D01*
X561790Y4556D01*
X561740Y4527D01*
X561682Y4464D01*
X561616Y4409D01*
X561585Y4361D01*
X561545Y4320D01*
X561506Y4244D01*
X561458Y4172D01*
X561441Y4118D01*
X561415Y4067D01*
X561398Y3983D01*
X561373Y3901D01*
X561371Y3844D01*
X561360Y3788D01*
X561367Y3703D01*
X561365Y3617D01*
X561380Y3562D01*
X561384Y3505D01*
X561415Y3425D01*
X561437Y3342D01*
X561466Y3293D01*
X561486Y3240D01*
X561538Y3171D01*
X561582Y3098D01*
X561624Y3058D01*
X561658Y3013D01*
X561726Y2962D01*
X561789Y2903D01*
X561840Y2877D01*
X561886Y2843D01*
X561966Y2813D01*
X562042Y2773D01*
X562091Y2765D01*
X562152Y2742D01*
X562296Y2731D01*
X562373Y2718D01*
X580652Y2707D01*
X580737Y2719D01*
X580823Y2722D01*
X580877Y2739D01*
X580933Y2747D01*
X581012Y2782D01*
X581094Y2808D01*
X581141Y2840D01*
X581193Y2863D01*
X581258Y2918D01*
X581330Y2966D01*
X581367Y3010D01*
X581410Y3046D01*
X581458Y3118D01*
X581513Y3184D01*
X581536Y3236D01*
X581567Y3283D01*
X581594Y3365D01*
X581629Y3444D01*
X581636Y3500D01*
X581653Y3554D01*
X581656Y3640D01*
X581667Y3725D01*
X581659Y3781D01*
X581661Y3838D01*
X581639Y3922D01*
X581627Y4007D01*
X581604Y4058D01*
X581589Y4113D01*
X581545Y4187D01*
X581510Y4266D01*
X581473Y4309D01*
X581444Y4358D01*
X581381Y4417D01*
X581325Y4482D01*
X581284Y4508D01*
X581237Y4552D01*
X581107Y4619D01*
X581041Y4660D01*
X579308Y5378D01*
X576878Y7808D01*
X575563Y10982D01*
X575563Y14418D01*
X576878Y17592D01*
X579308Y20022D01*
X582482Y21337D01*
X585918Y21337D01*
X589092Y20022D01*
X591522Y17592D01*
X592837Y14418D01*
X592837Y10982D01*
X591522Y7808D01*
X589092Y5378D01*
X587349Y4656D01*
X587275Y4613D01*
X587197Y4578D01*
X587154Y4541D01*
X587104Y4512D01*
X587046Y4449D01*
X586980Y4394D01*
X586949Y4347D01*
X586909Y4305D01*
X586870Y4229D01*
X586822Y4158D01*
X586805Y4103D01*
X586779Y4052D01*
X586762Y3968D01*
X586737Y3887D01*
X586735Y3829D01*
X586724Y3773D01*
X586731Y3688D01*
X586729Y3602D01*
X586744Y3547D01*
X586748Y3490D01*
X586779Y3410D01*
X586801Y3327D01*
X586830Y3278D01*
X586850Y3225D01*
X586902Y3156D01*
X586946Y3083D01*
X586988Y3044D01*
X587022Y2998D01*
X587090Y2947D01*
X587153Y2888D01*
X587204Y2862D01*
X587250Y2828D01*
X587330Y2798D01*
X587406Y2759D01*
X587455Y2750D01*
X587516Y2727D01*
X587660Y2716D01*
X587737Y2703D01*
X606088Y2692D01*
X606173Y2704D01*
X606259Y2707D01*
X606313Y2724D01*
X606369Y2732D01*
X606448Y2767D01*
X606530Y2793D01*
X606577Y2825D01*
X606629Y2848D01*
X606695Y2904D01*
X606766Y2952D01*
X606803Y2995D01*
X606846Y3031D01*
X606894Y3103D01*
X606949Y3169D01*
X606972Y3221D01*
X607004Y3268D01*
X607030Y3350D01*
X607065Y3429D01*
X607072Y3485D01*
X607090Y3539D01*
X607092Y3625D01*
X607104Y3711D01*
X607096Y3766D01*
X607097Y3823D01*
X607075Y3907D01*
X607063Y3992D01*
X607040Y4043D01*
X607025Y4098D01*
X606981Y4172D01*
X606946Y4251D01*
X606909Y4294D01*
X606880Y4343D01*
X606817Y4402D01*
X606762Y4467D01*
X606720Y4493D01*
X606673Y4537D01*
X606543Y4604D01*
X606477Y4645D01*
X604708Y5378D01*
X602278Y7808D01*
X600963Y10982D01*
X600963Y14418D01*
X602278Y17592D01*
X604708Y20022D01*
X607882Y21337D01*
X611318Y21337D01*
X614492Y20022D01*
X616922Y17592D01*
X618237Y14418D01*
X618237Y10982D01*
X616922Y7808D01*
X614492Y5378D01*
X612713Y4641D01*
X612639Y4598D01*
X612561Y4563D01*
X612518Y4526D01*
X612468Y4497D01*
X612410Y4434D01*
X612344Y4379D01*
X612313Y4332D01*
X612273Y4290D01*
X612234Y4214D01*
X612186Y4143D01*
X612169Y4088D01*
X612143Y4037D01*
X612126Y3953D01*
X612101Y3872D01*
X612099Y3814D01*
X612088Y3758D01*
X612095Y3673D01*
X612093Y3587D01*
X612108Y3532D01*
X612112Y3475D01*
X612143Y3395D01*
X612165Y3312D01*
X612194Y3263D01*
X612214Y3210D01*
X612266Y3142D01*
X612310Y3068D01*
X612352Y3029D01*
X612386Y2983D01*
X612455Y2932D01*
X612517Y2873D01*
X612568Y2847D01*
X612614Y2813D01*
X612694Y2783D01*
X612770Y2744D01*
X612819Y2735D01*
X612880Y2713D01*
X613024Y2701D01*
X613101Y2688D01*
X631524Y2677D01*
X631609Y2689D01*
X631695Y2692D01*
X631749Y2709D01*
X631805Y2717D01*
X631884Y2752D01*
X631966Y2778D01*
X632013Y2810D01*
X632065Y2833D01*
X632131Y2889D01*
X632202Y2937D01*
X632239Y2980D01*
X632282Y3016D01*
X632330Y3088D01*
X632385Y3154D01*
X632408Y3206D01*
X632440Y3253D01*
X632466Y3335D01*
X632501Y3414D01*
X632509Y3470D01*
X632526Y3524D01*
X632528Y3610D01*
X632540Y3696D01*
X632532Y3752D01*
X632533Y3808D01*
X632511Y3892D01*
X632499Y3977D01*
X632476Y4028D01*
X632461Y4083D01*
X632417Y4158D01*
X632382Y4236D01*
X632345Y4279D01*
X632316Y4328D01*
X632253Y4387D01*
X632198Y4452D01*
X632156Y4478D01*
X632109Y4522D01*
X631979Y4589D01*
X631913Y4630D01*
X630108Y5378D01*
X627678Y7808D01*
X626363Y10982D01*
X626363Y14418D01*
X627678Y17592D01*
X630108Y20022D01*
X633282Y21337D01*
X636718Y21337D01*
X639892Y20022D01*
X642322Y17592D01*
X643637Y14418D01*
X643637Y10982D01*
X642322Y7808D01*
X639892Y5378D01*
X638077Y4626D01*
X638004Y4583D01*
X637925Y4548D01*
X637882Y4511D01*
X637832Y4482D01*
X637774Y4419D01*
X637708Y4364D01*
X637677Y4317D01*
X637637Y4275D01*
X637598Y4199D01*
X637550Y4128D01*
X637533Y4073D01*
X637507Y4022D01*
X637490Y3938D01*
X637465Y3857D01*
X637463Y3800D01*
X637452Y3743D01*
X637459Y3658D01*
X637457Y3573D01*
X637472Y3517D01*
X637476Y3460D01*
X637507Y3380D01*
X637529Y3297D01*
X637558Y3248D01*
X637578Y3195D01*
X637630Y3127D01*
X637674Y3053D01*
X637716Y3014D01*
X637750Y2968D01*
X637819Y2917D01*
X637881Y2858D01*
X637932Y2832D01*
X637978Y2798D01*
X638058Y2768D01*
X638134Y2729D01*
X638183Y2721D01*
X638244Y2698D01*
X638388Y2686D01*
X638465Y2673D01*
X656960Y2662D01*
X657045Y2674D01*
X657131Y2677D01*
X657185Y2694D01*
X657241Y2702D01*
X657320Y2737D01*
X657402Y2763D01*
X657449Y2795D01*
X657501Y2818D01*
X657567Y2874D01*
X657638Y2922D01*
X657675Y2965D01*
X657718Y3002D01*
X657766Y3073D01*
X657821Y3139D01*
X657844Y3191D01*
X657876Y3238D01*
X657902Y3320D01*
X657937Y3399D01*
X657945Y3455D01*
X657962Y3509D01*
X657964Y3595D01*
X657976Y3681D01*
X657968Y3737D01*
X657969Y3793D01*
X657947Y3877D01*
X657935Y3962D01*
X657912Y4013D01*
X657898Y4068D01*
X657853Y4143D01*
X657818Y4221D01*
X657781Y4264D01*
X657752Y4313D01*
X657690Y4372D01*
X657634Y4437D01*
X657592Y4464D01*
X657545Y4507D01*
X657415Y4574D01*
X657349Y4615D01*
X655508Y5378D01*
X653078Y7808D01*
X651763Y10982D01*
X651763Y14418D01*
X653078Y17592D01*
X655508Y20022D01*
X658682Y21337D01*
X662118Y21337D01*
X665292Y20022D01*
X667722Y17592D01*
X669037Y14418D01*
X669037Y10982D01*
X667722Y7808D01*
X665292Y5378D01*
X663441Y4611D01*
X663368Y4568D01*
X663289Y4533D01*
X663246Y4496D01*
X663196Y4467D01*
X663138Y4405D01*
X663072Y4349D01*
X663041Y4302D01*
X663001Y4260D01*
X662962Y4184D01*
X662914Y4113D01*
X662897Y4058D01*
X662871Y4007D01*
X662854Y3923D01*
X662829Y3842D01*
X662827Y3785D01*
X662816Y3729D01*
X662823Y3643D01*
X662821Y3558D01*
X662836Y3502D01*
X662840Y3445D01*
X662871Y3366D01*
X662893Y3283D01*
X662922Y3233D01*
X662942Y3180D01*
X662994Y3112D01*
X663038Y3038D01*
X663080Y2999D01*
X663114Y2953D01*
X663183Y2902D01*
X663245Y2843D01*
X663296Y2817D01*
X663342Y2783D01*
X663422Y2753D01*
X663498Y2714D01*
X663547Y2706D01*
X663608Y2683D01*
X663752Y2671D01*
X663829Y2658D01*
X682396Y2647D01*
X682482Y2659D01*
X682568Y2662D01*
X682621Y2679D01*
X682678Y2687D01*
X682756Y2722D01*
X682838Y2748D01*
X682885Y2780D01*
X682937Y2803D01*
X683003Y2859D01*
X683074Y2907D01*
X683111Y2950D01*
X683154Y2987D01*
X683202Y3058D01*
X683257Y3124D01*
X683280Y3176D01*
X683312Y3223D01*
X683338Y3305D01*
X683373Y3384D01*
X683381Y3440D01*
X683398Y3494D01*
X683400Y3580D01*
X683412Y3666D01*
X683404Y3722D01*
X683405Y3778D01*
X683384Y3862D01*
X683371Y3947D01*
X683348Y3998D01*
X683334Y4053D01*
X683290Y4128D01*
X683254Y4206D01*
X683217Y4249D01*
X683189Y4298D01*
X683126Y4357D01*
X683070Y4422D01*
X683028Y4449D01*
X682981Y4492D01*
X682852Y4559D01*
X682785Y4600D01*
X680908Y5378D01*
X678478Y7808D01*
X677163Y10982D01*
X677163Y14418D01*
X678478Y17592D01*
X680908Y20022D01*
X684082Y21337D01*
X687518Y21337D01*
X690692Y20022D01*
X693122Y17592D01*
X694437Y14418D01*
X694437Y10982D01*
X693122Y7808D01*
X690692Y5378D01*
X688805Y4596D01*
X688731Y4553D01*
X688653Y4518D01*
X688610Y4481D01*
X688560Y4452D01*
X688501Y4390D01*
X688436Y4334D01*
X688405Y4287D01*
X688365Y4245D01*
X688326Y4169D01*
X688278Y4098D01*
X688261Y4043D01*
X688235Y3993D01*
X688218Y3909D01*
X688193Y3827D01*
X688191Y3770D01*
X688180Y3714D01*
X688187Y3628D01*
X688185Y3543D01*
X688200Y3487D01*
X688204Y3430D01*
X688235Y3351D01*
X688257Y3268D01*
X688286Y3218D01*
X688306Y3165D01*
X688358Y3097D01*
X688402Y3023D01*
X688444Y2984D01*
X688478Y2938D01*
X688547Y2887D01*
X688609Y2828D01*
X688660Y2802D01*
X688706Y2768D01*
X688786Y2738D01*
X688862Y2699D01*
X688911Y2691D01*
X688972Y2668D01*
X689116Y2656D01*
X689193Y2643D01*
X707832Y2632D01*
X707918Y2644D01*
X708004Y2647D01*
X708058Y2664D01*
X708114Y2672D01*
X708192Y2707D01*
X708274Y2733D01*
X708322Y2765D01*
X708373Y2788D01*
X708439Y2844D01*
X708511Y2892D01*
X708547Y2935D01*
X708590Y2972D01*
X708638Y3043D01*
X708694Y3109D01*
X708717Y3161D01*
X708748Y3208D01*
X708774Y3290D01*
X708809Y3369D01*
X708817Y3425D01*
X708834Y3479D01*
X708836Y3565D01*
X708848Y3651D01*
X708840Y3707D01*
X708841Y3763D01*
X708820Y3847D01*
X708807Y3932D01*
X708784Y3984D01*
X708770Y4038D01*
X708726Y4113D01*
X708690Y4191D01*
X708654Y4234D01*
X708625Y4283D01*
X708562Y4342D01*
X708506Y4408D01*
X708464Y4434D01*
X708417Y4478D01*
X708288Y4544D01*
X708221Y4586D01*
X706308Y5378D01*
X703878Y7808D01*
X702563Y10982D01*
X702563Y14418D01*
X703878Y17592D01*
X706308Y20022D01*
X709482Y21337D01*
X712918Y21337D01*
X716092Y20022D01*
X718522Y17592D01*
X719837Y14418D01*
X719837Y10982D01*
X718522Y7808D01*
X716092Y5378D01*
X714169Y4582D01*
X714095Y4538D01*
X714017Y4503D01*
X713974Y4466D01*
X713924Y4437D01*
X713866Y4375D01*
X713800Y4320D01*
X713769Y4272D01*
X713729Y4230D01*
X713690Y4154D01*
X713642Y4083D01*
X713625Y4028D01*
X713599Y3978D01*
X713582Y3894D01*
X713557Y3812D01*
X713555Y3755D01*
X713544Y3699D01*
X713551Y3613D01*
X713549Y3528D01*
X713564Y3472D01*
X713568Y3415D01*
X713599Y3336D01*
X713621Y3253D01*
X713650Y3203D01*
X713670Y3150D01*
X713722Y3082D01*
X713766Y3008D01*
X713808Y2969D01*
X713842Y2923D01*
X713910Y2872D01*
X713973Y2814D01*
X714024Y2787D01*
X714070Y2753D01*
X714150Y2723D01*
X714226Y2684D01*
X714275Y2676D01*
X714336Y2653D01*
X714480Y2641D01*
X714557Y2628D01*
X730063Y2619D01*
X730172Y2634D01*
X730280Y2643D01*
X730312Y2654D01*
X730345Y2659D01*
X730444Y2703D01*
X730547Y2741D01*
X730574Y2761D01*
X730604Y2775D01*
X730687Y2845D01*
X730775Y2910D01*
X730796Y2937D01*
X730821Y2959D01*
X730882Y3049D01*
X730948Y3136D01*
X730961Y3167D01*
X730979Y3195D01*
X731012Y3299D01*
X731052Y3401D01*
X731055Y3434D01*
X731065Y3466D01*
X731068Y3575D01*
X731078Y3684D01*
X731072Y3717D01*
X731073Y3750D01*
X731045Y3856D01*
X731025Y3963D01*
X731009Y3993D01*
X731001Y4025D01*
X730945Y4119D01*
X730896Y4216D01*
X730875Y4238D01*
X730856Y4270D01*
X730695Y4421D01*
X730661Y4456D01*
X729981Y4950D01*
X728850Y6081D01*
X727910Y7375D01*
X727184Y8800D01*
X726689Y10321D01*
X726634Y10669D01*
X735584Y10669D01*
X735642Y10677D01*
X735700Y10675D01*
X735782Y10697D01*
X735865Y10709D01*
X735919Y10733D01*
X735975Y10747D01*
X736048Y10790D01*
X736125Y10825D01*
X736169Y10863D01*
X736220Y10893D01*
X736277Y10954D01*
X736342Y11009D01*
X736374Y11057D01*
X736414Y11100D01*
X736453Y11175D01*
X736499Y11245D01*
X736517Y11301D01*
X736544Y11353D01*
X736555Y11421D01*
X736585Y11516D01*
X736588Y11616D01*
X736599Y11684D01*
X736599Y12701D01*
X736601Y12701D01*
X736601Y11684D01*
X736609Y11626D01*
X736608Y11568D01*
X736629Y11486D01*
X736641Y11403D01*
X736665Y11349D01*
X736679Y11293D01*
X736722Y11220D01*
X736757Y11143D01*
X736795Y11098D01*
X736825Y11048D01*
X736886Y10990D01*
X736941Y10926D01*
X736989Y10894D01*
X737032Y10854D01*
X737107Y10815D01*
X737177Y10769D01*
X737233Y10751D01*
X737285Y10724D01*
X737353Y10713D01*
X737448Y10683D01*
X737548Y10680D01*
X737616Y10669D01*
X746566Y10669D01*
X746511Y10321D01*
X746016Y8800D01*
X745290Y7375D01*
X744350Y6081D01*
X743219Y4950D01*
X742529Y4448D01*
X742451Y4373D01*
X742368Y4303D01*
X742349Y4274D01*
X742324Y4251D01*
X742270Y4156D01*
X742210Y4066D01*
X742200Y4034D01*
X742183Y4004D01*
X742157Y3898D01*
X742124Y3795D01*
X742123Y3761D01*
X742115Y3728D01*
X742120Y3619D01*
X742117Y3511D01*
X742125Y3478D01*
X742127Y3444D01*
X742161Y3341D01*
X742188Y3236D01*
X742206Y3206D01*
X742217Y3174D01*
X742278Y3085D01*
X742334Y2991D01*
X742359Y2968D01*
X742378Y2940D01*
X742462Y2871D01*
X742541Y2797D01*
X742571Y2781D01*
X742598Y2760D01*
X742697Y2717D01*
X742794Y2667D01*
X742824Y2662D01*
X742859Y2647D01*
X743074Y2620D01*
X743125Y2612D01*
X758704Y2602D01*
X758790Y2614D01*
X758876Y2617D01*
X758930Y2634D01*
X758986Y2642D01*
X759065Y2677D01*
X759147Y2704D01*
X759194Y2735D01*
X759245Y2758D01*
X759311Y2814D01*
X759383Y2862D01*
X759419Y2905D01*
X759462Y2942D01*
X759510Y3013D01*
X759566Y3079D01*
X759589Y3131D01*
X759620Y3178D01*
X759646Y3260D01*
X759681Y3339D01*
X759689Y3395D01*
X759706Y3449D01*
X759708Y3535D01*
X759720Y3621D01*
X759712Y3677D01*
X759714Y3733D01*
X759692Y3817D01*
X759680Y3902D01*
X759656Y3954D01*
X759642Y4009D01*
X759598Y4083D01*
X759562Y4161D01*
X759526Y4204D01*
X759497Y4253D01*
X759434Y4312D01*
X759378Y4378D01*
X759336Y4404D01*
X759290Y4448D01*
X759160Y4514D01*
X759093Y4556D01*
X757108Y5378D01*
X754678Y7808D01*
X753363Y10982D01*
X753363Y14418D01*
X754678Y17592D01*
X757108Y20022D01*
X760282Y21337D01*
X763718Y21337D01*
X766892Y20022D01*
X769322Y17592D01*
X770637Y14418D01*
X770637Y10982D01*
X769322Y7808D01*
X766892Y5378D01*
X764897Y4552D01*
X764823Y4508D01*
X764745Y4473D01*
X764702Y4436D01*
X764652Y4407D01*
X764594Y4345D01*
X764528Y4290D01*
X764497Y4242D01*
X764457Y4201D01*
X764418Y4124D01*
X764370Y4053D01*
X764353Y3999D01*
X764327Y3948D01*
X764310Y3864D01*
X764285Y3782D01*
X764283Y3725D01*
X764272Y3669D01*
X764279Y3584D01*
X764277Y3498D01*
X764292Y3443D01*
X764296Y3386D01*
X764327Y3306D01*
X764349Y3223D01*
X764378Y3174D01*
X764398Y3120D01*
X764450Y3052D01*
X764494Y2978D01*
X764536Y2939D01*
X764570Y2894D01*
X764639Y2842D01*
X764701Y2784D01*
X764752Y2758D01*
X764798Y2723D01*
X764878Y2693D01*
X764954Y2654D01*
X765003Y2646D01*
X765064Y2623D01*
X765208Y2612D01*
X765285Y2599D01*
X857503Y2544D01*
X857562Y2552D01*
G37*
%LPC*%
G36*
X706270Y67944D02*
X706270Y67944D01*
X698567Y71135D01*
X692673Y77029D01*
X689482Y84732D01*
X689482Y93068D01*
X692673Y100771D01*
X698567Y106665D01*
X706270Y109856D01*
X714606Y109856D01*
X722309Y106665D01*
X728203Y100771D01*
X731394Y93068D01*
X731394Y84732D01*
X728203Y77029D01*
X722309Y71135D01*
X714606Y67944D01*
X706270Y67944D01*
G37*
%LPD*%
%LPC*%
G36*
X211732Y67944D02*
X211732Y67944D01*
X204029Y71135D01*
X198135Y77029D01*
X194944Y84732D01*
X194944Y93068D01*
X198135Y100771D01*
X204029Y106665D01*
X211732Y109856D01*
X220068Y109856D01*
X227771Y106665D01*
X233665Y100771D01*
X236856Y93068D01*
X236856Y84732D01*
X233665Y77029D01*
X227771Y71135D01*
X220068Y67944D01*
X211732Y67944D01*
G37*
%LPD*%
%LPC*%
G36*
X152948Y34843D02*
X152948Y34843D01*
X149266Y36368D01*
X146448Y39186D01*
X144923Y42868D01*
X144923Y46852D01*
X146448Y50534D01*
X149266Y53352D01*
X152948Y54877D01*
X156932Y54877D01*
X160614Y53352D01*
X163432Y50534D01*
X164957Y46852D01*
X164957Y42868D01*
X163432Y39186D01*
X160614Y36368D01*
X156932Y34843D01*
X152948Y34843D01*
G37*
%LPD*%
%LPC*%
G36*
X152948Y69843D02*
X152948Y69843D01*
X149266Y71368D01*
X146448Y74186D01*
X144923Y77868D01*
X144923Y81852D01*
X146448Y85534D01*
X149266Y88352D01*
X152948Y89877D01*
X156932Y89877D01*
X160614Y88352D01*
X163432Y85534D01*
X164957Y81852D01*
X164957Y77868D01*
X163432Y74186D01*
X160614Y71368D01*
X156932Y69843D01*
X152948Y69843D01*
G37*
%LPD*%
%LPC*%
G36*
X152948Y104843D02*
X152948Y104843D01*
X149266Y106368D01*
X146448Y109186D01*
X144923Y112868D01*
X144923Y116852D01*
X146448Y120534D01*
X149266Y123352D01*
X152948Y124877D01*
X156932Y124877D01*
X160614Y123352D01*
X163432Y120534D01*
X164957Y116852D01*
X164957Y112868D01*
X163432Y109186D01*
X160614Y106368D01*
X156932Y104843D01*
X152948Y104843D01*
G37*
%LPD*%
%LPC*%
G36*
X811316Y111955D02*
X811316Y111955D01*
X807634Y113480D01*
X804816Y116298D01*
X803291Y119980D01*
X803291Y123964D01*
X804816Y127646D01*
X807634Y130464D01*
X811316Y131989D01*
X815300Y131989D01*
X818982Y130464D01*
X821800Y127646D01*
X823325Y123964D01*
X823325Y119980D01*
X821800Y116298D01*
X818982Y113480D01*
X815300Y111955D01*
X811316Y111955D01*
G37*
%LPD*%
%LPC*%
G36*
X487818Y75183D02*
X487818Y75183D01*
X485139Y77862D01*
X485139Y81650D01*
X485575Y82086D01*
X485593Y82110D01*
X485615Y82129D01*
X485678Y82223D01*
X485746Y82313D01*
X485757Y82341D01*
X485773Y82365D01*
X485807Y82473D01*
X485847Y82579D01*
X485850Y82608D01*
X485859Y82636D01*
X485862Y82750D01*
X485871Y82862D01*
X485865Y82891D01*
X485866Y82920D01*
X485837Y83030D01*
X485815Y83141D01*
X485802Y83167D01*
X485794Y83195D01*
X485736Y83293D01*
X485684Y83393D01*
X485664Y83415D01*
X485649Y83440D01*
X485566Y83517D01*
X485488Y83599D01*
X485463Y83614D01*
X485442Y83634D01*
X485341Y83686D01*
X485243Y83743D01*
X485215Y83750D01*
X485188Y83764D01*
X485111Y83777D01*
X484968Y83813D01*
X484905Y83811D01*
X484857Y83819D01*
X480706Y83819D01*
X478027Y86498D01*
X478027Y89408D01*
X478019Y89466D01*
X478021Y89524D01*
X477999Y89606D01*
X477987Y89690D01*
X477964Y89743D01*
X477949Y89799D01*
X477906Y89872D01*
X477871Y89949D01*
X477833Y89994D01*
X477804Y90044D01*
X477742Y90102D01*
X477688Y90166D01*
X477639Y90198D01*
X477596Y90238D01*
X477521Y90277D01*
X477451Y90324D01*
X477395Y90341D01*
X477343Y90368D01*
X477275Y90379D01*
X477180Y90409D01*
X477080Y90412D01*
X477012Y90423D01*
X473594Y90423D01*
X473158Y90859D01*
X473134Y90877D01*
X473115Y90899D01*
X473021Y90962D01*
X472931Y91030D01*
X472903Y91041D01*
X472879Y91057D01*
X472771Y91091D01*
X472665Y91131D01*
X472636Y91134D01*
X472608Y91143D01*
X472494Y91146D01*
X472382Y91155D01*
X472353Y91149D01*
X472324Y91150D01*
X472214Y91121D01*
X472103Y91099D01*
X472077Y91086D01*
X472049Y91078D01*
X471951Y91020D01*
X471851Y90968D01*
X471829Y90948D01*
X471804Y90933D01*
X471727Y90850D01*
X471645Y90772D01*
X471630Y90747D01*
X471610Y90726D01*
X471558Y90625D01*
X471501Y90527D01*
X471494Y90499D01*
X471480Y90472D01*
X471467Y90395D01*
X471431Y90252D01*
X471433Y90189D01*
X471425Y90141D01*
X471425Y87514D01*
X468746Y84835D01*
X464958Y84835D01*
X462279Y87514D01*
X462279Y91302D01*
X464958Y93981D01*
X468746Y93981D01*
X469182Y93545D01*
X469206Y93527D01*
X469225Y93505D01*
X469319Y93442D01*
X469409Y93374D01*
X469437Y93363D01*
X469461Y93347D01*
X469569Y93313D01*
X469675Y93273D01*
X469704Y93270D01*
X469732Y93261D01*
X469846Y93258D01*
X469958Y93249D01*
X469987Y93255D01*
X470016Y93254D01*
X470126Y93283D01*
X470237Y93305D01*
X470263Y93318D01*
X470291Y93326D01*
X470389Y93384D01*
X470489Y93436D01*
X470511Y93456D01*
X470536Y93471D01*
X470613Y93554D01*
X470695Y93632D01*
X470710Y93657D01*
X470730Y93678D01*
X470782Y93779D01*
X470839Y93877D01*
X470846Y93905D01*
X470860Y93932D01*
X470873Y94009D01*
X470909Y94152D01*
X470907Y94215D01*
X470915Y94263D01*
X470915Y96890D01*
X473594Y99569D01*
X477382Y99569D01*
X480061Y96890D01*
X480061Y93980D01*
X480069Y93922D01*
X480067Y93864D01*
X480089Y93782D01*
X480101Y93698D01*
X480124Y93645D01*
X480139Y93589D01*
X480182Y93516D01*
X480217Y93439D01*
X480255Y93394D01*
X480284Y93344D01*
X480346Y93286D01*
X480400Y93222D01*
X480449Y93190D01*
X480492Y93150D01*
X480567Y93111D01*
X480637Y93064D01*
X480693Y93047D01*
X480745Y93020D01*
X480813Y93009D01*
X480908Y92979D01*
X481008Y92976D01*
X481076Y92965D01*
X484494Y92965D01*
X487173Y90286D01*
X487173Y86498D01*
X486737Y86062D01*
X486719Y86038D01*
X486697Y86019D01*
X486634Y85925D01*
X486566Y85835D01*
X486555Y85807D01*
X486539Y85783D01*
X486505Y85675D01*
X486465Y85569D01*
X486462Y85540D01*
X486453Y85512D01*
X486450Y85398D01*
X486441Y85286D01*
X486447Y85257D01*
X486446Y85228D01*
X486475Y85118D01*
X486497Y85007D01*
X486510Y84981D01*
X486518Y84953D01*
X486576Y84855D01*
X486628Y84755D01*
X486648Y84733D01*
X486663Y84708D01*
X486746Y84631D01*
X486824Y84549D01*
X486849Y84534D01*
X486870Y84514D01*
X486971Y84462D01*
X487069Y84405D01*
X487097Y84398D01*
X487124Y84384D01*
X487201Y84371D01*
X487344Y84335D01*
X487407Y84337D01*
X487455Y84329D01*
X491606Y84329D01*
X494285Y81650D01*
X494285Y77862D01*
X491606Y75183D01*
X487818Y75183D01*
G37*
%LPD*%
%LPC*%
G36*
X252282Y67563D02*
X252282Y67563D01*
X249108Y68878D01*
X246678Y71308D01*
X245363Y74482D01*
X245363Y77918D01*
X246678Y81092D01*
X249108Y83522D01*
X252282Y84837D01*
X255718Y84837D01*
X258892Y83522D01*
X261322Y81092D01*
X262637Y77918D01*
X262637Y74482D01*
X261322Y71308D01*
X258892Y68878D01*
X255718Y67563D01*
X252282Y67563D01*
G37*
%LPD*%
%LPC*%
G36*
X252282Y42163D02*
X252282Y42163D01*
X249108Y43478D01*
X246678Y45908D01*
X245363Y49082D01*
X245363Y52518D01*
X246678Y55692D01*
X249108Y58122D01*
X252282Y59437D01*
X255718Y59437D01*
X258892Y58122D01*
X261322Y55692D01*
X262637Y52518D01*
X262637Y49082D01*
X261322Y45908D01*
X258892Y43478D01*
X255718Y42163D01*
X252282Y42163D01*
G37*
%LPD*%
%LPC*%
G36*
X252282Y92963D02*
X252282Y92963D01*
X249108Y94278D01*
X246678Y96708D01*
X245363Y99882D01*
X245363Y103318D01*
X246678Y106492D01*
X249108Y108922D01*
X252282Y110237D01*
X255718Y110237D01*
X258892Y108922D01*
X261322Y106492D01*
X262637Y103318D01*
X262637Y99882D01*
X261322Y96708D01*
X258892Y94278D01*
X255718Y92963D01*
X252282Y92963D01*
G37*
%LPD*%
%LPC*%
G36*
X821645Y25025D02*
X821645Y25025D01*
X818491Y26332D01*
X816078Y28745D01*
X814771Y31899D01*
X814771Y35313D01*
X816078Y38467D01*
X818491Y40880D01*
X821645Y42187D01*
X825059Y42187D01*
X828213Y40880D01*
X830626Y38467D01*
X831933Y35313D01*
X831933Y31899D01*
X830626Y28745D01*
X828213Y26332D01*
X825059Y25025D01*
X821645Y25025D01*
G37*
%LPD*%
%LPC*%
G36*
X821645Y66525D02*
X821645Y66525D01*
X818491Y67832D01*
X816078Y70245D01*
X814771Y73399D01*
X814771Y76813D01*
X816078Y79967D01*
X818491Y82380D01*
X821645Y83687D01*
X825059Y83687D01*
X828213Y82380D01*
X830626Y79967D01*
X831933Y76813D01*
X831933Y73399D01*
X830626Y70245D01*
X828213Y67832D01*
X825059Y66525D01*
X821645Y66525D01*
G37*
%LPD*%
%LPC*%
G36*
X791602Y46735D02*
X791602Y46735D01*
X788923Y49414D01*
X788923Y53202D01*
X791602Y55881D01*
X795390Y55881D01*
X796334Y54937D01*
X796358Y54919D01*
X796377Y54897D01*
X796471Y54834D01*
X796561Y54766D01*
X796589Y54755D01*
X796613Y54739D01*
X796721Y54705D01*
X796827Y54665D01*
X796856Y54662D01*
X796884Y54653D01*
X796998Y54650D01*
X797110Y54641D01*
X797139Y54647D01*
X797168Y54646D01*
X797278Y54675D01*
X797389Y54697D01*
X797415Y54710D01*
X797443Y54718D01*
X797541Y54776D01*
X797641Y54828D01*
X797663Y54848D01*
X797688Y54863D01*
X797765Y54946D01*
X797847Y55024D01*
X797862Y55049D01*
X797882Y55070D01*
X797934Y55171D01*
X797991Y55269D01*
X797998Y55297D01*
X798012Y55324D01*
X798025Y55401D01*
X798061Y55544D01*
X798059Y55607D01*
X798067Y55655D01*
X798067Y57266D01*
X799519Y58718D01*
X799537Y58742D01*
X799559Y58761D01*
X799576Y58785D01*
X799597Y58805D01*
X799639Y58878D01*
X799690Y58945D01*
X799701Y58973D01*
X799717Y58997D01*
X799726Y59025D01*
X799741Y59050D01*
X799761Y59132D01*
X799791Y59211D01*
X799794Y59240D01*
X799803Y59268D01*
X799803Y59298D01*
X799811Y59326D01*
X799808Y59410D01*
X799815Y59494D01*
X799809Y59523D01*
X799810Y59552D01*
X799803Y59581D01*
X799802Y59610D01*
X799776Y59690D01*
X799759Y59773D01*
X799746Y59799D01*
X799738Y59827D01*
X799723Y59853D01*
X799714Y59881D01*
X799674Y59936D01*
X799628Y60025D01*
X799608Y60047D01*
X799593Y60072D01*
X799547Y60115D01*
X799519Y60154D01*
X796543Y63130D01*
X796543Y66918D01*
X799222Y69597D01*
X803010Y69597D01*
X805689Y66918D01*
X805689Y63130D01*
X804237Y61678D01*
X804219Y61654D01*
X804197Y61635D01*
X804180Y61611D01*
X804159Y61591D01*
X804117Y61518D01*
X804066Y61451D01*
X804055Y61423D01*
X804039Y61399D01*
X804030Y61371D01*
X804015Y61346D01*
X803995Y61264D01*
X803965Y61185D01*
X803962Y61156D01*
X803953Y61128D01*
X803953Y61098D01*
X803945Y61070D01*
X803948Y60986D01*
X803941Y60902D01*
X803947Y60873D01*
X803946Y60844D01*
X803953Y60815D01*
X803954Y60786D01*
X803980Y60706D01*
X803997Y60623D01*
X804010Y60597D01*
X804018Y60569D01*
X804033Y60543D01*
X804042Y60515D01*
X804082Y60460D01*
X804128Y60371D01*
X804148Y60349D01*
X804163Y60324D01*
X804209Y60281D01*
X804237Y60242D01*
X807213Y57266D01*
X807213Y53478D01*
X804534Y50799D01*
X800746Y50799D01*
X799802Y51743D01*
X799778Y51761D01*
X799759Y51783D01*
X799665Y51846D01*
X799575Y51914D01*
X799547Y51925D01*
X799523Y51941D01*
X799415Y51975D01*
X799309Y52015D01*
X799280Y52018D01*
X799252Y52027D01*
X799138Y52030D01*
X799026Y52039D01*
X798997Y52033D01*
X798968Y52034D01*
X798858Y52005D01*
X798747Y51983D01*
X798721Y51970D01*
X798693Y51962D01*
X798595Y51904D01*
X798495Y51852D01*
X798473Y51832D01*
X798448Y51817D01*
X798371Y51734D01*
X798289Y51656D01*
X798274Y51631D01*
X798254Y51610D01*
X798202Y51509D01*
X798145Y51411D01*
X798138Y51383D01*
X798124Y51356D01*
X798111Y51279D01*
X798075Y51136D01*
X798077Y51073D01*
X798069Y51025D01*
X798069Y49414D01*
X795390Y46735D01*
X791602Y46735D01*
G37*
%LPD*%
%LPC*%
G36*
X781283Y101961D02*
X781283Y101961D01*
X778428Y103144D01*
X776244Y105328D01*
X775061Y108183D01*
X775061Y111273D01*
X776244Y114128D01*
X778428Y116312D01*
X781283Y117495D01*
X784373Y117495D01*
X787228Y116312D01*
X789412Y114128D01*
X790595Y111273D01*
X790595Y108183D01*
X789412Y105328D01*
X787228Y103144D01*
X784373Y101961D01*
X781283Y101961D01*
G37*
%LPD*%
%LPC*%
G36*
X175906Y33527D02*
X175906Y33527D01*
X173227Y36206D01*
X173227Y39994D01*
X175906Y42673D01*
X179694Y42673D01*
X182416Y39951D01*
X182463Y39916D01*
X182503Y39873D01*
X182576Y39830D01*
X182643Y39780D01*
X182698Y39759D01*
X182748Y39729D01*
X182830Y39709D01*
X182909Y39679D01*
X182967Y39674D01*
X183024Y39659D01*
X183108Y39662D01*
X183192Y39655D01*
X183250Y39667D01*
X183308Y39668D01*
X183388Y39694D01*
X183471Y39711D01*
X183523Y39738D01*
X183579Y39756D01*
X183635Y39796D01*
X183723Y39842D01*
X183796Y39911D01*
X183852Y39951D01*
X186574Y42673D01*
X190362Y42673D01*
X193041Y39994D01*
X193041Y36206D01*
X190362Y33527D01*
X186574Y33527D01*
X183852Y36249D01*
X183805Y36284D01*
X183765Y36327D01*
X183692Y36370D01*
X183625Y36420D01*
X183570Y36441D01*
X183520Y36471D01*
X183438Y36491D01*
X183359Y36521D01*
X183301Y36526D01*
X183244Y36541D01*
X183160Y36538D01*
X183076Y36545D01*
X183018Y36533D01*
X182960Y36532D01*
X182880Y36506D01*
X182797Y36489D01*
X182745Y36462D01*
X182689Y36444D01*
X182633Y36404D01*
X182545Y36358D01*
X182472Y36289D01*
X182416Y36249D01*
X179694Y33527D01*
X175906Y33527D01*
G37*
%LPD*%
%LPC*%
G36*
X571638Y56387D02*
X571638Y56387D01*
X568959Y59066D01*
X568959Y62854D01*
X570411Y64306D01*
X570429Y64330D01*
X570451Y64349D01*
X570514Y64443D01*
X570582Y64533D01*
X570593Y64561D01*
X570609Y64585D01*
X570643Y64693D01*
X570683Y64799D01*
X570686Y64828D01*
X570695Y64856D01*
X570698Y64970D01*
X570707Y65082D01*
X570701Y65111D01*
X570702Y65140D01*
X570673Y65250D01*
X570651Y65361D01*
X570638Y65387D01*
X570630Y65415D01*
X570572Y65513D01*
X570520Y65613D01*
X570500Y65635D01*
X570485Y65660D01*
X570402Y65737D01*
X570324Y65819D01*
X570299Y65834D01*
X570278Y65854D01*
X570177Y65906D01*
X570079Y65963D01*
X570051Y65970D01*
X570024Y65984D01*
X569947Y65997D01*
X569804Y66033D01*
X569741Y66031D01*
X569693Y66039D01*
X568590Y66039D01*
X565911Y68718D01*
X565911Y72506D01*
X568590Y75185D01*
X572378Y75185D01*
X575057Y72506D01*
X575057Y68718D01*
X573605Y67266D01*
X573587Y67242D01*
X573565Y67223D01*
X573502Y67129D01*
X573434Y67039D01*
X573423Y67011D01*
X573407Y66987D01*
X573373Y66879D01*
X573333Y66773D01*
X573330Y66744D01*
X573321Y66716D01*
X573318Y66602D01*
X573309Y66490D01*
X573315Y66461D01*
X573314Y66432D01*
X573343Y66322D01*
X573365Y66211D01*
X573378Y66185D01*
X573386Y66157D01*
X573444Y66059D01*
X573496Y65959D01*
X573516Y65937D01*
X573531Y65912D01*
X573614Y65835D01*
X573692Y65753D01*
X573717Y65738D01*
X573738Y65718D01*
X573839Y65666D01*
X573937Y65609D01*
X573965Y65602D01*
X573992Y65588D01*
X574069Y65575D01*
X574212Y65539D01*
X574275Y65541D01*
X574323Y65533D01*
X575426Y65533D01*
X578105Y62854D01*
X578105Y59066D01*
X575426Y56387D01*
X571638Y56387D01*
G37*
%LPD*%
%LPC*%
G36*
X489850Y106171D02*
X489850Y106171D01*
X487171Y108850D01*
X487171Y112638D01*
X489850Y115317D01*
X493638Y115317D01*
X494582Y114373D01*
X494606Y114355D01*
X494625Y114333D01*
X494719Y114270D01*
X494809Y114202D01*
X494837Y114191D01*
X494861Y114175D01*
X494969Y114141D01*
X495075Y114101D01*
X495104Y114098D01*
X495132Y114089D01*
X495246Y114086D01*
X495358Y114077D01*
X495387Y114083D01*
X495416Y114082D01*
X495526Y114111D01*
X495637Y114133D01*
X495663Y114146D01*
X495691Y114154D01*
X495789Y114212D01*
X495889Y114264D01*
X495911Y114284D01*
X495936Y114299D01*
X496013Y114382D01*
X496095Y114460D01*
X496110Y114485D01*
X496130Y114506D01*
X496182Y114607D01*
X496239Y114705D01*
X496246Y114733D01*
X496260Y114760D01*
X496273Y114837D01*
X496309Y114980D01*
X496307Y115043D01*
X496315Y115091D01*
X496315Y117718D01*
X498994Y120397D01*
X502782Y120397D01*
X505461Y117718D01*
X505461Y113930D01*
X502782Y111251D01*
X498994Y111251D01*
X498050Y112195D01*
X498026Y112213D01*
X498007Y112235D01*
X497913Y112298D01*
X497823Y112366D01*
X497795Y112377D01*
X497771Y112393D01*
X497663Y112427D01*
X497557Y112467D01*
X497528Y112470D01*
X497500Y112479D01*
X497386Y112482D01*
X497274Y112491D01*
X497245Y112485D01*
X497216Y112486D01*
X497106Y112457D01*
X496995Y112435D01*
X496969Y112422D01*
X496941Y112414D01*
X496843Y112356D01*
X496743Y112304D01*
X496721Y112284D01*
X496696Y112269D01*
X496619Y112186D01*
X496537Y112108D01*
X496522Y112083D01*
X496502Y112062D01*
X496450Y111961D01*
X496393Y111863D01*
X496386Y111835D01*
X496372Y111808D01*
X496359Y111731D01*
X496323Y111588D01*
X496325Y111525D01*
X496317Y111477D01*
X496317Y108850D01*
X493638Y106171D01*
X489850Y106171D01*
G37*
%LPD*%
%LPC*%
G36*
X441590Y67563D02*
X441590Y67563D01*
X438911Y70242D01*
X438911Y74030D01*
X441590Y76709D01*
X445378Y76709D01*
X447338Y74749D01*
X447385Y74714D01*
X447425Y74671D01*
X447498Y74628D01*
X447565Y74578D01*
X447620Y74557D01*
X447670Y74527D01*
X447752Y74507D01*
X447831Y74477D01*
X447889Y74472D01*
X447946Y74457D01*
X448030Y74460D01*
X448114Y74453D01*
X448172Y74465D01*
X448230Y74466D01*
X448310Y74492D01*
X448393Y74509D01*
X448445Y74536D01*
X448501Y74554D01*
X448557Y74594D01*
X448645Y74640D01*
X448718Y74709D01*
X448774Y74749D01*
X450734Y76709D01*
X454522Y76709D01*
X457201Y74030D01*
X457201Y70242D01*
X454522Y67563D01*
X450734Y67563D01*
X448774Y69523D01*
X448727Y69558D01*
X448687Y69601D01*
X448614Y69644D01*
X448547Y69694D01*
X448492Y69715D01*
X448442Y69745D01*
X448360Y69765D01*
X448281Y69795D01*
X448223Y69800D01*
X448166Y69815D01*
X448082Y69812D01*
X447998Y69819D01*
X447940Y69807D01*
X447882Y69806D01*
X447802Y69780D01*
X447719Y69763D01*
X447667Y69736D01*
X447611Y69718D01*
X447555Y69678D01*
X447467Y69632D01*
X447394Y69563D01*
X447338Y69523D01*
X445378Y67563D01*
X441590Y67563D01*
G37*
%LPD*%
%LPC*%
G36*
X373010Y45719D02*
X373010Y45719D01*
X370331Y48398D01*
X370331Y52186D01*
X372799Y54654D01*
X372834Y54701D01*
X372877Y54741D01*
X372920Y54814D01*
X372970Y54881D01*
X372991Y54936D01*
X373021Y54986D01*
X373041Y55068D01*
X373071Y55147D01*
X373076Y55205D01*
X373091Y55262D01*
X373088Y55346D01*
X373095Y55430D01*
X373083Y55488D01*
X373082Y55546D01*
X373056Y55626D01*
X373039Y55709D01*
X373012Y55761D01*
X372994Y55817D01*
X372954Y55873D01*
X372908Y55961D01*
X372839Y56034D01*
X372799Y56090D01*
X371855Y57034D01*
X371855Y60822D01*
X374534Y63501D01*
X378322Y63501D01*
X381001Y60822D01*
X381001Y57034D01*
X378533Y54566D01*
X378498Y54519D01*
X378455Y54479D01*
X378412Y54406D01*
X378362Y54339D01*
X378341Y54284D01*
X378311Y54234D01*
X378291Y54152D01*
X378261Y54073D01*
X378256Y54015D01*
X378241Y53958D01*
X378244Y53874D01*
X378237Y53790D01*
X378249Y53732D01*
X378250Y53674D01*
X378276Y53594D01*
X378293Y53511D01*
X378320Y53459D01*
X378338Y53403D01*
X378378Y53347D01*
X378424Y53259D01*
X378493Y53186D01*
X378533Y53130D01*
X379477Y52186D01*
X379477Y48398D01*
X376798Y45719D01*
X373010Y45719D01*
G37*
%LPD*%
%LPC*%
G36*
X649362Y54863D02*
X649362Y54863D01*
X646683Y57542D01*
X646683Y61330D01*
X648389Y63036D01*
X648424Y63083D01*
X648467Y63123D01*
X648510Y63196D01*
X648560Y63263D01*
X648581Y63318D01*
X648611Y63368D01*
X648631Y63450D01*
X648661Y63529D01*
X648666Y63587D01*
X648681Y63644D01*
X648678Y63728D01*
X648685Y63812D01*
X648673Y63870D01*
X648672Y63928D01*
X648646Y64008D01*
X648629Y64091D01*
X648602Y64143D01*
X648584Y64199D01*
X648544Y64255D01*
X648498Y64343D01*
X648429Y64416D01*
X648389Y64472D01*
X646683Y66178D01*
X646683Y69966D01*
X649362Y72645D01*
X653150Y72645D01*
X655829Y69966D01*
X655829Y66178D01*
X654123Y64472D01*
X654088Y64425D01*
X654045Y64385D01*
X654002Y64312D01*
X653952Y64245D01*
X653931Y64190D01*
X653901Y64140D01*
X653881Y64058D01*
X653851Y63979D01*
X653846Y63921D01*
X653831Y63864D01*
X653834Y63780D01*
X653827Y63696D01*
X653839Y63638D01*
X653840Y63580D01*
X653866Y63500D01*
X653883Y63417D01*
X653910Y63365D01*
X653928Y63309D01*
X653968Y63253D01*
X654014Y63165D01*
X654083Y63092D01*
X654123Y63036D01*
X655829Y61330D01*
X655829Y57542D01*
X653150Y54863D01*
X649362Y54863D01*
G37*
%LPD*%
%LPC*%
G36*
X798797Y32059D02*
X798797Y32059D01*
X796390Y33056D01*
X794548Y34898D01*
X793551Y37305D01*
X793551Y39911D01*
X794548Y42318D01*
X796390Y44160D01*
X798797Y45157D01*
X801403Y45157D01*
X803810Y44160D01*
X805652Y42318D01*
X806649Y39911D01*
X806649Y37305D01*
X805652Y34898D01*
X803810Y33056D01*
X801403Y32059D01*
X798797Y32059D01*
G37*
%LPD*%
%LPC*%
G36*
X84880Y90197D02*
X84880Y90197D01*
X82069Y93008D01*
X82069Y96984D01*
X84880Y99795D01*
X88856Y99795D01*
X91667Y96984D01*
X91667Y93008D01*
X88856Y90197D01*
X84880Y90197D01*
G37*
%LPD*%
%LPC*%
G36*
X214969Y141604D02*
X214969Y141604D01*
X212216Y144357D01*
X212216Y148251D01*
X214969Y151004D01*
X218863Y151004D01*
X221616Y148251D01*
X221616Y144357D01*
X218863Y141604D01*
X214969Y141604D01*
G37*
%LPD*%
%LPC*%
G36*
X570622Y132079D02*
X570622Y132079D01*
X567943Y134758D01*
X567943Y138546D01*
X570622Y141225D01*
X574410Y141225D01*
X577089Y138546D01*
X577089Y135411D01*
X577093Y135381D01*
X577090Y135352D01*
X577113Y135241D01*
X577129Y135129D01*
X577141Y135102D01*
X577146Y135074D01*
X577199Y134973D01*
X577245Y134870D01*
X577264Y134847D01*
X577277Y134821D01*
X577305Y134792D01*
X577205Y134766D01*
X577179Y134751D01*
X577151Y134742D01*
X577088Y134697D01*
X576960Y134621D01*
X576917Y134575D01*
X576878Y134547D01*
X574410Y132079D01*
X570622Y132079D01*
G37*
%LPD*%
%LPC*%
G36*
X581290Y128015D02*
X581290Y128015D01*
X578611Y130694D01*
X578611Y133829D01*
X578607Y133859D01*
X578610Y133888D01*
X578587Y133999D01*
X578571Y134111D01*
X578559Y134138D01*
X578554Y134166D01*
X578501Y134267D01*
X578455Y134370D01*
X578436Y134393D01*
X578423Y134419D01*
X578395Y134448D01*
X578495Y134474D01*
X578521Y134489D01*
X578549Y134498D01*
X578612Y134543D01*
X578740Y134619D01*
X578783Y134665D01*
X578822Y134693D01*
X581290Y137161D01*
X585078Y137161D01*
X587757Y134482D01*
X587757Y130694D01*
X585078Y128015D01*
X581290Y128015D01*
G37*
%LPD*%
%LPC*%
G36*
X673746Y46227D02*
X673746Y46227D01*
X671067Y48906D01*
X671067Y52694D01*
X673746Y55373D01*
X677534Y55373D01*
X680213Y52694D01*
X680213Y48906D01*
X677534Y46227D01*
X673746Y46227D01*
G37*
%LPD*%
%LPC*%
G36*
X483754Y34543D02*
X483754Y34543D01*
X481075Y37222D01*
X481075Y41010D01*
X483754Y43689D01*
X487542Y43689D01*
X490221Y41010D01*
X490221Y37222D01*
X487542Y34543D01*
X483754Y34543D01*
G37*
%LPD*%
%LPC*%
G36*
X13621Y8402D02*
X13621Y8402D01*
X10942Y11081D01*
X10942Y14869D01*
X13621Y17548D01*
X17409Y17548D01*
X20088Y14869D01*
X20088Y11081D01*
X17409Y8402D01*
X13621Y8402D01*
G37*
%LPD*%
%LPC*%
G36*
X649362Y132587D02*
X649362Y132587D01*
X646683Y135266D01*
X646683Y139054D01*
X649362Y141733D01*
X653150Y141733D01*
X655829Y139054D01*
X655829Y135266D01*
X653150Y132587D01*
X649362Y132587D01*
G37*
%LPD*%
%LPC*%
G36*
X558430Y132079D02*
X558430Y132079D01*
X555751Y134758D01*
X555751Y138546D01*
X558430Y141225D01*
X562218Y141225D01*
X564897Y138546D01*
X564897Y134758D01*
X562218Y132079D01*
X558430Y132079D01*
G37*
%LPD*%
%LPC*%
G36*
X671206Y127507D02*
X671206Y127507D01*
X668527Y130186D01*
X668527Y133974D01*
X671206Y136653D01*
X674994Y136653D01*
X677673Y133974D01*
X677673Y130186D01*
X674994Y127507D01*
X671206Y127507D01*
G37*
%LPD*%
%LPC*%
G36*
X537094Y127507D02*
X537094Y127507D01*
X534415Y130186D01*
X534415Y133974D01*
X537094Y136653D01*
X540882Y136653D01*
X543561Y133974D01*
X543561Y130186D01*
X540882Y127507D01*
X537094Y127507D01*
G37*
%LPD*%
%LPC*%
G36*
X362936Y127507D02*
X362936Y127507D01*
X360258Y130186D01*
X360258Y133974D01*
X362936Y136653D01*
X366724Y136653D01*
X369403Y133974D01*
X369403Y130186D01*
X366724Y127507D01*
X362936Y127507D01*
G37*
%LPD*%
%LPC*%
G36*
X458862Y123951D02*
X458862Y123951D01*
X456183Y126630D01*
X456183Y130418D01*
X458862Y133097D01*
X462650Y133097D01*
X465329Y130418D01*
X465329Y126630D01*
X462650Y123951D01*
X458862Y123951D01*
G37*
%LPD*%
%LPC*%
G36*
X310018Y116331D02*
X310018Y116331D01*
X307339Y119010D01*
X307339Y122798D01*
X310018Y125477D01*
X313806Y125477D01*
X316485Y122798D01*
X316485Y119010D01*
X313806Y116331D01*
X310018Y116331D01*
G37*
%LPD*%
%LPC*%
G36*
X444130Y111251D02*
X444130Y111251D01*
X441451Y113930D01*
X441451Y117718D01*
X444130Y120397D01*
X447918Y120397D01*
X450597Y117718D01*
X450597Y113930D01*
X447918Y111251D01*
X444130Y111251D01*
G37*
%LPD*%
%LPC*%
G36*
X521346Y108711D02*
X521346Y108711D01*
X518667Y111390D01*
X518667Y115178D01*
X521346Y117857D01*
X525134Y117857D01*
X527813Y115178D01*
X527813Y111390D01*
X525134Y108711D01*
X521346Y108711D01*
G37*
%LPD*%
%LPC*%
G36*
X453782Y104647D02*
X453782Y104647D01*
X451103Y107326D01*
X451103Y111114D01*
X453782Y113793D01*
X457570Y113793D01*
X460249Y111114D01*
X460249Y107326D01*
X457570Y104647D01*
X453782Y104647D01*
G37*
%LPD*%
%LPC*%
G36*
X84974Y102615D02*
X84974Y102615D01*
X82295Y105294D01*
X82295Y109082D01*
X84974Y111761D01*
X88762Y111761D01*
X91441Y109082D01*
X91441Y105294D01*
X88762Y102615D01*
X84974Y102615D01*
G37*
%LPD*%
%LPC*%
G36*
X18426Y142747D02*
X18426Y142747D01*
X15747Y145426D01*
X15747Y149214D01*
X18426Y151893D01*
X22214Y151893D01*
X24893Y149214D01*
X24893Y145426D01*
X22214Y142747D01*
X18426Y142747D01*
G37*
%LPD*%
%LPC*%
G36*
X606182Y93471D02*
X606182Y93471D01*
X603503Y96150D01*
X603503Y99938D01*
X606182Y102617D01*
X609970Y102617D01*
X612649Y99938D01*
X612649Y96150D01*
X609970Y93471D01*
X606182Y93471D01*
G37*
%LPD*%
%LPC*%
G36*
X536586Y93471D02*
X536586Y93471D01*
X533907Y96150D01*
X533907Y99938D01*
X536586Y102617D01*
X540374Y102617D01*
X543053Y99938D01*
X543053Y96150D01*
X540374Y93471D01*
X536586Y93471D01*
G37*
%LPD*%
%LPC*%
G36*
X664094Y92963D02*
X664094Y92963D01*
X661415Y95642D01*
X661415Y99430D01*
X664094Y102109D01*
X667882Y102109D01*
X670561Y99430D01*
X670561Y95642D01*
X667882Y92963D01*
X664094Y92963D01*
G37*
%LPD*%
%LPC*%
G36*
X649362Y92963D02*
X649362Y92963D01*
X646683Y95642D01*
X646683Y99430D01*
X649362Y102109D01*
X653150Y102109D01*
X655829Y99430D01*
X655829Y95642D01*
X653150Y92963D01*
X649362Y92963D01*
G37*
%LPD*%
%LPC*%
G36*
X436510Y85343D02*
X436510Y85343D01*
X433831Y88022D01*
X433831Y91810D01*
X436510Y94489D01*
X440298Y94489D01*
X442977Y91810D01*
X442977Y88022D01*
X440298Y85343D01*
X436510Y85343D01*
G37*
%LPD*%
%LPC*%
G36*
X563510Y84327D02*
X563510Y84327D01*
X560831Y87006D01*
X560831Y90794D01*
X563510Y93473D01*
X567298Y93473D01*
X569977Y90794D01*
X569977Y87006D01*
X567298Y84327D01*
X563510Y84327D01*
G37*
%LPD*%
%LPC*%
G36*
X543698Y83311D02*
X543698Y83311D01*
X541019Y85990D01*
X541019Y89778D01*
X543698Y92457D01*
X547486Y92457D01*
X550165Y89778D01*
X550165Y85990D01*
X547486Y83311D01*
X543698Y83311D01*
G37*
%LPD*%
%LPC*%
G36*
X444638Y93979D02*
X444638Y93979D01*
X441959Y96658D01*
X441959Y100446D01*
X444638Y103125D01*
X448426Y103125D01*
X451105Y100446D01*
X451105Y96658D01*
X448426Y93979D01*
X444638Y93979D01*
G37*
%LPD*%
%LPC*%
G36*
X504582Y71627D02*
X504582Y71627D01*
X501903Y74306D01*
X501903Y78094D01*
X504582Y80773D01*
X508370Y80773D01*
X511049Y78094D01*
X511049Y74306D01*
X508370Y71627D01*
X504582Y71627D01*
G37*
%LPD*%
%LPC*%
G36*
X334910Y68579D02*
X334910Y68579D01*
X332231Y71258D01*
X332231Y75046D01*
X334910Y77725D01*
X338698Y77725D01*
X341377Y75046D01*
X341377Y71258D01*
X338698Y68579D01*
X334910Y68579D01*
G37*
%LPD*%
%LPC*%
G36*
X323734Y66547D02*
X323734Y66547D01*
X321055Y69226D01*
X321055Y73014D01*
X323734Y75693D01*
X327522Y75693D01*
X330201Y73014D01*
X330201Y69226D01*
X327522Y66547D01*
X323734Y66547D01*
G37*
%LPD*%
%LPC*%
G36*
X498994Y58927D02*
X498994Y58927D01*
X496315Y61606D01*
X496315Y65394D01*
X498994Y68073D01*
X502782Y68073D01*
X505461Y65394D01*
X505461Y61606D01*
X502782Y58927D01*
X498994Y58927D01*
G37*
%LPD*%
%LPC*%
G36*
X684414Y57911D02*
X684414Y57911D01*
X681735Y60590D01*
X681735Y64378D01*
X684414Y67057D01*
X688202Y67057D01*
X690881Y64378D01*
X690881Y60590D01*
X688202Y57911D01*
X684414Y57911D01*
G37*
%LPD*%
%LPC*%
G36*
X133234Y57911D02*
X133234Y57911D01*
X130555Y60590D01*
X130555Y64378D01*
X133234Y67057D01*
X137022Y67057D01*
X139701Y64378D01*
X139701Y60590D01*
X137022Y57911D01*
X133234Y57911D01*
G37*
%LPD*%
%LPC*%
G36*
X106818Y57403D02*
X106818Y57403D01*
X104139Y60082D01*
X104139Y63870D01*
X106818Y66549D01*
X110606Y66549D01*
X113285Y63870D01*
X113285Y60082D01*
X110606Y57403D01*
X106818Y57403D01*
G37*
%LPD*%
%LPC*%
G36*
X94626Y55371D02*
X94626Y55371D01*
X91947Y58050D01*
X91947Y61838D01*
X94626Y64517D01*
X98414Y64517D01*
X101093Y61838D01*
X101093Y58050D01*
X98414Y55371D01*
X94626Y55371D01*
G37*
%LPD*%
%LPC*%
G36*
X637170Y50291D02*
X637170Y50291D01*
X634491Y52970D01*
X634491Y56758D01*
X637170Y59437D01*
X640958Y59437D01*
X643637Y56758D01*
X643637Y52970D01*
X640958Y50291D01*
X637170Y50291D01*
G37*
%LPD*%
%LPC*%
G36*
X443622Y47243D02*
X443622Y47243D01*
X440943Y49922D01*
X440943Y53710D01*
X443622Y56389D01*
X447410Y56389D01*
X450089Y53710D01*
X450089Y49922D01*
X447410Y47243D01*
X443622Y47243D01*
G37*
%LPD*%
%LPC*%
G36*
X815339Y159003D02*
X815339Y159003D01*
X815339Y168335D01*
X816010Y168229D01*
X817738Y167667D01*
X819357Y166842D01*
X820826Y165775D01*
X822111Y164490D01*
X823178Y163021D01*
X824003Y161402D01*
X824565Y159674D01*
X824671Y159003D01*
X815339Y159003D01*
G37*
%LPD*%
%LPC*%
G36*
X156971Y151891D02*
X156971Y151891D01*
X156971Y161223D01*
X157642Y161117D01*
X159370Y160555D01*
X160989Y159730D01*
X162458Y158663D01*
X163743Y157378D01*
X164810Y155909D01*
X165635Y154290D01*
X166197Y152562D01*
X166303Y151891D01*
X156971Y151891D01*
G37*
%LPD*%
%LPC*%
G36*
X801945Y159003D02*
X801945Y159003D01*
X802051Y159674D01*
X802613Y161402D01*
X803438Y163021D01*
X804505Y164490D01*
X805790Y165775D01*
X807259Y166842D01*
X808878Y167667D01*
X810606Y168229D01*
X811277Y168335D01*
X811277Y159003D01*
X801945Y159003D01*
G37*
%LPD*%
%LPC*%
G36*
X815339Y154941D02*
X815339Y154941D01*
X824671Y154941D01*
X824565Y154270D01*
X824003Y152542D01*
X823178Y150923D01*
X822111Y149454D01*
X820826Y148169D01*
X819357Y147102D01*
X817738Y146277D01*
X816010Y145715D01*
X815339Y145609D01*
X815339Y154941D01*
G37*
%LPD*%
%LPC*%
G36*
X156971Y147829D02*
X156971Y147829D01*
X166303Y147829D01*
X166197Y147158D01*
X165635Y145430D01*
X164810Y143811D01*
X163743Y142342D01*
X162458Y141057D01*
X160989Y139990D01*
X159370Y139165D01*
X157642Y138603D01*
X156971Y138497D01*
X156971Y147829D01*
G37*
%LPD*%
%LPC*%
G36*
X143577Y151891D02*
X143577Y151891D01*
X143683Y152562D01*
X144245Y154290D01*
X145070Y155909D01*
X146137Y157378D01*
X147422Y158663D01*
X148891Y159730D01*
X150510Y160555D01*
X152238Y161117D01*
X152909Y161223D01*
X152909Y151891D01*
X143577Y151891D01*
G37*
%LPD*%
%LPC*%
G36*
X810606Y145715D02*
X810606Y145715D01*
X808878Y146277D01*
X807259Y147102D01*
X805790Y148169D01*
X804505Y149454D01*
X803438Y150923D01*
X802613Y152542D01*
X802051Y154270D01*
X801945Y154941D01*
X811277Y154941D01*
X811277Y145609D01*
X810606Y145715D01*
G37*
%LPD*%
%LPC*%
G36*
X152238Y138603D02*
X152238Y138603D01*
X150510Y139165D01*
X148891Y139990D01*
X147422Y141057D01*
X146137Y142342D01*
X145070Y143811D01*
X144245Y145430D01*
X143683Y147158D01*
X143577Y147829D01*
X152909Y147829D01*
X152909Y138497D01*
X152238Y138603D01*
G37*
%LPD*%
%LPC*%
G36*
X256031Y129031D02*
X256031Y129031D01*
X256031Y136966D01*
X256379Y136911D01*
X257900Y136416D01*
X259325Y135690D01*
X260619Y134750D01*
X261750Y133619D01*
X262690Y132325D01*
X263416Y130900D01*
X263911Y129379D01*
X263966Y129031D01*
X256031Y129031D01*
G37*
%LPD*%
%LPC*%
G36*
X205231Y14731D02*
X205231Y14731D01*
X205231Y22666D01*
X205579Y22611D01*
X207100Y22116D01*
X208525Y21390D01*
X209819Y20450D01*
X210950Y19319D01*
X211890Y18025D01*
X212616Y16600D01*
X213111Y15079D01*
X213166Y14731D01*
X205231Y14731D01*
G37*
%LPD*%
%LPC*%
G36*
X738631Y14731D02*
X738631Y14731D01*
X738631Y22666D01*
X738979Y22611D01*
X740500Y22116D01*
X741925Y21390D01*
X743219Y20450D01*
X744350Y19319D01*
X745290Y18025D01*
X746016Y16600D01*
X746511Y15079D01*
X746566Y14731D01*
X738631Y14731D01*
G37*
%LPD*%
%LPC*%
G36*
X738631Y163069D02*
X738631Y163069D01*
X746566Y163069D01*
X746511Y162721D01*
X746016Y161200D01*
X745290Y159775D01*
X744350Y158481D01*
X743219Y157350D01*
X741925Y156410D01*
X740500Y155684D01*
X738979Y155189D01*
X738631Y155134D01*
X738631Y163069D01*
G37*
%LPD*%
%LPC*%
G36*
X256031Y124969D02*
X256031Y124969D01*
X263966Y124969D01*
X263911Y124621D01*
X263416Y123100D01*
X262690Y121675D01*
X261750Y120381D01*
X260619Y119250D01*
X259325Y118310D01*
X257900Y117584D01*
X256379Y117089D01*
X256031Y117034D01*
X256031Y124969D01*
G37*
%LPD*%
%LPC*%
G36*
X244034Y129031D02*
X244034Y129031D01*
X244089Y129379D01*
X244584Y130900D01*
X245310Y132325D01*
X246250Y133619D01*
X247381Y134750D01*
X248675Y135690D01*
X250100Y136416D01*
X251621Y136911D01*
X251969Y136966D01*
X251969Y129031D01*
X244034Y129031D01*
G37*
%LPD*%
%LPC*%
G36*
X193234Y14731D02*
X193234Y14731D01*
X193289Y15079D01*
X193784Y16600D01*
X194510Y18025D01*
X195450Y19319D01*
X196581Y20450D01*
X197875Y21390D01*
X199300Y22116D01*
X200821Y22611D01*
X201169Y22666D01*
X201169Y14731D01*
X193234Y14731D01*
G37*
%LPD*%
%LPC*%
G36*
X726634Y14731D02*
X726634Y14731D01*
X726689Y15079D01*
X727184Y16600D01*
X727910Y18025D01*
X728850Y19319D01*
X729981Y20450D01*
X731275Y21390D01*
X732700Y22116D01*
X734221Y22611D01*
X734569Y22666D01*
X734569Y14731D01*
X726634Y14731D01*
G37*
%LPD*%
%LPC*%
G36*
X734221Y155189D02*
X734221Y155189D01*
X732700Y155684D01*
X731275Y156410D01*
X729981Y157350D01*
X728850Y158481D01*
X727910Y159775D01*
X727184Y161200D01*
X726689Y162721D01*
X726634Y163069D01*
X734569Y163069D01*
X734569Y155134D01*
X734221Y155189D01*
G37*
%LPD*%
%LPC*%
G36*
X251621Y117089D02*
X251621Y117089D01*
X250100Y117584D01*
X248675Y118310D01*
X247381Y119250D01*
X246250Y120381D01*
X245310Y121675D01*
X244584Y123100D01*
X244089Y124621D01*
X244034Y124969D01*
X251969Y124969D01*
X251969Y117034D01*
X251621Y117089D01*
G37*
%LPD*%
%LPC*%
G36*
X253999Y126999D02*
X253999Y126999D01*
X253999Y127001D01*
X254001Y127001D01*
X254001Y126999D01*
X253999Y126999D01*
G37*
%LPD*%
%LPC*%
G36*
X154939Y149859D02*
X154939Y149859D01*
X154939Y149861D01*
X154941Y149861D01*
X154941Y149859D01*
X154939Y149859D01*
G37*
%LPD*%
%LPC*%
G36*
X813307Y156971D02*
X813307Y156971D01*
X813307Y156973D01*
X813309Y156973D01*
X813309Y156971D01*
X813307Y156971D01*
G37*
%LPD*%
D10*
X762000Y165100D03*
X736600Y165100D03*
X711200Y165100D03*
X685800Y165100D03*
X660400Y165100D03*
X635000Y165100D03*
X609600Y165100D03*
X584200Y165100D03*
X558800Y165100D03*
X533400Y165100D03*
X508000Y165100D03*
X482600Y165100D03*
X457200Y165100D03*
X431800Y165100D03*
X406400Y165100D03*
X381000Y165100D03*
X355600Y165100D03*
X330200Y165100D03*
X304800Y165100D03*
X279400Y165100D03*
X279400Y12700D03*
X304800Y12700D03*
X330200Y12700D03*
X355600Y12700D03*
X381000Y12700D03*
X406400Y12700D03*
X431800Y12700D03*
X457200Y12700D03*
X482600Y12700D03*
X508000Y12700D03*
X533400Y12700D03*
X558800Y12700D03*
X584200Y12700D03*
X609600Y12700D03*
X635000Y12700D03*
X660400Y12700D03*
X685800Y12700D03*
X711200Y12700D03*
X736600Y12700D03*
X762000Y12700D03*
X152400Y12700D03*
X177800Y12700D03*
X203200Y12700D03*
X228600Y12700D03*
X254000Y12700D03*
D11*
X154940Y149860D03*
X154940Y114860D03*
X154940Y79860D03*
X154940Y44860D03*
D10*
X254000Y127000D03*
X254000Y101600D03*
X254000Y76200D03*
X254000Y50800D03*
D11*
X813308Y156972D03*
X813308Y121972D03*
D12*
X527812Y69596D03*
X530860Y106172D03*
X489712Y67056D03*
X483108Y104140D03*
X593344Y78740D03*
X599948Y54864D03*
X705104Y59944D03*
X798576Y80772D03*
X685800Y79248D03*
X653796Y82804D03*
X607060Y128524D03*
X594868Y100076D03*
X55880Y82804D03*
X47752Y146812D03*
X47752Y169164D03*
X23876Y33528D03*
X9144Y80264D03*
X368300Y141732D03*
X416560Y50800D03*
X336296Y88900D03*
X521716Y92456D03*
X216408Y41656D03*
X376936Y85852D03*
X416560Y85852D03*
X263144Y156972D03*
X460756Y128524D03*
X608076Y98044D03*
X538988Y132080D03*
X565404Y88900D03*
X686308Y62484D03*
X445516Y51816D03*
X20320Y147320D03*
X135128Y62484D03*
X364830Y132080D03*
D13*
X216916Y146304D03*
D12*
X455676Y109220D03*
X446024Y115824D03*
X573532Y60960D03*
X802640Y55372D03*
X651256Y59436D03*
X570484Y70612D03*
X793496Y51308D03*
X651256Y68072D03*
X500888Y63500D03*
X801116Y65024D03*
X639064Y54864D03*
X673100Y132080D03*
X665988Y97536D03*
X651256Y137160D03*
X651256Y97536D03*
D14*
X782828Y109728D03*
D15*
X800100Y38608D03*
D12*
X325628Y71120D03*
X485648Y39116D03*
X523240Y113284D03*
X675640Y50800D03*
X438404Y89916D03*
X545592Y87884D03*
X538480Y98044D03*
X491744Y110744D03*
X500888Y115824D03*
X475488Y94996D03*
X466852Y89408D03*
X446532Y98552D03*
X311912Y120904D03*
X583184Y132588D03*
X572516Y136652D03*
X443484Y72136D03*
X560324Y136652D03*
X506476Y76200D03*
X374904Y50292D03*
X452628Y72136D03*
X376428Y58928D03*
X489712Y79756D03*
X188468Y38100D03*
X86868Y107188D03*
X336804Y73152D03*
X96520Y59944D03*
X108712Y61976D03*
X482600Y88392D03*
X177800Y38100D03*
X8128Y144780D03*
X15515Y12975D03*
D16*
X86868Y94996D03*
M02*
