G04 EAGLE Gerber X2 export*
%TF.Part,Single*%
%TF.FileFunction,Profile,NP*%
%TF.FilePolarity,Positive*%
%TF.GenerationSoftware,Autodesk,EAGLE,8.7.0*%
%TF.CreationDate,2018-03-15T02:38:42Z*%
G75*
%MOMM*%
%FSLAX34Y34*%
%LPD*%
%AMOC8*
5,1,8,0,0,1.08239X$1,22.5*%
G01*
%ADD10C,0.000000*%
%ADD11C,0.254000*%


D10*
X-508Y179832D02*
X863600Y179832D01*
X863600Y-2540D01*
X-508Y-2032D01*
X-508Y179832D01*
X200025Y88900D02*
X200030Y89290D01*
X200044Y89679D01*
X200068Y90068D01*
X200101Y90456D01*
X200144Y90843D01*
X200197Y91229D01*
X200259Y91614D01*
X200330Y91997D01*
X200411Y92378D01*
X200501Y92757D01*
X200600Y93134D01*
X200709Y93508D01*
X200826Y93880D01*
X200953Y94248D01*
X201089Y94613D01*
X201233Y94975D01*
X201387Y95333D01*
X201549Y95687D01*
X201720Y96038D01*
X201899Y96383D01*
X202087Y96725D01*
X202284Y97061D01*
X202488Y97393D01*
X202700Y97720D01*
X202921Y98041D01*
X203149Y98357D01*
X203385Y98667D01*
X203628Y98971D01*
X203879Y99269D01*
X204137Y99561D01*
X204403Y99846D01*
X204675Y100125D01*
X204954Y100397D01*
X205239Y100663D01*
X205531Y100921D01*
X205829Y101172D01*
X206133Y101415D01*
X206443Y101651D01*
X206759Y101879D01*
X207080Y102100D01*
X207407Y102312D01*
X207739Y102516D01*
X208075Y102713D01*
X208417Y102901D01*
X208762Y103080D01*
X209113Y103251D01*
X209467Y103413D01*
X209825Y103567D01*
X210187Y103711D01*
X210552Y103847D01*
X210920Y103974D01*
X211292Y104091D01*
X211666Y104200D01*
X212043Y104299D01*
X212422Y104389D01*
X212803Y104470D01*
X213186Y104541D01*
X213571Y104603D01*
X213957Y104656D01*
X214344Y104699D01*
X214732Y104732D01*
X215121Y104756D01*
X215510Y104770D01*
X215900Y104775D01*
X216290Y104770D01*
X216679Y104756D01*
X217068Y104732D01*
X217456Y104699D01*
X217843Y104656D01*
X218229Y104603D01*
X218614Y104541D01*
X218997Y104470D01*
X219378Y104389D01*
X219757Y104299D01*
X220134Y104200D01*
X220508Y104091D01*
X220880Y103974D01*
X221248Y103847D01*
X221613Y103711D01*
X221975Y103567D01*
X222333Y103413D01*
X222687Y103251D01*
X223038Y103080D01*
X223383Y102901D01*
X223725Y102713D01*
X224061Y102516D01*
X224393Y102312D01*
X224720Y102100D01*
X225041Y101879D01*
X225357Y101651D01*
X225667Y101415D01*
X225971Y101172D01*
X226269Y100921D01*
X226561Y100663D01*
X226846Y100397D01*
X227125Y100125D01*
X227397Y99846D01*
X227663Y99561D01*
X227921Y99269D01*
X228172Y98971D01*
X228415Y98667D01*
X228651Y98357D01*
X228879Y98041D01*
X229100Y97720D01*
X229312Y97393D01*
X229516Y97061D01*
X229713Y96725D01*
X229901Y96383D01*
X230080Y96038D01*
X230251Y95687D01*
X230413Y95333D01*
X230567Y94975D01*
X230711Y94613D01*
X230847Y94248D01*
X230974Y93880D01*
X231091Y93508D01*
X231200Y93134D01*
X231299Y92757D01*
X231389Y92378D01*
X231470Y91997D01*
X231541Y91614D01*
X231603Y91229D01*
X231656Y90843D01*
X231699Y90456D01*
X231732Y90068D01*
X231756Y89679D01*
X231770Y89290D01*
X231775Y88900D01*
X231770Y88510D01*
X231756Y88121D01*
X231732Y87732D01*
X231699Y87344D01*
X231656Y86957D01*
X231603Y86571D01*
X231541Y86186D01*
X231470Y85803D01*
X231389Y85422D01*
X231299Y85043D01*
X231200Y84666D01*
X231091Y84292D01*
X230974Y83920D01*
X230847Y83552D01*
X230711Y83187D01*
X230567Y82825D01*
X230413Y82467D01*
X230251Y82113D01*
X230080Y81762D01*
X229901Y81417D01*
X229713Y81075D01*
X229516Y80739D01*
X229312Y80407D01*
X229100Y80080D01*
X228879Y79759D01*
X228651Y79443D01*
X228415Y79133D01*
X228172Y78829D01*
X227921Y78531D01*
X227663Y78239D01*
X227397Y77954D01*
X227125Y77675D01*
X226846Y77403D01*
X226561Y77137D01*
X226269Y76879D01*
X225971Y76628D01*
X225667Y76385D01*
X225357Y76149D01*
X225041Y75921D01*
X224720Y75700D01*
X224393Y75488D01*
X224061Y75284D01*
X223725Y75087D01*
X223383Y74899D01*
X223038Y74720D01*
X222687Y74549D01*
X222333Y74387D01*
X221975Y74233D01*
X221613Y74089D01*
X221248Y73953D01*
X220880Y73826D01*
X220508Y73709D01*
X220134Y73600D01*
X219757Y73501D01*
X219378Y73411D01*
X218997Y73330D01*
X218614Y73259D01*
X218229Y73197D01*
X217843Y73144D01*
X217456Y73101D01*
X217068Y73068D01*
X216679Y73044D01*
X216290Y73030D01*
X215900Y73025D01*
X215510Y73030D01*
X215121Y73044D01*
X214732Y73068D01*
X214344Y73101D01*
X213957Y73144D01*
X213571Y73197D01*
X213186Y73259D01*
X212803Y73330D01*
X212422Y73411D01*
X212043Y73501D01*
X211666Y73600D01*
X211292Y73709D01*
X210920Y73826D01*
X210552Y73953D01*
X210187Y74089D01*
X209825Y74233D01*
X209467Y74387D01*
X209113Y74549D01*
X208762Y74720D01*
X208417Y74899D01*
X208075Y75087D01*
X207739Y75284D01*
X207407Y75488D01*
X207080Y75700D01*
X206759Y75921D01*
X206443Y76149D01*
X206133Y76385D01*
X205829Y76628D01*
X205531Y76879D01*
X205239Y77137D01*
X204954Y77403D01*
X204675Y77675D01*
X204403Y77954D01*
X204137Y78239D01*
X203879Y78531D01*
X203628Y78829D01*
X203385Y79133D01*
X203149Y79443D01*
X202921Y79759D01*
X202700Y80080D01*
X202488Y80407D01*
X202284Y80739D01*
X202087Y81075D01*
X201899Y81417D01*
X201720Y81762D01*
X201549Y82113D01*
X201387Y82467D01*
X201233Y82825D01*
X201089Y83187D01*
X200953Y83552D01*
X200826Y83920D01*
X200709Y84292D01*
X200600Y84666D01*
X200501Y85043D01*
X200411Y85422D01*
X200330Y85803D01*
X200259Y86186D01*
X200197Y86571D01*
X200144Y86957D01*
X200101Y87344D01*
X200068Y87732D01*
X200044Y88121D01*
X200030Y88510D01*
X200025Y88900D01*
X694563Y88900D02*
X694568Y89290D01*
X694582Y89679D01*
X694606Y90068D01*
X694639Y90456D01*
X694682Y90843D01*
X694735Y91229D01*
X694797Y91614D01*
X694868Y91997D01*
X694949Y92378D01*
X695039Y92757D01*
X695138Y93134D01*
X695247Y93508D01*
X695364Y93880D01*
X695491Y94248D01*
X695627Y94613D01*
X695771Y94975D01*
X695925Y95333D01*
X696087Y95687D01*
X696258Y96038D01*
X696437Y96383D01*
X696625Y96725D01*
X696822Y97061D01*
X697026Y97393D01*
X697238Y97720D01*
X697459Y98041D01*
X697687Y98357D01*
X697923Y98667D01*
X698166Y98971D01*
X698417Y99269D01*
X698675Y99561D01*
X698941Y99846D01*
X699213Y100125D01*
X699492Y100397D01*
X699777Y100663D01*
X700069Y100921D01*
X700367Y101172D01*
X700671Y101415D01*
X700981Y101651D01*
X701297Y101879D01*
X701618Y102100D01*
X701945Y102312D01*
X702277Y102516D01*
X702613Y102713D01*
X702955Y102901D01*
X703300Y103080D01*
X703651Y103251D01*
X704005Y103413D01*
X704363Y103567D01*
X704725Y103711D01*
X705090Y103847D01*
X705458Y103974D01*
X705830Y104091D01*
X706204Y104200D01*
X706581Y104299D01*
X706960Y104389D01*
X707341Y104470D01*
X707724Y104541D01*
X708109Y104603D01*
X708495Y104656D01*
X708882Y104699D01*
X709270Y104732D01*
X709659Y104756D01*
X710048Y104770D01*
X710438Y104775D01*
X710828Y104770D01*
X711217Y104756D01*
X711606Y104732D01*
X711994Y104699D01*
X712381Y104656D01*
X712767Y104603D01*
X713152Y104541D01*
X713535Y104470D01*
X713916Y104389D01*
X714295Y104299D01*
X714672Y104200D01*
X715046Y104091D01*
X715418Y103974D01*
X715786Y103847D01*
X716151Y103711D01*
X716513Y103567D01*
X716871Y103413D01*
X717225Y103251D01*
X717576Y103080D01*
X717921Y102901D01*
X718263Y102713D01*
X718599Y102516D01*
X718931Y102312D01*
X719258Y102100D01*
X719579Y101879D01*
X719895Y101651D01*
X720205Y101415D01*
X720509Y101172D01*
X720807Y100921D01*
X721099Y100663D01*
X721384Y100397D01*
X721663Y100125D01*
X721935Y99846D01*
X722201Y99561D01*
X722459Y99269D01*
X722710Y98971D01*
X722953Y98667D01*
X723189Y98357D01*
X723417Y98041D01*
X723638Y97720D01*
X723850Y97393D01*
X724054Y97061D01*
X724251Y96725D01*
X724439Y96383D01*
X724618Y96038D01*
X724789Y95687D01*
X724951Y95333D01*
X725105Y94975D01*
X725249Y94613D01*
X725385Y94248D01*
X725512Y93880D01*
X725629Y93508D01*
X725738Y93134D01*
X725837Y92757D01*
X725927Y92378D01*
X726008Y91997D01*
X726079Y91614D01*
X726141Y91229D01*
X726194Y90843D01*
X726237Y90456D01*
X726270Y90068D01*
X726294Y89679D01*
X726308Y89290D01*
X726313Y88900D01*
X726308Y88510D01*
X726294Y88121D01*
X726270Y87732D01*
X726237Y87344D01*
X726194Y86957D01*
X726141Y86571D01*
X726079Y86186D01*
X726008Y85803D01*
X725927Y85422D01*
X725837Y85043D01*
X725738Y84666D01*
X725629Y84292D01*
X725512Y83920D01*
X725385Y83552D01*
X725249Y83187D01*
X725105Y82825D01*
X724951Y82467D01*
X724789Y82113D01*
X724618Y81762D01*
X724439Y81417D01*
X724251Y81075D01*
X724054Y80739D01*
X723850Y80407D01*
X723638Y80080D01*
X723417Y79759D01*
X723189Y79443D01*
X722953Y79133D01*
X722710Y78829D01*
X722459Y78531D01*
X722201Y78239D01*
X721935Y77954D01*
X721663Y77675D01*
X721384Y77403D01*
X721099Y77137D01*
X720807Y76879D01*
X720509Y76628D01*
X720205Y76385D01*
X719895Y76149D01*
X719579Y75921D01*
X719258Y75700D01*
X718931Y75488D01*
X718599Y75284D01*
X718263Y75087D01*
X717921Y74899D01*
X717576Y74720D01*
X717225Y74549D01*
X716871Y74387D01*
X716513Y74233D01*
X716151Y74089D01*
X715786Y73953D01*
X715418Y73826D01*
X715046Y73709D01*
X714672Y73600D01*
X714295Y73501D01*
X713916Y73411D01*
X713535Y73330D01*
X713152Y73259D01*
X712767Y73197D01*
X712381Y73144D01*
X711994Y73101D01*
X711606Y73068D01*
X711217Y73044D01*
X710828Y73030D01*
X710438Y73025D01*
X710048Y73030D01*
X709659Y73044D01*
X709270Y73068D01*
X708882Y73101D01*
X708495Y73144D01*
X708109Y73197D01*
X707724Y73259D01*
X707341Y73330D01*
X706960Y73411D01*
X706581Y73501D01*
X706204Y73600D01*
X705830Y73709D01*
X705458Y73826D01*
X705090Y73953D01*
X704725Y74089D01*
X704363Y74233D01*
X704005Y74387D01*
X703651Y74549D01*
X703300Y74720D01*
X702955Y74899D01*
X702613Y75087D01*
X702277Y75284D01*
X701945Y75488D01*
X701618Y75700D01*
X701297Y75921D01*
X700981Y76149D01*
X700671Y76385D01*
X700367Y76628D01*
X700069Y76879D01*
X699777Y77137D01*
X699492Y77403D01*
X699213Y77675D01*
X698941Y77954D01*
X698675Y78239D01*
X698417Y78531D01*
X698166Y78829D01*
X697923Y79133D01*
X697687Y79443D01*
X697459Y79759D01*
X697238Y80080D01*
X697026Y80407D01*
X696822Y80739D01*
X696625Y81075D01*
X696437Y81417D01*
X696258Y81762D01*
X696087Y82113D01*
X695925Y82467D01*
X695771Y82825D01*
X695627Y83187D01*
X695491Y83552D01*
X695364Y83920D01*
X695247Y84292D01*
X695138Y84666D01*
X695039Y85043D01*
X694949Y85422D01*
X694868Y85803D01*
X694797Y86186D01*
X694735Y86571D01*
X694682Y86957D01*
X694639Y87344D01*
X694606Y87732D01*
X694582Y88121D01*
X694568Y88510D01*
X694563Y88900D01*
X819852Y33606D02*
X819854Y33724D01*
X819860Y33842D01*
X819870Y33960D01*
X819884Y34077D01*
X819902Y34194D01*
X819924Y34311D01*
X819949Y34426D01*
X819979Y34540D01*
X820013Y34654D01*
X820050Y34766D01*
X820091Y34877D01*
X820136Y34986D01*
X820184Y35094D01*
X820236Y35200D01*
X820292Y35305D01*
X820351Y35407D01*
X820413Y35507D01*
X820479Y35605D01*
X820548Y35701D01*
X820621Y35795D01*
X820696Y35886D01*
X820775Y35974D01*
X820856Y36060D01*
X820941Y36143D01*
X821028Y36223D01*
X821117Y36300D01*
X821210Y36374D01*
X821304Y36444D01*
X821401Y36512D01*
X821501Y36576D01*
X821602Y36637D01*
X821705Y36694D01*
X821811Y36748D01*
X821918Y36799D01*
X822026Y36845D01*
X822136Y36888D01*
X822248Y36927D01*
X822361Y36963D01*
X822475Y36994D01*
X822590Y37022D01*
X822705Y37046D01*
X822822Y37066D01*
X822939Y37082D01*
X823057Y37094D01*
X823175Y37102D01*
X823293Y37106D01*
X823411Y37106D01*
X823529Y37102D01*
X823647Y37094D01*
X823765Y37082D01*
X823882Y37066D01*
X823999Y37046D01*
X824114Y37022D01*
X824229Y36994D01*
X824343Y36963D01*
X824456Y36927D01*
X824568Y36888D01*
X824678Y36845D01*
X824786Y36799D01*
X824893Y36748D01*
X824999Y36694D01*
X825102Y36637D01*
X825203Y36576D01*
X825303Y36512D01*
X825400Y36444D01*
X825494Y36374D01*
X825587Y36300D01*
X825676Y36223D01*
X825763Y36143D01*
X825848Y36060D01*
X825929Y35974D01*
X826008Y35886D01*
X826083Y35795D01*
X826156Y35701D01*
X826225Y35605D01*
X826291Y35507D01*
X826353Y35407D01*
X826412Y35305D01*
X826468Y35200D01*
X826520Y35094D01*
X826568Y34986D01*
X826613Y34877D01*
X826654Y34766D01*
X826691Y34654D01*
X826725Y34540D01*
X826755Y34426D01*
X826780Y34311D01*
X826802Y34194D01*
X826820Y34077D01*
X826834Y33960D01*
X826844Y33842D01*
X826850Y33724D01*
X826852Y33606D01*
X826850Y33488D01*
X826844Y33370D01*
X826834Y33252D01*
X826820Y33135D01*
X826802Y33018D01*
X826780Y32901D01*
X826755Y32786D01*
X826725Y32672D01*
X826691Y32558D01*
X826654Y32446D01*
X826613Y32335D01*
X826568Y32226D01*
X826520Y32118D01*
X826468Y32012D01*
X826412Y31907D01*
X826353Y31805D01*
X826291Y31705D01*
X826225Y31607D01*
X826156Y31511D01*
X826083Y31417D01*
X826008Y31326D01*
X825929Y31238D01*
X825848Y31152D01*
X825763Y31069D01*
X825676Y30989D01*
X825587Y30912D01*
X825494Y30838D01*
X825400Y30768D01*
X825303Y30700D01*
X825203Y30636D01*
X825102Y30575D01*
X824999Y30518D01*
X824893Y30464D01*
X824786Y30413D01*
X824678Y30367D01*
X824568Y30324D01*
X824456Y30285D01*
X824343Y30249D01*
X824229Y30218D01*
X824114Y30190D01*
X823999Y30166D01*
X823882Y30146D01*
X823765Y30130D01*
X823647Y30118D01*
X823529Y30110D01*
X823411Y30106D01*
X823293Y30106D01*
X823175Y30110D01*
X823057Y30118D01*
X822939Y30130D01*
X822822Y30146D01*
X822705Y30166D01*
X822590Y30190D01*
X822475Y30218D01*
X822361Y30249D01*
X822248Y30285D01*
X822136Y30324D01*
X822026Y30367D01*
X821918Y30413D01*
X821811Y30464D01*
X821705Y30518D01*
X821602Y30575D01*
X821501Y30636D01*
X821401Y30700D01*
X821304Y30768D01*
X821210Y30838D01*
X821117Y30912D01*
X821028Y30989D01*
X820941Y31069D01*
X820856Y31152D01*
X820775Y31238D01*
X820696Y31326D01*
X820621Y31417D01*
X820548Y31511D01*
X820479Y31607D01*
X820413Y31705D01*
X820351Y31805D01*
X820292Y31907D01*
X820236Y32012D01*
X820184Y32118D01*
X820136Y32226D01*
X820091Y32335D01*
X820050Y32446D01*
X820013Y32558D01*
X819979Y32672D01*
X819949Y32786D01*
X819924Y32901D01*
X819902Y33018D01*
X819884Y33135D01*
X819870Y33252D01*
X819860Y33370D01*
X819854Y33488D01*
X819852Y33606D01*
X819852Y75106D02*
X819854Y75224D01*
X819860Y75342D01*
X819870Y75460D01*
X819884Y75577D01*
X819902Y75694D01*
X819924Y75811D01*
X819949Y75926D01*
X819979Y76040D01*
X820013Y76154D01*
X820050Y76266D01*
X820091Y76377D01*
X820136Y76486D01*
X820184Y76594D01*
X820236Y76700D01*
X820292Y76805D01*
X820351Y76907D01*
X820413Y77007D01*
X820479Y77105D01*
X820548Y77201D01*
X820621Y77295D01*
X820696Y77386D01*
X820775Y77474D01*
X820856Y77560D01*
X820941Y77643D01*
X821028Y77723D01*
X821117Y77800D01*
X821210Y77874D01*
X821304Y77944D01*
X821401Y78012D01*
X821501Y78076D01*
X821602Y78137D01*
X821705Y78194D01*
X821811Y78248D01*
X821918Y78299D01*
X822026Y78345D01*
X822136Y78388D01*
X822248Y78427D01*
X822361Y78463D01*
X822475Y78494D01*
X822590Y78522D01*
X822705Y78546D01*
X822822Y78566D01*
X822939Y78582D01*
X823057Y78594D01*
X823175Y78602D01*
X823293Y78606D01*
X823411Y78606D01*
X823529Y78602D01*
X823647Y78594D01*
X823765Y78582D01*
X823882Y78566D01*
X823999Y78546D01*
X824114Y78522D01*
X824229Y78494D01*
X824343Y78463D01*
X824456Y78427D01*
X824568Y78388D01*
X824678Y78345D01*
X824786Y78299D01*
X824893Y78248D01*
X824999Y78194D01*
X825102Y78137D01*
X825203Y78076D01*
X825303Y78012D01*
X825400Y77944D01*
X825494Y77874D01*
X825587Y77800D01*
X825676Y77723D01*
X825763Y77643D01*
X825848Y77560D01*
X825929Y77474D01*
X826008Y77386D01*
X826083Y77295D01*
X826156Y77201D01*
X826225Y77105D01*
X826291Y77007D01*
X826353Y76907D01*
X826412Y76805D01*
X826468Y76700D01*
X826520Y76594D01*
X826568Y76486D01*
X826613Y76377D01*
X826654Y76266D01*
X826691Y76154D01*
X826725Y76040D01*
X826755Y75926D01*
X826780Y75811D01*
X826802Y75694D01*
X826820Y75577D01*
X826834Y75460D01*
X826844Y75342D01*
X826850Y75224D01*
X826852Y75106D01*
X826850Y74988D01*
X826844Y74870D01*
X826834Y74752D01*
X826820Y74635D01*
X826802Y74518D01*
X826780Y74401D01*
X826755Y74286D01*
X826725Y74172D01*
X826691Y74058D01*
X826654Y73946D01*
X826613Y73835D01*
X826568Y73726D01*
X826520Y73618D01*
X826468Y73512D01*
X826412Y73407D01*
X826353Y73305D01*
X826291Y73205D01*
X826225Y73107D01*
X826156Y73011D01*
X826083Y72917D01*
X826008Y72826D01*
X825929Y72738D01*
X825848Y72652D01*
X825763Y72569D01*
X825676Y72489D01*
X825587Y72412D01*
X825494Y72338D01*
X825400Y72268D01*
X825303Y72200D01*
X825203Y72136D01*
X825102Y72075D01*
X824999Y72018D01*
X824893Y71964D01*
X824786Y71913D01*
X824678Y71867D01*
X824568Y71824D01*
X824456Y71785D01*
X824343Y71749D01*
X824229Y71718D01*
X824114Y71690D01*
X823999Y71666D01*
X823882Y71646D01*
X823765Y71630D01*
X823647Y71618D01*
X823529Y71610D01*
X823411Y71606D01*
X823293Y71606D01*
X823175Y71610D01*
X823057Y71618D01*
X822939Y71630D01*
X822822Y71646D01*
X822705Y71666D01*
X822590Y71690D01*
X822475Y71718D01*
X822361Y71749D01*
X822248Y71785D01*
X822136Y71824D01*
X822026Y71867D01*
X821918Y71913D01*
X821811Y71964D01*
X821705Y72018D01*
X821602Y72075D01*
X821501Y72136D01*
X821401Y72200D01*
X821304Y72268D01*
X821210Y72338D01*
X821117Y72412D01*
X821028Y72489D01*
X820941Y72569D01*
X820856Y72652D01*
X820775Y72738D01*
X820696Y72826D01*
X820621Y72917D01*
X820548Y73011D01*
X820479Y73107D01*
X820413Y73205D01*
X820351Y73305D01*
X820292Y73407D01*
X820236Y73512D01*
X820184Y73618D01*
X820136Y73726D01*
X820091Y73835D01*
X820050Y73946D01*
X820013Y74058D01*
X819979Y74172D01*
X819949Y74286D01*
X819924Y74401D01*
X819902Y74518D01*
X819884Y74635D01*
X819870Y74752D01*
X819860Y74870D01*
X819854Y74988D01*
X819852Y75106D01*
D11*
X-508Y-2032D02*
X863600Y-2540D01*
X863600Y179832D01*
X-508Y179832D01*
X-508Y-2032D01*
M02*
