G75*
%MOIN*%
%OFA0B0*%
%FSLAX25Y25*%
%IPPOS*%
%LPD*%
%AMOC8*
5,1,8,0,0,1.08239X$1,22.5*
%
%ADD10C,0.00000*%
D10*
X0016926Y0012600D02*
X0016926Y0082600D01*
X0356926Y0082600D01*
X0356926Y0012600D01*
X0016926Y0012600D01*
X0095676Y0047600D02*
X0095678Y0047758D01*
X0095684Y0047915D01*
X0095694Y0048073D01*
X0095708Y0048230D01*
X0095726Y0048386D01*
X0095747Y0048543D01*
X0095773Y0048698D01*
X0095803Y0048853D01*
X0095836Y0049007D01*
X0095874Y0049160D01*
X0095915Y0049313D01*
X0095960Y0049464D01*
X0096009Y0049614D01*
X0096062Y0049762D01*
X0096118Y0049910D01*
X0096179Y0050055D01*
X0096242Y0050200D01*
X0096310Y0050342D01*
X0096381Y0050483D01*
X0096455Y0050622D01*
X0096533Y0050759D01*
X0096615Y0050894D01*
X0096699Y0051027D01*
X0096788Y0051158D01*
X0096879Y0051286D01*
X0096974Y0051413D01*
X0097071Y0051536D01*
X0097172Y0051658D01*
X0097276Y0051776D01*
X0097383Y0051892D01*
X0097493Y0052005D01*
X0097605Y0052116D01*
X0097721Y0052223D01*
X0097839Y0052328D01*
X0097959Y0052430D01*
X0098082Y0052528D01*
X0098208Y0052624D01*
X0098336Y0052716D01*
X0098466Y0052805D01*
X0098598Y0052891D01*
X0098733Y0052973D01*
X0098870Y0053052D01*
X0099008Y0053127D01*
X0099148Y0053199D01*
X0099291Y0053267D01*
X0099434Y0053332D01*
X0099580Y0053393D01*
X0099727Y0053450D01*
X0099875Y0053504D01*
X0100025Y0053554D01*
X0100175Y0053600D01*
X0100327Y0053642D01*
X0100480Y0053681D01*
X0100634Y0053715D01*
X0100789Y0053746D01*
X0100944Y0053772D01*
X0101100Y0053795D01*
X0101257Y0053814D01*
X0101414Y0053829D01*
X0101571Y0053840D01*
X0101729Y0053847D01*
X0101887Y0053850D01*
X0102044Y0053849D01*
X0102202Y0053844D01*
X0102359Y0053835D01*
X0102517Y0053822D01*
X0102673Y0053805D01*
X0102830Y0053784D01*
X0102985Y0053760D01*
X0103140Y0053731D01*
X0103295Y0053698D01*
X0103448Y0053662D01*
X0103601Y0053621D01*
X0103752Y0053577D01*
X0103902Y0053529D01*
X0104051Y0053478D01*
X0104199Y0053422D01*
X0104345Y0053363D01*
X0104490Y0053300D01*
X0104633Y0053233D01*
X0104774Y0053163D01*
X0104913Y0053090D01*
X0105051Y0053013D01*
X0105187Y0052932D01*
X0105320Y0052848D01*
X0105451Y0052761D01*
X0105580Y0052670D01*
X0105707Y0052576D01*
X0105832Y0052479D01*
X0105953Y0052379D01*
X0106073Y0052276D01*
X0106189Y0052170D01*
X0106303Y0052061D01*
X0106415Y0051949D01*
X0106523Y0051835D01*
X0106628Y0051717D01*
X0106731Y0051597D01*
X0106830Y0051475D01*
X0106926Y0051350D01*
X0107019Y0051222D01*
X0107109Y0051093D01*
X0107195Y0050961D01*
X0107279Y0050827D01*
X0107358Y0050691D01*
X0107435Y0050553D01*
X0107507Y0050413D01*
X0107576Y0050271D01*
X0107642Y0050128D01*
X0107704Y0049983D01*
X0107762Y0049836D01*
X0107817Y0049688D01*
X0107868Y0049539D01*
X0107915Y0049388D01*
X0107958Y0049237D01*
X0107997Y0049084D01*
X0108033Y0048930D01*
X0108064Y0048776D01*
X0108092Y0048621D01*
X0108116Y0048465D01*
X0108136Y0048308D01*
X0108152Y0048151D01*
X0108164Y0047994D01*
X0108172Y0047837D01*
X0108176Y0047679D01*
X0108176Y0047521D01*
X0108172Y0047363D01*
X0108164Y0047206D01*
X0108152Y0047049D01*
X0108136Y0046892D01*
X0108116Y0046735D01*
X0108092Y0046579D01*
X0108064Y0046424D01*
X0108033Y0046270D01*
X0107997Y0046116D01*
X0107958Y0045963D01*
X0107915Y0045812D01*
X0107868Y0045661D01*
X0107817Y0045512D01*
X0107762Y0045364D01*
X0107704Y0045217D01*
X0107642Y0045072D01*
X0107576Y0044929D01*
X0107507Y0044787D01*
X0107435Y0044647D01*
X0107358Y0044509D01*
X0107279Y0044373D01*
X0107195Y0044239D01*
X0107109Y0044107D01*
X0107019Y0043978D01*
X0106926Y0043850D01*
X0106830Y0043725D01*
X0106731Y0043603D01*
X0106628Y0043483D01*
X0106523Y0043365D01*
X0106415Y0043251D01*
X0106303Y0043139D01*
X0106189Y0043030D01*
X0106073Y0042924D01*
X0105953Y0042821D01*
X0105832Y0042721D01*
X0105707Y0042624D01*
X0105580Y0042530D01*
X0105451Y0042439D01*
X0105320Y0042352D01*
X0105187Y0042268D01*
X0105051Y0042187D01*
X0104913Y0042110D01*
X0104774Y0042037D01*
X0104633Y0041967D01*
X0104490Y0041900D01*
X0104345Y0041837D01*
X0104199Y0041778D01*
X0104051Y0041722D01*
X0103902Y0041671D01*
X0103752Y0041623D01*
X0103601Y0041579D01*
X0103448Y0041538D01*
X0103295Y0041502D01*
X0103140Y0041469D01*
X0102985Y0041440D01*
X0102830Y0041416D01*
X0102673Y0041395D01*
X0102517Y0041378D01*
X0102359Y0041365D01*
X0102202Y0041356D01*
X0102044Y0041351D01*
X0101887Y0041350D01*
X0101729Y0041353D01*
X0101571Y0041360D01*
X0101414Y0041371D01*
X0101257Y0041386D01*
X0101100Y0041405D01*
X0100944Y0041428D01*
X0100789Y0041454D01*
X0100634Y0041485D01*
X0100480Y0041519D01*
X0100327Y0041558D01*
X0100175Y0041600D01*
X0100025Y0041646D01*
X0099875Y0041696D01*
X0099727Y0041750D01*
X0099580Y0041807D01*
X0099434Y0041868D01*
X0099291Y0041933D01*
X0099148Y0042001D01*
X0099008Y0042073D01*
X0098870Y0042148D01*
X0098733Y0042227D01*
X0098598Y0042309D01*
X0098466Y0042395D01*
X0098336Y0042484D01*
X0098208Y0042576D01*
X0098082Y0042672D01*
X0097959Y0042770D01*
X0097839Y0042872D01*
X0097721Y0042977D01*
X0097605Y0043084D01*
X0097493Y0043195D01*
X0097383Y0043308D01*
X0097276Y0043424D01*
X0097172Y0043542D01*
X0097071Y0043664D01*
X0096974Y0043787D01*
X0096879Y0043914D01*
X0096788Y0044042D01*
X0096699Y0044173D01*
X0096615Y0044306D01*
X0096533Y0044441D01*
X0096455Y0044578D01*
X0096381Y0044717D01*
X0096310Y0044858D01*
X0096242Y0045000D01*
X0096179Y0045145D01*
X0096118Y0045290D01*
X0096062Y0045438D01*
X0096009Y0045586D01*
X0095960Y0045736D01*
X0095915Y0045887D01*
X0095874Y0046040D01*
X0095836Y0046193D01*
X0095803Y0046347D01*
X0095773Y0046502D01*
X0095747Y0046657D01*
X0095726Y0046814D01*
X0095708Y0046970D01*
X0095694Y0047127D01*
X0095684Y0047285D01*
X0095678Y0047442D01*
X0095676Y0047600D01*
X0290376Y0047600D02*
X0290378Y0047758D01*
X0290384Y0047915D01*
X0290394Y0048073D01*
X0290408Y0048230D01*
X0290426Y0048386D01*
X0290447Y0048543D01*
X0290473Y0048698D01*
X0290503Y0048853D01*
X0290536Y0049007D01*
X0290574Y0049160D01*
X0290615Y0049313D01*
X0290660Y0049464D01*
X0290709Y0049614D01*
X0290762Y0049762D01*
X0290818Y0049910D01*
X0290879Y0050055D01*
X0290942Y0050200D01*
X0291010Y0050342D01*
X0291081Y0050483D01*
X0291155Y0050622D01*
X0291233Y0050759D01*
X0291315Y0050894D01*
X0291399Y0051027D01*
X0291488Y0051158D01*
X0291579Y0051286D01*
X0291674Y0051413D01*
X0291771Y0051536D01*
X0291872Y0051658D01*
X0291976Y0051776D01*
X0292083Y0051892D01*
X0292193Y0052005D01*
X0292305Y0052116D01*
X0292421Y0052223D01*
X0292539Y0052328D01*
X0292659Y0052430D01*
X0292782Y0052528D01*
X0292908Y0052624D01*
X0293036Y0052716D01*
X0293166Y0052805D01*
X0293298Y0052891D01*
X0293433Y0052973D01*
X0293570Y0053052D01*
X0293708Y0053127D01*
X0293848Y0053199D01*
X0293991Y0053267D01*
X0294134Y0053332D01*
X0294280Y0053393D01*
X0294427Y0053450D01*
X0294575Y0053504D01*
X0294725Y0053554D01*
X0294875Y0053600D01*
X0295027Y0053642D01*
X0295180Y0053681D01*
X0295334Y0053715D01*
X0295489Y0053746D01*
X0295644Y0053772D01*
X0295800Y0053795D01*
X0295957Y0053814D01*
X0296114Y0053829D01*
X0296271Y0053840D01*
X0296429Y0053847D01*
X0296587Y0053850D01*
X0296744Y0053849D01*
X0296902Y0053844D01*
X0297059Y0053835D01*
X0297217Y0053822D01*
X0297373Y0053805D01*
X0297530Y0053784D01*
X0297685Y0053760D01*
X0297840Y0053731D01*
X0297995Y0053698D01*
X0298148Y0053662D01*
X0298301Y0053621D01*
X0298452Y0053577D01*
X0298602Y0053529D01*
X0298751Y0053478D01*
X0298899Y0053422D01*
X0299045Y0053363D01*
X0299190Y0053300D01*
X0299333Y0053233D01*
X0299474Y0053163D01*
X0299613Y0053090D01*
X0299751Y0053013D01*
X0299887Y0052932D01*
X0300020Y0052848D01*
X0300151Y0052761D01*
X0300280Y0052670D01*
X0300407Y0052576D01*
X0300532Y0052479D01*
X0300653Y0052379D01*
X0300773Y0052276D01*
X0300889Y0052170D01*
X0301003Y0052061D01*
X0301115Y0051949D01*
X0301223Y0051835D01*
X0301328Y0051717D01*
X0301431Y0051597D01*
X0301530Y0051475D01*
X0301626Y0051350D01*
X0301719Y0051222D01*
X0301809Y0051093D01*
X0301895Y0050961D01*
X0301979Y0050827D01*
X0302058Y0050691D01*
X0302135Y0050553D01*
X0302207Y0050413D01*
X0302276Y0050271D01*
X0302342Y0050128D01*
X0302404Y0049983D01*
X0302462Y0049836D01*
X0302517Y0049688D01*
X0302568Y0049539D01*
X0302615Y0049388D01*
X0302658Y0049237D01*
X0302697Y0049084D01*
X0302733Y0048930D01*
X0302764Y0048776D01*
X0302792Y0048621D01*
X0302816Y0048465D01*
X0302836Y0048308D01*
X0302852Y0048151D01*
X0302864Y0047994D01*
X0302872Y0047837D01*
X0302876Y0047679D01*
X0302876Y0047521D01*
X0302872Y0047363D01*
X0302864Y0047206D01*
X0302852Y0047049D01*
X0302836Y0046892D01*
X0302816Y0046735D01*
X0302792Y0046579D01*
X0302764Y0046424D01*
X0302733Y0046270D01*
X0302697Y0046116D01*
X0302658Y0045963D01*
X0302615Y0045812D01*
X0302568Y0045661D01*
X0302517Y0045512D01*
X0302462Y0045364D01*
X0302404Y0045217D01*
X0302342Y0045072D01*
X0302276Y0044929D01*
X0302207Y0044787D01*
X0302135Y0044647D01*
X0302058Y0044509D01*
X0301979Y0044373D01*
X0301895Y0044239D01*
X0301809Y0044107D01*
X0301719Y0043978D01*
X0301626Y0043850D01*
X0301530Y0043725D01*
X0301431Y0043603D01*
X0301328Y0043483D01*
X0301223Y0043365D01*
X0301115Y0043251D01*
X0301003Y0043139D01*
X0300889Y0043030D01*
X0300773Y0042924D01*
X0300653Y0042821D01*
X0300532Y0042721D01*
X0300407Y0042624D01*
X0300280Y0042530D01*
X0300151Y0042439D01*
X0300020Y0042352D01*
X0299887Y0042268D01*
X0299751Y0042187D01*
X0299613Y0042110D01*
X0299474Y0042037D01*
X0299333Y0041967D01*
X0299190Y0041900D01*
X0299045Y0041837D01*
X0298899Y0041778D01*
X0298751Y0041722D01*
X0298602Y0041671D01*
X0298452Y0041623D01*
X0298301Y0041579D01*
X0298148Y0041538D01*
X0297995Y0041502D01*
X0297840Y0041469D01*
X0297685Y0041440D01*
X0297530Y0041416D01*
X0297373Y0041395D01*
X0297217Y0041378D01*
X0297059Y0041365D01*
X0296902Y0041356D01*
X0296744Y0041351D01*
X0296587Y0041350D01*
X0296429Y0041353D01*
X0296271Y0041360D01*
X0296114Y0041371D01*
X0295957Y0041386D01*
X0295800Y0041405D01*
X0295644Y0041428D01*
X0295489Y0041454D01*
X0295334Y0041485D01*
X0295180Y0041519D01*
X0295027Y0041558D01*
X0294875Y0041600D01*
X0294725Y0041646D01*
X0294575Y0041696D01*
X0294427Y0041750D01*
X0294280Y0041807D01*
X0294134Y0041868D01*
X0293991Y0041933D01*
X0293848Y0042001D01*
X0293708Y0042073D01*
X0293570Y0042148D01*
X0293433Y0042227D01*
X0293298Y0042309D01*
X0293166Y0042395D01*
X0293036Y0042484D01*
X0292908Y0042576D01*
X0292782Y0042672D01*
X0292659Y0042770D01*
X0292539Y0042872D01*
X0292421Y0042977D01*
X0292305Y0043084D01*
X0292193Y0043195D01*
X0292083Y0043308D01*
X0291976Y0043424D01*
X0291872Y0043542D01*
X0291771Y0043664D01*
X0291674Y0043787D01*
X0291579Y0043914D01*
X0291488Y0044042D01*
X0291399Y0044173D01*
X0291315Y0044306D01*
X0291233Y0044441D01*
X0291155Y0044578D01*
X0291081Y0044717D01*
X0291010Y0044858D01*
X0290942Y0045000D01*
X0290879Y0045145D01*
X0290818Y0045290D01*
X0290762Y0045438D01*
X0290709Y0045586D01*
X0290660Y0045736D01*
X0290615Y0045887D01*
X0290574Y0046040D01*
X0290536Y0046193D01*
X0290503Y0046347D01*
X0290473Y0046502D01*
X0290447Y0046657D01*
X0290426Y0046814D01*
X0290408Y0046970D01*
X0290394Y0047127D01*
X0290384Y0047285D01*
X0290378Y0047442D01*
X0290376Y0047600D01*
X0338591Y0041480D02*
X0338593Y0041561D01*
X0338599Y0041643D01*
X0338609Y0041724D01*
X0338623Y0041804D01*
X0338640Y0041883D01*
X0338662Y0041962D01*
X0338687Y0042039D01*
X0338716Y0042116D01*
X0338749Y0042190D01*
X0338786Y0042263D01*
X0338825Y0042334D01*
X0338869Y0042403D01*
X0338915Y0042470D01*
X0338965Y0042534D01*
X0339018Y0042596D01*
X0339074Y0042656D01*
X0339132Y0042712D01*
X0339194Y0042766D01*
X0339258Y0042817D01*
X0339324Y0042864D01*
X0339392Y0042908D01*
X0339463Y0042949D01*
X0339535Y0042986D01*
X0339610Y0043020D01*
X0339685Y0043050D01*
X0339763Y0043076D01*
X0339841Y0043099D01*
X0339920Y0043117D01*
X0340000Y0043132D01*
X0340081Y0043143D01*
X0340162Y0043150D01*
X0340244Y0043153D01*
X0340325Y0043152D01*
X0340406Y0043147D01*
X0340487Y0043138D01*
X0340568Y0043125D01*
X0340648Y0043108D01*
X0340726Y0043088D01*
X0340804Y0043063D01*
X0340881Y0043035D01*
X0340956Y0043003D01*
X0341029Y0042968D01*
X0341100Y0042929D01*
X0341170Y0042886D01*
X0341237Y0042841D01*
X0341303Y0042792D01*
X0341365Y0042740D01*
X0341425Y0042684D01*
X0341482Y0042626D01*
X0341537Y0042566D01*
X0341588Y0042502D01*
X0341636Y0042437D01*
X0341681Y0042369D01*
X0341723Y0042299D01*
X0341761Y0042227D01*
X0341796Y0042153D01*
X0341827Y0042078D01*
X0341854Y0042001D01*
X0341877Y0041923D01*
X0341897Y0041844D01*
X0341913Y0041764D01*
X0341925Y0041683D01*
X0341933Y0041602D01*
X0341937Y0041521D01*
X0341937Y0041439D01*
X0341933Y0041358D01*
X0341925Y0041277D01*
X0341913Y0041196D01*
X0341897Y0041116D01*
X0341877Y0041037D01*
X0341854Y0040959D01*
X0341827Y0040882D01*
X0341796Y0040807D01*
X0341761Y0040733D01*
X0341723Y0040661D01*
X0341681Y0040591D01*
X0341636Y0040523D01*
X0341588Y0040458D01*
X0341537Y0040394D01*
X0341482Y0040334D01*
X0341425Y0040276D01*
X0341365Y0040220D01*
X0341303Y0040168D01*
X0341237Y0040119D01*
X0341170Y0040074D01*
X0341101Y0040031D01*
X0341029Y0039992D01*
X0340956Y0039957D01*
X0340881Y0039925D01*
X0340804Y0039897D01*
X0340726Y0039872D01*
X0340648Y0039852D01*
X0340568Y0039835D01*
X0340487Y0039822D01*
X0340406Y0039813D01*
X0340325Y0039808D01*
X0340244Y0039807D01*
X0340162Y0039810D01*
X0340081Y0039817D01*
X0340000Y0039828D01*
X0339920Y0039843D01*
X0339841Y0039861D01*
X0339763Y0039884D01*
X0339685Y0039910D01*
X0339610Y0039940D01*
X0339535Y0039974D01*
X0339463Y0040011D01*
X0339392Y0040052D01*
X0339324Y0040096D01*
X0339258Y0040143D01*
X0339194Y0040194D01*
X0339132Y0040248D01*
X0339074Y0040304D01*
X0339018Y0040364D01*
X0338965Y0040426D01*
X0338915Y0040490D01*
X0338869Y0040557D01*
X0338825Y0040626D01*
X0338786Y0040697D01*
X0338749Y0040770D01*
X0338716Y0040844D01*
X0338687Y0040921D01*
X0338662Y0040998D01*
X0338640Y0041077D01*
X0338623Y0041156D01*
X0338609Y0041236D01*
X0338599Y0041317D01*
X0338593Y0041399D01*
X0338591Y0041480D01*
X0338591Y0026520D02*
X0338593Y0026601D01*
X0338599Y0026683D01*
X0338609Y0026764D01*
X0338623Y0026844D01*
X0338640Y0026923D01*
X0338662Y0027002D01*
X0338687Y0027079D01*
X0338716Y0027156D01*
X0338749Y0027230D01*
X0338786Y0027303D01*
X0338825Y0027374D01*
X0338869Y0027443D01*
X0338915Y0027510D01*
X0338965Y0027574D01*
X0339018Y0027636D01*
X0339074Y0027696D01*
X0339132Y0027752D01*
X0339194Y0027806D01*
X0339258Y0027857D01*
X0339324Y0027904D01*
X0339392Y0027948D01*
X0339463Y0027989D01*
X0339535Y0028026D01*
X0339610Y0028060D01*
X0339685Y0028090D01*
X0339763Y0028116D01*
X0339841Y0028139D01*
X0339920Y0028157D01*
X0340000Y0028172D01*
X0340081Y0028183D01*
X0340162Y0028190D01*
X0340244Y0028193D01*
X0340325Y0028192D01*
X0340406Y0028187D01*
X0340487Y0028178D01*
X0340568Y0028165D01*
X0340648Y0028148D01*
X0340726Y0028128D01*
X0340804Y0028103D01*
X0340881Y0028075D01*
X0340956Y0028043D01*
X0341029Y0028008D01*
X0341100Y0027969D01*
X0341170Y0027926D01*
X0341237Y0027881D01*
X0341303Y0027832D01*
X0341365Y0027780D01*
X0341425Y0027724D01*
X0341482Y0027666D01*
X0341537Y0027606D01*
X0341588Y0027542D01*
X0341636Y0027477D01*
X0341681Y0027409D01*
X0341723Y0027339D01*
X0341761Y0027267D01*
X0341796Y0027193D01*
X0341827Y0027118D01*
X0341854Y0027041D01*
X0341877Y0026963D01*
X0341897Y0026884D01*
X0341913Y0026804D01*
X0341925Y0026723D01*
X0341933Y0026642D01*
X0341937Y0026561D01*
X0341937Y0026479D01*
X0341933Y0026398D01*
X0341925Y0026317D01*
X0341913Y0026236D01*
X0341897Y0026156D01*
X0341877Y0026077D01*
X0341854Y0025999D01*
X0341827Y0025922D01*
X0341796Y0025847D01*
X0341761Y0025773D01*
X0341723Y0025701D01*
X0341681Y0025631D01*
X0341636Y0025563D01*
X0341588Y0025498D01*
X0341537Y0025434D01*
X0341482Y0025374D01*
X0341425Y0025316D01*
X0341365Y0025260D01*
X0341303Y0025208D01*
X0341237Y0025159D01*
X0341170Y0025114D01*
X0341101Y0025071D01*
X0341029Y0025032D01*
X0340956Y0024997D01*
X0340881Y0024965D01*
X0340804Y0024937D01*
X0340726Y0024912D01*
X0340648Y0024892D01*
X0340568Y0024875D01*
X0340487Y0024862D01*
X0340406Y0024853D01*
X0340325Y0024848D01*
X0340244Y0024847D01*
X0340162Y0024850D01*
X0340081Y0024857D01*
X0340000Y0024868D01*
X0339920Y0024883D01*
X0339841Y0024901D01*
X0339763Y0024924D01*
X0339685Y0024950D01*
X0339610Y0024980D01*
X0339535Y0025014D01*
X0339463Y0025051D01*
X0339392Y0025092D01*
X0339324Y0025136D01*
X0339258Y0025183D01*
X0339194Y0025234D01*
X0339132Y0025288D01*
X0339074Y0025344D01*
X0339018Y0025404D01*
X0338965Y0025466D01*
X0338915Y0025530D01*
X0338869Y0025597D01*
X0338825Y0025666D01*
X0338786Y0025737D01*
X0338749Y0025810D01*
X0338716Y0025884D01*
X0338687Y0025961D01*
X0338662Y0026038D01*
X0338640Y0026117D01*
X0338623Y0026196D01*
X0338609Y0026276D01*
X0338599Y0026357D01*
X0338593Y0026439D01*
X0338591Y0026520D01*
M02*
