G75*
%MOIN*%
%OFA0B0*%
%FSLAX25Y25*%
%IPPOS*%
%LPD*%
%AMOC8*
5,1,8,0,0,1.08239X$1,22.5*
%
%ADD10C,0.00000*%
%ADD11C,0.01000*%
%ADD12C,0.00700*%
%ADD13C,0.02200*%
%ADD14R,0.03000X0.01800*%
%ADD15C,0.00800*%
%ADD16R,0.01800X0.03000*%
%ADD17C,0.00600*%
%ADD18C,0.00500*%
%ADD19C,0.00300*%
%ADD20C,0.01500*%
%ADD21R,0.01500X0.03000*%
%ADD22C,0.01200*%
%ADD23C,0.00799*%
D10*
X0016926Y0012600D02*
X0016926Y0082600D01*
X0356926Y0082600D01*
X0356926Y0012600D01*
X0016926Y0012600D01*
X0095676Y0047600D02*
X0095678Y0047758D01*
X0095684Y0047915D01*
X0095694Y0048073D01*
X0095708Y0048230D01*
X0095726Y0048386D01*
X0095747Y0048543D01*
X0095773Y0048698D01*
X0095803Y0048853D01*
X0095836Y0049007D01*
X0095874Y0049160D01*
X0095915Y0049313D01*
X0095960Y0049464D01*
X0096009Y0049614D01*
X0096062Y0049762D01*
X0096118Y0049910D01*
X0096179Y0050055D01*
X0096242Y0050200D01*
X0096310Y0050342D01*
X0096381Y0050483D01*
X0096455Y0050622D01*
X0096533Y0050759D01*
X0096615Y0050894D01*
X0096699Y0051027D01*
X0096788Y0051158D01*
X0096879Y0051286D01*
X0096974Y0051413D01*
X0097071Y0051536D01*
X0097172Y0051658D01*
X0097276Y0051776D01*
X0097383Y0051892D01*
X0097493Y0052005D01*
X0097605Y0052116D01*
X0097721Y0052223D01*
X0097839Y0052328D01*
X0097959Y0052430D01*
X0098082Y0052528D01*
X0098208Y0052624D01*
X0098336Y0052716D01*
X0098466Y0052805D01*
X0098598Y0052891D01*
X0098733Y0052973D01*
X0098870Y0053052D01*
X0099008Y0053127D01*
X0099148Y0053199D01*
X0099291Y0053267D01*
X0099434Y0053332D01*
X0099580Y0053393D01*
X0099727Y0053450D01*
X0099875Y0053504D01*
X0100025Y0053554D01*
X0100175Y0053600D01*
X0100327Y0053642D01*
X0100480Y0053681D01*
X0100634Y0053715D01*
X0100789Y0053746D01*
X0100944Y0053772D01*
X0101100Y0053795D01*
X0101257Y0053814D01*
X0101414Y0053829D01*
X0101571Y0053840D01*
X0101729Y0053847D01*
X0101887Y0053850D01*
X0102044Y0053849D01*
X0102202Y0053844D01*
X0102359Y0053835D01*
X0102517Y0053822D01*
X0102673Y0053805D01*
X0102830Y0053784D01*
X0102985Y0053760D01*
X0103140Y0053731D01*
X0103295Y0053698D01*
X0103448Y0053662D01*
X0103601Y0053621D01*
X0103752Y0053577D01*
X0103902Y0053529D01*
X0104051Y0053478D01*
X0104199Y0053422D01*
X0104345Y0053363D01*
X0104490Y0053300D01*
X0104633Y0053233D01*
X0104774Y0053163D01*
X0104913Y0053090D01*
X0105051Y0053013D01*
X0105187Y0052932D01*
X0105320Y0052848D01*
X0105451Y0052761D01*
X0105580Y0052670D01*
X0105707Y0052576D01*
X0105832Y0052479D01*
X0105953Y0052379D01*
X0106073Y0052276D01*
X0106189Y0052170D01*
X0106303Y0052061D01*
X0106415Y0051949D01*
X0106523Y0051835D01*
X0106628Y0051717D01*
X0106731Y0051597D01*
X0106830Y0051475D01*
X0106926Y0051350D01*
X0107019Y0051222D01*
X0107109Y0051093D01*
X0107195Y0050961D01*
X0107279Y0050827D01*
X0107358Y0050691D01*
X0107435Y0050553D01*
X0107507Y0050413D01*
X0107576Y0050271D01*
X0107642Y0050128D01*
X0107704Y0049983D01*
X0107762Y0049836D01*
X0107817Y0049688D01*
X0107868Y0049539D01*
X0107915Y0049388D01*
X0107958Y0049237D01*
X0107997Y0049084D01*
X0108033Y0048930D01*
X0108064Y0048776D01*
X0108092Y0048621D01*
X0108116Y0048465D01*
X0108136Y0048308D01*
X0108152Y0048151D01*
X0108164Y0047994D01*
X0108172Y0047837D01*
X0108176Y0047679D01*
X0108176Y0047521D01*
X0108172Y0047363D01*
X0108164Y0047206D01*
X0108152Y0047049D01*
X0108136Y0046892D01*
X0108116Y0046735D01*
X0108092Y0046579D01*
X0108064Y0046424D01*
X0108033Y0046270D01*
X0107997Y0046116D01*
X0107958Y0045963D01*
X0107915Y0045812D01*
X0107868Y0045661D01*
X0107817Y0045512D01*
X0107762Y0045364D01*
X0107704Y0045217D01*
X0107642Y0045072D01*
X0107576Y0044929D01*
X0107507Y0044787D01*
X0107435Y0044647D01*
X0107358Y0044509D01*
X0107279Y0044373D01*
X0107195Y0044239D01*
X0107109Y0044107D01*
X0107019Y0043978D01*
X0106926Y0043850D01*
X0106830Y0043725D01*
X0106731Y0043603D01*
X0106628Y0043483D01*
X0106523Y0043365D01*
X0106415Y0043251D01*
X0106303Y0043139D01*
X0106189Y0043030D01*
X0106073Y0042924D01*
X0105953Y0042821D01*
X0105832Y0042721D01*
X0105707Y0042624D01*
X0105580Y0042530D01*
X0105451Y0042439D01*
X0105320Y0042352D01*
X0105187Y0042268D01*
X0105051Y0042187D01*
X0104913Y0042110D01*
X0104774Y0042037D01*
X0104633Y0041967D01*
X0104490Y0041900D01*
X0104345Y0041837D01*
X0104199Y0041778D01*
X0104051Y0041722D01*
X0103902Y0041671D01*
X0103752Y0041623D01*
X0103601Y0041579D01*
X0103448Y0041538D01*
X0103295Y0041502D01*
X0103140Y0041469D01*
X0102985Y0041440D01*
X0102830Y0041416D01*
X0102673Y0041395D01*
X0102517Y0041378D01*
X0102359Y0041365D01*
X0102202Y0041356D01*
X0102044Y0041351D01*
X0101887Y0041350D01*
X0101729Y0041353D01*
X0101571Y0041360D01*
X0101414Y0041371D01*
X0101257Y0041386D01*
X0101100Y0041405D01*
X0100944Y0041428D01*
X0100789Y0041454D01*
X0100634Y0041485D01*
X0100480Y0041519D01*
X0100327Y0041558D01*
X0100175Y0041600D01*
X0100025Y0041646D01*
X0099875Y0041696D01*
X0099727Y0041750D01*
X0099580Y0041807D01*
X0099434Y0041868D01*
X0099291Y0041933D01*
X0099148Y0042001D01*
X0099008Y0042073D01*
X0098870Y0042148D01*
X0098733Y0042227D01*
X0098598Y0042309D01*
X0098466Y0042395D01*
X0098336Y0042484D01*
X0098208Y0042576D01*
X0098082Y0042672D01*
X0097959Y0042770D01*
X0097839Y0042872D01*
X0097721Y0042977D01*
X0097605Y0043084D01*
X0097493Y0043195D01*
X0097383Y0043308D01*
X0097276Y0043424D01*
X0097172Y0043542D01*
X0097071Y0043664D01*
X0096974Y0043787D01*
X0096879Y0043914D01*
X0096788Y0044042D01*
X0096699Y0044173D01*
X0096615Y0044306D01*
X0096533Y0044441D01*
X0096455Y0044578D01*
X0096381Y0044717D01*
X0096310Y0044858D01*
X0096242Y0045000D01*
X0096179Y0045145D01*
X0096118Y0045290D01*
X0096062Y0045438D01*
X0096009Y0045586D01*
X0095960Y0045736D01*
X0095915Y0045887D01*
X0095874Y0046040D01*
X0095836Y0046193D01*
X0095803Y0046347D01*
X0095773Y0046502D01*
X0095747Y0046657D01*
X0095726Y0046814D01*
X0095708Y0046970D01*
X0095694Y0047127D01*
X0095684Y0047285D01*
X0095678Y0047442D01*
X0095676Y0047600D01*
X0290376Y0047600D02*
X0290378Y0047758D01*
X0290384Y0047915D01*
X0290394Y0048073D01*
X0290408Y0048230D01*
X0290426Y0048386D01*
X0290447Y0048543D01*
X0290473Y0048698D01*
X0290503Y0048853D01*
X0290536Y0049007D01*
X0290574Y0049160D01*
X0290615Y0049313D01*
X0290660Y0049464D01*
X0290709Y0049614D01*
X0290762Y0049762D01*
X0290818Y0049910D01*
X0290879Y0050055D01*
X0290942Y0050200D01*
X0291010Y0050342D01*
X0291081Y0050483D01*
X0291155Y0050622D01*
X0291233Y0050759D01*
X0291315Y0050894D01*
X0291399Y0051027D01*
X0291488Y0051158D01*
X0291579Y0051286D01*
X0291674Y0051413D01*
X0291771Y0051536D01*
X0291872Y0051658D01*
X0291976Y0051776D01*
X0292083Y0051892D01*
X0292193Y0052005D01*
X0292305Y0052116D01*
X0292421Y0052223D01*
X0292539Y0052328D01*
X0292659Y0052430D01*
X0292782Y0052528D01*
X0292908Y0052624D01*
X0293036Y0052716D01*
X0293166Y0052805D01*
X0293298Y0052891D01*
X0293433Y0052973D01*
X0293570Y0053052D01*
X0293708Y0053127D01*
X0293848Y0053199D01*
X0293991Y0053267D01*
X0294134Y0053332D01*
X0294280Y0053393D01*
X0294427Y0053450D01*
X0294575Y0053504D01*
X0294725Y0053554D01*
X0294875Y0053600D01*
X0295027Y0053642D01*
X0295180Y0053681D01*
X0295334Y0053715D01*
X0295489Y0053746D01*
X0295644Y0053772D01*
X0295800Y0053795D01*
X0295957Y0053814D01*
X0296114Y0053829D01*
X0296271Y0053840D01*
X0296429Y0053847D01*
X0296587Y0053850D01*
X0296744Y0053849D01*
X0296902Y0053844D01*
X0297059Y0053835D01*
X0297217Y0053822D01*
X0297373Y0053805D01*
X0297530Y0053784D01*
X0297685Y0053760D01*
X0297840Y0053731D01*
X0297995Y0053698D01*
X0298148Y0053662D01*
X0298301Y0053621D01*
X0298452Y0053577D01*
X0298602Y0053529D01*
X0298751Y0053478D01*
X0298899Y0053422D01*
X0299045Y0053363D01*
X0299190Y0053300D01*
X0299333Y0053233D01*
X0299474Y0053163D01*
X0299613Y0053090D01*
X0299751Y0053013D01*
X0299887Y0052932D01*
X0300020Y0052848D01*
X0300151Y0052761D01*
X0300280Y0052670D01*
X0300407Y0052576D01*
X0300532Y0052479D01*
X0300653Y0052379D01*
X0300773Y0052276D01*
X0300889Y0052170D01*
X0301003Y0052061D01*
X0301115Y0051949D01*
X0301223Y0051835D01*
X0301328Y0051717D01*
X0301431Y0051597D01*
X0301530Y0051475D01*
X0301626Y0051350D01*
X0301719Y0051222D01*
X0301809Y0051093D01*
X0301895Y0050961D01*
X0301979Y0050827D01*
X0302058Y0050691D01*
X0302135Y0050553D01*
X0302207Y0050413D01*
X0302276Y0050271D01*
X0302342Y0050128D01*
X0302404Y0049983D01*
X0302462Y0049836D01*
X0302517Y0049688D01*
X0302568Y0049539D01*
X0302615Y0049388D01*
X0302658Y0049237D01*
X0302697Y0049084D01*
X0302733Y0048930D01*
X0302764Y0048776D01*
X0302792Y0048621D01*
X0302816Y0048465D01*
X0302836Y0048308D01*
X0302852Y0048151D01*
X0302864Y0047994D01*
X0302872Y0047837D01*
X0302876Y0047679D01*
X0302876Y0047521D01*
X0302872Y0047363D01*
X0302864Y0047206D01*
X0302852Y0047049D01*
X0302836Y0046892D01*
X0302816Y0046735D01*
X0302792Y0046579D01*
X0302764Y0046424D01*
X0302733Y0046270D01*
X0302697Y0046116D01*
X0302658Y0045963D01*
X0302615Y0045812D01*
X0302568Y0045661D01*
X0302517Y0045512D01*
X0302462Y0045364D01*
X0302404Y0045217D01*
X0302342Y0045072D01*
X0302276Y0044929D01*
X0302207Y0044787D01*
X0302135Y0044647D01*
X0302058Y0044509D01*
X0301979Y0044373D01*
X0301895Y0044239D01*
X0301809Y0044107D01*
X0301719Y0043978D01*
X0301626Y0043850D01*
X0301530Y0043725D01*
X0301431Y0043603D01*
X0301328Y0043483D01*
X0301223Y0043365D01*
X0301115Y0043251D01*
X0301003Y0043139D01*
X0300889Y0043030D01*
X0300773Y0042924D01*
X0300653Y0042821D01*
X0300532Y0042721D01*
X0300407Y0042624D01*
X0300280Y0042530D01*
X0300151Y0042439D01*
X0300020Y0042352D01*
X0299887Y0042268D01*
X0299751Y0042187D01*
X0299613Y0042110D01*
X0299474Y0042037D01*
X0299333Y0041967D01*
X0299190Y0041900D01*
X0299045Y0041837D01*
X0298899Y0041778D01*
X0298751Y0041722D01*
X0298602Y0041671D01*
X0298452Y0041623D01*
X0298301Y0041579D01*
X0298148Y0041538D01*
X0297995Y0041502D01*
X0297840Y0041469D01*
X0297685Y0041440D01*
X0297530Y0041416D01*
X0297373Y0041395D01*
X0297217Y0041378D01*
X0297059Y0041365D01*
X0296902Y0041356D01*
X0296744Y0041351D01*
X0296587Y0041350D01*
X0296429Y0041353D01*
X0296271Y0041360D01*
X0296114Y0041371D01*
X0295957Y0041386D01*
X0295800Y0041405D01*
X0295644Y0041428D01*
X0295489Y0041454D01*
X0295334Y0041485D01*
X0295180Y0041519D01*
X0295027Y0041558D01*
X0294875Y0041600D01*
X0294725Y0041646D01*
X0294575Y0041696D01*
X0294427Y0041750D01*
X0294280Y0041807D01*
X0294134Y0041868D01*
X0293991Y0041933D01*
X0293848Y0042001D01*
X0293708Y0042073D01*
X0293570Y0042148D01*
X0293433Y0042227D01*
X0293298Y0042309D01*
X0293166Y0042395D01*
X0293036Y0042484D01*
X0292908Y0042576D01*
X0292782Y0042672D01*
X0292659Y0042770D01*
X0292539Y0042872D01*
X0292421Y0042977D01*
X0292305Y0043084D01*
X0292193Y0043195D01*
X0292083Y0043308D01*
X0291976Y0043424D01*
X0291872Y0043542D01*
X0291771Y0043664D01*
X0291674Y0043787D01*
X0291579Y0043914D01*
X0291488Y0044042D01*
X0291399Y0044173D01*
X0291315Y0044306D01*
X0291233Y0044441D01*
X0291155Y0044578D01*
X0291081Y0044717D01*
X0291010Y0044858D01*
X0290942Y0045000D01*
X0290879Y0045145D01*
X0290818Y0045290D01*
X0290762Y0045438D01*
X0290709Y0045586D01*
X0290660Y0045736D01*
X0290615Y0045887D01*
X0290574Y0046040D01*
X0290536Y0046193D01*
X0290503Y0046347D01*
X0290473Y0046502D01*
X0290447Y0046657D01*
X0290426Y0046814D01*
X0290408Y0046970D01*
X0290394Y0047127D01*
X0290384Y0047285D01*
X0290378Y0047442D01*
X0290376Y0047600D01*
X0338591Y0041480D02*
X0338593Y0041561D01*
X0338599Y0041643D01*
X0338609Y0041724D01*
X0338623Y0041804D01*
X0338640Y0041883D01*
X0338662Y0041962D01*
X0338687Y0042039D01*
X0338716Y0042116D01*
X0338749Y0042190D01*
X0338786Y0042263D01*
X0338825Y0042334D01*
X0338869Y0042403D01*
X0338915Y0042470D01*
X0338965Y0042534D01*
X0339018Y0042596D01*
X0339074Y0042656D01*
X0339132Y0042712D01*
X0339194Y0042766D01*
X0339258Y0042817D01*
X0339324Y0042864D01*
X0339392Y0042908D01*
X0339463Y0042949D01*
X0339535Y0042986D01*
X0339610Y0043020D01*
X0339685Y0043050D01*
X0339763Y0043076D01*
X0339841Y0043099D01*
X0339920Y0043117D01*
X0340000Y0043132D01*
X0340081Y0043143D01*
X0340162Y0043150D01*
X0340244Y0043153D01*
X0340325Y0043152D01*
X0340406Y0043147D01*
X0340487Y0043138D01*
X0340568Y0043125D01*
X0340648Y0043108D01*
X0340726Y0043088D01*
X0340804Y0043063D01*
X0340881Y0043035D01*
X0340956Y0043003D01*
X0341029Y0042968D01*
X0341100Y0042929D01*
X0341170Y0042886D01*
X0341237Y0042841D01*
X0341303Y0042792D01*
X0341365Y0042740D01*
X0341425Y0042684D01*
X0341482Y0042626D01*
X0341537Y0042566D01*
X0341588Y0042502D01*
X0341636Y0042437D01*
X0341681Y0042369D01*
X0341723Y0042299D01*
X0341761Y0042227D01*
X0341796Y0042153D01*
X0341827Y0042078D01*
X0341854Y0042001D01*
X0341877Y0041923D01*
X0341897Y0041844D01*
X0341913Y0041764D01*
X0341925Y0041683D01*
X0341933Y0041602D01*
X0341937Y0041521D01*
X0341937Y0041439D01*
X0341933Y0041358D01*
X0341925Y0041277D01*
X0341913Y0041196D01*
X0341897Y0041116D01*
X0341877Y0041037D01*
X0341854Y0040959D01*
X0341827Y0040882D01*
X0341796Y0040807D01*
X0341761Y0040733D01*
X0341723Y0040661D01*
X0341681Y0040591D01*
X0341636Y0040523D01*
X0341588Y0040458D01*
X0341537Y0040394D01*
X0341482Y0040334D01*
X0341425Y0040276D01*
X0341365Y0040220D01*
X0341303Y0040168D01*
X0341237Y0040119D01*
X0341170Y0040074D01*
X0341101Y0040031D01*
X0341029Y0039992D01*
X0340956Y0039957D01*
X0340881Y0039925D01*
X0340804Y0039897D01*
X0340726Y0039872D01*
X0340648Y0039852D01*
X0340568Y0039835D01*
X0340487Y0039822D01*
X0340406Y0039813D01*
X0340325Y0039808D01*
X0340244Y0039807D01*
X0340162Y0039810D01*
X0340081Y0039817D01*
X0340000Y0039828D01*
X0339920Y0039843D01*
X0339841Y0039861D01*
X0339763Y0039884D01*
X0339685Y0039910D01*
X0339610Y0039940D01*
X0339535Y0039974D01*
X0339463Y0040011D01*
X0339392Y0040052D01*
X0339324Y0040096D01*
X0339258Y0040143D01*
X0339194Y0040194D01*
X0339132Y0040248D01*
X0339074Y0040304D01*
X0339018Y0040364D01*
X0338965Y0040426D01*
X0338915Y0040490D01*
X0338869Y0040557D01*
X0338825Y0040626D01*
X0338786Y0040697D01*
X0338749Y0040770D01*
X0338716Y0040844D01*
X0338687Y0040921D01*
X0338662Y0040998D01*
X0338640Y0041077D01*
X0338623Y0041156D01*
X0338609Y0041236D01*
X0338599Y0041317D01*
X0338593Y0041399D01*
X0338591Y0041480D01*
X0338591Y0026520D02*
X0338593Y0026601D01*
X0338599Y0026683D01*
X0338609Y0026764D01*
X0338623Y0026844D01*
X0338640Y0026923D01*
X0338662Y0027002D01*
X0338687Y0027079D01*
X0338716Y0027156D01*
X0338749Y0027230D01*
X0338786Y0027303D01*
X0338825Y0027374D01*
X0338869Y0027443D01*
X0338915Y0027510D01*
X0338965Y0027574D01*
X0339018Y0027636D01*
X0339074Y0027696D01*
X0339132Y0027752D01*
X0339194Y0027806D01*
X0339258Y0027857D01*
X0339324Y0027904D01*
X0339392Y0027948D01*
X0339463Y0027989D01*
X0339535Y0028026D01*
X0339610Y0028060D01*
X0339685Y0028090D01*
X0339763Y0028116D01*
X0339841Y0028139D01*
X0339920Y0028157D01*
X0340000Y0028172D01*
X0340081Y0028183D01*
X0340162Y0028190D01*
X0340244Y0028193D01*
X0340325Y0028192D01*
X0340406Y0028187D01*
X0340487Y0028178D01*
X0340568Y0028165D01*
X0340648Y0028148D01*
X0340726Y0028128D01*
X0340804Y0028103D01*
X0340881Y0028075D01*
X0340956Y0028043D01*
X0341029Y0028008D01*
X0341100Y0027969D01*
X0341170Y0027926D01*
X0341237Y0027881D01*
X0341303Y0027832D01*
X0341365Y0027780D01*
X0341425Y0027724D01*
X0341482Y0027666D01*
X0341537Y0027606D01*
X0341588Y0027542D01*
X0341636Y0027477D01*
X0341681Y0027409D01*
X0341723Y0027339D01*
X0341761Y0027267D01*
X0341796Y0027193D01*
X0341827Y0027118D01*
X0341854Y0027041D01*
X0341877Y0026963D01*
X0341897Y0026884D01*
X0341913Y0026804D01*
X0341925Y0026723D01*
X0341933Y0026642D01*
X0341937Y0026561D01*
X0341937Y0026479D01*
X0341933Y0026398D01*
X0341925Y0026317D01*
X0341913Y0026236D01*
X0341897Y0026156D01*
X0341877Y0026077D01*
X0341854Y0025999D01*
X0341827Y0025922D01*
X0341796Y0025847D01*
X0341761Y0025773D01*
X0341723Y0025701D01*
X0341681Y0025631D01*
X0341636Y0025563D01*
X0341588Y0025498D01*
X0341537Y0025434D01*
X0341482Y0025374D01*
X0341425Y0025316D01*
X0341365Y0025260D01*
X0341303Y0025208D01*
X0341237Y0025159D01*
X0341170Y0025114D01*
X0341101Y0025071D01*
X0341029Y0025032D01*
X0340956Y0024997D01*
X0340881Y0024965D01*
X0340804Y0024937D01*
X0340726Y0024912D01*
X0340648Y0024892D01*
X0340568Y0024875D01*
X0340487Y0024862D01*
X0340406Y0024853D01*
X0340325Y0024848D01*
X0340244Y0024847D01*
X0340162Y0024850D01*
X0340081Y0024857D01*
X0340000Y0024868D01*
X0339920Y0024883D01*
X0339841Y0024901D01*
X0339763Y0024924D01*
X0339685Y0024950D01*
X0339610Y0024980D01*
X0339535Y0025014D01*
X0339463Y0025051D01*
X0339392Y0025092D01*
X0339324Y0025136D01*
X0339258Y0025183D01*
X0339194Y0025234D01*
X0339132Y0025288D01*
X0339074Y0025344D01*
X0339018Y0025404D01*
X0338965Y0025466D01*
X0338915Y0025530D01*
X0338869Y0025597D01*
X0338825Y0025666D01*
X0338786Y0025737D01*
X0338749Y0025810D01*
X0338716Y0025884D01*
X0338687Y0025961D01*
X0338662Y0026038D01*
X0338640Y0026117D01*
X0338623Y0026196D01*
X0338609Y0026276D01*
X0338599Y0026357D01*
X0338593Y0026439D01*
X0338591Y0026520D01*
D11*
X0309926Y0048800D02*
X0321126Y0060000D01*
X0321126Y0057600D01*
X0321126Y0060000D02*
X0318526Y0060000D01*
X0352426Y0060602D02*
X0355495Y0060602D01*
X0353960Y0062137D02*
X0353960Y0059067D01*
X0354728Y0072831D02*
X0354728Y0075900D01*
X0321526Y0072600D02*
X0321526Y0082200D01*
X0312126Y0082200D01*
X0312126Y0072600D01*
X0321526Y0072600D01*
X0121926Y0022600D02*
X0121926Y0012600D01*
X0081926Y0012600D01*
X0071926Y0012600D01*
X0071926Y0022600D01*
X0081926Y0022600D01*
X0081926Y0012600D01*
X0081926Y0022600D02*
X0121926Y0022600D01*
D12*
X0124076Y0022950D02*
X0126277Y0022950D01*
X0125177Y0022950D02*
X0125177Y0026253D01*
X0124076Y0025152D01*
X0127759Y0026253D02*
X0129961Y0026253D01*
X0129961Y0025702D01*
X0127759Y0023500D01*
X0127759Y0022950D01*
X0134076Y0023150D02*
X0136277Y0023150D01*
X0135177Y0023150D02*
X0135177Y0026453D01*
X0134076Y0025352D01*
X0137759Y0025352D02*
X0138309Y0024801D01*
X0139410Y0024801D01*
X0139961Y0024251D01*
X0139961Y0023700D01*
X0139410Y0023150D01*
X0138309Y0023150D01*
X0137759Y0023700D01*
X0137759Y0024251D01*
X0138309Y0024801D01*
X0137759Y0025352D02*
X0137759Y0025902D01*
X0138309Y0026453D01*
X0139410Y0026453D01*
X0139961Y0025902D01*
X0139961Y0025352D01*
X0139410Y0024801D01*
X0144076Y0025352D02*
X0145177Y0026453D01*
X0145177Y0023150D01*
X0146277Y0023150D02*
X0144076Y0023150D01*
X0147759Y0023700D02*
X0148309Y0023150D01*
X0149410Y0023150D01*
X0149961Y0023700D01*
X0149961Y0025902D01*
X0149410Y0026453D01*
X0148309Y0026453D01*
X0147759Y0025902D01*
X0147759Y0025352D01*
X0148309Y0024801D01*
X0149961Y0024801D01*
X0153676Y0025902D02*
X0154226Y0026453D01*
X0155327Y0026453D01*
X0155877Y0025902D01*
X0155877Y0025352D01*
X0153676Y0023150D01*
X0155877Y0023150D01*
X0157359Y0023700D02*
X0159561Y0025902D01*
X0159561Y0023700D01*
X0159010Y0023150D01*
X0157909Y0023150D01*
X0157359Y0023700D01*
X0157359Y0025902D01*
X0157909Y0026453D01*
X0159010Y0026453D01*
X0159561Y0025902D01*
X0163676Y0025702D02*
X0164226Y0026253D01*
X0165327Y0026253D01*
X0165877Y0025702D01*
X0165877Y0025152D01*
X0163676Y0022950D01*
X0165877Y0022950D01*
X0167359Y0022950D02*
X0169561Y0022950D01*
X0168460Y0022950D02*
X0168460Y0026253D01*
X0167359Y0025152D01*
X0173876Y0025702D02*
X0174426Y0026253D01*
X0175527Y0026253D01*
X0176077Y0025702D01*
X0176077Y0025152D01*
X0173876Y0022950D01*
X0176077Y0022950D01*
X0177559Y0022950D02*
X0179761Y0025152D01*
X0179761Y0025702D01*
X0179210Y0026253D01*
X0178109Y0026253D01*
X0177559Y0025702D01*
X0177559Y0022950D02*
X0179761Y0022950D01*
X0183876Y0022950D02*
X0186077Y0025152D01*
X0186077Y0025702D01*
X0185527Y0026253D01*
X0184426Y0026253D01*
X0183876Y0025702D01*
X0187559Y0025702D02*
X0188109Y0026253D01*
X0189210Y0026253D01*
X0189761Y0025702D01*
X0189761Y0025152D01*
X0189210Y0024601D01*
X0189761Y0024051D01*
X0189761Y0023500D01*
X0189210Y0022950D01*
X0188109Y0022950D01*
X0187559Y0023500D01*
X0188660Y0024601D02*
X0189210Y0024601D01*
X0186077Y0022950D02*
X0183876Y0022950D01*
X0193876Y0022550D02*
X0196077Y0024752D01*
X0196077Y0025302D01*
X0195527Y0025853D01*
X0194426Y0025853D01*
X0193876Y0025302D01*
X0197559Y0024201D02*
X0199761Y0024201D01*
X0199210Y0022550D02*
X0199210Y0025853D01*
X0197559Y0024201D01*
X0196077Y0022550D02*
X0193876Y0022550D01*
X0204076Y0022550D02*
X0206277Y0024752D01*
X0206277Y0025302D01*
X0205727Y0025853D01*
X0204626Y0025853D01*
X0204076Y0025302D01*
X0207759Y0025853D02*
X0207759Y0024201D01*
X0208860Y0024752D01*
X0209410Y0024752D01*
X0209961Y0024201D01*
X0209961Y0023100D01*
X0209410Y0022550D01*
X0208309Y0022550D01*
X0207759Y0023100D01*
X0206277Y0022550D02*
X0204076Y0022550D01*
X0212276Y0022350D02*
X0214477Y0024552D01*
X0214477Y0025102D01*
X0213927Y0025653D01*
X0212826Y0025653D01*
X0212276Y0025102D01*
X0209961Y0025853D02*
X0207759Y0025853D01*
X0215959Y0024001D02*
X0215959Y0022900D01*
X0216509Y0022350D01*
X0217610Y0022350D01*
X0218161Y0022900D01*
X0218161Y0023451D01*
X0217610Y0024001D01*
X0215959Y0024001D01*
X0217060Y0025102D01*
X0218161Y0025653D01*
X0224076Y0025702D02*
X0224626Y0026253D01*
X0225727Y0026253D01*
X0226277Y0025702D01*
X0226277Y0025152D01*
X0224076Y0022950D01*
X0226277Y0022950D01*
X0227759Y0022950D02*
X0227759Y0023500D01*
X0229961Y0025702D01*
X0229961Y0026253D01*
X0227759Y0026253D01*
X0233876Y0025702D02*
X0234426Y0026253D01*
X0235527Y0026253D01*
X0236077Y0025702D01*
X0236077Y0025152D01*
X0233876Y0022950D01*
X0236077Y0022950D01*
X0237559Y0023500D02*
X0237559Y0024051D01*
X0238109Y0024601D01*
X0239210Y0024601D01*
X0239761Y0024051D01*
X0239761Y0023500D01*
X0239210Y0022950D01*
X0238109Y0022950D01*
X0237559Y0023500D01*
X0238109Y0024601D02*
X0237559Y0025152D01*
X0237559Y0025702D01*
X0238109Y0026253D01*
X0239210Y0026253D01*
X0239761Y0025702D01*
X0239761Y0025152D01*
X0239210Y0024601D01*
X0243876Y0025702D02*
X0244426Y0026253D01*
X0245527Y0026253D01*
X0246077Y0025702D01*
X0246077Y0025152D01*
X0243876Y0022950D01*
X0246077Y0022950D01*
X0247559Y0023500D02*
X0248109Y0022950D01*
X0249210Y0022950D01*
X0249761Y0023500D01*
X0249761Y0025702D01*
X0249210Y0026253D01*
X0248109Y0026253D01*
X0247559Y0025702D01*
X0247559Y0025152D01*
X0248109Y0024601D01*
X0249761Y0024601D01*
X0253876Y0023500D02*
X0254426Y0022950D01*
X0255527Y0022950D01*
X0256077Y0023500D01*
X0256077Y0024051D01*
X0255527Y0024601D01*
X0254977Y0024601D01*
X0255527Y0024601D02*
X0256077Y0025152D01*
X0256077Y0025702D01*
X0255527Y0026253D01*
X0254426Y0026253D01*
X0253876Y0025702D01*
X0257559Y0025702D02*
X0258109Y0026253D01*
X0259210Y0026253D01*
X0259761Y0025702D01*
X0257559Y0023500D01*
X0258109Y0022950D01*
X0259210Y0022950D01*
X0259761Y0023500D01*
X0259761Y0025702D01*
X0257559Y0025702D02*
X0257559Y0023500D01*
X0263876Y0023500D02*
X0264426Y0022950D01*
X0265527Y0022950D01*
X0266077Y0023500D01*
X0266077Y0024051D01*
X0265527Y0024601D01*
X0264977Y0024601D01*
X0265527Y0024601D02*
X0266077Y0025152D01*
X0266077Y0025702D01*
X0265527Y0026253D01*
X0264426Y0026253D01*
X0263876Y0025702D01*
X0267559Y0025152D02*
X0268660Y0026253D01*
X0268660Y0022950D01*
X0267559Y0022950D02*
X0269761Y0022950D01*
X0273876Y0023500D02*
X0274426Y0022950D01*
X0275527Y0022950D01*
X0276077Y0023500D01*
X0276077Y0024051D01*
X0275527Y0024601D01*
X0274977Y0024601D01*
X0275527Y0024601D02*
X0276077Y0025152D01*
X0276077Y0025702D01*
X0275527Y0026253D01*
X0274426Y0026253D01*
X0273876Y0025702D01*
X0277559Y0025702D02*
X0278109Y0026253D01*
X0279210Y0026253D01*
X0279761Y0025702D01*
X0279761Y0025152D01*
X0277559Y0022950D01*
X0279761Y0022950D01*
X0283476Y0022950D02*
X0283476Y0026253D01*
X0285127Y0026253D01*
X0285677Y0025702D01*
X0285677Y0024601D01*
X0285127Y0024051D01*
X0283476Y0024051D01*
X0284577Y0024051D02*
X0285677Y0022950D01*
X0287159Y0023500D02*
X0287709Y0022950D01*
X0288810Y0022950D01*
X0289361Y0023500D01*
X0289361Y0024051D01*
X0288810Y0024601D01*
X0287709Y0024601D01*
X0287159Y0025152D01*
X0287159Y0025702D01*
X0287709Y0026253D01*
X0288810Y0026253D01*
X0289361Y0025702D01*
X0293876Y0025702D02*
X0294426Y0026253D01*
X0295527Y0026253D01*
X0296077Y0025702D01*
X0296077Y0025152D01*
X0295527Y0024601D01*
X0296077Y0024051D01*
X0296077Y0023500D01*
X0295527Y0022950D01*
X0294426Y0022950D01*
X0293876Y0023500D01*
X0294977Y0024601D02*
X0295527Y0024601D01*
X0297559Y0024051D02*
X0298660Y0022950D01*
X0299761Y0024051D01*
X0299761Y0026253D01*
X0297559Y0026253D02*
X0297559Y0024051D01*
X0302276Y0023500D02*
X0302826Y0022950D01*
X0303927Y0022950D01*
X0304477Y0023500D01*
X0304477Y0024601D01*
X0303377Y0024601D01*
X0304477Y0025702D02*
X0303927Y0026253D01*
X0302826Y0026253D01*
X0302276Y0025702D01*
X0302276Y0023500D01*
X0305959Y0022950D02*
X0305959Y0026253D01*
X0308161Y0022950D01*
X0308161Y0026253D01*
X0309642Y0026253D02*
X0311293Y0026253D01*
X0311844Y0025702D01*
X0311844Y0023500D01*
X0311293Y0022950D01*
X0309642Y0022950D01*
X0309642Y0026253D01*
X0306924Y0028950D02*
X0306924Y0031152D01*
X0306924Y0032633D02*
X0306374Y0033734D01*
X0306374Y0034285D01*
X0306924Y0034835D01*
X0308025Y0034835D01*
X0308576Y0034285D01*
X0308576Y0033184D01*
X0308025Y0032633D01*
X0306924Y0032633D02*
X0305273Y0032633D01*
X0305273Y0034835D01*
X0305273Y0036316D02*
X0307475Y0036316D01*
X0308576Y0037417D01*
X0307475Y0038518D01*
X0305273Y0038518D01*
X0305273Y0043683D02*
X0305273Y0045334D01*
X0305823Y0045884D01*
X0306924Y0045884D01*
X0307475Y0045334D01*
X0307475Y0043683D01*
X0308576Y0043683D02*
X0305273Y0043683D01*
X0305273Y0047366D02*
X0308576Y0047366D01*
X0307475Y0048467D01*
X0308576Y0049568D01*
X0305273Y0049568D01*
X0305273Y0051049D02*
X0305273Y0052700D01*
X0305823Y0053251D01*
X0306924Y0053251D01*
X0307475Y0052700D01*
X0307475Y0051049D01*
X0308576Y0051049D02*
X0305273Y0051049D01*
X0307475Y0052150D02*
X0308576Y0053251D01*
X0307961Y0067950D02*
X0307961Y0071253D01*
X0309442Y0071253D02*
X0311093Y0071253D01*
X0311644Y0070702D01*
X0311644Y0068500D01*
X0311093Y0067950D01*
X0309442Y0067950D01*
X0309442Y0071253D01*
X0307961Y0067950D02*
X0305759Y0071253D01*
X0305759Y0067950D01*
X0304277Y0068500D02*
X0304277Y0069601D01*
X0303177Y0069601D01*
X0304277Y0068500D02*
X0303727Y0067950D01*
X0302626Y0067950D01*
X0302076Y0068500D01*
X0302076Y0070702D01*
X0302626Y0071253D01*
X0303727Y0071253D01*
X0304277Y0070702D01*
X0299161Y0070051D02*
X0298060Y0068950D01*
X0296959Y0070051D01*
X0296959Y0072253D01*
X0295477Y0071702D02*
X0295477Y0071152D01*
X0294927Y0070601D01*
X0295477Y0070051D01*
X0295477Y0069500D01*
X0294927Y0068950D01*
X0293826Y0068950D01*
X0293276Y0069500D01*
X0294377Y0070601D02*
X0294927Y0070601D01*
X0295477Y0071702D02*
X0294927Y0072253D01*
X0293826Y0072253D01*
X0293276Y0071702D01*
X0299161Y0072253D02*
X0299161Y0070051D01*
X0288077Y0069500D02*
X0287527Y0068950D01*
X0286426Y0068950D01*
X0285876Y0069500D01*
X0288077Y0071702D01*
X0288077Y0069500D01*
X0285876Y0069500D02*
X0285876Y0071702D01*
X0286426Y0072253D01*
X0287527Y0072253D01*
X0288077Y0071702D01*
X0284274Y0072960D02*
X0282717Y0072960D01*
X0282717Y0074517D01*
X0276977Y0072253D02*
X0276977Y0068950D01*
X0278077Y0068950D02*
X0275876Y0068950D01*
X0275876Y0071152D02*
X0276977Y0072253D01*
X0268077Y0071702D02*
X0268077Y0071152D01*
X0265876Y0068950D01*
X0268077Y0068950D01*
X0268077Y0071702D02*
X0267527Y0072253D01*
X0266426Y0072253D01*
X0265876Y0071702D01*
X0258077Y0071702D02*
X0258077Y0071152D01*
X0257527Y0070601D01*
X0258077Y0070051D01*
X0258077Y0069500D01*
X0257527Y0068950D01*
X0256426Y0068950D01*
X0255876Y0069500D01*
X0256977Y0070601D02*
X0257527Y0070601D01*
X0258077Y0071702D02*
X0257527Y0072253D01*
X0256426Y0072253D01*
X0255876Y0071702D01*
X0254474Y0072960D02*
X0252917Y0072960D01*
X0252917Y0074517D01*
X0247327Y0072253D02*
X0245676Y0070601D01*
X0247877Y0070601D01*
X0247327Y0068950D02*
X0247327Y0072253D01*
X0244474Y0072960D02*
X0242917Y0072960D01*
X0242917Y0074517D01*
X0237877Y0072253D02*
X0235676Y0072253D01*
X0235676Y0070601D01*
X0236777Y0071152D01*
X0237327Y0071152D01*
X0237877Y0070601D01*
X0237877Y0069500D01*
X0237327Y0068950D01*
X0236226Y0068950D01*
X0235676Y0069500D01*
X0228077Y0069500D02*
X0227527Y0068950D01*
X0226426Y0068950D01*
X0225876Y0069500D01*
X0225876Y0070601D01*
X0227527Y0070601D01*
X0228077Y0070051D01*
X0228077Y0069500D01*
X0226977Y0071702D02*
X0225876Y0070601D01*
X0226977Y0071702D02*
X0228077Y0072253D01*
X0224474Y0072960D02*
X0222917Y0072960D01*
X0222917Y0074517D01*
X0221077Y0073053D02*
X0221077Y0072502D01*
X0218876Y0070300D01*
X0218876Y0069750D01*
X0218876Y0073053D02*
X0221077Y0073053D01*
X0214274Y0072960D02*
X0212717Y0072960D01*
X0212717Y0074517D01*
X0208077Y0071502D02*
X0208077Y0070952D01*
X0207527Y0070401D01*
X0206426Y0070401D01*
X0205876Y0070952D01*
X0205876Y0071502D01*
X0206426Y0072053D01*
X0207527Y0072053D01*
X0208077Y0071502D01*
X0207527Y0070401D02*
X0208077Y0069851D01*
X0208077Y0069300D01*
X0207527Y0068750D01*
X0206426Y0068750D01*
X0205876Y0069300D01*
X0205876Y0069851D01*
X0206426Y0070401D01*
X0204474Y0072960D02*
X0202917Y0072960D01*
X0202917Y0074517D01*
X0197877Y0071702D02*
X0197327Y0072253D01*
X0196226Y0072253D01*
X0195676Y0071702D01*
X0195676Y0071152D01*
X0196226Y0070601D01*
X0197877Y0070601D01*
X0197877Y0069500D02*
X0197877Y0071702D01*
X0194274Y0072960D02*
X0192717Y0072960D01*
X0192717Y0074517D01*
X0189961Y0071702D02*
X0187759Y0069500D01*
X0188309Y0068950D01*
X0189410Y0068950D01*
X0189961Y0069500D01*
X0189961Y0071702D01*
X0189410Y0072253D01*
X0188309Y0072253D01*
X0187759Y0071702D01*
X0187759Y0069500D01*
X0186277Y0068950D02*
X0184076Y0068950D01*
X0185177Y0068950D02*
X0185177Y0072253D01*
X0184076Y0071152D01*
X0178860Y0072253D02*
X0178860Y0068950D01*
X0177759Y0068950D02*
X0179961Y0068950D01*
X0176277Y0068950D02*
X0174076Y0068950D01*
X0175177Y0068950D02*
X0175177Y0072253D01*
X0174076Y0071152D01*
X0177759Y0071152D02*
X0178860Y0072253D01*
X0182917Y0072960D02*
X0182917Y0074517D01*
X0182917Y0072960D02*
X0184474Y0072960D01*
X0174274Y0072960D02*
X0172717Y0072960D01*
X0172717Y0074517D01*
X0169961Y0071702D02*
X0169410Y0072253D01*
X0168309Y0072253D01*
X0167759Y0071702D01*
X0169961Y0071702D02*
X0169961Y0071152D01*
X0167759Y0068950D01*
X0169961Y0068950D01*
X0166277Y0068950D02*
X0164076Y0068950D01*
X0165177Y0068950D02*
X0165177Y0072253D01*
X0164076Y0071152D01*
X0159761Y0071152D02*
X0159761Y0071702D01*
X0159210Y0072253D01*
X0158109Y0072253D01*
X0157559Y0071702D01*
X0158660Y0070601D02*
X0159210Y0070601D01*
X0159761Y0070051D01*
X0159761Y0069500D01*
X0159210Y0068950D01*
X0158109Y0068950D01*
X0157559Y0069500D01*
X0156077Y0068950D02*
X0153876Y0068950D01*
X0154977Y0068950D02*
X0154977Y0072253D01*
X0153876Y0071152D01*
X0149761Y0070601D02*
X0147559Y0070601D01*
X0149210Y0072253D01*
X0149210Y0068950D01*
X0146077Y0068950D02*
X0143876Y0068950D01*
X0144977Y0068950D02*
X0144977Y0072253D01*
X0143876Y0071152D01*
X0139961Y0070601D02*
X0139961Y0069500D01*
X0139410Y0068950D01*
X0138309Y0068950D01*
X0137759Y0069500D01*
X0137759Y0070601D02*
X0138860Y0071152D01*
X0139410Y0071152D01*
X0139961Y0070601D01*
X0139961Y0072253D02*
X0137759Y0072253D01*
X0137759Y0070601D01*
X0135177Y0068950D02*
X0135177Y0072253D01*
X0134076Y0071152D01*
X0129961Y0072253D02*
X0128860Y0071702D01*
X0127759Y0070601D01*
X0129410Y0070601D01*
X0129961Y0070051D01*
X0129961Y0069500D01*
X0129410Y0068950D01*
X0128309Y0068950D01*
X0127759Y0069500D01*
X0127759Y0070601D01*
X0125177Y0068950D02*
X0125177Y0072253D01*
X0124076Y0071152D01*
X0124076Y0068950D02*
X0126277Y0068950D01*
X0134076Y0068950D02*
X0136277Y0068950D01*
X0152517Y0073360D02*
X0152517Y0074917D01*
X0152517Y0073360D02*
X0154074Y0073360D01*
X0159210Y0070601D02*
X0159761Y0071152D01*
X0162717Y0072960D02*
X0162717Y0074517D01*
X0162717Y0072960D02*
X0164274Y0072960D01*
X0195676Y0069500D02*
X0196226Y0068950D01*
X0197327Y0068950D01*
X0197877Y0069500D01*
X0232717Y0072960D02*
X0232717Y0074517D01*
X0232717Y0072960D02*
X0234274Y0072960D01*
X0254276Y0063952D02*
X0255377Y0065053D01*
X0255377Y0061750D01*
X0256477Y0061750D02*
X0254276Y0061750D01*
X0314476Y0068500D02*
X0315026Y0067950D01*
X0316127Y0067950D01*
X0316677Y0068500D01*
X0316677Y0069601D01*
X0316127Y0070152D01*
X0315577Y0070152D01*
X0314476Y0069601D01*
X0314476Y0071253D01*
X0316677Y0071253D01*
X0318159Y0071253D02*
X0318159Y0069051D01*
X0319260Y0067950D01*
X0320361Y0069051D01*
X0320361Y0071253D01*
X0265244Y0030502D02*
X0264693Y0031053D01*
X0263042Y0031053D01*
X0263042Y0027750D01*
X0263042Y0028851D02*
X0264693Y0028851D01*
X0265244Y0029401D01*
X0265244Y0030502D01*
X0264143Y0028851D02*
X0265244Y0027750D01*
X0261561Y0027750D02*
X0260460Y0028851D01*
X0259359Y0027750D01*
X0259359Y0031053D01*
X0257877Y0030502D02*
X0257877Y0029401D01*
X0257327Y0028851D01*
X0255676Y0028851D01*
X0255676Y0027750D02*
X0255676Y0031053D01*
X0257327Y0031053D01*
X0257877Y0030502D01*
X0261561Y0031053D02*
X0261561Y0027750D01*
X0305823Y0030051D02*
X0308025Y0030051D01*
X0315076Y0026053D02*
X0315076Y0024401D01*
X0316177Y0024952D01*
X0316727Y0024952D01*
X0317277Y0024401D01*
X0317277Y0023300D01*
X0316727Y0022750D01*
X0315626Y0022750D01*
X0315076Y0023300D01*
X0318759Y0023851D02*
X0319860Y0022750D01*
X0320961Y0023851D01*
X0320961Y0026053D01*
X0318759Y0026053D02*
X0318759Y0023851D01*
X0317277Y0026053D02*
X0315076Y0026053D01*
X0214477Y0022350D02*
X0212276Y0022350D01*
X0184909Y0041150D02*
X0184909Y0044453D01*
X0183808Y0044453D02*
X0186010Y0044453D01*
X0182327Y0044453D02*
X0180125Y0044453D01*
X0180125Y0041150D01*
X0182327Y0041150D01*
X0181226Y0042801D02*
X0180125Y0042801D01*
X0178644Y0042251D02*
X0178644Y0041700D01*
X0178093Y0041150D01*
X0176992Y0041150D01*
X0176442Y0041700D01*
X0176992Y0042801D02*
X0178093Y0042801D01*
X0178644Y0042251D01*
X0178644Y0043902D02*
X0178093Y0044453D01*
X0176992Y0044453D01*
X0176442Y0043902D01*
X0176442Y0043352D01*
X0176992Y0042801D01*
X0174961Y0041150D02*
X0172759Y0041150D01*
X0172759Y0044453D01*
X0174961Y0044453D01*
X0171277Y0043902D02*
X0171277Y0042801D01*
X0170727Y0042251D01*
X0169076Y0042251D01*
X0170177Y0042251D02*
X0171277Y0041150D01*
X0169076Y0041150D02*
X0169076Y0044453D01*
X0170727Y0044453D01*
X0171277Y0043902D01*
X0172759Y0042801D02*
X0173860Y0042801D01*
X0144044Y0050300D02*
X0144044Y0051401D01*
X0142943Y0051401D01*
X0144044Y0050300D02*
X0143493Y0049750D01*
X0142392Y0049750D01*
X0141842Y0050300D01*
X0141842Y0052502D01*
X0142392Y0053053D01*
X0143493Y0053053D01*
X0144044Y0052502D01*
X0140361Y0052502D02*
X0140361Y0051401D01*
X0139810Y0050851D01*
X0138159Y0050851D01*
X0139260Y0050851D02*
X0140361Y0049750D01*
X0138159Y0049750D02*
X0138159Y0053053D01*
X0139810Y0053053D01*
X0140361Y0052502D01*
X0136677Y0052502D02*
X0136677Y0051401D01*
X0136127Y0050851D01*
X0134476Y0050851D01*
X0134476Y0049750D02*
X0134476Y0053053D01*
X0136127Y0053053D01*
X0136677Y0052502D01*
X0129961Y0052051D02*
X0129961Y0051500D01*
X0129410Y0050950D01*
X0128309Y0050950D01*
X0127759Y0051500D01*
X0127759Y0052051D01*
X0128309Y0052601D01*
X0129410Y0052601D01*
X0129961Y0052051D01*
X0129410Y0052601D02*
X0129961Y0053152D01*
X0129961Y0053702D01*
X0129410Y0054253D01*
X0128309Y0054253D01*
X0127759Y0053702D01*
X0127759Y0053152D01*
X0128309Y0052601D01*
X0125177Y0054253D02*
X0125177Y0050950D01*
X0126277Y0050950D02*
X0124076Y0050950D01*
X0124076Y0053152D02*
X0125177Y0054253D01*
X0110644Y0058053D02*
X0108442Y0058053D01*
X0109543Y0058053D02*
X0109543Y0054750D01*
X0106961Y0054750D02*
X0106961Y0056952D01*
X0105860Y0058053D01*
X0104759Y0056952D01*
X0104759Y0054750D01*
X0103277Y0055300D02*
X0103277Y0057502D01*
X0102727Y0058053D01*
X0101076Y0058053D01*
X0101076Y0054750D01*
X0102727Y0054750D01*
X0103277Y0055300D01*
X0104759Y0056401D02*
X0106961Y0056401D01*
X0106761Y0061750D02*
X0106761Y0065053D01*
X0108242Y0065053D02*
X0109893Y0065053D01*
X0110444Y0064502D01*
X0110444Y0062300D01*
X0109893Y0061750D01*
X0108242Y0061750D01*
X0108242Y0065053D01*
X0106761Y0061750D02*
X0104559Y0065053D01*
X0104559Y0061750D01*
X0103077Y0062300D02*
X0103077Y0063401D01*
X0101977Y0063401D01*
X0103077Y0062300D02*
X0102527Y0061750D01*
X0101426Y0061750D01*
X0100876Y0062300D01*
X0100876Y0064502D01*
X0101426Y0065053D01*
X0102527Y0065053D01*
X0103077Y0064502D01*
X0061578Y0058949D02*
X0058276Y0058949D01*
X0058276Y0060050D02*
X0058276Y0057848D01*
X0058826Y0056367D02*
X0059377Y0056367D01*
X0059927Y0055816D01*
X0059927Y0054715D01*
X0059377Y0054165D01*
X0058826Y0054165D01*
X0058276Y0054715D01*
X0058276Y0055816D01*
X0058826Y0056367D01*
X0059927Y0055816D02*
X0060477Y0056367D01*
X0061028Y0056367D01*
X0061578Y0055816D01*
X0061578Y0054715D01*
X0061028Y0054165D01*
X0060477Y0054165D01*
X0059927Y0054715D01*
X0056378Y0054684D02*
X0056378Y0052482D01*
X0056378Y0053583D02*
X0053076Y0053583D01*
X0053076Y0056165D02*
X0055277Y0056165D01*
X0056378Y0057266D01*
X0055277Y0058367D01*
X0053076Y0058367D01*
X0053626Y0059848D02*
X0055828Y0059848D01*
X0056378Y0060399D01*
X0056378Y0062050D01*
X0053076Y0062050D01*
X0053076Y0060399D01*
X0053626Y0059848D01*
X0054727Y0058367D02*
X0054727Y0056165D01*
X0060477Y0060050D02*
X0061578Y0058949D01*
X0055828Y0066682D02*
X0053626Y0066682D01*
X0053076Y0067232D01*
X0053076Y0068884D01*
X0056378Y0068884D01*
X0056378Y0067232D01*
X0055828Y0066682D01*
X0056378Y0070365D02*
X0053076Y0070365D01*
X0056378Y0072567D01*
X0053076Y0072567D01*
X0053626Y0074048D02*
X0054727Y0074048D01*
X0054727Y0075149D01*
X0055828Y0074048D02*
X0056378Y0074599D01*
X0056378Y0075700D01*
X0055828Y0076250D01*
X0053626Y0076250D01*
X0053076Y0075700D01*
X0053076Y0074599D01*
X0053626Y0074048D01*
X0028244Y0077750D02*
X0026042Y0077750D01*
X0026042Y0081053D01*
X0028244Y0081053D01*
X0022359Y0081053D02*
X0022359Y0077750D01*
X0024561Y0077750D01*
X0026042Y0079401D02*
X0027143Y0079401D01*
X0020877Y0078851D02*
X0020877Y0078300D01*
X0020327Y0077750D01*
X0018676Y0077750D01*
X0018676Y0081053D01*
X0020327Y0081053D01*
X0020877Y0080502D01*
X0020877Y0079952D01*
X0020327Y0079401D01*
X0018676Y0079401D01*
X0020327Y0079401D02*
X0020877Y0078851D01*
X0053076Y0048100D02*
X0053076Y0046999D01*
X0053626Y0046448D01*
X0053076Y0048100D02*
X0053626Y0048650D01*
X0055828Y0048650D01*
X0056378Y0048100D01*
X0056378Y0046999D01*
X0055828Y0046448D01*
X0056378Y0044967D02*
X0053076Y0044967D01*
X0053076Y0042765D01*
X0053076Y0041284D02*
X0056378Y0041284D01*
X0054727Y0040733D02*
X0053076Y0039082D01*
X0054177Y0041284D02*
X0056378Y0039082D01*
X0058626Y0042848D02*
X0058076Y0043399D01*
X0058076Y0044500D01*
X0058626Y0045050D01*
X0059727Y0043949D02*
X0059727Y0043399D01*
X0059177Y0042848D01*
X0058626Y0042848D01*
X0059727Y0043399D02*
X0060277Y0042848D01*
X0060828Y0042848D01*
X0061378Y0043399D01*
X0061378Y0044500D01*
X0060828Y0045050D01*
X0056178Y0032250D02*
X0054527Y0032250D01*
X0055077Y0031149D01*
X0055077Y0030599D01*
X0054527Y0030048D01*
X0053426Y0030048D01*
X0052876Y0030599D01*
X0052876Y0031700D01*
X0053426Y0032250D01*
X0056178Y0032250D02*
X0056178Y0030048D01*
X0056178Y0028567D02*
X0053977Y0028567D01*
X0052876Y0027466D01*
X0053977Y0026365D01*
X0056178Y0026365D01*
X0046309Y0018482D02*
X0046309Y0017931D01*
X0046309Y0016831D02*
X0046309Y0014629D01*
X0046859Y0014629D02*
X0045758Y0014629D01*
X0044404Y0014629D02*
X0043853Y0015179D01*
X0043853Y0017381D01*
X0043303Y0016831D02*
X0044404Y0016831D01*
X0045758Y0016831D02*
X0046309Y0016831D01*
X0048214Y0016280D02*
X0048214Y0015179D01*
X0048764Y0014629D01*
X0049865Y0014629D01*
X0050415Y0015179D01*
X0050415Y0016280D01*
X0049865Y0016831D01*
X0048764Y0016831D01*
X0048214Y0016280D01*
X0051897Y0016831D02*
X0051897Y0014629D01*
X0054099Y0014629D02*
X0054099Y0016280D01*
X0053548Y0016831D01*
X0051897Y0016831D01*
X0057676Y0016718D02*
X0058777Y0014516D01*
X0059877Y0016718D01*
X0061359Y0016718D02*
X0062460Y0017819D01*
X0062460Y0014516D01*
X0061359Y0014516D02*
X0063561Y0014516D01*
X0065042Y0014516D02*
X0065592Y0014516D01*
X0065592Y0015066D01*
X0065042Y0015066D01*
X0065042Y0014516D01*
X0066883Y0014516D02*
X0069085Y0016718D01*
X0069085Y0017268D01*
X0068535Y0017819D01*
X0067434Y0017819D01*
X0066883Y0017268D01*
X0066883Y0014516D02*
X0069085Y0014516D01*
X0041821Y0014629D02*
X0040170Y0014629D01*
X0039620Y0015179D01*
X0040170Y0015730D01*
X0041821Y0015730D01*
X0041821Y0016280D02*
X0041821Y0014629D01*
X0041821Y0016280D02*
X0041271Y0016831D01*
X0040170Y0016831D01*
X0038265Y0016831D02*
X0037164Y0016831D01*
X0037715Y0017381D02*
X0037715Y0015179D01*
X0038265Y0014629D01*
X0035683Y0015179D02*
X0035683Y0015730D01*
X0035132Y0016280D01*
X0034031Y0016280D01*
X0033481Y0016831D01*
X0033481Y0017381D01*
X0034031Y0017931D01*
X0035132Y0017931D01*
X0035683Y0017381D01*
X0035683Y0015179D02*
X0035132Y0014629D01*
X0034031Y0014629D01*
X0033481Y0015179D01*
X0028317Y0015179D02*
X0027766Y0014629D01*
X0026115Y0014629D01*
X0026115Y0017931D01*
X0027766Y0017931D01*
X0028317Y0017381D01*
X0028317Y0016831D01*
X0027766Y0016280D01*
X0026115Y0016280D01*
X0024633Y0016280D02*
X0024633Y0015179D01*
X0024083Y0014629D01*
X0022982Y0014629D01*
X0022432Y0015179D01*
X0022432Y0017381D01*
X0022982Y0017931D01*
X0024083Y0017931D01*
X0024633Y0017381D01*
X0024633Y0016280D02*
X0023532Y0016280D01*
X0020950Y0016280D02*
X0020950Y0017381D01*
X0020400Y0017931D01*
X0018748Y0017931D01*
X0018748Y0014629D01*
X0018748Y0015730D02*
X0020400Y0015730D01*
X0020950Y0016280D01*
X0019849Y0015730D02*
X0020950Y0014629D01*
X0027766Y0016280D02*
X0028317Y0015730D01*
X0028317Y0015179D01*
X0093276Y0024350D02*
X0094377Y0024350D01*
X0093826Y0024350D02*
X0093826Y0027653D01*
X0093276Y0027653D02*
X0094377Y0027653D01*
X0095731Y0027102D02*
X0095731Y0024900D01*
X0096281Y0024350D01*
X0097382Y0024350D01*
X0097933Y0024900D01*
X0099414Y0024900D02*
X0099965Y0024350D01*
X0101066Y0024350D01*
X0101616Y0024900D01*
X0101616Y0025451D01*
X0101066Y0026001D01*
X0099965Y0026001D01*
X0099414Y0026552D01*
X0099414Y0027102D01*
X0099965Y0027653D01*
X0101066Y0027653D01*
X0101616Y0027102D01*
X0103097Y0027653D02*
X0104749Y0027653D01*
X0105299Y0027102D01*
X0105299Y0026001D01*
X0104749Y0025451D01*
X0103097Y0025451D01*
X0103097Y0024350D02*
X0103097Y0027653D01*
X0097933Y0027102D02*
X0097382Y0027653D01*
X0096281Y0027653D01*
X0095731Y0027102D01*
X0104076Y0030900D02*
X0104626Y0030350D01*
X0105727Y0030350D01*
X0106277Y0030900D01*
X0106277Y0032001D01*
X0105727Y0032552D01*
X0105177Y0032552D01*
X0104076Y0032001D01*
X0104076Y0033653D01*
X0106277Y0033653D01*
X0107759Y0033653D02*
X0107759Y0031451D01*
X0108860Y0030350D01*
X0109961Y0031451D01*
X0109961Y0033653D01*
X0110044Y0037550D02*
X0108392Y0039201D01*
X0107842Y0038651D02*
X0110044Y0040853D01*
X0107842Y0040853D02*
X0107842Y0037550D01*
X0106361Y0037550D02*
X0104159Y0037550D01*
X0104159Y0040853D01*
X0102677Y0040302D02*
X0102127Y0040853D01*
X0101026Y0040853D01*
X0100476Y0040302D01*
X0100476Y0038100D01*
X0101026Y0037550D01*
X0102127Y0037550D01*
X0102677Y0038100D01*
X0124076Y0041700D02*
X0124626Y0041150D01*
X0125727Y0041150D01*
X0126277Y0041700D01*
X0126277Y0042251D01*
X0125727Y0042801D01*
X0125177Y0042801D01*
X0125727Y0042801D02*
X0126277Y0043352D01*
X0126277Y0043902D01*
X0125727Y0044453D01*
X0124626Y0044453D01*
X0124076Y0043902D01*
X0152886Y0022209D02*
X0154443Y0022209D01*
X0152886Y0022209D02*
X0152886Y0020652D01*
D13*
X0197771Y0032283D02*
X0198011Y0032283D01*
X0239526Y0031920D02*
X0239526Y0031680D01*
X0280206Y0042600D02*
X0280446Y0042600D01*
X0181326Y0065480D02*
X0181326Y0065720D01*
X0169646Y0053800D02*
X0169406Y0053800D01*
D14*
X0245526Y0056400D03*
X0263126Y0042600D03*
X0268526Y0042600D03*
D15*
X0259656Y0035811D02*
X0259656Y0034000D01*
X0260877Y0034920D01*
X0259656Y0034000D02*
X0259656Y0032189D01*
X0260877Y0033140D02*
X0259717Y0033900D01*
X0239197Y0047600D02*
X0238083Y0046486D01*
X0239197Y0047600D02*
X0238083Y0048714D01*
X0250066Y0062449D02*
X0250826Y0063609D01*
X0250926Y0063669D02*
X0251846Y0062449D01*
X0252737Y0063669D02*
X0250926Y0063669D01*
X0249115Y0063669D01*
X0218039Y0068758D02*
X0216926Y0069871D01*
X0215812Y0068758D01*
X0162837Y0049956D02*
X0162837Y0046806D01*
X0151814Y0046806D02*
X0151814Y0049956D01*
X0154176Y0049956D01*
X0160475Y0049956D02*
X0162837Y0049956D01*
X0194655Y0047600D02*
X0195768Y0046486D01*
X0194655Y0047600D02*
X0195768Y0048714D01*
X0215534Y0026721D02*
X0218318Y0026721D01*
X0304926Y0057000D02*
X0310426Y0057000D01*
X0310426Y0059500D01*
X0309426Y0059500D01*
X0309426Y0057500D01*
X0310426Y0057000D02*
X0314926Y0057000D01*
X0314926Y0061500D01*
X0309926Y0061500D01*
X0307426Y0064000D01*
X0304926Y0061500D01*
X0304926Y0064500D01*
X0314426Y0064500D01*
X0314426Y0066000D01*
X0314926Y0066000D01*
X0314926Y0061500D01*
X0304926Y0061500D02*
X0304926Y0057000D01*
X0299618Y0060976D02*
X0298918Y0060376D01*
X0298118Y0060976D01*
X0297718Y0060776D01*
X0297118Y0062376D01*
X0295918Y0062376D02*
X0295318Y0060776D01*
X0294918Y0060976D01*
X0294118Y0060376D01*
X0293418Y0060976D01*
X0294018Y0061876D01*
X0293618Y0062776D01*
X0292618Y0062976D01*
X0292618Y0063876D01*
X0293718Y0064076D01*
X0294018Y0064976D01*
X0293418Y0065876D01*
X0294118Y0066576D01*
X0295018Y0065876D01*
X0295818Y0066276D01*
X0296118Y0067376D01*
X0297018Y0067376D01*
X0297218Y0066276D01*
X0298018Y0065876D01*
X0298918Y0066576D01*
X0299618Y0065876D01*
X0299018Y0064976D01*
X0299418Y0064076D01*
X0300418Y0063876D01*
X0300418Y0062976D01*
X0299418Y0062776D01*
X0299018Y0061876D01*
X0299618Y0060976D01*
X0297118Y0062376D02*
X0297177Y0062412D01*
X0297233Y0062451D01*
X0297288Y0062494D01*
X0297340Y0062539D01*
X0297389Y0062587D01*
X0297435Y0062638D01*
X0297479Y0062692D01*
X0297519Y0062748D01*
X0297556Y0062806D01*
X0297590Y0062866D01*
X0297620Y0062928D01*
X0297646Y0062992D01*
X0297669Y0063057D01*
X0297688Y0063123D01*
X0297704Y0063190D01*
X0297715Y0063258D01*
X0297723Y0063326D01*
X0297727Y0063395D01*
X0297726Y0063464D01*
X0297722Y0063533D01*
X0297714Y0063601D01*
X0297702Y0063669D01*
X0297686Y0063736D01*
X0297667Y0063802D01*
X0297644Y0063867D01*
X0297617Y0063931D01*
X0297586Y0063992D01*
X0297552Y0064052D01*
X0297515Y0064110D01*
X0297474Y0064166D01*
X0297430Y0064219D01*
X0297384Y0064270D01*
X0297334Y0064318D01*
X0297282Y0064363D01*
X0297227Y0064405D01*
X0297171Y0064444D01*
X0297111Y0064479D01*
X0297050Y0064511D01*
X0296988Y0064540D01*
X0296924Y0064565D01*
X0296858Y0064586D01*
X0296791Y0064604D01*
X0296724Y0064617D01*
X0296656Y0064627D01*
X0296587Y0064633D01*
X0296518Y0064635D01*
X0296449Y0064633D01*
X0296380Y0064627D01*
X0296312Y0064617D01*
X0296245Y0064604D01*
X0296178Y0064586D01*
X0296112Y0064565D01*
X0296048Y0064540D01*
X0295986Y0064511D01*
X0295925Y0064479D01*
X0295865Y0064444D01*
X0295809Y0064405D01*
X0295754Y0064363D01*
X0295702Y0064318D01*
X0295652Y0064270D01*
X0295606Y0064219D01*
X0295562Y0064166D01*
X0295521Y0064110D01*
X0295484Y0064052D01*
X0295450Y0063992D01*
X0295419Y0063931D01*
X0295392Y0063867D01*
X0295369Y0063802D01*
X0295350Y0063736D01*
X0295334Y0063669D01*
X0295322Y0063601D01*
X0295314Y0063533D01*
X0295310Y0063464D01*
X0295309Y0063395D01*
X0295313Y0063326D01*
X0295321Y0063258D01*
X0295332Y0063190D01*
X0295348Y0063123D01*
X0295367Y0063057D01*
X0295390Y0062992D01*
X0295416Y0062928D01*
X0295446Y0062866D01*
X0295480Y0062806D01*
X0295517Y0062748D01*
X0295557Y0062692D01*
X0295601Y0062638D01*
X0295647Y0062587D01*
X0295696Y0062539D01*
X0295748Y0062494D01*
X0295803Y0062451D01*
X0295859Y0062412D01*
X0295918Y0062376D01*
X0322952Y0053731D02*
X0322952Y0081290D01*
X0326102Y0081290D01*
X0326102Y0053731D01*
X0322952Y0053731D01*
X0326102Y0053731D02*
X0350511Y0053731D01*
X0350511Y0081290D01*
X0326102Y0081290D01*
X0327415Y0049430D02*
X0323281Y0049430D01*
X0319148Y0049430D02*
X0315211Y0049430D01*
X0310880Y0045099D01*
X0310880Y0028564D01*
X0319148Y0028564D01*
X0323478Y0028564D02*
X0331746Y0028564D01*
X0331746Y0045099D01*
X0327415Y0049430D01*
X0323282Y0048643D02*
X0323516Y0048589D01*
X0323750Y0048531D01*
X0323981Y0048466D01*
X0324211Y0048396D01*
X0324439Y0048320D01*
X0324666Y0048239D01*
X0324890Y0048153D01*
X0325112Y0048060D01*
X0325332Y0047963D01*
X0325549Y0047860D01*
X0325764Y0047752D01*
X0325976Y0047639D01*
X0326186Y0047520D01*
X0326392Y0047397D01*
X0326595Y0047269D01*
X0326795Y0047135D01*
X0326992Y0046997D01*
X0327186Y0046854D01*
X0327376Y0046707D01*
X0327562Y0046555D01*
X0327744Y0046398D01*
X0327923Y0046237D01*
X0328097Y0046072D01*
X0328268Y0045902D01*
X0328434Y0045729D01*
X0328597Y0045551D01*
X0328754Y0045370D01*
X0328908Y0045184D01*
X0329056Y0044995D01*
X0329200Y0044803D01*
X0329340Y0044607D01*
X0329474Y0044408D01*
X0329604Y0044205D01*
X0329729Y0044000D01*
X0329849Y0043791D01*
X0329963Y0043580D01*
X0330073Y0043366D01*
X0330177Y0043149D01*
X0330276Y0042930D01*
X0330369Y0042708D01*
X0330457Y0042484D01*
X0330540Y0042259D01*
X0330617Y0042031D01*
X0330688Y0041801D01*
X0330754Y0041570D01*
X0330815Y0041337D01*
X0330869Y0041103D01*
X0330918Y0040868D01*
X0330961Y0040631D01*
X0330999Y0040394D01*
X0331030Y0040155D01*
X0331056Y0039916D01*
X0331076Y0039676D01*
X0331090Y0039436D01*
X0331099Y0039196D01*
X0331101Y0038956D01*
X0331098Y0038715D01*
X0331088Y0038475D01*
X0331073Y0038235D01*
X0331052Y0037995D01*
X0331026Y0037756D01*
X0330993Y0037518D01*
X0330955Y0037281D01*
X0330911Y0037044D01*
X0330861Y0036809D01*
X0330805Y0036575D01*
X0330744Y0036343D01*
X0330677Y0036112D01*
X0330605Y0035882D01*
X0330527Y0035655D01*
X0330443Y0035429D01*
X0330354Y0035206D01*
X0330260Y0034985D01*
X0330160Y0034766D01*
X0330055Y0034550D01*
X0329945Y0034336D01*
X0329830Y0034125D01*
X0329709Y0033917D01*
X0329584Y0033712D01*
X0329453Y0033510D01*
X0329318Y0033311D01*
X0329178Y0033116D01*
X0329033Y0032924D01*
X0328883Y0032736D01*
X0328729Y0032551D01*
X0328571Y0032370D01*
X0328408Y0032193D01*
X0328241Y0032020D01*
X0328070Y0031851D01*
X0327894Y0031687D01*
X0327715Y0031526D01*
X0327532Y0031371D01*
X0327345Y0031219D01*
X0327155Y0031072D01*
X0326961Y0030930D01*
X0326763Y0030793D01*
X0326563Y0030660D01*
X0326359Y0030533D01*
X0326152Y0030410D01*
X0325942Y0030293D01*
X0325730Y0030180D01*
X0325515Y0030073D01*
X0325297Y0029971D01*
X0325077Y0029874D01*
X0324854Y0029783D01*
X0324629Y0029697D01*
X0324403Y0029617D01*
X0324174Y0029542D01*
X0323944Y0029473D01*
X0323712Y0029410D01*
X0323479Y0029352D01*
X0319148Y0029351D02*
X0318916Y0029404D01*
X0318685Y0029463D01*
X0318456Y0029527D01*
X0318229Y0029598D01*
X0318003Y0029673D01*
X0317779Y0029754D01*
X0317557Y0029841D01*
X0317338Y0029933D01*
X0317121Y0030030D01*
X0316906Y0030133D01*
X0316694Y0030241D01*
X0316484Y0030354D01*
X0316277Y0030472D01*
X0316074Y0030595D01*
X0315873Y0030723D01*
X0315675Y0030856D01*
X0315481Y0030993D01*
X0315290Y0031136D01*
X0315103Y0031283D01*
X0314919Y0031434D01*
X0314740Y0031590D01*
X0314564Y0031750D01*
X0314392Y0031915D01*
X0314224Y0032084D01*
X0314060Y0032256D01*
X0313900Y0032433D01*
X0313745Y0032614D01*
X0313594Y0032798D01*
X0313448Y0032986D01*
X0313307Y0033177D01*
X0313170Y0033372D01*
X0313038Y0033570D01*
X0312911Y0033771D01*
X0312788Y0033976D01*
X0312671Y0034183D01*
X0312559Y0034393D01*
X0312452Y0034606D01*
X0312350Y0034821D01*
X0312254Y0035038D01*
X0312163Y0035258D01*
X0312077Y0035480D01*
X0311997Y0035705D01*
X0311922Y0035931D01*
X0311853Y0036158D01*
X0311789Y0036388D01*
X0311731Y0036619D01*
X0311679Y0036851D01*
X0311632Y0037084D01*
X0311591Y0037319D01*
X0311556Y0037554D01*
X0311527Y0037790D01*
X0311503Y0038027D01*
X0311485Y0038265D01*
X0311473Y0038502D01*
X0311467Y0038740D01*
X0311467Y0038978D01*
X0311472Y0039216D01*
X0311483Y0039454D01*
X0311500Y0039692D01*
X0311523Y0039929D01*
X0311551Y0040165D01*
X0311586Y0040401D01*
X0311626Y0040635D01*
X0311671Y0040869D01*
X0311723Y0041101D01*
X0311780Y0041332D01*
X0311843Y0041562D01*
X0311911Y0041790D01*
X0311985Y0042016D01*
X0312064Y0042241D01*
X0312149Y0042463D01*
X0312239Y0042684D01*
X0312335Y0042902D01*
X0312436Y0043117D01*
X0312542Y0043330D01*
X0312653Y0043541D01*
X0312770Y0043748D01*
X0312891Y0043953D01*
X0313018Y0044155D01*
X0313149Y0044353D01*
X0313285Y0044549D01*
X0313426Y0044741D01*
X0313571Y0044929D01*
X0313721Y0045114D01*
X0313876Y0045295D01*
X0314035Y0045472D01*
X0314198Y0045646D01*
X0314365Y0045815D01*
X0314537Y0045980D01*
X0314712Y0046141D01*
X0314891Y0046298D01*
X0315074Y0046450D01*
X0315261Y0046598D01*
X0315451Y0046741D01*
X0315645Y0046879D01*
X0315842Y0047013D01*
X0316042Y0047141D01*
X0316245Y0047265D01*
X0316452Y0047384D01*
X0316661Y0047498D01*
X0316873Y0047607D01*
X0317087Y0047710D01*
X0317304Y0047808D01*
X0317523Y0047901D01*
X0317745Y0047988D01*
X0317968Y0048070D01*
X0318193Y0048147D01*
X0318421Y0048218D01*
X0318650Y0048283D01*
X0318880Y0048343D01*
X0319112Y0048397D01*
X0319345Y0048446D01*
X0121926Y0050100D02*
X0119426Y0047600D01*
X0121926Y0045100D01*
X0121926Y0040100D01*
X0119426Y0037600D01*
X0121926Y0035100D01*
X0121926Y0030100D01*
X0119426Y0027600D01*
X0114426Y0027600D01*
X0111926Y0030100D01*
X0111926Y0035100D01*
X0114426Y0037600D01*
X0111926Y0040100D01*
X0111926Y0045100D01*
X0114426Y0047600D01*
X0111926Y0050100D01*
X0111926Y0055100D01*
X0114426Y0057600D01*
X0111926Y0060100D01*
X0111926Y0065100D01*
X0114426Y0067600D01*
X0119426Y0067600D01*
X0121926Y0065100D01*
X0121926Y0060100D01*
X0119426Y0057600D01*
X0121926Y0055100D01*
X0121926Y0050100D01*
X0091311Y0023372D02*
X0066902Y0023372D01*
X0066902Y0078490D01*
X0091311Y0078490D01*
X0091311Y0023372D01*
X0066902Y0023372D02*
X0063752Y0023372D01*
X0063752Y0078490D01*
X0066902Y0078490D01*
X0023995Y0076411D02*
X0023995Y0074600D01*
X0022774Y0073680D01*
X0023995Y0072789D02*
X0023995Y0074600D01*
X0023934Y0074700D02*
X0022774Y0075460D01*
D16*
X0035726Y0074600D03*
X0157326Y0060400D03*
X0038926Y0022000D03*
D17*
X0152326Y0029300D02*
X0157126Y0029300D01*
X0157126Y0037500D02*
X0155926Y0037500D01*
X0153526Y0037500D01*
X0152326Y0037500D01*
X0153526Y0037500D02*
X0153528Y0037431D01*
X0153534Y0037363D01*
X0153544Y0037295D01*
X0153557Y0037228D01*
X0153575Y0037162D01*
X0153596Y0037097D01*
X0153621Y0037033D01*
X0153649Y0036971D01*
X0153681Y0036910D01*
X0153716Y0036851D01*
X0153755Y0036795D01*
X0153797Y0036740D01*
X0153842Y0036689D01*
X0153890Y0036639D01*
X0153940Y0036593D01*
X0153993Y0036550D01*
X0154049Y0036509D01*
X0154106Y0036472D01*
X0154166Y0036439D01*
X0154228Y0036408D01*
X0154291Y0036382D01*
X0154355Y0036359D01*
X0154421Y0036339D01*
X0154488Y0036324D01*
X0154555Y0036312D01*
X0154623Y0036304D01*
X0154692Y0036300D01*
X0154760Y0036300D01*
X0154829Y0036304D01*
X0154897Y0036312D01*
X0154964Y0036324D01*
X0155031Y0036339D01*
X0155097Y0036359D01*
X0155161Y0036382D01*
X0155224Y0036408D01*
X0155286Y0036439D01*
X0155346Y0036472D01*
X0155403Y0036509D01*
X0155459Y0036550D01*
X0155512Y0036593D01*
X0155562Y0036639D01*
X0155610Y0036689D01*
X0155655Y0036740D01*
X0155697Y0036795D01*
X0155736Y0036851D01*
X0155771Y0036910D01*
X0155803Y0036971D01*
X0155831Y0037033D01*
X0155856Y0037097D01*
X0155877Y0037162D01*
X0155895Y0037228D01*
X0155908Y0037295D01*
X0155918Y0037363D01*
X0155924Y0037431D01*
X0155926Y0037500D01*
X0245963Y0037181D02*
X0245963Y0034819D01*
X0250688Y0034819D02*
X0250688Y0037181D01*
X0254963Y0041219D02*
X0254963Y0043581D01*
X0259688Y0043581D02*
X0259688Y0041219D01*
X0113307Y0074838D02*
X0110944Y0074838D01*
X0110944Y0079562D02*
X0113307Y0079562D01*
D18*
X0174826Y0058921D02*
X0174826Y0049276D01*
X0179157Y0049276D02*
X0183094Y0049276D01*
X0187425Y0049276D02*
X0187425Y0059118D01*
X0183094Y0059118D02*
X0179157Y0059118D01*
X0173482Y0046323D02*
X0173484Y0046370D01*
X0173490Y0046416D01*
X0173499Y0046462D01*
X0173513Y0046506D01*
X0173530Y0046550D01*
X0173551Y0046591D01*
X0173575Y0046631D01*
X0173602Y0046669D01*
X0173633Y0046704D01*
X0173666Y0046737D01*
X0173702Y0046767D01*
X0173741Y0046793D01*
X0173781Y0046817D01*
X0173823Y0046836D01*
X0173867Y0046853D01*
X0173912Y0046865D01*
X0173958Y0046874D01*
X0174004Y0046879D01*
X0174051Y0046880D01*
X0174097Y0046877D01*
X0174143Y0046870D01*
X0174189Y0046859D01*
X0174233Y0046845D01*
X0174276Y0046827D01*
X0174317Y0046805D01*
X0174357Y0046780D01*
X0174394Y0046752D01*
X0174429Y0046721D01*
X0174461Y0046687D01*
X0174490Y0046650D01*
X0174515Y0046612D01*
X0174538Y0046571D01*
X0174557Y0046528D01*
X0174572Y0046484D01*
X0174584Y0046439D01*
X0174592Y0046393D01*
X0174596Y0046346D01*
X0174596Y0046300D01*
X0174592Y0046253D01*
X0174584Y0046207D01*
X0174572Y0046162D01*
X0174557Y0046118D01*
X0174538Y0046075D01*
X0174515Y0046034D01*
X0174490Y0045996D01*
X0174461Y0045959D01*
X0174429Y0045925D01*
X0174394Y0045894D01*
X0174357Y0045866D01*
X0174318Y0045841D01*
X0174276Y0045819D01*
X0174233Y0045801D01*
X0174189Y0045787D01*
X0174143Y0045776D01*
X0174097Y0045769D01*
X0174051Y0045766D01*
X0174004Y0045767D01*
X0173958Y0045772D01*
X0173912Y0045781D01*
X0173867Y0045793D01*
X0173823Y0045810D01*
X0173781Y0045829D01*
X0173741Y0045853D01*
X0173702Y0045879D01*
X0173666Y0045909D01*
X0173633Y0045942D01*
X0173602Y0045977D01*
X0173575Y0046015D01*
X0173551Y0046055D01*
X0173530Y0046096D01*
X0173513Y0046140D01*
X0173499Y0046184D01*
X0173490Y0046230D01*
X0173484Y0046276D01*
X0173482Y0046323D01*
X0218930Y0023937D02*
X0218932Y0023993D01*
X0218938Y0024048D01*
X0218948Y0024103D01*
X0218962Y0024156D01*
X0218979Y0024209D01*
X0219000Y0024261D01*
X0219025Y0024310D01*
X0219054Y0024358D01*
X0219085Y0024404D01*
X0219120Y0024447D01*
X0219158Y0024488D01*
X0219199Y0024526D01*
X0219242Y0024561D01*
X0219288Y0024592D01*
X0219336Y0024621D01*
X0219385Y0024646D01*
X0219437Y0024667D01*
X0219490Y0024684D01*
X0219543Y0024698D01*
X0219598Y0024708D01*
X0219653Y0024714D01*
X0219709Y0024716D01*
X0219765Y0024714D01*
X0219820Y0024708D01*
X0219875Y0024698D01*
X0219928Y0024684D01*
X0219981Y0024667D01*
X0220033Y0024646D01*
X0220082Y0024621D01*
X0220130Y0024592D01*
X0220176Y0024561D01*
X0220219Y0024526D01*
X0220260Y0024488D01*
X0220298Y0024447D01*
X0220333Y0024404D01*
X0220364Y0024358D01*
X0220393Y0024310D01*
X0220418Y0024261D01*
X0220439Y0024209D01*
X0220456Y0024156D01*
X0220470Y0024103D01*
X0220480Y0024048D01*
X0220486Y0023993D01*
X0220488Y0023937D01*
X0220486Y0023881D01*
X0220480Y0023826D01*
X0220470Y0023771D01*
X0220456Y0023718D01*
X0220439Y0023665D01*
X0220418Y0023613D01*
X0220393Y0023564D01*
X0220364Y0023516D01*
X0220333Y0023470D01*
X0220298Y0023427D01*
X0220260Y0023386D01*
X0220219Y0023348D01*
X0220176Y0023313D01*
X0220130Y0023282D01*
X0220082Y0023253D01*
X0220033Y0023228D01*
X0219981Y0023207D01*
X0219928Y0023190D01*
X0219875Y0023176D01*
X0219820Y0023166D01*
X0219765Y0023160D01*
X0219709Y0023158D01*
X0219653Y0023160D01*
X0219598Y0023166D01*
X0219543Y0023176D01*
X0219490Y0023190D01*
X0219437Y0023207D01*
X0219385Y0023228D01*
X0219336Y0023253D01*
X0219288Y0023282D01*
X0219242Y0023313D01*
X0219199Y0023348D01*
X0219158Y0023386D01*
X0219120Y0023427D01*
X0219085Y0023470D01*
X0219054Y0023516D01*
X0219025Y0023564D01*
X0219000Y0023613D01*
X0218979Y0023665D01*
X0218962Y0023718D01*
X0218948Y0023771D01*
X0218938Y0023826D01*
X0218932Y0023881D01*
X0218930Y0023937D01*
X0264624Y0050001D02*
X0274325Y0050001D01*
X0274325Y0067599D02*
X0264624Y0067599D01*
X0046526Y0065433D02*
X0046526Y0030000D01*
X0016998Y0030000D01*
X0016998Y0065433D01*
X0046526Y0065433D01*
X0018060Y0024291D02*
X0018062Y0024344D01*
X0018068Y0024397D01*
X0018078Y0024449D01*
X0018092Y0024500D01*
X0018109Y0024550D01*
X0018130Y0024599D01*
X0018155Y0024646D01*
X0018183Y0024691D01*
X0018215Y0024734D01*
X0018250Y0024774D01*
X0018287Y0024811D01*
X0018327Y0024846D01*
X0018370Y0024878D01*
X0018415Y0024906D01*
X0018462Y0024931D01*
X0018511Y0024952D01*
X0018561Y0024969D01*
X0018612Y0024983D01*
X0018664Y0024993D01*
X0018717Y0024999D01*
X0018770Y0025001D01*
X0018823Y0024999D01*
X0018876Y0024993D01*
X0018928Y0024983D01*
X0018979Y0024969D01*
X0019029Y0024952D01*
X0019078Y0024931D01*
X0019125Y0024906D01*
X0019170Y0024878D01*
X0019213Y0024846D01*
X0019253Y0024811D01*
X0019290Y0024774D01*
X0019325Y0024734D01*
X0019357Y0024691D01*
X0019385Y0024646D01*
X0019410Y0024599D01*
X0019431Y0024550D01*
X0019448Y0024500D01*
X0019462Y0024449D01*
X0019472Y0024397D01*
X0019478Y0024344D01*
X0019480Y0024291D01*
X0019478Y0024238D01*
X0019472Y0024185D01*
X0019462Y0024133D01*
X0019448Y0024082D01*
X0019431Y0024032D01*
X0019410Y0023983D01*
X0019385Y0023936D01*
X0019357Y0023891D01*
X0019325Y0023848D01*
X0019290Y0023808D01*
X0019253Y0023771D01*
X0019213Y0023736D01*
X0019170Y0023704D01*
X0019125Y0023676D01*
X0019078Y0023651D01*
X0019029Y0023630D01*
X0018979Y0023613D01*
X0018928Y0023599D01*
X0018876Y0023589D01*
X0018823Y0023583D01*
X0018770Y0023581D01*
X0018717Y0023583D01*
X0018664Y0023589D01*
X0018612Y0023599D01*
X0018561Y0023613D01*
X0018511Y0023630D01*
X0018462Y0023651D01*
X0018415Y0023676D01*
X0018370Y0023704D01*
X0018327Y0023736D01*
X0018287Y0023771D01*
X0018250Y0023808D01*
X0018215Y0023848D01*
X0018183Y0023891D01*
X0018155Y0023936D01*
X0018130Y0023983D01*
X0018109Y0024032D01*
X0018092Y0024082D01*
X0018078Y0024133D01*
X0018068Y0024185D01*
X0018062Y0024238D01*
X0018060Y0024291D01*
D19*
X0145976Y0037734D02*
X0149112Y0040870D01*
X0149112Y0039302D02*
X0145976Y0039302D01*
X0145976Y0040870D02*
X0149112Y0037734D01*
X0147544Y0037734D02*
X0147544Y0040870D01*
D20*
X0137126Y0041090D02*
X0137126Y0041310D01*
X0026326Y0022110D02*
X0026326Y0021890D01*
D21*
X0136926Y0030600D03*
X0136926Y0036000D03*
D22*
X0337115Y0045811D02*
X0337115Y0049748D01*
X0341052Y0049748D01*
X0352863Y0049748D02*
X0356800Y0049748D01*
X0337115Y0022189D02*
X0337115Y0018252D01*
X0337186Y0018280D02*
X0341052Y0018280D01*
X0341052Y0018252D01*
X0352863Y0018252D02*
X0356800Y0018252D01*
D23*
X0185711Y0028049D02*
X0169156Y0028049D01*
X0174038Y0032399D02*
X0175357Y0031631D01*
X0179294Y0031631D01*
X0180633Y0032261D01*
X0181263Y0033600D01*
X0180593Y0034978D01*
X0179294Y0035569D01*
X0175357Y0035569D01*
X0174078Y0034919D01*
X0173389Y0033600D01*
X0174038Y0032399D01*
X0169058Y0032813D02*
X0169058Y0034368D01*
X0169117Y0039171D02*
X0185672Y0039171D01*
X0185593Y0034368D02*
X0185593Y0032832D01*
X0147511Y0055249D02*
X0130956Y0055249D01*
X0135838Y0059599D02*
X0137157Y0058831D01*
X0141094Y0058831D01*
X0142433Y0059461D01*
X0143063Y0060800D01*
X0142393Y0062178D01*
X0141094Y0062769D01*
X0137157Y0062769D01*
X0135878Y0062119D01*
X0135189Y0060800D01*
X0135838Y0059599D01*
X0130858Y0060013D02*
X0130858Y0061568D01*
X0130917Y0066371D02*
X0147472Y0066371D01*
X0147393Y0061568D02*
X0147393Y0060032D01*
M02*
