M48
;GenerationSoftware,Autodesk,EAGLE,8.7.0*%
;CreationDate,2018-03-08T03:12:47Z*%
FMAT,2
ICI,OFF
METRIC,TZ,000.000
T8C0.305
T7C0.330
T6C0.350
T5C0.700
T4C0.900
T3C1.016
T2C1.200
T1C3.175
%
G90
M71
T1
X21590Y8890
X71044Y8890
T2
X81331Y15697
X15494Y7986
X15494Y4486
X15494Y11486
X15494Y14986
X81331Y12197
T3
X63500Y16510
X27940Y1270
X76200Y16510
X33020Y1270
X73660Y16510
X71120Y16510
X68580Y16510
X66040Y16510
X60960Y16510
X58420Y16510
X55880Y16510
X53340Y16510
X50800Y16510
X48260Y16510
X45720Y16510
X43180Y16510
X40640Y16510
X38100Y16510
X35560Y16510
X33020Y16510
X30480Y16510
X27940Y16510
X30480Y1270
X15240Y1270
X35560Y1270
X38100Y1270
X40640Y1270
X43180Y1270
X45720Y1270
X48260Y1270
X50800Y1270
X53340Y1270
X55880Y1270
X58420Y1270
X60960Y1270
X63500Y1270
X66040Y1270
X68580Y1270
X73660Y1270
X76200Y1270
X17780Y1270
X20320Y1270
X22860Y1270
X25400Y1270
X25400Y12700
X25400Y10160
X25400Y7620
X25400Y5080
X71120Y1270
T4
X78283Y10973
T5
X82335Y3361
X82335Y7511
X80010Y3861
T6
X8687Y9500
T7
X21692Y14630
T8
X44653Y9855
X31191Y12090
X58318Y13259
X57252Y13665
X44348Y7214
X56032Y13665
X50648Y7620
X37490Y5029
X52781Y6960
X37643Y5893
X48971Y7976
X18847Y3810
X8687Y10719
X33680Y7315
X9652Y5994
X10871Y6198
X48260Y8839
X17780Y3810
X813Y14478
X1551Y1297
X53086Y10617
X48971Y6706
X48311Y10414
X59334Y7874
X59995Y5486
X45263Y7214
X70510Y5994
X79858Y8077
X68580Y7925
X65380Y8280
X60706Y12852
X59487Y10008
X5588Y8280
X4775Y14681
X4775Y16916
X2388Y3353
X914Y8026
X41656Y5080
X33630Y8890
X52172Y9246
X21641Y4166
X37694Y8585
X41656Y8585
X26314Y15697
X46076Y12852
X60808Y9804
X53899Y13208
X56540Y8890
X68631Y6248
X44552Y5182
X2032Y14732
X13513Y6248
X36483Y13208
X36830Y14173
X45568Y10922
X44602Y11582
X57353Y6096
X80264Y5537
X65126Y5944
X57048Y7061
X79350Y5131
X65126Y6807
X52324Y11328
X50089Y6350
X80112Y6502
X63906Y5486
X67310Y13208
X66599Y9754
X65126Y13716
X65126Y9754
X32563Y7112
X48565Y3912
X67564Y5080
X43840Y8992
X54559Y8788
X53848Y9804
X49174Y11074
X50089Y11582
X47549Y9500
X46685Y8941
M30