G04 EAGLE Gerber X2 export*
%TF.Part,Single*%
%TF.FileFunction,Soldermask,Top*%
%TF.FilePolarity,Negative*%
%TF.GenerationSoftware,Autodesk,EAGLE,8.6.3*%
%TF.CreationDate,2018-02-18T17:46:12Z*%
G75*
%MOMM*%
%FSLAX34Y34*%
%LPD*%
%AMOC8*
5,1,8,0,0,1.08239X$1,22.5*%
G01*
%ADD10C,3.378200*%
%ADD11R,1.303200X1.203200*%
%ADD12R,1.203200X1.303200*%
%ADD13R,1.003200X1.003200*%
%ADD14R,1.403200X1.003200*%
%ADD15C,2.082800*%
%ADD16R,1.703200X1.203200*%
%ADD17R,2.203200X1.203200*%
%ADD18C,2.403200*%
%ADD19R,1.003200X0.553200*%
%ADD20R,2.235200X2.235200*%
%ADD21C,2.235200*%
%ADD22R,1.270000X0.457200*%
%ADD23R,2.082800X2.082800*%
%ADD24R,0.853200X2.403200*%
%ADD25R,0.903200X1.703200*%
%ADD26R,1.703200X0.903200*%
%ADD27R,1.553200X0.603200*%
%ADD28R,2.103200X2.003200*%
%ADD29R,2.103200X4.503200*%
%ADD30C,0.903200*%
%ADD31R,1.003200X1.103200*%
%ADD32R,1.003200X1.403200*%
%ADD33R,1.103200X1.203200*%
%ADD34C,1.553200*%
%ADD35C,1.309600*%


D10*
X215900Y88900D03*
X710438Y88900D03*
D11*
X573904Y48768D03*
X556904Y48768D03*
D12*
X459652Y41496D03*
X459652Y58496D03*
D11*
X426076Y134620D03*
X409076Y134620D03*
X576716Y88392D03*
X593716Y88392D03*
D12*
X580644Y119752D03*
X580644Y102752D03*
D13*
X594360Y135516D03*
X594360Y120516D03*
D12*
X639064Y67700D03*
X639064Y84700D03*
D11*
X64380Y23876D03*
X47380Y23876D03*
D12*
X625348Y67700D03*
X625348Y84700D03*
D13*
X610736Y54356D03*
X625736Y54356D03*
D14*
X610616Y84692D03*
X610616Y66692D03*
D12*
X669036Y84700D03*
X669036Y67700D03*
X387604Y96148D03*
X387604Y113148D03*
D15*
X762000Y165100D03*
X736600Y165100D03*
X711200Y165100D03*
X685800Y165100D03*
X660400Y165100D03*
X635000Y165100D03*
X609600Y165100D03*
X584200Y165100D03*
X558800Y165100D03*
X533400Y165100D03*
X508000Y165100D03*
X482600Y165100D03*
X457200Y165100D03*
X431800Y165100D03*
X406400Y165100D03*
X381000Y165100D03*
X355600Y165100D03*
X330200Y165100D03*
X304800Y165100D03*
X279400Y165100D03*
X279400Y12700D03*
X304800Y12700D03*
X330200Y12700D03*
X355600Y12700D03*
X381000Y12700D03*
X406400Y12700D03*
X431800Y12700D03*
X457200Y12700D03*
X482600Y12700D03*
X508000Y12700D03*
X533400Y12700D03*
X558800Y12700D03*
X584200Y12700D03*
X609600Y12700D03*
X635000Y12700D03*
X660400Y12700D03*
X685800Y12700D03*
X711200Y12700D03*
X736600Y12700D03*
X762000Y12700D03*
X152400Y12700D03*
X177800Y12700D03*
X203200Y12700D03*
X228600Y12700D03*
X254000Y12700D03*
D16*
X621794Y132338D03*
D17*
X624334Y117348D03*
D18*
X643504Y117348D02*
X658504Y117348D01*
D16*
X621794Y102358D03*
D19*
G36*
X514893Y32133D02*
X507801Y39225D01*
X511713Y43137D01*
X518805Y36045D01*
X514893Y32133D01*
G37*
G36*
X519489Y36729D02*
X512397Y43821D01*
X516309Y47733D01*
X523401Y40641D01*
X519489Y36729D01*
G37*
G36*
X524086Y41325D02*
X516994Y48417D01*
X520906Y52329D01*
X527998Y45237D01*
X524086Y41325D01*
G37*
G36*
X528682Y45921D02*
X521590Y53013D01*
X525502Y56925D01*
X532594Y49833D01*
X528682Y45921D01*
G37*
G36*
X533278Y50518D02*
X526186Y57610D01*
X530098Y61522D01*
X537190Y54430D01*
X533278Y50518D01*
G37*
G36*
X537874Y55114D02*
X530782Y62206D01*
X534694Y66118D01*
X541786Y59026D01*
X537874Y55114D01*
G37*
G36*
X539290Y70714D02*
X546382Y63622D01*
X542470Y59710D01*
X535378Y66802D01*
X539290Y70714D01*
G37*
G36*
X543887Y75310D02*
X550979Y68218D01*
X547067Y64306D01*
X539975Y71398D01*
X543887Y75310D01*
G37*
G36*
X548483Y79906D02*
X555575Y72814D01*
X551663Y68902D01*
X544571Y75994D01*
X548483Y79906D01*
G37*
G36*
X553079Y84503D02*
X560171Y77411D01*
X556259Y73499D01*
X549167Y80591D01*
X553079Y84503D01*
G37*
G36*
X557675Y89099D02*
X564767Y82007D01*
X560855Y78095D01*
X553763Y85187D01*
X557675Y89099D01*
G37*
G36*
X564767Y95793D02*
X557675Y88701D01*
X553763Y92613D01*
X560855Y99705D01*
X564767Y95793D01*
G37*
G36*
X560171Y100389D02*
X553079Y93297D01*
X549167Y97209D01*
X556259Y104301D01*
X560171Y100389D01*
G37*
G36*
X555575Y104986D02*
X548483Y97894D01*
X544571Y101806D01*
X551663Y108898D01*
X555575Y104986D01*
G37*
G36*
X550979Y109582D02*
X543887Y102490D01*
X539975Y106402D01*
X547067Y113494D01*
X550979Y109582D01*
G37*
G36*
X546382Y114178D02*
X539290Y107086D01*
X535378Y110998D01*
X542470Y118090D01*
X546382Y114178D01*
G37*
G36*
X541786Y118774D02*
X534694Y111682D01*
X530782Y115594D01*
X537874Y122686D01*
X541786Y118774D01*
G37*
G36*
X526186Y120190D02*
X533278Y127282D01*
X537190Y123370D01*
X530098Y116278D01*
X526186Y120190D01*
G37*
G36*
X521590Y124787D02*
X528682Y131879D01*
X532594Y127967D01*
X525502Y120875D01*
X521590Y124787D01*
G37*
G36*
X516994Y129383D02*
X524086Y136475D01*
X527998Y132563D01*
X520906Y125471D01*
X516994Y129383D01*
G37*
G36*
X512397Y133979D02*
X519489Y141071D01*
X523401Y137159D01*
X516309Y130067D01*
X512397Y133979D01*
G37*
G36*
X507801Y138575D02*
X514893Y145667D01*
X518805Y141755D01*
X511713Y134663D01*
X507801Y138575D01*
G37*
G36*
X501107Y145667D02*
X508199Y138575D01*
X504287Y134663D01*
X497195Y141755D01*
X501107Y145667D01*
G37*
G36*
X496511Y141071D02*
X503603Y133979D01*
X499691Y130067D01*
X492599Y137159D01*
X496511Y141071D01*
G37*
G36*
X491914Y136475D02*
X499006Y129383D01*
X495094Y125471D01*
X488002Y132563D01*
X491914Y136475D01*
G37*
G36*
X487318Y131879D02*
X494410Y124787D01*
X490498Y120875D01*
X483406Y127967D01*
X487318Y131879D01*
G37*
G36*
X482722Y127282D02*
X489814Y120190D01*
X485902Y116278D01*
X478810Y123370D01*
X482722Y127282D01*
G37*
G36*
X478126Y122686D02*
X485218Y115594D01*
X481306Y111682D01*
X474214Y118774D01*
X478126Y122686D01*
G37*
G36*
X476710Y107086D02*
X469618Y114178D01*
X473530Y118090D01*
X480622Y110998D01*
X476710Y107086D01*
G37*
G36*
X472113Y102490D02*
X465021Y109582D01*
X468933Y113494D01*
X476025Y106402D01*
X472113Y102490D01*
G37*
G36*
X467517Y97894D02*
X460425Y104986D01*
X464337Y108898D01*
X471429Y101806D01*
X467517Y97894D01*
G37*
G36*
X462921Y93297D02*
X455829Y100389D01*
X459741Y104301D01*
X466833Y97209D01*
X462921Y93297D01*
G37*
G36*
X458325Y88701D02*
X451233Y95793D01*
X455145Y99705D01*
X462237Y92613D01*
X458325Y88701D01*
G37*
G36*
X451233Y82007D02*
X458325Y89099D01*
X462237Y85187D01*
X455145Y78095D01*
X451233Y82007D01*
G37*
G36*
X455829Y77411D02*
X462921Y84503D01*
X466833Y80591D01*
X459741Y73499D01*
X455829Y77411D01*
G37*
G36*
X460425Y72814D02*
X467517Y79906D01*
X471429Y75994D01*
X464337Y68902D01*
X460425Y72814D01*
G37*
G36*
X465021Y68218D02*
X472113Y75310D01*
X476025Y71398D01*
X468933Y64306D01*
X465021Y68218D01*
G37*
G36*
X469618Y63622D02*
X476710Y70714D01*
X480622Y66802D01*
X473530Y59710D01*
X469618Y63622D01*
G37*
G36*
X474214Y59026D02*
X481306Y66118D01*
X485218Y62206D01*
X478126Y55114D01*
X474214Y59026D01*
G37*
G36*
X489814Y57610D02*
X482722Y50518D01*
X478810Y54430D01*
X485902Y61522D01*
X489814Y57610D01*
G37*
G36*
X494410Y53013D02*
X487318Y45921D01*
X483406Y49833D01*
X490498Y56925D01*
X494410Y53013D01*
G37*
G36*
X499006Y48417D02*
X491914Y41325D01*
X488002Y45237D01*
X495094Y52329D01*
X499006Y48417D01*
G37*
G36*
X503603Y43821D02*
X496511Y36729D01*
X492599Y40641D01*
X499691Y47733D01*
X503603Y43821D01*
G37*
G36*
X508199Y39225D02*
X501107Y32133D01*
X497195Y36045D01*
X504287Y43137D01*
X508199Y39225D01*
G37*
D11*
X365116Y121412D03*
X348116Y121412D03*
D14*
X587756Y50436D03*
X587756Y68436D03*
D20*
X154940Y149860D03*
D21*
X154940Y114860D03*
X154940Y79860D03*
X154940Y44860D03*
D22*
X335788Y60452D03*
X335788Y55372D03*
X335788Y50292D03*
X335788Y45212D03*
X364236Y45212D03*
X364236Y50292D03*
X364236Y55372D03*
X364236Y60452D03*
D11*
X296808Y72644D03*
X313808Y72644D03*
D23*
X254000Y127000D03*
D15*
X254000Y101600D03*
X254000Y76200D03*
X254000Y50800D03*
D11*
X313300Y45720D03*
X296300Y45720D03*
X296300Y59436D03*
X313300Y59436D03*
D24*
X773144Y48548D03*
X773144Y85548D03*
D25*
X8184Y46696D03*
X20184Y46696D03*
X32184Y46696D03*
X44184Y46696D03*
X56184Y46696D03*
D26*
X72684Y59196D03*
X72684Y71196D03*
X72684Y83196D03*
X72684Y95196D03*
X72684Y107196D03*
X72684Y119196D03*
D25*
X56184Y131696D03*
X44184Y131696D03*
X32184Y131696D03*
X20184Y131696D03*
X8184Y131696D03*
D27*
X821102Y54356D03*
X821102Y47856D03*
X821102Y67356D03*
X821102Y60856D03*
D28*
X847852Y17506D03*
X847852Y91206D03*
D29*
X847852Y54356D03*
D27*
X821102Y41356D03*
D30*
X823352Y33606D03*
X823352Y75106D03*
D20*
X813308Y156972D03*
D21*
X813308Y121972D03*
D31*
X347116Y77884D03*
X366116Y77884D03*
X356616Y98884D03*
D11*
X39252Y157480D03*
X56252Y157480D03*
D13*
X23756Y157480D03*
X8756Y157480D03*
D11*
X15376Y23876D03*
X32376Y23876D03*
X233308Y148844D03*
X250308Y148844D03*
D32*
X232808Y164084D03*
X250808Y164084D03*
D33*
X406568Y95656D03*
X427568Y95656D03*
X427568Y114656D03*
X406568Y114656D03*
X289888Y130428D03*
X289888Y114428D03*
X330888Y114428D03*
X330888Y130428D03*
X386916Y61340D03*
X386916Y45340D03*
X427916Y45340D03*
X427916Y61340D03*
D34*
X782828Y109728D03*
D35*
X800100Y38608D03*
M02*
