G04 EAGLE Gerber X2 export*
%TF.Part,Single*%
%TF.FileFunction,Copper,L15,Inr,Mixed*%
%TF.FilePolarity,Positive*%
%TF.GenerationSoftware,Autodesk,EAGLE,8.7.0*%
%TF.CreationDate,2018-03-15T02:38:42Z*%
G75*
%MOMM*%
%FSLAX34Y34*%
%LPD*%
%AMOC8*
5,1,8,0,0,1.08239X$1,22.5*%
G01*
%ADD10C,1.524000*%
%ADD11C,1.800000*%
%ADD12C,0.711200*%
%ADD13C,0.406400*%
%ADD14C,0.203200*%
%ADD15C,0.736600*%
%ADD16C,1.270000*%
%ADD17C,1.350000*%
%ADD18C,1.106400*%
%ADD19C,0.609600*%
%ADD20C,0.254000*%
%ADD21C,0.756400*%

G36*
X148323Y2973D02*
X148323Y2973D01*
X148409Y2976D01*
X148463Y2993D01*
X148519Y3001D01*
X148598Y3036D01*
X148680Y3062D01*
X148727Y3094D01*
X148779Y3117D01*
X148845Y3173D01*
X148916Y3221D01*
X148953Y3264D01*
X148996Y3301D01*
X149044Y3372D01*
X149099Y3438D01*
X149122Y3490D01*
X149154Y3537D01*
X149180Y3619D01*
X149215Y3698D01*
X149223Y3754D01*
X149240Y3808D01*
X149242Y3894D01*
X149254Y3980D01*
X149246Y4036D01*
X149247Y4092D01*
X149225Y4176D01*
X149213Y4261D01*
X149190Y4313D01*
X149176Y4367D01*
X149131Y4442D01*
X149096Y4520D01*
X149059Y4563D01*
X149030Y4612D01*
X148968Y4671D01*
X148912Y4737D01*
X148870Y4763D01*
X148823Y4807D01*
X148694Y4873D01*
X148627Y4914D01*
X147508Y5378D01*
X145078Y7808D01*
X143763Y10982D01*
X143763Y14418D01*
X145078Y17592D01*
X147508Y20022D01*
X149642Y20906D01*
X149716Y20950D01*
X149795Y20985D01*
X149838Y21022D01*
X149887Y21051D01*
X149946Y21113D01*
X150012Y21169D01*
X150043Y21216D01*
X150082Y21257D01*
X150122Y21334D01*
X150169Y21405D01*
X150186Y21459D01*
X150213Y21510D01*
X150229Y21594D01*
X150255Y21676D01*
X150257Y21733D01*
X150268Y21789D01*
X150260Y21874D01*
X150262Y21960D01*
X150248Y22015D01*
X150243Y22072D01*
X150212Y22152D01*
X150191Y22235D01*
X150162Y22284D01*
X150141Y22337D01*
X150089Y22406D01*
X150045Y22480D01*
X150004Y22519D01*
X149969Y22564D01*
X149901Y22616D01*
X149838Y22674D01*
X149787Y22700D01*
X149742Y22734D01*
X149661Y22765D01*
X149585Y22804D01*
X149536Y22812D01*
X149476Y22835D01*
X149331Y22846D01*
X149254Y22859D01*
X139366Y22859D01*
X106679Y55546D01*
X106679Y57121D01*
X106667Y57208D01*
X106664Y57295D01*
X106647Y57348D01*
X106639Y57403D01*
X106604Y57483D01*
X106577Y57566D01*
X106549Y57605D01*
X106523Y57662D01*
X106427Y57776D01*
X106382Y57839D01*
X104139Y60082D01*
X104139Y62238D01*
X104135Y62267D01*
X104138Y62296D01*
X104115Y62407D01*
X104099Y62519D01*
X104087Y62546D01*
X104082Y62575D01*
X104029Y62675D01*
X103983Y62778D01*
X103964Y62801D01*
X103951Y62827D01*
X103873Y62909D01*
X103800Y62995D01*
X103775Y63012D01*
X103755Y63033D01*
X103657Y63090D01*
X103563Y63153D01*
X103535Y63162D01*
X103510Y63177D01*
X103400Y63205D01*
X103292Y63239D01*
X103262Y63240D01*
X103234Y63247D01*
X103121Y63243D01*
X103008Y63246D01*
X102979Y63239D01*
X102950Y63238D01*
X102842Y63203D01*
X102733Y63174D01*
X102707Y63159D01*
X102679Y63150D01*
X102615Y63105D01*
X102488Y63029D01*
X102445Y62983D01*
X102406Y62955D01*
X101390Y61939D01*
X101338Y61870D01*
X101278Y61806D01*
X101252Y61756D01*
X101219Y61712D01*
X101188Y61630D01*
X101148Y61553D01*
X101140Y61505D01*
X101118Y61447D01*
X101106Y61299D01*
X101093Y61221D01*
X101093Y58050D01*
X98414Y55371D01*
X94626Y55371D01*
X91947Y58050D01*
X91947Y61838D01*
X94626Y64517D01*
X97797Y64517D01*
X97884Y64529D01*
X97972Y64532D01*
X98024Y64549D01*
X98079Y64557D01*
X98159Y64592D01*
X98242Y64619D01*
X98281Y64647D01*
X98338Y64673D01*
X98452Y64769D01*
X98515Y64814D01*
X106854Y73153D01*
X115650Y73153D01*
X124969Y63834D01*
X124969Y52571D01*
X124981Y52484D01*
X124984Y52396D01*
X125001Y52344D01*
X125009Y52289D01*
X125044Y52209D01*
X125071Y52126D01*
X125099Y52087D01*
X125125Y52030D01*
X125221Y51916D01*
X125266Y51853D01*
X145833Y31286D01*
X145902Y31234D01*
X145966Y31174D01*
X146016Y31148D01*
X146060Y31115D01*
X146142Y31084D01*
X146219Y31044D01*
X146267Y31036D01*
X146325Y31014D01*
X146473Y31002D01*
X146551Y30989D01*
X260942Y30989D01*
X260971Y30993D01*
X261000Y30990D01*
X261111Y31013D01*
X261224Y31029D01*
X261250Y31041D01*
X261279Y31046D01*
X261380Y31098D01*
X261483Y31145D01*
X261505Y31164D01*
X261531Y31177D01*
X261614Y31255D01*
X261700Y31328D01*
X261716Y31353D01*
X261738Y31373D01*
X261795Y31471D01*
X261858Y31565D01*
X261867Y31593D01*
X261881Y31618D01*
X261909Y31728D01*
X261943Y31836D01*
X261944Y31866D01*
X261951Y31894D01*
X261948Y32007D01*
X261951Y32120D01*
X261943Y32149D01*
X261942Y32178D01*
X261907Y32286D01*
X261879Y32395D01*
X261864Y32421D01*
X261855Y32449D01*
X261809Y32512D01*
X261734Y32640D01*
X261688Y32683D01*
X261660Y32722D01*
X252317Y42065D01*
X252292Y42084D01*
X252272Y42107D01*
X252205Y42149D01*
X252089Y42236D01*
X252029Y42259D01*
X251987Y42285D01*
X249108Y43478D01*
X246678Y45908D01*
X246279Y46871D01*
X246279Y46872D01*
X246278Y46873D01*
X246209Y46990D01*
X246135Y47115D01*
X246134Y47116D01*
X246133Y47118D01*
X246029Y47215D01*
X245928Y47311D01*
X245927Y47311D01*
X245926Y47312D01*
X245800Y47377D01*
X245675Y47441D01*
X245674Y47441D01*
X245672Y47442D01*
X245658Y47444D01*
X245397Y47496D01*
X245366Y47493D01*
X245341Y47497D01*
X168416Y47497D01*
X168329Y47485D01*
X168242Y47482D01*
X168189Y47465D01*
X168134Y47457D01*
X168055Y47422D01*
X167971Y47395D01*
X167932Y47367D01*
X167875Y47341D01*
X167762Y47245D01*
X167698Y47200D01*
X165254Y44756D01*
X165202Y44686D01*
X165142Y44622D01*
X165116Y44573D01*
X165083Y44529D01*
X165052Y44447D01*
X165012Y44369D01*
X165004Y44322D01*
X164982Y44263D01*
X164970Y44115D01*
X164957Y44038D01*
X164957Y42868D01*
X163432Y39186D01*
X160614Y36368D01*
X156932Y34843D01*
X152948Y34843D01*
X149266Y36368D01*
X146448Y39186D01*
X144923Y42868D01*
X144923Y46852D01*
X146448Y50534D01*
X149266Y53352D01*
X152948Y54877D01*
X154118Y54877D01*
X154205Y54889D01*
X154292Y54892D01*
X154345Y54909D01*
X154400Y54917D01*
X154479Y54952D01*
X154563Y54979D01*
X154602Y55007D01*
X154659Y55033D01*
X154772Y55129D01*
X154836Y55174D01*
X160771Y61109D01*
X163479Y62231D01*
X251909Y62231D01*
X254617Y61109D01*
X256551Y59175D01*
X256575Y59157D01*
X256595Y59133D01*
X256662Y59092D01*
X256778Y59005D01*
X256838Y58982D01*
X256880Y58955D01*
X258892Y58122D01*
X261322Y55692D01*
X262515Y52813D01*
X262530Y52786D01*
X262540Y52757D01*
X262585Y52693D01*
X262659Y52568D01*
X262706Y52524D01*
X262735Y52483D01*
X268946Y46272D01*
X269016Y46220D01*
X269080Y46160D01*
X269129Y46134D01*
X269173Y46101D01*
X269255Y46070D01*
X269333Y46030D01*
X269380Y46022D01*
X269439Y46000D01*
X269587Y45988D01*
X269664Y45975D01*
X322580Y45975D01*
X322638Y45983D01*
X322696Y45981D01*
X322778Y46003D01*
X322862Y46015D01*
X322915Y46038D01*
X322971Y46053D01*
X323044Y46096D01*
X323121Y46131D01*
X323166Y46169D01*
X323216Y46198D01*
X323274Y46260D01*
X323338Y46314D01*
X323370Y46363D01*
X323410Y46406D01*
X323449Y46481D01*
X323496Y46551D01*
X323513Y46607D01*
X323540Y46659D01*
X323551Y46727D01*
X323581Y46822D01*
X323584Y46922D01*
X323595Y46990D01*
X323595Y66265D01*
X323583Y66352D01*
X323580Y66439D01*
X323563Y66492D01*
X323555Y66547D01*
X323520Y66627D01*
X323493Y66710D01*
X323465Y66749D01*
X323439Y66806D01*
X323343Y66920D01*
X323298Y66983D01*
X321055Y69226D01*
X321055Y73014D01*
X323734Y75693D01*
X327522Y75693D01*
X330201Y73014D01*
X330201Y69226D01*
X327958Y66983D01*
X327906Y66913D01*
X327846Y66850D01*
X327820Y66800D01*
X327787Y66756D01*
X327756Y66674D01*
X327716Y66596D01*
X327708Y66549D01*
X327686Y66490D01*
X327674Y66343D01*
X327661Y66265D01*
X327661Y46990D01*
X327669Y46932D01*
X327667Y46874D01*
X327689Y46792D01*
X327701Y46708D01*
X327724Y46655D01*
X327739Y46599D01*
X327782Y46526D01*
X327817Y46449D01*
X327855Y46404D01*
X327884Y46354D01*
X327946Y46296D01*
X328000Y46232D01*
X328049Y46200D01*
X328092Y46160D01*
X328167Y46121D01*
X328237Y46074D01*
X328293Y46057D01*
X328345Y46030D01*
X328413Y46019D01*
X328508Y45989D01*
X328608Y45986D01*
X328676Y45975D01*
X370303Y45975D01*
X370333Y45979D01*
X370362Y45976D01*
X370473Y45999D01*
X370585Y46015D01*
X370612Y46027D01*
X370640Y46032D01*
X370741Y46085D01*
X370844Y46131D01*
X370867Y46150D01*
X370893Y46163D01*
X370975Y46241D01*
X371061Y46314D01*
X371078Y46339D01*
X371099Y46359D01*
X371156Y46457D01*
X371219Y46551D01*
X371228Y46579D01*
X371243Y46604D01*
X371271Y46714D01*
X371305Y46822D01*
X371305Y46852D01*
X371313Y46880D01*
X371309Y46993D01*
X371312Y47106D01*
X371305Y47135D01*
X371304Y47164D01*
X371269Y47272D01*
X371240Y47381D01*
X371225Y47407D01*
X371216Y47435D01*
X371171Y47499D01*
X371095Y47626D01*
X371049Y47669D01*
X371021Y47708D01*
X370331Y48398D01*
X370331Y52186D01*
X372799Y54654D01*
X372834Y54701D01*
X372877Y54741D01*
X372920Y54814D01*
X372970Y54881D01*
X372991Y54936D01*
X373021Y54986D01*
X373041Y55068D01*
X373071Y55147D01*
X373076Y55205D01*
X373091Y55262D01*
X373088Y55346D01*
X373095Y55430D01*
X373083Y55488D01*
X373082Y55546D01*
X373056Y55626D01*
X373039Y55709D01*
X373012Y55761D01*
X372994Y55817D01*
X372954Y55873D01*
X372908Y55961D01*
X372839Y56034D01*
X372799Y56090D01*
X371855Y57034D01*
X371855Y60822D01*
X374534Y63501D01*
X378322Y63501D01*
X381001Y60822D01*
X381001Y57034D01*
X378533Y54566D01*
X378498Y54519D01*
X378455Y54479D01*
X378412Y54406D01*
X378362Y54339D01*
X378341Y54284D01*
X378311Y54234D01*
X378291Y54152D01*
X378261Y54073D01*
X378256Y54015D01*
X378241Y53958D01*
X378244Y53874D01*
X378237Y53790D01*
X378249Y53732D01*
X378250Y53674D01*
X378276Y53594D01*
X378293Y53511D01*
X378320Y53459D01*
X378338Y53403D01*
X378378Y53347D01*
X378424Y53259D01*
X378493Y53186D01*
X378533Y53130D01*
X379041Y52622D01*
X379111Y52569D01*
X379174Y52510D01*
X379224Y52484D01*
X379268Y52451D01*
X379350Y52420D01*
X379428Y52380D01*
X379475Y52372D01*
X379534Y52350D01*
X379681Y52338D01*
X379759Y52325D01*
X386849Y52325D01*
X386936Y52337D01*
X387024Y52340D01*
X387076Y52357D01*
X387131Y52365D01*
X387211Y52400D01*
X387294Y52427D01*
X387333Y52455D01*
X387390Y52481D01*
X387504Y52577D01*
X387567Y52622D01*
X397938Y62993D01*
X463049Y62993D01*
X463136Y63005D01*
X463224Y63008D01*
X463276Y63025D01*
X463331Y63033D01*
X463411Y63068D01*
X463494Y63095D01*
X463533Y63123D01*
X463590Y63149D01*
X463704Y63245D01*
X463767Y63290D01*
X476170Y75693D01*
X484857Y75693D01*
X484887Y75697D01*
X484916Y75694D01*
X485027Y75717D01*
X485139Y75733D01*
X485166Y75745D01*
X485194Y75750D01*
X485295Y75803D01*
X485398Y75849D01*
X485421Y75868D01*
X485447Y75881D01*
X485529Y75959D01*
X485615Y76032D01*
X485632Y76057D01*
X485653Y76077D01*
X485710Y76175D01*
X485773Y76269D01*
X485782Y76297D01*
X485797Y76322D01*
X485825Y76432D01*
X485859Y76540D01*
X485859Y76570D01*
X485867Y76598D01*
X485863Y76711D01*
X485866Y76824D01*
X485859Y76853D01*
X485858Y76882D01*
X485823Y76990D01*
X485794Y77099D01*
X485779Y77125D01*
X485770Y77153D01*
X485725Y77217D01*
X485649Y77344D01*
X485603Y77387D01*
X485575Y77426D01*
X485139Y77862D01*
X485139Y81650D01*
X485575Y82086D01*
X485593Y82110D01*
X485615Y82129D01*
X485678Y82223D01*
X485746Y82313D01*
X485757Y82341D01*
X485773Y82365D01*
X485807Y82473D01*
X485847Y82579D01*
X485850Y82608D01*
X485859Y82636D01*
X485862Y82750D01*
X485871Y82862D01*
X485865Y82891D01*
X485866Y82920D01*
X485837Y83030D01*
X485815Y83141D01*
X485802Y83167D01*
X485794Y83195D01*
X485736Y83293D01*
X485684Y83393D01*
X485664Y83415D01*
X485649Y83440D01*
X485566Y83517D01*
X485488Y83599D01*
X485463Y83614D01*
X485442Y83634D01*
X485341Y83686D01*
X485243Y83743D01*
X485215Y83750D01*
X485188Y83764D01*
X485111Y83777D01*
X484968Y83813D01*
X484905Y83811D01*
X484857Y83819D01*
X480706Y83819D01*
X478027Y86498D01*
X478027Y89408D01*
X478019Y89466D01*
X478021Y89524D01*
X477999Y89606D01*
X477987Y89690D01*
X477964Y89743D01*
X477949Y89799D01*
X477906Y89872D01*
X477871Y89949D01*
X477833Y89994D01*
X477804Y90044D01*
X477742Y90102D01*
X477688Y90166D01*
X477639Y90198D01*
X477596Y90238D01*
X477521Y90277D01*
X477451Y90324D01*
X477395Y90341D01*
X477343Y90368D01*
X477275Y90379D01*
X477180Y90409D01*
X477080Y90412D01*
X477012Y90423D01*
X473594Y90423D01*
X473158Y90859D01*
X473134Y90877D01*
X473115Y90899D01*
X473021Y90962D01*
X472931Y91030D01*
X472903Y91041D01*
X472879Y91057D01*
X472771Y91091D01*
X472665Y91131D01*
X472636Y91134D01*
X472608Y91143D01*
X472494Y91146D01*
X472382Y91155D01*
X472353Y91149D01*
X472324Y91150D01*
X472214Y91121D01*
X472103Y91099D01*
X472077Y91086D01*
X472049Y91078D01*
X471951Y91020D01*
X471851Y90968D01*
X471829Y90948D01*
X471804Y90933D01*
X471727Y90850D01*
X471645Y90772D01*
X471630Y90747D01*
X471610Y90726D01*
X471558Y90625D01*
X471501Y90527D01*
X471494Y90499D01*
X471480Y90472D01*
X471467Y90395D01*
X471431Y90252D01*
X471433Y90189D01*
X471425Y90141D01*
X471425Y87514D01*
X468746Y84835D01*
X464958Y84835D01*
X462279Y87514D01*
X462279Y91302D01*
X464958Y93981D01*
X468746Y93981D01*
X469182Y93545D01*
X469206Y93527D01*
X469225Y93505D01*
X469319Y93442D01*
X469409Y93374D01*
X469437Y93363D01*
X469461Y93347D01*
X469569Y93313D01*
X469675Y93273D01*
X469704Y93270D01*
X469732Y93261D01*
X469846Y93258D01*
X469958Y93249D01*
X469987Y93255D01*
X470016Y93254D01*
X470126Y93283D01*
X470237Y93305D01*
X470263Y93318D01*
X470291Y93326D01*
X470389Y93384D01*
X470489Y93436D01*
X470511Y93456D01*
X470536Y93471D01*
X470613Y93554D01*
X470695Y93632D01*
X470710Y93657D01*
X470730Y93678D01*
X470782Y93779D01*
X470839Y93877D01*
X470846Y93905D01*
X470860Y93932D01*
X470873Y94009D01*
X470909Y94152D01*
X470907Y94215D01*
X470915Y94263D01*
X470915Y96890D01*
X473594Y99569D01*
X477382Y99569D01*
X480061Y96890D01*
X480061Y93980D01*
X480069Y93922D01*
X480067Y93864D01*
X480089Y93782D01*
X480101Y93698D01*
X480124Y93645D01*
X480139Y93589D01*
X480182Y93516D01*
X480217Y93439D01*
X480255Y93394D01*
X480284Y93344D01*
X480346Y93286D01*
X480400Y93222D01*
X480449Y93190D01*
X480492Y93150D01*
X480567Y93111D01*
X480637Y93064D01*
X480693Y93047D01*
X480745Y93020D01*
X480813Y93009D01*
X480908Y92979D01*
X481008Y92976D01*
X481076Y92965D01*
X484494Y92965D01*
X487173Y90286D01*
X487173Y86498D01*
X486737Y86062D01*
X486719Y86038D01*
X486697Y86019D01*
X486634Y85925D01*
X486566Y85835D01*
X486555Y85807D01*
X486539Y85783D01*
X486505Y85675D01*
X486465Y85569D01*
X486462Y85540D01*
X486453Y85512D01*
X486450Y85398D01*
X486441Y85286D01*
X486447Y85257D01*
X486446Y85228D01*
X486475Y85118D01*
X486497Y85007D01*
X486510Y84981D01*
X486518Y84953D01*
X486576Y84855D01*
X486628Y84755D01*
X486648Y84733D01*
X486663Y84708D01*
X486746Y84631D01*
X486824Y84549D01*
X486849Y84534D01*
X486870Y84514D01*
X486971Y84462D01*
X487069Y84405D01*
X487097Y84398D01*
X487124Y84384D01*
X487201Y84371D01*
X487344Y84335D01*
X487407Y84337D01*
X487455Y84329D01*
X491606Y84329D01*
X494285Y81650D01*
X494285Y77862D01*
X493849Y77426D01*
X493831Y77402D01*
X493809Y77383D01*
X493746Y77289D01*
X493678Y77199D01*
X493667Y77171D01*
X493651Y77147D01*
X493617Y77039D01*
X493577Y76933D01*
X493574Y76904D01*
X493565Y76876D01*
X493562Y76762D01*
X493553Y76650D01*
X493559Y76621D01*
X493558Y76592D01*
X493587Y76482D01*
X493609Y76371D01*
X493622Y76345D01*
X493630Y76317D01*
X493688Y76219D01*
X493740Y76119D01*
X493760Y76097D01*
X493775Y76072D01*
X493858Y75995D01*
X493936Y75913D01*
X493961Y75898D01*
X493982Y75878D01*
X494083Y75826D01*
X494181Y75769D01*
X494209Y75762D01*
X494236Y75748D01*
X494313Y75735D01*
X494456Y75699D01*
X494519Y75701D01*
X494567Y75693D01*
X500888Y75693D01*
X500946Y75701D01*
X501004Y75699D01*
X501086Y75721D01*
X501170Y75733D01*
X501223Y75756D01*
X501279Y75771D01*
X501352Y75814D01*
X501429Y75849D01*
X501474Y75887D01*
X501524Y75916D01*
X501582Y75978D01*
X501646Y76032D01*
X501678Y76081D01*
X501718Y76124D01*
X501757Y76199D01*
X501804Y76269D01*
X501821Y76325D01*
X501848Y76377D01*
X501859Y76445D01*
X501889Y76540D01*
X501892Y76640D01*
X501903Y76708D01*
X501903Y78094D01*
X504582Y80773D01*
X508370Y80773D01*
X511049Y78094D01*
X511049Y74306D01*
X508370Y71627D01*
X478275Y71627D01*
X478188Y71615D01*
X478100Y71612D01*
X478048Y71595D01*
X477993Y71587D01*
X477913Y71552D01*
X477830Y71525D01*
X477791Y71497D01*
X477734Y71471D01*
X477620Y71375D01*
X477557Y71330D01*
X465154Y58927D01*
X400043Y58927D01*
X399956Y58915D01*
X399868Y58912D01*
X399816Y58895D01*
X399761Y58887D01*
X399681Y58852D01*
X399598Y58825D01*
X399559Y58797D01*
X399502Y58771D01*
X399388Y58675D01*
X399325Y58630D01*
X388954Y48259D01*
X379759Y48259D01*
X379672Y48247D01*
X379585Y48244D01*
X379532Y48227D01*
X379477Y48219D01*
X379397Y48184D01*
X379314Y48157D01*
X379275Y48129D01*
X379218Y48103D01*
X379105Y48007D01*
X379041Y47962D01*
X378787Y47708D01*
X378769Y47684D01*
X378747Y47665D01*
X378684Y47571D01*
X378616Y47481D01*
X378605Y47453D01*
X378589Y47429D01*
X378555Y47321D01*
X378515Y47215D01*
X378512Y47186D01*
X378503Y47158D01*
X378500Y47045D01*
X378491Y46932D01*
X378497Y46903D01*
X378496Y46874D01*
X378525Y46764D01*
X378547Y46653D01*
X378560Y46627D01*
X378568Y46599D01*
X378626Y46501D01*
X378678Y46401D01*
X378698Y46379D01*
X378713Y46354D01*
X378796Y46277D01*
X378874Y46195D01*
X378899Y46180D01*
X378920Y46160D01*
X379021Y46108D01*
X379119Y46051D01*
X379147Y46044D01*
X379174Y46030D01*
X379251Y46017D01*
X379394Y45981D01*
X379457Y45983D01*
X379505Y45975D01*
X442439Y45975D01*
X442469Y45979D01*
X442498Y45976D01*
X442609Y45999D01*
X442721Y46015D01*
X442748Y46027D01*
X442776Y46032D01*
X442877Y46085D01*
X442980Y46131D01*
X443003Y46150D01*
X443029Y46163D01*
X443111Y46241D01*
X443197Y46314D01*
X443214Y46339D01*
X443235Y46359D01*
X443292Y46457D01*
X443355Y46551D01*
X443364Y46579D01*
X443379Y46604D01*
X443406Y46714D01*
X443441Y46822D01*
X443441Y46852D01*
X443449Y46880D01*
X443445Y46993D01*
X443448Y47106D01*
X443441Y47135D01*
X443440Y47164D01*
X443405Y47272D01*
X443376Y47381D01*
X443361Y47407D01*
X443352Y47435D01*
X443307Y47498D01*
X443231Y47626D01*
X443185Y47669D01*
X443157Y47708D01*
X440943Y49922D01*
X440943Y53710D01*
X443622Y56389D01*
X447410Y56389D01*
X449653Y54146D01*
X449723Y54094D01*
X449786Y54034D01*
X449836Y54008D01*
X449880Y53975D01*
X449962Y53944D01*
X450040Y53904D01*
X450087Y53896D01*
X450146Y53874D01*
X450293Y53862D01*
X450371Y53849D01*
X535693Y53849D01*
X535780Y53861D01*
X535868Y53864D01*
X535920Y53881D01*
X535975Y53889D01*
X536055Y53924D01*
X536138Y53951D01*
X536177Y53979D01*
X536234Y54005D01*
X536348Y54101D01*
X536411Y54146D01*
X563074Y80809D01*
X563126Y80878D01*
X563186Y80942D01*
X563212Y80992D01*
X563245Y81036D01*
X563276Y81118D01*
X563316Y81195D01*
X563324Y81243D01*
X563346Y81301D01*
X563358Y81449D01*
X563371Y81527D01*
X563371Y84045D01*
X563359Y84132D01*
X563356Y84219D01*
X563339Y84272D01*
X563331Y84327D01*
X563296Y84407D01*
X563269Y84490D01*
X563241Y84529D01*
X563215Y84586D01*
X563119Y84700D01*
X563074Y84763D01*
X560831Y87006D01*
X560831Y90794D01*
X562566Y92529D01*
X562618Y92599D01*
X562678Y92662D01*
X562704Y92712D01*
X562737Y92756D01*
X562768Y92838D01*
X562808Y92916D01*
X562816Y92963D01*
X562838Y93022D01*
X562850Y93169D01*
X562863Y93247D01*
X562863Y103473D01*
X562851Y103559D01*
X562848Y103647D01*
X562831Y103699D01*
X562823Y103754D01*
X562788Y103834D01*
X562761Y103917D01*
X562733Y103956D01*
X562707Y104014D01*
X562611Y104127D01*
X562566Y104191D01*
X539547Y127210D01*
X539477Y127262D01*
X539413Y127322D01*
X539363Y127348D01*
X539319Y127381D01*
X539238Y127412D01*
X539160Y127452D01*
X539112Y127460D01*
X539054Y127482D01*
X538906Y127494D01*
X538829Y127507D01*
X537094Y127507D01*
X535867Y128734D01*
X535797Y128786D01*
X535734Y128846D01*
X535684Y128872D01*
X535640Y128905D01*
X535558Y128936D01*
X535480Y128976D01*
X535433Y128984D01*
X535374Y129006D01*
X535227Y129018D01*
X535149Y129031D01*
X466344Y129031D01*
X466286Y129023D01*
X466228Y129025D01*
X466146Y129003D01*
X466062Y128991D01*
X466009Y128968D01*
X465953Y128953D01*
X465880Y128910D01*
X465803Y128875D01*
X465758Y128837D01*
X465708Y128808D01*
X465650Y128746D01*
X465586Y128692D01*
X465554Y128643D01*
X465514Y128600D01*
X465475Y128525D01*
X465428Y128455D01*
X465411Y128399D01*
X465384Y128347D01*
X465373Y128279D01*
X465343Y128184D01*
X465340Y128084D01*
X465329Y128016D01*
X465329Y126630D01*
X462650Y123951D01*
X458862Y123951D01*
X456183Y126630D01*
X456183Y129032D01*
X456175Y129090D01*
X456177Y129148D01*
X456155Y129230D01*
X456143Y129314D01*
X456120Y129367D01*
X456105Y129423D01*
X456062Y129496D01*
X456027Y129573D01*
X455989Y129618D01*
X455960Y129668D01*
X455898Y129726D01*
X455844Y129790D01*
X455795Y129822D01*
X455752Y129862D01*
X455677Y129901D01*
X455607Y129948D01*
X455551Y129965D01*
X455499Y129992D01*
X455431Y130003D01*
X455336Y130033D01*
X455236Y130036D01*
X455168Y130047D01*
X369685Y130047D01*
X369598Y130035D01*
X369511Y130032D01*
X369458Y130015D01*
X369403Y130007D01*
X369324Y129972D01*
X369240Y129945D01*
X369201Y129917D01*
X369144Y129891D01*
X369031Y129795D01*
X368967Y129750D01*
X366724Y127507D01*
X362936Y127507D01*
X360694Y129750D01*
X360624Y129802D01*
X360560Y129862D01*
X360511Y129888D01*
X360466Y129921D01*
X360385Y129952D01*
X360307Y129992D01*
X360259Y130000D01*
X360201Y130022D01*
X360053Y130034D01*
X359976Y130047D01*
X280082Y130047D01*
X266155Y143974D01*
X266086Y144026D01*
X266022Y144086D01*
X265972Y144112D01*
X265928Y144145D01*
X265846Y144176D01*
X265769Y144216D01*
X265721Y144224D01*
X265663Y144246D01*
X265515Y144258D01*
X265438Y144271D01*
X221950Y144271D01*
X221864Y144259D01*
X221776Y144256D01*
X221724Y144239D01*
X221669Y144231D01*
X221589Y144196D01*
X221506Y144169D01*
X221466Y144141D01*
X221409Y144115D01*
X221296Y144019D01*
X221232Y143974D01*
X218863Y141604D01*
X214969Y141604D01*
X212600Y143974D01*
X212530Y144026D01*
X212466Y144086D01*
X212417Y144112D01*
X212372Y144145D01*
X212291Y144176D01*
X212213Y144216D01*
X212165Y144224D01*
X212107Y144246D01*
X211959Y144258D01*
X211882Y144271D01*
X185667Y144271D01*
X185580Y144259D01*
X185492Y144256D01*
X185440Y144239D01*
X185385Y144231D01*
X185305Y144196D01*
X185222Y144169D01*
X185183Y144141D01*
X185126Y144115D01*
X185012Y144019D01*
X184949Y143974D01*
X169498Y128523D01*
X138021Y128523D01*
X137963Y128515D01*
X137905Y128517D01*
X137823Y128495D01*
X137740Y128483D01*
X137686Y128460D01*
X137630Y128445D01*
X137557Y128402D01*
X137480Y128367D01*
X137436Y128329D01*
X137385Y128300D01*
X137328Y128238D01*
X137263Y128184D01*
X137231Y128135D01*
X137191Y128092D01*
X137152Y128017D01*
X137106Y127947D01*
X137088Y127891D01*
X137061Y127839D01*
X137050Y127771D01*
X137020Y127676D01*
X137017Y127576D01*
X137006Y127508D01*
X137006Y67494D01*
X137013Y67440D01*
X137013Y67404D01*
X137019Y67379D01*
X137021Y67319D01*
X137038Y67267D01*
X137046Y67212D01*
X137081Y67132D01*
X137108Y67049D01*
X137136Y67010D01*
X137162Y66953D01*
X137258Y66839D01*
X137303Y66776D01*
X139701Y64378D01*
X139701Y60590D01*
X137022Y57911D01*
X133234Y57911D01*
X130555Y60590D01*
X130555Y64378D01*
X132643Y66466D01*
X132695Y66536D01*
X132755Y66600D01*
X132781Y66649D01*
X132814Y66693D01*
X132845Y66775D01*
X132885Y66853D01*
X132893Y66900D01*
X132915Y66959D01*
X132927Y67106D01*
X132940Y67184D01*
X132940Y127508D01*
X132932Y127566D01*
X132934Y127624D01*
X132912Y127706D01*
X132901Y127790D01*
X132877Y127843D01*
X132862Y127899D01*
X132819Y127972D01*
X132784Y128049D01*
X132747Y128094D01*
X132717Y128144D01*
X132655Y128202D01*
X132601Y128266D01*
X132552Y128298D01*
X132509Y128338D01*
X132434Y128377D01*
X132364Y128424D01*
X132308Y128441D01*
X132256Y128468D01*
X132188Y128479D01*
X132093Y128509D01*
X131993Y128512D01*
X131925Y128523D01*
X36242Y128523D01*
X22315Y142450D01*
X22246Y142502D01*
X22182Y142562D01*
X22132Y142588D01*
X22088Y142621D01*
X22006Y142652D01*
X21929Y142692D01*
X21881Y142700D01*
X21823Y142722D01*
X21675Y142734D01*
X21597Y142747D01*
X18426Y142747D01*
X15747Y145426D01*
X15747Y149214D01*
X18426Y151893D01*
X22214Y151893D01*
X24893Y149214D01*
X24893Y146043D01*
X24905Y145956D01*
X24908Y145868D01*
X24925Y145816D01*
X24933Y145761D01*
X24968Y145681D01*
X24995Y145598D01*
X25023Y145559D01*
X25049Y145502D01*
X25145Y145388D01*
X25190Y145325D01*
X37629Y132886D01*
X37698Y132834D01*
X37762Y132774D01*
X37812Y132748D01*
X37856Y132715D01*
X37938Y132684D01*
X38015Y132644D01*
X38063Y132636D01*
X38121Y132614D01*
X38269Y132602D01*
X38347Y132589D01*
X167393Y132589D01*
X167480Y132601D01*
X167568Y132604D01*
X167620Y132621D01*
X167675Y132629D01*
X167755Y132664D01*
X167838Y132691D01*
X167877Y132719D01*
X167934Y132745D01*
X168048Y132841D01*
X168111Y132886D01*
X183562Y148337D01*
X211882Y148337D01*
X211968Y148349D01*
X212056Y148352D01*
X212108Y148369D01*
X212163Y148377D01*
X212243Y148412D01*
X212326Y148439D01*
X212366Y148467D01*
X212423Y148493D01*
X212536Y148589D01*
X212600Y148634D01*
X214969Y151004D01*
X218863Y151004D01*
X221232Y148634D01*
X221302Y148582D01*
X221366Y148522D01*
X221415Y148496D01*
X221460Y148463D01*
X221541Y148432D01*
X221619Y148392D01*
X221667Y148384D01*
X221725Y148362D01*
X221873Y148350D01*
X221950Y148337D01*
X267542Y148337D01*
X269030Y146849D01*
X281469Y134410D01*
X281538Y134358D01*
X281602Y134298D01*
X281652Y134272D01*
X281696Y134239D01*
X281778Y134208D01*
X281855Y134168D01*
X281903Y134160D01*
X281961Y134138D01*
X282109Y134126D01*
X282187Y134113D01*
X359976Y134113D01*
X360062Y134125D01*
X360150Y134128D01*
X360202Y134145D01*
X360257Y134153D01*
X360337Y134188D01*
X360420Y134215D01*
X360460Y134243D01*
X360517Y134269D01*
X360630Y134365D01*
X360694Y134410D01*
X362936Y136653D01*
X366724Y136653D01*
X368967Y134410D01*
X369037Y134358D01*
X369101Y134298D01*
X369150Y134272D01*
X369194Y134239D01*
X369276Y134208D01*
X369354Y134168D01*
X369401Y134160D01*
X369460Y134138D01*
X369608Y134126D01*
X369685Y134113D01*
X458057Y134113D01*
X458143Y134125D01*
X458231Y134128D01*
X458283Y134145D01*
X458338Y134153D01*
X458418Y134188D01*
X458501Y134215D01*
X458540Y134243D01*
X458598Y134269D01*
X458711Y134365D01*
X458775Y134410D01*
X459493Y135129D01*
X535149Y135129D01*
X535236Y135141D01*
X535323Y135144D01*
X535376Y135161D01*
X535431Y135169D01*
X535511Y135204D01*
X535594Y135231D01*
X535633Y135259D01*
X535690Y135285D01*
X535803Y135381D01*
X535867Y135426D01*
X537094Y136653D01*
X540882Y136653D01*
X543561Y133974D01*
X543561Y132239D01*
X543573Y132153D01*
X543576Y132065D01*
X543593Y132013D01*
X543601Y131958D01*
X543636Y131878D01*
X543663Y131795D01*
X543691Y131756D01*
X543717Y131698D01*
X543813Y131585D01*
X543858Y131521D01*
X568961Y106419D01*
X568961Y93472D01*
X568969Y93414D01*
X568967Y93356D01*
X568989Y93274D01*
X569001Y93190D01*
X569024Y93137D01*
X569039Y93081D01*
X569082Y93008D01*
X569117Y92931D01*
X569155Y92886D01*
X569184Y92836D01*
X569246Y92778D01*
X569300Y92714D01*
X569349Y92682D01*
X569392Y92642D01*
X569467Y92603D01*
X569537Y92556D01*
X569593Y92539D01*
X569645Y92512D01*
X569713Y92501D01*
X569808Y92471D01*
X569908Y92468D01*
X569976Y92457D01*
X604012Y92457D01*
X604070Y92465D01*
X604128Y92463D01*
X604210Y92485D01*
X604294Y92497D01*
X604347Y92520D01*
X604403Y92535D01*
X604476Y92578D01*
X604553Y92613D01*
X604598Y92651D01*
X604648Y92680D01*
X604706Y92742D01*
X604770Y92796D01*
X604802Y92845D01*
X604842Y92888D01*
X604881Y92963D01*
X604928Y93033D01*
X604945Y93089D01*
X604972Y93141D01*
X604983Y93209D01*
X605013Y93304D01*
X605016Y93404D01*
X605027Y93472D01*
X605027Y94205D01*
X605015Y94292D01*
X605012Y94379D01*
X604995Y94432D01*
X604987Y94487D01*
X604952Y94567D01*
X604925Y94650D01*
X604897Y94689D01*
X604871Y94746D01*
X604775Y94859D01*
X604730Y94923D01*
X603503Y96150D01*
X603503Y99938D01*
X604222Y100657D01*
X604274Y100727D01*
X604334Y100790D01*
X604360Y100840D01*
X604393Y100884D01*
X604424Y100966D01*
X604464Y101044D01*
X604472Y101091D01*
X604494Y101150D01*
X604506Y101297D01*
X604519Y101375D01*
X604519Y117595D01*
X635769Y148845D01*
X690213Y148845D01*
X690299Y148857D01*
X690387Y148860D01*
X690439Y148877D01*
X690494Y148885D01*
X690574Y148920D01*
X690657Y148947D01*
X690696Y148975D01*
X690754Y149001D01*
X690867Y149097D01*
X690931Y149142D01*
X702847Y161059D01*
X702848Y161060D01*
X702849Y161061D01*
X702934Y161174D01*
X703018Y161286D01*
X703019Y161287D01*
X703020Y161289D01*
X703069Y161420D01*
X703119Y161552D01*
X703119Y161553D01*
X703120Y161555D01*
X703131Y161694D01*
X703143Y161835D01*
X703143Y161837D01*
X703143Y161838D01*
X703139Y161853D01*
X703087Y162114D01*
X703073Y162141D01*
X703067Y162165D01*
X702563Y163382D01*
X702563Y166818D01*
X703878Y169992D01*
X706308Y172422D01*
X707216Y172798D01*
X707290Y172842D01*
X707368Y172877D01*
X707412Y172914D01*
X707461Y172943D01*
X707520Y173005D01*
X707585Y173061D01*
X707617Y173108D01*
X707656Y173149D01*
X707695Y173226D01*
X707743Y173297D01*
X707760Y173351D01*
X707786Y173402D01*
X707803Y173486D01*
X707829Y173568D01*
X707830Y173625D01*
X707841Y173681D01*
X707834Y173766D01*
X707836Y173852D01*
X707822Y173907D01*
X707817Y173964D01*
X707786Y174044D01*
X707764Y174127D01*
X707735Y174176D01*
X707715Y174229D01*
X707663Y174298D01*
X707619Y174372D01*
X707577Y174411D01*
X707543Y174456D01*
X707474Y174508D01*
X707412Y174566D01*
X707361Y174592D01*
X707315Y174626D01*
X707235Y174657D01*
X707158Y174696D01*
X707110Y174704D01*
X707049Y174727D01*
X706905Y174738D01*
X706827Y174751D01*
X690173Y174751D01*
X690087Y174739D01*
X690002Y174737D01*
X689947Y174719D01*
X689891Y174711D01*
X689813Y174676D01*
X689731Y174650D01*
X689683Y174618D01*
X689632Y174595D01*
X689566Y174540D01*
X689495Y174492D01*
X689458Y174448D01*
X689415Y174412D01*
X689367Y174340D01*
X689312Y174274D01*
X689289Y174222D01*
X689257Y174175D01*
X689231Y174093D01*
X689196Y174014D01*
X689188Y173958D01*
X689171Y173904D01*
X689169Y173818D01*
X689157Y173733D01*
X689165Y173677D01*
X689164Y173620D01*
X689186Y173537D01*
X689198Y173451D01*
X689221Y173400D01*
X689236Y173345D01*
X689280Y173271D01*
X689315Y173192D01*
X689352Y173149D01*
X689381Y173100D01*
X689444Y173041D01*
X689499Y172976D01*
X689541Y172950D01*
X689588Y172906D01*
X689718Y172840D01*
X689784Y172798D01*
X690692Y172422D01*
X693122Y169992D01*
X694437Y166818D01*
X694437Y163382D01*
X693122Y160208D01*
X690692Y157778D01*
X687518Y156463D01*
X684082Y156463D01*
X680908Y157778D01*
X678478Y160208D01*
X677163Y163382D01*
X677163Y166818D01*
X678478Y169992D01*
X680908Y172422D01*
X681816Y172798D01*
X681890Y172842D01*
X681968Y172877D01*
X682012Y172914D01*
X682061Y172943D01*
X682120Y173005D01*
X682185Y173061D01*
X682217Y173108D01*
X682256Y173149D01*
X682295Y173226D01*
X682343Y173297D01*
X682360Y173351D01*
X682386Y173402D01*
X682403Y173486D01*
X682429Y173568D01*
X682430Y173625D01*
X682441Y173681D01*
X682434Y173766D01*
X682436Y173852D01*
X682422Y173907D01*
X682417Y173964D01*
X682386Y174044D01*
X682364Y174127D01*
X682335Y174176D01*
X682315Y174229D01*
X682263Y174298D01*
X682219Y174372D01*
X682177Y174411D01*
X682143Y174456D01*
X682074Y174508D01*
X682012Y174566D01*
X681961Y174592D01*
X681915Y174626D01*
X681835Y174657D01*
X681758Y174696D01*
X681710Y174704D01*
X681649Y174727D01*
X681505Y174738D01*
X681427Y174751D01*
X664773Y174751D01*
X664687Y174739D01*
X664602Y174737D01*
X664547Y174719D01*
X664491Y174711D01*
X664413Y174676D01*
X664331Y174650D01*
X664283Y174618D01*
X664232Y174595D01*
X664166Y174540D01*
X664095Y174492D01*
X664058Y174448D01*
X664015Y174412D01*
X663967Y174340D01*
X663912Y174274D01*
X663889Y174222D01*
X663857Y174175D01*
X663831Y174093D01*
X663796Y174014D01*
X663788Y173958D01*
X663771Y173904D01*
X663769Y173818D01*
X663757Y173733D01*
X663765Y173677D01*
X663764Y173620D01*
X663786Y173537D01*
X663798Y173451D01*
X663821Y173400D01*
X663836Y173345D01*
X663880Y173271D01*
X663915Y173192D01*
X663952Y173149D01*
X663981Y173100D01*
X664044Y173041D01*
X664099Y172976D01*
X664141Y172950D01*
X664188Y172906D01*
X664318Y172840D01*
X664384Y172798D01*
X665292Y172422D01*
X667722Y169992D01*
X669037Y166818D01*
X669037Y163382D01*
X667722Y160208D01*
X665292Y157778D01*
X662118Y156463D01*
X658682Y156463D01*
X655508Y157778D01*
X653078Y160208D01*
X651763Y163382D01*
X651763Y166818D01*
X653078Y169992D01*
X655508Y172422D01*
X656416Y172798D01*
X656490Y172842D01*
X656568Y172877D01*
X656612Y172914D01*
X656661Y172943D01*
X656720Y173005D01*
X656785Y173061D01*
X656817Y173108D01*
X656856Y173149D01*
X656895Y173226D01*
X656943Y173297D01*
X656960Y173351D01*
X656986Y173402D01*
X657003Y173486D01*
X657029Y173568D01*
X657030Y173625D01*
X657041Y173681D01*
X657034Y173766D01*
X657036Y173852D01*
X657022Y173907D01*
X657017Y173964D01*
X656986Y174044D01*
X656964Y174127D01*
X656935Y174176D01*
X656915Y174229D01*
X656863Y174298D01*
X656819Y174372D01*
X656777Y174411D01*
X656743Y174456D01*
X656674Y174508D01*
X656612Y174566D01*
X656561Y174592D01*
X656515Y174626D01*
X656435Y174657D01*
X656358Y174696D01*
X656310Y174704D01*
X656249Y174727D01*
X656105Y174738D01*
X656027Y174751D01*
X639373Y174751D01*
X639287Y174739D01*
X639202Y174737D01*
X639147Y174719D01*
X639091Y174711D01*
X639013Y174676D01*
X638931Y174650D01*
X638883Y174618D01*
X638832Y174595D01*
X638766Y174540D01*
X638695Y174492D01*
X638658Y174448D01*
X638615Y174412D01*
X638567Y174340D01*
X638512Y174274D01*
X638489Y174222D01*
X638457Y174175D01*
X638431Y174093D01*
X638396Y174014D01*
X638388Y173958D01*
X638371Y173904D01*
X638369Y173818D01*
X638357Y173733D01*
X638365Y173677D01*
X638364Y173620D01*
X638386Y173537D01*
X638398Y173451D01*
X638421Y173400D01*
X638436Y173345D01*
X638480Y173271D01*
X638515Y173192D01*
X638552Y173149D01*
X638581Y173100D01*
X638644Y173041D01*
X638699Y172976D01*
X638741Y172950D01*
X638788Y172906D01*
X638918Y172840D01*
X638984Y172798D01*
X639892Y172422D01*
X642322Y169992D01*
X643637Y166818D01*
X643637Y163382D01*
X642322Y160208D01*
X639892Y157778D01*
X636718Y156463D01*
X633282Y156463D01*
X630108Y157778D01*
X627678Y160208D01*
X626363Y163382D01*
X626363Y166818D01*
X627678Y169992D01*
X630108Y172422D01*
X631016Y172798D01*
X631090Y172842D01*
X631168Y172877D01*
X631212Y172914D01*
X631261Y172943D01*
X631320Y173005D01*
X631385Y173061D01*
X631417Y173108D01*
X631456Y173149D01*
X631495Y173226D01*
X631543Y173297D01*
X631560Y173351D01*
X631586Y173402D01*
X631603Y173486D01*
X631629Y173568D01*
X631630Y173625D01*
X631641Y173681D01*
X631634Y173766D01*
X631636Y173852D01*
X631622Y173907D01*
X631617Y173964D01*
X631586Y174044D01*
X631564Y174127D01*
X631535Y174176D01*
X631515Y174229D01*
X631463Y174298D01*
X631419Y174372D01*
X631377Y174411D01*
X631343Y174456D01*
X631274Y174508D01*
X631212Y174566D01*
X631161Y174592D01*
X631115Y174626D01*
X631035Y174657D01*
X630958Y174696D01*
X630910Y174704D01*
X630849Y174727D01*
X630705Y174738D01*
X630627Y174751D01*
X613973Y174751D01*
X613887Y174739D01*
X613802Y174737D01*
X613747Y174719D01*
X613691Y174711D01*
X613613Y174676D01*
X613531Y174650D01*
X613483Y174618D01*
X613432Y174595D01*
X613366Y174540D01*
X613295Y174492D01*
X613258Y174448D01*
X613215Y174412D01*
X613167Y174340D01*
X613112Y174274D01*
X613089Y174222D01*
X613057Y174175D01*
X613031Y174093D01*
X612996Y174014D01*
X612988Y173958D01*
X612971Y173904D01*
X612969Y173818D01*
X612957Y173733D01*
X612965Y173677D01*
X612964Y173620D01*
X612986Y173537D01*
X612998Y173451D01*
X613021Y173400D01*
X613036Y173345D01*
X613080Y173271D01*
X613115Y173192D01*
X613152Y173149D01*
X613181Y173100D01*
X613244Y173041D01*
X613299Y172976D01*
X613341Y172950D01*
X613388Y172906D01*
X613518Y172840D01*
X613584Y172798D01*
X614492Y172422D01*
X616922Y169992D01*
X618237Y166818D01*
X618237Y163382D01*
X616922Y160208D01*
X614492Y157778D01*
X611318Y156463D01*
X607882Y156463D01*
X604708Y157778D01*
X602278Y160208D01*
X600963Y163382D01*
X600963Y166818D01*
X602278Y169992D01*
X604708Y172422D01*
X605616Y172798D01*
X605690Y172842D01*
X605768Y172877D01*
X605812Y172914D01*
X605861Y172943D01*
X605920Y173005D01*
X605985Y173061D01*
X606017Y173108D01*
X606056Y173149D01*
X606095Y173226D01*
X606143Y173297D01*
X606160Y173351D01*
X606186Y173402D01*
X606203Y173486D01*
X606229Y173568D01*
X606230Y173625D01*
X606241Y173681D01*
X606234Y173766D01*
X606236Y173852D01*
X606222Y173907D01*
X606217Y173964D01*
X606186Y174044D01*
X606164Y174127D01*
X606135Y174176D01*
X606115Y174229D01*
X606063Y174298D01*
X606019Y174372D01*
X605977Y174411D01*
X605943Y174456D01*
X605874Y174508D01*
X605812Y174566D01*
X605761Y174592D01*
X605715Y174626D01*
X605635Y174657D01*
X605558Y174696D01*
X605510Y174704D01*
X605449Y174727D01*
X605305Y174738D01*
X605227Y174751D01*
X588573Y174751D01*
X588487Y174739D01*
X588402Y174737D01*
X588347Y174719D01*
X588291Y174711D01*
X588213Y174676D01*
X588131Y174650D01*
X588083Y174618D01*
X588032Y174595D01*
X587966Y174540D01*
X587895Y174492D01*
X587858Y174448D01*
X587815Y174412D01*
X587767Y174340D01*
X587712Y174274D01*
X587689Y174222D01*
X587657Y174175D01*
X587631Y174093D01*
X587596Y174014D01*
X587588Y173958D01*
X587571Y173904D01*
X587569Y173818D01*
X587557Y173733D01*
X587565Y173677D01*
X587564Y173620D01*
X587586Y173537D01*
X587598Y173451D01*
X587621Y173400D01*
X587636Y173345D01*
X587680Y173271D01*
X587715Y173192D01*
X587752Y173149D01*
X587781Y173100D01*
X587844Y173041D01*
X587899Y172976D01*
X587941Y172950D01*
X587988Y172906D01*
X588118Y172840D01*
X588184Y172798D01*
X589092Y172422D01*
X591522Y169992D01*
X592837Y166818D01*
X592837Y163382D01*
X591522Y160208D01*
X589092Y157778D01*
X585918Y156463D01*
X582482Y156463D01*
X579308Y157778D01*
X576878Y160208D01*
X575563Y163382D01*
X575563Y166818D01*
X576878Y169992D01*
X579308Y172422D01*
X580216Y172798D01*
X580290Y172842D01*
X580368Y172877D01*
X580412Y172914D01*
X580461Y172943D01*
X580520Y173005D01*
X580585Y173061D01*
X580617Y173108D01*
X580656Y173149D01*
X580695Y173226D01*
X580743Y173297D01*
X580760Y173351D01*
X580786Y173402D01*
X580803Y173486D01*
X580829Y173568D01*
X580830Y173625D01*
X580841Y173681D01*
X580834Y173766D01*
X580836Y173852D01*
X580822Y173907D01*
X580817Y173964D01*
X580786Y174044D01*
X580764Y174127D01*
X580735Y174176D01*
X580715Y174229D01*
X580663Y174298D01*
X580619Y174372D01*
X580577Y174411D01*
X580543Y174456D01*
X580474Y174508D01*
X580412Y174566D01*
X580361Y174592D01*
X580315Y174626D01*
X580235Y174657D01*
X580158Y174696D01*
X580110Y174704D01*
X580049Y174727D01*
X579905Y174738D01*
X579827Y174751D01*
X563173Y174751D01*
X563087Y174739D01*
X563002Y174737D01*
X562947Y174719D01*
X562891Y174711D01*
X562813Y174676D01*
X562731Y174650D01*
X562683Y174618D01*
X562632Y174595D01*
X562566Y174540D01*
X562495Y174492D01*
X562458Y174448D01*
X562415Y174412D01*
X562367Y174340D01*
X562312Y174274D01*
X562289Y174222D01*
X562257Y174175D01*
X562231Y174093D01*
X562196Y174014D01*
X562188Y173958D01*
X562171Y173904D01*
X562169Y173818D01*
X562157Y173733D01*
X562165Y173677D01*
X562164Y173620D01*
X562186Y173537D01*
X562198Y173451D01*
X562221Y173400D01*
X562236Y173345D01*
X562280Y173271D01*
X562315Y173192D01*
X562352Y173149D01*
X562381Y173100D01*
X562444Y173041D01*
X562499Y172976D01*
X562541Y172950D01*
X562588Y172906D01*
X562718Y172840D01*
X562784Y172798D01*
X563692Y172422D01*
X566122Y169992D01*
X567437Y166818D01*
X567437Y163382D01*
X566122Y160208D01*
X563692Y157778D01*
X560518Y156463D01*
X557082Y156463D01*
X553908Y157778D01*
X551478Y160208D01*
X550163Y163382D01*
X550163Y166818D01*
X551478Y169992D01*
X553908Y172422D01*
X554816Y172798D01*
X554890Y172842D01*
X554968Y172877D01*
X555012Y172914D01*
X555061Y172943D01*
X555120Y173005D01*
X555185Y173061D01*
X555217Y173108D01*
X555256Y173149D01*
X555295Y173226D01*
X555343Y173297D01*
X555360Y173351D01*
X555386Y173402D01*
X555403Y173486D01*
X555429Y173568D01*
X555430Y173625D01*
X555441Y173681D01*
X555434Y173766D01*
X555436Y173852D01*
X555422Y173907D01*
X555417Y173964D01*
X555386Y174044D01*
X555364Y174127D01*
X555335Y174176D01*
X555315Y174229D01*
X555263Y174298D01*
X555219Y174372D01*
X555177Y174411D01*
X555143Y174456D01*
X555074Y174508D01*
X555012Y174566D01*
X554961Y174592D01*
X554915Y174626D01*
X554835Y174657D01*
X554758Y174696D01*
X554710Y174704D01*
X554649Y174727D01*
X554505Y174738D01*
X554427Y174751D01*
X537773Y174751D01*
X537687Y174739D01*
X537602Y174737D01*
X537547Y174719D01*
X537491Y174711D01*
X537413Y174676D01*
X537331Y174650D01*
X537283Y174618D01*
X537232Y174595D01*
X537166Y174540D01*
X537095Y174492D01*
X537058Y174448D01*
X537015Y174412D01*
X536967Y174340D01*
X536912Y174274D01*
X536889Y174222D01*
X536857Y174175D01*
X536831Y174093D01*
X536796Y174014D01*
X536788Y173958D01*
X536771Y173904D01*
X536769Y173818D01*
X536757Y173733D01*
X536765Y173677D01*
X536764Y173620D01*
X536786Y173537D01*
X536798Y173451D01*
X536821Y173400D01*
X536836Y173345D01*
X536880Y173271D01*
X536915Y173192D01*
X536952Y173149D01*
X536981Y173100D01*
X537044Y173041D01*
X537099Y172976D01*
X537141Y172950D01*
X537188Y172906D01*
X537318Y172840D01*
X537384Y172798D01*
X538292Y172422D01*
X540722Y169992D01*
X542037Y166818D01*
X542037Y163382D01*
X540722Y160208D01*
X538292Y157778D01*
X535118Y156463D01*
X531682Y156463D01*
X528508Y157778D01*
X526078Y160208D01*
X524763Y163382D01*
X524763Y166818D01*
X526078Y169992D01*
X528508Y172422D01*
X529416Y172798D01*
X529490Y172842D01*
X529568Y172877D01*
X529612Y172914D01*
X529661Y172943D01*
X529720Y173005D01*
X529785Y173061D01*
X529817Y173108D01*
X529856Y173149D01*
X529895Y173226D01*
X529943Y173297D01*
X529960Y173351D01*
X529986Y173402D01*
X530003Y173486D01*
X530029Y173568D01*
X530030Y173625D01*
X530041Y173681D01*
X530034Y173766D01*
X530036Y173852D01*
X530022Y173907D01*
X530017Y173964D01*
X529986Y174044D01*
X529964Y174127D01*
X529935Y174176D01*
X529915Y174229D01*
X529863Y174298D01*
X529819Y174372D01*
X529777Y174411D01*
X529743Y174456D01*
X529674Y174508D01*
X529612Y174566D01*
X529561Y174592D01*
X529515Y174626D01*
X529435Y174657D01*
X529358Y174696D01*
X529310Y174704D01*
X529249Y174727D01*
X529105Y174738D01*
X529027Y174751D01*
X512373Y174751D01*
X512287Y174739D01*
X512202Y174737D01*
X512147Y174719D01*
X512091Y174711D01*
X512013Y174676D01*
X511931Y174650D01*
X511883Y174618D01*
X511832Y174595D01*
X511766Y174540D01*
X511695Y174492D01*
X511658Y174448D01*
X511615Y174412D01*
X511567Y174340D01*
X511512Y174274D01*
X511489Y174222D01*
X511457Y174175D01*
X511431Y174093D01*
X511396Y174014D01*
X511388Y173958D01*
X511371Y173904D01*
X511369Y173818D01*
X511357Y173733D01*
X511365Y173677D01*
X511364Y173620D01*
X511386Y173537D01*
X511398Y173451D01*
X511421Y173400D01*
X511436Y173345D01*
X511480Y173271D01*
X511515Y173192D01*
X511552Y173149D01*
X511581Y173100D01*
X511644Y173041D01*
X511699Y172976D01*
X511741Y172950D01*
X511788Y172906D01*
X511918Y172840D01*
X511984Y172798D01*
X512892Y172422D01*
X515322Y169992D01*
X516637Y166818D01*
X516637Y163382D01*
X515322Y160208D01*
X512892Y157778D01*
X509718Y156463D01*
X506282Y156463D01*
X503108Y157778D01*
X500678Y160208D01*
X499363Y163382D01*
X499363Y166818D01*
X500678Y169992D01*
X503108Y172422D01*
X504016Y172798D01*
X504090Y172842D01*
X504168Y172877D01*
X504212Y172914D01*
X504261Y172943D01*
X504320Y173005D01*
X504385Y173061D01*
X504417Y173108D01*
X504456Y173149D01*
X504495Y173226D01*
X504543Y173297D01*
X504560Y173351D01*
X504586Y173402D01*
X504603Y173486D01*
X504629Y173568D01*
X504630Y173625D01*
X504641Y173681D01*
X504634Y173766D01*
X504636Y173852D01*
X504622Y173907D01*
X504617Y173964D01*
X504586Y174044D01*
X504564Y174127D01*
X504535Y174176D01*
X504515Y174229D01*
X504463Y174298D01*
X504419Y174372D01*
X504377Y174411D01*
X504343Y174456D01*
X504274Y174508D01*
X504212Y174566D01*
X504161Y174592D01*
X504115Y174626D01*
X504035Y174657D01*
X503958Y174696D01*
X503910Y174704D01*
X503849Y174727D01*
X503705Y174738D01*
X503627Y174751D01*
X486973Y174751D01*
X486887Y174739D01*
X486802Y174737D01*
X486747Y174719D01*
X486691Y174711D01*
X486613Y174676D01*
X486531Y174650D01*
X486483Y174618D01*
X486432Y174595D01*
X486366Y174540D01*
X486295Y174492D01*
X486258Y174448D01*
X486215Y174412D01*
X486167Y174340D01*
X486112Y174274D01*
X486089Y174222D01*
X486057Y174175D01*
X486031Y174093D01*
X485996Y174014D01*
X485988Y173958D01*
X485971Y173904D01*
X485969Y173818D01*
X485957Y173733D01*
X485965Y173677D01*
X485964Y173620D01*
X485986Y173537D01*
X485998Y173451D01*
X486021Y173400D01*
X486036Y173345D01*
X486080Y173271D01*
X486115Y173192D01*
X486152Y173149D01*
X486181Y173100D01*
X486244Y173041D01*
X486299Y172976D01*
X486341Y172950D01*
X486388Y172906D01*
X486518Y172840D01*
X486584Y172798D01*
X487492Y172422D01*
X489922Y169992D01*
X491237Y166818D01*
X491237Y163382D01*
X489922Y160208D01*
X487492Y157778D01*
X484318Y156463D01*
X480882Y156463D01*
X477708Y157778D01*
X475278Y160208D01*
X473963Y163382D01*
X473963Y166818D01*
X475278Y169992D01*
X477708Y172422D01*
X478616Y172798D01*
X478690Y172842D01*
X478768Y172877D01*
X478812Y172914D01*
X478861Y172943D01*
X478920Y173005D01*
X478985Y173061D01*
X479017Y173108D01*
X479056Y173149D01*
X479095Y173226D01*
X479143Y173297D01*
X479160Y173351D01*
X479186Y173402D01*
X479203Y173486D01*
X479229Y173568D01*
X479230Y173625D01*
X479241Y173681D01*
X479234Y173766D01*
X479236Y173852D01*
X479222Y173907D01*
X479217Y173964D01*
X479186Y174044D01*
X479164Y174127D01*
X479135Y174176D01*
X479115Y174229D01*
X479063Y174298D01*
X479019Y174372D01*
X478977Y174411D01*
X478943Y174456D01*
X478874Y174508D01*
X478812Y174566D01*
X478761Y174592D01*
X478715Y174626D01*
X478635Y174657D01*
X478558Y174696D01*
X478510Y174704D01*
X478449Y174727D01*
X478305Y174738D01*
X478227Y174751D01*
X461573Y174751D01*
X461487Y174739D01*
X461402Y174737D01*
X461347Y174719D01*
X461291Y174711D01*
X461213Y174676D01*
X461131Y174650D01*
X461083Y174618D01*
X461032Y174595D01*
X460966Y174540D01*
X460895Y174492D01*
X460858Y174448D01*
X460815Y174412D01*
X460767Y174340D01*
X460712Y174274D01*
X460689Y174222D01*
X460657Y174175D01*
X460631Y174093D01*
X460596Y174014D01*
X460588Y173958D01*
X460571Y173904D01*
X460569Y173818D01*
X460557Y173733D01*
X460565Y173677D01*
X460564Y173620D01*
X460586Y173537D01*
X460598Y173451D01*
X460621Y173400D01*
X460636Y173345D01*
X460680Y173271D01*
X460715Y173192D01*
X460752Y173149D01*
X460781Y173100D01*
X460844Y173041D01*
X460899Y172976D01*
X460941Y172950D01*
X460988Y172906D01*
X461118Y172840D01*
X461184Y172798D01*
X462092Y172422D01*
X464522Y169992D01*
X465837Y166818D01*
X465837Y163382D01*
X464522Y160208D01*
X462092Y157778D01*
X458918Y156463D01*
X455482Y156463D01*
X452308Y157778D01*
X449878Y160208D01*
X448563Y163382D01*
X448563Y166818D01*
X449878Y169992D01*
X452308Y172422D01*
X453216Y172798D01*
X453290Y172842D01*
X453368Y172877D01*
X453412Y172914D01*
X453461Y172943D01*
X453520Y173005D01*
X453585Y173061D01*
X453617Y173108D01*
X453656Y173149D01*
X453695Y173226D01*
X453743Y173297D01*
X453760Y173351D01*
X453786Y173402D01*
X453803Y173486D01*
X453829Y173568D01*
X453830Y173625D01*
X453841Y173681D01*
X453834Y173766D01*
X453836Y173852D01*
X453822Y173907D01*
X453817Y173964D01*
X453786Y174044D01*
X453764Y174127D01*
X453735Y174176D01*
X453715Y174229D01*
X453663Y174298D01*
X453619Y174372D01*
X453577Y174411D01*
X453543Y174456D01*
X453474Y174508D01*
X453412Y174566D01*
X453361Y174592D01*
X453315Y174626D01*
X453235Y174657D01*
X453158Y174696D01*
X453110Y174704D01*
X453049Y174727D01*
X452905Y174738D01*
X452827Y174751D01*
X436173Y174751D01*
X436087Y174739D01*
X436002Y174737D01*
X435947Y174719D01*
X435891Y174711D01*
X435813Y174676D01*
X435731Y174650D01*
X435683Y174618D01*
X435632Y174595D01*
X435566Y174540D01*
X435495Y174492D01*
X435458Y174448D01*
X435415Y174412D01*
X435367Y174340D01*
X435312Y174274D01*
X435289Y174222D01*
X435257Y174175D01*
X435231Y174093D01*
X435196Y174014D01*
X435188Y173958D01*
X435171Y173904D01*
X435169Y173818D01*
X435157Y173733D01*
X435165Y173677D01*
X435164Y173620D01*
X435186Y173537D01*
X435198Y173451D01*
X435221Y173400D01*
X435236Y173345D01*
X435280Y173271D01*
X435315Y173192D01*
X435352Y173149D01*
X435381Y173100D01*
X435444Y173041D01*
X435499Y172976D01*
X435541Y172950D01*
X435588Y172906D01*
X435718Y172840D01*
X435784Y172798D01*
X436692Y172422D01*
X439122Y169992D01*
X440437Y166818D01*
X440437Y163382D01*
X439122Y160208D01*
X436692Y157778D01*
X433518Y156463D01*
X430082Y156463D01*
X426908Y157778D01*
X424478Y160208D01*
X423163Y163382D01*
X423163Y166818D01*
X424478Y169992D01*
X426908Y172422D01*
X427816Y172798D01*
X427890Y172842D01*
X427968Y172877D01*
X428012Y172914D01*
X428061Y172943D01*
X428120Y173005D01*
X428185Y173061D01*
X428217Y173108D01*
X428256Y173149D01*
X428295Y173226D01*
X428343Y173297D01*
X428360Y173351D01*
X428386Y173402D01*
X428403Y173486D01*
X428429Y173568D01*
X428430Y173625D01*
X428441Y173681D01*
X428434Y173766D01*
X428436Y173852D01*
X428422Y173907D01*
X428417Y173964D01*
X428386Y174044D01*
X428364Y174127D01*
X428335Y174176D01*
X428315Y174229D01*
X428263Y174298D01*
X428219Y174372D01*
X428177Y174411D01*
X428143Y174456D01*
X428074Y174508D01*
X428012Y174566D01*
X427961Y174592D01*
X427915Y174626D01*
X427835Y174657D01*
X427758Y174696D01*
X427710Y174704D01*
X427649Y174727D01*
X427505Y174738D01*
X427427Y174751D01*
X410773Y174751D01*
X410687Y174739D01*
X410602Y174737D01*
X410547Y174719D01*
X410491Y174711D01*
X410413Y174676D01*
X410331Y174650D01*
X410283Y174618D01*
X410232Y174595D01*
X410166Y174540D01*
X410095Y174492D01*
X410058Y174448D01*
X410015Y174412D01*
X409967Y174340D01*
X409912Y174274D01*
X409889Y174222D01*
X409857Y174175D01*
X409831Y174093D01*
X409796Y174014D01*
X409788Y173958D01*
X409771Y173904D01*
X409769Y173818D01*
X409757Y173733D01*
X409765Y173677D01*
X409764Y173620D01*
X409786Y173537D01*
X409798Y173451D01*
X409821Y173400D01*
X409836Y173345D01*
X409880Y173271D01*
X409915Y173192D01*
X409952Y173149D01*
X409981Y173100D01*
X410044Y173041D01*
X410099Y172976D01*
X410141Y172950D01*
X410188Y172906D01*
X410318Y172840D01*
X410384Y172798D01*
X411292Y172422D01*
X413722Y169992D01*
X415037Y166818D01*
X415037Y163382D01*
X413722Y160208D01*
X411292Y157778D01*
X408118Y156463D01*
X404682Y156463D01*
X401508Y157778D01*
X399078Y160208D01*
X397763Y163382D01*
X397763Y166818D01*
X399078Y169992D01*
X401508Y172422D01*
X402416Y172798D01*
X402490Y172842D01*
X402568Y172877D01*
X402612Y172914D01*
X402661Y172943D01*
X402720Y173005D01*
X402785Y173061D01*
X402817Y173108D01*
X402856Y173149D01*
X402895Y173226D01*
X402943Y173297D01*
X402960Y173351D01*
X402986Y173402D01*
X403003Y173486D01*
X403029Y173568D01*
X403030Y173625D01*
X403041Y173681D01*
X403034Y173766D01*
X403036Y173852D01*
X403022Y173907D01*
X403017Y173964D01*
X402986Y174044D01*
X402964Y174127D01*
X402935Y174176D01*
X402915Y174229D01*
X402863Y174298D01*
X402819Y174372D01*
X402777Y174411D01*
X402743Y174456D01*
X402674Y174508D01*
X402612Y174566D01*
X402561Y174592D01*
X402515Y174626D01*
X402435Y174657D01*
X402358Y174696D01*
X402310Y174704D01*
X402249Y174727D01*
X402105Y174738D01*
X402027Y174751D01*
X385373Y174751D01*
X385287Y174739D01*
X385202Y174737D01*
X385147Y174719D01*
X385091Y174711D01*
X385013Y174676D01*
X384931Y174650D01*
X384883Y174618D01*
X384832Y174595D01*
X384766Y174540D01*
X384695Y174492D01*
X384658Y174448D01*
X384615Y174412D01*
X384567Y174340D01*
X384512Y174274D01*
X384489Y174222D01*
X384457Y174175D01*
X384431Y174093D01*
X384396Y174014D01*
X384388Y173958D01*
X384371Y173904D01*
X384369Y173818D01*
X384357Y173733D01*
X384365Y173677D01*
X384364Y173620D01*
X384386Y173537D01*
X384398Y173451D01*
X384421Y173400D01*
X384436Y173345D01*
X384480Y173271D01*
X384515Y173192D01*
X384552Y173149D01*
X384581Y173100D01*
X384644Y173041D01*
X384699Y172976D01*
X384741Y172950D01*
X384788Y172906D01*
X384918Y172840D01*
X384984Y172798D01*
X385892Y172422D01*
X388322Y169992D01*
X389637Y166818D01*
X389637Y163382D01*
X388322Y160208D01*
X385892Y157778D01*
X382718Y156463D01*
X379282Y156463D01*
X376108Y157778D01*
X373678Y160208D01*
X372363Y163382D01*
X372363Y166818D01*
X373678Y169992D01*
X376108Y172422D01*
X377016Y172798D01*
X377090Y172842D01*
X377168Y172877D01*
X377212Y172914D01*
X377261Y172943D01*
X377320Y173005D01*
X377385Y173061D01*
X377417Y173108D01*
X377456Y173149D01*
X377495Y173226D01*
X377543Y173297D01*
X377560Y173351D01*
X377586Y173402D01*
X377603Y173486D01*
X377629Y173568D01*
X377630Y173625D01*
X377641Y173681D01*
X377634Y173766D01*
X377636Y173852D01*
X377622Y173907D01*
X377617Y173964D01*
X377586Y174044D01*
X377564Y174127D01*
X377535Y174176D01*
X377515Y174229D01*
X377463Y174298D01*
X377419Y174372D01*
X377377Y174411D01*
X377343Y174456D01*
X377274Y174508D01*
X377212Y174566D01*
X377161Y174592D01*
X377115Y174626D01*
X377035Y174657D01*
X376958Y174696D01*
X376910Y174704D01*
X376849Y174727D01*
X376705Y174738D01*
X376627Y174751D01*
X359973Y174751D01*
X359888Y174739D01*
X359802Y174737D01*
X359747Y174719D01*
X359691Y174711D01*
X359613Y174676D01*
X359531Y174650D01*
X359484Y174618D01*
X359432Y174595D01*
X359366Y174540D01*
X359295Y174492D01*
X359258Y174448D01*
X359215Y174412D01*
X359167Y174340D01*
X359112Y174274D01*
X359089Y174222D01*
X359057Y174175D01*
X359031Y174093D01*
X358996Y174014D01*
X358989Y173958D01*
X358971Y173904D01*
X358969Y173818D01*
X358957Y173733D01*
X358966Y173677D01*
X358964Y173620D01*
X358986Y173537D01*
X358998Y173451D01*
X359022Y173400D01*
X359036Y173345D01*
X359080Y173271D01*
X359115Y173192D01*
X359152Y173149D01*
X359181Y173100D01*
X359244Y173041D01*
X359299Y172976D01*
X359341Y172950D01*
X359388Y172906D01*
X359518Y172840D01*
X359584Y172798D01*
X360492Y172422D01*
X362922Y169992D01*
X364237Y166818D01*
X364237Y163382D01*
X362922Y160208D01*
X360492Y157778D01*
X357318Y156463D01*
X353882Y156463D01*
X350708Y157778D01*
X348278Y160208D01*
X346963Y163382D01*
X346963Y166818D01*
X348278Y169992D01*
X350708Y172422D01*
X351616Y172798D01*
X351690Y172842D01*
X351768Y172877D01*
X351812Y172914D01*
X351861Y172943D01*
X351920Y173005D01*
X351985Y173061D01*
X352017Y173108D01*
X352056Y173149D01*
X352095Y173226D01*
X352143Y173297D01*
X352160Y173351D01*
X352186Y173402D01*
X352203Y173486D01*
X352229Y173568D01*
X352230Y173625D01*
X352241Y173681D01*
X352234Y173766D01*
X352236Y173852D01*
X352222Y173907D01*
X352217Y173964D01*
X352186Y174045D01*
X352164Y174127D01*
X352135Y174176D01*
X352115Y174229D01*
X352063Y174298D01*
X352019Y174372D01*
X351977Y174411D01*
X351943Y174456D01*
X351874Y174508D01*
X351812Y174566D01*
X351761Y174592D01*
X351715Y174626D01*
X351635Y174657D01*
X351558Y174696D01*
X351510Y174704D01*
X351449Y174727D01*
X351305Y174738D01*
X351227Y174751D01*
X334573Y174751D01*
X334488Y174739D01*
X334402Y174737D01*
X334347Y174719D01*
X334291Y174711D01*
X334213Y174676D01*
X334131Y174650D01*
X334084Y174618D01*
X334032Y174595D01*
X333966Y174540D01*
X333895Y174492D01*
X333858Y174448D01*
X333815Y174412D01*
X333767Y174340D01*
X333712Y174274D01*
X333689Y174222D01*
X333657Y174175D01*
X333631Y174093D01*
X333596Y174014D01*
X333589Y173958D01*
X333571Y173904D01*
X333569Y173818D01*
X333557Y173733D01*
X333566Y173677D01*
X333564Y173620D01*
X333586Y173537D01*
X333598Y173451D01*
X333622Y173400D01*
X333636Y173345D01*
X333680Y173271D01*
X333715Y173192D01*
X333752Y173149D01*
X333781Y173100D01*
X333844Y173041D01*
X333899Y172976D01*
X333941Y172950D01*
X333988Y172906D01*
X334118Y172840D01*
X334184Y172798D01*
X335092Y172422D01*
X337522Y169992D01*
X338837Y166818D01*
X338837Y163382D01*
X337522Y160208D01*
X335092Y157778D01*
X331918Y156463D01*
X328482Y156463D01*
X325308Y157778D01*
X322878Y160208D01*
X321563Y163382D01*
X321563Y166818D01*
X322878Y169992D01*
X325308Y172422D01*
X326216Y172798D01*
X326290Y172842D01*
X326368Y172877D01*
X326412Y172914D01*
X326461Y172943D01*
X326520Y173005D01*
X326585Y173061D01*
X326617Y173108D01*
X326656Y173149D01*
X326695Y173226D01*
X326743Y173297D01*
X326760Y173351D01*
X326786Y173402D01*
X326803Y173486D01*
X326829Y173568D01*
X326830Y173625D01*
X326841Y173681D01*
X326834Y173766D01*
X326836Y173852D01*
X326822Y173907D01*
X326817Y173964D01*
X326786Y174045D01*
X326764Y174127D01*
X326735Y174176D01*
X326715Y174229D01*
X326663Y174298D01*
X326619Y174372D01*
X326577Y174411D01*
X326543Y174456D01*
X326474Y174508D01*
X326412Y174566D01*
X326361Y174592D01*
X326315Y174626D01*
X326235Y174657D01*
X326158Y174696D01*
X326110Y174704D01*
X326049Y174727D01*
X325905Y174738D01*
X325827Y174751D01*
X309173Y174751D01*
X309088Y174739D01*
X309002Y174737D01*
X308947Y174719D01*
X308891Y174711D01*
X308813Y174676D01*
X308731Y174650D01*
X308684Y174618D01*
X308632Y174595D01*
X308566Y174540D01*
X308495Y174492D01*
X308458Y174448D01*
X308415Y174412D01*
X308367Y174340D01*
X308312Y174274D01*
X308289Y174222D01*
X308257Y174175D01*
X308231Y174093D01*
X308196Y174014D01*
X308189Y173958D01*
X308171Y173904D01*
X308169Y173818D01*
X308157Y173733D01*
X308166Y173677D01*
X308164Y173620D01*
X308186Y173537D01*
X308198Y173451D01*
X308222Y173400D01*
X308236Y173345D01*
X308280Y173271D01*
X308315Y173192D01*
X308352Y173149D01*
X308381Y173100D01*
X308444Y173041D01*
X308499Y172976D01*
X308541Y172950D01*
X308588Y172906D01*
X308718Y172840D01*
X308784Y172798D01*
X309692Y172422D01*
X312122Y169992D01*
X313437Y166818D01*
X313437Y163382D01*
X312122Y160208D01*
X309692Y157778D01*
X306518Y156463D01*
X303082Y156463D01*
X299908Y157778D01*
X297478Y160208D01*
X296163Y163382D01*
X296163Y166818D01*
X297478Y169992D01*
X299908Y172422D01*
X300816Y172798D01*
X300890Y172842D01*
X300968Y172877D01*
X301012Y172914D01*
X301061Y172943D01*
X301120Y173005D01*
X301185Y173061D01*
X301217Y173108D01*
X301256Y173149D01*
X301295Y173226D01*
X301343Y173297D01*
X301360Y173351D01*
X301386Y173402D01*
X301403Y173486D01*
X301429Y173568D01*
X301430Y173625D01*
X301441Y173681D01*
X301434Y173766D01*
X301436Y173852D01*
X301422Y173907D01*
X301417Y173964D01*
X301386Y174045D01*
X301364Y174127D01*
X301335Y174176D01*
X301315Y174229D01*
X301263Y174298D01*
X301219Y174372D01*
X301177Y174411D01*
X301143Y174456D01*
X301074Y174508D01*
X301012Y174566D01*
X300961Y174592D01*
X300915Y174626D01*
X300835Y174657D01*
X300758Y174696D01*
X300710Y174704D01*
X300649Y174727D01*
X300505Y174738D01*
X300427Y174751D01*
X283773Y174751D01*
X283688Y174739D01*
X283602Y174737D01*
X283547Y174719D01*
X283491Y174711D01*
X283413Y174676D01*
X283331Y174650D01*
X283284Y174618D01*
X283232Y174595D01*
X283166Y174540D01*
X283095Y174492D01*
X283058Y174448D01*
X283015Y174412D01*
X282967Y174340D01*
X282912Y174274D01*
X282889Y174222D01*
X282857Y174175D01*
X282831Y174093D01*
X282796Y174014D01*
X282789Y173958D01*
X282771Y173904D01*
X282769Y173818D01*
X282757Y173733D01*
X282766Y173677D01*
X282764Y173620D01*
X282786Y173537D01*
X282798Y173451D01*
X282822Y173400D01*
X282836Y173345D01*
X282880Y173271D01*
X282915Y173192D01*
X282952Y173149D01*
X282981Y173100D01*
X283044Y173041D01*
X283099Y172976D01*
X283141Y172950D01*
X283188Y172906D01*
X283318Y172840D01*
X283384Y172798D01*
X284292Y172422D01*
X286722Y169992D01*
X288037Y166818D01*
X288037Y163382D01*
X286722Y160208D01*
X284292Y157778D01*
X281118Y156463D01*
X277682Y156463D01*
X274508Y157778D01*
X272078Y160208D01*
X270763Y163382D01*
X270763Y166818D01*
X272078Y169992D01*
X274508Y172422D01*
X275416Y172798D01*
X275490Y172842D01*
X275568Y172877D01*
X275612Y172914D01*
X275661Y172943D01*
X275720Y173005D01*
X275785Y173061D01*
X275817Y173108D01*
X275856Y173149D01*
X275895Y173226D01*
X275943Y173297D01*
X275960Y173351D01*
X275986Y173402D01*
X276003Y173486D01*
X276029Y173568D01*
X276030Y173625D01*
X276041Y173681D01*
X276034Y173766D01*
X276036Y173852D01*
X276022Y173907D01*
X276017Y173964D01*
X275986Y174045D01*
X275964Y174127D01*
X275935Y174176D01*
X275915Y174229D01*
X275863Y174298D01*
X275819Y174372D01*
X275777Y174411D01*
X275743Y174456D01*
X275674Y174508D01*
X275612Y174566D01*
X275561Y174592D01*
X275515Y174626D01*
X275435Y174657D01*
X275358Y174696D01*
X275310Y174704D01*
X275249Y174727D01*
X275105Y174738D01*
X275027Y174751D01*
X5588Y174751D01*
X5530Y174743D01*
X5472Y174745D01*
X5390Y174723D01*
X5306Y174711D01*
X5253Y174688D01*
X5197Y174673D01*
X5124Y174630D01*
X5047Y174595D01*
X5002Y174557D01*
X4952Y174528D01*
X4894Y174466D01*
X4830Y174412D01*
X4798Y174363D01*
X4758Y174320D01*
X4719Y174245D01*
X4672Y174175D01*
X4655Y174119D01*
X4628Y174067D01*
X4617Y173999D01*
X4587Y173904D01*
X4584Y173804D01*
X4573Y173736D01*
X4573Y150143D01*
X4577Y150113D01*
X4574Y150084D01*
X4597Y149973D01*
X4613Y149861D01*
X4625Y149834D01*
X4630Y149806D01*
X4682Y149705D01*
X4729Y149602D01*
X4748Y149579D01*
X4761Y149553D01*
X4839Y149471D01*
X4912Y149385D01*
X4937Y149368D01*
X4957Y149347D01*
X5055Y149290D01*
X5149Y149227D01*
X5177Y149218D01*
X5202Y149203D01*
X5312Y149175D01*
X5420Y149141D01*
X5449Y149141D01*
X5478Y149133D01*
X5591Y149137D01*
X5704Y149134D01*
X5733Y149141D01*
X5762Y149142D01*
X5870Y149177D01*
X5979Y149206D01*
X6005Y149221D01*
X6033Y149230D01*
X6096Y149275D01*
X6224Y149351D01*
X6225Y149353D01*
X10022Y149353D01*
X12701Y146674D01*
X12701Y142886D01*
X10022Y140207D01*
X6216Y140207D01*
X6169Y140238D01*
X6079Y140306D01*
X6051Y140317D01*
X6027Y140333D01*
X5919Y140367D01*
X5813Y140407D01*
X5784Y140410D01*
X5756Y140419D01*
X5643Y140422D01*
X5530Y140431D01*
X5501Y140425D01*
X5472Y140426D01*
X5362Y140397D01*
X5251Y140375D01*
X5225Y140362D01*
X5197Y140354D01*
X5100Y140297D01*
X4999Y140244D01*
X4977Y140224D01*
X4952Y140209D01*
X4875Y140126D01*
X4793Y140048D01*
X4778Y140023D01*
X4758Y140002D01*
X4706Y139901D01*
X4649Y139803D01*
X4642Y139775D01*
X4628Y139748D01*
X4615Y139671D01*
X4579Y139528D01*
X4581Y139465D01*
X4573Y139417D01*
X4573Y4060D01*
X4581Y4003D01*
X4579Y3945D01*
X4601Y3863D01*
X4613Y3779D01*
X4636Y3726D01*
X4651Y3670D01*
X4694Y3597D01*
X4729Y3519D01*
X4766Y3475D01*
X4796Y3425D01*
X4858Y3367D01*
X4912Y3302D01*
X4961Y3270D01*
X5003Y3230D01*
X5079Y3192D01*
X5149Y3145D01*
X5205Y3127D01*
X5256Y3101D01*
X5325Y3089D01*
X5420Y3059D01*
X5519Y3057D01*
X5587Y3045D01*
X148238Y2961D01*
X148323Y2973D01*
G37*
G36*
X671577Y45979D02*
X671577Y45979D01*
X671606Y45976D01*
X671717Y45999D01*
X671829Y46015D01*
X671856Y46027D01*
X671884Y46032D01*
X671985Y46085D01*
X672088Y46131D01*
X672111Y46150D01*
X672137Y46163D01*
X672219Y46241D01*
X672305Y46314D01*
X672322Y46339D01*
X672343Y46359D01*
X672400Y46457D01*
X672463Y46551D01*
X672472Y46579D01*
X672487Y46604D01*
X672514Y46714D01*
X672549Y46822D01*
X672549Y46852D01*
X672557Y46880D01*
X672553Y46993D01*
X672556Y47106D01*
X672549Y47135D01*
X672548Y47164D01*
X672513Y47272D01*
X672484Y47381D01*
X672469Y47407D01*
X672460Y47435D01*
X672415Y47499D01*
X672339Y47626D01*
X672293Y47669D01*
X672265Y47708D01*
X671067Y48906D01*
X671067Y52694D01*
X673746Y55373D01*
X677534Y55373D01*
X680213Y52694D01*
X680213Y48906D01*
X679015Y47708D01*
X678997Y47684D01*
X678975Y47665D01*
X678912Y47571D01*
X678844Y47481D01*
X678833Y47453D01*
X678817Y47429D01*
X678783Y47321D01*
X678743Y47215D01*
X678740Y47186D01*
X678731Y47158D01*
X678728Y47044D01*
X678719Y46932D01*
X678725Y46903D01*
X678724Y46874D01*
X678753Y46764D01*
X678775Y46653D01*
X678788Y46627D01*
X678796Y46599D01*
X678854Y46501D01*
X678906Y46401D01*
X678926Y46379D01*
X678941Y46354D01*
X679024Y46277D01*
X679102Y46195D01*
X679127Y46180D01*
X679148Y46160D01*
X679249Y46108D01*
X679347Y46051D01*
X679375Y46044D01*
X679402Y46030D01*
X679479Y46017D01*
X679622Y45981D01*
X679685Y45983D01*
X679733Y45975D01*
X766318Y45975D01*
X766376Y45983D01*
X766434Y45981D01*
X766516Y46003D01*
X766600Y46015D01*
X766653Y46038D01*
X766709Y46053D01*
X766782Y46096D01*
X766859Y46131D01*
X766904Y46169D01*
X766954Y46198D01*
X767012Y46260D01*
X767076Y46314D01*
X767108Y46363D01*
X767148Y46406D01*
X767187Y46481D01*
X767234Y46551D01*
X767251Y46607D01*
X767278Y46659D01*
X767289Y46727D01*
X767319Y46822D01*
X767322Y46922D01*
X767333Y46990D01*
X767333Y102798D01*
X767321Y102884D01*
X767318Y102972D01*
X767301Y103025D01*
X767293Y103079D01*
X767258Y103159D01*
X767231Y103242D01*
X767203Y103282D01*
X767177Y103339D01*
X767081Y103452D01*
X767036Y103516D01*
X742834Y127718D01*
X742764Y127770D01*
X742700Y127830D01*
X742651Y127856D01*
X742606Y127889D01*
X742525Y127920D01*
X742447Y127960D01*
X742399Y127968D01*
X742341Y127990D01*
X742193Y128002D01*
X742116Y128015D01*
X675923Y128015D01*
X675836Y128003D01*
X675749Y128000D01*
X675696Y127983D01*
X675641Y127975D01*
X675561Y127940D01*
X675478Y127913D01*
X675439Y127885D01*
X675382Y127859D01*
X675268Y127763D01*
X675205Y127718D01*
X674994Y127507D01*
X671206Y127507D01*
X668527Y130186D01*
X668527Y133974D01*
X671206Y136653D01*
X674994Y136653D01*
X675205Y136442D01*
X675275Y136390D01*
X675338Y136330D01*
X675388Y136304D01*
X675432Y136271D01*
X675514Y136240D01*
X675592Y136200D01*
X675639Y136192D01*
X675698Y136170D01*
X675845Y136158D01*
X675923Y136145D01*
X743553Y136145D01*
X743639Y136157D01*
X743727Y136160D01*
X743779Y136177D01*
X743834Y136185D01*
X743914Y136220D01*
X743997Y136247D01*
X744036Y136275D01*
X744094Y136301D01*
X744207Y136397D01*
X744271Y136442D01*
X758654Y150825D01*
X758706Y150895D01*
X758766Y150959D01*
X758792Y151009D01*
X758825Y151053D01*
X758856Y151134D01*
X758896Y151212D01*
X758904Y151260D01*
X758926Y151318D01*
X758938Y151466D01*
X758951Y151543D01*
X758951Y156336D01*
X758951Y156338D01*
X758951Y156339D01*
X758931Y156479D01*
X758911Y156618D01*
X758911Y156619D01*
X758911Y156621D01*
X758854Y156747D01*
X758795Y156877D01*
X758794Y156878D01*
X758793Y156880D01*
X758702Y156987D01*
X758612Y157094D01*
X758610Y157095D01*
X758609Y157096D01*
X758596Y157104D01*
X758375Y157252D01*
X758346Y157261D01*
X758325Y157274D01*
X757108Y157778D01*
X754678Y160208D01*
X753363Y163382D01*
X753363Y166818D01*
X754678Y169992D01*
X757108Y172422D01*
X758016Y172798D01*
X758090Y172842D01*
X758168Y172877D01*
X758212Y172914D01*
X758261Y172943D01*
X758320Y173005D01*
X758385Y173061D01*
X758417Y173108D01*
X758456Y173149D01*
X758495Y173226D01*
X758543Y173297D01*
X758560Y173351D01*
X758586Y173402D01*
X758603Y173486D01*
X758629Y173568D01*
X758630Y173625D01*
X758641Y173681D01*
X758634Y173766D01*
X758636Y173852D01*
X758622Y173907D01*
X758617Y173964D01*
X758586Y174044D01*
X758564Y174127D01*
X758535Y174176D01*
X758515Y174229D01*
X758463Y174298D01*
X758419Y174372D01*
X758377Y174411D01*
X758343Y174456D01*
X758274Y174508D01*
X758212Y174566D01*
X758161Y174592D01*
X758115Y174626D01*
X758035Y174657D01*
X757958Y174696D01*
X757910Y174704D01*
X757849Y174727D01*
X757705Y174738D01*
X757627Y174751D01*
X743727Y174751D01*
X743620Y174736D01*
X743511Y174728D01*
X743479Y174716D01*
X743446Y174711D01*
X743347Y174667D01*
X743244Y174629D01*
X743217Y174609D01*
X743186Y174595D01*
X743103Y174525D01*
X743016Y174460D01*
X742995Y174433D01*
X742969Y174412D01*
X742909Y174321D01*
X742843Y174235D01*
X742831Y174203D01*
X742812Y174175D01*
X742779Y174071D01*
X742739Y173970D01*
X742736Y173936D01*
X742726Y173904D01*
X742723Y173795D01*
X742713Y173687D01*
X742720Y173653D01*
X742719Y173620D01*
X742746Y173515D01*
X742767Y173407D01*
X742782Y173377D01*
X742790Y173345D01*
X742846Y173251D01*
X742895Y173154D01*
X742917Y173132D01*
X742936Y173100D01*
X743096Y172950D01*
X743131Y172915D01*
X743219Y172850D01*
X744350Y171719D01*
X745290Y170425D01*
X746016Y169000D01*
X746511Y167479D01*
X746566Y167131D01*
X737616Y167131D01*
X737558Y167123D01*
X737500Y167125D01*
X737418Y167103D01*
X737335Y167091D01*
X737281Y167067D01*
X737225Y167053D01*
X737152Y167010D01*
X737075Y166975D01*
X737031Y166937D01*
X736980Y166907D01*
X736923Y166846D01*
X736858Y166791D01*
X736826Y166743D01*
X736786Y166700D01*
X736747Y166625D01*
X736701Y166555D01*
X736683Y166499D01*
X736656Y166447D01*
X736645Y166379D01*
X736615Y166284D01*
X736612Y166184D01*
X736601Y166116D01*
X736601Y165099D01*
X736599Y165099D01*
X736599Y166116D01*
X736591Y166174D01*
X736592Y166232D01*
X736571Y166314D01*
X736559Y166397D01*
X736535Y166451D01*
X736521Y166507D01*
X736478Y166580D01*
X736443Y166657D01*
X736405Y166702D01*
X736375Y166752D01*
X736314Y166810D01*
X736259Y166874D01*
X736211Y166906D01*
X736168Y166946D01*
X736093Y166985D01*
X736023Y167031D01*
X735967Y167049D01*
X735915Y167076D01*
X735847Y167087D01*
X735752Y167117D01*
X735652Y167120D01*
X735584Y167131D01*
X726634Y167131D01*
X726689Y167479D01*
X727184Y169000D01*
X727910Y170425D01*
X728850Y171719D01*
X729981Y172850D01*
X730069Y172915D01*
X730148Y172990D01*
X730231Y173061D01*
X730249Y173089D01*
X730274Y173112D01*
X730328Y173207D01*
X730388Y173297D01*
X730398Y173329D01*
X730415Y173359D01*
X730441Y173464D01*
X730474Y173568D01*
X730475Y173602D01*
X730483Y173635D01*
X730479Y173744D01*
X730481Y173852D01*
X730473Y173885D01*
X730471Y173919D01*
X730437Y174022D01*
X730410Y174127D01*
X730392Y174156D01*
X730382Y174189D01*
X730320Y174278D01*
X730264Y174372D01*
X730240Y174395D01*
X730220Y174423D01*
X730136Y174492D01*
X730057Y174566D01*
X730027Y174582D01*
X730001Y174603D01*
X729901Y174646D01*
X729804Y174696D01*
X729774Y174701D01*
X729740Y174716D01*
X729522Y174743D01*
X729473Y174751D01*
X715573Y174751D01*
X715487Y174739D01*
X715402Y174737D01*
X715347Y174719D01*
X715291Y174711D01*
X715213Y174676D01*
X715131Y174650D01*
X715083Y174618D01*
X715032Y174595D01*
X714966Y174540D01*
X714895Y174492D01*
X714858Y174448D01*
X714815Y174412D01*
X714767Y174340D01*
X714712Y174274D01*
X714689Y174222D01*
X714657Y174175D01*
X714631Y174093D01*
X714596Y174014D01*
X714588Y173958D01*
X714571Y173904D01*
X714569Y173818D01*
X714557Y173733D01*
X714565Y173677D01*
X714564Y173620D01*
X714586Y173537D01*
X714598Y173451D01*
X714621Y173400D01*
X714636Y173345D01*
X714680Y173271D01*
X714715Y173192D01*
X714752Y173149D01*
X714781Y173100D01*
X714844Y173041D01*
X714899Y172976D01*
X714941Y172950D01*
X714988Y172906D01*
X715118Y172840D01*
X715184Y172798D01*
X716092Y172422D01*
X718522Y169992D01*
X719837Y166818D01*
X719837Y163382D01*
X718522Y160208D01*
X716092Y157778D01*
X712918Y156463D01*
X709482Y156463D01*
X708265Y156967D01*
X708264Y156968D01*
X708262Y156969D01*
X708129Y157002D01*
X707990Y157038D01*
X707988Y157038D01*
X707987Y157039D01*
X707846Y157034D01*
X707706Y157030D01*
X707704Y157030D01*
X707703Y157030D01*
X707568Y156986D01*
X707435Y156943D01*
X707434Y156943D01*
X707432Y156942D01*
X707420Y156933D01*
X707199Y156785D01*
X707179Y156762D01*
X707159Y156747D01*
X695242Y144831D01*
X695242Y144830D01*
X693159Y142747D01*
X654587Y142747D01*
X654557Y142743D01*
X654528Y142746D01*
X654417Y142723D01*
X654305Y142707D01*
X654278Y142695D01*
X654250Y142690D01*
X654149Y142637D01*
X654046Y142591D01*
X654023Y142572D01*
X653997Y142559D01*
X653915Y142481D01*
X653829Y142408D01*
X653812Y142383D01*
X653791Y142363D01*
X653734Y142265D01*
X653671Y142171D01*
X653662Y142143D01*
X653647Y142118D01*
X653620Y142008D01*
X653585Y141900D01*
X653585Y141870D01*
X653577Y141842D01*
X653581Y141729D01*
X653578Y141616D01*
X653585Y141587D01*
X653586Y141558D01*
X653621Y141450D01*
X653650Y141341D01*
X653665Y141315D01*
X653674Y141287D01*
X653719Y141224D01*
X653795Y141096D01*
X653841Y141053D01*
X653869Y141014D01*
X655829Y139054D01*
X655829Y135266D01*
X653150Y132587D01*
X649362Y132587D01*
X646683Y135266D01*
X646683Y139054D01*
X648643Y141014D01*
X648661Y141038D01*
X648683Y141057D01*
X648746Y141151D01*
X648814Y141241D01*
X648825Y141269D01*
X648841Y141293D01*
X648875Y141401D01*
X648915Y141507D01*
X648918Y141536D01*
X648927Y141564D01*
X648930Y141678D01*
X648939Y141790D01*
X648933Y141819D01*
X648934Y141848D01*
X648905Y141958D01*
X648883Y142069D01*
X648870Y142095D01*
X648862Y142123D01*
X648804Y142221D01*
X648752Y142321D01*
X648732Y142343D01*
X648717Y142368D01*
X648634Y142445D01*
X648556Y142527D01*
X648531Y142542D01*
X648510Y142562D01*
X648409Y142614D01*
X648311Y142671D01*
X648283Y142678D01*
X648256Y142692D01*
X648179Y142705D01*
X648036Y142741D01*
X647973Y142739D01*
X647925Y142747D01*
X638715Y142747D01*
X638629Y142735D01*
X638541Y142732D01*
X638489Y142715D01*
X638434Y142707D01*
X638354Y142672D01*
X638271Y142645D01*
X638232Y142617D01*
X638174Y142591D01*
X638061Y142495D01*
X637997Y142450D01*
X610914Y115367D01*
X610862Y115297D01*
X610802Y115233D01*
X610776Y115183D01*
X610743Y115139D01*
X610712Y115058D01*
X610672Y114980D01*
X610664Y114932D01*
X610642Y114874D01*
X610630Y114726D01*
X610617Y114649D01*
X610617Y102391D01*
X610629Y102304D01*
X610632Y102217D01*
X610649Y102164D01*
X610657Y102109D01*
X610692Y102029D01*
X610719Y101946D01*
X610747Y101907D01*
X610773Y101850D01*
X610869Y101736D01*
X610914Y101673D01*
X612649Y99938D01*
X612649Y96150D01*
X611422Y94923D01*
X611370Y94853D01*
X611310Y94790D01*
X611284Y94740D01*
X611251Y94696D01*
X611220Y94614D01*
X611180Y94536D01*
X611172Y94489D01*
X611150Y94430D01*
X611138Y94283D01*
X611125Y94205D01*
X611125Y91091D01*
X611137Y91005D01*
X611140Y90917D01*
X611157Y90865D01*
X611165Y90810D01*
X611200Y90730D01*
X611227Y90647D01*
X611255Y90608D01*
X611281Y90550D01*
X611377Y90437D01*
X611422Y90373D01*
X622757Y79038D01*
X622827Y78986D01*
X622891Y78926D01*
X622941Y78900D01*
X622985Y78867D01*
X623066Y78836D01*
X623144Y78796D01*
X623192Y78788D01*
X623250Y78766D01*
X623398Y78754D01*
X623475Y78741D01*
X674363Y78741D01*
X685749Y67354D01*
X685819Y67302D01*
X685883Y67242D01*
X685933Y67216D01*
X685977Y67183D01*
X686058Y67152D01*
X686136Y67112D01*
X686184Y67104D01*
X686242Y67082D01*
X686390Y67070D01*
X686467Y67057D01*
X688202Y67057D01*
X690881Y64378D01*
X690881Y60590D01*
X688202Y57911D01*
X684414Y57911D01*
X681735Y60590D01*
X681735Y62325D01*
X681723Y62411D01*
X681720Y62499D01*
X681703Y62551D01*
X681695Y62606D01*
X681660Y62686D01*
X681633Y62769D01*
X681605Y62808D01*
X681579Y62866D01*
X681483Y62979D01*
X681438Y63043D01*
X672135Y72346D01*
X672065Y72398D01*
X672001Y72458D01*
X671951Y72484D01*
X671907Y72517D01*
X671826Y72548D01*
X671748Y72588D01*
X671700Y72596D01*
X671642Y72618D01*
X671494Y72630D01*
X671417Y72643D01*
X655603Y72643D01*
X655573Y72639D01*
X655544Y72642D01*
X655433Y72619D01*
X655321Y72603D01*
X655294Y72591D01*
X655266Y72586D01*
X655165Y72533D01*
X655062Y72487D01*
X655039Y72468D01*
X655013Y72455D01*
X654931Y72377D01*
X654845Y72304D01*
X654828Y72279D01*
X654807Y72259D01*
X654750Y72161D01*
X654687Y72067D01*
X654678Y72039D01*
X654663Y72014D01*
X654636Y71904D01*
X654601Y71796D01*
X654601Y71766D01*
X654593Y71738D01*
X654597Y71625D01*
X654594Y71512D01*
X654601Y71483D01*
X654602Y71454D01*
X654637Y71346D01*
X654666Y71237D01*
X654681Y71211D01*
X654690Y71183D01*
X654735Y71119D01*
X654811Y70992D01*
X654854Y70952D01*
X654858Y70945D01*
X654863Y70941D01*
X654885Y70910D01*
X655829Y69966D01*
X655829Y66178D01*
X654123Y64472D01*
X654088Y64425D01*
X654045Y64385D01*
X654002Y64312D01*
X653952Y64245D01*
X653931Y64190D01*
X653901Y64140D01*
X653881Y64058D01*
X653851Y63979D01*
X653846Y63921D01*
X653831Y63864D01*
X653834Y63780D01*
X653827Y63696D01*
X653839Y63638D01*
X653840Y63580D01*
X653866Y63500D01*
X653883Y63417D01*
X653910Y63365D01*
X653928Y63309D01*
X653968Y63253D01*
X654014Y63165D01*
X654083Y63092D01*
X654123Y63036D01*
X655829Y61330D01*
X655829Y57542D01*
X653150Y54863D01*
X649362Y54863D01*
X646683Y57542D01*
X646683Y61330D01*
X648389Y63036D01*
X648424Y63083D01*
X648467Y63123D01*
X648510Y63196D01*
X648560Y63263D01*
X648581Y63318D01*
X648611Y63368D01*
X648631Y63450D01*
X648661Y63529D01*
X648666Y63587D01*
X648681Y63644D01*
X648678Y63728D01*
X648685Y63812D01*
X648673Y63870D01*
X648672Y63928D01*
X648646Y64008D01*
X648629Y64091D01*
X648602Y64143D01*
X648584Y64199D01*
X648544Y64255D01*
X648498Y64343D01*
X648429Y64416D01*
X648389Y64472D01*
X646683Y66178D01*
X646683Y69966D01*
X647627Y70910D01*
X647645Y70934D01*
X647667Y70953D01*
X647730Y71047D01*
X647798Y71137D01*
X647809Y71165D01*
X647825Y71189D01*
X647859Y71297D01*
X647899Y71403D01*
X647902Y71432D01*
X647911Y71460D01*
X647914Y71574D01*
X647923Y71686D01*
X647917Y71715D01*
X647918Y71744D01*
X647889Y71854D01*
X647867Y71965D01*
X647854Y71991D01*
X647846Y72019D01*
X647788Y72117D01*
X647736Y72217D01*
X647716Y72239D01*
X647701Y72264D01*
X647618Y72341D01*
X647540Y72423D01*
X647515Y72438D01*
X647494Y72458D01*
X647393Y72510D01*
X647295Y72567D01*
X647267Y72574D01*
X647240Y72588D01*
X647163Y72601D01*
X647020Y72637D01*
X646957Y72635D01*
X646909Y72643D01*
X620529Y72643D01*
X607111Y86062D01*
X607041Y86114D01*
X606977Y86174D01*
X606927Y86200D01*
X606883Y86233D01*
X606802Y86264D01*
X606724Y86304D01*
X606676Y86312D01*
X606618Y86334D01*
X606470Y86346D01*
X606393Y86359D01*
X569751Y86359D01*
X569664Y86347D01*
X569577Y86344D01*
X569524Y86327D01*
X569469Y86319D01*
X569389Y86284D01*
X569306Y86257D01*
X569267Y86229D01*
X569210Y86203D01*
X569097Y86107D01*
X569033Y86062D01*
X567734Y84763D01*
X567682Y84693D01*
X567622Y84630D01*
X567596Y84580D01*
X567563Y84536D01*
X567532Y84454D01*
X567492Y84376D01*
X567484Y84329D01*
X567462Y84270D01*
X567450Y84123D01*
X567437Y84045D01*
X567437Y79422D01*
X537798Y49783D01*
X450371Y49783D01*
X450284Y49771D01*
X450197Y49768D01*
X450144Y49751D01*
X450089Y49743D01*
X450009Y49708D01*
X449926Y49681D01*
X449887Y49653D01*
X449830Y49627D01*
X449717Y49531D01*
X449653Y49486D01*
X447875Y47708D01*
X447857Y47684D01*
X447835Y47665D01*
X447772Y47571D01*
X447704Y47481D01*
X447693Y47453D01*
X447677Y47429D01*
X447643Y47321D01*
X447603Y47215D01*
X447600Y47186D01*
X447591Y47158D01*
X447588Y47044D01*
X447579Y46932D01*
X447585Y46903D01*
X447584Y46874D01*
X447613Y46764D01*
X447635Y46653D01*
X447648Y46627D01*
X447656Y46599D01*
X447714Y46501D01*
X447766Y46401D01*
X447786Y46379D01*
X447801Y46354D01*
X447884Y46277D01*
X447962Y46195D01*
X447987Y46180D01*
X448008Y46160D01*
X448109Y46108D01*
X448207Y46051D01*
X448235Y46044D01*
X448262Y46030D01*
X448339Y46017D01*
X448482Y45981D01*
X448545Y45983D01*
X448593Y45975D01*
X671547Y45975D01*
X671577Y45979D01*
G37*
G36*
X857562Y2552D02*
X857562Y2552D01*
X857620Y2551D01*
X857702Y2572D01*
X857785Y2584D01*
X857839Y2608D01*
X857895Y2623D01*
X857968Y2666D01*
X858044Y2700D01*
X858089Y2738D01*
X858140Y2768D01*
X858197Y2829D01*
X858262Y2884D01*
X858294Y2932D01*
X858334Y2975D01*
X858373Y3050D01*
X858419Y3120D01*
X858437Y3176D01*
X858464Y3228D01*
X858475Y3296D01*
X858505Y3391D01*
X858508Y3491D01*
X858519Y3560D01*
X858519Y173736D01*
X858511Y173794D01*
X858513Y173852D01*
X858491Y173934D01*
X858479Y174018D01*
X858456Y174071D01*
X858441Y174127D01*
X858398Y174200D01*
X858363Y174277D01*
X858325Y174322D01*
X858296Y174372D01*
X858234Y174430D01*
X858180Y174494D01*
X858131Y174526D01*
X858088Y174566D01*
X858013Y174605D01*
X857943Y174652D01*
X857887Y174669D01*
X857835Y174696D01*
X857767Y174707D01*
X857672Y174737D01*
X857572Y174740D01*
X857504Y174751D01*
X766373Y174751D01*
X766287Y174739D01*
X766202Y174737D01*
X766147Y174719D01*
X766091Y174711D01*
X766013Y174676D01*
X765931Y174650D01*
X765883Y174618D01*
X765832Y174595D01*
X765766Y174540D01*
X765695Y174492D01*
X765658Y174448D01*
X765615Y174412D01*
X765567Y174340D01*
X765512Y174274D01*
X765489Y174222D01*
X765457Y174175D01*
X765431Y174093D01*
X765396Y174014D01*
X765388Y173958D01*
X765371Y173904D01*
X765369Y173818D01*
X765357Y173733D01*
X765365Y173677D01*
X765364Y173620D01*
X765386Y173537D01*
X765398Y173451D01*
X765421Y173400D01*
X765436Y173345D01*
X765480Y173271D01*
X765515Y173192D01*
X765552Y173149D01*
X765581Y173100D01*
X765644Y173041D01*
X765699Y172976D01*
X765741Y172950D01*
X765788Y172906D01*
X765918Y172840D01*
X765984Y172798D01*
X766892Y172422D01*
X769322Y169992D01*
X770637Y166818D01*
X770637Y163382D01*
X769322Y160208D01*
X766892Y157778D01*
X765675Y157274D01*
X765674Y157273D01*
X765673Y157273D01*
X765552Y157201D01*
X765431Y157130D01*
X765430Y157128D01*
X765428Y157128D01*
X765327Y157020D01*
X765235Y156923D01*
X765235Y156922D01*
X765234Y156920D01*
X765169Y156795D01*
X765105Y156670D01*
X765105Y156669D01*
X765104Y156667D01*
X765102Y156652D01*
X765050Y156391D01*
X765053Y156361D01*
X765049Y156336D01*
X765049Y148597D01*
X762966Y146514D01*
X762965Y146514D01*
X749968Y133516D01*
X749933Y133470D01*
X749890Y133429D01*
X749848Y133356D01*
X749797Y133289D01*
X749776Y133234D01*
X749747Y133184D01*
X749726Y133102D01*
X749696Y133023D01*
X749691Y132965D01*
X749676Y132909D01*
X749679Y132824D01*
X749672Y132740D01*
X749684Y132683D01*
X749686Y132624D01*
X749711Y132544D01*
X749728Y132461D01*
X749755Y132410D01*
X749773Y132354D01*
X749813Y132298D01*
X749859Y132209D01*
X749928Y132137D01*
X749968Y132081D01*
X771647Y110401D01*
X771694Y110366D01*
X771734Y110324D01*
X771807Y110281D01*
X771874Y110230D01*
X771929Y110209D01*
X771980Y110180D01*
X772061Y110159D01*
X772140Y110129D01*
X772198Y110124D01*
X772255Y110110D01*
X772339Y110112D01*
X772423Y110105D01*
X772481Y110117D01*
X772539Y110119D01*
X772619Y110145D01*
X772702Y110161D01*
X772754Y110188D01*
X772810Y110206D01*
X772866Y110246D01*
X772954Y110292D01*
X773027Y110361D01*
X773083Y110401D01*
X775701Y113019D01*
X775719Y113044D01*
X775743Y113064D01*
X775785Y113130D01*
X775872Y113246D01*
X775895Y113306D01*
X775921Y113348D01*
X776244Y114128D01*
X778428Y116312D01*
X779208Y116635D01*
X779234Y116651D01*
X779264Y116660D01*
X779327Y116706D01*
X779452Y116780D01*
X779497Y116826D01*
X779537Y116855D01*
X788632Y125950D01*
X790899Y128217D01*
X793607Y129339D01*
X806088Y129339D01*
X806175Y129351D01*
X806263Y129354D01*
X806315Y129371D01*
X806370Y129379D01*
X806450Y129414D01*
X806533Y129441D01*
X806572Y129469D01*
X806629Y129495D01*
X806742Y129591D01*
X806806Y129636D01*
X807634Y130464D01*
X811316Y131989D01*
X815300Y131989D01*
X818982Y130464D01*
X821800Y127646D01*
X823325Y123964D01*
X823325Y119980D01*
X821800Y116298D01*
X818982Y113480D01*
X815300Y111955D01*
X811316Y111955D01*
X807634Y113480D01*
X806806Y114308D01*
X806736Y114360D01*
X806673Y114420D01*
X806623Y114446D01*
X806579Y114479D01*
X806497Y114510D01*
X806420Y114550D01*
X806372Y114558D01*
X806314Y114580D01*
X806166Y114592D01*
X806088Y114605D01*
X798544Y114605D01*
X798457Y114593D01*
X798370Y114590D01*
X798317Y114573D01*
X798262Y114565D01*
X798183Y114530D01*
X798099Y114503D01*
X798060Y114475D01*
X798003Y114449D01*
X797890Y114353D01*
X797826Y114308D01*
X789955Y106437D01*
X789937Y106412D01*
X789913Y106392D01*
X789871Y106326D01*
X789784Y106210D01*
X789761Y106150D01*
X789735Y106108D01*
X789412Y105328D01*
X787228Y103144D01*
X786448Y102821D01*
X786422Y102805D01*
X786392Y102796D01*
X786329Y102750D01*
X786204Y102676D01*
X786159Y102630D01*
X786119Y102601D01*
X782364Y98846D01*
X782312Y98776D01*
X782252Y98712D01*
X782226Y98663D01*
X782193Y98619D01*
X782162Y98537D01*
X782122Y98459D01*
X782114Y98412D01*
X782092Y98353D01*
X782080Y98205D01*
X782067Y98128D01*
X782067Y46990D01*
X782075Y46932D01*
X782073Y46874D01*
X782095Y46792D01*
X782107Y46708D01*
X782130Y46655D01*
X782145Y46599D01*
X782188Y46526D01*
X782223Y46449D01*
X782261Y46404D01*
X782290Y46354D01*
X782352Y46296D01*
X782406Y46232D01*
X782455Y46200D01*
X782498Y46160D01*
X782573Y46121D01*
X782643Y46074D01*
X782699Y46057D01*
X782751Y46030D01*
X782819Y46019D01*
X782914Y45989D01*
X783014Y45986D01*
X783082Y45975D01*
X789911Y45975D01*
X789941Y45979D01*
X789970Y45976D01*
X790081Y45999D01*
X790193Y46015D01*
X790220Y46027D01*
X790248Y46032D01*
X790349Y46085D01*
X790452Y46131D01*
X790475Y46150D01*
X790501Y46163D01*
X790583Y46241D01*
X790669Y46314D01*
X790686Y46339D01*
X790707Y46359D01*
X790764Y46457D01*
X790827Y46551D01*
X790836Y46579D01*
X790851Y46604D01*
X790878Y46714D01*
X790913Y46822D01*
X790913Y46852D01*
X790921Y46880D01*
X790917Y46993D01*
X790920Y47106D01*
X790913Y47135D01*
X790912Y47164D01*
X790877Y47272D01*
X790848Y47381D01*
X790833Y47407D01*
X790824Y47435D01*
X790779Y47498D01*
X790703Y47626D01*
X790657Y47669D01*
X790629Y47708D01*
X788923Y49414D01*
X788923Y53202D01*
X791602Y55881D01*
X795390Y55881D01*
X796334Y54937D01*
X796358Y54919D01*
X796377Y54897D01*
X796471Y54834D01*
X796561Y54766D01*
X796589Y54755D01*
X796613Y54739D01*
X796721Y54705D01*
X796827Y54665D01*
X796856Y54662D01*
X796884Y54653D01*
X796998Y54650D01*
X797110Y54641D01*
X797139Y54647D01*
X797168Y54646D01*
X797278Y54675D01*
X797389Y54697D01*
X797415Y54710D01*
X797443Y54718D01*
X797541Y54776D01*
X797641Y54828D01*
X797663Y54848D01*
X797688Y54863D01*
X797765Y54946D01*
X797847Y55024D01*
X797862Y55049D01*
X797882Y55070D01*
X797934Y55171D01*
X797991Y55269D01*
X797998Y55297D01*
X798012Y55324D01*
X798025Y55401D01*
X798061Y55544D01*
X798059Y55607D01*
X798067Y55655D01*
X798067Y57266D01*
X799519Y58718D01*
X799537Y58742D01*
X799559Y58761D01*
X799576Y58785D01*
X799597Y58805D01*
X799639Y58878D01*
X799690Y58945D01*
X799701Y58973D01*
X799717Y58997D01*
X799726Y59025D01*
X799741Y59050D01*
X799761Y59132D01*
X799791Y59211D01*
X799794Y59240D01*
X799803Y59268D01*
X799803Y59298D01*
X799811Y59326D01*
X799808Y59410D01*
X799815Y59494D01*
X799809Y59523D01*
X799810Y59552D01*
X799803Y59581D01*
X799802Y59610D01*
X799776Y59690D01*
X799759Y59773D01*
X799746Y59799D01*
X799738Y59827D01*
X799723Y59853D01*
X799714Y59881D01*
X799674Y59936D01*
X799628Y60025D01*
X799608Y60047D01*
X799593Y60072D01*
X799547Y60115D01*
X799519Y60154D01*
X796543Y63130D01*
X796543Y66918D01*
X799222Y69597D01*
X803010Y69597D01*
X805689Y66918D01*
X805689Y63130D01*
X804237Y61678D01*
X804219Y61654D01*
X804197Y61635D01*
X804180Y61611D01*
X804159Y61591D01*
X804117Y61518D01*
X804066Y61451D01*
X804055Y61423D01*
X804039Y61399D01*
X804030Y61371D01*
X804015Y61346D01*
X803995Y61264D01*
X803965Y61185D01*
X803962Y61156D01*
X803953Y61128D01*
X803953Y61098D01*
X803945Y61070D01*
X803948Y60986D01*
X803941Y60902D01*
X803947Y60873D01*
X803946Y60844D01*
X803953Y60815D01*
X803954Y60786D01*
X803980Y60706D01*
X803997Y60623D01*
X804010Y60597D01*
X804018Y60569D01*
X804033Y60543D01*
X804042Y60515D01*
X804082Y60460D01*
X804128Y60371D01*
X804148Y60349D01*
X804163Y60324D01*
X804209Y60281D01*
X804237Y60242D01*
X807213Y57266D01*
X807213Y53478D01*
X804534Y50799D01*
X800746Y50799D01*
X799802Y51743D01*
X799778Y51761D01*
X799759Y51783D01*
X799665Y51846D01*
X799575Y51914D01*
X799547Y51925D01*
X799523Y51941D01*
X799415Y51975D01*
X799309Y52015D01*
X799280Y52018D01*
X799252Y52027D01*
X799138Y52030D01*
X799026Y52039D01*
X798997Y52033D01*
X798968Y52034D01*
X798858Y52005D01*
X798747Y51983D01*
X798721Y51970D01*
X798693Y51962D01*
X798595Y51904D01*
X798495Y51852D01*
X798473Y51832D01*
X798448Y51817D01*
X798371Y51734D01*
X798289Y51656D01*
X798274Y51631D01*
X798254Y51610D01*
X798202Y51509D01*
X798145Y51411D01*
X798138Y51383D01*
X798124Y51356D01*
X798111Y51279D01*
X798075Y51136D01*
X798077Y51073D01*
X798069Y51025D01*
X798069Y49414D01*
X796363Y47708D01*
X796345Y47684D01*
X796323Y47665D01*
X796260Y47571D01*
X796192Y47481D01*
X796181Y47453D01*
X796165Y47429D01*
X796131Y47321D01*
X796091Y47215D01*
X796088Y47186D01*
X796079Y47158D01*
X796076Y47044D01*
X796067Y46932D01*
X796073Y46903D01*
X796072Y46874D01*
X796101Y46764D01*
X796123Y46653D01*
X796136Y46627D01*
X796144Y46599D01*
X796202Y46501D01*
X796254Y46401D01*
X796274Y46379D01*
X796289Y46354D01*
X796372Y46277D01*
X796450Y46195D01*
X796475Y46180D01*
X796496Y46160D01*
X796597Y46108D01*
X796695Y46051D01*
X796723Y46044D01*
X796750Y46030D01*
X796827Y46017D01*
X796970Y45981D01*
X797033Y45983D01*
X797081Y45975D01*
X801565Y45975D01*
X804273Y44853D01*
X806345Y42781D01*
X807467Y40073D01*
X807467Y37143D01*
X806345Y34435D01*
X804273Y32363D01*
X801565Y31241D01*
X766064Y31241D01*
X766006Y31233D01*
X765948Y31235D01*
X765866Y31213D01*
X765782Y31201D01*
X765729Y31178D01*
X765673Y31163D01*
X765600Y31120D01*
X765523Y31085D01*
X765478Y31047D01*
X765428Y31018D01*
X765370Y30956D01*
X765306Y30902D01*
X765274Y30853D01*
X765234Y30810D01*
X765195Y30735D01*
X765148Y30665D01*
X765131Y30609D01*
X765104Y30557D01*
X765093Y30489D01*
X765063Y30394D01*
X765060Y30294D01*
X765049Y30226D01*
X765049Y21464D01*
X765049Y21462D01*
X765049Y21461D01*
X765070Y21313D01*
X765089Y21182D01*
X765089Y21181D01*
X765089Y21179D01*
X765148Y21051D01*
X765205Y20923D01*
X765206Y20922D01*
X765207Y20920D01*
X765298Y20813D01*
X765388Y20706D01*
X765390Y20705D01*
X765391Y20704D01*
X765404Y20696D01*
X765625Y20548D01*
X765654Y20539D01*
X765675Y20526D01*
X766892Y20022D01*
X769322Y17592D01*
X770637Y14418D01*
X770637Y10982D01*
X769322Y7808D01*
X766892Y5378D01*
X764897Y4552D01*
X764823Y4508D01*
X764745Y4473D01*
X764702Y4436D01*
X764652Y4407D01*
X764594Y4345D01*
X764528Y4290D01*
X764497Y4242D01*
X764457Y4201D01*
X764418Y4124D01*
X764370Y4053D01*
X764353Y3999D01*
X764327Y3948D01*
X764310Y3864D01*
X764285Y3782D01*
X764283Y3725D01*
X764272Y3669D01*
X764279Y3584D01*
X764277Y3498D01*
X764292Y3443D01*
X764296Y3386D01*
X764327Y3306D01*
X764349Y3223D01*
X764378Y3174D01*
X764398Y3120D01*
X764450Y3052D01*
X764494Y2978D01*
X764536Y2939D01*
X764570Y2894D01*
X764639Y2842D01*
X764701Y2784D01*
X764752Y2758D01*
X764798Y2723D01*
X764878Y2693D01*
X764954Y2654D01*
X765003Y2646D01*
X765064Y2623D01*
X765208Y2612D01*
X765285Y2599D01*
X857503Y2544D01*
X857562Y2552D01*
G37*
G36*
X758790Y2614D02*
X758790Y2614D01*
X758876Y2617D01*
X758930Y2634D01*
X758986Y2642D01*
X759065Y2677D01*
X759147Y2704D01*
X759194Y2735D01*
X759245Y2758D01*
X759311Y2814D01*
X759383Y2862D01*
X759419Y2905D01*
X759462Y2942D01*
X759510Y3013D01*
X759566Y3079D01*
X759589Y3131D01*
X759620Y3178D01*
X759646Y3260D01*
X759681Y3339D01*
X759689Y3395D01*
X759706Y3449D01*
X759708Y3535D01*
X759720Y3621D01*
X759712Y3677D01*
X759714Y3733D01*
X759692Y3817D01*
X759680Y3902D01*
X759656Y3954D01*
X759642Y4009D01*
X759598Y4083D01*
X759562Y4161D01*
X759526Y4204D01*
X759497Y4253D01*
X759434Y4312D01*
X759378Y4378D01*
X759336Y4404D01*
X759290Y4448D01*
X759160Y4514D01*
X759093Y4556D01*
X757108Y5378D01*
X754678Y7808D01*
X753363Y10982D01*
X753363Y14418D01*
X754678Y17592D01*
X757108Y20022D01*
X758325Y20526D01*
X758326Y20527D01*
X758327Y20527D01*
X758448Y20599D01*
X758569Y20670D01*
X758570Y20672D01*
X758572Y20672D01*
X758669Y20776D01*
X758765Y20877D01*
X758765Y20878D01*
X758766Y20880D01*
X758830Y21004D01*
X758895Y21130D01*
X758895Y21131D01*
X758896Y21133D01*
X758898Y21148D01*
X758950Y21409D01*
X758947Y21439D01*
X758951Y21464D01*
X758951Y30226D01*
X758943Y30284D01*
X758945Y30342D01*
X758923Y30424D01*
X758911Y30508D01*
X758888Y30561D01*
X758873Y30617D01*
X758830Y30690D01*
X758795Y30767D01*
X758757Y30812D01*
X758728Y30862D01*
X758666Y30920D01*
X758612Y30984D01*
X758563Y31016D01*
X758520Y31056D01*
X758445Y31095D01*
X758375Y31142D01*
X758319Y31159D01*
X758267Y31186D01*
X758199Y31197D01*
X758104Y31227D01*
X758004Y31230D01*
X757936Y31241D01*
X494784Y31241D01*
X494754Y31237D01*
X494724Y31239D01*
X494614Y31217D01*
X494503Y31201D01*
X494475Y31189D01*
X494445Y31183D01*
X494346Y31131D01*
X494244Y31085D01*
X494220Y31066D01*
X494193Y31051D01*
X494112Y30974D01*
X494027Y30902D01*
X494010Y30876D01*
X493988Y30855D01*
X493931Y30758D01*
X493869Y30665D01*
X493860Y30636D01*
X493844Y30610D01*
X493817Y30501D01*
X493783Y30394D01*
X493782Y30364D01*
X493775Y30334D01*
X493779Y30222D01*
X493776Y30110D01*
X493784Y30080D01*
X493785Y30050D01*
X493819Y29943D01*
X493848Y29835D01*
X493863Y29808D01*
X493873Y29780D01*
X493918Y29716D01*
X493993Y29590D01*
X494039Y29547D01*
X494068Y29507D01*
X494076Y29499D01*
X502943Y20632D01*
X502944Y20631D01*
X502945Y20630D01*
X503059Y20545D01*
X503170Y20461D01*
X503171Y20460D01*
X503173Y20459D01*
X503305Y20410D01*
X503436Y20360D01*
X503437Y20360D01*
X503439Y20359D01*
X503578Y20348D01*
X503719Y20336D01*
X503721Y20337D01*
X503722Y20336D01*
X503737Y20340D01*
X503998Y20392D01*
X504025Y20406D01*
X504049Y20412D01*
X506282Y21337D01*
X509718Y21337D01*
X512892Y20022D01*
X515322Y17592D01*
X516637Y14418D01*
X516637Y10982D01*
X515322Y7808D01*
X512892Y5378D01*
X511257Y4701D01*
X511184Y4657D01*
X511105Y4622D01*
X511062Y4585D01*
X511012Y4556D01*
X510954Y4494D01*
X510888Y4439D01*
X510857Y4391D01*
X510817Y4350D01*
X510778Y4273D01*
X510730Y4202D01*
X510713Y4148D01*
X510687Y4097D01*
X510670Y4013D01*
X510645Y3931D01*
X510643Y3874D01*
X510632Y3818D01*
X510639Y3733D01*
X510637Y3647D01*
X510652Y3592D01*
X510656Y3535D01*
X510687Y3455D01*
X510709Y3372D01*
X510738Y3323D01*
X510758Y3269D01*
X510810Y3201D01*
X510854Y3128D01*
X510896Y3088D01*
X510930Y3043D01*
X510999Y2992D01*
X511061Y2933D01*
X511112Y2907D01*
X511158Y2873D01*
X511238Y2842D01*
X511314Y2803D01*
X511363Y2795D01*
X511424Y2772D01*
X511568Y2761D01*
X511645Y2748D01*
X529779Y2737D01*
X529865Y2749D01*
X529951Y2751D01*
X530005Y2769D01*
X530061Y2777D01*
X530140Y2812D01*
X530222Y2838D01*
X530269Y2870D01*
X530320Y2893D01*
X530386Y2948D01*
X530458Y2996D01*
X530494Y3040D01*
X530538Y3076D01*
X530585Y3148D01*
X530641Y3214D01*
X530664Y3266D01*
X530695Y3313D01*
X530721Y3395D01*
X530756Y3474D01*
X530764Y3530D01*
X530781Y3584D01*
X530783Y3670D01*
X530795Y3755D01*
X530787Y3811D01*
X530789Y3868D01*
X530767Y3951D01*
X530755Y4037D01*
X530731Y4088D01*
X530717Y4143D01*
X530673Y4217D01*
X530638Y4296D01*
X530601Y4339D01*
X530572Y4388D01*
X530509Y4447D01*
X530453Y4512D01*
X530411Y4538D01*
X530365Y4582D01*
X530235Y4649D01*
X530169Y4690D01*
X528508Y5378D01*
X526078Y7808D01*
X524763Y10982D01*
X524763Y14418D01*
X526078Y17592D01*
X528508Y20022D01*
X531682Y21337D01*
X535118Y21337D01*
X538292Y20022D01*
X540722Y17592D01*
X542037Y14418D01*
X542037Y10982D01*
X540722Y7808D01*
X538292Y5378D01*
X536621Y4686D01*
X536548Y4642D01*
X536469Y4607D01*
X536426Y4571D01*
X536376Y4541D01*
X536318Y4479D01*
X536252Y4424D01*
X536221Y4376D01*
X536181Y4335D01*
X536142Y4259D01*
X536094Y4187D01*
X536077Y4133D01*
X536051Y4082D01*
X536034Y3998D01*
X536009Y3916D01*
X536007Y3859D01*
X535996Y3803D01*
X536003Y3718D01*
X536001Y3632D01*
X536016Y3577D01*
X536020Y3520D01*
X536051Y3440D01*
X536073Y3357D01*
X536102Y3308D01*
X536122Y3255D01*
X536174Y3186D01*
X536218Y3113D01*
X536259Y3074D01*
X536294Y3028D01*
X536363Y2977D01*
X536425Y2918D01*
X536476Y2892D01*
X536522Y2858D01*
X536602Y2828D01*
X536678Y2788D01*
X536727Y2780D01*
X536788Y2757D01*
X536932Y2746D01*
X537009Y2733D01*
X555216Y2722D01*
X555301Y2734D01*
X555387Y2737D01*
X555441Y2754D01*
X555497Y2762D01*
X555576Y2797D01*
X555658Y2823D01*
X555705Y2855D01*
X555757Y2878D01*
X555822Y2933D01*
X555894Y2981D01*
X555930Y3025D01*
X555974Y3061D01*
X556021Y3133D01*
X556077Y3199D01*
X556100Y3251D01*
X556131Y3298D01*
X556157Y3380D01*
X556192Y3459D01*
X556200Y3515D01*
X556217Y3569D01*
X556220Y3655D01*
X556231Y3740D01*
X556223Y3796D01*
X556225Y3853D01*
X556203Y3936D01*
X556191Y4022D01*
X556167Y4073D01*
X556153Y4128D01*
X556109Y4202D01*
X556074Y4281D01*
X556037Y4324D01*
X556008Y4373D01*
X555945Y4432D01*
X555889Y4497D01*
X555848Y4523D01*
X555801Y4567D01*
X555671Y4634D01*
X555605Y4675D01*
X553908Y5378D01*
X551478Y7808D01*
X550163Y10982D01*
X550163Y14418D01*
X551478Y17592D01*
X553908Y20022D01*
X557082Y21337D01*
X560518Y21337D01*
X563692Y20022D01*
X566122Y17592D01*
X567437Y14418D01*
X567437Y10982D01*
X566122Y7808D01*
X563692Y5378D01*
X561985Y4671D01*
X561911Y4627D01*
X561833Y4593D01*
X561790Y4556D01*
X561740Y4527D01*
X561682Y4464D01*
X561616Y4409D01*
X561585Y4361D01*
X561545Y4320D01*
X561506Y4244D01*
X561458Y4172D01*
X561441Y4118D01*
X561415Y4067D01*
X561398Y3983D01*
X561373Y3901D01*
X561371Y3844D01*
X561360Y3788D01*
X561367Y3703D01*
X561365Y3617D01*
X561380Y3562D01*
X561384Y3505D01*
X561415Y3425D01*
X561437Y3342D01*
X561466Y3293D01*
X561486Y3240D01*
X561538Y3171D01*
X561582Y3098D01*
X561624Y3058D01*
X561658Y3013D01*
X561726Y2962D01*
X561789Y2903D01*
X561840Y2877D01*
X561886Y2843D01*
X561966Y2813D01*
X562042Y2773D01*
X562091Y2765D01*
X562152Y2742D01*
X562296Y2731D01*
X562373Y2718D01*
X580652Y2707D01*
X580737Y2719D01*
X580823Y2722D01*
X580877Y2739D01*
X580933Y2747D01*
X581012Y2782D01*
X581094Y2808D01*
X581141Y2840D01*
X581193Y2863D01*
X581258Y2918D01*
X581330Y2966D01*
X581367Y3010D01*
X581410Y3046D01*
X581458Y3118D01*
X581513Y3184D01*
X581536Y3236D01*
X581567Y3283D01*
X581594Y3365D01*
X581629Y3444D01*
X581636Y3500D01*
X581653Y3554D01*
X581656Y3640D01*
X581667Y3725D01*
X581659Y3781D01*
X581661Y3838D01*
X581639Y3922D01*
X581627Y4007D01*
X581604Y4058D01*
X581589Y4113D01*
X581545Y4187D01*
X581510Y4266D01*
X581473Y4309D01*
X581444Y4358D01*
X581381Y4417D01*
X581325Y4482D01*
X581284Y4508D01*
X581237Y4552D01*
X581107Y4619D01*
X581041Y4660D01*
X579308Y5378D01*
X576878Y7808D01*
X575563Y10982D01*
X575563Y14418D01*
X576878Y17592D01*
X579308Y20022D01*
X582482Y21337D01*
X585918Y21337D01*
X589092Y20022D01*
X591522Y17592D01*
X592837Y14418D01*
X592837Y10982D01*
X591522Y7808D01*
X589092Y5378D01*
X587349Y4656D01*
X587275Y4613D01*
X587197Y4578D01*
X587154Y4541D01*
X587104Y4512D01*
X587046Y4449D01*
X586980Y4394D01*
X586949Y4347D01*
X586909Y4305D01*
X586870Y4229D01*
X586822Y4158D01*
X586805Y4103D01*
X586779Y4052D01*
X586762Y3968D01*
X586737Y3887D01*
X586735Y3829D01*
X586724Y3773D01*
X586731Y3688D01*
X586729Y3602D01*
X586744Y3547D01*
X586748Y3490D01*
X586779Y3410D01*
X586801Y3327D01*
X586830Y3278D01*
X586850Y3225D01*
X586902Y3156D01*
X586946Y3083D01*
X586988Y3044D01*
X587022Y2998D01*
X587090Y2947D01*
X587153Y2888D01*
X587204Y2862D01*
X587250Y2828D01*
X587330Y2798D01*
X587406Y2759D01*
X587455Y2750D01*
X587516Y2727D01*
X587660Y2716D01*
X587737Y2703D01*
X606088Y2692D01*
X606173Y2704D01*
X606259Y2707D01*
X606313Y2724D01*
X606369Y2732D01*
X606448Y2767D01*
X606530Y2793D01*
X606577Y2825D01*
X606629Y2848D01*
X606695Y2904D01*
X606766Y2952D01*
X606803Y2995D01*
X606846Y3031D01*
X606894Y3103D01*
X606949Y3169D01*
X606972Y3221D01*
X607004Y3268D01*
X607030Y3350D01*
X607065Y3429D01*
X607072Y3485D01*
X607090Y3539D01*
X607092Y3625D01*
X607104Y3711D01*
X607096Y3767D01*
X607097Y3823D01*
X607075Y3907D01*
X607063Y3992D01*
X607040Y4043D01*
X607025Y4098D01*
X606981Y4172D01*
X606946Y4251D01*
X606909Y4294D01*
X606880Y4343D01*
X606817Y4402D01*
X606762Y4467D01*
X606720Y4493D01*
X606673Y4537D01*
X606543Y4604D01*
X606477Y4645D01*
X604708Y5378D01*
X602278Y7808D01*
X600963Y10982D01*
X600963Y14418D01*
X602278Y17592D01*
X604708Y20022D01*
X607882Y21337D01*
X611318Y21337D01*
X614492Y20022D01*
X616922Y17592D01*
X618237Y14418D01*
X618237Y10982D01*
X616922Y7808D01*
X614492Y5378D01*
X612713Y4641D01*
X612639Y4598D01*
X612561Y4563D01*
X612518Y4526D01*
X612468Y4497D01*
X612410Y4434D01*
X612344Y4379D01*
X612313Y4332D01*
X612273Y4290D01*
X612234Y4214D01*
X612186Y4143D01*
X612169Y4088D01*
X612143Y4037D01*
X612126Y3953D01*
X612101Y3872D01*
X612099Y3814D01*
X612088Y3758D01*
X612095Y3673D01*
X612093Y3587D01*
X612108Y3532D01*
X612112Y3475D01*
X612143Y3395D01*
X612165Y3312D01*
X612194Y3263D01*
X612214Y3210D01*
X612266Y3142D01*
X612310Y3068D01*
X612352Y3029D01*
X612386Y2983D01*
X612455Y2932D01*
X612517Y2873D01*
X612568Y2847D01*
X612614Y2813D01*
X612694Y2783D01*
X612770Y2744D01*
X612819Y2735D01*
X612880Y2713D01*
X613024Y2701D01*
X613101Y2688D01*
X631524Y2677D01*
X631609Y2689D01*
X631695Y2692D01*
X631749Y2709D01*
X631805Y2717D01*
X631884Y2752D01*
X631966Y2778D01*
X632013Y2810D01*
X632065Y2833D01*
X632131Y2889D01*
X632202Y2937D01*
X632239Y2980D01*
X632282Y3016D01*
X632330Y3088D01*
X632385Y3154D01*
X632408Y3206D01*
X632440Y3253D01*
X632466Y3335D01*
X632501Y3414D01*
X632509Y3470D01*
X632526Y3524D01*
X632528Y3610D01*
X632540Y3696D01*
X632532Y3752D01*
X632533Y3808D01*
X632511Y3892D01*
X632499Y3977D01*
X632476Y4028D01*
X632461Y4083D01*
X632417Y4158D01*
X632382Y4236D01*
X632345Y4279D01*
X632316Y4328D01*
X632253Y4387D01*
X632198Y4452D01*
X632156Y4478D01*
X632109Y4522D01*
X631979Y4589D01*
X631913Y4630D01*
X630108Y5378D01*
X627678Y7808D01*
X626363Y10982D01*
X626363Y14418D01*
X627678Y17592D01*
X630108Y20022D01*
X633282Y21337D01*
X636718Y21337D01*
X639892Y20022D01*
X642322Y17592D01*
X643637Y14418D01*
X643637Y10982D01*
X642322Y7808D01*
X639892Y5378D01*
X638077Y4626D01*
X638004Y4583D01*
X637925Y4548D01*
X637882Y4511D01*
X637832Y4482D01*
X637774Y4419D01*
X637708Y4364D01*
X637677Y4317D01*
X637637Y4275D01*
X637598Y4199D01*
X637550Y4128D01*
X637533Y4073D01*
X637507Y4022D01*
X637490Y3938D01*
X637465Y3857D01*
X637463Y3800D01*
X637452Y3743D01*
X637459Y3658D01*
X637457Y3573D01*
X637472Y3517D01*
X637476Y3460D01*
X637507Y3380D01*
X637529Y3297D01*
X637558Y3248D01*
X637578Y3195D01*
X637630Y3127D01*
X637674Y3053D01*
X637716Y3014D01*
X637750Y2968D01*
X637819Y2917D01*
X637881Y2858D01*
X637932Y2832D01*
X637978Y2798D01*
X638058Y2768D01*
X638134Y2729D01*
X638183Y2721D01*
X638244Y2698D01*
X638388Y2686D01*
X638465Y2673D01*
X656960Y2662D01*
X657045Y2674D01*
X657131Y2677D01*
X657185Y2694D01*
X657241Y2702D01*
X657320Y2737D01*
X657402Y2763D01*
X657449Y2795D01*
X657501Y2818D01*
X657567Y2874D01*
X657638Y2922D01*
X657675Y2965D01*
X657718Y3002D01*
X657766Y3073D01*
X657821Y3139D01*
X657844Y3191D01*
X657876Y3238D01*
X657902Y3320D01*
X657937Y3399D01*
X657945Y3455D01*
X657962Y3509D01*
X657964Y3595D01*
X657976Y3681D01*
X657968Y3737D01*
X657969Y3793D01*
X657947Y3877D01*
X657935Y3962D01*
X657912Y4013D01*
X657898Y4068D01*
X657853Y4143D01*
X657818Y4221D01*
X657781Y4264D01*
X657752Y4313D01*
X657690Y4372D01*
X657634Y4437D01*
X657592Y4464D01*
X657545Y4507D01*
X657415Y4574D01*
X657349Y4615D01*
X655508Y5378D01*
X653078Y7808D01*
X651763Y10982D01*
X651763Y14418D01*
X653078Y17592D01*
X655508Y20022D01*
X658682Y21337D01*
X662118Y21337D01*
X665292Y20022D01*
X667722Y17592D01*
X669037Y14418D01*
X669037Y10982D01*
X667722Y7808D01*
X665292Y5378D01*
X663441Y4611D01*
X663368Y4568D01*
X663289Y4533D01*
X663246Y4496D01*
X663196Y4467D01*
X663138Y4405D01*
X663072Y4349D01*
X663041Y4302D01*
X663001Y4260D01*
X662962Y4184D01*
X662914Y4113D01*
X662897Y4058D01*
X662871Y4007D01*
X662854Y3923D01*
X662829Y3842D01*
X662827Y3785D01*
X662816Y3729D01*
X662823Y3643D01*
X662821Y3558D01*
X662836Y3502D01*
X662840Y3445D01*
X662871Y3366D01*
X662893Y3283D01*
X662922Y3233D01*
X662942Y3180D01*
X662994Y3112D01*
X663038Y3038D01*
X663080Y2999D01*
X663114Y2953D01*
X663183Y2902D01*
X663245Y2843D01*
X663296Y2817D01*
X663342Y2783D01*
X663422Y2753D01*
X663498Y2714D01*
X663547Y2706D01*
X663608Y2683D01*
X663752Y2671D01*
X663829Y2658D01*
X682396Y2647D01*
X682482Y2659D01*
X682568Y2662D01*
X682621Y2679D01*
X682678Y2687D01*
X682756Y2722D01*
X682838Y2748D01*
X682885Y2780D01*
X682937Y2803D01*
X683003Y2859D01*
X683074Y2907D01*
X683111Y2950D01*
X683154Y2987D01*
X683202Y3058D01*
X683257Y3124D01*
X683280Y3176D01*
X683312Y3223D01*
X683338Y3305D01*
X683373Y3384D01*
X683381Y3440D01*
X683398Y3494D01*
X683400Y3580D01*
X683412Y3666D01*
X683404Y3722D01*
X683405Y3778D01*
X683384Y3862D01*
X683371Y3947D01*
X683348Y3998D01*
X683334Y4053D01*
X683290Y4128D01*
X683254Y4206D01*
X683217Y4249D01*
X683189Y4298D01*
X683126Y4357D01*
X683070Y4422D01*
X683028Y4449D01*
X682981Y4492D01*
X682852Y4559D01*
X682785Y4600D01*
X680908Y5378D01*
X678478Y7808D01*
X677163Y10982D01*
X677163Y14418D01*
X678478Y17592D01*
X680908Y20022D01*
X684082Y21337D01*
X687518Y21337D01*
X690692Y20022D01*
X693122Y17592D01*
X694437Y14418D01*
X694437Y10982D01*
X693122Y7808D01*
X690692Y5378D01*
X688805Y4596D01*
X688731Y4553D01*
X688653Y4518D01*
X688610Y4481D01*
X688560Y4452D01*
X688501Y4390D01*
X688436Y4334D01*
X688405Y4287D01*
X688365Y4245D01*
X688326Y4169D01*
X688278Y4098D01*
X688261Y4043D01*
X688235Y3993D01*
X688218Y3909D01*
X688193Y3827D01*
X688191Y3770D01*
X688180Y3714D01*
X688187Y3628D01*
X688185Y3543D01*
X688200Y3487D01*
X688204Y3430D01*
X688235Y3351D01*
X688257Y3268D01*
X688286Y3218D01*
X688306Y3165D01*
X688358Y3097D01*
X688402Y3023D01*
X688444Y2984D01*
X688478Y2938D01*
X688547Y2887D01*
X688609Y2828D01*
X688660Y2802D01*
X688706Y2768D01*
X688786Y2738D01*
X688862Y2699D01*
X688911Y2691D01*
X688972Y2668D01*
X689116Y2656D01*
X689193Y2643D01*
X707832Y2632D01*
X707918Y2644D01*
X708004Y2647D01*
X708058Y2664D01*
X708114Y2672D01*
X708192Y2707D01*
X708274Y2733D01*
X708322Y2765D01*
X708373Y2788D01*
X708439Y2844D01*
X708511Y2892D01*
X708547Y2935D01*
X708590Y2972D01*
X708638Y3043D01*
X708694Y3109D01*
X708717Y3161D01*
X708748Y3208D01*
X708774Y3290D01*
X708809Y3369D01*
X708817Y3425D01*
X708834Y3479D01*
X708836Y3565D01*
X708848Y3651D01*
X708840Y3707D01*
X708841Y3763D01*
X708820Y3847D01*
X708807Y3932D01*
X708784Y3984D01*
X708770Y4038D01*
X708726Y4113D01*
X708690Y4191D01*
X708654Y4234D01*
X708625Y4283D01*
X708562Y4342D01*
X708506Y4408D01*
X708464Y4434D01*
X708417Y4478D01*
X708288Y4544D01*
X708221Y4586D01*
X706308Y5378D01*
X703878Y7808D01*
X702563Y10982D01*
X702563Y14418D01*
X703878Y17592D01*
X706308Y20022D01*
X709482Y21337D01*
X712918Y21337D01*
X716092Y20022D01*
X718522Y17592D01*
X719837Y14418D01*
X719837Y10982D01*
X718522Y7808D01*
X716092Y5378D01*
X714169Y4582D01*
X714095Y4538D01*
X714017Y4503D01*
X713974Y4466D01*
X713924Y4437D01*
X713866Y4375D01*
X713800Y4320D01*
X713769Y4272D01*
X713729Y4230D01*
X713690Y4154D01*
X713642Y4083D01*
X713625Y4028D01*
X713599Y3978D01*
X713582Y3894D01*
X713557Y3812D01*
X713555Y3755D01*
X713544Y3699D01*
X713551Y3613D01*
X713549Y3528D01*
X713564Y3472D01*
X713568Y3415D01*
X713599Y3336D01*
X713621Y3253D01*
X713650Y3203D01*
X713670Y3150D01*
X713722Y3082D01*
X713766Y3008D01*
X713808Y2969D01*
X713842Y2923D01*
X713910Y2872D01*
X713973Y2814D01*
X714024Y2787D01*
X714070Y2753D01*
X714150Y2723D01*
X714226Y2684D01*
X714275Y2676D01*
X714336Y2653D01*
X714480Y2641D01*
X714557Y2628D01*
X730063Y2619D01*
X730172Y2634D01*
X730280Y2643D01*
X730312Y2654D01*
X730345Y2659D01*
X730444Y2703D01*
X730547Y2741D01*
X730574Y2761D01*
X730604Y2775D01*
X730687Y2845D01*
X730775Y2910D01*
X730796Y2937D01*
X730821Y2959D01*
X730882Y3049D01*
X730948Y3136D01*
X730961Y3167D01*
X730979Y3195D01*
X731012Y3299D01*
X731052Y3401D01*
X731055Y3434D01*
X731065Y3466D01*
X731068Y3575D01*
X731078Y3684D01*
X731072Y3717D01*
X731073Y3750D01*
X731045Y3856D01*
X731025Y3963D01*
X731009Y3993D01*
X731001Y4025D01*
X730945Y4119D01*
X730896Y4216D01*
X730875Y4238D01*
X730856Y4270D01*
X730695Y4421D01*
X730661Y4456D01*
X729981Y4950D01*
X728850Y6081D01*
X727910Y7375D01*
X727184Y8800D01*
X726689Y10321D01*
X726634Y10669D01*
X735584Y10669D01*
X735642Y10677D01*
X735700Y10675D01*
X735782Y10697D01*
X735865Y10709D01*
X735919Y10733D01*
X735975Y10747D01*
X736048Y10790D01*
X736125Y10825D01*
X736169Y10863D01*
X736220Y10893D01*
X736277Y10954D01*
X736342Y11009D01*
X736374Y11057D01*
X736414Y11100D01*
X736453Y11175D01*
X736499Y11245D01*
X736517Y11301D01*
X736544Y11353D01*
X736555Y11421D01*
X736585Y11516D01*
X736588Y11616D01*
X736599Y11684D01*
X736599Y12701D01*
X736601Y12701D01*
X736601Y11684D01*
X736609Y11626D01*
X736608Y11568D01*
X736629Y11486D01*
X736641Y11403D01*
X736665Y11349D01*
X736679Y11293D01*
X736722Y11220D01*
X736757Y11143D01*
X736795Y11098D01*
X736825Y11048D01*
X736886Y10990D01*
X736941Y10926D01*
X736989Y10894D01*
X737032Y10854D01*
X737107Y10815D01*
X737177Y10769D01*
X737233Y10751D01*
X737285Y10724D01*
X737353Y10713D01*
X737448Y10683D01*
X737548Y10680D01*
X737616Y10669D01*
X746566Y10669D01*
X746511Y10321D01*
X746016Y8800D01*
X745290Y7375D01*
X744350Y6081D01*
X743219Y4950D01*
X742529Y4448D01*
X742451Y4373D01*
X742368Y4303D01*
X742349Y4274D01*
X742324Y4251D01*
X742270Y4156D01*
X742210Y4066D01*
X742200Y4034D01*
X742183Y4004D01*
X742157Y3898D01*
X742124Y3795D01*
X742123Y3761D01*
X742115Y3728D01*
X742120Y3619D01*
X742117Y3511D01*
X742125Y3478D01*
X742127Y3444D01*
X742161Y3341D01*
X742188Y3236D01*
X742206Y3206D01*
X742217Y3174D01*
X742278Y3085D01*
X742334Y2991D01*
X742359Y2968D01*
X742378Y2940D01*
X742462Y2871D01*
X742541Y2797D01*
X742571Y2781D01*
X742598Y2760D01*
X742697Y2717D01*
X742794Y2667D01*
X742824Y2662D01*
X742859Y2647D01*
X743074Y2620D01*
X743125Y2612D01*
X758704Y2602D01*
X758790Y2614D01*
G37*
%LPC*%
G36*
X706270Y67944D02*
X706270Y67944D01*
X698567Y71135D01*
X692673Y77029D01*
X689482Y84732D01*
X689482Y93068D01*
X692673Y100771D01*
X698567Y106665D01*
X706270Y109856D01*
X714606Y109856D01*
X722309Y106665D01*
X728203Y100771D01*
X731394Y93068D01*
X731394Y84732D01*
X728203Y77029D01*
X722309Y71135D01*
X714606Y67944D01*
X706270Y67944D01*
G37*
%LPD*%
%LPC*%
G36*
X211732Y67944D02*
X211732Y67944D01*
X204029Y71135D01*
X198135Y77029D01*
X194944Y84732D01*
X194944Y93068D01*
X198135Y100771D01*
X204029Y106665D01*
X211732Y109856D01*
X220068Y109856D01*
X227771Y106665D01*
X233665Y100771D01*
X236856Y93068D01*
X236856Y84732D01*
X233665Y77029D01*
X227771Y71135D01*
X220068Y67944D01*
X211732Y67944D01*
G37*
%LPD*%
%LPC*%
G36*
X152948Y104843D02*
X152948Y104843D01*
X149266Y106368D01*
X146448Y109186D01*
X144923Y112868D01*
X144923Y116852D01*
X146448Y120534D01*
X149266Y123352D01*
X152948Y124877D01*
X156932Y124877D01*
X160614Y123352D01*
X163432Y120534D01*
X164957Y116852D01*
X164957Y112868D01*
X163432Y109186D01*
X160614Y106368D01*
X156932Y104843D01*
X152948Y104843D01*
G37*
%LPD*%
%LPC*%
G36*
X152948Y69843D02*
X152948Y69843D01*
X149266Y71368D01*
X146448Y74186D01*
X144923Y77868D01*
X144923Y81852D01*
X146448Y85534D01*
X149266Y88352D01*
X152948Y89877D01*
X156932Y89877D01*
X160614Y88352D01*
X163432Y85534D01*
X164957Y81852D01*
X164957Y77868D01*
X163432Y74186D01*
X160614Y71368D01*
X156932Y69843D01*
X152948Y69843D01*
G37*
%LPD*%
G36*
X224632Y2928D02*
X224632Y2928D01*
X224718Y2931D01*
X224772Y2948D01*
X224828Y2956D01*
X224906Y2991D01*
X224989Y3018D01*
X225036Y3049D01*
X225087Y3072D01*
X225153Y3128D01*
X225225Y3176D01*
X225261Y3219D01*
X225304Y3256D01*
X225352Y3327D01*
X225408Y3393D01*
X225431Y3445D01*
X225462Y3492D01*
X225488Y3574D01*
X225523Y3653D01*
X225531Y3709D01*
X225548Y3763D01*
X225550Y3849D01*
X225562Y3935D01*
X225554Y3991D01*
X225555Y4047D01*
X225534Y4131D01*
X225521Y4216D01*
X225498Y4268D01*
X225484Y4323D01*
X225440Y4397D01*
X225404Y4475D01*
X225368Y4518D01*
X225339Y4567D01*
X225276Y4626D01*
X225220Y4692D01*
X225178Y4718D01*
X225131Y4762D01*
X225002Y4828D01*
X224935Y4870D01*
X223708Y5378D01*
X221278Y7808D01*
X219963Y10982D01*
X219963Y14418D01*
X221278Y17592D01*
X223708Y20022D01*
X225842Y20906D01*
X225916Y20950D01*
X225995Y20985D01*
X226038Y21022D01*
X226087Y21051D01*
X226146Y21113D01*
X226212Y21169D01*
X226243Y21216D01*
X226282Y21257D01*
X226322Y21334D01*
X226369Y21405D01*
X226386Y21459D01*
X226413Y21510D01*
X226429Y21594D01*
X226455Y21676D01*
X226457Y21733D01*
X226468Y21789D01*
X226460Y21874D01*
X226462Y21960D01*
X226448Y22015D01*
X226443Y22072D01*
X226412Y22152D01*
X226391Y22235D01*
X226362Y22284D01*
X226341Y22337D01*
X226289Y22406D01*
X226245Y22480D01*
X226204Y22519D01*
X226169Y22564D01*
X226101Y22616D01*
X226038Y22674D01*
X225987Y22700D01*
X225942Y22734D01*
X225861Y22765D01*
X225785Y22804D01*
X225736Y22812D01*
X225676Y22835D01*
X225531Y22846D01*
X225454Y22859D01*
X209628Y22859D01*
X209520Y22844D01*
X209412Y22836D01*
X209380Y22824D01*
X209347Y22819D01*
X209247Y22775D01*
X209145Y22737D01*
X209118Y22717D01*
X209087Y22703D01*
X209004Y22633D01*
X208917Y22568D01*
X208896Y22541D01*
X208870Y22520D01*
X208810Y22429D01*
X208744Y22343D01*
X208731Y22311D01*
X208713Y22283D01*
X208680Y22179D01*
X208640Y22078D01*
X208637Y22044D01*
X208627Y22012D01*
X208624Y21903D01*
X208614Y21795D01*
X208620Y21762D01*
X208619Y21728D01*
X208647Y21622D01*
X208667Y21516D01*
X208683Y21485D01*
X208691Y21453D01*
X208747Y21359D01*
X208796Y21262D01*
X208817Y21241D01*
X208837Y21208D01*
X208996Y21058D01*
X209031Y21023D01*
X209819Y20450D01*
X210950Y19319D01*
X211890Y18025D01*
X212616Y16600D01*
X213111Y15079D01*
X213166Y14731D01*
X204216Y14731D01*
X204158Y14723D01*
X204100Y14725D01*
X204018Y14703D01*
X203935Y14691D01*
X203881Y14667D01*
X203825Y14653D01*
X203752Y14610D01*
X203675Y14575D01*
X203631Y14537D01*
X203580Y14507D01*
X203523Y14446D01*
X203458Y14391D01*
X203426Y14343D01*
X203386Y14300D01*
X203347Y14225D01*
X203301Y14155D01*
X203283Y14099D01*
X203256Y14047D01*
X203245Y13979D01*
X203215Y13884D01*
X203212Y13784D01*
X203201Y13716D01*
X203201Y11684D01*
X203209Y11626D01*
X203208Y11568D01*
X203229Y11486D01*
X203241Y11403D01*
X203265Y11349D01*
X203279Y11293D01*
X203322Y11220D01*
X203357Y11143D01*
X203395Y11098D01*
X203425Y11048D01*
X203486Y10990D01*
X203541Y10926D01*
X203589Y10894D01*
X203632Y10854D01*
X203707Y10815D01*
X203777Y10769D01*
X203833Y10751D01*
X203885Y10724D01*
X203953Y10713D01*
X204048Y10683D01*
X204148Y10680D01*
X204216Y10669D01*
X213166Y10669D01*
X213111Y10321D01*
X212616Y8800D01*
X211890Y7375D01*
X210950Y6081D01*
X209819Y4950D01*
X209560Y4762D01*
X209482Y4686D01*
X209399Y4616D01*
X209380Y4588D01*
X209356Y4564D01*
X209302Y4470D01*
X209242Y4380D01*
X209231Y4347D01*
X209214Y4317D01*
X209188Y4212D01*
X209156Y4109D01*
X209155Y4074D01*
X209147Y4041D01*
X209151Y3933D01*
X209148Y3824D01*
X209157Y3791D01*
X209158Y3757D01*
X209192Y3654D01*
X209220Y3549D01*
X209237Y3520D01*
X209248Y3487D01*
X209309Y3398D01*
X209365Y3305D01*
X209390Y3281D01*
X209409Y3253D01*
X209493Y3185D01*
X209572Y3110D01*
X209603Y3095D01*
X209629Y3073D01*
X209728Y3030D01*
X209825Y2981D01*
X209855Y2976D01*
X209890Y2961D01*
X210106Y2933D01*
X210156Y2925D01*
X224546Y2916D01*
X224632Y2928D01*
G37*
G36*
X196339Y2948D02*
X196339Y2948D01*
X196448Y2956D01*
X196480Y2968D01*
X196513Y2973D01*
X196613Y3017D01*
X196715Y3055D01*
X196742Y3075D01*
X196772Y3089D01*
X196855Y3159D01*
X196943Y3224D01*
X196964Y3251D01*
X196989Y3272D01*
X197050Y3363D01*
X197116Y3450D01*
X197129Y3481D01*
X197147Y3509D01*
X197180Y3613D01*
X197220Y3714D01*
X197223Y3748D01*
X197233Y3780D01*
X197236Y3889D01*
X197246Y3998D01*
X197240Y4031D01*
X197241Y4064D01*
X197213Y4170D01*
X197193Y4277D01*
X197177Y4307D01*
X197169Y4339D01*
X197113Y4433D01*
X197064Y4530D01*
X197043Y4552D01*
X197024Y4584D01*
X196863Y4735D01*
X196829Y4770D01*
X196581Y4950D01*
X195450Y6081D01*
X194510Y7375D01*
X193784Y8800D01*
X193289Y10321D01*
X193234Y10669D01*
X202184Y10669D01*
X202242Y10677D01*
X202300Y10675D01*
X202382Y10697D01*
X202465Y10709D01*
X202519Y10733D01*
X202575Y10747D01*
X202648Y10790D01*
X202725Y10825D01*
X202769Y10863D01*
X202820Y10893D01*
X202877Y10954D01*
X202942Y11009D01*
X202974Y11057D01*
X203014Y11100D01*
X203053Y11175D01*
X203099Y11245D01*
X203117Y11301D01*
X203144Y11353D01*
X203155Y11421D01*
X203185Y11516D01*
X203188Y11616D01*
X203199Y11684D01*
X203199Y13716D01*
X203191Y13773D01*
X203192Y13828D01*
X203192Y13829D01*
X203192Y13832D01*
X203171Y13914D01*
X203159Y13997D01*
X203135Y14051D01*
X203121Y14107D01*
X203078Y14180D01*
X203043Y14257D01*
X203005Y14302D01*
X202975Y14352D01*
X202914Y14410D01*
X202859Y14474D01*
X202811Y14506D01*
X202768Y14546D01*
X202693Y14585D01*
X202623Y14631D01*
X202567Y14649D01*
X202515Y14676D01*
X202447Y14687D01*
X202352Y14717D01*
X202252Y14720D01*
X202184Y14731D01*
X193234Y14731D01*
X193289Y15079D01*
X193784Y16600D01*
X194510Y18025D01*
X195450Y19319D01*
X196581Y20450D01*
X197369Y21023D01*
X197447Y21098D01*
X197530Y21169D01*
X197549Y21197D01*
X197573Y21220D01*
X197627Y21315D01*
X197687Y21405D01*
X197698Y21437D01*
X197715Y21467D01*
X197740Y21573D01*
X197773Y21676D01*
X197774Y21710D01*
X197782Y21743D01*
X197778Y21852D01*
X197781Y21960D01*
X197772Y21993D01*
X197771Y22027D01*
X197736Y22130D01*
X197709Y22235D01*
X197691Y22265D01*
X197681Y22297D01*
X197619Y22386D01*
X197563Y22480D01*
X197539Y22503D01*
X197520Y22531D01*
X197436Y22600D01*
X197356Y22674D01*
X197326Y22690D01*
X197300Y22711D01*
X197200Y22754D01*
X197103Y22804D01*
X197073Y22809D01*
X197039Y22824D01*
X196821Y22851D01*
X196772Y22859D01*
X180946Y22859D01*
X180861Y22847D01*
X180775Y22845D01*
X180721Y22827D01*
X180665Y22819D01*
X180586Y22784D01*
X180504Y22758D01*
X180457Y22726D01*
X180405Y22703D01*
X180340Y22648D01*
X180268Y22600D01*
X180232Y22556D01*
X180188Y22520D01*
X180141Y22448D01*
X180085Y22382D01*
X180062Y22330D01*
X180031Y22283D01*
X180005Y22201D01*
X179970Y22122D01*
X179962Y22066D01*
X179945Y22012D01*
X179943Y21926D01*
X179931Y21841D01*
X179939Y21785D01*
X179938Y21728D01*
X179959Y21645D01*
X179972Y21560D01*
X179995Y21508D01*
X180009Y21453D01*
X180053Y21379D01*
X180089Y21300D01*
X180126Y21257D01*
X180155Y21208D01*
X180217Y21149D01*
X180273Y21084D01*
X180315Y21058D01*
X180362Y21014D01*
X180491Y20948D01*
X180558Y20906D01*
X182692Y20022D01*
X185122Y17592D01*
X186437Y14418D01*
X186437Y10982D01*
X185122Y7808D01*
X182692Y5378D01*
X181525Y4895D01*
X181452Y4851D01*
X181373Y4816D01*
X181330Y4779D01*
X181280Y4750D01*
X181222Y4688D01*
X181156Y4633D01*
X181125Y4585D01*
X181085Y4544D01*
X181046Y4467D01*
X180998Y4396D01*
X180981Y4342D01*
X180955Y4291D01*
X180938Y4207D01*
X180913Y4125D01*
X180911Y4068D01*
X180900Y4012D01*
X180907Y3927D01*
X180905Y3841D01*
X180920Y3786D01*
X180924Y3729D01*
X180955Y3649D01*
X180977Y3566D01*
X181006Y3517D01*
X181026Y3463D01*
X181078Y3395D01*
X181122Y3321D01*
X181164Y3282D01*
X181198Y3237D01*
X181267Y3185D01*
X181329Y3127D01*
X181380Y3101D01*
X181426Y3066D01*
X181506Y3036D01*
X181582Y2997D01*
X181631Y2989D01*
X181692Y2966D01*
X181836Y2955D01*
X181913Y2941D01*
X196231Y2933D01*
X196339Y2948D01*
G37*
%LPC*%
G36*
X252282Y92963D02*
X252282Y92963D01*
X249108Y94278D01*
X246678Y96708D01*
X245363Y99882D01*
X245363Y103318D01*
X246678Y106492D01*
X249108Y108922D01*
X252282Y110237D01*
X255718Y110237D01*
X258892Y108922D01*
X261322Y106492D01*
X262637Y103318D01*
X262637Y99882D01*
X261322Y96708D01*
X258892Y94278D01*
X255718Y92963D01*
X252282Y92963D01*
G37*
%LPD*%
%LPC*%
G36*
X252282Y67563D02*
X252282Y67563D01*
X249108Y68878D01*
X246678Y71308D01*
X245363Y74482D01*
X245363Y77918D01*
X246678Y81092D01*
X249108Y83522D01*
X252282Y84837D01*
X255718Y84837D01*
X258892Y83522D01*
X261322Y81092D01*
X262637Y77918D01*
X262637Y74482D01*
X261322Y71308D01*
X258892Y68878D01*
X255718Y67563D01*
X252282Y67563D01*
G37*
%LPD*%
%LPC*%
G36*
X821645Y25025D02*
X821645Y25025D01*
X818491Y26332D01*
X816078Y28745D01*
X814771Y31899D01*
X814771Y35313D01*
X816078Y38467D01*
X818491Y40880D01*
X821645Y42187D01*
X825059Y42187D01*
X828213Y40880D01*
X830626Y38467D01*
X831933Y35313D01*
X831933Y31899D01*
X830626Y28745D01*
X828213Y26332D01*
X825059Y25025D01*
X821645Y25025D01*
G37*
%LPD*%
%LPC*%
G36*
X821645Y66525D02*
X821645Y66525D01*
X818491Y67832D01*
X816078Y70245D01*
X814771Y73399D01*
X814771Y76813D01*
X816078Y79967D01*
X818491Y82380D01*
X821645Y83687D01*
X825059Y83687D01*
X828213Y82380D01*
X830626Y79967D01*
X831933Y76813D01*
X831933Y73399D01*
X830626Y70245D01*
X828213Y67832D01*
X825059Y66525D01*
X821645Y66525D01*
G37*
%LPD*%
%LPC*%
G36*
X175906Y33527D02*
X175906Y33527D01*
X173227Y36206D01*
X173227Y39994D01*
X175906Y42673D01*
X179694Y42673D01*
X182416Y39951D01*
X182463Y39916D01*
X182503Y39873D01*
X182576Y39830D01*
X182643Y39780D01*
X182698Y39759D01*
X182748Y39729D01*
X182830Y39709D01*
X182909Y39679D01*
X182967Y39674D01*
X183024Y39659D01*
X183108Y39662D01*
X183192Y39655D01*
X183250Y39667D01*
X183308Y39668D01*
X183388Y39694D01*
X183471Y39711D01*
X183523Y39738D01*
X183579Y39756D01*
X183635Y39796D01*
X183723Y39842D01*
X183796Y39911D01*
X183852Y39951D01*
X186574Y42673D01*
X190362Y42673D01*
X193041Y39994D01*
X193041Y36206D01*
X190362Y33527D01*
X186574Y33527D01*
X183852Y36249D01*
X183805Y36284D01*
X183765Y36327D01*
X183692Y36370D01*
X183625Y36420D01*
X183570Y36441D01*
X183520Y36471D01*
X183438Y36491D01*
X183359Y36521D01*
X183301Y36526D01*
X183244Y36541D01*
X183160Y36538D01*
X183076Y36545D01*
X183018Y36533D01*
X182960Y36532D01*
X182880Y36506D01*
X182797Y36489D01*
X182745Y36462D01*
X182689Y36444D01*
X182633Y36404D01*
X182545Y36358D01*
X182472Y36289D01*
X182416Y36249D01*
X179694Y33527D01*
X175906Y33527D01*
G37*
%LPD*%
%LPC*%
G36*
X571638Y56387D02*
X571638Y56387D01*
X568959Y59066D01*
X568959Y62854D01*
X570411Y64306D01*
X570429Y64330D01*
X570451Y64349D01*
X570514Y64443D01*
X570582Y64533D01*
X570593Y64561D01*
X570609Y64585D01*
X570643Y64693D01*
X570683Y64799D01*
X570686Y64828D01*
X570695Y64856D01*
X570698Y64970D01*
X570707Y65082D01*
X570701Y65111D01*
X570702Y65140D01*
X570673Y65250D01*
X570651Y65361D01*
X570638Y65387D01*
X570630Y65415D01*
X570572Y65513D01*
X570520Y65613D01*
X570500Y65635D01*
X570485Y65660D01*
X570402Y65737D01*
X570324Y65819D01*
X570299Y65834D01*
X570278Y65854D01*
X570177Y65906D01*
X570079Y65963D01*
X570051Y65970D01*
X570024Y65984D01*
X569947Y65997D01*
X569804Y66033D01*
X569741Y66031D01*
X569693Y66039D01*
X568590Y66039D01*
X565911Y68718D01*
X565911Y72506D01*
X568590Y75185D01*
X572378Y75185D01*
X575057Y72506D01*
X575057Y68718D01*
X573605Y67266D01*
X573587Y67242D01*
X573565Y67223D01*
X573502Y67129D01*
X573434Y67039D01*
X573423Y67011D01*
X573407Y66987D01*
X573373Y66879D01*
X573333Y66773D01*
X573330Y66744D01*
X573321Y66716D01*
X573318Y66602D01*
X573309Y66490D01*
X573315Y66461D01*
X573314Y66432D01*
X573343Y66322D01*
X573365Y66211D01*
X573378Y66185D01*
X573386Y66157D01*
X573444Y66059D01*
X573496Y65959D01*
X573516Y65937D01*
X573531Y65912D01*
X573614Y65835D01*
X573692Y65753D01*
X573717Y65738D01*
X573738Y65718D01*
X573839Y65666D01*
X573937Y65609D01*
X573965Y65602D01*
X573992Y65588D01*
X574069Y65575D01*
X574212Y65539D01*
X574275Y65541D01*
X574323Y65533D01*
X575426Y65533D01*
X578105Y62854D01*
X578105Y59066D01*
X575426Y56387D01*
X571638Y56387D01*
G37*
%LPD*%
%LPC*%
G36*
X489850Y106171D02*
X489850Y106171D01*
X487171Y108850D01*
X487171Y112638D01*
X489850Y115317D01*
X493638Y115317D01*
X494582Y114373D01*
X494606Y114355D01*
X494625Y114333D01*
X494719Y114270D01*
X494809Y114202D01*
X494837Y114191D01*
X494861Y114175D01*
X494969Y114141D01*
X495075Y114101D01*
X495104Y114098D01*
X495132Y114089D01*
X495246Y114086D01*
X495358Y114077D01*
X495387Y114083D01*
X495416Y114082D01*
X495526Y114111D01*
X495637Y114133D01*
X495663Y114146D01*
X495691Y114154D01*
X495789Y114212D01*
X495889Y114264D01*
X495911Y114284D01*
X495936Y114299D01*
X496013Y114382D01*
X496095Y114460D01*
X496110Y114485D01*
X496130Y114506D01*
X496182Y114607D01*
X496239Y114705D01*
X496246Y114733D01*
X496260Y114760D01*
X496273Y114837D01*
X496309Y114980D01*
X496307Y115043D01*
X496315Y115091D01*
X496315Y117718D01*
X498994Y120397D01*
X502782Y120397D01*
X505461Y117718D01*
X505461Y113930D01*
X502782Y111251D01*
X498994Y111251D01*
X498050Y112195D01*
X498026Y112213D01*
X498007Y112235D01*
X497913Y112298D01*
X497823Y112366D01*
X497795Y112377D01*
X497771Y112393D01*
X497663Y112427D01*
X497557Y112467D01*
X497528Y112470D01*
X497500Y112479D01*
X497386Y112482D01*
X497274Y112491D01*
X497245Y112485D01*
X497216Y112486D01*
X497106Y112457D01*
X496995Y112435D01*
X496969Y112422D01*
X496941Y112414D01*
X496843Y112356D01*
X496743Y112304D01*
X496721Y112284D01*
X496696Y112269D01*
X496619Y112186D01*
X496537Y112108D01*
X496522Y112083D01*
X496502Y112062D01*
X496450Y111961D01*
X496393Y111863D01*
X496386Y111835D01*
X496372Y111808D01*
X496359Y111731D01*
X496323Y111588D01*
X496325Y111525D01*
X496317Y111477D01*
X496317Y108850D01*
X493638Y106171D01*
X489850Y106171D01*
G37*
%LPD*%
%LPC*%
G36*
X441590Y67563D02*
X441590Y67563D01*
X438911Y70242D01*
X438911Y74030D01*
X441590Y76709D01*
X445378Y76709D01*
X447338Y74749D01*
X447385Y74714D01*
X447425Y74671D01*
X447498Y74628D01*
X447565Y74578D01*
X447620Y74557D01*
X447670Y74527D01*
X447752Y74507D01*
X447831Y74477D01*
X447889Y74472D01*
X447946Y74457D01*
X448030Y74460D01*
X448114Y74453D01*
X448172Y74465D01*
X448230Y74466D01*
X448310Y74492D01*
X448393Y74509D01*
X448445Y74536D01*
X448501Y74554D01*
X448557Y74594D01*
X448645Y74640D01*
X448718Y74709D01*
X448774Y74749D01*
X450734Y76709D01*
X454522Y76709D01*
X457201Y74030D01*
X457201Y70242D01*
X454522Y67563D01*
X450734Y67563D01*
X448774Y69523D01*
X448727Y69558D01*
X448687Y69601D01*
X448614Y69644D01*
X448547Y69694D01*
X448492Y69715D01*
X448442Y69745D01*
X448360Y69765D01*
X448281Y69795D01*
X448223Y69800D01*
X448166Y69815D01*
X448082Y69812D01*
X447998Y69819D01*
X447940Y69807D01*
X447882Y69806D01*
X447802Y69780D01*
X447719Y69763D01*
X447667Y69736D01*
X447611Y69718D01*
X447555Y69678D01*
X447467Y69632D01*
X447394Y69563D01*
X447338Y69523D01*
X445378Y67563D01*
X441590Y67563D01*
G37*
%LPD*%
%LPC*%
G36*
X84880Y90197D02*
X84880Y90197D01*
X82069Y93008D01*
X82069Y96984D01*
X84880Y99795D01*
X88856Y99795D01*
X91667Y96984D01*
X91667Y93008D01*
X88856Y90197D01*
X84880Y90197D01*
G37*
%LPD*%
%LPC*%
G36*
X570622Y132079D02*
X570622Y132079D01*
X567943Y134758D01*
X567943Y138546D01*
X570622Y141225D01*
X574410Y141225D01*
X577089Y138546D01*
X577089Y135411D01*
X577093Y135381D01*
X577090Y135352D01*
X577113Y135241D01*
X577129Y135129D01*
X577141Y135102D01*
X577146Y135074D01*
X577199Y134973D01*
X577245Y134870D01*
X577264Y134847D01*
X577277Y134821D01*
X577305Y134792D01*
X577205Y134766D01*
X577179Y134751D01*
X577151Y134742D01*
X577088Y134697D01*
X576960Y134621D01*
X576917Y134575D01*
X576878Y134547D01*
X574410Y132079D01*
X570622Y132079D01*
G37*
%LPD*%
%LPC*%
G36*
X581290Y128015D02*
X581290Y128015D01*
X578611Y130694D01*
X578611Y133829D01*
X578607Y133859D01*
X578610Y133888D01*
X578587Y133999D01*
X578571Y134111D01*
X578559Y134138D01*
X578554Y134166D01*
X578501Y134267D01*
X578455Y134370D01*
X578436Y134393D01*
X578423Y134419D01*
X578395Y134448D01*
X578495Y134474D01*
X578521Y134489D01*
X578549Y134498D01*
X578612Y134543D01*
X578740Y134619D01*
X578783Y134665D01*
X578822Y134693D01*
X581290Y137161D01*
X585078Y137161D01*
X587757Y134482D01*
X587757Y130694D01*
X585078Y128015D01*
X581290Y128015D01*
G37*
%LPD*%
%LPC*%
G36*
X498994Y58927D02*
X498994Y58927D01*
X496315Y61606D01*
X496315Y65394D01*
X498994Y68073D01*
X502782Y68073D01*
X505461Y65394D01*
X505461Y61606D01*
X502782Y58927D01*
X498994Y58927D01*
G37*
%LPD*%
%LPC*%
G36*
X637170Y50291D02*
X637170Y50291D01*
X634491Y52970D01*
X634491Y56758D01*
X637170Y59437D01*
X640958Y59437D01*
X643637Y56758D01*
X643637Y52970D01*
X640958Y50291D01*
X637170Y50291D01*
G37*
%LPD*%
%LPC*%
G36*
X13621Y8402D02*
X13621Y8402D01*
X10942Y11081D01*
X10942Y14869D01*
X13621Y17548D01*
X17409Y17548D01*
X20088Y14869D01*
X20088Y11081D01*
X17409Y8402D01*
X13621Y8402D01*
G37*
%LPD*%
%LPC*%
G36*
X558430Y132079D02*
X558430Y132079D01*
X555751Y134758D01*
X555751Y138546D01*
X558430Y141225D01*
X562218Y141225D01*
X564897Y138546D01*
X564897Y134758D01*
X562218Y132079D01*
X558430Y132079D01*
G37*
%LPD*%
%LPC*%
G36*
X310018Y116331D02*
X310018Y116331D01*
X307339Y119010D01*
X307339Y122798D01*
X310018Y125477D01*
X313806Y125477D01*
X316485Y122798D01*
X316485Y119010D01*
X313806Y116331D01*
X310018Y116331D01*
G37*
%LPD*%
%LPC*%
G36*
X444130Y111251D02*
X444130Y111251D01*
X441451Y113930D01*
X441451Y117718D01*
X444130Y120397D01*
X447918Y120397D01*
X450597Y117718D01*
X450597Y113930D01*
X447918Y111251D01*
X444130Y111251D01*
G37*
%LPD*%
%LPC*%
G36*
X521346Y108711D02*
X521346Y108711D01*
X518667Y111390D01*
X518667Y115178D01*
X521346Y117857D01*
X525134Y117857D01*
X527813Y115178D01*
X527813Y111390D01*
X525134Y108711D01*
X521346Y108711D01*
G37*
%LPD*%
%LPC*%
G36*
X453782Y104647D02*
X453782Y104647D01*
X451103Y107326D01*
X451103Y111114D01*
X453782Y113793D01*
X457570Y113793D01*
X460249Y111114D01*
X460249Y107326D01*
X457570Y104647D01*
X453782Y104647D01*
G37*
%LPD*%
%LPC*%
G36*
X84974Y102615D02*
X84974Y102615D01*
X82295Y105294D01*
X82295Y109082D01*
X84974Y111761D01*
X88762Y111761D01*
X91441Y109082D01*
X91441Y105294D01*
X88762Y102615D01*
X84974Y102615D01*
G37*
%LPD*%
%LPC*%
G36*
X444638Y93979D02*
X444638Y93979D01*
X441959Y96658D01*
X441959Y100446D01*
X444638Y103125D01*
X448426Y103125D01*
X451105Y100446D01*
X451105Y96658D01*
X448426Y93979D01*
X444638Y93979D01*
G37*
%LPD*%
%LPC*%
G36*
X536586Y93471D02*
X536586Y93471D01*
X533907Y96150D01*
X533907Y99938D01*
X536586Y102617D01*
X540374Y102617D01*
X543053Y99938D01*
X543053Y96150D01*
X540374Y93471D01*
X536586Y93471D01*
G37*
%LPD*%
%LPC*%
G36*
X664094Y92963D02*
X664094Y92963D01*
X661415Y95642D01*
X661415Y99430D01*
X664094Y102109D01*
X667882Y102109D01*
X670561Y99430D01*
X670561Y95642D01*
X667882Y92963D01*
X664094Y92963D01*
G37*
%LPD*%
%LPC*%
G36*
X649362Y92963D02*
X649362Y92963D01*
X646683Y95642D01*
X646683Y99430D01*
X649362Y102109D01*
X653150Y102109D01*
X655829Y99430D01*
X655829Y95642D01*
X653150Y92963D01*
X649362Y92963D01*
G37*
%LPD*%
%LPC*%
G36*
X436510Y85343D02*
X436510Y85343D01*
X433831Y88022D01*
X433831Y91810D01*
X436510Y94489D01*
X440298Y94489D01*
X442977Y91810D01*
X442977Y88022D01*
X440298Y85343D01*
X436510Y85343D01*
G37*
%LPD*%
%LPC*%
G36*
X543698Y83311D02*
X543698Y83311D01*
X541019Y85990D01*
X541019Y89778D01*
X543698Y92457D01*
X547486Y92457D01*
X550165Y89778D01*
X550165Y85990D01*
X547486Y83311D01*
X543698Y83311D01*
G37*
%LPD*%
%LPC*%
G36*
X334910Y68579D02*
X334910Y68579D01*
X332231Y71258D01*
X332231Y75046D01*
X334910Y77725D01*
X338698Y77725D01*
X341377Y75046D01*
X341377Y71258D01*
X338698Y68579D01*
X334910Y68579D01*
G37*
%LPD*%
%LPC*%
G36*
X815339Y159003D02*
X815339Y159003D01*
X815339Y168335D01*
X816010Y168229D01*
X817738Y167667D01*
X819357Y166842D01*
X820826Y165775D01*
X822111Y164490D01*
X823178Y163021D01*
X824003Y161402D01*
X824565Y159674D01*
X824671Y159003D01*
X815339Y159003D01*
G37*
%LPD*%
%LPC*%
G36*
X156971Y151891D02*
X156971Y151891D01*
X156971Y161223D01*
X157642Y161117D01*
X159370Y160555D01*
X160989Y159730D01*
X162458Y158663D01*
X163743Y157378D01*
X164810Y155909D01*
X165635Y154290D01*
X166197Y152562D01*
X166303Y151891D01*
X156971Y151891D01*
G37*
%LPD*%
%LPC*%
G36*
X801945Y159003D02*
X801945Y159003D01*
X802051Y159674D01*
X802613Y161402D01*
X803438Y163021D01*
X804505Y164490D01*
X805790Y165775D01*
X807259Y166842D01*
X808878Y167667D01*
X810606Y168229D01*
X811277Y168335D01*
X811277Y159003D01*
X801945Y159003D01*
G37*
%LPD*%
%LPC*%
G36*
X156971Y147829D02*
X156971Y147829D01*
X166303Y147829D01*
X166197Y147158D01*
X165635Y145430D01*
X164810Y143811D01*
X163743Y142342D01*
X162458Y141057D01*
X160989Y139990D01*
X159370Y139165D01*
X157642Y138603D01*
X156971Y138497D01*
X156971Y147829D01*
G37*
%LPD*%
%LPC*%
G36*
X815339Y154941D02*
X815339Y154941D01*
X824671Y154941D01*
X824565Y154270D01*
X824003Y152542D01*
X823178Y150923D01*
X822111Y149454D01*
X820826Y148169D01*
X819357Y147102D01*
X817738Y146277D01*
X816010Y145715D01*
X815339Y145609D01*
X815339Y154941D01*
G37*
%LPD*%
%LPC*%
G36*
X143577Y151891D02*
X143577Y151891D01*
X143683Y152562D01*
X144245Y154290D01*
X145070Y155909D01*
X146137Y157378D01*
X147422Y158663D01*
X148891Y159730D01*
X150510Y160555D01*
X152238Y161117D01*
X152909Y161223D01*
X152909Y151891D01*
X143577Y151891D01*
G37*
%LPD*%
%LPC*%
G36*
X152238Y138603D02*
X152238Y138603D01*
X150510Y139165D01*
X148891Y139990D01*
X147422Y141057D01*
X146137Y142342D01*
X145070Y143811D01*
X144245Y145430D01*
X143683Y147158D01*
X143577Y147829D01*
X152909Y147829D01*
X152909Y138497D01*
X152238Y138603D01*
G37*
%LPD*%
%LPC*%
G36*
X810606Y145715D02*
X810606Y145715D01*
X808878Y146277D01*
X807259Y147102D01*
X805790Y148169D01*
X804505Y149454D01*
X803438Y150923D01*
X802613Y152542D01*
X802051Y154270D01*
X801945Y154941D01*
X811277Y154941D01*
X811277Y145609D01*
X810606Y145715D01*
G37*
%LPD*%
%LPC*%
G36*
X256031Y129031D02*
X256031Y129031D01*
X256031Y136966D01*
X256379Y136911D01*
X257900Y136416D01*
X259325Y135690D01*
X260619Y134750D01*
X261750Y133619D01*
X262690Y132325D01*
X263416Y130900D01*
X263911Y129379D01*
X263966Y129031D01*
X256031Y129031D01*
G37*
%LPD*%
%LPC*%
G36*
X738631Y14731D02*
X738631Y14731D01*
X738631Y22666D01*
X738979Y22611D01*
X740500Y22116D01*
X741925Y21390D01*
X743219Y20450D01*
X744350Y19319D01*
X745290Y18025D01*
X746016Y16600D01*
X746511Y15079D01*
X746566Y14731D01*
X738631Y14731D01*
G37*
%LPD*%
%LPC*%
G36*
X256031Y124969D02*
X256031Y124969D01*
X263966Y124969D01*
X263911Y124621D01*
X263416Y123100D01*
X262690Y121675D01*
X261750Y120381D01*
X260619Y119250D01*
X259325Y118310D01*
X257900Y117584D01*
X256379Y117089D01*
X256031Y117034D01*
X256031Y124969D01*
G37*
%LPD*%
%LPC*%
G36*
X244034Y129031D02*
X244034Y129031D01*
X244089Y129379D01*
X244584Y130900D01*
X245310Y132325D01*
X246250Y133619D01*
X247381Y134750D01*
X248675Y135690D01*
X250100Y136416D01*
X251621Y136911D01*
X251969Y136966D01*
X251969Y129031D01*
X244034Y129031D01*
G37*
%LPD*%
%LPC*%
G36*
X738631Y163069D02*
X738631Y163069D01*
X746566Y163069D01*
X746511Y162721D01*
X746016Y161200D01*
X745290Y159775D01*
X744350Y158481D01*
X743219Y157350D01*
X741925Y156410D01*
X740500Y155684D01*
X738979Y155189D01*
X738631Y155134D01*
X738631Y163069D01*
G37*
%LPD*%
%LPC*%
G36*
X726634Y14731D02*
X726634Y14731D01*
X726689Y15079D01*
X727184Y16600D01*
X727910Y18025D01*
X728850Y19319D01*
X729981Y20450D01*
X731275Y21390D01*
X732700Y22116D01*
X734221Y22611D01*
X734569Y22666D01*
X734569Y14731D01*
X726634Y14731D01*
G37*
%LPD*%
%LPC*%
G36*
X734221Y155189D02*
X734221Y155189D01*
X732700Y155684D01*
X731275Y156410D01*
X729981Y157350D01*
X728850Y158481D01*
X727910Y159775D01*
X727184Y161200D01*
X726689Y162721D01*
X726634Y163069D01*
X734569Y163069D01*
X734569Y155134D01*
X734221Y155189D01*
G37*
%LPD*%
%LPC*%
G36*
X251621Y117089D02*
X251621Y117089D01*
X250100Y117584D01*
X248675Y118310D01*
X247381Y119250D01*
X246250Y120381D01*
X245310Y121675D01*
X244584Y123100D01*
X244089Y124621D01*
X244034Y124969D01*
X251969Y124969D01*
X251969Y117034D01*
X251621Y117089D01*
G37*
%LPD*%
%LPC*%
G36*
X154939Y149859D02*
X154939Y149859D01*
X154939Y149861D01*
X154941Y149861D01*
X154941Y149859D01*
X154939Y149859D01*
G37*
%LPD*%
%LPC*%
G36*
X813307Y156971D02*
X813307Y156971D01*
X813307Y156973D01*
X813309Y156973D01*
X813309Y156971D01*
X813307Y156971D01*
G37*
%LPD*%
%LPC*%
G36*
X253999Y126999D02*
X253999Y126999D01*
X253999Y127001D01*
X254001Y127001D01*
X254001Y126999D01*
X253999Y126999D01*
G37*
%LPD*%
D10*
X762000Y165100D03*
X736600Y165100D03*
X711200Y165100D03*
X685800Y165100D03*
X660400Y165100D03*
X635000Y165100D03*
X609600Y165100D03*
X584200Y165100D03*
X558800Y165100D03*
X533400Y165100D03*
X508000Y165100D03*
X482600Y165100D03*
X457200Y165100D03*
X431800Y165100D03*
X406400Y165100D03*
X381000Y165100D03*
X355600Y165100D03*
X330200Y165100D03*
X304800Y165100D03*
X279400Y165100D03*
X279400Y12700D03*
X304800Y12700D03*
X330200Y12700D03*
X355600Y12700D03*
X381000Y12700D03*
X406400Y12700D03*
X431800Y12700D03*
X457200Y12700D03*
X482600Y12700D03*
X508000Y12700D03*
X533400Y12700D03*
X558800Y12700D03*
X584200Y12700D03*
X609600Y12700D03*
X635000Y12700D03*
X660400Y12700D03*
X685800Y12700D03*
X711200Y12700D03*
X736600Y12700D03*
X762000Y12700D03*
X152400Y12700D03*
X177800Y12700D03*
X203200Y12700D03*
X228600Y12700D03*
X254000Y12700D03*
D11*
X154940Y149860D03*
X154940Y114860D03*
X154940Y79860D03*
X154940Y44860D03*
D10*
X254000Y127000D03*
X254000Y101600D03*
X254000Y76200D03*
X254000Y50800D03*
D11*
X813308Y156972D03*
X813308Y121972D03*
D12*
X527812Y69596D03*
X530860Y106172D03*
X489712Y67056D03*
X483108Y104140D03*
X593344Y78740D03*
X599948Y54864D03*
X705104Y59944D03*
X798576Y80772D03*
X685800Y79248D03*
X653796Y82804D03*
X607060Y128524D03*
X594868Y100076D03*
X55880Y82804D03*
X47752Y146812D03*
X47752Y169164D03*
X23876Y33528D03*
X9144Y80264D03*
X368300Y141732D03*
X416560Y50800D03*
X336296Y88900D03*
X521716Y92456D03*
X216408Y41656D03*
X376936Y85852D03*
X416560Y85852D03*
X263144Y156972D03*
X460756Y128524D03*
X608076Y98044D03*
X538988Y132080D03*
X565404Y88900D03*
D13*
X691896Y145796D02*
X711200Y165100D01*
X691896Y145796D02*
X637032Y145796D01*
X607568Y116332D01*
X607568Y98552D01*
X608076Y98044D01*
X608076Y89408D01*
X621792Y75692D01*
X673100Y75692D01*
X686308Y62484D01*
D12*
X686308Y62484D03*
D13*
X608076Y89408D02*
X565912Y89408D01*
X565404Y88900D01*
X565912Y89408D02*
X565912Y105156D01*
X538988Y132080D01*
X460756Y132080D01*
X460756Y128524D01*
D12*
X445516Y51816D03*
D14*
X460756Y132080D02*
X364830Y132080D01*
X280924Y132080D01*
X266700Y146304D01*
X216916Y146304D01*
X184404Y146304D01*
X168656Y130556D01*
X134973Y130556D01*
X37084Y130556D01*
X20320Y147320D01*
D12*
X20320Y147320D03*
D14*
X134973Y130556D02*
X134973Y62639D01*
X135128Y62484D01*
D12*
X135128Y62484D03*
X364830Y132080D03*
D14*
X445516Y51816D02*
X536956Y51816D01*
X565404Y80264D01*
X565404Y88900D01*
D15*
X216916Y146304D03*
D12*
X455676Y109220D03*
X446024Y115824D03*
X573532Y60960D03*
X802640Y55372D03*
X651256Y59436D03*
X570484Y70612D03*
X793496Y51308D03*
X651256Y68072D03*
X500888Y63500D03*
X801116Y65024D03*
X639064Y54864D03*
X673100Y132080D03*
X665988Y97536D03*
X651256Y137160D03*
X651256Y97536D03*
D16*
X774700Y100584D02*
X774700Y38608D01*
X762000Y38608D01*
X485648Y38608D01*
X325120Y38608D01*
X266192Y38608D01*
X254000Y50800D01*
X774700Y38608D02*
X800100Y38608D01*
D17*
X782828Y109728D03*
D18*
X800100Y38608D03*
D12*
X325628Y71120D03*
D14*
X325628Y38608D01*
X325120Y38608D01*
D19*
X744220Y132080D02*
X774700Y101600D01*
X744220Y132080D02*
X673100Y132080D01*
D12*
X485648Y39116D03*
D13*
X744220Y132080D02*
X762000Y149860D01*
X762000Y165100D01*
X762000Y38608D02*
X762000Y12700D01*
D16*
X254000Y50800D02*
X254000Y51308D01*
X250444Y54864D01*
X164944Y54864D01*
D14*
X485648Y39116D02*
X485648Y38608D01*
D16*
X782828Y109728D02*
X795020Y121920D01*
X782828Y109728D02*
X774700Y101600D01*
X164944Y54864D02*
X154940Y44860D01*
D13*
X774700Y100584D02*
X774700Y101600D01*
D20*
X795020Y121920D02*
X795072Y121920D01*
D16*
X795072Y121972D02*
X813308Y121972D01*
X795072Y121972D02*
X795020Y121920D01*
D12*
X523240Y113284D03*
X675640Y50800D03*
X438404Y89916D03*
X545592Y87884D03*
X538480Y98044D03*
X491744Y110744D03*
X500888Y115824D03*
X475488Y94996D03*
X466852Y89408D03*
X446532Y98552D03*
X311912Y120904D03*
X583184Y132588D03*
X572516Y136652D03*
X443484Y72136D03*
X560324Y136652D03*
X506476Y76200D03*
D14*
X503936Y73660D01*
X477012Y73660D01*
X464312Y60960D01*
X398780Y60960D01*
X388112Y50292D01*
X374904Y50292D01*
D12*
X374904Y50292D03*
X452628Y72136D03*
X376428Y58928D03*
X489712Y79756D03*
X188468Y38100D03*
X86868Y107188D03*
X336804Y73152D03*
D14*
X491744Y28956D02*
X508000Y12700D01*
X491744Y28956D02*
X145288Y28956D01*
X122936Y51308D01*
X122936Y62992D01*
X114808Y71120D01*
D12*
X96520Y59944D03*
D14*
X107696Y71120D01*
X114808Y71120D01*
X470408Y24892D02*
X482600Y12700D01*
X470408Y24892D02*
X140208Y24892D01*
X108712Y56388D01*
D12*
X108712Y61976D03*
D14*
X108712Y56388D01*
D12*
X482600Y88392D03*
X177800Y38100D03*
X8128Y144780D03*
X15515Y12975D03*
D21*
X86868Y94996D03*
M02*
