G04 EAGLE Gerber X2 export*
%TF.Part,Single*%
%TF.FileFunction,Legend,Top,1*%
%TF.FilePolarity,Positive*%
%TF.GenerationSoftware,Autodesk,EAGLE,8.6.3*%
%TF.CreationDate,2018-02-18T17:46:12Z*%
G75*
%MOMM*%
%FSLAX34Y34*%
%LPD*%
%AMOC8*
5,1,8,0,0,1.08239X$1,22.5*%
G01*
%ADD10C,0.254000*%
%ADD11C,0.177800*%
%ADD12C,0.558800*%
%ADD13R,0.762000X0.457200*%
%ADD14C,0.203200*%
%ADD15R,0.457200X0.762000*%
%ADD16C,0.152400*%
%ADD17C,0.127000*%
%ADD18C,0.076200*%
%ADD19C,0.381000*%
%ADD20R,0.381000X0.762000*%
%ADD21C,0.304800*%
%ADD22C,0.203000*%


D10*
X139700Y0D02*
X139700Y25400D01*
X165100Y25400D01*
X266700Y25400D01*
X165100Y25400D02*
X165100Y0D01*
X266700Y0D01*
X266700Y25400D01*
X165100Y0D02*
X139700Y0D01*
D11*
X106301Y4866D02*
X103505Y10459D01*
X109098Y10459D02*
X106301Y4866D01*
X112860Y10459D02*
X115657Y13255D01*
X115657Y4866D01*
X118453Y4866D02*
X112860Y4866D01*
X122215Y4866D02*
X122215Y6264D01*
X123614Y6264D01*
X123614Y4866D01*
X122215Y4866D01*
X126893Y4866D02*
X132486Y4866D01*
X126893Y4866D02*
X132486Y10459D01*
X132486Y11857D01*
X131088Y13255D01*
X128291Y13255D01*
X126893Y11857D01*
X606425Y38481D02*
X606425Y46870D01*
X610620Y46870D01*
X612018Y45472D01*
X612018Y42676D01*
X610620Y41277D01*
X606425Y41277D01*
X615780Y38481D02*
X615780Y46870D01*
X618577Y41277D02*
X615780Y38481D01*
X618577Y41277D02*
X621373Y38481D01*
X621373Y46870D01*
X625135Y46870D02*
X625135Y38481D01*
X625135Y46870D02*
X629330Y46870D01*
X630728Y45472D01*
X630728Y42676D01*
X629330Y41277D01*
X625135Y41277D01*
X627932Y41277D02*
X630728Y38481D01*
X602869Y130434D02*
X605665Y133230D01*
X605665Y124841D01*
X602869Y124841D02*
X608462Y124841D01*
X386461Y80906D02*
X386461Y72517D01*
X386461Y80906D02*
X390656Y80906D01*
X392054Y79508D01*
X392054Y76712D01*
X390656Y75313D01*
X386461Y75313D01*
X389257Y75313D02*
X392054Y72517D01*
X395816Y80906D02*
X401409Y80906D01*
X395816Y80906D02*
X395816Y72517D01*
X401409Y72517D01*
X398613Y76712D02*
X395816Y76712D01*
X409366Y80906D02*
X410764Y79508D01*
X409366Y80906D02*
X406570Y80906D01*
X405171Y79508D01*
X405171Y78110D01*
X406570Y76712D01*
X409366Y76712D01*
X410764Y75313D01*
X410764Y73915D01*
X409366Y72517D01*
X406570Y72517D01*
X405171Y73915D01*
X414527Y80906D02*
X420119Y80906D01*
X414527Y80906D02*
X414527Y72517D01*
X420119Y72517D01*
X417323Y76712D02*
X414527Y76712D01*
X426678Y72517D02*
X426678Y80906D01*
X423882Y80906D02*
X429475Y80906D01*
X298577Y94361D02*
X298577Y102750D01*
X302772Y102750D01*
X304170Y101352D01*
X304170Y98556D01*
X302772Y97157D01*
X298577Y97157D01*
X307932Y94361D02*
X307932Y102750D01*
X312127Y102750D01*
X313525Y101352D01*
X313525Y98556D01*
X312127Y97157D01*
X307932Y97157D01*
X310729Y97157D02*
X313525Y94361D01*
X321482Y102750D02*
X322880Y101352D01*
X321482Y102750D02*
X318686Y102750D01*
X317287Y101352D01*
X317287Y95759D01*
X318686Y94361D01*
X321482Y94361D01*
X322880Y95759D01*
X322880Y98556D01*
X320084Y98556D01*
X683133Y144527D02*
X683133Y150120D01*
X684531Y151518D01*
X687328Y151518D01*
X688726Y150120D01*
X688726Y144527D01*
X687328Y143129D01*
X684531Y143129D01*
X683133Y144527D01*
X688726Y150120D01*
X660529Y151518D02*
X657733Y148722D01*
X660529Y151518D02*
X660529Y143129D01*
X657733Y143129D02*
X663326Y143129D01*
X637926Y143129D02*
X632333Y143129D01*
X637926Y148722D01*
X637926Y150120D01*
X636528Y151518D01*
X633731Y151518D01*
X632333Y150120D01*
X608331Y151518D02*
X606933Y150120D01*
X608331Y151518D02*
X611128Y151518D01*
X612526Y150120D01*
X612526Y148722D01*
X611128Y147324D01*
X609729Y147324D01*
X611128Y147324D02*
X612526Y145925D01*
X612526Y144527D01*
X611128Y143129D01*
X608331Y143129D01*
X606933Y144527D01*
X701929Y150120D02*
X703327Y151518D01*
X706124Y151518D01*
X707522Y150120D01*
X707522Y148722D01*
X706124Y147324D01*
X704725Y147324D01*
X706124Y147324D02*
X707522Y145925D01*
X707522Y144527D01*
X706124Y143129D01*
X703327Y143129D01*
X701929Y144527D01*
X711284Y145925D02*
X711284Y151518D01*
X711284Y145925D02*
X714081Y143129D01*
X716877Y145925D01*
X716877Y151518D01*
X757301Y34170D02*
X762894Y34170D01*
X757301Y34170D02*
X757301Y29976D01*
X760097Y31374D01*
X761496Y31374D01*
X762894Y29976D01*
X762894Y27179D01*
X761496Y25781D01*
X758699Y25781D01*
X757301Y27179D01*
X766656Y28577D02*
X766656Y34170D01*
X766656Y28577D02*
X769453Y25781D01*
X772249Y28577D01*
X772249Y34170D01*
X729874Y147580D02*
X728476Y148978D01*
X725679Y148978D01*
X724281Y147580D01*
X724281Y141987D01*
X725679Y140589D01*
X728476Y140589D01*
X729874Y141987D01*
X729874Y144784D01*
X727077Y144784D01*
X733636Y140589D02*
X733636Y148978D01*
X739229Y140589D01*
X739229Y148978D01*
X742991Y148978D02*
X742991Y140589D01*
X747186Y140589D01*
X748584Y141987D01*
X748584Y147580D01*
X747186Y148978D01*
X742991Y148978D01*
D10*
X749808Y152400D02*
X749808Y176784D01*
X749808Y152400D02*
X773684Y152400D01*
X773684Y176784D01*
X749808Y176784D01*
D11*
X274957Y34678D02*
X272161Y31882D01*
X274957Y34678D02*
X274957Y26289D01*
X272161Y26289D02*
X277754Y26289D01*
X281516Y34678D02*
X287109Y34678D01*
X287109Y33280D01*
X281516Y27687D01*
X281516Y26289D01*
X297561Y32390D02*
X300357Y35186D01*
X300357Y26797D01*
X297561Y26797D02*
X303154Y26797D01*
X306916Y33788D02*
X308314Y35186D01*
X311111Y35186D01*
X312509Y33788D01*
X312509Y32390D01*
X311111Y30992D01*
X312509Y29593D01*
X312509Y28195D01*
X311111Y26797D01*
X308314Y26797D01*
X306916Y28195D01*
X306916Y29593D01*
X308314Y30992D01*
X306916Y32390D01*
X306916Y33788D01*
X308314Y30992D02*
X311111Y30992D01*
X449453Y25273D02*
X455046Y25273D01*
X449453Y25273D02*
X455046Y30866D01*
X455046Y32264D01*
X453648Y33662D01*
X450851Y33662D01*
X449453Y32264D01*
X463003Y33662D02*
X463003Y25273D01*
X458808Y29468D02*
X463003Y33662D01*
X464401Y29468D02*
X458808Y29468D01*
X475361Y25273D02*
X480954Y25273D01*
X475361Y25273D02*
X480954Y30866D01*
X480954Y32264D01*
X479556Y33662D01*
X476759Y33662D01*
X475361Y32264D01*
X484716Y33662D02*
X490309Y33662D01*
X484716Y33662D02*
X484716Y29468D01*
X487513Y30866D01*
X488911Y30866D01*
X490309Y29468D01*
X490309Y26671D01*
X488911Y25273D01*
X486114Y25273D01*
X484716Y26671D01*
X496189Y24765D02*
X501782Y24765D01*
X496189Y24765D02*
X501782Y30358D01*
X501782Y31756D01*
X500384Y33154D01*
X497587Y33154D01*
X496189Y31756D01*
X508341Y31756D02*
X511137Y33154D01*
X508341Y31756D02*
X505544Y28960D01*
X505544Y26163D01*
X506942Y24765D01*
X509739Y24765D01*
X511137Y26163D01*
X511137Y27561D01*
X509739Y28960D01*
X505544Y28960D01*
X526161Y26289D02*
X531754Y26289D01*
X526161Y26289D02*
X531754Y31882D01*
X531754Y33280D01*
X530356Y34678D01*
X527559Y34678D01*
X526161Y33280D01*
X535516Y34678D02*
X541109Y34678D01*
X541109Y33280D01*
X535516Y27687D01*
X535516Y26289D01*
X551053Y26289D02*
X556646Y26289D01*
X551053Y26289D02*
X556646Y31882D01*
X556646Y33280D01*
X555248Y34678D01*
X552451Y34678D01*
X551053Y33280D01*
X560408Y33280D02*
X561806Y34678D01*
X564603Y34678D01*
X566001Y33280D01*
X566001Y31882D01*
X564603Y30484D01*
X566001Y29085D01*
X566001Y27687D01*
X564603Y26289D01*
X561806Y26289D01*
X560408Y27687D01*
X560408Y29085D01*
X561806Y30484D01*
X560408Y31882D01*
X560408Y33280D01*
X561806Y30484D02*
X564603Y30484D01*
X576453Y26289D02*
X582046Y26289D01*
X576453Y26289D02*
X582046Y31882D01*
X582046Y33280D01*
X580648Y34678D01*
X577851Y34678D01*
X576453Y33280D01*
X585808Y27687D02*
X587206Y26289D01*
X590003Y26289D01*
X591401Y27687D01*
X591401Y33280D01*
X590003Y34678D01*
X587206Y34678D01*
X585808Y33280D01*
X585808Y31882D01*
X587206Y30484D01*
X591401Y30484D01*
X601853Y33280D02*
X603251Y34678D01*
X606048Y34678D01*
X607446Y33280D01*
X607446Y31882D01*
X606048Y30484D01*
X604649Y30484D01*
X606048Y30484D02*
X607446Y29085D01*
X607446Y27687D01*
X606048Y26289D01*
X603251Y26289D01*
X601853Y27687D01*
X611208Y27687D02*
X611208Y33280D01*
X612606Y34678D01*
X615403Y34678D01*
X616801Y33280D01*
X616801Y27687D01*
X615403Y26289D01*
X612606Y26289D01*
X611208Y27687D01*
X616801Y33280D01*
X627253Y33280D02*
X628651Y34678D01*
X631448Y34678D01*
X632846Y33280D01*
X632846Y31882D01*
X631448Y30484D01*
X630049Y30484D01*
X631448Y30484D02*
X632846Y29085D01*
X632846Y27687D01*
X631448Y26289D01*
X628651Y26289D01*
X627253Y27687D01*
X636608Y31882D02*
X639405Y34678D01*
X639405Y26289D01*
X642201Y26289D02*
X636608Y26289D01*
X652653Y33280D02*
X654051Y34678D01*
X656848Y34678D01*
X658246Y33280D01*
X658246Y31882D01*
X656848Y30484D01*
X655449Y30484D01*
X656848Y30484D02*
X658246Y29085D01*
X658246Y27687D01*
X656848Y26289D01*
X654051Y26289D01*
X652653Y27687D01*
X662008Y26289D02*
X667601Y26289D01*
X662008Y26289D02*
X667601Y31882D01*
X667601Y33280D01*
X666203Y34678D01*
X663406Y34678D01*
X662008Y33280D01*
X677037Y34678D02*
X677037Y26289D01*
X677037Y34678D02*
X681232Y34678D01*
X682630Y33280D01*
X682630Y30484D01*
X681232Y29085D01*
X677037Y29085D01*
X679833Y29085D02*
X682630Y26289D01*
X690587Y34678D02*
X691985Y33280D01*
X690587Y34678D02*
X687790Y34678D01*
X686392Y33280D01*
X686392Y31882D01*
X687790Y30484D01*
X690587Y30484D01*
X691985Y29085D01*
X691985Y27687D01*
X690587Y26289D01*
X687790Y26289D01*
X686392Y27687D01*
X703453Y33280D02*
X704851Y34678D01*
X707648Y34678D01*
X709046Y33280D01*
X709046Y31882D01*
X707648Y30484D01*
X706249Y30484D01*
X707648Y30484D02*
X709046Y29085D01*
X709046Y27687D01*
X707648Y26289D01*
X704851Y26289D01*
X703453Y27687D01*
X712808Y29085D02*
X712808Y34678D01*
X712808Y29085D02*
X715605Y26289D01*
X718401Y29085D01*
X718401Y34678D01*
X755777Y148978D02*
X761370Y148978D01*
X755777Y148978D02*
X755777Y144784D01*
X758573Y146182D01*
X759972Y146182D01*
X761370Y144784D01*
X761370Y141987D01*
X759972Y140589D01*
X757175Y140589D01*
X755777Y141987D01*
X765132Y143385D02*
X765132Y148978D01*
X765132Y143385D02*
X767929Y140589D01*
X770725Y143385D01*
X770725Y148978D01*
X728984Y34678D02*
X730382Y33280D01*
X728984Y34678D02*
X726187Y34678D01*
X724789Y33280D01*
X724789Y27687D01*
X726187Y26289D01*
X728984Y26289D01*
X730382Y27687D01*
X730382Y30484D01*
X727585Y30484D01*
X734144Y26289D02*
X734144Y34678D01*
X739737Y26289D01*
X739737Y34678D01*
X743499Y34678D02*
X743499Y26289D01*
X747694Y26289D01*
X749092Y27687D01*
X749092Y33280D01*
X747694Y34678D01*
X743499Y34678D01*
X8186Y13542D02*
X8186Y5153D01*
X8186Y13542D02*
X12380Y13542D01*
X13779Y12144D01*
X13779Y9347D01*
X12380Y7949D01*
X8186Y7949D01*
X10982Y7949D02*
X13779Y5153D01*
X21736Y13542D02*
X23134Y12144D01*
X21736Y13542D02*
X18939Y13542D01*
X17541Y12144D01*
X17541Y6551D01*
X18939Y5153D01*
X21736Y5153D01*
X23134Y6551D01*
X23134Y9347D01*
X20337Y9347D01*
X26896Y5153D02*
X26896Y13542D01*
X31091Y13542D01*
X32489Y12144D01*
X32489Y10746D01*
X31091Y9347D01*
X32489Y7949D01*
X32489Y6551D01*
X31091Y5153D01*
X26896Y5153D01*
X26896Y9347D02*
X31091Y9347D01*
X49801Y13542D02*
X51199Y12144D01*
X49801Y13542D02*
X47005Y13542D01*
X45607Y12144D01*
X45607Y10746D01*
X47005Y9347D01*
X49801Y9347D01*
X51199Y7949D01*
X51199Y6551D01*
X49801Y5153D01*
X47005Y5153D01*
X45607Y6551D01*
X56360Y6551D02*
X56360Y12144D01*
X56360Y6551D02*
X57758Y5153D01*
X57758Y10746D02*
X54962Y10746D01*
X62597Y10746D02*
X65393Y10746D01*
X66791Y9347D01*
X66791Y5153D01*
X62597Y5153D01*
X61199Y6551D01*
X62597Y7949D01*
X66791Y7949D01*
X71952Y6551D02*
X71952Y12144D01*
X71952Y6551D02*
X73350Y5153D01*
X73350Y10746D02*
X70554Y10746D01*
X76791Y10746D02*
X78189Y10746D01*
X78189Y5153D01*
X76791Y5153D02*
X79587Y5153D01*
X78189Y13542D02*
X78189Y14940D01*
X84426Y5153D02*
X87222Y5153D01*
X88620Y6551D01*
X88620Y9347D01*
X87222Y10746D01*
X84426Y10746D01*
X83027Y9347D01*
X83027Y6551D01*
X84426Y5153D01*
X92383Y5153D02*
X92383Y10746D01*
X96577Y10746D01*
X97975Y9347D01*
X97975Y5153D01*
X585220Y143129D02*
X585220Y151518D01*
X581025Y147324D01*
X586618Y147324D01*
X561218Y151518D02*
X555625Y151518D01*
X555625Y147324D01*
X558421Y148722D01*
X559820Y148722D01*
X561218Y147324D01*
X561218Y144527D01*
X559820Y143129D01*
X557023Y143129D01*
X555625Y144527D01*
X536326Y151518D02*
X533529Y150120D01*
X530733Y147324D01*
X530733Y144527D01*
X532131Y143129D01*
X534928Y143129D01*
X536326Y144527D01*
X536326Y145925D01*
X534928Y147324D01*
X530733Y147324D01*
X518546Y153550D02*
X512953Y153550D01*
X518546Y153550D02*
X518546Y152152D01*
X512953Y146559D01*
X512953Y145161D01*
X481331Y151010D02*
X479933Y149612D01*
X481331Y151010D02*
X484128Y151010D01*
X485526Y149612D01*
X485526Y148214D01*
X484128Y146816D01*
X485526Y145417D01*
X485526Y144019D01*
X484128Y142621D01*
X481331Y142621D01*
X479933Y144019D01*
X479933Y145417D01*
X481331Y146816D01*
X479933Y148214D01*
X479933Y149612D01*
X481331Y146816D02*
X484128Y146816D01*
X455423Y143129D02*
X454025Y144527D01*
X455423Y143129D02*
X458220Y143129D01*
X459618Y144527D01*
X459618Y150120D01*
X458220Y151518D01*
X455423Y151518D01*
X454025Y150120D01*
X454025Y148722D01*
X455423Y147324D01*
X459618Y147324D01*
X427357Y151518D02*
X424561Y148722D01*
X427357Y151518D02*
X427357Y143129D01*
X424561Y143129D02*
X430154Y143129D01*
X433916Y144527D02*
X433916Y150120D01*
X435314Y151518D01*
X438111Y151518D01*
X439509Y150120D01*
X439509Y144527D01*
X438111Y143129D01*
X435314Y143129D01*
X433916Y144527D01*
X439509Y150120D01*
X401957Y151518D02*
X399161Y148722D01*
X401957Y151518D02*
X401957Y143129D01*
X399161Y143129D02*
X404754Y143129D01*
X408516Y148722D02*
X411313Y151518D01*
X411313Y143129D01*
X414109Y143129D02*
X408516Y143129D01*
X376557Y151518D02*
X373761Y148722D01*
X376557Y151518D02*
X376557Y143129D01*
X373761Y143129D02*
X379354Y143129D01*
X383116Y143129D02*
X388709Y143129D01*
X383116Y143129D02*
X388709Y148722D01*
X388709Y150120D01*
X387311Y151518D01*
X384514Y151518D01*
X383116Y150120D01*
X675109Y153315D02*
X679064Y153315D01*
X675109Y153315D02*
X675109Y157270D01*
X603372Y153315D02*
X599417Y153315D01*
X599417Y157270D01*
X577972Y153315D02*
X574017Y153315D01*
X574017Y157270D01*
X348356Y154331D02*
X344401Y154331D01*
X344401Y158286D01*
X370309Y153315D02*
X374264Y153315D01*
X370309Y153315D02*
X370309Y157270D01*
X395709Y153315D02*
X399664Y153315D01*
X395709Y153315D02*
X395709Y157270D01*
X421617Y153315D02*
X425572Y153315D01*
X421617Y153315D02*
X421617Y157270D01*
X446509Y153315D02*
X450464Y153315D01*
X446509Y153315D02*
X446509Y157270D01*
X472417Y153315D02*
X476372Y153315D01*
X472417Y153315D02*
X472417Y157270D01*
X497309Y153315D02*
X501264Y153315D01*
X497309Y153315D02*
X497309Y157270D01*
X523217Y153315D02*
X527172Y153315D01*
X523217Y153315D02*
X523217Y157270D01*
X548109Y153315D02*
X552064Y153315D01*
X548109Y153315D02*
X548109Y157270D01*
X345339Y24407D02*
X345339Y20452D01*
X345339Y24407D02*
X349294Y24407D01*
D10*
X852170Y121925D02*
X859966Y121925D01*
X856068Y125823D02*
X856068Y118027D01*
X858017Y152986D02*
X858017Y160782D01*
D11*
X4445Y165481D02*
X4445Y173870D01*
X8640Y173870D01*
X10038Y172472D01*
X10038Y171074D01*
X8640Y169676D01*
X10038Y168277D01*
X10038Y166879D01*
X8640Y165481D01*
X4445Y165481D01*
X4445Y169676D02*
X8640Y169676D01*
X13800Y173870D02*
X13800Y165481D01*
X19393Y165481D01*
X23155Y173870D02*
X28748Y173870D01*
X23155Y173870D02*
X23155Y165481D01*
X28748Y165481D01*
X25952Y169676D02*
X23155Y169676D01*
X424053Y26289D02*
X429646Y26289D01*
X424053Y26289D02*
X429646Y31882D01*
X429646Y33280D01*
X428248Y34678D01*
X425451Y34678D01*
X424053Y33280D01*
X433408Y33280D02*
X434806Y34678D01*
X437603Y34678D01*
X439001Y33280D01*
X439001Y31882D01*
X437603Y30484D01*
X436205Y30484D01*
X437603Y30484D02*
X439001Y29085D01*
X439001Y27687D01*
X437603Y26289D01*
X434806Y26289D01*
X433408Y27687D01*
X404246Y26289D02*
X398653Y26289D01*
X404246Y31882D01*
X404246Y33280D01*
X402848Y34678D01*
X400051Y34678D01*
X398653Y33280D01*
X408008Y26289D02*
X413601Y26289D01*
X408008Y26289D02*
X413601Y31882D01*
X413601Y33280D01*
X412203Y34678D01*
X409406Y34678D01*
X408008Y33280D01*
X378338Y26289D02*
X372745Y26289D01*
X378338Y31882D01*
X378338Y33280D01*
X376940Y34678D01*
X374143Y34678D01*
X372745Y33280D01*
X382100Y31882D02*
X384897Y34678D01*
X384897Y26289D01*
X387693Y26289D02*
X382100Y26289D01*
X352938Y26797D02*
X347345Y26797D01*
X352938Y32390D01*
X352938Y33788D01*
X351540Y35186D01*
X348743Y35186D01*
X347345Y33788D01*
X356700Y33788D02*
X356700Y28195D01*
X356700Y33788D02*
X358098Y35186D01*
X360895Y35186D01*
X362293Y33788D01*
X362293Y28195D01*
X360895Y26797D01*
X358098Y26797D01*
X356700Y28195D01*
X362293Y33788D01*
X325757Y35186D02*
X322961Y32390D01*
X325757Y35186D02*
X325757Y26797D01*
X322961Y26797D02*
X328554Y26797D01*
X332316Y28195D02*
X333714Y26797D01*
X336511Y26797D01*
X337909Y28195D01*
X337909Y33788D01*
X336511Y35186D01*
X333714Y35186D01*
X332316Y33788D01*
X332316Y32390D01*
X333714Y30992D01*
X337909Y30992D01*
X347853Y148722D02*
X350649Y151518D01*
X350649Y143129D01*
X347853Y143129D02*
X353446Y143129D01*
X357208Y150120D02*
X358606Y151518D01*
X361403Y151518D01*
X362801Y150120D01*
X362801Y148722D01*
X361403Y147324D01*
X360005Y147324D01*
X361403Y147324D02*
X362801Y145925D01*
X362801Y144527D01*
X361403Y143129D01*
X358606Y143129D01*
X357208Y144527D01*
X325249Y151518D02*
X322453Y148722D01*
X325249Y151518D02*
X325249Y143129D01*
X322453Y143129D02*
X328046Y143129D01*
X336003Y143129D02*
X336003Y151518D01*
X331808Y147324D01*
X337401Y147324D01*
X300357Y151518D02*
X297561Y148722D01*
X300357Y151518D02*
X300357Y143129D01*
X297561Y143129D02*
X303154Y143129D01*
X306916Y151518D02*
X312509Y151518D01*
X306916Y151518D02*
X306916Y147324D01*
X309713Y148722D01*
X311111Y148722D01*
X312509Y147324D01*
X312509Y144527D01*
X311111Y143129D01*
X308314Y143129D01*
X306916Y144527D01*
X274957Y151518D02*
X272161Y148722D01*
X274957Y151518D02*
X274957Y143129D01*
X272161Y143129D02*
X277754Y143129D01*
X284313Y150120D02*
X287109Y151518D01*
X284313Y150120D02*
X281516Y147324D01*
X281516Y144527D01*
X282914Y143129D01*
X285711Y143129D01*
X287109Y144527D01*
X287109Y145925D01*
X285711Y147324D01*
X281516Y147324D01*
X100210Y157476D02*
X98812Y156078D01*
X100210Y157476D02*
X100210Y160273D01*
X98812Y161671D01*
X93219Y161671D01*
X91821Y160273D01*
X91821Y157476D01*
X93219Y156078D01*
X96016Y156078D01*
X96016Y158875D01*
X91821Y152316D02*
X100210Y152316D01*
X91821Y146723D01*
X100210Y146723D01*
X100210Y142961D02*
X91821Y142961D01*
X91821Y138766D01*
X93219Y137368D01*
X98812Y137368D01*
X100210Y138766D01*
X100210Y142961D01*
X100210Y125603D02*
X91821Y125603D01*
X91821Y121408D01*
X93219Y120010D01*
X98812Y120010D01*
X100210Y121408D01*
X100210Y125603D01*
X97414Y116248D02*
X91821Y116248D01*
X97414Y116248D02*
X100210Y113451D01*
X97414Y110655D01*
X91821Y110655D01*
X96016Y110655D02*
X96016Y116248D01*
X91821Y104096D02*
X100210Y104096D01*
X100210Y101300D02*
X100210Y106893D01*
X100210Y87372D02*
X98812Y85974D01*
X100210Y87372D02*
X100210Y90169D01*
X98812Y91567D01*
X93219Y91567D01*
X91821Y90169D01*
X91821Y87372D01*
X93219Y85974D01*
X91821Y82212D02*
X100210Y82212D01*
X91821Y82212D02*
X91821Y76619D01*
X91821Y72857D02*
X100210Y72857D01*
X94617Y72857D02*
X100210Y67264D01*
X96016Y71458D02*
X91821Y67264D01*
X99702Y49911D02*
X99702Y44318D01*
X99702Y49911D02*
X95508Y49911D01*
X96906Y47115D01*
X96906Y45716D01*
X95508Y44318D01*
X92711Y44318D01*
X91313Y45716D01*
X91313Y48513D01*
X92711Y49911D01*
X94109Y40556D02*
X99702Y40556D01*
X94109Y40556D02*
X91313Y37759D01*
X94109Y34963D01*
X99702Y34963D01*
X736596Y41529D02*
X736596Y47122D01*
X733800Y44325D02*
X739393Y44325D01*
X732402Y50884D02*
X732402Y56477D01*
X732402Y50884D02*
X736596Y50884D01*
X735198Y53681D01*
X735198Y55079D01*
X736596Y56477D01*
X739393Y56477D01*
X740791Y55079D01*
X740791Y52282D01*
X739393Y50884D01*
X737995Y60239D02*
X732402Y60239D01*
X737995Y60239D02*
X740791Y63036D01*
X737995Y65832D01*
X732402Y65832D01*
X732402Y78950D02*
X740791Y78950D01*
X732402Y78950D02*
X732402Y83144D01*
X733800Y84543D01*
X736596Y84543D01*
X737995Y83144D01*
X737995Y78950D01*
X740791Y88305D02*
X732402Y88305D01*
X737995Y91101D02*
X740791Y88305D01*
X737995Y91101D02*
X740791Y93898D01*
X732402Y93898D01*
X732402Y97660D02*
X740791Y97660D01*
X732402Y97660D02*
X732402Y101855D01*
X733800Y103253D01*
X736596Y103253D01*
X737995Y101855D01*
X737995Y97660D01*
X737995Y100457D02*
X740791Y103253D01*
X218826Y131832D02*
X217428Y133230D01*
X214631Y133230D01*
X213233Y131832D01*
X213233Y126239D01*
X214631Y124841D01*
X217428Y124841D01*
X218826Y126239D01*
X218826Y129036D01*
X216029Y129036D01*
X222588Y124841D02*
X222588Y133230D01*
X228181Y124841D01*
X228181Y133230D01*
X231943Y133230D02*
X231943Y124841D01*
X236138Y124841D01*
X237536Y126239D01*
X237536Y131832D01*
X236138Y133230D01*
X231943Y133230D01*
X226954Y53474D02*
X221361Y53474D01*
X221361Y49280D01*
X224157Y50678D01*
X225556Y50678D01*
X226954Y49280D01*
X226954Y46483D01*
X225556Y45085D01*
X222759Y45085D01*
X221361Y46483D01*
X230716Y47881D02*
X230716Y53474D01*
X230716Y47881D02*
X233513Y45085D01*
X236309Y47881D01*
X236309Y53474D01*
X213741Y107061D02*
X213741Y115450D01*
X213741Y107061D02*
X217936Y107061D01*
X219334Y108459D01*
X219334Y114052D01*
X217936Y115450D01*
X213741Y115450D01*
X223096Y112654D02*
X223096Y107061D01*
X223096Y112654D02*
X225893Y115450D01*
X228689Y112654D01*
X228689Y107061D01*
X228689Y111256D02*
X223096Y111256D01*
X235248Y107061D02*
X235248Y115450D01*
X238044Y115450D02*
X232451Y115450D01*
X216412Y71762D02*
X217810Y70364D01*
X216412Y71762D02*
X213615Y71762D01*
X212217Y70364D01*
X212217Y64771D01*
X213615Y63373D01*
X216412Y63373D01*
X217810Y64771D01*
X221572Y63373D02*
X221572Y71762D01*
X221572Y63373D02*
X227165Y63373D01*
X230927Y63373D02*
X230927Y71762D01*
X230927Y66169D02*
X236520Y71762D01*
X232326Y67568D02*
X236520Y63373D01*
X196725Y29845D02*
X193929Y29845D01*
X195327Y29845D02*
X195327Y38234D01*
X193929Y38234D02*
X196725Y38234D01*
X204360Y38234D02*
X205759Y36836D01*
X204360Y38234D02*
X201564Y38234D01*
X200166Y36836D01*
X200166Y31243D01*
X201564Y29845D01*
X204360Y29845D01*
X205759Y31243D01*
X213716Y38234D02*
X215114Y36836D01*
X213716Y38234D02*
X210919Y38234D01*
X209521Y36836D01*
X209521Y35438D01*
X210919Y34040D01*
X213716Y34040D01*
X215114Y32641D01*
X215114Y31243D01*
X213716Y29845D01*
X210919Y29845D01*
X209521Y31243D01*
X218876Y29845D02*
X218876Y38234D01*
X223071Y38234D01*
X224469Y36836D01*
X224469Y34040D01*
X223071Y32641D01*
X218876Y32641D01*
D10*
X744220Y91948D02*
X772668Y120396D01*
X766064Y120396D01*
X772668Y120396D02*
X772668Y114300D01*
D11*
X274957Y105798D02*
X272161Y103002D01*
X274957Y105798D02*
X274957Y97409D01*
X272161Y97409D02*
X277754Y97409D01*
X281516Y104400D02*
X282914Y105798D01*
X285711Y105798D01*
X287109Y104400D01*
X287109Y103002D01*
X285711Y101604D01*
X287109Y100205D01*
X287109Y98807D01*
X285711Y97409D01*
X282914Y97409D01*
X281516Y98807D01*
X281516Y100205D01*
X282914Y101604D01*
X281516Y103002D01*
X281516Y104400D01*
X282914Y101604D02*
X285711Y101604D01*
X273559Y80906D02*
X272161Y79508D01*
X273559Y80906D02*
X276356Y80906D01*
X277754Y79508D01*
X277754Y78110D01*
X276356Y76712D01*
X274957Y76712D01*
X276356Y76712D02*
X277754Y75313D01*
X277754Y73915D01*
X276356Y72517D01*
X273559Y72517D01*
X272161Y73915D01*
X113418Y117727D02*
X110622Y120523D01*
X113418Y117727D02*
X105029Y117727D01*
X105029Y120523D02*
X105029Y114930D01*
X112020Y111168D02*
X113418Y109770D01*
X113418Y106973D01*
X112020Y105575D01*
X110622Y105575D01*
X109224Y106973D01*
X107825Y105575D01*
X106427Y105575D01*
X105029Y106973D01*
X105029Y109770D01*
X106427Y111168D01*
X107825Y111168D01*
X109224Y109770D01*
X110622Y111168D01*
X112020Y111168D01*
X109224Y109770D02*
X109224Y106973D01*
X111512Y82423D02*
X112910Y81025D01*
X112910Y78228D01*
X111512Y76830D01*
X110114Y76830D01*
X108716Y78228D01*
X108716Y79627D01*
X108716Y78228D02*
X107317Y76830D01*
X105919Y76830D01*
X104521Y78228D01*
X104521Y81025D01*
X105919Y82423D01*
D12*
X565404Y49073D02*
X565404Y48463D01*
X459957Y49996D02*
X459347Y49996D01*
X417576Y134315D02*
X417576Y134925D01*
D13*
X580644Y111252D03*
D14*
X594360Y129716D02*
X598960Y129716D01*
X594360Y129716D02*
X589760Y129716D01*
X594360Y129716D02*
X596698Y126616D01*
X594106Y129562D02*
X592176Y126616D01*
D13*
X639064Y76200D03*
D15*
X55880Y23876D03*
D13*
X625348Y76200D03*
D14*
X616536Y58956D02*
X616536Y54356D01*
X616536Y49756D01*
X616536Y54356D02*
X619636Y56694D01*
X616690Y54102D02*
X619636Y52172D01*
D16*
X616616Y72692D02*
X616616Y78692D01*
X604616Y78692D02*
X604616Y72692D01*
D12*
X668731Y76200D02*
X669341Y76200D01*
X387909Y104648D02*
X387299Y104648D01*
D14*
X707118Y122366D02*
X708642Y126430D01*
X707118Y122366D02*
X706102Y122874D01*
X704070Y121350D01*
X702292Y122874D01*
X703816Y125160D01*
X702800Y127446D01*
X700260Y127954D01*
X700260Y130240D01*
X703054Y130748D01*
X703816Y133034D01*
X702292Y135320D01*
X704070Y137098D01*
X706356Y135320D01*
X708388Y136336D01*
X709150Y139130D01*
X711436Y139130D01*
X711944Y136336D01*
X713976Y135320D01*
X716262Y137098D01*
X718040Y135320D01*
X716516Y133034D01*
X717532Y130748D01*
X720072Y130240D01*
X720072Y127954D01*
X717532Y127446D01*
X716516Y125160D01*
X718040Y122874D01*
X716262Y121350D01*
X714230Y122874D01*
X713214Y122366D01*
X711690Y126430D01*
X711784Y126486D01*
X711876Y126545D01*
X711966Y126608D01*
X712054Y126674D01*
X712139Y126743D01*
X712222Y126814D01*
X712302Y126889D01*
X712380Y126967D01*
X712454Y127047D01*
X712526Y127130D01*
X712594Y127216D01*
X712660Y127303D01*
X712722Y127393D01*
X712782Y127486D01*
X712837Y127580D01*
X712890Y127676D01*
X712939Y127774D01*
X712984Y127874D01*
X713026Y127975D01*
X713064Y128078D01*
X713099Y128182D01*
X713129Y128287D01*
X713156Y128394D01*
X713180Y128501D01*
X713199Y128609D01*
X713214Y128717D01*
X713226Y128826D01*
X713234Y128935D01*
X713238Y129045D01*
X713237Y129155D01*
X713233Y129264D01*
X713226Y129373D01*
X713214Y129482D01*
X713198Y129591D01*
X713179Y129699D01*
X713155Y129806D01*
X713128Y129912D01*
X713097Y130017D01*
X713062Y130121D01*
X713024Y130224D01*
X712982Y130325D01*
X712936Y130425D01*
X712887Y130523D01*
X712835Y130619D01*
X712779Y130713D01*
X712719Y130805D01*
X712657Y130895D01*
X712591Y130983D01*
X712522Y131068D01*
X712450Y131151D01*
X712376Y131231D01*
X712298Y131309D01*
X712218Y131383D01*
X712135Y131455D01*
X712050Y131524D01*
X711962Y131589D01*
X711872Y131652D01*
X711780Y131711D01*
X711685Y131767D01*
X711589Y131819D01*
X711491Y131869D01*
X711391Y131914D01*
X711290Y131956D01*
X711187Y131994D01*
X711083Y132029D01*
X710978Y132060D01*
X710872Y132087D01*
X710765Y132110D01*
X710657Y132129D01*
X710549Y132145D01*
X710440Y132157D01*
X710330Y132165D01*
X710221Y132169D01*
X710111Y132169D01*
X710002Y132165D01*
X709892Y132157D01*
X709783Y132145D01*
X709675Y132129D01*
X709567Y132110D01*
X709460Y132087D01*
X709354Y132060D01*
X709249Y132029D01*
X709145Y131994D01*
X709042Y131956D01*
X708941Y131914D01*
X708841Y131869D01*
X708743Y131819D01*
X708647Y131767D01*
X708552Y131711D01*
X708460Y131652D01*
X708370Y131589D01*
X708282Y131524D01*
X708197Y131455D01*
X708114Y131383D01*
X708034Y131309D01*
X707956Y131231D01*
X707882Y131151D01*
X707810Y131068D01*
X707741Y130983D01*
X707675Y130895D01*
X707613Y130805D01*
X707553Y130713D01*
X707497Y130619D01*
X707445Y130523D01*
X707396Y130425D01*
X707350Y130325D01*
X707308Y130224D01*
X707270Y130121D01*
X707235Y130017D01*
X707204Y129912D01*
X707177Y129806D01*
X707153Y129699D01*
X707134Y129591D01*
X707118Y129482D01*
X707106Y129373D01*
X707099Y129264D01*
X707095Y129155D01*
X707094Y129045D01*
X707098Y128935D01*
X707106Y128826D01*
X707118Y128717D01*
X707133Y128609D01*
X707152Y128501D01*
X707176Y128394D01*
X707203Y128287D01*
X707233Y128182D01*
X707268Y128078D01*
X707306Y127975D01*
X707348Y127874D01*
X707393Y127774D01*
X707442Y127676D01*
X707495Y127580D01*
X707550Y127486D01*
X707610Y127393D01*
X707672Y127303D01*
X707738Y127216D01*
X707806Y127130D01*
X707878Y127047D01*
X707952Y126967D01*
X708030Y126889D01*
X708110Y126814D01*
X708193Y126743D01*
X708278Y126674D01*
X708366Y126608D01*
X708456Y126545D01*
X708548Y126486D01*
X708642Y126430D01*
D17*
X653794Y94998D02*
X629154Y94998D01*
X629154Y139698D02*
X653794Y139698D01*
D14*
X510828Y142640D02*
X508000Y145469D01*
X505172Y142640D01*
X561740Y91728D02*
X564569Y88900D01*
X561740Y86072D01*
X454260Y91728D02*
X451431Y88900D01*
X454260Y86072D01*
X504464Y35867D02*
X511536Y35867D01*
D17*
X513093Y28796D02*
X513095Y28885D01*
X513101Y28973D01*
X513111Y29062D01*
X513125Y29149D01*
X513143Y29236D01*
X513164Y29322D01*
X513190Y29407D01*
X513219Y29491D01*
X513252Y29573D01*
X513289Y29654D01*
X513329Y29733D01*
X513373Y29811D01*
X513420Y29886D01*
X513471Y29959D01*
X513525Y30029D01*
X513581Y30097D01*
X513641Y30163D01*
X513704Y30226D01*
X513770Y30286D01*
X513838Y30342D01*
X513908Y30396D01*
X513981Y30447D01*
X514056Y30494D01*
X514134Y30538D01*
X514213Y30578D01*
X514294Y30615D01*
X514376Y30648D01*
X514460Y30677D01*
X514545Y30703D01*
X514631Y30724D01*
X514718Y30742D01*
X514805Y30756D01*
X514894Y30766D01*
X514982Y30772D01*
X515071Y30774D01*
X515160Y30772D01*
X515248Y30766D01*
X515337Y30756D01*
X515424Y30742D01*
X515511Y30724D01*
X515597Y30703D01*
X515682Y30677D01*
X515766Y30648D01*
X515848Y30615D01*
X515929Y30578D01*
X516008Y30538D01*
X516086Y30494D01*
X516161Y30447D01*
X516234Y30396D01*
X516304Y30342D01*
X516372Y30286D01*
X516438Y30226D01*
X516501Y30163D01*
X516561Y30097D01*
X516617Y30029D01*
X516671Y29959D01*
X516722Y29886D01*
X516769Y29811D01*
X516813Y29733D01*
X516853Y29654D01*
X516890Y29573D01*
X516923Y29491D01*
X516952Y29407D01*
X516978Y29322D01*
X516999Y29236D01*
X517017Y29149D01*
X517031Y29062D01*
X517041Y28973D01*
X517047Y28885D01*
X517049Y28796D01*
X517047Y28707D01*
X517041Y28619D01*
X517031Y28530D01*
X517017Y28443D01*
X516999Y28356D01*
X516978Y28270D01*
X516952Y28185D01*
X516923Y28101D01*
X516890Y28019D01*
X516853Y27938D01*
X516813Y27859D01*
X516769Y27781D01*
X516722Y27706D01*
X516671Y27633D01*
X516617Y27563D01*
X516561Y27495D01*
X516501Y27429D01*
X516438Y27366D01*
X516372Y27306D01*
X516304Y27250D01*
X516234Y27196D01*
X516161Y27145D01*
X516086Y27098D01*
X516008Y27054D01*
X515929Y27014D01*
X515848Y26977D01*
X515766Y26944D01*
X515682Y26915D01*
X515597Y26889D01*
X515511Y26868D01*
X515424Y26850D01*
X515337Y26836D01*
X515248Y26826D01*
X515160Y26820D01*
X515071Y26818D01*
X514982Y26820D01*
X514894Y26826D01*
X514805Y26836D01*
X514718Y26850D01*
X514631Y26868D01*
X514545Y26889D01*
X514460Y26915D01*
X514376Y26944D01*
X514294Y26977D01*
X514213Y27014D01*
X514134Y27054D01*
X514056Y27098D01*
X513981Y27145D01*
X513908Y27196D01*
X513838Y27250D01*
X513770Y27306D01*
X513704Y27366D01*
X513641Y27429D01*
X513581Y27495D01*
X513525Y27563D01*
X513471Y27633D01*
X513420Y27706D01*
X513373Y27781D01*
X513329Y27859D01*
X513289Y27938D01*
X513252Y28019D01*
X513219Y28101D01*
X513190Y28185D01*
X513164Y28270D01*
X513143Y28356D01*
X513125Y28443D01*
X513111Y28530D01*
X513101Y28619D01*
X513095Y28707D01*
X513093Y28796D01*
D15*
X356616Y121412D03*
D16*
X581756Y62436D02*
X581756Y56436D01*
X593756Y56436D02*
X593756Y62436D01*
D14*
X188940Y27360D02*
X188940Y167360D01*
X188940Y27360D02*
X126940Y27360D01*
X118940Y27360D01*
X118940Y167360D01*
X126940Y167360D01*
X188940Y167360D01*
X126940Y167360D02*
X126940Y27360D01*
D16*
X343916Y42418D02*
X356108Y42418D01*
X356108Y63246D02*
X353060Y63246D01*
X346964Y63246D01*
X343916Y63246D01*
X346964Y63246D02*
X346966Y63137D01*
X346972Y63029D01*
X346981Y62920D01*
X346995Y62812D01*
X347012Y62705D01*
X347034Y62598D01*
X347059Y62492D01*
X347087Y62387D01*
X347120Y62283D01*
X347156Y62181D01*
X347196Y62080D01*
X347239Y61980D01*
X347286Y61882D01*
X347337Y61785D01*
X347391Y61691D01*
X347448Y61598D01*
X347508Y61508D01*
X347572Y61419D01*
X347639Y61333D01*
X347708Y61250D01*
X347781Y61169D01*
X347857Y61091D01*
X347935Y61015D01*
X348016Y60942D01*
X348099Y60873D01*
X348185Y60806D01*
X348274Y60742D01*
X348364Y60682D01*
X348457Y60625D01*
X348551Y60571D01*
X348648Y60520D01*
X348746Y60473D01*
X348846Y60430D01*
X348947Y60390D01*
X349049Y60354D01*
X349153Y60321D01*
X349258Y60293D01*
X349364Y60268D01*
X349471Y60246D01*
X349578Y60229D01*
X349686Y60215D01*
X349795Y60206D01*
X349903Y60200D01*
X350012Y60198D01*
X350121Y60200D01*
X350229Y60206D01*
X350338Y60215D01*
X350446Y60229D01*
X350553Y60246D01*
X350660Y60268D01*
X350766Y60293D01*
X350871Y60321D01*
X350975Y60354D01*
X351077Y60390D01*
X351178Y60430D01*
X351278Y60473D01*
X351376Y60520D01*
X351473Y60571D01*
X351567Y60625D01*
X351660Y60682D01*
X351750Y60742D01*
X351839Y60806D01*
X351925Y60873D01*
X352008Y60942D01*
X352089Y61015D01*
X352167Y61091D01*
X352243Y61169D01*
X352316Y61250D01*
X352385Y61333D01*
X352452Y61419D01*
X352516Y61508D01*
X352576Y61598D01*
X352633Y61691D01*
X352687Y61785D01*
X352738Y61882D01*
X352785Y61980D01*
X352828Y62080D01*
X352868Y62181D01*
X352904Y62283D01*
X352937Y62387D01*
X352965Y62492D01*
X352990Y62598D01*
X353012Y62705D01*
X353029Y62812D01*
X353043Y62920D01*
X353052Y63029D01*
X353058Y63137D01*
X353060Y63246D01*
D18*
X335752Y63840D02*
X327787Y71806D01*
X335752Y71806D02*
X327787Y63840D01*
X327787Y67823D02*
X335752Y67823D01*
X331770Y63840D02*
X331770Y71806D01*
D19*
X305308Y72365D02*
X305308Y72923D01*
D14*
X266700Y57150D02*
X266700Y44450D01*
X260350Y38100D01*
X247650Y38100D02*
X241300Y44450D01*
X266700Y82550D02*
X260350Y88900D01*
X266700Y82550D02*
X266700Y69850D01*
X260350Y63500D01*
X247650Y63500D02*
X241300Y69850D01*
X241300Y82550D01*
X247650Y88900D01*
X260350Y63500D02*
X266700Y57150D01*
X247650Y63500D02*
X241300Y57150D01*
X241300Y44450D01*
X266700Y120650D02*
X266700Y133350D01*
X266700Y120650D02*
X260350Y114300D01*
X247650Y114300D02*
X241300Y120650D01*
X260350Y114300D02*
X266700Y107950D01*
X266700Y95250D01*
X260350Y88900D01*
X247650Y88900D02*
X241300Y95250D01*
X241300Y107950D01*
X247650Y114300D01*
X247650Y139700D02*
X260350Y139700D01*
X266700Y133350D01*
X247650Y139700D02*
X241300Y133350D01*
X241300Y120650D01*
X247650Y38100D02*
X260350Y38100D01*
X731520Y112776D02*
X731520Y124206D01*
X731520Y131826D01*
X755650Y131826D01*
X755650Y135636D01*
X756920Y135636D01*
X756920Y124206D01*
X756920Y112776D01*
X745490Y112776D01*
X731520Y112776D01*
X731520Y124206D02*
X737870Y130556D01*
X744220Y124206D01*
X756920Y124206D01*
X742950Y119126D02*
X742950Y114046D01*
X742950Y119126D02*
X745490Y119126D01*
X745490Y112776D01*
D20*
X304800Y45720D03*
X304800Y59436D03*
D14*
X746644Y40548D02*
X746644Y82548D01*
X757644Y93548D01*
X788644Y93548D02*
X799644Y82548D01*
X799644Y40548D01*
X767644Y40548D02*
X746644Y40548D01*
X778644Y40548D02*
X799644Y40548D01*
X767644Y93548D02*
X757644Y93548D01*
X778144Y93548D02*
X788644Y93548D01*
X768144Y91047D02*
X767552Y90924D01*
X766963Y90786D01*
X766378Y90634D01*
X765797Y90468D01*
X765220Y90288D01*
X764647Y90093D01*
X764080Y89885D01*
X763517Y89663D01*
X762961Y89427D01*
X762410Y89178D01*
X761865Y88915D01*
X761327Y88639D01*
X760796Y88350D01*
X760272Y88048D01*
X759756Y87734D01*
X759247Y87407D01*
X758747Y87068D01*
X758255Y86716D01*
X757772Y86353D01*
X757297Y85978D01*
X756832Y85591D01*
X756377Y85193D01*
X755932Y84784D01*
X755496Y84365D01*
X755071Y83935D01*
X754657Y83495D01*
X754253Y83044D01*
X753861Y82584D01*
X753480Y82115D01*
X753110Y81636D01*
X752753Y81149D01*
X752407Y80653D01*
X752074Y80148D01*
X751753Y79636D01*
X751444Y79116D01*
X751149Y78589D01*
X750866Y78054D01*
X750596Y77513D01*
X750340Y76965D01*
X750097Y76411D01*
X749868Y75852D01*
X749653Y75287D01*
X749451Y74717D01*
X749263Y74142D01*
X749090Y73563D01*
X748931Y72980D01*
X748785Y72393D01*
X748655Y71803D01*
X748539Y71209D01*
X748437Y70613D01*
X748350Y70015D01*
X748277Y69415D01*
X748219Y68813D01*
X748176Y68210D01*
X748148Y67606D01*
X748134Y67001D01*
X748135Y66397D01*
X748151Y65792D01*
X748182Y65188D01*
X748227Y64585D01*
X748288Y63984D01*
X748362Y63384D01*
X748452Y62786D01*
X748556Y62190D01*
X748674Y61597D01*
X748807Y61008D01*
X748954Y60421D01*
X749116Y59838D01*
X749292Y59260D01*
X749482Y58686D01*
X749685Y58117D01*
X749903Y57553D01*
X750134Y56994D01*
X750379Y56441D01*
X750637Y55894D01*
X750909Y55354D01*
X751194Y54821D01*
X751491Y54295D01*
X751802Y53776D01*
X752125Y53265D01*
X752460Y52762D01*
X752808Y52267D01*
X753167Y51781D01*
X753539Y51303D01*
X753921Y50835D01*
X754315Y50377D01*
X754721Y49928D01*
X755137Y49490D01*
X755563Y49061D01*
X756000Y48643D01*
X756447Y48236D01*
X756904Y47840D01*
X757371Y47455D01*
X757846Y47082D01*
X758331Y46720D01*
X758824Y46371D01*
X759326Y46033D01*
X759836Y45708D01*
X760353Y45396D01*
X760878Y45096D01*
X761410Y44809D01*
X761949Y44535D01*
X762495Y44274D01*
X763047Y44027D01*
X763604Y43794D01*
X764168Y43574D01*
X764736Y43367D01*
X765309Y43175D01*
X765887Y42997D01*
X766469Y42833D01*
X767055Y42683D01*
X767644Y42548D01*
X778644Y42548D02*
X779237Y42695D01*
X779826Y42857D01*
X780411Y43032D01*
X780991Y43222D01*
X781567Y43426D01*
X782138Y43644D01*
X782703Y43876D01*
X783262Y44121D01*
X783815Y44380D01*
X784362Y44653D01*
X784902Y44938D01*
X785435Y45237D01*
X785960Y45548D01*
X786478Y45872D01*
X786987Y46209D01*
X787489Y46558D01*
X787981Y46919D01*
X788465Y47292D01*
X788940Y47676D01*
X789405Y48072D01*
X789860Y48479D01*
X790305Y48897D01*
X790740Y49326D01*
X791165Y49766D01*
X791578Y50215D01*
X791981Y50674D01*
X792372Y51143D01*
X792752Y51622D01*
X793119Y52109D01*
X793475Y52606D01*
X793819Y53110D01*
X794151Y53624D01*
X794470Y54144D01*
X794776Y54673D01*
X795069Y55209D01*
X795349Y55752D01*
X795616Y56301D01*
X795869Y56857D01*
X796109Y57419D01*
X796334Y57986D01*
X796547Y58559D01*
X796745Y59137D01*
X796929Y59719D01*
X797098Y60306D01*
X797254Y60896D01*
X797395Y61491D01*
X797522Y62088D01*
X797634Y62689D01*
X797731Y63292D01*
X797814Y63897D01*
X797881Y64504D01*
X797935Y65112D01*
X797973Y65722D01*
X797996Y66332D01*
X798005Y66943D01*
X797999Y67554D01*
X797978Y68164D01*
X797942Y68774D01*
X797891Y69382D01*
X797825Y69990D01*
X797745Y70595D01*
X797650Y71198D01*
X797541Y71799D01*
X797416Y72397D01*
X797278Y72992D01*
X797124Y73583D01*
X796957Y74171D01*
X796775Y74754D01*
X796579Y75332D01*
X796370Y75906D01*
X796146Y76474D01*
X795908Y77037D01*
X795657Y77594D01*
X795393Y78144D01*
X795115Y78688D01*
X794824Y79225D01*
X794520Y79755D01*
X794203Y80277D01*
X793873Y80791D01*
X793532Y81298D01*
X793178Y81795D01*
X792812Y82284D01*
X792434Y82764D01*
X792044Y83235D01*
X791644Y83696D01*
X791232Y84147D01*
X790809Y84588D01*
X790376Y85018D01*
X789932Y85438D01*
X789479Y85847D01*
X789015Y86245D01*
X788542Y86631D01*
X788060Y87006D01*
X787569Y87369D01*
X787069Y87720D01*
X786560Y88058D01*
X786044Y88385D01*
X785520Y88698D01*
X784988Y88999D01*
X784449Y89286D01*
X783904Y89561D01*
X783352Y89822D01*
X782793Y90069D01*
X782229Y90303D01*
X781659Y90524D01*
X781084Y90730D01*
X780505Y90922D01*
X779920Y91100D01*
X779332Y91264D01*
X778740Y91413D01*
X778144Y91548D01*
D17*
X75184Y44196D02*
X184Y44196D01*
X184Y134196D01*
X75184Y134196D01*
X75184Y44196D01*
X2881Y29696D02*
X2883Y29781D01*
X2889Y29865D01*
X2899Y29949D01*
X2913Y30032D01*
X2930Y30115D01*
X2952Y30197D01*
X2977Y30277D01*
X3006Y30357D01*
X3039Y30434D01*
X3076Y30511D01*
X3116Y30585D01*
X3159Y30658D01*
X3206Y30728D01*
X3256Y30796D01*
X3309Y30862D01*
X3365Y30925D01*
X3424Y30986D01*
X3486Y31043D01*
X3550Y31098D01*
X3617Y31150D01*
X3687Y31198D01*
X3758Y31243D01*
X3832Y31285D01*
X3907Y31323D01*
X3984Y31358D01*
X4063Y31389D01*
X4143Y31416D01*
X4224Y31439D01*
X4306Y31459D01*
X4389Y31475D01*
X4473Y31487D01*
X4557Y31495D01*
X4642Y31499D01*
X4726Y31499D01*
X4811Y31495D01*
X4895Y31487D01*
X4979Y31475D01*
X5062Y31459D01*
X5144Y31439D01*
X5225Y31416D01*
X5305Y31389D01*
X5384Y31358D01*
X5461Y31323D01*
X5536Y31285D01*
X5610Y31243D01*
X5681Y31198D01*
X5751Y31150D01*
X5818Y31098D01*
X5882Y31043D01*
X5944Y30986D01*
X6003Y30925D01*
X6059Y30862D01*
X6112Y30796D01*
X6162Y30728D01*
X6209Y30658D01*
X6252Y30585D01*
X6292Y30511D01*
X6329Y30434D01*
X6362Y30357D01*
X6391Y30277D01*
X6416Y30197D01*
X6438Y30115D01*
X6455Y30032D01*
X6469Y29949D01*
X6479Y29865D01*
X6485Y29781D01*
X6487Y29696D01*
X6485Y29611D01*
X6479Y29527D01*
X6469Y29443D01*
X6455Y29360D01*
X6438Y29277D01*
X6416Y29195D01*
X6391Y29115D01*
X6362Y29035D01*
X6329Y28958D01*
X6292Y28881D01*
X6252Y28807D01*
X6209Y28734D01*
X6162Y28664D01*
X6112Y28596D01*
X6059Y28530D01*
X6003Y28467D01*
X5944Y28406D01*
X5882Y28349D01*
X5818Y28294D01*
X5751Y28242D01*
X5681Y28194D01*
X5610Y28149D01*
X5536Y28107D01*
X5461Y28069D01*
X5384Y28034D01*
X5305Y28003D01*
X5225Y27976D01*
X5144Y27953D01*
X5062Y27933D01*
X4979Y27917D01*
X4895Y27905D01*
X4811Y27897D01*
X4726Y27893D01*
X4642Y27893D01*
X4557Y27897D01*
X4473Y27905D01*
X4389Y27917D01*
X4306Y27933D01*
X4224Y27953D01*
X4143Y27976D01*
X4063Y28003D01*
X3984Y28034D01*
X3907Y28069D01*
X3832Y28107D01*
X3758Y28149D01*
X3687Y28194D01*
X3617Y28242D01*
X3550Y28294D01*
X3486Y28349D01*
X3424Y28406D01*
X3365Y28467D01*
X3309Y28530D01*
X3256Y28596D01*
X3206Y28664D01*
X3159Y28734D01*
X3116Y28807D01*
X3076Y28881D01*
X3039Y28958D01*
X3006Y29035D01*
X2977Y29115D01*
X2952Y29195D01*
X2930Y29277D01*
X2913Y29360D01*
X2899Y29443D01*
X2889Y29527D01*
X2883Y29611D01*
X2881Y29696D01*
D21*
X818032Y14427D02*
X827852Y14427D01*
X827852Y14356D01*
X817852Y14356D02*
X817852Y24356D01*
X817852Y94356D02*
X827852Y94356D01*
X817852Y94356D02*
X817852Y84356D01*
X857852Y14356D02*
X867852Y14356D01*
X867852Y94356D02*
X857852Y94356D01*
D14*
X847308Y104472D02*
X847308Y174472D01*
X847308Y104472D02*
X785308Y104472D01*
X777308Y104472D01*
X777308Y174472D01*
X785308Y174472D01*
X847308Y174472D01*
X785308Y174472D02*
X785308Y104472D01*
X348616Y94884D02*
X342616Y94884D01*
X342616Y86884D01*
X364616Y94884D02*
X370616Y94884D01*
X370616Y86884D01*
D15*
X47752Y157480D03*
D14*
X17956Y157480D02*
X17956Y152880D01*
X17956Y157480D02*
X17956Y162080D01*
X17956Y157480D02*
X14856Y155142D01*
X17802Y157734D02*
X14856Y159664D01*
D19*
X23876Y24155D02*
X23876Y23597D01*
D16*
X238808Y170084D02*
X244808Y170084D01*
X244808Y158084D02*
X238808Y158084D01*
D17*
X412068Y93156D02*
X422068Y93156D01*
X422068Y118156D02*
X412068Y118156D01*
X401068Y117656D02*
X401068Y93156D01*
X433068Y93156D02*
X433068Y118156D01*
X397654Y85656D02*
X397656Y85731D01*
X397662Y85805D01*
X397672Y85879D01*
X397685Y85952D01*
X397703Y86025D01*
X397724Y86096D01*
X397749Y86167D01*
X397778Y86236D01*
X397811Y86303D01*
X397847Y86368D01*
X397886Y86432D01*
X397928Y86493D01*
X397974Y86552D01*
X398023Y86609D01*
X398075Y86662D01*
X398129Y86713D01*
X398186Y86762D01*
X398246Y86806D01*
X398308Y86848D01*
X398372Y86887D01*
X398438Y86922D01*
X398505Y86953D01*
X398575Y86981D01*
X398645Y87005D01*
X398717Y87026D01*
X398790Y87042D01*
X398863Y87055D01*
X398938Y87064D01*
X399012Y87069D01*
X399087Y87070D01*
X399161Y87067D01*
X399236Y87060D01*
X399309Y87049D01*
X399383Y87035D01*
X399455Y87016D01*
X399526Y86994D01*
X399596Y86968D01*
X399665Y86938D01*
X399731Y86905D01*
X399796Y86868D01*
X399859Y86828D01*
X399920Y86784D01*
X399978Y86738D01*
X400034Y86688D01*
X400087Y86636D01*
X400138Y86581D01*
X400185Y86523D01*
X400229Y86463D01*
X400270Y86400D01*
X400308Y86336D01*
X400342Y86270D01*
X400373Y86201D01*
X400400Y86132D01*
X400423Y86061D01*
X400442Y85989D01*
X400458Y85916D01*
X400470Y85842D01*
X400478Y85768D01*
X400482Y85693D01*
X400482Y85619D01*
X400478Y85544D01*
X400470Y85470D01*
X400458Y85396D01*
X400442Y85323D01*
X400423Y85251D01*
X400400Y85180D01*
X400373Y85111D01*
X400342Y85042D01*
X400308Y84976D01*
X400270Y84912D01*
X400229Y84849D01*
X400185Y84789D01*
X400138Y84731D01*
X400087Y84676D01*
X400034Y84624D01*
X399978Y84574D01*
X399920Y84528D01*
X399859Y84484D01*
X399796Y84444D01*
X399731Y84407D01*
X399665Y84374D01*
X399596Y84344D01*
X399526Y84318D01*
X399455Y84296D01*
X399383Y84277D01*
X399309Y84263D01*
X399236Y84252D01*
X399161Y84245D01*
X399087Y84242D01*
X399012Y84243D01*
X398938Y84248D01*
X398863Y84257D01*
X398790Y84270D01*
X398717Y84286D01*
X398645Y84307D01*
X398575Y84331D01*
X398505Y84359D01*
X398438Y84390D01*
X398372Y84425D01*
X398308Y84464D01*
X398246Y84506D01*
X398186Y84550D01*
X398129Y84599D01*
X398075Y84650D01*
X398023Y84703D01*
X397974Y84760D01*
X397928Y84819D01*
X397886Y84880D01*
X397847Y84944D01*
X397811Y85009D01*
X397778Y85076D01*
X397749Y85145D01*
X397724Y85216D01*
X397703Y85287D01*
X397685Y85360D01*
X397672Y85433D01*
X397662Y85507D01*
X397656Y85581D01*
X397654Y85656D01*
D22*
X289388Y120428D02*
X289388Y124378D01*
X331388Y124378D02*
X331388Y120478D01*
X331688Y108328D02*
X289638Y108328D01*
X289538Y136578D02*
X331588Y136578D01*
X302138Y125778D02*
X300388Y122428D01*
X302138Y125778D02*
X305388Y127428D01*
X315388Y127428D01*
X318688Y125928D01*
X320388Y122428D01*
X318788Y119028D01*
X315388Y117428D01*
X305388Y117428D01*
X302038Y119378D01*
X300388Y122428D01*
X386416Y55290D02*
X386416Y51340D01*
X428416Y51390D02*
X428416Y55290D01*
X428716Y39240D02*
X386666Y39240D01*
X386566Y67490D02*
X428616Y67490D01*
X399166Y56690D02*
X397416Y53340D01*
X399166Y56690D02*
X402416Y58340D01*
X412416Y58340D01*
X415716Y56840D01*
X417416Y53340D01*
X415816Y49940D01*
X412416Y48340D01*
X402416Y48340D01*
X399066Y50290D01*
X397416Y53340D01*
M02*
