%
M48
M72
T01C0.01200
T02C0.01300
T03C0.02756
T04C0.03346
T05C0.03543
T06C0.04000
T07C0.04724
T08C0.12500
%
T01
X26100Y26400
X27500Y44800
X45900Y45800
X58100Y55400
X42700Y71000
X42700Y79800
X31900Y71200
X27100Y70200
X26100Y100800
X27500Y119200
X45900Y120200
X58100Y129800
X42700Y145400
X42700Y154200
X31900Y145600
X27100Y144600
X26100Y175200
X27500Y193600
X45900Y194600
X58100Y204200
X61900Y185600
X67900Y185200
X77100Y186600
X93900Y177000
X98100Y177000
X109100Y178400
X127500Y149400
X146700Y135200
X156300Y122600
X156500Y116400
X152100Y115600
X172100Y110400
X181300Y107800
X187900Y107600
X199300Y108000
X198500Y116000
X202100Y116000
X207700Y122800
X211100Y125000
X213900Y122400
X216700Y119000
X216700Y114000
X221100Y112600
X223300Y117600
X229300Y124000
X232900Y129400
X229900Y132200
X235900Y126000
X238500Y122200
X246500Y122600
X248500Y115400
X249700Y111600
X257500Y118600
X258100Y127000
X263300Y126200
X262900Y138200
X253500Y139800
X249300Y141400
X244500Y141400
X236100Y139600
X221100Y133200
X217500Y131200
X214100Y128600
X204100Y130600
X199500Y133200
X199700Y126400
X196500Y123000
X187900Y121400
X172300Y121400
X167534Y139600
X168900Y143400
X181300Y182200
X187900Y182000
X199300Y182400
X198500Y190400
X202100Y190400
X207700Y197200
X211100Y199400
X213900Y196800
X216700Y193400
X216700Y188400
X221100Y187000
X223300Y192000
X229300Y198400
X232900Y203800
X229900Y206600
X235900Y200400
X238500Y196600
X246500Y197000
X248500Y189800
X249700Y186000
X257500Y193000
X258100Y201400
X263300Y200600
X262900Y212600
X253500Y214200
X249300Y215800
X244500Y215800
X236100Y214000
X221100Y207600
X217500Y205600
X214100Y203000
X204100Y205000
X205300Y212600
X199500Y207600
X199700Y200800
X196500Y197400
X187900Y195800
X172300Y195800
X172100Y184800
X156500Y190800
X152100Y190000
X156300Y197000
X146700Y209600
X127500Y223800
X109100Y252800
X98100Y251400
X93900Y251400
X77100Y261000
X67900Y259600
X61900Y260000
X45900Y269000
X58100Y278600
X42700Y294200
X42700Y303000
X31900Y294400
X27100Y293400
X27500Y268000
X26100Y249600
X42700Y228600
X42700Y219800
X31900Y220000
X27100Y219000
X26100Y324000
X27500Y342400
X45900Y343400
X58100Y353000
X61900Y334400
X67900Y334000
X77100Y335400
X93900Y325800
X98100Y325800
X109100Y327200
X127500Y298200
X146700Y284000
X156300Y271400
X156500Y265200
X152100Y264400
X172100Y259200
X172300Y270200
X181300Y256600
X187900Y256400
X199300Y256800
X198500Y264800
X202100Y264800
X207700Y271600
X211100Y273800
X213900Y271200
X216700Y267800
X216700Y262800
X221100Y261400
X223300Y266400
X229300Y272800
X232900Y278200
X229900Y281000
X235900Y274800
X238500Y271000
X246500Y271400
X248500Y264200
X249700Y260400
X257500Y267400
X263300Y275000
X258100Y275800
X262900Y287000
X253500Y288600
X249300Y290200
X244500Y290200
X236100Y288400
X221100Y282000
X217500Y280000
X214100Y277400
X204100Y279400
X199500Y282000
X199700Y275200
X196500Y271800
X187900Y270200
X205300Y287000
X231700Y263800
X215100Y251800
X260100Y258000
X275500Y258000
X280300Y259800
X280300Y263200
X281300Y269000
X280300Y274800
X286100Y274800
X293900Y267600
X294100Y261000
X289900Y256400
X301500Y260000
X288900Y288400
X280300Y290400
X289900Y330800
X294100Y335400
X293900Y342000
X286100Y349200
X280300Y349200
X281300Y343400
X280300Y337600
X280300Y334200
X275500Y332400
X263300Y349400
X258100Y350200
X257500Y341800
X260100Y332400
X249700Y334800
X248500Y338600
X246500Y345800
X238500Y345400
X235900Y349200
X232900Y352600
X229900Y355400
X229300Y347200
X223300Y340800
X221100Y335800
X216700Y337200
X216700Y342200
X213900Y345600
X211100Y348200
X207700Y346000
X204100Y353800
X199500Y356400
X199700Y349600
X196500Y346200
X198500Y339200
X202100Y339200
X199300Y331200
X187900Y330800
X181300Y331000
X172100Y333600
X172300Y344600
X187900Y344600
X205300Y361400
X214100Y351800
X217500Y354400
X221100Y356400
X236100Y362800
X244500Y364600
X249300Y364600
X253500Y363000
X262900Y361400
X280300Y364800
X288900Y362800
X301500Y334400
X336300Y331000
X339900Y332600
X339300Y336400
X338300Y342600
X338300Y268200
X339300Y262000
X339900Y258200
X336300Y256600
X288900Y214000
X280300Y216000
X280300Y200400
X286100Y200400
X281300Y194600
X280300Y188800
X280300Y185400
X275500Y183600
X289900Y182000
X294100Y186600
X293900Y193200
X301500Y185600
X336300Y182200
X339900Y183800
X339300Y187600
X338300Y193800
X288900Y139600
X280300Y141600
X280300Y126000
X286100Y126000
X281300Y120200
X280300Y114400
X280300Y111000
X275500Y109200
X289900Y107600
X294100Y112200
X293900Y118800
X301500Y111200
X336300Y107800
X339900Y109400
X339300Y113200
X338300Y119400
X288900Y65200
X280300Y67200
X280300Y51600
X286100Y51600
X281300Y45800
X280300Y40000
X280300Y36600
X275500Y34800
X289900Y33200
X294100Y37800
X293900Y44400
X301500Y36800
X336300Y33400
X339900Y35000
X339300Y38800
X338300Y45000
X263300Y51800
X258100Y52600
X257500Y44200
X260100Y34800
X249700Y37200
X248500Y41000
X246500Y48200
X238500Y47800
X235900Y51600
X232900Y55000
X229900Y57800
X229300Y49600
X223300Y43200
X221100Y38200
X216700Y39600
X216700Y44600
X213900Y48000
X211100Y50600
X207700Y48400
X214100Y54200
X217500Y56800
X221100Y58800
X236100Y65200
X244500Y67000
X249300Y67000
X253500Y65400
X262900Y63800
X231700Y40600
X215100Y28600
X202100Y41600
X198500Y41600
X199300Y33600
X187900Y33200
X181300Y33400
X172100Y36000
X172300Y47000
X187900Y47000
X196500Y48600
X199700Y52000
X204100Y56200
X199500Y58800
X205300Y63800
X215100Y103000
X231700Y115000
X260100Y109200
X205300Y138200
X215100Y177400
X231700Y189400
X260100Y183600
X168900Y217800
X167534Y214000
X167534Y288400
X168900Y292200
X156500Y339600
X152100Y338800
X156300Y345800
X146700Y358400
X127500Y372600
X167534Y362800
X168900Y366600
X215100Y326200
X231700Y338200
X42700Y368600
X42700Y377400
X31900Y368800
X27100Y367800
X61900Y111200
X67900Y110800
X77100Y112200
X93900Y102600
X98100Y102600
X109100Y104000
X127500Y75000
X146700Y60800
X156300Y48200
X156500Y42000
X152100Y41200
X167534Y65200
X168900Y69000
X109100Y29600
X98100Y28200
X93900Y28200
X77100Y37800
X67900Y36400
X61900Y36800
T02
X109300Y70800
X109300Y145200
X109300Y219600
X109300Y294000
X109300Y368400
T03
X338900Y325800
X338900Y251400
X338900Y177000
X338900Y102600
X338900Y28200
T04
X347239Y27120
X347239Y42080
X347239Y101520
X347239Y116480
X347239Y175920
X347239Y190880
X347239Y250320
X347239Y265280
X347239Y324720
X347239Y339680
T05
X332100Y354000
X332100Y279600
X332100Y205200
X332100Y130800
X332100Y56400
T06
X323900Y78200
X313900Y78200
X303900Y78200
X293900Y78200
X283900Y78200
X273900Y78200
X263900Y78200
X253900Y78200
X243900Y78200
X233900Y78200
X223900Y78200
X213900Y78200
X203900Y78200
X193900Y78200
X183900Y78200
X173900Y78200
X163900Y78200
X153900Y78200
X143900Y78200
X133900Y78200
X123900Y63200
X123900Y53200
X123900Y43200
X123900Y33200
X123900Y18200
X113900Y18200
X103900Y18200
X93900Y18200
X83900Y18200
X133900Y18200
X143900Y18200
X153900Y18200
X163900Y18200
X173900Y18200
X183900Y18200
X193900Y18200
X203900Y18200
X213900Y18200
X223900Y18200
X233900Y18200
X243900Y18200
X253900Y18200
X263900Y18200
X273900Y18200
X283900Y18200
X293900Y18200
X303900Y18200
X313900Y18200
X323900Y18200
X323900Y92600
X313900Y92600
X303900Y92600
X293900Y92600
X283900Y92600
X273900Y92600
X263900Y92600
X253900Y92600
X243900Y92600
X233900Y92600
X223900Y92600
X213900Y92600
X203900Y92600
X193900Y92600
X183900Y92600
X173900Y92600
X163900Y92600
X153900Y92600
X143900Y92600
X133900Y92600
X123900Y92600
X113900Y92600
X103900Y92600
X93900Y92600
X83900Y92600
X123900Y107600
X123900Y117600
X123900Y127600
X123900Y137600
X133900Y152600
X143900Y152600
X153900Y152600
X163900Y152600
X173900Y152600
X183900Y152600
X193900Y152600
X203900Y152600
X213900Y152600
X223900Y152600
X233900Y152600
X243900Y152600
X253900Y152600
X263900Y152600
X273900Y152600
X283900Y152600
X293900Y152600
X303900Y152600
X313900Y152600
X323900Y152600
X323900Y167000
X313900Y167000
X303900Y167000
X293900Y167000
X283900Y167000
X273900Y167000
X263900Y167000
X253900Y167000
X243900Y167000
X233900Y167000
X223900Y167000
X213900Y167000
X203900Y167000
X193900Y167000
X183900Y167000
X173900Y167000
X163900Y167000
X153900Y167000
X143900Y167000
X133900Y167000
X123900Y167000
X113900Y167000
X103900Y167000
X93900Y167000
X83900Y167000
X123900Y182000
X123900Y192000
X123900Y202000
X123900Y212000
X133900Y227000
X143900Y227000
X153900Y227000
X163900Y227000
X173900Y227000
X183900Y227000
X193900Y227000
X203900Y227000
X213900Y227000
X223900Y227000
X233900Y227000
X243900Y227000
X253900Y227000
X263900Y227000
X273900Y227000
X283900Y227000
X293900Y227000
X303900Y227000
X313900Y227000
X323900Y227000
X323900Y241400
X313900Y241400
X303900Y241400
X293900Y241400
X283900Y241400
X273900Y241400
X263900Y241400
X253900Y241400
X243900Y241400
X233900Y241400
X223900Y241400
X213900Y241400
X203900Y241400
X193900Y241400
X183900Y241400
X173900Y241400
X163900Y241400
X153900Y241400
X143900Y241400
X133900Y241400
X123900Y241400
X113900Y241400
X103900Y241400
X93900Y241400
X83900Y241400
X123900Y256400
X123900Y266400
X123900Y276400
X123900Y286400
X133900Y301400
X143900Y301400
X153900Y301400
X163900Y301400
X173900Y301400
X183900Y301400
X193900Y301400
X203900Y301400
X213900Y301400
X223900Y301400
X233900Y301400
X243900Y301400
X253900Y301400
X263900Y301400
X273900Y301400
X283900Y301400
X293900Y301400
X303900Y301400
X313900Y301400
X323900Y301400
X323900Y315800
X313900Y315800
X303900Y315800
X293900Y315800
X283900Y315800
X273900Y315800
X263900Y315800
X253900Y315800
X243900Y315800
X233900Y315800
X223900Y315800
X213900Y315800
X203900Y315800
X193900Y315800
X183900Y315800
X173900Y315800
X163900Y315800
X153900Y315800
X143900Y315800
X133900Y315800
X123900Y315800
X113900Y315800
X103900Y315800
X93900Y315800
X83900Y315800
X123900Y330800
X123900Y340800
X123900Y350800
X123900Y360800
X133900Y375800
X143900Y375800
X153900Y375800
X163900Y375800
X173900Y375800
X183900Y375800
X193900Y375800
X203900Y375800
X213900Y375800
X223900Y375800
X233900Y375800
X243900Y375800
X253900Y375800
X263900Y375800
X273900Y375800
X283900Y375800
X293900Y375800
X303900Y375800
X313900Y375800
X323900Y375800
T07
X344100Y372600
X344100Y358820
X344100Y298200
X344100Y284420
X344100Y223800
X344100Y210020
X344100Y149400
X344100Y135620
X344100Y75000
X344100Y61220
X84900Y58420
X84900Y72200
X84900Y44641
X84900Y30861
X84900Y105261
X84900Y119041
X84900Y132820
X84900Y146600
X84900Y179661
X84900Y193441
X84900Y207220
X84900Y221000
X84900Y254061
X84900Y267841
X84900Y281620
X84900Y295400
X84900Y328461
X84900Y342241
X84900Y356020
X84900Y369800
T08
X108900Y345800
X108900Y271400
X108900Y197000
X108900Y122600
X108900Y48200
X303600Y48200
X303600Y122600
X303600Y197000
X303600Y271400
X303600Y345800
M30
