G75*
%MOIN*%
%OFA0B0*%
%FSLAX25Y25*%
%IPPOS*%
%LPD*%
%AMOC8*
5,1,8,0,0,1.08239X$1,22.5*
%
%ADD10C,0.00000*%
%ADD11C,0.00200*%
%ADD12R,0.04331X0.03937*%
%ADD13R,0.03937X0.04331*%
%ADD14R,0.03150X0.03150*%
%ADD15R,0.04724X0.03150*%
%ADD16R,0.05512X0.03150*%
%ADD17R,0.08661X0.07087*%
%ADD18R,0.03150X0.01378*%
%ADD19R,0.04200X0.01000*%
%ADD20R,0.02559X0.08661*%
%ADD21R,0.02756X0.05906*%
%ADD22R,0.05906X0.02756*%
%ADD23R,0.05709X0.01575*%
%ADD24R,0.05906X0.07087*%
%ADD25R,0.03150X0.03543*%
%ADD26R,0.03150X0.04724*%
%ADD27R,0.03543X0.03937*%
D10*
X0011100Y0007400D02*
X0016600Y0010500D01*
X0015800Y0009200D01*
X0015100Y0010500D02*
X0016600Y0010500D01*
X0016900Y0011000D02*
X0376300Y0011000D01*
X0363900Y0013200D02*
X0023900Y0013200D01*
X0023900Y0083200D01*
X0363900Y0083200D01*
X0363900Y0013200D01*
X0363900Y0001000D02*
X0363900Y0394701D01*
X0023900Y0394701D01*
X0023900Y0001000D01*
X0363900Y0001000D01*
X0345566Y0027120D02*
X0345568Y0027201D01*
X0345574Y0027283D01*
X0345584Y0027364D01*
X0345598Y0027444D01*
X0345615Y0027523D01*
X0345637Y0027602D01*
X0345662Y0027679D01*
X0345691Y0027756D01*
X0345724Y0027830D01*
X0345761Y0027903D01*
X0345800Y0027974D01*
X0345844Y0028043D01*
X0345890Y0028110D01*
X0345940Y0028174D01*
X0345993Y0028236D01*
X0346049Y0028296D01*
X0346107Y0028352D01*
X0346169Y0028406D01*
X0346233Y0028457D01*
X0346299Y0028504D01*
X0346367Y0028548D01*
X0346438Y0028589D01*
X0346510Y0028626D01*
X0346585Y0028660D01*
X0346660Y0028690D01*
X0346738Y0028716D01*
X0346816Y0028739D01*
X0346895Y0028757D01*
X0346975Y0028772D01*
X0347056Y0028783D01*
X0347137Y0028790D01*
X0347219Y0028793D01*
X0347300Y0028792D01*
X0347381Y0028787D01*
X0347462Y0028778D01*
X0347543Y0028765D01*
X0347623Y0028748D01*
X0347701Y0028728D01*
X0347779Y0028703D01*
X0347856Y0028675D01*
X0347931Y0028643D01*
X0348004Y0028608D01*
X0348075Y0028569D01*
X0348145Y0028526D01*
X0348212Y0028481D01*
X0348278Y0028432D01*
X0348340Y0028380D01*
X0348400Y0028324D01*
X0348457Y0028266D01*
X0348512Y0028206D01*
X0348563Y0028142D01*
X0348611Y0028077D01*
X0348656Y0028009D01*
X0348698Y0027939D01*
X0348736Y0027867D01*
X0348771Y0027793D01*
X0348802Y0027718D01*
X0348829Y0027641D01*
X0348852Y0027563D01*
X0348872Y0027484D01*
X0348888Y0027404D01*
X0348900Y0027323D01*
X0348908Y0027242D01*
X0348912Y0027161D01*
X0348912Y0027079D01*
X0348908Y0026998D01*
X0348900Y0026917D01*
X0348888Y0026836D01*
X0348872Y0026756D01*
X0348852Y0026677D01*
X0348829Y0026599D01*
X0348802Y0026522D01*
X0348771Y0026447D01*
X0348736Y0026373D01*
X0348698Y0026301D01*
X0348656Y0026231D01*
X0348611Y0026163D01*
X0348563Y0026098D01*
X0348512Y0026034D01*
X0348457Y0025974D01*
X0348400Y0025916D01*
X0348340Y0025860D01*
X0348278Y0025808D01*
X0348212Y0025759D01*
X0348145Y0025714D01*
X0348076Y0025671D01*
X0348004Y0025632D01*
X0347931Y0025597D01*
X0347856Y0025565D01*
X0347779Y0025537D01*
X0347701Y0025512D01*
X0347623Y0025492D01*
X0347543Y0025475D01*
X0347462Y0025462D01*
X0347381Y0025453D01*
X0347300Y0025448D01*
X0347219Y0025447D01*
X0347137Y0025450D01*
X0347056Y0025457D01*
X0346975Y0025468D01*
X0346895Y0025483D01*
X0346816Y0025501D01*
X0346738Y0025524D01*
X0346660Y0025550D01*
X0346585Y0025580D01*
X0346510Y0025614D01*
X0346438Y0025651D01*
X0346367Y0025692D01*
X0346299Y0025736D01*
X0346233Y0025783D01*
X0346169Y0025834D01*
X0346107Y0025888D01*
X0346049Y0025944D01*
X0345993Y0026004D01*
X0345940Y0026066D01*
X0345890Y0026130D01*
X0345844Y0026197D01*
X0345800Y0026266D01*
X0345761Y0026337D01*
X0345724Y0026410D01*
X0345691Y0026484D01*
X0345662Y0026561D01*
X0345637Y0026638D01*
X0345615Y0026717D01*
X0345598Y0026796D01*
X0345584Y0026876D01*
X0345574Y0026957D01*
X0345568Y0027039D01*
X0345566Y0027120D01*
X0345566Y0042080D02*
X0345568Y0042161D01*
X0345574Y0042243D01*
X0345584Y0042324D01*
X0345598Y0042404D01*
X0345615Y0042483D01*
X0345637Y0042562D01*
X0345662Y0042639D01*
X0345691Y0042716D01*
X0345724Y0042790D01*
X0345761Y0042863D01*
X0345800Y0042934D01*
X0345844Y0043003D01*
X0345890Y0043070D01*
X0345940Y0043134D01*
X0345993Y0043196D01*
X0346049Y0043256D01*
X0346107Y0043312D01*
X0346169Y0043366D01*
X0346233Y0043417D01*
X0346299Y0043464D01*
X0346367Y0043508D01*
X0346438Y0043549D01*
X0346510Y0043586D01*
X0346585Y0043620D01*
X0346660Y0043650D01*
X0346738Y0043676D01*
X0346816Y0043699D01*
X0346895Y0043717D01*
X0346975Y0043732D01*
X0347056Y0043743D01*
X0347137Y0043750D01*
X0347219Y0043753D01*
X0347300Y0043752D01*
X0347381Y0043747D01*
X0347462Y0043738D01*
X0347543Y0043725D01*
X0347623Y0043708D01*
X0347701Y0043688D01*
X0347779Y0043663D01*
X0347856Y0043635D01*
X0347931Y0043603D01*
X0348004Y0043568D01*
X0348075Y0043529D01*
X0348145Y0043486D01*
X0348212Y0043441D01*
X0348278Y0043392D01*
X0348340Y0043340D01*
X0348400Y0043284D01*
X0348457Y0043226D01*
X0348512Y0043166D01*
X0348563Y0043102D01*
X0348611Y0043037D01*
X0348656Y0042969D01*
X0348698Y0042899D01*
X0348736Y0042827D01*
X0348771Y0042753D01*
X0348802Y0042678D01*
X0348829Y0042601D01*
X0348852Y0042523D01*
X0348872Y0042444D01*
X0348888Y0042364D01*
X0348900Y0042283D01*
X0348908Y0042202D01*
X0348912Y0042121D01*
X0348912Y0042039D01*
X0348908Y0041958D01*
X0348900Y0041877D01*
X0348888Y0041796D01*
X0348872Y0041716D01*
X0348852Y0041637D01*
X0348829Y0041559D01*
X0348802Y0041482D01*
X0348771Y0041407D01*
X0348736Y0041333D01*
X0348698Y0041261D01*
X0348656Y0041191D01*
X0348611Y0041123D01*
X0348563Y0041058D01*
X0348512Y0040994D01*
X0348457Y0040934D01*
X0348400Y0040876D01*
X0348340Y0040820D01*
X0348278Y0040768D01*
X0348212Y0040719D01*
X0348145Y0040674D01*
X0348076Y0040631D01*
X0348004Y0040592D01*
X0347931Y0040557D01*
X0347856Y0040525D01*
X0347779Y0040497D01*
X0347701Y0040472D01*
X0347623Y0040452D01*
X0347543Y0040435D01*
X0347462Y0040422D01*
X0347381Y0040413D01*
X0347300Y0040408D01*
X0347219Y0040407D01*
X0347137Y0040410D01*
X0347056Y0040417D01*
X0346975Y0040428D01*
X0346895Y0040443D01*
X0346816Y0040461D01*
X0346738Y0040484D01*
X0346660Y0040510D01*
X0346585Y0040540D01*
X0346510Y0040574D01*
X0346438Y0040611D01*
X0346367Y0040652D01*
X0346299Y0040696D01*
X0346233Y0040743D01*
X0346169Y0040794D01*
X0346107Y0040848D01*
X0346049Y0040904D01*
X0345993Y0040964D01*
X0345940Y0041026D01*
X0345890Y0041090D01*
X0345844Y0041157D01*
X0345800Y0041226D01*
X0345761Y0041297D01*
X0345724Y0041370D01*
X0345691Y0041444D01*
X0345662Y0041521D01*
X0345637Y0041598D01*
X0345615Y0041677D01*
X0345598Y0041756D01*
X0345584Y0041836D01*
X0345574Y0041917D01*
X0345568Y0041999D01*
X0345566Y0042080D01*
X0376300Y0085400D02*
X0016900Y0085400D01*
X0016600Y0085200D02*
X0015800Y0083900D01*
X0015100Y0085200D02*
X0016600Y0085200D01*
X0011100Y0082100D01*
X0023900Y0087600D02*
X0023900Y0157600D01*
X0363900Y0157600D01*
X0363900Y0087600D01*
X0023900Y0087600D01*
X0010800Y0156600D02*
X0016300Y0159700D01*
X0015500Y0158400D01*
X0014800Y0159700D02*
X0016300Y0159700D01*
X0016900Y0159800D02*
X0376300Y0159800D01*
X0363900Y0162000D02*
X0023900Y0162000D01*
X0023900Y0232000D01*
X0363900Y0232000D01*
X0363900Y0162000D01*
X0345566Y0175920D02*
X0345568Y0176001D01*
X0345574Y0176083D01*
X0345584Y0176164D01*
X0345598Y0176244D01*
X0345615Y0176323D01*
X0345637Y0176402D01*
X0345662Y0176479D01*
X0345691Y0176556D01*
X0345724Y0176630D01*
X0345761Y0176703D01*
X0345800Y0176774D01*
X0345844Y0176843D01*
X0345890Y0176910D01*
X0345940Y0176974D01*
X0345993Y0177036D01*
X0346049Y0177096D01*
X0346107Y0177152D01*
X0346169Y0177206D01*
X0346233Y0177257D01*
X0346299Y0177304D01*
X0346367Y0177348D01*
X0346438Y0177389D01*
X0346510Y0177426D01*
X0346585Y0177460D01*
X0346660Y0177490D01*
X0346738Y0177516D01*
X0346816Y0177539D01*
X0346895Y0177557D01*
X0346975Y0177572D01*
X0347056Y0177583D01*
X0347137Y0177590D01*
X0347219Y0177593D01*
X0347300Y0177592D01*
X0347381Y0177587D01*
X0347462Y0177578D01*
X0347543Y0177565D01*
X0347623Y0177548D01*
X0347701Y0177528D01*
X0347779Y0177503D01*
X0347856Y0177475D01*
X0347931Y0177443D01*
X0348004Y0177408D01*
X0348075Y0177369D01*
X0348145Y0177326D01*
X0348212Y0177281D01*
X0348278Y0177232D01*
X0348340Y0177180D01*
X0348400Y0177124D01*
X0348457Y0177066D01*
X0348512Y0177006D01*
X0348563Y0176942D01*
X0348611Y0176877D01*
X0348656Y0176809D01*
X0348698Y0176739D01*
X0348736Y0176667D01*
X0348771Y0176593D01*
X0348802Y0176518D01*
X0348829Y0176441D01*
X0348852Y0176363D01*
X0348872Y0176284D01*
X0348888Y0176204D01*
X0348900Y0176123D01*
X0348908Y0176042D01*
X0348912Y0175961D01*
X0348912Y0175879D01*
X0348908Y0175798D01*
X0348900Y0175717D01*
X0348888Y0175636D01*
X0348872Y0175556D01*
X0348852Y0175477D01*
X0348829Y0175399D01*
X0348802Y0175322D01*
X0348771Y0175247D01*
X0348736Y0175173D01*
X0348698Y0175101D01*
X0348656Y0175031D01*
X0348611Y0174963D01*
X0348563Y0174898D01*
X0348512Y0174834D01*
X0348457Y0174774D01*
X0348400Y0174716D01*
X0348340Y0174660D01*
X0348278Y0174608D01*
X0348212Y0174559D01*
X0348145Y0174514D01*
X0348076Y0174471D01*
X0348004Y0174432D01*
X0347931Y0174397D01*
X0347856Y0174365D01*
X0347779Y0174337D01*
X0347701Y0174312D01*
X0347623Y0174292D01*
X0347543Y0174275D01*
X0347462Y0174262D01*
X0347381Y0174253D01*
X0347300Y0174248D01*
X0347219Y0174247D01*
X0347137Y0174250D01*
X0347056Y0174257D01*
X0346975Y0174268D01*
X0346895Y0174283D01*
X0346816Y0174301D01*
X0346738Y0174324D01*
X0346660Y0174350D01*
X0346585Y0174380D01*
X0346510Y0174414D01*
X0346438Y0174451D01*
X0346367Y0174492D01*
X0346299Y0174536D01*
X0346233Y0174583D01*
X0346169Y0174634D01*
X0346107Y0174688D01*
X0346049Y0174744D01*
X0345993Y0174804D01*
X0345940Y0174866D01*
X0345890Y0174930D01*
X0345844Y0174997D01*
X0345800Y0175066D01*
X0345761Y0175137D01*
X0345724Y0175210D01*
X0345691Y0175284D01*
X0345662Y0175361D01*
X0345637Y0175438D01*
X0345615Y0175517D01*
X0345598Y0175596D01*
X0345584Y0175676D01*
X0345574Y0175757D01*
X0345568Y0175839D01*
X0345566Y0175920D01*
X0345566Y0190880D02*
X0345568Y0190961D01*
X0345574Y0191043D01*
X0345584Y0191124D01*
X0345598Y0191204D01*
X0345615Y0191283D01*
X0345637Y0191362D01*
X0345662Y0191439D01*
X0345691Y0191516D01*
X0345724Y0191590D01*
X0345761Y0191663D01*
X0345800Y0191734D01*
X0345844Y0191803D01*
X0345890Y0191870D01*
X0345940Y0191934D01*
X0345993Y0191996D01*
X0346049Y0192056D01*
X0346107Y0192112D01*
X0346169Y0192166D01*
X0346233Y0192217D01*
X0346299Y0192264D01*
X0346367Y0192308D01*
X0346438Y0192349D01*
X0346510Y0192386D01*
X0346585Y0192420D01*
X0346660Y0192450D01*
X0346738Y0192476D01*
X0346816Y0192499D01*
X0346895Y0192517D01*
X0346975Y0192532D01*
X0347056Y0192543D01*
X0347137Y0192550D01*
X0347219Y0192553D01*
X0347300Y0192552D01*
X0347381Y0192547D01*
X0347462Y0192538D01*
X0347543Y0192525D01*
X0347623Y0192508D01*
X0347701Y0192488D01*
X0347779Y0192463D01*
X0347856Y0192435D01*
X0347931Y0192403D01*
X0348004Y0192368D01*
X0348075Y0192329D01*
X0348145Y0192286D01*
X0348212Y0192241D01*
X0348278Y0192192D01*
X0348340Y0192140D01*
X0348400Y0192084D01*
X0348457Y0192026D01*
X0348512Y0191966D01*
X0348563Y0191902D01*
X0348611Y0191837D01*
X0348656Y0191769D01*
X0348698Y0191699D01*
X0348736Y0191627D01*
X0348771Y0191553D01*
X0348802Y0191478D01*
X0348829Y0191401D01*
X0348852Y0191323D01*
X0348872Y0191244D01*
X0348888Y0191164D01*
X0348900Y0191083D01*
X0348908Y0191002D01*
X0348912Y0190921D01*
X0348912Y0190839D01*
X0348908Y0190758D01*
X0348900Y0190677D01*
X0348888Y0190596D01*
X0348872Y0190516D01*
X0348852Y0190437D01*
X0348829Y0190359D01*
X0348802Y0190282D01*
X0348771Y0190207D01*
X0348736Y0190133D01*
X0348698Y0190061D01*
X0348656Y0189991D01*
X0348611Y0189923D01*
X0348563Y0189858D01*
X0348512Y0189794D01*
X0348457Y0189734D01*
X0348400Y0189676D01*
X0348340Y0189620D01*
X0348278Y0189568D01*
X0348212Y0189519D01*
X0348145Y0189474D01*
X0348076Y0189431D01*
X0348004Y0189392D01*
X0347931Y0189357D01*
X0347856Y0189325D01*
X0347779Y0189297D01*
X0347701Y0189272D01*
X0347623Y0189252D01*
X0347543Y0189235D01*
X0347462Y0189222D01*
X0347381Y0189213D01*
X0347300Y0189208D01*
X0347219Y0189207D01*
X0347137Y0189210D01*
X0347056Y0189217D01*
X0346975Y0189228D01*
X0346895Y0189243D01*
X0346816Y0189261D01*
X0346738Y0189284D01*
X0346660Y0189310D01*
X0346585Y0189340D01*
X0346510Y0189374D01*
X0346438Y0189411D01*
X0346367Y0189452D01*
X0346299Y0189496D01*
X0346233Y0189543D01*
X0346169Y0189594D01*
X0346107Y0189648D01*
X0346049Y0189704D01*
X0345993Y0189764D01*
X0345940Y0189826D01*
X0345890Y0189890D01*
X0345844Y0189957D01*
X0345800Y0190026D01*
X0345761Y0190097D01*
X0345724Y0190170D01*
X0345691Y0190244D01*
X0345662Y0190321D01*
X0345637Y0190398D01*
X0345615Y0190477D01*
X0345598Y0190556D01*
X0345584Y0190636D01*
X0345574Y0190717D01*
X0345568Y0190799D01*
X0345566Y0190880D01*
X0297350Y0197000D02*
X0297352Y0197158D01*
X0297358Y0197315D01*
X0297368Y0197473D01*
X0297382Y0197630D01*
X0297400Y0197786D01*
X0297421Y0197943D01*
X0297447Y0198098D01*
X0297477Y0198253D01*
X0297510Y0198407D01*
X0297548Y0198560D01*
X0297589Y0198713D01*
X0297634Y0198864D01*
X0297683Y0199014D01*
X0297736Y0199162D01*
X0297792Y0199310D01*
X0297853Y0199455D01*
X0297916Y0199600D01*
X0297984Y0199742D01*
X0298055Y0199883D01*
X0298129Y0200022D01*
X0298207Y0200159D01*
X0298289Y0200294D01*
X0298373Y0200427D01*
X0298462Y0200558D01*
X0298553Y0200686D01*
X0298648Y0200813D01*
X0298745Y0200936D01*
X0298846Y0201058D01*
X0298950Y0201176D01*
X0299057Y0201292D01*
X0299167Y0201405D01*
X0299279Y0201516D01*
X0299395Y0201623D01*
X0299513Y0201728D01*
X0299633Y0201830D01*
X0299756Y0201928D01*
X0299882Y0202024D01*
X0300010Y0202116D01*
X0300140Y0202205D01*
X0300272Y0202291D01*
X0300407Y0202373D01*
X0300544Y0202452D01*
X0300682Y0202527D01*
X0300822Y0202599D01*
X0300965Y0202667D01*
X0301108Y0202732D01*
X0301254Y0202793D01*
X0301401Y0202850D01*
X0301549Y0202904D01*
X0301699Y0202954D01*
X0301849Y0203000D01*
X0302001Y0203042D01*
X0302154Y0203081D01*
X0302308Y0203115D01*
X0302463Y0203146D01*
X0302618Y0203172D01*
X0302774Y0203195D01*
X0302931Y0203214D01*
X0303088Y0203229D01*
X0303245Y0203240D01*
X0303403Y0203247D01*
X0303561Y0203250D01*
X0303718Y0203249D01*
X0303876Y0203244D01*
X0304033Y0203235D01*
X0304191Y0203222D01*
X0304347Y0203205D01*
X0304504Y0203184D01*
X0304659Y0203160D01*
X0304814Y0203131D01*
X0304969Y0203098D01*
X0305122Y0203062D01*
X0305275Y0203021D01*
X0305426Y0202977D01*
X0305576Y0202929D01*
X0305725Y0202878D01*
X0305873Y0202822D01*
X0306019Y0202763D01*
X0306164Y0202700D01*
X0306307Y0202633D01*
X0306448Y0202563D01*
X0306587Y0202490D01*
X0306725Y0202413D01*
X0306861Y0202332D01*
X0306994Y0202248D01*
X0307125Y0202161D01*
X0307254Y0202070D01*
X0307381Y0201976D01*
X0307506Y0201879D01*
X0307627Y0201779D01*
X0307747Y0201676D01*
X0307863Y0201570D01*
X0307977Y0201461D01*
X0308089Y0201349D01*
X0308197Y0201235D01*
X0308302Y0201117D01*
X0308405Y0200997D01*
X0308504Y0200875D01*
X0308600Y0200750D01*
X0308693Y0200622D01*
X0308783Y0200493D01*
X0308869Y0200361D01*
X0308953Y0200227D01*
X0309032Y0200091D01*
X0309109Y0199953D01*
X0309181Y0199813D01*
X0309250Y0199671D01*
X0309316Y0199528D01*
X0309378Y0199383D01*
X0309436Y0199236D01*
X0309491Y0199088D01*
X0309542Y0198939D01*
X0309589Y0198788D01*
X0309632Y0198637D01*
X0309671Y0198484D01*
X0309707Y0198330D01*
X0309738Y0198176D01*
X0309766Y0198021D01*
X0309790Y0197865D01*
X0309810Y0197708D01*
X0309826Y0197551D01*
X0309838Y0197394D01*
X0309846Y0197237D01*
X0309850Y0197079D01*
X0309850Y0196921D01*
X0309846Y0196763D01*
X0309838Y0196606D01*
X0309826Y0196449D01*
X0309810Y0196292D01*
X0309790Y0196135D01*
X0309766Y0195979D01*
X0309738Y0195824D01*
X0309707Y0195670D01*
X0309671Y0195516D01*
X0309632Y0195363D01*
X0309589Y0195212D01*
X0309542Y0195061D01*
X0309491Y0194912D01*
X0309436Y0194764D01*
X0309378Y0194617D01*
X0309316Y0194472D01*
X0309250Y0194329D01*
X0309181Y0194187D01*
X0309109Y0194047D01*
X0309032Y0193909D01*
X0308953Y0193773D01*
X0308869Y0193639D01*
X0308783Y0193507D01*
X0308693Y0193378D01*
X0308600Y0193250D01*
X0308504Y0193125D01*
X0308405Y0193003D01*
X0308302Y0192883D01*
X0308197Y0192765D01*
X0308089Y0192651D01*
X0307977Y0192539D01*
X0307863Y0192430D01*
X0307747Y0192324D01*
X0307627Y0192221D01*
X0307506Y0192121D01*
X0307381Y0192024D01*
X0307254Y0191930D01*
X0307125Y0191839D01*
X0306994Y0191752D01*
X0306861Y0191668D01*
X0306725Y0191587D01*
X0306587Y0191510D01*
X0306448Y0191437D01*
X0306307Y0191367D01*
X0306164Y0191300D01*
X0306019Y0191237D01*
X0305873Y0191178D01*
X0305725Y0191122D01*
X0305576Y0191071D01*
X0305426Y0191023D01*
X0305275Y0190979D01*
X0305122Y0190938D01*
X0304969Y0190902D01*
X0304814Y0190869D01*
X0304659Y0190840D01*
X0304504Y0190816D01*
X0304347Y0190795D01*
X0304191Y0190778D01*
X0304033Y0190765D01*
X0303876Y0190756D01*
X0303718Y0190751D01*
X0303561Y0190750D01*
X0303403Y0190753D01*
X0303245Y0190760D01*
X0303088Y0190771D01*
X0302931Y0190786D01*
X0302774Y0190805D01*
X0302618Y0190828D01*
X0302463Y0190854D01*
X0302308Y0190885D01*
X0302154Y0190919D01*
X0302001Y0190958D01*
X0301849Y0191000D01*
X0301699Y0191046D01*
X0301549Y0191096D01*
X0301401Y0191150D01*
X0301254Y0191207D01*
X0301108Y0191268D01*
X0300965Y0191333D01*
X0300822Y0191401D01*
X0300682Y0191473D01*
X0300544Y0191548D01*
X0300407Y0191627D01*
X0300272Y0191709D01*
X0300140Y0191795D01*
X0300010Y0191884D01*
X0299882Y0191976D01*
X0299756Y0192072D01*
X0299633Y0192170D01*
X0299513Y0192272D01*
X0299395Y0192377D01*
X0299279Y0192484D01*
X0299167Y0192595D01*
X0299057Y0192708D01*
X0298950Y0192824D01*
X0298846Y0192942D01*
X0298745Y0193064D01*
X0298648Y0193187D01*
X0298553Y0193314D01*
X0298462Y0193442D01*
X0298373Y0193573D01*
X0298289Y0193706D01*
X0298207Y0193841D01*
X0298129Y0193978D01*
X0298055Y0194117D01*
X0297984Y0194258D01*
X0297916Y0194400D01*
X0297853Y0194545D01*
X0297792Y0194690D01*
X0297736Y0194838D01*
X0297683Y0194986D01*
X0297634Y0195136D01*
X0297589Y0195287D01*
X0297548Y0195440D01*
X0297510Y0195593D01*
X0297477Y0195747D01*
X0297447Y0195902D01*
X0297421Y0196057D01*
X0297400Y0196214D01*
X0297382Y0196370D01*
X0297368Y0196527D01*
X0297358Y0196685D01*
X0297352Y0196842D01*
X0297350Y0197000D01*
X0345566Y0250320D02*
X0345568Y0250401D01*
X0345574Y0250483D01*
X0345584Y0250564D01*
X0345598Y0250644D01*
X0345615Y0250723D01*
X0345637Y0250802D01*
X0345662Y0250879D01*
X0345691Y0250956D01*
X0345724Y0251030D01*
X0345761Y0251103D01*
X0345800Y0251174D01*
X0345844Y0251243D01*
X0345890Y0251310D01*
X0345940Y0251374D01*
X0345993Y0251436D01*
X0346049Y0251496D01*
X0346107Y0251552D01*
X0346169Y0251606D01*
X0346233Y0251657D01*
X0346299Y0251704D01*
X0346367Y0251748D01*
X0346438Y0251789D01*
X0346510Y0251826D01*
X0346585Y0251860D01*
X0346660Y0251890D01*
X0346738Y0251916D01*
X0346816Y0251939D01*
X0346895Y0251957D01*
X0346975Y0251972D01*
X0347056Y0251983D01*
X0347137Y0251990D01*
X0347219Y0251993D01*
X0347300Y0251992D01*
X0347381Y0251987D01*
X0347462Y0251978D01*
X0347543Y0251965D01*
X0347623Y0251948D01*
X0347701Y0251928D01*
X0347779Y0251903D01*
X0347856Y0251875D01*
X0347931Y0251843D01*
X0348004Y0251808D01*
X0348075Y0251769D01*
X0348145Y0251726D01*
X0348212Y0251681D01*
X0348278Y0251632D01*
X0348340Y0251580D01*
X0348400Y0251524D01*
X0348457Y0251466D01*
X0348512Y0251406D01*
X0348563Y0251342D01*
X0348611Y0251277D01*
X0348656Y0251209D01*
X0348698Y0251139D01*
X0348736Y0251067D01*
X0348771Y0250993D01*
X0348802Y0250918D01*
X0348829Y0250841D01*
X0348852Y0250763D01*
X0348872Y0250684D01*
X0348888Y0250604D01*
X0348900Y0250523D01*
X0348908Y0250442D01*
X0348912Y0250361D01*
X0348912Y0250279D01*
X0348908Y0250198D01*
X0348900Y0250117D01*
X0348888Y0250036D01*
X0348872Y0249956D01*
X0348852Y0249877D01*
X0348829Y0249799D01*
X0348802Y0249722D01*
X0348771Y0249647D01*
X0348736Y0249573D01*
X0348698Y0249501D01*
X0348656Y0249431D01*
X0348611Y0249363D01*
X0348563Y0249298D01*
X0348512Y0249234D01*
X0348457Y0249174D01*
X0348400Y0249116D01*
X0348340Y0249060D01*
X0348278Y0249008D01*
X0348212Y0248959D01*
X0348145Y0248914D01*
X0348076Y0248871D01*
X0348004Y0248832D01*
X0347931Y0248797D01*
X0347856Y0248765D01*
X0347779Y0248737D01*
X0347701Y0248712D01*
X0347623Y0248692D01*
X0347543Y0248675D01*
X0347462Y0248662D01*
X0347381Y0248653D01*
X0347300Y0248648D01*
X0347219Y0248647D01*
X0347137Y0248650D01*
X0347056Y0248657D01*
X0346975Y0248668D01*
X0346895Y0248683D01*
X0346816Y0248701D01*
X0346738Y0248724D01*
X0346660Y0248750D01*
X0346585Y0248780D01*
X0346510Y0248814D01*
X0346438Y0248851D01*
X0346367Y0248892D01*
X0346299Y0248936D01*
X0346233Y0248983D01*
X0346169Y0249034D01*
X0346107Y0249088D01*
X0346049Y0249144D01*
X0345993Y0249204D01*
X0345940Y0249266D01*
X0345890Y0249330D01*
X0345844Y0249397D01*
X0345800Y0249466D01*
X0345761Y0249537D01*
X0345724Y0249610D01*
X0345691Y0249684D01*
X0345662Y0249761D01*
X0345637Y0249838D01*
X0345615Y0249917D01*
X0345598Y0249996D01*
X0345584Y0250076D01*
X0345574Y0250157D01*
X0345568Y0250239D01*
X0345566Y0250320D01*
X0345566Y0265280D02*
X0345568Y0265361D01*
X0345574Y0265443D01*
X0345584Y0265524D01*
X0345598Y0265604D01*
X0345615Y0265683D01*
X0345637Y0265762D01*
X0345662Y0265839D01*
X0345691Y0265916D01*
X0345724Y0265990D01*
X0345761Y0266063D01*
X0345800Y0266134D01*
X0345844Y0266203D01*
X0345890Y0266270D01*
X0345940Y0266334D01*
X0345993Y0266396D01*
X0346049Y0266456D01*
X0346107Y0266512D01*
X0346169Y0266566D01*
X0346233Y0266617D01*
X0346299Y0266664D01*
X0346367Y0266708D01*
X0346438Y0266749D01*
X0346510Y0266786D01*
X0346585Y0266820D01*
X0346660Y0266850D01*
X0346738Y0266876D01*
X0346816Y0266899D01*
X0346895Y0266917D01*
X0346975Y0266932D01*
X0347056Y0266943D01*
X0347137Y0266950D01*
X0347219Y0266953D01*
X0347300Y0266952D01*
X0347381Y0266947D01*
X0347462Y0266938D01*
X0347543Y0266925D01*
X0347623Y0266908D01*
X0347701Y0266888D01*
X0347779Y0266863D01*
X0347856Y0266835D01*
X0347931Y0266803D01*
X0348004Y0266768D01*
X0348075Y0266729D01*
X0348145Y0266686D01*
X0348212Y0266641D01*
X0348278Y0266592D01*
X0348340Y0266540D01*
X0348400Y0266484D01*
X0348457Y0266426D01*
X0348512Y0266366D01*
X0348563Y0266302D01*
X0348611Y0266237D01*
X0348656Y0266169D01*
X0348698Y0266099D01*
X0348736Y0266027D01*
X0348771Y0265953D01*
X0348802Y0265878D01*
X0348829Y0265801D01*
X0348852Y0265723D01*
X0348872Y0265644D01*
X0348888Y0265564D01*
X0348900Y0265483D01*
X0348908Y0265402D01*
X0348912Y0265321D01*
X0348912Y0265239D01*
X0348908Y0265158D01*
X0348900Y0265077D01*
X0348888Y0264996D01*
X0348872Y0264916D01*
X0348852Y0264837D01*
X0348829Y0264759D01*
X0348802Y0264682D01*
X0348771Y0264607D01*
X0348736Y0264533D01*
X0348698Y0264461D01*
X0348656Y0264391D01*
X0348611Y0264323D01*
X0348563Y0264258D01*
X0348512Y0264194D01*
X0348457Y0264134D01*
X0348400Y0264076D01*
X0348340Y0264020D01*
X0348278Y0263968D01*
X0348212Y0263919D01*
X0348145Y0263874D01*
X0348076Y0263831D01*
X0348004Y0263792D01*
X0347931Y0263757D01*
X0347856Y0263725D01*
X0347779Y0263697D01*
X0347701Y0263672D01*
X0347623Y0263652D01*
X0347543Y0263635D01*
X0347462Y0263622D01*
X0347381Y0263613D01*
X0347300Y0263608D01*
X0347219Y0263607D01*
X0347137Y0263610D01*
X0347056Y0263617D01*
X0346975Y0263628D01*
X0346895Y0263643D01*
X0346816Y0263661D01*
X0346738Y0263684D01*
X0346660Y0263710D01*
X0346585Y0263740D01*
X0346510Y0263774D01*
X0346438Y0263811D01*
X0346367Y0263852D01*
X0346299Y0263896D01*
X0346233Y0263943D01*
X0346169Y0263994D01*
X0346107Y0264048D01*
X0346049Y0264104D01*
X0345993Y0264164D01*
X0345940Y0264226D01*
X0345890Y0264290D01*
X0345844Y0264357D01*
X0345800Y0264426D01*
X0345761Y0264497D01*
X0345724Y0264570D01*
X0345691Y0264644D01*
X0345662Y0264721D01*
X0345637Y0264798D01*
X0345615Y0264877D01*
X0345598Y0264956D01*
X0345584Y0265036D01*
X0345574Y0265117D01*
X0345568Y0265199D01*
X0345566Y0265280D01*
X0363900Y0236400D02*
X0023900Y0236400D01*
X0023900Y0306400D01*
X0363900Y0306400D01*
X0363900Y0236400D01*
X0376300Y0234200D02*
X0016900Y0234200D01*
X0016200Y0234100D02*
X0015400Y0232800D01*
X0014700Y0234100D02*
X0016200Y0234100D01*
X0010700Y0231000D01*
X0010900Y0305400D02*
X0016400Y0308500D01*
X0015600Y0307200D01*
X0014900Y0308500D02*
X0016400Y0308500D01*
X0016900Y0308600D02*
X0376300Y0308600D01*
X0363900Y0310800D02*
X0023900Y0310800D01*
X0023900Y0380800D01*
X0363900Y0380800D01*
X0363900Y0310800D01*
X0345566Y0324720D02*
X0345568Y0324801D01*
X0345574Y0324883D01*
X0345584Y0324964D01*
X0345598Y0325044D01*
X0345615Y0325123D01*
X0345637Y0325202D01*
X0345662Y0325279D01*
X0345691Y0325356D01*
X0345724Y0325430D01*
X0345761Y0325503D01*
X0345800Y0325574D01*
X0345844Y0325643D01*
X0345890Y0325710D01*
X0345940Y0325774D01*
X0345993Y0325836D01*
X0346049Y0325896D01*
X0346107Y0325952D01*
X0346169Y0326006D01*
X0346233Y0326057D01*
X0346299Y0326104D01*
X0346367Y0326148D01*
X0346438Y0326189D01*
X0346510Y0326226D01*
X0346585Y0326260D01*
X0346660Y0326290D01*
X0346738Y0326316D01*
X0346816Y0326339D01*
X0346895Y0326357D01*
X0346975Y0326372D01*
X0347056Y0326383D01*
X0347137Y0326390D01*
X0347219Y0326393D01*
X0347300Y0326392D01*
X0347381Y0326387D01*
X0347462Y0326378D01*
X0347543Y0326365D01*
X0347623Y0326348D01*
X0347701Y0326328D01*
X0347779Y0326303D01*
X0347856Y0326275D01*
X0347931Y0326243D01*
X0348004Y0326208D01*
X0348075Y0326169D01*
X0348145Y0326126D01*
X0348212Y0326081D01*
X0348278Y0326032D01*
X0348340Y0325980D01*
X0348400Y0325924D01*
X0348457Y0325866D01*
X0348512Y0325806D01*
X0348563Y0325742D01*
X0348611Y0325677D01*
X0348656Y0325609D01*
X0348698Y0325539D01*
X0348736Y0325467D01*
X0348771Y0325393D01*
X0348802Y0325318D01*
X0348829Y0325241D01*
X0348852Y0325163D01*
X0348872Y0325084D01*
X0348888Y0325004D01*
X0348900Y0324923D01*
X0348908Y0324842D01*
X0348912Y0324761D01*
X0348912Y0324679D01*
X0348908Y0324598D01*
X0348900Y0324517D01*
X0348888Y0324436D01*
X0348872Y0324356D01*
X0348852Y0324277D01*
X0348829Y0324199D01*
X0348802Y0324122D01*
X0348771Y0324047D01*
X0348736Y0323973D01*
X0348698Y0323901D01*
X0348656Y0323831D01*
X0348611Y0323763D01*
X0348563Y0323698D01*
X0348512Y0323634D01*
X0348457Y0323574D01*
X0348400Y0323516D01*
X0348340Y0323460D01*
X0348278Y0323408D01*
X0348212Y0323359D01*
X0348145Y0323314D01*
X0348076Y0323271D01*
X0348004Y0323232D01*
X0347931Y0323197D01*
X0347856Y0323165D01*
X0347779Y0323137D01*
X0347701Y0323112D01*
X0347623Y0323092D01*
X0347543Y0323075D01*
X0347462Y0323062D01*
X0347381Y0323053D01*
X0347300Y0323048D01*
X0347219Y0323047D01*
X0347137Y0323050D01*
X0347056Y0323057D01*
X0346975Y0323068D01*
X0346895Y0323083D01*
X0346816Y0323101D01*
X0346738Y0323124D01*
X0346660Y0323150D01*
X0346585Y0323180D01*
X0346510Y0323214D01*
X0346438Y0323251D01*
X0346367Y0323292D01*
X0346299Y0323336D01*
X0346233Y0323383D01*
X0346169Y0323434D01*
X0346107Y0323488D01*
X0346049Y0323544D01*
X0345993Y0323604D01*
X0345940Y0323666D01*
X0345890Y0323730D01*
X0345844Y0323797D01*
X0345800Y0323866D01*
X0345761Y0323937D01*
X0345724Y0324010D01*
X0345691Y0324084D01*
X0345662Y0324161D01*
X0345637Y0324238D01*
X0345615Y0324317D01*
X0345598Y0324396D01*
X0345584Y0324476D01*
X0345574Y0324557D01*
X0345568Y0324639D01*
X0345566Y0324720D01*
X0345566Y0339680D02*
X0345568Y0339761D01*
X0345574Y0339843D01*
X0345584Y0339924D01*
X0345598Y0340004D01*
X0345615Y0340083D01*
X0345637Y0340162D01*
X0345662Y0340239D01*
X0345691Y0340316D01*
X0345724Y0340390D01*
X0345761Y0340463D01*
X0345800Y0340534D01*
X0345844Y0340603D01*
X0345890Y0340670D01*
X0345940Y0340734D01*
X0345993Y0340796D01*
X0346049Y0340856D01*
X0346107Y0340912D01*
X0346169Y0340966D01*
X0346233Y0341017D01*
X0346299Y0341064D01*
X0346367Y0341108D01*
X0346438Y0341149D01*
X0346510Y0341186D01*
X0346585Y0341220D01*
X0346660Y0341250D01*
X0346738Y0341276D01*
X0346816Y0341299D01*
X0346895Y0341317D01*
X0346975Y0341332D01*
X0347056Y0341343D01*
X0347137Y0341350D01*
X0347219Y0341353D01*
X0347300Y0341352D01*
X0347381Y0341347D01*
X0347462Y0341338D01*
X0347543Y0341325D01*
X0347623Y0341308D01*
X0347701Y0341288D01*
X0347779Y0341263D01*
X0347856Y0341235D01*
X0347931Y0341203D01*
X0348004Y0341168D01*
X0348075Y0341129D01*
X0348145Y0341086D01*
X0348212Y0341041D01*
X0348278Y0340992D01*
X0348340Y0340940D01*
X0348400Y0340884D01*
X0348457Y0340826D01*
X0348512Y0340766D01*
X0348563Y0340702D01*
X0348611Y0340637D01*
X0348656Y0340569D01*
X0348698Y0340499D01*
X0348736Y0340427D01*
X0348771Y0340353D01*
X0348802Y0340278D01*
X0348829Y0340201D01*
X0348852Y0340123D01*
X0348872Y0340044D01*
X0348888Y0339964D01*
X0348900Y0339883D01*
X0348908Y0339802D01*
X0348912Y0339721D01*
X0348912Y0339639D01*
X0348908Y0339558D01*
X0348900Y0339477D01*
X0348888Y0339396D01*
X0348872Y0339316D01*
X0348852Y0339237D01*
X0348829Y0339159D01*
X0348802Y0339082D01*
X0348771Y0339007D01*
X0348736Y0338933D01*
X0348698Y0338861D01*
X0348656Y0338791D01*
X0348611Y0338723D01*
X0348563Y0338658D01*
X0348512Y0338594D01*
X0348457Y0338534D01*
X0348400Y0338476D01*
X0348340Y0338420D01*
X0348278Y0338368D01*
X0348212Y0338319D01*
X0348145Y0338274D01*
X0348076Y0338231D01*
X0348004Y0338192D01*
X0347931Y0338157D01*
X0347856Y0338125D01*
X0347779Y0338097D01*
X0347701Y0338072D01*
X0347623Y0338052D01*
X0347543Y0338035D01*
X0347462Y0338022D01*
X0347381Y0338013D01*
X0347300Y0338008D01*
X0347219Y0338007D01*
X0347137Y0338010D01*
X0347056Y0338017D01*
X0346975Y0338028D01*
X0346895Y0338043D01*
X0346816Y0338061D01*
X0346738Y0338084D01*
X0346660Y0338110D01*
X0346585Y0338140D01*
X0346510Y0338174D01*
X0346438Y0338211D01*
X0346367Y0338252D01*
X0346299Y0338296D01*
X0346233Y0338343D01*
X0346169Y0338394D01*
X0346107Y0338448D01*
X0346049Y0338504D01*
X0345993Y0338564D01*
X0345940Y0338626D01*
X0345890Y0338690D01*
X0345844Y0338757D01*
X0345800Y0338826D01*
X0345761Y0338897D01*
X0345724Y0338970D01*
X0345691Y0339044D01*
X0345662Y0339121D01*
X0345637Y0339198D01*
X0345615Y0339277D01*
X0345598Y0339356D01*
X0345584Y0339436D01*
X0345574Y0339517D01*
X0345568Y0339599D01*
X0345566Y0339680D01*
X0376300Y0383000D02*
X0016900Y0383000D01*
X0016300Y0383000D02*
X0015500Y0381700D01*
X0014800Y0383000D02*
X0016300Y0383000D01*
X0010800Y0379900D01*
X0102650Y0345800D02*
X0102652Y0345958D01*
X0102658Y0346115D01*
X0102668Y0346273D01*
X0102682Y0346430D01*
X0102700Y0346586D01*
X0102721Y0346743D01*
X0102747Y0346898D01*
X0102777Y0347053D01*
X0102810Y0347207D01*
X0102848Y0347360D01*
X0102889Y0347513D01*
X0102934Y0347664D01*
X0102983Y0347814D01*
X0103036Y0347962D01*
X0103092Y0348110D01*
X0103153Y0348255D01*
X0103216Y0348400D01*
X0103284Y0348542D01*
X0103355Y0348683D01*
X0103429Y0348822D01*
X0103507Y0348959D01*
X0103589Y0349094D01*
X0103673Y0349227D01*
X0103762Y0349358D01*
X0103853Y0349486D01*
X0103948Y0349613D01*
X0104045Y0349736D01*
X0104146Y0349858D01*
X0104250Y0349976D01*
X0104357Y0350092D01*
X0104467Y0350205D01*
X0104579Y0350316D01*
X0104695Y0350423D01*
X0104813Y0350528D01*
X0104933Y0350630D01*
X0105056Y0350728D01*
X0105182Y0350824D01*
X0105310Y0350916D01*
X0105440Y0351005D01*
X0105572Y0351091D01*
X0105707Y0351173D01*
X0105844Y0351252D01*
X0105982Y0351327D01*
X0106122Y0351399D01*
X0106265Y0351467D01*
X0106408Y0351532D01*
X0106554Y0351593D01*
X0106701Y0351650D01*
X0106849Y0351704D01*
X0106999Y0351754D01*
X0107149Y0351800D01*
X0107301Y0351842D01*
X0107454Y0351881D01*
X0107608Y0351915D01*
X0107763Y0351946D01*
X0107918Y0351972D01*
X0108074Y0351995D01*
X0108231Y0352014D01*
X0108388Y0352029D01*
X0108545Y0352040D01*
X0108703Y0352047D01*
X0108861Y0352050D01*
X0109018Y0352049D01*
X0109176Y0352044D01*
X0109333Y0352035D01*
X0109491Y0352022D01*
X0109647Y0352005D01*
X0109804Y0351984D01*
X0109959Y0351960D01*
X0110114Y0351931D01*
X0110269Y0351898D01*
X0110422Y0351862D01*
X0110575Y0351821D01*
X0110726Y0351777D01*
X0110876Y0351729D01*
X0111025Y0351678D01*
X0111173Y0351622D01*
X0111319Y0351563D01*
X0111464Y0351500D01*
X0111607Y0351433D01*
X0111748Y0351363D01*
X0111887Y0351290D01*
X0112025Y0351213D01*
X0112161Y0351132D01*
X0112294Y0351048D01*
X0112425Y0350961D01*
X0112554Y0350870D01*
X0112681Y0350776D01*
X0112806Y0350679D01*
X0112927Y0350579D01*
X0113047Y0350476D01*
X0113163Y0350370D01*
X0113277Y0350261D01*
X0113389Y0350149D01*
X0113497Y0350035D01*
X0113602Y0349917D01*
X0113705Y0349797D01*
X0113804Y0349675D01*
X0113900Y0349550D01*
X0113993Y0349422D01*
X0114083Y0349293D01*
X0114169Y0349161D01*
X0114253Y0349027D01*
X0114332Y0348891D01*
X0114409Y0348753D01*
X0114481Y0348613D01*
X0114550Y0348471D01*
X0114616Y0348328D01*
X0114678Y0348183D01*
X0114736Y0348036D01*
X0114791Y0347888D01*
X0114842Y0347739D01*
X0114889Y0347588D01*
X0114932Y0347437D01*
X0114971Y0347284D01*
X0115007Y0347130D01*
X0115038Y0346976D01*
X0115066Y0346821D01*
X0115090Y0346665D01*
X0115110Y0346508D01*
X0115126Y0346351D01*
X0115138Y0346194D01*
X0115146Y0346037D01*
X0115150Y0345879D01*
X0115150Y0345721D01*
X0115146Y0345563D01*
X0115138Y0345406D01*
X0115126Y0345249D01*
X0115110Y0345092D01*
X0115090Y0344935D01*
X0115066Y0344779D01*
X0115038Y0344624D01*
X0115007Y0344470D01*
X0114971Y0344316D01*
X0114932Y0344163D01*
X0114889Y0344012D01*
X0114842Y0343861D01*
X0114791Y0343712D01*
X0114736Y0343564D01*
X0114678Y0343417D01*
X0114616Y0343272D01*
X0114550Y0343129D01*
X0114481Y0342987D01*
X0114409Y0342847D01*
X0114332Y0342709D01*
X0114253Y0342573D01*
X0114169Y0342439D01*
X0114083Y0342307D01*
X0113993Y0342178D01*
X0113900Y0342050D01*
X0113804Y0341925D01*
X0113705Y0341803D01*
X0113602Y0341683D01*
X0113497Y0341565D01*
X0113389Y0341451D01*
X0113277Y0341339D01*
X0113163Y0341230D01*
X0113047Y0341124D01*
X0112927Y0341021D01*
X0112806Y0340921D01*
X0112681Y0340824D01*
X0112554Y0340730D01*
X0112425Y0340639D01*
X0112294Y0340552D01*
X0112161Y0340468D01*
X0112025Y0340387D01*
X0111887Y0340310D01*
X0111748Y0340237D01*
X0111607Y0340167D01*
X0111464Y0340100D01*
X0111319Y0340037D01*
X0111173Y0339978D01*
X0111025Y0339922D01*
X0110876Y0339871D01*
X0110726Y0339823D01*
X0110575Y0339779D01*
X0110422Y0339738D01*
X0110269Y0339702D01*
X0110114Y0339669D01*
X0109959Y0339640D01*
X0109804Y0339616D01*
X0109647Y0339595D01*
X0109491Y0339578D01*
X0109333Y0339565D01*
X0109176Y0339556D01*
X0109018Y0339551D01*
X0108861Y0339550D01*
X0108703Y0339553D01*
X0108545Y0339560D01*
X0108388Y0339571D01*
X0108231Y0339586D01*
X0108074Y0339605D01*
X0107918Y0339628D01*
X0107763Y0339654D01*
X0107608Y0339685D01*
X0107454Y0339719D01*
X0107301Y0339758D01*
X0107149Y0339800D01*
X0106999Y0339846D01*
X0106849Y0339896D01*
X0106701Y0339950D01*
X0106554Y0340007D01*
X0106408Y0340068D01*
X0106265Y0340133D01*
X0106122Y0340201D01*
X0105982Y0340273D01*
X0105844Y0340348D01*
X0105707Y0340427D01*
X0105572Y0340509D01*
X0105440Y0340595D01*
X0105310Y0340684D01*
X0105182Y0340776D01*
X0105056Y0340872D01*
X0104933Y0340970D01*
X0104813Y0341072D01*
X0104695Y0341177D01*
X0104579Y0341284D01*
X0104467Y0341395D01*
X0104357Y0341508D01*
X0104250Y0341624D01*
X0104146Y0341742D01*
X0104045Y0341864D01*
X0103948Y0341987D01*
X0103853Y0342114D01*
X0103762Y0342242D01*
X0103673Y0342373D01*
X0103589Y0342506D01*
X0103507Y0342641D01*
X0103429Y0342778D01*
X0103355Y0342917D01*
X0103284Y0343058D01*
X0103216Y0343200D01*
X0103153Y0343345D01*
X0103092Y0343490D01*
X0103036Y0343638D01*
X0102983Y0343786D01*
X0102934Y0343936D01*
X0102889Y0344087D01*
X0102848Y0344240D01*
X0102810Y0344393D01*
X0102777Y0344547D01*
X0102747Y0344702D01*
X0102721Y0344857D01*
X0102700Y0345014D01*
X0102682Y0345170D01*
X0102668Y0345327D01*
X0102658Y0345485D01*
X0102652Y0345642D01*
X0102650Y0345800D01*
X0102650Y0271400D02*
X0102652Y0271558D01*
X0102658Y0271715D01*
X0102668Y0271873D01*
X0102682Y0272030D01*
X0102700Y0272186D01*
X0102721Y0272343D01*
X0102747Y0272498D01*
X0102777Y0272653D01*
X0102810Y0272807D01*
X0102848Y0272960D01*
X0102889Y0273113D01*
X0102934Y0273264D01*
X0102983Y0273414D01*
X0103036Y0273562D01*
X0103092Y0273710D01*
X0103153Y0273855D01*
X0103216Y0274000D01*
X0103284Y0274142D01*
X0103355Y0274283D01*
X0103429Y0274422D01*
X0103507Y0274559D01*
X0103589Y0274694D01*
X0103673Y0274827D01*
X0103762Y0274958D01*
X0103853Y0275086D01*
X0103948Y0275213D01*
X0104045Y0275336D01*
X0104146Y0275458D01*
X0104250Y0275576D01*
X0104357Y0275692D01*
X0104467Y0275805D01*
X0104579Y0275916D01*
X0104695Y0276023D01*
X0104813Y0276128D01*
X0104933Y0276230D01*
X0105056Y0276328D01*
X0105182Y0276424D01*
X0105310Y0276516D01*
X0105440Y0276605D01*
X0105572Y0276691D01*
X0105707Y0276773D01*
X0105844Y0276852D01*
X0105982Y0276927D01*
X0106122Y0276999D01*
X0106265Y0277067D01*
X0106408Y0277132D01*
X0106554Y0277193D01*
X0106701Y0277250D01*
X0106849Y0277304D01*
X0106999Y0277354D01*
X0107149Y0277400D01*
X0107301Y0277442D01*
X0107454Y0277481D01*
X0107608Y0277515D01*
X0107763Y0277546D01*
X0107918Y0277572D01*
X0108074Y0277595D01*
X0108231Y0277614D01*
X0108388Y0277629D01*
X0108545Y0277640D01*
X0108703Y0277647D01*
X0108861Y0277650D01*
X0109018Y0277649D01*
X0109176Y0277644D01*
X0109333Y0277635D01*
X0109491Y0277622D01*
X0109647Y0277605D01*
X0109804Y0277584D01*
X0109959Y0277560D01*
X0110114Y0277531D01*
X0110269Y0277498D01*
X0110422Y0277462D01*
X0110575Y0277421D01*
X0110726Y0277377D01*
X0110876Y0277329D01*
X0111025Y0277278D01*
X0111173Y0277222D01*
X0111319Y0277163D01*
X0111464Y0277100D01*
X0111607Y0277033D01*
X0111748Y0276963D01*
X0111887Y0276890D01*
X0112025Y0276813D01*
X0112161Y0276732D01*
X0112294Y0276648D01*
X0112425Y0276561D01*
X0112554Y0276470D01*
X0112681Y0276376D01*
X0112806Y0276279D01*
X0112927Y0276179D01*
X0113047Y0276076D01*
X0113163Y0275970D01*
X0113277Y0275861D01*
X0113389Y0275749D01*
X0113497Y0275635D01*
X0113602Y0275517D01*
X0113705Y0275397D01*
X0113804Y0275275D01*
X0113900Y0275150D01*
X0113993Y0275022D01*
X0114083Y0274893D01*
X0114169Y0274761D01*
X0114253Y0274627D01*
X0114332Y0274491D01*
X0114409Y0274353D01*
X0114481Y0274213D01*
X0114550Y0274071D01*
X0114616Y0273928D01*
X0114678Y0273783D01*
X0114736Y0273636D01*
X0114791Y0273488D01*
X0114842Y0273339D01*
X0114889Y0273188D01*
X0114932Y0273037D01*
X0114971Y0272884D01*
X0115007Y0272730D01*
X0115038Y0272576D01*
X0115066Y0272421D01*
X0115090Y0272265D01*
X0115110Y0272108D01*
X0115126Y0271951D01*
X0115138Y0271794D01*
X0115146Y0271637D01*
X0115150Y0271479D01*
X0115150Y0271321D01*
X0115146Y0271163D01*
X0115138Y0271006D01*
X0115126Y0270849D01*
X0115110Y0270692D01*
X0115090Y0270535D01*
X0115066Y0270379D01*
X0115038Y0270224D01*
X0115007Y0270070D01*
X0114971Y0269916D01*
X0114932Y0269763D01*
X0114889Y0269612D01*
X0114842Y0269461D01*
X0114791Y0269312D01*
X0114736Y0269164D01*
X0114678Y0269017D01*
X0114616Y0268872D01*
X0114550Y0268729D01*
X0114481Y0268587D01*
X0114409Y0268447D01*
X0114332Y0268309D01*
X0114253Y0268173D01*
X0114169Y0268039D01*
X0114083Y0267907D01*
X0113993Y0267778D01*
X0113900Y0267650D01*
X0113804Y0267525D01*
X0113705Y0267403D01*
X0113602Y0267283D01*
X0113497Y0267165D01*
X0113389Y0267051D01*
X0113277Y0266939D01*
X0113163Y0266830D01*
X0113047Y0266724D01*
X0112927Y0266621D01*
X0112806Y0266521D01*
X0112681Y0266424D01*
X0112554Y0266330D01*
X0112425Y0266239D01*
X0112294Y0266152D01*
X0112161Y0266068D01*
X0112025Y0265987D01*
X0111887Y0265910D01*
X0111748Y0265837D01*
X0111607Y0265767D01*
X0111464Y0265700D01*
X0111319Y0265637D01*
X0111173Y0265578D01*
X0111025Y0265522D01*
X0110876Y0265471D01*
X0110726Y0265423D01*
X0110575Y0265379D01*
X0110422Y0265338D01*
X0110269Y0265302D01*
X0110114Y0265269D01*
X0109959Y0265240D01*
X0109804Y0265216D01*
X0109647Y0265195D01*
X0109491Y0265178D01*
X0109333Y0265165D01*
X0109176Y0265156D01*
X0109018Y0265151D01*
X0108861Y0265150D01*
X0108703Y0265153D01*
X0108545Y0265160D01*
X0108388Y0265171D01*
X0108231Y0265186D01*
X0108074Y0265205D01*
X0107918Y0265228D01*
X0107763Y0265254D01*
X0107608Y0265285D01*
X0107454Y0265319D01*
X0107301Y0265358D01*
X0107149Y0265400D01*
X0106999Y0265446D01*
X0106849Y0265496D01*
X0106701Y0265550D01*
X0106554Y0265607D01*
X0106408Y0265668D01*
X0106265Y0265733D01*
X0106122Y0265801D01*
X0105982Y0265873D01*
X0105844Y0265948D01*
X0105707Y0266027D01*
X0105572Y0266109D01*
X0105440Y0266195D01*
X0105310Y0266284D01*
X0105182Y0266376D01*
X0105056Y0266472D01*
X0104933Y0266570D01*
X0104813Y0266672D01*
X0104695Y0266777D01*
X0104579Y0266884D01*
X0104467Y0266995D01*
X0104357Y0267108D01*
X0104250Y0267224D01*
X0104146Y0267342D01*
X0104045Y0267464D01*
X0103948Y0267587D01*
X0103853Y0267714D01*
X0103762Y0267842D01*
X0103673Y0267973D01*
X0103589Y0268106D01*
X0103507Y0268241D01*
X0103429Y0268378D01*
X0103355Y0268517D01*
X0103284Y0268658D01*
X0103216Y0268800D01*
X0103153Y0268945D01*
X0103092Y0269090D01*
X0103036Y0269238D01*
X0102983Y0269386D01*
X0102934Y0269536D01*
X0102889Y0269687D01*
X0102848Y0269840D01*
X0102810Y0269993D01*
X0102777Y0270147D01*
X0102747Y0270302D01*
X0102721Y0270457D01*
X0102700Y0270614D01*
X0102682Y0270770D01*
X0102668Y0270927D01*
X0102658Y0271085D01*
X0102652Y0271242D01*
X0102650Y0271400D01*
X0102650Y0197000D02*
X0102652Y0197158D01*
X0102658Y0197315D01*
X0102668Y0197473D01*
X0102682Y0197630D01*
X0102700Y0197786D01*
X0102721Y0197943D01*
X0102747Y0198098D01*
X0102777Y0198253D01*
X0102810Y0198407D01*
X0102848Y0198560D01*
X0102889Y0198713D01*
X0102934Y0198864D01*
X0102983Y0199014D01*
X0103036Y0199162D01*
X0103092Y0199310D01*
X0103153Y0199455D01*
X0103216Y0199600D01*
X0103284Y0199742D01*
X0103355Y0199883D01*
X0103429Y0200022D01*
X0103507Y0200159D01*
X0103589Y0200294D01*
X0103673Y0200427D01*
X0103762Y0200558D01*
X0103853Y0200686D01*
X0103948Y0200813D01*
X0104045Y0200936D01*
X0104146Y0201058D01*
X0104250Y0201176D01*
X0104357Y0201292D01*
X0104467Y0201405D01*
X0104579Y0201516D01*
X0104695Y0201623D01*
X0104813Y0201728D01*
X0104933Y0201830D01*
X0105056Y0201928D01*
X0105182Y0202024D01*
X0105310Y0202116D01*
X0105440Y0202205D01*
X0105572Y0202291D01*
X0105707Y0202373D01*
X0105844Y0202452D01*
X0105982Y0202527D01*
X0106122Y0202599D01*
X0106265Y0202667D01*
X0106408Y0202732D01*
X0106554Y0202793D01*
X0106701Y0202850D01*
X0106849Y0202904D01*
X0106999Y0202954D01*
X0107149Y0203000D01*
X0107301Y0203042D01*
X0107454Y0203081D01*
X0107608Y0203115D01*
X0107763Y0203146D01*
X0107918Y0203172D01*
X0108074Y0203195D01*
X0108231Y0203214D01*
X0108388Y0203229D01*
X0108545Y0203240D01*
X0108703Y0203247D01*
X0108861Y0203250D01*
X0109018Y0203249D01*
X0109176Y0203244D01*
X0109333Y0203235D01*
X0109491Y0203222D01*
X0109647Y0203205D01*
X0109804Y0203184D01*
X0109959Y0203160D01*
X0110114Y0203131D01*
X0110269Y0203098D01*
X0110422Y0203062D01*
X0110575Y0203021D01*
X0110726Y0202977D01*
X0110876Y0202929D01*
X0111025Y0202878D01*
X0111173Y0202822D01*
X0111319Y0202763D01*
X0111464Y0202700D01*
X0111607Y0202633D01*
X0111748Y0202563D01*
X0111887Y0202490D01*
X0112025Y0202413D01*
X0112161Y0202332D01*
X0112294Y0202248D01*
X0112425Y0202161D01*
X0112554Y0202070D01*
X0112681Y0201976D01*
X0112806Y0201879D01*
X0112927Y0201779D01*
X0113047Y0201676D01*
X0113163Y0201570D01*
X0113277Y0201461D01*
X0113389Y0201349D01*
X0113497Y0201235D01*
X0113602Y0201117D01*
X0113705Y0200997D01*
X0113804Y0200875D01*
X0113900Y0200750D01*
X0113993Y0200622D01*
X0114083Y0200493D01*
X0114169Y0200361D01*
X0114253Y0200227D01*
X0114332Y0200091D01*
X0114409Y0199953D01*
X0114481Y0199813D01*
X0114550Y0199671D01*
X0114616Y0199528D01*
X0114678Y0199383D01*
X0114736Y0199236D01*
X0114791Y0199088D01*
X0114842Y0198939D01*
X0114889Y0198788D01*
X0114932Y0198637D01*
X0114971Y0198484D01*
X0115007Y0198330D01*
X0115038Y0198176D01*
X0115066Y0198021D01*
X0115090Y0197865D01*
X0115110Y0197708D01*
X0115126Y0197551D01*
X0115138Y0197394D01*
X0115146Y0197237D01*
X0115150Y0197079D01*
X0115150Y0196921D01*
X0115146Y0196763D01*
X0115138Y0196606D01*
X0115126Y0196449D01*
X0115110Y0196292D01*
X0115090Y0196135D01*
X0115066Y0195979D01*
X0115038Y0195824D01*
X0115007Y0195670D01*
X0114971Y0195516D01*
X0114932Y0195363D01*
X0114889Y0195212D01*
X0114842Y0195061D01*
X0114791Y0194912D01*
X0114736Y0194764D01*
X0114678Y0194617D01*
X0114616Y0194472D01*
X0114550Y0194329D01*
X0114481Y0194187D01*
X0114409Y0194047D01*
X0114332Y0193909D01*
X0114253Y0193773D01*
X0114169Y0193639D01*
X0114083Y0193507D01*
X0113993Y0193378D01*
X0113900Y0193250D01*
X0113804Y0193125D01*
X0113705Y0193003D01*
X0113602Y0192883D01*
X0113497Y0192765D01*
X0113389Y0192651D01*
X0113277Y0192539D01*
X0113163Y0192430D01*
X0113047Y0192324D01*
X0112927Y0192221D01*
X0112806Y0192121D01*
X0112681Y0192024D01*
X0112554Y0191930D01*
X0112425Y0191839D01*
X0112294Y0191752D01*
X0112161Y0191668D01*
X0112025Y0191587D01*
X0111887Y0191510D01*
X0111748Y0191437D01*
X0111607Y0191367D01*
X0111464Y0191300D01*
X0111319Y0191237D01*
X0111173Y0191178D01*
X0111025Y0191122D01*
X0110876Y0191071D01*
X0110726Y0191023D01*
X0110575Y0190979D01*
X0110422Y0190938D01*
X0110269Y0190902D01*
X0110114Y0190869D01*
X0109959Y0190840D01*
X0109804Y0190816D01*
X0109647Y0190795D01*
X0109491Y0190778D01*
X0109333Y0190765D01*
X0109176Y0190756D01*
X0109018Y0190751D01*
X0108861Y0190750D01*
X0108703Y0190753D01*
X0108545Y0190760D01*
X0108388Y0190771D01*
X0108231Y0190786D01*
X0108074Y0190805D01*
X0107918Y0190828D01*
X0107763Y0190854D01*
X0107608Y0190885D01*
X0107454Y0190919D01*
X0107301Y0190958D01*
X0107149Y0191000D01*
X0106999Y0191046D01*
X0106849Y0191096D01*
X0106701Y0191150D01*
X0106554Y0191207D01*
X0106408Y0191268D01*
X0106265Y0191333D01*
X0106122Y0191401D01*
X0105982Y0191473D01*
X0105844Y0191548D01*
X0105707Y0191627D01*
X0105572Y0191709D01*
X0105440Y0191795D01*
X0105310Y0191884D01*
X0105182Y0191976D01*
X0105056Y0192072D01*
X0104933Y0192170D01*
X0104813Y0192272D01*
X0104695Y0192377D01*
X0104579Y0192484D01*
X0104467Y0192595D01*
X0104357Y0192708D01*
X0104250Y0192824D01*
X0104146Y0192942D01*
X0104045Y0193064D01*
X0103948Y0193187D01*
X0103853Y0193314D01*
X0103762Y0193442D01*
X0103673Y0193573D01*
X0103589Y0193706D01*
X0103507Y0193841D01*
X0103429Y0193978D01*
X0103355Y0194117D01*
X0103284Y0194258D01*
X0103216Y0194400D01*
X0103153Y0194545D01*
X0103092Y0194690D01*
X0103036Y0194838D01*
X0102983Y0194986D01*
X0102934Y0195136D01*
X0102889Y0195287D01*
X0102848Y0195440D01*
X0102810Y0195593D01*
X0102777Y0195747D01*
X0102747Y0195902D01*
X0102721Y0196057D01*
X0102700Y0196214D01*
X0102682Y0196370D01*
X0102668Y0196527D01*
X0102658Y0196685D01*
X0102652Y0196842D01*
X0102650Y0197000D01*
X0102650Y0122600D02*
X0102652Y0122758D01*
X0102658Y0122915D01*
X0102668Y0123073D01*
X0102682Y0123230D01*
X0102700Y0123386D01*
X0102721Y0123543D01*
X0102747Y0123698D01*
X0102777Y0123853D01*
X0102810Y0124007D01*
X0102848Y0124160D01*
X0102889Y0124313D01*
X0102934Y0124464D01*
X0102983Y0124614D01*
X0103036Y0124762D01*
X0103092Y0124910D01*
X0103153Y0125055D01*
X0103216Y0125200D01*
X0103284Y0125342D01*
X0103355Y0125483D01*
X0103429Y0125622D01*
X0103507Y0125759D01*
X0103589Y0125894D01*
X0103673Y0126027D01*
X0103762Y0126158D01*
X0103853Y0126286D01*
X0103948Y0126413D01*
X0104045Y0126536D01*
X0104146Y0126658D01*
X0104250Y0126776D01*
X0104357Y0126892D01*
X0104467Y0127005D01*
X0104579Y0127116D01*
X0104695Y0127223D01*
X0104813Y0127328D01*
X0104933Y0127430D01*
X0105056Y0127528D01*
X0105182Y0127624D01*
X0105310Y0127716D01*
X0105440Y0127805D01*
X0105572Y0127891D01*
X0105707Y0127973D01*
X0105844Y0128052D01*
X0105982Y0128127D01*
X0106122Y0128199D01*
X0106265Y0128267D01*
X0106408Y0128332D01*
X0106554Y0128393D01*
X0106701Y0128450D01*
X0106849Y0128504D01*
X0106999Y0128554D01*
X0107149Y0128600D01*
X0107301Y0128642D01*
X0107454Y0128681D01*
X0107608Y0128715D01*
X0107763Y0128746D01*
X0107918Y0128772D01*
X0108074Y0128795D01*
X0108231Y0128814D01*
X0108388Y0128829D01*
X0108545Y0128840D01*
X0108703Y0128847D01*
X0108861Y0128850D01*
X0109018Y0128849D01*
X0109176Y0128844D01*
X0109333Y0128835D01*
X0109491Y0128822D01*
X0109647Y0128805D01*
X0109804Y0128784D01*
X0109959Y0128760D01*
X0110114Y0128731D01*
X0110269Y0128698D01*
X0110422Y0128662D01*
X0110575Y0128621D01*
X0110726Y0128577D01*
X0110876Y0128529D01*
X0111025Y0128478D01*
X0111173Y0128422D01*
X0111319Y0128363D01*
X0111464Y0128300D01*
X0111607Y0128233D01*
X0111748Y0128163D01*
X0111887Y0128090D01*
X0112025Y0128013D01*
X0112161Y0127932D01*
X0112294Y0127848D01*
X0112425Y0127761D01*
X0112554Y0127670D01*
X0112681Y0127576D01*
X0112806Y0127479D01*
X0112927Y0127379D01*
X0113047Y0127276D01*
X0113163Y0127170D01*
X0113277Y0127061D01*
X0113389Y0126949D01*
X0113497Y0126835D01*
X0113602Y0126717D01*
X0113705Y0126597D01*
X0113804Y0126475D01*
X0113900Y0126350D01*
X0113993Y0126222D01*
X0114083Y0126093D01*
X0114169Y0125961D01*
X0114253Y0125827D01*
X0114332Y0125691D01*
X0114409Y0125553D01*
X0114481Y0125413D01*
X0114550Y0125271D01*
X0114616Y0125128D01*
X0114678Y0124983D01*
X0114736Y0124836D01*
X0114791Y0124688D01*
X0114842Y0124539D01*
X0114889Y0124388D01*
X0114932Y0124237D01*
X0114971Y0124084D01*
X0115007Y0123930D01*
X0115038Y0123776D01*
X0115066Y0123621D01*
X0115090Y0123465D01*
X0115110Y0123308D01*
X0115126Y0123151D01*
X0115138Y0122994D01*
X0115146Y0122837D01*
X0115150Y0122679D01*
X0115150Y0122521D01*
X0115146Y0122363D01*
X0115138Y0122206D01*
X0115126Y0122049D01*
X0115110Y0121892D01*
X0115090Y0121735D01*
X0115066Y0121579D01*
X0115038Y0121424D01*
X0115007Y0121270D01*
X0114971Y0121116D01*
X0114932Y0120963D01*
X0114889Y0120812D01*
X0114842Y0120661D01*
X0114791Y0120512D01*
X0114736Y0120364D01*
X0114678Y0120217D01*
X0114616Y0120072D01*
X0114550Y0119929D01*
X0114481Y0119787D01*
X0114409Y0119647D01*
X0114332Y0119509D01*
X0114253Y0119373D01*
X0114169Y0119239D01*
X0114083Y0119107D01*
X0113993Y0118978D01*
X0113900Y0118850D01*
X0113804Y0118725D01*
X0113705Y0118603D01*
X0113602Y0118483D01*
X0113497Y0118365D01*
X0113389Y0118251D01*
X0113277Y0118139D01*
X0113163Y0118030D01*
X0113047Y0117924D01*
X0112927Y0117821D01*
X0112806Y0117721D01*
X0112681Y0117624D01*
X0112554Y0117530D01*
X0112425Y0117439D01*
X0112294Y0117352D01*
X0112161Y0117268D01*
X0112025Y0117187D01*
X0111887Y0117110D01*
X0111748Y0117037D01*
X0111607Y0116967D01*
X0111464Y0116900D01*
X0111319Y0116837D01*
X0111173Y0116778D01*
X0111025Y0116722D01*
X0110876Y0116671D01*
X0110726Y0116623D01*
X0110575Y0116579D01*
X0110422Y0116538D01*
X0110269Y0116502D01*
X0110114Y0116469D01*
X0109959Y0116440D01*
X0109804Y0116416D01*
X0109647Y0116395D01*
X0109491Y0116378D01*
X0109333Y0116365D01*
X0109176Y0116356D01*
X0109018Y0116351D01*
X0108861Y0116350D01*
X0108703Y0116353D01*
X0108545Y0116360D01*
X0108388Y0116371D01*
X0108231Y0116386D01*
X0108074Y0116405D01*
X0107918Y0116428D01*
X0107763Y0116454D01*
X0107608Y0116485D01*
X0107454Y0116519D01*
X0107301Y0116558D01*
X0107149Y0116600D01*
X0106999Y0116646D01*
X0106849Y0116696D01*
X0106701Y0116750D01*
X0106554Y0116807D01*
X0106408Y0116868D01*
X0106265Y0116933D01*
X0106122Y0117001D01*
X0105982Y0117073D01*
X0105844Y0117148D01*
X0105707Y0117227D01*
X0105572Y0117309D01*
X0105440Y0117395D01*
X0105310Y0117484D01*
X0105182Y0117576D01*
X0105056Y0117672D01*
X0104933Y0117770D01*
X0104813Y0117872D01*
X0104695Y0117977D01*
X0104579Y0118084D01*
X0104467Y0118195D01*
X0104357Y0118308D01*
X0104250Y0118424D01*
X0104146Y0118542D01*
X0104045Y0118664D01*
X0103948Y0118787D01*
X0103853Y0118914D01*
X0103762Y0119042D01*
X0103673Y0119173D01*
X0103589Y0119306D01*
X0103507Y0119441D01*
X0103429Y0119578D01*
X0103355Y0119717D01*
X0103284Y0119858D01*
X0103216Y0120000D01*
X0103153Y0120145D01*
X0103092Y0120290D01*
X0103036Y0120438D01*
X0102983Y0120586D01*
X0102934Y0120736D01*
X0102889Y0120887D01*
X0102848Y0121040D01*
X0102810Y0121193D01*
X0102777Y0121347D01*
X0102747Y0121502D01*
X0102721Y0121657D01*
X0102700Y0121814D01*
X0102682Y0121970D01*
X0102668Y0122127D01*
X0102658Y0122285D01*
X0102652Y0122442D01*
X0102650Y0122600D01*
X0102650Y0048200D02*
X0102652Y0048358D01*
X0102658Y0048515D01*
X0102668Y0048673D01*
X0102682Y0048830D01*
X0102700Y0048986D01*
X0102721Y0049143D01*
X0102747Y0049298D01*
X0102777Y0049453D01*
X0102810Y0049607D01*
X0102848Y0049760D01*
X0102889Y0049913D01*
X0102934Y0050064D01*
X0102983Y0050214D01*
X0103036Y0050362D01*
X0103092Y0050510D01*
X0103153Y0050655D01*
X0103216Y0050800D01*
X0103284Y0050942D01*
X0103355Y0051083D01*
X0103429Y0051222D01*
X0103507Y0051359D01*
X0103589Y0051494D01*
X0103673Y0051627D01*
X0103762Y0051758D01*
X0103853Y0051886D01*
X0103948Y0052013D01*
X0104045Y0052136D01*
X0104146Y0052258D01*
X0104250Y0052376D01*
X0104357Y0052492D01*
X0104467Y0052605D01*
X0104579Y0052716D01*
X0104695Y0052823D01*
X0104813Y0052928D01*
X0104933Y0053030D01*
X0105056Y0053128D01*
X0105182Y0053224D01*
X0105310Y0053316D01*
X0105440Y0053405D01*
X0105572Y0053491D01*
X0105707Y0053573D01*
X0105844Y0053652D01*
X0105982Y0053727D01*
X0106122Y0053799D01*
X0106265Y0053867D01*
X0106408Y0053932D01*
X0106554Y0053993D01*
X0106701Y0054050D01*
X0106849Y0054104D01*
X0106999Y0054154D01*
X0107149Y0054200D01*
X0107301Y0054242D01*
X0107454Y0054281D01*
X0107608Y0054315D01*
X0107763Y0054346D01*
X0107918Y0054372D01*
X0108074Y0054395D01*
X0108231Y0054414D01*
X0108388Y0054429D01*
X0108545Y0054440D01*
X0108703Y0054447D01*
X0108861Y0054450D01*
X0109018Y0054449D01*
X0109176Y0054444D01*
X0109333Y0054435D01*
X0109491Y0054422D01*
X0109647Y0054405D01*
X0109804Y0054384D01*
X0109959Y0054360D01*
X0110114Y0054331D01*
X0110269Y0054298D01*
X0110422Y0054262D01*
X0110575Y0054221D01*
X0110726Y0054177D01*
X0110876Y0054129D01*
X0111025Y0054078D01*
X0111173Y0054022D01*
X0111319Y0053963D01*
X0111464Y0053900D01*
X0111607Y0053833D01*
X0111748Y0053763D01*
X0111887Y0053690D01*
X0112025Y0053613D01*
X0112161Y0053532D01*
X0112294Y0053448D01*
X0112425Y0053361D01*
X0112554Y0053270D01*
X0112681Y0053176D01*
X0112806Y0053079D01*
X0112927Y0052979D01*
X0113047Y0052876D01*
X0113163Y0052770D01*
X0113277Y0052661D01*
X0113389Y0052549D01*
X0113497Y0052435D01*
X0113602Y0052317D01*
X0113705Y0052197D01*
X0113804Y0052075D01*
X0113900Y0051950D01*
X0113993Y0051822D01*
X0114083Y0051693D01*
X0114169Y0051561D01*
X0114253Y0051427D01*
X0114332Y0051291D01*
X0114409Y0051153D01*
X0114481Y0051013D01*
X0114550Y0050871D01*
X0114616Y0050728D01*
X0114678Y0050583D01*
X0114736Y0050436D01*
X0114791Y0050288D01*
X0114842Y0050139D01*
X0114889Y0049988D01*
X0114932Y0049837D01*
X0114971Y0049684D01*
X0115007Y0049530D01*
X0115038Y0049376D01*
X0115066Y0049221D01*
X0115090Y0049065D01*
X0115110Y0048908D01*
X0115126Y0048751D01*
X0115138Y0048594D01*
X0115146Y0048437D01*
X0115150Y0048279D01*
X0115150Y0048121D01*
X0115146Y0047963D01*
X0115138Y0047806D01*
X0115126Y0047649D01*
X0115110Y0047492D01*
X0115090Y0047335D01*
X0115066Y0047179D01*
X0115038Y0047024D01*
X0115007Y0046870D01*
X0114971Y0046716D01*
X0114932Y0046563D01*
X0114889Y0046412D01*
X0114842Y0046261D01*
X0114791Y0046112D01*
X0114736Y0045964D01*
X0114678Y0045817D01*
X0114616Y0045672D01*
X0114550Y0045529D01*
X0114481Y0045387D01*
X0114409Y0045247D01*
X0114332Y0045109D01*
X0114253Y0044973D01*
X0114169Y0044839D01*
X0114083Y0044707D01*
X0113993Y0044578D01*
X0113900Y0044450D01*
X0113804Y0044325D01*
X0113705Y0044203D01*
X0113602Y0044083D01*
X0113497Y0043965D01*
X0113389Y0043851D01*
X0113277Y0043739D01*
X0113163Y0043630D01*
X0113047Y0043524D01*
X0112927Y0043421D01*
X0112806Y0043321D01*
X0112681Y0043224D01*
X0112554Y0043130D01*
X0112425Y0043039D01*
X0112294Y0042952D01*
X0112161Y0042868D01*
X0112025Y0042787D01*
X0111887Y0042710D01*
X0111748Y0042637D01*
X0111607Y0042567D01*
X0111464Y0042500D01*
X0111319Y0042437D01*
X0111173Y0042378D01*
X0111025Y0042322D01*
X0110876Y0042271D01*
X0110726Y0042223D01*
X0110575Y0042179D01*
X0110422Y0042138D01*
X0110269Y0042102D01*
X0110114Y0042069D01*
X0109959Y0042040D01*
X0109804Y0042016D01*
X0109647Y0041995D01*
X0109491Y0041978D01*
X0109333Y0041965D01*
X0109176Y0041956D01*
X0109018Y0041951D01*
X0108861Y0041950D01*
X0108703Y0041953D01*
X0108545Y0041960D01*
X0108388Y0041971D01*
X0108231Y0041986D01*
X0108074Y0042005D01*
X0107918Y0042028D01*
X0107763Y0042054D01*
X0107608Y0042085D01*
X0107454Y0042119D01*
X0107301Y0042158D01*
X0107149Y0042200D01*
X0106999Y0042246D01*
X0106849Y0042296D01*
X0106701Y0042350D01*
X0106554Y0042407D01*
X0106408Y0042468D01*
X0106265Y0042533D01*
X0106122Y0042601D01*
X0105982Y0042673D01*
X0105844Y0042748D01*
X0105707Y0042827D01*
X0105572Y0042909D01*
X0105440Y0042995D01*
X0105310Y0043084D01*
X0105182Y0043176D01*
X0105056Y0043272D01*
X0104933Y0043370D01*
X0104813Y0043472D01*
X0104695Y0043577D01*
X0104579Y0043684D01*
X0104467Y0043795D01*
X0104357Y0043908D01*
X0104250Y0044024D01*
X0104146Y0044142D01*
X0104045Y0044264D01*
X0103948Y0044387D01*
X0103853Y0044514D01*
X0103762Y0044642D01*
X0103673Y0044773D01*
X0103589Y0044906D01*
X0103507Y0045041D01*
X0103429Y0045178D01*
X0103355Y0045317D01*
X0103284Y0045458D01*
X0103216Y0045600D01*
X0103153Y0045745D01*
X0103092Y0045890D01*
X0103036Y0046038D01*
X0102983Y0046186D01*
X0102934Y0046336D01*
X0102889Y0046487D01*
X0102848Y0046640D01*
X0102810Y0046793D01*
X0102777Y0046947D01*
X0102747Y0047102D01*
X0102721Y0047257D01*
X0102700Y0047414D01*
X0102682Y0047570D01*
X0102668Y0047727D01*
X0102658Y0047885D01*
X0102652Y0048042D01*
X0102650Y0048200D01*
X0297350Y0048200D02*
X0297352Y0048358D01*
X0297358Y0048515D01*
X0297368Y0048673D01*
X0297382Y0048830D01*
X0297400Y0048986D01*
X0297421Y0049143D01*
X0297447Y0049298D01*
X0297477Y0049453D01*
X0297510Y0049607D01*
X0297548Y0049760D01*
X0297589Y0049913D01*
X0297634Y0050064D01*
X0297683Y0050214D01*
X0297736Y0050362D01*
X0297792Y0050510D01*
X0297853Y0050655D01*
X0297916Y0050800D01*
X0297984Y0050942D01*
X0298055Y0051083D01*
X0298129Y0051222D01*
X0298207Y0051359D01*
X0298289Y0051494D01*
X0298373Y0051627D01*
X0298462Y0051758D01*
X0298553Y0051886D01*
X0298648Y0052013D01*
X0298745Y0052136D01*
X0298846Y0052258D01*
X0298950Y0052376D01*
X0299057Y0052492D01*
X0299167Y0052605D01*
X0299279Y0052716D01*
X0299395Y0052823D01*
X0299513Y0052928D01*
X0299633Y0053030D01*
X0299756Y0053128D01*
X0299882Y0053224D01*
X0300010Y0053316D01*
X0300140Y0053405D01*
X0300272Y0053491D01*
X0300407Y0053573D01*
X0300544Y0053652D01*
X0300682Y0053727D01*
X0300822Y0053799D01*
X0300965Y0053867D01*
X0301108Y0053932D01*
X0301254Y0053993D01*
X0301401Y0054050D01*
X0301549Y0054104D01*
X0301699Y0054154D01*
X0301849Y0054200D01*
X0302001Y0054242D01*
X0302154Y0054281D01*
X0302308Y0054315D01*
X0302463Y0054346D01*
X0302618Y0054372D01*
X0302774Y0054395D01*
X0302931Y0054414D01*
X0303088Y0054429D01*
X0303245Y0054440D01*
X0303403Y0054447D01*
X0303561Y0054450D01*
X0303718Y0054449D01*
X0303876Y0054444D01*
X0304033Y0054435D01*
X0304191Y0054422D01*
X0304347Y0054405D01*
X0304504Y0054384D01*
X0304659Y0054360D01*
X0304814Y0054331D01*
X0304969Y0054298D01*
X0305122Y0054262D01*
X0305275Y0054221D01*
X0305426Y0054177D01*
X0305576Y0054129D01*
X0305725Y0054078D01*
X0305873Y0054022D01*
X0306019Y0053963D01*
X0306164Y0053900D01*
X0306307Y0053833D01*
X0306448Y0053763D01*
X0306587Y0053690D01*
X0306725Y0053613D01*
X0306861Y0053532D01*
X0306994Y0053448D01*
X0307125Y0053361D01*
X0307254Y0053270D01*
X0307381Y0053176D01*
X0307506Y0053079D01*
X0307627Y0052979D01*
X0307747Y0052876D01*
X0307863Y0052770D01*
X0307977Y0052661D01*
X0308089Y0052549D01*
X0308197Y0052435D01*
X0308302Y0052317D01*
X0308405Y0052197D01*
X0308504Y0052075D01*
X0308600Y0051950D01*
X0308693Y0051822D01*
X0308783Y0051693D01*
X0308869Y0051561D01*
X0308953Y0051427D01*
X0309032Y0051291D01*
X0309109Y0051153D01*
X0309181Y0051013D01*
X0309250Y0050871D01*
X0309316Y0050728D01*
X0309378Y0050583D01*
X0309436Y0050436D01*
X0309491Y0050288D01*
X0309542Y0050139D01*
X0309589Y0049988D01*
X0309632Y0049837D01*
X0309671Y0049684D01*
X0309707Y0049530D01*
X0309738Y0049376D01*
X0309766Y0049221D01*
X0309790Y0049065D01*
X0309810Y0048908D01*
X0309826Y0048751D01*
X0309838Y0048594D01*
X0309846Y0048437D01*
X0309850Y0048279D01*
X0309850Y0048121D01*
X0309846Y0047963D01*
X0309838Y0047806D01*
X0309826Y0047649D01*
X0309810Y0047492D01*
X0309790Y0047335D01*
X0309766Y0047179D01*
X0309738Y0047024D01*
X0309707Y0046870D01*
X0309671Y0046716D01*
X0309632Y0046563D01*
X0309589Y0046412D01*
X0309542Y0046261D01*
X0309491Y0046112D01*
X0309436Y0045964D01*
X0309378Y0045817D01*
X0309316Y0045672D01*
X0309250Y0045529D01*
X0309181Y0045387D01*
X0309109Y0045247D01*
X0309032Y0045109D01*
X0308953Y0044973D01*
X0308869Y0044839D01*
X0308783Y0044707D01*
X0308693Y0044578D01*
X0308600Y0044450D01*
X0308504Y0044325D01*
X0308405Y0044203D01*
X0308302Y0044083D01*
X0308197Y0043965D01*
X0308089Y0043851D01*
X0307977Y0043739D01*
X0307863Y0043630D01*
X0307747Y0043524D01*
X0307627Y0043421D01*
X0307506Y0043321D01*
X0307381Y0043224D01*
X0307254Y0043130D01*
X0307125Y0043039D01*
X0306994Y0042952D01*
X0306861Y0042868D01*
X0306725Y0042787D01*
X0306587Y0042710D01*
X0306448Y0042637D01*
X0306307Y0042567D01*
X0306164Y0042500D01*
X0306019Y0042437D01*
X0305873Y0042378D01*
X0305725Y0042322D01*
X0305576Y0042271D01*
X0305426Y0042223D01*
X0305275Y0042179D01*
X0305122Y0042138D01*
X0304969Y0042102D01*
X0304814Y0042069D01*
X0304659Y0042040D01*
X0304504Y0042016D01*
X0304347Y0041995D01*
X0304191Y0041978D01*
X0304033Y0041965D01*
X0303876Y0041956D01*
X0303718Y0041951D01*
X0303561Y0041950D01*
X0303403Y0041953D01*
X0303245Y0041960D01*
X0303088Y0041971D01*
X0302931Y0041986D01*
X0302774Y0042005D01*
X0302618Y0042028D01*
X0302463Y0042054D01*
X0302308Y0042085D01*
X0302154Y0042119D01*
X0302001Y0042158D01*
X0301849Y0042200D01*
X0301699Y0042246D01*
X0301549Y0042296D01*
X0301401Y0042350D01*
X0301254Y0042407D01*
X0301108Y0042468D01*
X0300965Y0042533D01*
X0300822Y0042601D01*
X0300682Y0042673D01*
X0300544Y0042748D01*
X0300407Y0042827D01*
X0300272Y0042909D01*
X0300140Y0042995D01*
X0300010Y0043084D01*
X0299882Y0043176D01*
X0299756Y0043272D01*
X0299633Y0043370D01*
X0299513Y0043472D01*
X0299395Y0043577D01*
X0299279Y0043684D01*
X0299167Y0043795D01*
X0299057Y0043908D01*
X0298950Y0044024D01*
X0298846Y0044142D01*
X0298745Y0044264D01*
X0298648Y0044387D01*
X0298553Y0044514D01*
X0298462Y0044642D01*
X0298373Y0044773D01*
X0298289Y0044906D01*
X0298207Y0045041D01*
X0298129Y0045178D01*
X0298055Y0045317D01*
X0297984Y0045458D01*
X0297916Y0045600D01*
X0297853Y0045745D01*
X0297792Y0045890D01*
X0297736Y0046038D01*
X0297683Y0046186D01*
X0297634Y0046336D01*
X0297589Y0046487D01*
X0297548Y0046640D01*
X0297510Y0046793D01*
X0297477Y0046947D01*
X0297447Y0047102D01*
X0297421Y0047257D01*
X0297400Y0047414D01*
X0297382Y0047570D01*
X0297368Y0047727D01*
X0297358Y0047885D01*
X0297352Y0048042D01*
X0297350Y0048200D01*
X0345566Y0101520D02*
X0345568Y0101601D01*
X0345574Y0101683D01*
X0345584Y0101764D01*
X0345598Y0101844D01*
X0345615Y0101923D01*
X0345637Y0102002D01*
X0345662Y0102079D01*
X0345691Y0102156D01*
X0345724Y0102230D01*
X0345761Y0102303D01*
X0345800Y0102374D01*
X0345844Y0102443D01*
X0345890Y0102510D01*
X0345940Y0102574D01*
X0345993Y0102636D01*
X0346049Y0102696D01*
X0346107Y0102752D01*
X0346169Y0102806D01*
X0346233Y0102857D01*
X0346299Y0102904D01*
X0346367Y0102948D01*
X0346438Y0102989D01*
X0346510Y0103026D01*
X0346585Y0103060D01*
X0346660Y0103090D01*
X0346738Y0103116D01*
X0346816Y0103139D01*
X0346895Y0103157D01*
X0346975Y0103172D01*
X0347056Y0103183D01*
X0347137Y0103190D01*
X0347219Y0103193D01*
X0347300Y0103192D01*
X0347381Y0103187D01*
X0347462Y0103178D01*
X0347543Y0103165D01*
X0347623Y0103148D01*
X0347701Y0103128D01*
X0347779Y0103103D01*
X0347856Y0103075D01*
X0347931Y0103043D01*
X0348004Y0103008D01*
X0348075Y0102969D01*
X0348145Y0102926D01*
X0348212Y0102881D01*
X0348278Y0102832D01*
X0348340Y0102780D01*
X0348400Y0102724D01*
X0348457Y0102666D01*
X0348512Y0102606D01*
X0348563Y0102542D01*
X0348611Y0102477D01*
X0348656Y0102409D01*
X0348698Y0102339D01*
X0348736Y0102267D01*
X0348771Y0102193D01*
X0348802Y0102118D01*
X0348829Y0102041D01*
X0348852Y0101963D01*
X0348872Y0101884D01*
X0348888Y0101804D01*
X0348900Y0101723D01*
X0348908Y0101642D01*
X0348912Y0101561D01*
X0348912Y0101479D01*
X0348908Y0101398D01*
X0348900Y0101317D01*
X0348888Y0101236D01*
X0348872Y0101156D01*
X0348852Y0101077D01*
X0348829Y0100999D01*
X0348802Y0100922D01*
X0348771Y0100847D01*
X0348736Y0100773D01*
X0348698Y0100701D01*
X0348656Y0100631D01*
X0348611Y0100563D01*
X0348563Y0100498D01*
X0348512Y0100434D01*
X0348457Y0100374D01*
X0348400Y0100316D01*
X0348340Y0100260D01*
X0348278Y0100208D01*
X0348212Y0100159D01*
X0348145Y0100114D01*
X0348076Y0100071D01*
X0348004Y0100032D01*
X0347931Y0099997D01*
X0347856Y0099965D01*
X0347779Y0099937D01*
X0347701Y0099912D01*
X0347623Y0099892D01*
X0347543Y0099875D01*
X0347462Y0099862D01*
X0347381Y0099853D01*
X0347300Y0099848D01*
X0347219Y0099847D01*
X0347137Y0099850D01*
X0347056Y0099857D01*
X0346975Y0099868D01*
X0346895Y0099883D01*
X0346816Y0099901D01*
X0346738Y0099924D01*
X0346660Y0099950D01*
X0346585Y0099980D01*
X0346510Y0100014D01*
X0346438Y0100051D01*
X0346367Y0100092D01*
X0346299Y0100136D01*
X0346233Y0100183D01*
X0346169Y0100234D01*
X0346107Y0100288D01*
X0346049Y0100344D01*
X0345993Y0100404D01*
X0345940Y0100466D01*
X0345890Y0100530D01*
X0345844Y0100597D01*
X0345800Y0100666D01*
X0345761Y0100737D01*
X0345724Y0100810D01*
X0345691Y0100884D01*
X0345662Y0100961D01*
X0345637Y0101038D01*
X0345615Y0101117D01*
X0345598Y0101196D01*
X0345584Y0101276D01*
X0345574Y0101357D01*
X0345568Y0101439D01*
X0345566Y0101520D01*
X0345566Y0116480D02*
X0345568Y0116561D01*
X0345574Y0116643D01*
X0345584Y0116724D01*
X0345598Y0116804D01*
X0345615Y0116883D01*
X0345637Y0116962D01*
X0345662Y0117039D01*
X0345691Y0117116D01*
X0345724Y0117190D01*
X0345761Y0117263D01*
X0345800Y0117334D01*
X0345844Y0117403D01*
X0345890Y0117470D01*
X0345940Y0117534D01*
X0345993Y0117596D01*
X0346049Y0117656D01*
X0346107Y0117712D01*
X0346169Y0117766D01*
X0346233Y0117817D01*
X0346299Y0117864D01*
X0346367Y0117908D01*
X0346438Y0117949D01*
X0346510Y0117986D01*
X0346585Y0118020D01*
X0346660Y0118050D01*
X0346738Y0118076D01*
X0346816Y0118099D01*
X0346895Y0118117D01*
X0346975Y0118132D01*
X0347056Y0118143D01*
X0347137Y0118150D01*
X0347219Y0118153D01*
X0347300Y0118152D01*
X0347381Y0118147D01*
X0347462Y0118138D01*
X0347543Y0118125D01*
X0347623Y0118108D01*
X0347701Y0118088D01*
X0347779Y0118063D01*
X0347856Y0118035D01*
X0347931Y0118003D01*
X0348004Y0117968D01*
X0348075Y0117929D01*
X0348145Y0117886D01*
X0348212Y0117841D01*
X0348278Y0117792D01*
X0348340Y0117740D01*
X0348400Y0117684D01*
X0348457Y0117626D01*
X0348512Y0117566D01*
X0348563Y0117502D01*
X0348611Y0117437D01*
X0348656Y0117369D01*
X0348698Y0117299D01*
X0348736Y0117227D01*
X0348771Y0117153D01*
X0348802Y0117078D01*
X0348829Y0117001D01*
X0348852Y0116923D01*
X0348872Y0116844D01*
X0348888Y0116764D01*
X0348900Y0116683D01*
X0348908Y0116602D01*
X0348912Y0116521D01*
X0348912Y0116439D01*
X0348908Y0116358D01*
X0348900Y0116277D01*
X0348888Y0116196D01*
X0348872Y0116116D01*
X0348852Y0116037D01*
X0348829Y0115959D01*
X0348802Y0115882D01*
X0348771Y0115807D01*
X0348736Y0115733D01*
X0348698Y0115661D01*
X0348656Y0115591D01*
X0348611Y0115523D01*
X0348563Y0115458D01*
X0348512Y0115394D01*
X0348457Y0115334D01*
X0348400Y0115276D01*
X0348340Y0115220D01*
X0348278Y0115168D01*
X0348212Y0115119D01*
X0348145Y0115074D01*
X0348076Y0115031D01*
X0348004Y0114992D01*
X0347931Y0114957D01*
X0347856Y0114925D01*
X0347779Y0114897D01*
X0347701Y0114872D01*
X0347623Y0114852D01*
X0347543Y0114835D01*
X0347462Y0114822D01*
X0347381Y0114813D01*
X0347300Y0114808D01*
X0347219Y0114807D01*
X0347137Y0114810D01*
X0347056Y0114817D01*
X0346975Y0114828D01*
X0346895Y0114843D01*
X0346816Y0114861D01*
X0346738Y0114884D01*
X0346660Y0114910D01*
X0346585Y0114940D01*
X0346510Y0114974D01*
X0346438Y0115011D01*
X0346367Y0115052D01*
X0346299Y0115096D01*
X0346233Y0115143D01*
X0346169Y0115194D01*
X0346107Y0115248D01*
X0346049Y0115304D01*
X0345993Y0115364D01*
X0345940Y0115426D01*
X0345890Y0115490D01*
X0345844Y0115557D01*
X0345800Y0115626D01*
X0345761Y0115697D01*
X0345724Y0115770D01*
X0345691Y0115844D01*
X0345662Y0115921D01*
X0345637Y0115998D01*
X0345615Y0116077D01*
X0345598Y0116156D01*
X0345584Y0116236D01*
X0345574Y0116317D01*
X0345568Y0116399D01*
X0345566Y0116480D01*
X0297350Y0122600D02*
X0297352Y0122758D01*
X0297358Y0122915D01*
X0297368Y0123073D01*
X0297382Y0123230D01*
X0297400Y0123386D01*
X0297421Y0123543D01*
X0297447Y0123698D01*
X0297477Y0123853D01*
X0297510Y0124007D01*
X0297548Y0124160D01*
X0297589Y0124313D01*
X0297634Y0124464D01*
X0297683Y0124614D01*
X0297736Y0124762D01*
X0297792Y0124910D01*
X0297853Y0125055D01*
X0297916Y0125200D01*
X0297984Y0125342D01*
X0298055Y0125483D01*
X0298129Y0125622D01*
X0298207Y0125759D01*
X0298289Y0125894D01*
X0298373Y0126027D01*
X0298462Y0126158D01*
X0298553Y0126286D01*
X0298648Y0126413D01*
X0298745Y0126536D01*
X0298846Y0126658D01*
X0298950Y0126776D01*
X0299057Y0126892D01*
X0299167Y0127005D01*
X0299279Y0127116D01*
X0299395Y0127223D01*
X0299513Y0127328D01*
X0299633Y0127430D01*
X0299756Y0127528D01*
X0299882Y0127624D01*
X0300010Y0127716D01*
X0300140Y0127805D01*
X0300272Y0127891D01*
X0300407Y0127973D01*
X0300544Y0128052D01*
X0300682Y0128127D01*
X0300822Y0128199D01*
X0300965Y0128267D01*
X0301108Y0128332D01*
X0301254Y0128393D01*
X0301401Y0128450D01*
X0301549Y0128504D01*
X0301699Y0128554D01*
X0301849Y0128600D01*
X0302001Y0128642D01*
X0302154Y0128681D01*
X0302308Y0128715D01*
X0302463Y0128746D01*
X0302618Y0128772D01*
X0302774Y0128795D01*
X0302931Y0128814D01*
X0303088Y0128829D01*
X0303245Y0128840D01*
X0303403Y0128847D01*
X0303561Y0128850D01*
X0303718Y0128849D01*
X0303876Y0128844D01*
X0304033Y0128835D01*
X0304191Y0128822D01*
X0304347Y0128805D01*
X0304504Y0128784D01*
X0304659Y0128760D01*
X0304814Y0128731D01*
X0304969Y0128698D01*
X0305122Y0128662D01*
X0305275Y0128621D01*
X0305426Y0128577D01*
X0305576Y0128529D01*
X0305725Y0128478D01*
X0305873Y0128422D01*
X0306019Y0128363D01*
X0306164Y0128300D01*
X0306307Y0128233D01*
X0306448Y0128163D01*
X0306587Y0128090D01*
X0306725Y0128013D01*
X0306861Y0127932D01*
X0306994Y0127848D01*
X0307125Y0127761D01*
X0307254Y0127670D01*
X0307381Y0127576D01*
X0307506Y0127479D01*
X0307627Y0127379D01*
X0307747Y0127276D01*
X0307863Y0127170D01*
X0307977Y0127061D01*
X0308089Y0126949D01*
X0308197Y0126835D01*
X0308302Y0126717D01*
X0308405Y0126597D01*
X0308504Y0126475D01*
X0308600Y0126350D01*
X0308693Y0126222D01*
X0308783Y0126093D01*
X0308869Y0125961D01*
X0308953Y0125827D01*
X0309032Y0125691D01*
X0309109Y0125553D01*
X0309181Y0125413D01*
X0309250Y0125271D01*
X0309316Y0125128D01*
X0309378Y0124983D01*
X0309436Y0124836D01*
X0309491Y0124688D01*
X0309542Y0124539D01*
X0309589Y0124388D01*
X0309632Y0124237D01*
X0309671Y0124084D01*
X0309707Y0123930D01*
X0309738Y0123776D01*
X0309766Y0123621D01*
X0309790Y0123465D01*
X0309810Y0123308D01*
X0309826Y0123151D01*
X0309838Y0122994D01*
X0309846Y0122837D01*
X0309850Y0122679D01*
X0309850Y0122521D01*
X0309846Y0122363D01*
X0309838Y0122206D01*
X0309826Y0122049D01*
X0309810Y0121892D01*
X0309790Y0121735D01*
X0309766Y0121579D01*
X0309738Y0121424D01*
X0309707Y0121270D01*
X0309671Y0121116D01*
X0309632Y0120963D01*
X0309589Y0120812D01*
X0309542Y0120661D01*
X0309491Y0120512D01*
X0309436Y0120364D01*
X0309378Y0120217D01*
X0309316Y0120072D01*
X0309250Y0119929D01*
X0309181Y0119787D01*
X0309109Y0119647D01*
X0309032Y0119509D01*
X0308953Y0119373D01*
X0308869Y0119239D01*
X0308783Y0119107D01*
X0308693Y0118978D01*
X0308600Y0118850D01*
X0308504Y0118725D01*
X0308405Y0118603D01*
X0308302Y0118483D01*
X0308197Y0118365D01*
X0308089Y0118251D01*
X0307977Y0118139D01*
X0307863Y0118030D01*
X0307747Y0117924D01*
X0307627Y0117821D01*
X0307506Y0117721D01*
X0307381Y0117624D01*
X0307254Y0117530D01*
X0307125Y0117439D01*
X0306994Y0117352D01*
X0306861Y0117268D01*
X0306725Y0117187D01*
X0306587Y0117110D01*
X0306448Y0117037D01*
X0306307Y0116967D01*
X0306164Y0116900D01*
X0306019Y0116837D01*
X0305873Y0116778D01*
X0305725Y0116722D01*
X0305576Y0116671D01*
X0305426Y0116623D01*
X0305275Y0116579D01*
X0305122Y0116538D01*
X0304969Y0116502D01*
X0304814Y0116469D01*
X0304659Y0116440D01*
X0304504Y0116416D01*
X0304347Y0116395D01*
X0304191Y0116378D01*
X0304033Y0116365D01*
X0303876Y0116356D01*
X0303718Y0116351D01*
X0303561Y0116350D01*
X0303403Y0116353D01*
X0303245Y0116360D01*
X0303088Y0116371D01*
X0302931Y0116386D01*
X0302774Y0116405D01*
X0302618Y0116428D01*
X0302463Y0116454D01*
X0302308Y0116485D01*
X0302154Y0116519D01*
X0302001Y0116558D01*
X0301849Y0116600D01*
X0301699Y0116646D01*
X0301549Y0116696D01*
X0301401Y0116750D01*
X0301254Y0116807D01*
X0301108Y0116868D01*
X0300965Y0116933D01*
X0300822Y0117001D01*
X0300682Y0117073D01*
X0300544Y0117148D01*
X0300407Y0117227D01*
X0300272Y0117309D01*
X0300140Y0117395D01*
X0300010Y0117484D01*
X0299882Y0117576D01*
X0299756Y0117672D01*
X0299633Y0117770D01*
X0299513Y0117872D01*
X0299395Y0117977D01*
X0299279Y0118084D01*
X0299167Y0118195D01*
X0299057Y0118308D01*
X0298950Y0118424D01*
X0298846Y0118542D01*
X0298745Y0118664D01*
X0298648Y0118787D01*
X0298553Y0118914D01*
X0298462Y0119042D01*
X0298373Y0119173D01*
X0298289Y0119306D01*
X0298207Y0119441D01*
X0298129Y0119578D01*
X0298055Y0119717D01*
X0297984Y0119858D01*
X0297916Y0120000D01*
X0297853Y0120145D01*
X0297792Y0120290D01*
X0297736Y0120438D01*
X0297683Y0120586D01*
X0297634Y0120736D01*
X0297589Y0120887D01*
X0297548Y0121040D01*
X0297510Y0121193D01*
X0297477Y0121347D01*
X0297447Y0121502D01*
X0297421Y0121657D01*
X0297400Y0121814D01*
X0297382Y0121970D01*
X0297368Y0122127D01*
X0297358Y0122285D01*
X0297352Y0122442D01*
X0297350Y0122600D01*
X0297350Y0271400D02*
X0297352Y0271558D01*
X0297358Y0271715D01*
X0297368Y0271873D01*
X0297382Y0272030D01*
X0297400Y0272186D01*
X0297421Y0272343D01*
X0297447Y0272498D01*
X0297477Y0272653D01*
X0297510Y0272807D01*
X0297548Y0272960D01*
X0297589Y0273113D01*
X0297634Y0273264D01*
X0297683Y0273414D01*
X0297736Y0273562D01*
X0297792Y0273710D01*
X0297853Y0273855D01*
X0297916Y0274000D01*
X0297984Y0274142D01*
X0298055Y0274283D01*
X0298129Y0274422D01*
X0298207Y0274559D01*
X0298289Y0274694D01*
X0298373Y0274827D01*
X0298462Y0274958D01*
X0298553Y0275086D01*
X0298648Y0275213D01*
X0298745Y0275336D01*
X0298846Y0275458D01*
X0298950Y0275576D01*
X0299057Y0275692D01*
X0299167Y0275805D01*
X0299279Y0275916D01*
X0299395Y0276023D01*
X0299513Y0276128D01*
X0299633Y0276230D01*
X0299756Y0276328D01*
X0299882Y0276424D01*
X0300010Y0276516D01*
X0300140Y0276605D01*
X0300272Y0276691D01*
X0300407Y0276773D01*
X0300544Y0276852D01*
X0300682Y0276927D01*
X0300822Y0276999D01*
X0300965Y0277067D01*
X0301108Y0277132D01*
X0301254Y0277193D01*
X0301401Y0277250D01*
X0301549Y0277304D01*
X0301699Y0277354D01*
X0301849Y0277400D01*
X0302001Y0277442D01*
X0302154Y0277481D01*
X0302308Y0277515D01*
X0302463Y0277546D01*
X0302618Y0277572D01*
X0302774Y0277595D01*
X0302931Y0277614D01*
X0303088Y0277629D01*
X0303245Y0277640D01*
X0303403Y0277647D01*
X0303561Y0277650D01*
X0303718Y0277649D01*
X0303876Y0277644D01*
X0304033Y0277635D01*
X0304191Y0277622D01*
X0304347Y0277605D01*
X0304504Y0277584D01*
X0304659Y0277560D01*
X0304814Y0277531D01*
X0304969Y0277498D01*
X0305122Y0277462D01*
X0305275Y0277421D01*
X0305426Y0277377D01*
X0305576Y0277329D01*
X0305725Y0277278D01*
X0305873Y0277222D01*
X0306019Y0277163D01*
X0306164Y0277100D01*
X0306307Y0277033D01*
X0306448Y0276963D01*
X0306587Y0276890D01*
X0306725Y0276813D01*
X0306861Y0276732D01*
X0306994Y0276648D01*
X0307125Y0276561D01*
X0307254Y0276470D01*
X0307381Y0276376D01*
X0307506Y0276279D01*
X0307627Y0276179D01*
X0307747Y0276076D01*
X0307863Y0275970D01*
X0307977Y0275861D01*
X0308089Y0275749D01*
X0308197Y0275635D01*
X0308302Y0275517D01*
X0308405Y0275397D01*
X0308504Y0275275D01*
X0308600Y0275150D01*
X0308693Y0275022D01*
X0308783Y0274893D01*
X0308869Y0274761D01*
X0308953Y0274627D01*
X0309032Y0274491D01*
X0309109Y0274353D01*
X0309181Y0274213D01*
X0309250Y0274071D01*
X0309316Y0273928D01*
X0309378Y0273783D01*
X0309436Y0273636D01*
X0309491Y0273488D01*
X0309542Y0273339D01*
X0309589Y0273188D01*
X0309632Y0273037D01*
X0309671Y0272884D01*
X0309707Y0272730D01*
X0309738Y0272576D01*
X0309766Y0272421D01*
X0309790Y0272265D01*
X0309810Y0272108D01*
X0309826Y0271951D01*
X0309838Y0271794D01*
X0309846Y0271637D01*
X0309850Y0271479D01*
X0309850Y0271321D01*
X0309846Y0271163D01*
X0309838Y0271006D01*
X0309826Y0270849D01*
X0309810Y0270692D01*
X0309790Y0270535D01*
X0309766Y0270379D01*
X0309738Y0270224D01*
X0309707Y0270070D01*
X0309671Y0269916D01*
X0309632Y0269763D01*
X0309589Y0269612D01*
X0309542Y0269461D01*
X0309491Y0269312D01*
X0309436Y0269164D01*
X0309378Y0269017D01*
X0309316Y0268872D01*
X0309250Y0268729D01*
X0309181Y0268587D01*
X0309109Y0268447D01*
X0309032Y0268309D01*
X0308953Y0268173D01*
X0308869Y0268039D01*
X0308783Y0267907D01*
X0308693Y0267778D01*
X0308600Y0267650D01*
X0308504Y0267525D01*
X0308405Y0267403D01*
X0308302Y0267283D01*
X0308197Y0267165D01*
X0308089Y0267051D01*
X0307977Y0266939D01*
X0307863Y0266830D01*
X0307747Y0266724D01*
X0307627Y0266621D01*
X0307506Y0266521D01*
X0307381Y0266424D01*
X0307254Y0266330D01*
X0307125Y0266239D01*
X0306994Y0266152D01*
X0306861Y0266068D01*
X0306725Y0265987D01*
X0306587Y0265910D01*
X0306448Y0265837D01*
X0306307Y0265767D01*
X0306164Y0265700D01*
X0306019Y0265637D01*
X0305873Y0265578D01*
X0305725Y0265522D01*
X0305576Y0265471D01*
X0305426Y0265423D01*
X0305275Y0265379D01*
X0305122Y0265338D01*
X0304969Y0265302D01*
X0304814Y0265269D01*
X0304659Y0265240D01*
X0304504Y0265216D01*
X0304347Y0265195D01*
X0304191Y0265178D01*
X0304033Y0265165D01*
X0303876Y0265156D01*
X0303718Y0265151D01*
X0303561Y0265150D01*
X0303403Y0265153D01*
X0303245Y0265160D01*
X0303088Y0265171D01*
X0302931Y0265186D01*
X0302774Y0265205D01*
X0302618Y0265228D01*
X0302463Y0265254D01*
X0302308Y0265285D01*
X0302154Y0265319D01*
X0302001Y0265358D01*
X0301849Y0265400D01*
X0301699Y0265446D01*
X0301549Y0265496D01*
X0301401Y0265550D01*
X0301254Y0265607D01*
X0301108Y0265668D01*
X0300965Y0265733D01*
X0300822Y0265801D01*
X0300682Y0265873D01*
X0300544Y0265948D01*
X0300407Y0266027D01*
X0300272Y0266109D01*
X0300140Y0266195D01*
X0300010Y0266284D01*
X0299882Y0266376D01*
X0299756Y0266472D01*
X0299633Y0266570D01*
X0299513Y0266672D01*
X0299395Y0266777D01*
X0299279Y0266884D01*
X0299167Y0266995D01*
X0299057Y0267108D01*
X0298950Y0267224D01*
X0298846Y0267342D01*
X0298745Y0267464D01*
X0298648Y0267587D01*
X0298553Y0267714D01*
X0298462Y0267842D01*
X0298373Y0267973D01*
X0298289Y0268106D01*
X0298207Y0268241D01*
X0298129Y0268378D01*
X0298055Y0268517D01*
X0297984Y0268658D01*
X0297916Y0268800D01*
X0297853Y0268945D01*
X0297792Y0269090D01*
X0297736Y0269238D01*
X0297683Y0269386D01*
X0297634Y0269536D01*
X0297589Y0269687D01*
X0297548Y0269840D01*
X0297510Y0269993D01*
X0297477Y0270147D01*
X0297447Y0270302D01*
X0297421Y0270457D01*
X0297400Y0270614D01*
X0297382Y0270770D01*
X0297368Y0270927D01*
X0297358Y0271085D01*
X0297352Y0271242D01*
X0297350Y0271400D01*
X0297350Y0345800D02*
X0297352Y0345958D01*
X0297358Y0346115D01*
X0297368Y0346273D01*
X0297382Y0346430D01*
X0297400Y0346586D01*
X0297421Y0346743D01*
X0297447Y0346898D01*
X0297477Y0347053D01*
X0297510Y0347207D01*
X0297548Y0347360D01*
X0297589Y0347513D01*
X0297634Y0347664D01*
X0297683Y0347814D01*
X0297736Y0347962D01*
X0297792Y0348110D01*
X0297853Y0348255D01*
X0297916Y0348400D01*
X0297984Y0348542D01*
X0298055Y0348683D01*
X0298129Y0348822D01*
X0298207Y0348959D01*
X0298289Y0349094D01*
X0298373Y0349227D01*
X0298462Y0349358D01*
X0298553Y0349486D01*
X0298648Y0349613D01*
X0298745Y0349736D01*
X0298846Y0349858D01*
X0298950Y0349976D01*
X0299057Y0350092D01*
X0299167Y0350205D01*
X0299279Y0350316D01*
X0299395Y0350423D01*
X0299513Y0350528D01*
X0299633Y0350630D01*
X0299756Y0350728D01*
X0299882Y0350824D01*
X0300010Y0350916D01*
X0300140Y0351005D01*
X0300272Y0351091D01*
X0300407Y0351173D01*
X0300544Y0351252D01*
X0300682Y0351327D01*
X0300822Y0351399D01*
X0300965Y0351467D01*
X0301108Y0351532D01*
X0301254Y0351593D01*
X0301401Y0351650D01*
X0301549Y0351704D01*
X0301699Y0351754D01*
X0301849Y0351800D01*
X0302001Y0351842D01*
X0302154Y0351881D01*
X0302308Y0351915D01*
X0302463Y0351946D01*
X0302618Y0351972D01*
X0302774Y0351995D01*
X0302931Y0352014D01*
X0303088Y0352029D01*
X0303245Y0352040D01*
X0303403Y0352047D01*
X0303561Y0352050D01*
X0303718Y0352049D01*
X0303876Y0352044D01*
X0304033Y0352035D01*
X0304191Y0352022D01*
X0304347Y0352005D01*
X0304504Y0351984D01*
X0304659Y0351960D01*
X0304814Y0351931D01*
X0304969Y0351898D01*
X0305122Y0351862D01*
X0305275Y0351821D01*
X0305426Y0351777D01*
X0305576Y0351729D01*
X0305725Y0351678D01*
X0305873Y0351622D01*
X0306019Y0351563D01*
X0306164Y0351500D01*
X0306307Y0351433D01*
X0306448Y0351363D01*
X0306587Y0351290D01*
X0306725Y0351213D01*
X0306861Y0351132D01*
X0306994Y0351048D01*
X0307125Y0350961D01*
X0307254Y0350870D01*
X0307381Y0350776D01*
X0307506Y0350679D01*
X0307627Y0350579D01*
X0307747Y0350476D01*
X0307863Y0350370D01*
X0307977Y0350261D01*
X0308089Y0350149D01*
X0308197Y0350035D01*
X0308302Y0349917D01*
X0308405Y0349797D01*
X0308504Y0349675D01*
X0308600Y0349550D01*
X0308693Y0349422D01*
X0308783Y0349293D01*
X0308869Y0349161D01*
X0308953Y0349027D01*
X0309032Y0348891D01*
X0309109Y0348753D01*
X0309181Y0348613D01*
X0309250Y0348471D01*
X0309316Y0348328D01*
X0309378Y0348183D01*
X0309436Y0348036D01*
X0309491Y0347888D01*
X0309542Y0347739D01*
X0309589Y0347588D01*
X0309632Y0347437D01*
X0309671Y0347284D01*
X0309707Y0347130D01*
X0309738Y0346976D01*
X0309766Y0346821D01*
X0309790Y0346665D01*
X0309810Y0346508D01*
X0309826Y0346351D01*
X0309838Y0346194D01*
X0309846Y0346037D01*
X0309850Y0345879D01*
X0309850Y0345721D01*
X0309846Y0345563D01*
X0309838Y0345406D01*
X0309826Y0345249D01*
X0309810Y0345092D01*
X0309790Y0344935D01*
X0309766Y0344779D01*
X0309738Y0344624D01*
X0309707Y0344470D01*
X0309671Y0344316D01*
X0309632Y0344163D01*
X0309589Y0344012D01*
X0309542Y0343861D01*
X0309491Y0343712D01*
X0309436Y0343564D01*
X0309378Y0343417D01*
X0309316Y0343272D01*
X0309250Y0343129D01*
X0309181Y0342987D01*
X0309109Y0342847D01*
X0309032Y0342709D01*
X0308953Y0342573D01*
X0308869Y0342439D01*
X0308783Y0342307D01*
X0308693Y0342178D01*
X0308600Y0342050D01*
X0308504Y0341925D01*
X0308405Y0341803D01*
X0308302Y0341683D01*
X0308197Y0341565D01*
X0308089Y0341451D01*
X0307977Y0341339D01*
X0307863Y0341230D01*
X0307747Y0341124D01*
X0307627Y0341021D01*
X0307506Y0340921D01*
X0307381Y0340824D01*
X0307254Y0340730D01*
X0307125Y0340639D01*
X0306994Y0340552D01*
X0306861Y0340468D01*
X0306725Y0340387D01*
X0306587Y0340310D01*
X0306448Y0340237D01*
X0306307Y0340167D01*
X0306164Y0340100D01*
X0306019Y0340037D01*
X0305873Y0339978D01*
X0305725Y0339922D01*
X0305576Y0339871D01*
X0305426Y0339823D01*
X0305275Y0339779D01*
X0305122Y0339738D01*
X0304969Y0339702D01*
X0304814Y0339669D01*
X0304659Y0339640D01*
X0304504Y0339616D01*
X0304347Y0339595D01*
X0304191Y0339578D01*
X0304033Y0339565D01*
X0303876Y0339556D01*
X0303718Y0339551D01*
X0303561Y0339550D01*
X0303403Y0339553D01*
X0303245Y0339560D01*
X0303088Y0339571D01*
X0302931Y0339586D01*
X0302774Y0339605D01*
X0302618Y0339628D01*
X0302463Y0339654D01*
X0302308Y0339685D01*
X0302154Y0339719D01*
X0302001Y0339758D01*
X0301849Y0339800D01*
X0301699Y0339846D01*
X0301549Y0339896D01*
X0301401Y0339950D01*
X0301254Y0340007D01*
X0301108Y0340068D01*
X0300965Y0340133D01*
X0300822Y0340201D01*
X0300682Y0340273D01*
X0300544Y0340348D01*
X0300407Y0340427D01*
X0300272Y0340509D01*
X0300140Y0340595D01*
X0300010Y0340684D01*
X0299882Y0340776D01*
X0299756Y0340872D01*
X0299633Y0340970D01*
X0299513Y0341072D01*
X0299395Y0341177D01*
X0299279Y0341284D01*
X0299167Y0341395D01*
X0299057Y0341508D01*
X0298950Y0341624D01*
X0298846Y0341742D01*
X0298745Y0341864D01*
X0298648Y0341987D01*
X0298553Y0342114D01*
X0298462Y0342242D01*
X0298373Y0342373D01*
X0298289Y0342506D01*
X0298207Y0342641D01*
X0298129Y0342778D01*
X0298055Y0342917D01*
X0297984Y0343058D01*
X0297916Y0343200D01*
X0297853Y0343345D01*
X0297792Y0343490D01*
X0297736Y0343638D01*
X0297683Y0343786D01*
X0297634Y0343936D01*
X0297589Y0344087D01*
X0297548Y0344240D01*
X0297510Y0344393D01*
X0297477Y0344547D01*
X0297447Y0344702D01*
X0297421Y0344857D01*
X0297400Y0345014D01*
X0297382Y0345170D01*
X0297368Y0345327D01*
X0297358Y0345485D01*
X0297352Y0345642D01*
X0297350Y0345800D01*
D11*
X0003200Y0005234D02*
X0003934Y0004500D01*
X0004668Y0005234D01*
X0004668Y0006702D01*
X0005410Y0005601D02*
X0006878Y0005601D01*
X0007620Y0005968D02*
X0007987Y0005601D01*
X0008721Y0005601D01*
X0009088Y0005234D01*
X0009088Y0004867D01*
X0008721Y0004500D01*
X0007987Y0004500D01*
X0007620Y0004867D01*
X0007620Y0005968D02*
X0007620Y0006335D01*
X0007987Y0006702D01*
X0008721Y0006702D01*
X0009088Y0006335D01*
X0009830Y0006335D02*
X0009830Y0004867D01*
X0010197Y0004500D01*
X0010931Y0004500D01*
X0011298Y0004867D01*
X0012040Y0004867D02*
X0012406Y0004500D01*
X0013140Y0004500D01*
X0013507Y0004867D01*
X0013507Y0006335D01*
X0013140Y0006702D01*
X0012406Y0006702D01*
X0012040Y0006335D01*
X0012040Y0004867D01*
X0011298Y0006335D02*
X0010931Y0006702D01*
X0010197Y0006702D01*
X0009830Y0006335D01*
X0014249Y0006702D02*
X0015350Y0006702D01*
X0015717Y0006335D01*
X0015717Y0005601D01*
X0015350Y0005234D01*
X0014249Y0005234D01*
X0014249Y0004500D02*
X0014249Y0006702D01*
X0014983Y0005234D02*
X0015717Y0004500D01*
X0016459Y0004500D02*
X0017927Y0004500D01*
X0017193Y0005601D02*
X0016459Y0005601D01*
X0016459Y0006702D02*
X0016459Y0004500D01*
X0016459Y0006702D02*
X0017927Y0006702D01*
X0003200Y0006702D02*
X0003200Y0005234D01*
X0004134Y0079100D02*
X0004868Y0079834D01*
X0004868Y0081302D01*
X0005610Y0080201D02*
X0007078Y0080201D01*
X0007820Y0080568D02*
X0008187Y0080201D01*
X0008921Y0080201D01*
X0009288Y0079834D01*
X0009288Y0079467D01*
X0008921Y0079100D01*
X0008187Y0079100D01*
X0007820Y0079467D01*
X0007820Y0080568D02*
X0007820Y0080935D01*
X0008187Y0081302D01*
X0008921Y0081302D01*
X0009288Y0080935D01*
X0010030Y0080935D02*
X0010030Y0079467D01*
X0010397Y0079100D01*
X0011131Y0079100D01*
X0011498Y0079467D01*
X0012240Y0079467D02*
X0012606Y0079100D01*
X0013340Y0079100D01*
X0013707Y0079467D01*
X0013707Y0080935D01*
X0013340Y0081302D01*
X0012606Y0081302D01*
X0012240Y0080935D01*
X0012240Y0079467D01*
X0011498Y0080935D02*
X0011131Y0081302D01*
X0010397Y0081302D01*
X0010030Y0080935D01*
X0014449Y0081302D02*
X0014449Y0079100D01*
X0014449Y0079834D02*
X0015550Y0079834D01*
X0015917Y0080201D01*
X0015917Y0080935D01*
X0015550Y0081302D01*
X0014449Y0081302D01*
X0015183Y0079834D02*
X0015917Y0079100D01*
X0016659Y0079100D02*
X0018127Y0079100D01*
X0017393Y0080201D02*
X0016659Y0080201D01*
X0016659Y0081302D02*
X0016659Y0079100D01*
X0016659Y0081302D02*
X0018127Y0081302D01*
X0004134Y0079100D02*
X0003400Y0079834D01*
X0003400Y0081302D01*
X0004234Y0153600D02*
X0004968Y0154334D01*
X0004968Y0155802D01*
X0005710Y0154701D02*
X0007178Y0154701D01*
X0007920Y0155068D02*
X0008287Y0154701D01*
X0009021Y0154701D01*
X0009388Y0154334D01*
X0009388Y0153967D01*
X0009021Y0153600D01*
X0008287Y0153600D01*
X0007920Y0153967D01*
X0007920Y0155068D02*
X0007920Y0155435D01*
X0008287Y0155802D01*
X0009021Y0155802D01*
X0009388Y0155435D01*
X0010130Y0155435D02*
X0010130Y0153967D01*
X0010497Y0153600D01*
X0011231Y0153600D01*
X0011598Y0153967D01*
X0012340Y0153967D02*
X0012706Y0153600D01*
X0013440Y0153600D01*
X0013807Y0153967D01*
X0013807Y0155435D01*
X0013440Y0155802D01*
X0012706Y0155802D01*
X0012340Y0155435D01*
X0012340Y0153967D01*
X0011598Y0155435D02*
X0011231Y0155802D01*
X0010497Y0155802D01*
X0010130Y0155435D01*
X0014549Y0155802D02*
X0014549Y0153600D01*
X0014549Y0154334D02*
X0015650Y0154334D01*
X0016017Y0154701D01*
X0016017Y0155435D01*
X0015650Y0155802D01*
X0014549Y0155802D01*
X0015283Y0154334D02*
X0016017Y0153600D01*
X0016759Y0153600D02*
X0018227Y0153600D01*
X0017493Y0154701D02*
X0016759Y0154701D01*
X0016759Y0155802D02*
X0016759Y0153600D01*
X0016759Y0155802D02*
X0018227Y0155802D01*
X0004234Y0153600D02*
X0003500Y0154334D01*
X0003500Y0155802D01*
X0003834Y0227900D02*
X0003100Y0228634D01*
X0003100Y0230102D01*
X0004568Y0230102D02*
X0004568Y0228634D01*
X0003834Y0227900D01*
X0005310Y0229001D02*
X0006778Y0229001D01*
X0007520Y0229368D02*
X0007887Y0229001D01*
X0008621Y0229001D01*
X0008988Y0228634D01*
X0008988Y0228267D01*
X0008621Y0227900D01*
X0007887Y0227900D01*
X0007520Y0228267D01*
X0007520Y0229368D02*
X0007520Y0229735D01*
X0007887Y0230102D01*
X0008621Y0230102D01*
X0008988Y0229735D01*
X0009730Y0229735D02*
X0009730Y0228267D01*
X0010097Y0227900D01*
X0010831Y0227900D01*
X0011198Y0228267D01*
X0011940Y0228267D02*
X0011940Y0229735D01*
X0012306Y0230102D01*
X0013040Y0230102D01*
X0013407Y0229735D01*
X0013407Y0228267D01*
X0013040Y0227900D01*
X0012306Y0227900D01*
X0011940Y0228267D01*
X0011198Y0229735D02*
X0010831Y0230102D01*
X0010097Y0230102D01*
X0009730Y0229735D01*
X0014149Y0230102D02*
X0014149Y0227900D01*
X0014149Y0228634D02*
X0015250Y0228634D01*
X0015617Y0229001D01*
X0015617Y0229735D01*
X0015250Y0230102D01*
X0014149Y0230102D01*
X0014883Y0228634D02*
X0015617Y0227900D01*
X0016359Y0227900D02*
X0017827Y0227900D01*
X0017093Y0229001D02*
X0016359Y0229001D01*
X0016359Y0230102D02*
X0016359Y0227900D01*
X0016359Y0230102D02*
X0017827Y0230102D01*
X0018127Y0302500D02*
X0016659Y0302500D01*
X0016659Y0304702D01*
X0018127Y0304702D01*
X0017393Y0303601D02*
X0016659Y0303601D01*
X0015917Y0303601D02*
X0015550Y0303234D01*
X0014449Y0303234D01*
X0014449Y0302500D02*
X0014449Y0304702D01*
X0015550Y0304702D01*
X0015917Y0304335D01*
X0015917Y0303601D01*
X0015183Y0303234D02*
X0015917Y0302500D01*
X0013707Y0302867D02*
X0013707Y0304335D01*
X0013340Y0304702D01*
X0012606Y0304702D01*
X0012240Y0304335D01*
X0012240Y0302867D01*
X0012606Y0302500D01*
X0013340Y0302500D01*
X0013707Y0302867D01*
X0011498Y0302867D02*
X0011131Y0302500D01*
X0010397Y0302500D01*
X0010030Y0302867D01*
X0010030Y0304335D01*
X0010397Y0304702D01*
X0011131Y0304702D01*
X0011498Y0304335D01*
X0009288Y0304335D02*
X0008921Y0304702D01*
X0008187Y0304702D01*
X0007820Y0304335D01*
X0007820Y0303968D01*
X0008187Y0303601D01*
X0008921Y0303601D01*
X0009288Y0303234D01*
X0009288Y0302867D01*
X0008921Y0302500D01*
X0008187Y0302500D01*
X0007820Y0302867D01*
X0007078Y0303601D02*
X0005610Y0303601D01*
X0004868Y0303234D02*
X0004868Y0304702D01*
X0003400Y0304702D02*
X0003400Y0303234D01*
X0004134Y0302500D01*
X0004868Y0303234D01*
X0004234Y0377000D02*
X0003500Y0377734D01*
X0003500Y0379202D01*
X0004968Y0379202D02*
X0004968Y0377734D01*
X0004234Y0377000D01*
X0005710Y0378101D02*
X0007178Y0378101D01*
X0007920Y0378468D02*
X0008287Y0378101D01*
X0009021Y0378101D01*
X0009388Y0377734D01*
X0009388Y0377367D01*
X0009021Y0377000D01*
X0008287Y0377000D01*
X0007920Y0377367D01*
X0007920Y0378468D02*
X0007920Y0378835D01*
X0008287Y0379202D01*
X0009021Y0379202D01*
X0009388Y0378835D01*
X0010130Y0378835D02*
X0010130Y0377367D01*
X0010497Y0377000D01*
X0011231Y0377000D01*
X0011598Y0377367D01*
X0012340Y0377367D02*
X0012706Y0377000D01*
X0013440Y0377000D01*
X0013807Y0377367D01*
X0013807Y0378835D01*
X0013440Y0379202D01*
X0012706Y0379202D01*
X0012340Y0378835D01*
X0012340Y0377367D01*
X0011598Y0378835D02*
X0011231Y0379202D01*
X0010497Y0379202D01*
X0010130Y0378835D01*
X0014549Y0379202D02*
X0015650Y0379202D01*
X0016017Y0378835D01*
X0016017Y0378101D01*
X0015650Y0377734D01*
X0014549Y0377734D01*
X0014549Y0377000D02*
X0014549Y0379202D01*
X0015283Y0377734D02*
X0016017Y0377000D01*
X0016759Y0377000D02*
X0018227Y0377000D01*
X0017493Y0378101D02*
X0016759Y0378101D01*
X0016759Y0379202D02*
X0016759Y0377000D01*
X0016759Y0379202D02*
X0018227Y0379202D01*
D12*
X0039354Y0372800D03*
X0046046Y0372800D03*
X0049246Y0320200D03*
X0042554Y0320200D03*
X0036646Y0320200D03*
X0029954Y0320200D03*
X0039354Y0298400D03*
X0046046Y0298400D03*
X0049246Y0245800D03*
X0042554Y0245800D03*
X0036646Y0245800D03*
X0029954Y0245800D03*
X0039354Y0224000D03*
X0046046Y0224000D03*
X0049246Y0171400D03*
X0042554Y0171400D03*
X0036646Y0171400D03*
X0029954Y0171400D03*
X0039354Y0149600D03*
X0046046Y0149600D03*
X0049246Y0097000D03*
X0042554Y0097000D03*
X0036646Y0097000D03*
X0029954Y0097000D03*
X0039354Y0075200D03*
X0046046Y0075200D03*
X0049246Y0022600D03*
X0042554Y0022600D03*
X0036646Y0022600D03*
X0029954Y0022600D03*
X0115754Y0071800D03*
X0122446Y0071800D03*
X0140754Y0041800D03*
X0140554Y0036600D03*
X0140554Y0031200D03*
X0147246Y0031200D03*
X0147246Y0036600D03*
X0147446Y0041800D03*
X0160954Y0061000D03*
X0167646Y0061000D03*
X0184954Y0066200D03*
X0191646Y0066200D03*
X0147246Y0105600D03*
X0147246Y0111000D03*
X0147446Y0116200D03*
X0140754Y0116200D03*
X0140554Y0111000D03*
X0140554Y0105600D03*
X0160954Y0135400D03*
X0167646Y0135400D03*
X0184954Y0140600D03*
X0191646Y0140600D03*
X0147246Y0180000D03*
X0147246Y0185400D03*
X0147446Y0190600D03*
X0140754Y0190600D03*
X0140554Y0185400D03*
X0140554Y0180000D03*
X0160954Y0209800D03*
X0167646Y0209800D03*
X0184954Y0215000D03*
X0191646Y0215000D03*
X0147246Y0254400D03*
X0147246Y0259800D03*
X0147446Y0265000D03*
X0140754Y0265000D03*
X0140554Y0259800D03*
X0140554Y0254400D03*
X0160954Y0284200D03*
X0167646Y0284200D03*
X0184954Y0289400D03*
X0191646Y0289400D03*
X0147246Y0328800D03*
X0147246Y0334200D03*
X0147446Y0339400D03*
X0140754Y0339400D03*
X0140554Y0334200D03*
X0140554Y0328800D03*
X0160954Y0358600D03*
X0167646Y0358600D03*
X0184954Y0363800D03*
X0191646Y0363800D03*
X0243154Y0330000D03*
X0249846Y0330000D03*
X0250954Y0345600D03*
X0257646Y0345600D03*
X0257646Y0271200D03*
X0250954Y0271200D03*
X0249846Y0255600D03*
X0243154Y0255600D03*
X0250954Y0196800D03*
X0257646Y0196800D03*
X0249846Y0181200D03*
X0243154Y0181200D03*
X0250954Y0122400D03*
X0257646Y0122400D03*
X0249846Y0106800D03*
X0243154Y0106800D03*
X0250954Y0048000D03*
X0257646Y0048000D03*
X0249846Y0032400D03*
X0243154Y0032400D03*
X0122446Y0146200D03*
X0115754Y0146200D03*
X0115754Y0220600D03*
X0122446Y0220600D03*
X0122446Y0295000D03*
X0115754Y0295000D03*
X0115754Y0369400D03*
X0122446Y0369400D03*
D13*
X0176500Y0355346D03*
X0176500Y0348654D03*
X0204866Y0333830D03*
X0204866Y0327137D03*
X0176500Y0280946D03*
X0176500Y0274254D03*
X0204866Y0259430D03*
X0204866Y0252737D03*
X0176500Y0206546D03*
X0176500Y0199854D03*
X0204866Y0185030D03*
X0204866Y0178337D03*
X0176500Y0132146D03*
X0176500Y0125454D03*
X0204866Y0110630D03*
X0204866Y0103937D03*
X0176500Y0057746D03*
X0176500Y0051054D03*
X0204866Y0036230D03*
X0204866Y0029537D03*
X0252500Y0053654D03*
X0252500Y0060346D03*
X0270100Y0046546D03*
X0275500Y0046546D03*
X0275500Y0039854D03*
X0270100Y0039854D03*
X0287300Y0039854D03*
X0287300Y0046546D03*
X0287300Y0114254D03*
X0287300Y0120946D03*
X0275500Y0120946D03*
X0275500Y0114254D03*
X0270100Y0114254D03*
X0270100Y0120946D03*
X0252500Y0128054D03*
X0252500Y0134746D03*
X0270100Y0188654D03*
X0270100Y0195346D03*
X0275500Y0195346D03*
X0275500Y0188654D03*
X0287300Y0188654D03*
X0287300Y0195346D03*
X0252500Y0202454D03*
X0252500Y0209146D03*
X0270100Y0263054D03*
X0270100Y0269746D03*
X0275500Y0269746D03*
X0275500Y0263054D03*
X0287300Y0263054D03*
X0287300Y0269746D03*
X0252500Y0276854D03*
X0252500Y0283546D03*
X0270100Y0337454D03*
X0275500Y0337454D03*
X0275500Y0344146D03*
X0270100Y0344146D03*
X0287300Y0344146D03*
X0287300Y0337454D03*
X0252500Y0351254D03*
X0252500Y0357946D03*
D14*
X0257900Y0358247D03*
X0257900Y0364153D03*
X0264347Y0332200D03*
X0270253Y0332200D03*
X0257900Y0289753D03*
X0257900Y0283847D03*
X0264347Y0257800D03*
X0270253Y0257800D03*
X0257900Y0215353D03*
X0257900Y0209447D03*
X0264347Y0183400D03*
X0270253Y0183400D03*
X0257900Y0140953D03*
X0257900Y0135047D03*
X0264347Y0109000D03*
X0270253Y0109000D03*
X0257900Y0066553D03*
X0257900Y0060647D03*
X0264347Y0034600D03*
X0270253Y0034600D03*
X0033253Y0075200D03*
X0027347Y0075200D03*
X0027347Y0149600D03*
X0033253Y0149600D03*
X0033253Y0224000D03*
X0027347Y0224000D03*
X0027347Y0298400D03*
X0033253Y0298400D03*
X0033253Y0372800D03*
X0027347Y0372800D03*
D15*
X0255300Y0337743D03*
X0255300Y0330657D03*
X0264300Y0337057D03*
X0264300Y0344143D03*
X0264300Y0269743D03*
X0264300Y0262657D03*
X0255300Y0263343D03*
X0255300Y0256257D03*
X0264300Y0195343D03*
X0264300Y0188257D03*
X0255300Y0188943D03*
X0255300Y0181857D03*
X0264300Y0120943D03*
X0264300Y0113857D03*
X0255300Y0114543D03*
X0255300Y0107457D03*
X0264300Y0046543D03*
X0264300Y0039457D03*
X0255300Y0040143D03*
X0255300Y0033057D03*
D16*
X0268705Y0053494D03*
X0268705Y0059400D03*
X0268705Y0065306D03*
X0268705Y0127894D03*
X0268705Y0133800D03*
X0268705Y0139706D03*
X0268705Y0202294D03*
X0268705Y0208200D03*
X0268705Y0214106D03*
X0268705Y0276694D03*
X0268705Y0282600D03*
X0268705Y0288506D03*
X0268705Y0351094D03*
X0268705Y0357000D03*
X0268705Y0362906D03*
D17*
X0280831Y0357000D03*
X0280831Y0282600D03*
X0280831Y0208200D03*
X0280831Y0133800D03*
X0280831Y0059400D03*
D18*
G36*
X0245683Y0050914D02*
X0243457Y0048688D01*
X0242483Y0049662D01*
X0244709Y0051888D01*
X0245683Y0050914D01*
G37*
G36*
X0243874Y0052723D02*
X0241648Y0050497D01*
X0240674Y0051471D01*
X0242900Y0053697D01*
X0243874Y0052723D01*
G37*
G36*
X0242064Y0054533D02*
X0239838Y0052307D01*
X0238864Y0053281D01*
X0241090Y0055507D01*
X0242064Y0054533D01*
G37*
G36*
X0240255Y0056342D02*
X0238029Y0054116D01*
X0237055Y0055090D01*
X0239281Y0057316D01*
X0240255Y0056342D01*
G37*
G36*
X0238445Y0058152D02*
X0236219Y0055926D01*
X0235245Y0056900D01*
X0237471Y0059126D01*
X0238445Y0058152D01*
G37*
G36*
X0236636Y0059962D02*
X0234410Y0057736D01*
X0233436Y0058710D01*
X0235662Y0060936D01*
X0236636Y0059962D01*
G37*
G36*
X0231626Y0060519D02*
X0233852Y0062745D01*
X0234826Y0061771D01*
X0232600Y0059545D01*
X0231626Y0060519D01*
G37*
G36*
X0229816Y0062329D02*
X0232042Y0064555D01*
X0233016Y0063581D01*
X0230790Y0061355D01*
X0229816Y0062329D01*
G37*
G36*
X0228007Y0064138D02*
X0230233Y0066364D01*
X0231207Y0065390D01*
X0228981Y0063164D01*
X0228007Y0064138D01*
G37*
G36*
X0226197Y0065948D02*
X0228423Y0068174D01*
X0229397Y0067200D01*
X0227171Y0064974D01*
X0226197Y0065948D01*
G37*
G36*
X0224388Y0067757D02*
X0226614Y0069983D01*
X0227588Y0069009D01*
X0225362Y0066783D01*
X0224388Y0067757D01*
G37*
G36*
X0221186Y0069983D02*
X0223412Y0067757D01*
X0222438Y0066783D01*
X0220212Y0069009D01*
X0221186Y0069983D01*
G37*
G36*
X0219377Y0068174D02*
X0221603Y0065948D01*
X0220629Y0064974D01*
X0218403Y0067200D01*
X0219377Y0068174D01*
G37*
G36*
X0217567Y0066364D02*
X0219793Y0064138D01*
X0218819Y0063164D01*
X0216593Y0065390D01*
X0217567Y0066364D01*
G37*
G36*
X0215758Y0064555D02*
X0217984Y0062329D01*
X0217010Y0061355D01*
X0214784Y0063581D01*
X0215758Y0064555D01*
G37*
G36*
X0213948Y0062745D02*
X0216174Y0060519D01*
X0215200Y0059545D01*
X0212974Y0061771D01*
X0213948Y0062745D01*
G37*
G36*
X0212138Y0060936D02*
X0214364Y0058710D01*
X0213390Y0057736D01*
X0211164Y0059962D01*
X0212138Y0060936D01*
G37*
G36*
X0211581Y0055926D02*
X0209355Y0058152D01*
X0210329Y0059126D01*
X0212555Y0056900D01*
X0211581Y0055926D01*
G37*
G36*
X0209771Y0054116D02*
X0207545Y0056342D01*
X0208519Y0057316D01*
X0210745Y0055090D01*
X0209771Y0054116D01*
G37*
G36*
X0207962Y0052307D02*
X0205736Y0054533D01*
X0206710Y0055507D01*
X0208936Y0053281D01*
X0207962Y0052307D01*
G37*
G36*
X0206152Y0050497D02*
X0203926Y0052723D01*
X0204900Y0053697D01*
X0207126Y0051471D01*
X0206152Y0050497D01*
G37*
G36*
X0204343Y0048688D02*
X0202117Y0050914D01*
X0203091Y0051888D01*
X0205317Y0049662D01*
X0204343Y0048688D01*
G37*
G36*
X0202117Y0045486D02*
X0204343Y0047712D01*
X0205317Y0046738D01*
X0203091Y0044512D01*
X0202117Y0045486D01*
G37*
G36*
X0203926Y0043677D02*
X0206152Y0045903D01*
X0207126Y0044929D01*
X0204900Y0042703D01*
X0203926Y0043677D01*
G37*
G36*
X0205736Y0041867D02*
X0207962Y0044093D01*
X0208936Y0043119D01*
X0206710Y0040893D01*
X0205736Y0041867D01*
G37*
G36*
X0207545Y0040058D02*
X0209771Y0042284D01*
X0210745Y0041310D01*
X0208519Y0039084D01*
X0207545Y0040058D01*
G37*
G36*
X0209355Y0038248D02*
X0211581Y0040474D01*
X0212555Y0039500D01*
X0210329Y0037274D01*
X0209355Y0038248D01*
G37*
G36*
X0211164Y0036438D02*
X0213390Y0038664D01*
X0214364Y0037690D01*
X0212138Y0035464D01*
X0211164Y0036438D01*
G37*
G36*
X0216174Y0035881D02*
X0213948Y0033655D01*
X0212974Y0034629D01*
X0215200Y0036855D01*
X0216174Y0035881D01*
G37*
G36*
X0217984Y0034071D02*
X0215758Y0031845D01*
X0214784Y0032819D01*
X0217010Y0035045D01*
X0217984Y0034071D01*
G37*
G36*
X0219793Y0032262D02*
X0217567Y0030036D01*
X0216593Y0031010D01*
X0218819Y0033236D01*
X0219793Y0032262D01*
G37*
G36*
X0221603Y0030452D02*
X0219377Y0028226D01*
X0218403Y0029200D01*
X0220629Y0031426D01*
X0221603Y0030452D01*
G37*
G36*
X0223412Y0028643D02*
X0221186Y0026417D01*
X0220212Y0027391D01*
X0222438Y0029617D01*
X0223412Y0028643D01*
G37*
G36*
X0226614Y0026417D02*
X0224388Y0028643D01*
X0225362Y0029617D01*
X0227588Y0027391D01*
X0226614Y0026417D01*
G37*
G36*
X0228423Y0028226D02*
X0226197Y0030452D01*
X0227171Y0031426D01*
X0229397Y0029200D01*
X0228423Y0028226D01*
G37*
G36*
X0230233Y0030036D02*
X0228007Y0032262D01*
X0228981Y0033236D01*
X0231207Y0031010D01*
X0230233Y0030036D01*
G37*
G36*
X0232042Y0031845D02*
X0229816Y0034071D01*
X0230790Y0035045D01*
X0233016Y0032819D01*
X0232042Y0031845D01*
G37*
G36*
X0233852Y0033655D02*
X0231626Y0035881D01*
X0232600Y0036855D01*
X0234826Y0034629D01*
X0233852Y0033655D01*
G37*
G36*
X0235662Y0035464D02*
X0233436Y0037690D01*
X0234410Y0038664D01*
X0236636Y0036438D01*
X0235662Y0035464D01*
G37*
G36*
X0236219Y0040474D02*
X0238445Y0038248D01*
X0237471Y0037274D01*
X0235245Y0039500D01*
X0236219Y0040474D01*
G37*
G36*
X0238029Y0042284D02*
X0240255Y0040058D01*
X0239281Y0039084D01*
X0237055Y0041310D01*
X0238029Y0042284D01*
G37*
G36*
X0239838Y0044093D02*
X0242064Y0041867D01*
X0241090Y0040893D01*
X0238864Y0043119D01*
X0239838Y0044093D01*
G37*
G36*
X0241648Y0045903D02*
X0243874Y0043677D01*
X0242900Y0042703D01*
X0240674Y0044929D01*
X0241648Y0045903D01*
G37*
G36*
X0243457Y0047712D02*
X0245683Y0045486D01*
X0244709Y0044512D01*
X0242483Y0046738D01*
X0243457Y0047712D01*
G37*
G36*
X0226614Y0100817D02*
X0224388Y0103043D01*
X0225362Y0104017D01*
X0227588Y0101791D01*
X0226614Y0100817D01*
G37*
G36*
X0228423Y0102626D02*
X0226197Y0104852D01*
X0227171Y0105826D01*
X0229397Y0103600D01*
X0228423Y0102626D01*
G37*
G36*
X0230233Y0104436D02*
X0228007Y0106662D01*
X0228981Y0107636D01*
X0231207Y0105410D01*
X0230233Y0104436D01*
G37*
G36*
X0232042Y0106245D02*
X0229816Y0108471D01*
X0230790Y0109445D01*
X0233016Y0107219D01*
X0232042Y0106245D01*
G37*
G36*
X0233852Y0108055D02*
X0231626Y0110281D01*
X0232600Y0111255D01*
X0234826Y0109029D01*
X0233852Y0108055D01*
G37*
G36*
X0235662Y0109864D02*
X0233436Y0112090D01*
X0234410Y0113064D01*
X0236636Y0110838D01*
X0235662Y0109864D01*
G37*
G36*
X0236219Y0114874D02*
X0238445Y0112648D01*
X0237471Y0111674D01*
X0235245Y0113900D01*
X0236219Y0114874D01*
G37*
G36*
X0238029Y0116684D02*
X0240255Y0114458D01*
X0239281Y0113484D01*
X0237055Y0115710D01*
X0238029Y0116684D01*
G37*
G36*
X0239838Y0118493D02*
X0242064Y0116267D01*
X0241090Y0115293D01*
X0238864Y0117519D01*
X0239838Y0118493D01*
G37*
G36*
X0241648Y0120303D02*
X0243874Y0118077D01*
X0242900Y0117103D01*
X0240674Y0119329D01*
X0241648Y0120303D01*
G37*
G36*
X0243457Y0122112D02*
X0245683Y0119886D01*
X0244709Y0118912D01*
X0242483Y0121138D01*
X0243457Y0122112D01*
G37*
G36*
X0245683Y0125314D02*
X0243457Y0123088D01*
X0242483Y0124062D01*
X0244709Y0126288D01*
X0245683Y0125314D01*
G37*
G36*
X0243874Y0127123D02*
X0241648Y0124897D01*
X0240674Y0125871D01*
X0242900Y0128097D01*
X0243874Y0127123D01*
G37*
G36*
X0242064Y0128933D02*
X0239838Y0126707D01*
X0238864Y0127681D01*
X0241090Y0129907D01*
X0242064Y0128933D01*
G37*
G36*
X0240255Y0130742D02*
X0238029Y0128516D01*
X0237055Y0129490D01*
X0239281Y0131716D01*
X0240255Y0130742D01*
G37*
G36*
X0238445Y0132552D02*
X0236219Y0130326D01*
X0235245Y0131300D01*
X0237471Y0133526D01*
X0238445Y0132552D01*
G37*
G36*
X0236636Y0134362D02*
X0234410Y0132136D01*
X0233436Y0133110D01*
X0235662Y0135336D01*
X0236636Y0134362D01*
G37*
G36*
X0231626Y0134919D02*
X0233852Y0137145D01*
X0234826Y0136171D01*
X0232600Y0133945D01*
X0231626Y0134919D01*
G37*
G36*
X0229816Y0136729D02*
X0232042Y0138955D01*
X0233016Y0137981D01*
X0230790Y0135755D01*
X0229816Y0136729D01*
G37*
G36*
X0228007Y0138538D02*
X0230233Y0140764D01*
X0231207Y0139790D01*
X0228981Y0137564D01*
X0228007Y0138538D01*
G37*
G36*
X0226197Y0140348D02*
X0228423Y0142574D01*
X0229397Y0141600D01*
X0227171Y0139374D01*
X0226197Y0140348D01*
G37*
G36*
X0224388Y0142157D02*
X0226614Y0144383D01*
X0227588Y0143409D01*
X0225362Y0141183D01*
X0224388Y0142157D01*
G37*
G36*
X0221186Y0144383D02*
X0223412Y0142157D01*
X0222438Y0141183D01*
X0220212Y0143409D01*
X0221186Y0144383D01*
G37*
G36*
X0219377Y0142574D02*
X0221603Y0140348D01*
X0220629Y0139374D01*
X0218403Y0141600D01*
X0219377Y0142574D01*
G37*
G36*
X0217567Y0140764D02*
X0219793Y0138538D01*
X0218819Y0137564D01*
X0216593Y0139790D01*
X0217567Y0140764D01*
G37*
G36*
X0215758Y0138955D02*
X0217984Y0136729D01*
X0217010Y0135755D01*
X0214784Y0137981D01*
X0215758Y0138955D01*
G37*
G36*
X0213948Y0137145D02*
X0216174Y0134919D01*
X0215200Y0133945D01*
X0212974Y0136171D01*
X0213948Y0137145D01*
G37*
G36*
X0212138Y0135336D02*
X0214364Y0133110D01*
X0213390Y0132136D01*
X0211164Y0134362D01*
X0212138Y0135336D01*
G37*
G36*
X0211581Y0130326D02*
X0209355Y0132552D01*
X0210329Y0133526D01*
X0212555Y0131300D01*
X0211581Y0130326D01*
G37*
G36*
X0209771Y0128516D02*
X0207545Y0130742D01*
X0208519Y0131716D01*
X0210745Y0129490D01*
X0209771Y0128516D01*
G37*
G36*
X0207962Y0126707D02*
X0205736Y0128933D01*
X0206710Y0129907D01*
X0208936Y0127681D01*
X0207962Y0126707D01*
G37*
G36*
X0206152Y0124897D02*
X0203926Y0127123D01*
X0204900Y0128097D01*
X0207126Y0125871D01*
X0206152Y0124897D01*
G37*
G36*
X0204343Y0123088D02*
X0202117Y0125314D01*
X0203091Y0126288D01*
X0205317Y0124062D01*
X0204343Y0123088D01*
G37*
G36*
X0202117Y0119886D02*
X0204343Y0122112D01*
X0205317Y0121138D01*
X0203091Y0118912D01*
X0202117Y0119886D01*
G37*
G36*
X0203926Y0118077D02*
X0206152Y0120303D01*
X0207126Y0119329D01*
X0204900Y0117103D01*
X0203926Y0118077D01*
G37*
G36*
X0205736Y0116267D02*
X0207962Y0118493D01*
X0208936Y0117519D01*
X0206710Y0115293D01*
X0205736Y0116267D01*
G37*
G36*
X0207545Y0114458D02*
X0209771Y0116684D01*
X0210745Y0115710D01*
X0208519Y0113484D01*
X0207545Y0114458D01*
G37*
G36*
X0209355Y0112648D02*
X0211581Y0114874D01*
X0212555Y0113900D01*
X0210329Y0111674D01*
X0209355Y0112648D01*
G37*
G36*
X0211164Y0110838D02*
X0213390Y0113064D01*
X0214364Y0112090D01*
X0212138Y0109864D01*
X0211164Y0110838D01*
G37*
G36*
X0216174Y0110281D02*
X0213948Y0108055D01*
X0212974Y0109029D01*
X0215200Y0111255D01*
X0216174Y0110281D01*
G37*
G36*
X0217984Y0108471D02*
X0215758Y0106245D01*
X0214784Y0107219D01*
X0217010Y0109445D01*
X0217984Y0108471D01*
G37*
G36*
X0219793Y0106662D02*
X0217567Y0104436D01*
X0216593Y0105410D01*
X0218819Y0107636D01*
X0219793Y0106662D01*
G37*
G36*
X0221603Y0104852D02*
X0219377Y0102626D01*
X0218403Y0103600D01*
X0220629Y0105826D01*
X0221603Y0104852D01*
G37*
G36*
X0223412Y0103043D02*
X0221186Y0100817D01*
X0220212Y0101791D01*
X0222438Y0104017D01*
X0223412Y0103043D01*
G37*
G36*
X0223412Y0177443D02*
X0221186Y0175217D01*
X0220212Y0176191D01*
X0222438Y0178417D01*
X0223412Y0177443D01*
G37*
G36*
X0226614Y0175217D02*
X0224388Y0177443D01*
X0225362Y0178417D01*
X0227588Y0176191D01*
X0226614Y0175217D01*
G37*
G36*
X0228423Y0177026D02*
X0226197Y0179252D01*
X0227171Y0180226D01*
X0229397Y0178000D01*
X0228423Y0177026D01*
G37*
G36*
X0230233Y0178836D02*
X0228007Y0181062D01*
X0228981Y0182036D01*
X0231207Y0179810D01*
X0230233Y0178836D01*
G37*
G36*
X0232042Y0180645D02*
X0229816Y0182871D01*
X0230790Y0183845D01*
X0233016Y0181619D01*
X0232042Y0180645D01*
G37*
G36*
X0233852Y0182455D02*
X0231626Y0184681D01*
X0232600Y0185655D01*
X0234826Y0183429D01*
X0233852Y0182455D01*
G37*
G36*
X0235662Y0184264D02*
X0233436Y0186490D01*
X0234410Y0187464D01*
X0236636Y0185238D01*
X0235662Y0184264D01*
G37*
G36*
X0236219Y0189274D02*
X0238445Y0187048D01*
X0237471Y0186074D01*
X0235245Y0188300D01*
X0236219Y0189274D01*
G37*
G36*
X0238029Y0191084D02*
X0240255Y0188858D01*
X0239281Y0187884D01*
X0237055Y0190110D01*
X0238029Y0191084D01*
G37*
G36*
X0239838Y0192893D02*
X0242064Y0190667D01*
X0241090Y0189693D01*
X0238864Y0191919D01*
X0239838Y0192893D01*
G37*
G36*
X0241648Y0194703D02*
X0243874Y0192477D01*
X0242900Y0191503D01*
X0240674Y0193729D01*
X0241648Y0194703D01*
G37*
G36*
X0243457Y0196512D02*
X0245683Y0194286D01*
X0244709Y0193312D01*
X0242483Y0195538D01*
X0243457Y0196512D01*
G37*
G36*
X0245683Y0199714D02*
X0243457Y0197488D01*
X0242483Y0198462D01*
X0244709Y0200688D01*
X0245683Y0199714D01*
G37*
G36*
X0243874Y0201523D02*
X0241648Y0199297D01*
X0240674Y0200271D01*
X0242900Y0202497D01*
X0243874Y0201523D01*
G37*
G36*
X0242064Y0203333D02*
X0239838Y0201107D01*
X0238864Y0202081D01*
X0241090Y0204307D01*
X0242064Y0203333D01*
G37*
G36*
X0240255Y0205142D02*
X0238029Y0202916D01*
X0237055Y0203890D01*
X0239281Y0206116D01*
X0240255Y0205142D01*
G37*
G36*
X0238445Y0206952D02*
X0236219Y0204726D01*
X0235245Y0205700D01*
X0237471Y0207926D01*
X0238445Y0206952D01*
G37*
G36*
X0236636Y0208762D02*
X0234410Y0206536D01*
X0233436Y0207510D01*
X0235662Y0209736D01*
X0236636Y0208762D01*
G37*
G36*
X0231626Y0209319D02*
X0233852Y0211545D01*
X0234826Y0210571D01*
X0232600Y0208345D01*
X0231626Y0209319D01*
G37*
G36*
X0229816Y0211129D02*
X0232042Y0213355D01*
X0233016Y0212381D01*
X0230790Y0210155D01*
X0229816Y0211129D01*
G37*
G36*
X0228007Y0212938D02*
X0230233Y0215164D01*
X0231207Y0214190D01*
X0228981Y0211964D01*
X0228007Y0212938D01*
G37*
G36*
X0226197Y0214748D02*
X0228423Y0216974D01*
X0229397Y0216000D01*
X0227171Y0213774D01*
X0226197Y0214748D01*
G37*
G36*
X0224388Y0216557D02*
X0226614Y0218783D01*
X0227588Y0217809D01*
X0225362Y0215583D01*
X0224388Y0216557D01*
G37*
G36*
X0221186Y0218783D02*
X0223412Y0216557D01*
X0222438Y0215583D01*
X0220212Y0217809D01*
X0221186Y0218783D01*
G37*
G36*
X0219377Y0216974D02*
X0221603Y0214748D01*
X0220629Y0213774D01*
X0218403Y0216000D01*
X0219377Y0216974D01*
G37*
G36*
X0217567Y0215164D02*
X0219793Y0212938D01*
X0218819Y0211964D01*
X0216593Y0214190D01*
X0217567Y0215164D01*
G37*
G36*
X0215758Y0213355D02*
X0217984Y0211129D01*
X0217010Y0210155D01*
X0214784Y0212381D01*
X0215758Y0213355D01*
G37*
G36*
X0213948Y0211545D02*
X0216174Y0209319D01*
X0215200Y0208345D01*
X0212974Y0210571D01*
X0213948Y0211545D01*
G37*
G36*
X0212138Y0209736D02*
X0214364Y0207510D01*
X0213390Y0206536D01*
X0211164Y0208762D01*
X0212138Y0209736D01*
G37*
G36*
X0211581Y0204726D02*
X0209355Y0206952D01*
X0210329Y0207926D01*
X0212555Y0205700D01*
X0211581Y0204726D01*
G37*
G36*
X0209771Y0202916D02*
X0207545Y0205142D01*
X0208519Y0206116D01*
X0210745Y0203890D01*
X0209771Y0202916D01*
G37*
G36*
X0207962Y0201107D02*
X0205736Y0203333D01*
X0206710Y0204307D01*
X0208936Y0202081D01*
X0207962Y0201107D01*
G37*
G36*
X0206152Y0199297D02*
X0203926Y0201523D01*
X0204900Y0202497D01*
X0207126Y0200271D01*
X0206152Y0199297D01*
G37*
G36*
X0204343Y0197488D02*
X0202117Y0199714D01*
X0203091Y0200688D01*
X0205317Y0198462D01*
X0204343Y0197488D01*
G37*
G36*
X0202117Y0194286D02*
X0204343Y0196512D01*
X0205317Y0195538D01*
X0203091Y0193312D01*
X0202117Y0194286D01*
G37*
G36*
X0203926Y0192477D02*
X0206152Y0194703D01*
X0207126Y0193729D01*
X0204900Y0191503D01*
X0203926Y0192477D01*
G37*
G36*
X0205736Y0190667D02*
X0207962Y0192893D01*
X0208936Y0191919D01*
X0206710Y0189693D01*
X0205736Y0190667D01*
G37*
G36*
X0207545Y0188858D02*
X0209771Y0191084D01*
X0210745Y0190110D01*
X0208519Y0187884D01*
X0207545Y0188858D01*
G37*
G36*
X0209355Y0187048D02*
X0211581Y0189274D01*
X0212555Y0188300D01*
X0210329Y0186074D01*
X0209355Y0187048D01*
G37*
G36*
X0211164Y0185238D02*
X0213390Y0187464D01*
X0214364Y0186490D01*
X0212138Y0184264D01*
X0211164Y0185238D01*
G37*
G36*
X0216174Y0184681D02*
X0213948Y0182455D01*
X0212974Y0183429D01*
X0215200Y0185655D01*
X0216174Y0184681D01*
G37*
G36*
X0217984Y0182871D02*
X0215758Y0180645D01*
X0214784Y0181619D01*
X0217010Y0183845D01*
X0217984Y0182871D01*
G37*
G36*
X0219793Y0181062D02*
X0217567Y0178836D01*
X0216593Y0179810D01*
X0218819Y0182036D01*
X0219793Y0181062D01*
G37*
G36*
X0221603Y0179252D02*
X0219377Y0177026D01*
X0218403Y0178000D01*
X0220629Y0180226D01*
X0221603Y0179252D01*
G37*
G36*
X0223412Y0251843D02*
X0221186Y0249617D01*
X0220212Y0250591D01*
X0222438Y0252817D01*
X0223412Y0251843D01*
G37*
G36*
X0226614Y0249617D02*
X0224388Y0251843D01*
X0225362Y0252817D01*
X0227588Y0250591D01*
X0226614Y0249617D01*
G37*
G36*
X0228423Y0251426D02*
X0226197Y0253652D01*
X0227171Y0254626D01*
X0229397Y0252400D01*
X0228423Y0251426D01*
G37*
G36*
X0230233Y0253236D02*
X0228007Y0255462D01*
X0228981Y0256436D01*
X0231207Y0254210D01*
X0230233Y0253236D01*
G37*
G36*
X0232042Y0255045D02*
X0229816Y0257271D01*
X0230790Y0258245D01*
X0233016Y0256019D01*
X0232042Y0255045D01*
G37*
G36*
X0233852Y0256855D02*
X0231626Y0259081D01*
X0232600Y0260055D01*
X0234826Y0257829D01*
X0233852Y0256855D01*
G37*
G36*
X0235662Y0258664D02*
X0233436Y0260890D01*
X0234410Y0261864D01*
X0236636Y0259638D01*
X0235662Y0258664D01*
G37*
G36*
X0236219Y0263674D02*
X0238445Y0261448D01*
X0237471Y0260474D01*
X0235245Y0262700D01*
X0236219Y0263674D01*
G37*
G36*
X0238029Y0265484D02*
X0240255Y0263258D01*
X0239281Y0262284D01*
X0237055Y0264510D01*
X0238029Y0265484D01*
G37*
G36*
X0239838Y0267293D02*
X0242064Y0265067D01*
X0241090Y0264093D01*
X0238864Y0266319D01*
X0239838Y0267293D01*
G37*
G36*
X0241648Y0269103D02*
X0243874Y0266877D01*
X0242900Y0265903D01*
X0240674Y0268129D01*
X0241648Y0269103D01*
G37*
G36*
X0243457Y0270912D02*
X0245683Y0268686D01*
X0244709Y0267712D01*
X0242483Y0269938D01*
X0243457Y0270912D01*
G37*
G36*
X0245683Y0274114D02*
X0243457Y0271888D01*
X0242483Y0272862D01*
X0244709Y0275088D01*
X0245683Y0274114D01*
G37*
G36*
X0243874Y0275923D02*
X0241648Y0273697D01*
X0240674Y0274671D01*
X0242900Y0276897D01*
X0243874Y0275923D01*
G37*
G36*
X0242064Y0277733D02*
X0239838Y0275507D01*
X0238864Y0276481D01*
X0241090Y0278707D01*
X0242064Y0277733D01*
G37*
G36*
X0240255Y0279542D02*
X0238029Y0277316D01*
X0237055Y0278290D01*
X0239281Y0280516D01*
X0240255Y0279542D01*
G37*
G36*
X0238445Y0281352D02*
X0236219Y0279126D01*
X0235245Y0280100D01*
X0237471Y0282326D01*
X0238445Y0281352D01*
G37*
G36*
X0236636Y0283162D02*
X0234410Y0280936D01*
X0233436Y0281910D01*
X0235662Y0284136D01*
X0236636Y0283162D01*
G37*
G36*
X0231626Y0283719D02*
X0233852Y0285945D01*
X0234826Y0284971D01*
X0232600Y0282745D01*
X0231626Y0283719D01*
G37*
G36*
X0229816Y0285529D02*
X0232042Y0287755D01*
X0233016Y0286781D01*
X0230790Y0284555D01*
X0229816Y0285529D01*
G37*
G36*
X0228007Y0287338D02*
X0230233Y0289564D01*
X0231207Y0288590D01*
X0228981Y0286364D01*
X0228007Y0287338D01*
G37*
G36*
X0226197Y0289148D02*
X0228423Y0291374D01*
X0229397Y0290400D01*
X0227171Y0288174D01*
X0226197Y0289148D01*
G37*
G36*
X0224388Y0290957D02*
X0226614Y0293183D01*
X0227588Y0292209D01*
X0225362Y0289983D01*
X0224388Y0290957D01*
G37*
G36*
X0221186Y0293183D02*
X0223412Y0290957D01*
X0222438Y0289983D01*
X0220212Y0292209D01*
X0221186Y0293183D01*
G37*
G36*
X0219377Y0291374D02*
X0221603Y0289148D01*
X0220629Y0288174D01*
X0218403Y0290400D01*
X0219377Y0291374D01*
G37*
G36*
X0217567Y0289564D02*
X0219793Y0287338D01*
X0218819Y0286364D01*
X0216593Y0288590D01*
X0217567Y0289564D01*
G37*
G36*
X0215758Y0287755D02*
X0217984Y0285529D01*
X0217010Y0284555D01*
X0214784Y0286781D01*
X0215758Y0287755D01*
G37*
G36*
X0213948Y0285945D02*
X0216174Y0283719D01*
X0215200Y0282745D01*
X0212974Y0284971D01*
X0213948Y0285945D01*
G37*
G36*
X0212138Y0284136D02*
X0214364Y0281910D01*
X0213390Y0280936D01*
X0211164Y0283162D01*
X0212138Y0284136D01*
G37*
G36*
X0211581Y0279126D02*
X0209355Y0281352D01*
X0210329Y0282326D01*
X0212555Y0280100D01*
X0211581Y0279126D01*
G37*
G36*
X0209771Y0277316D02*
X0207545Y0279542D01*
X0208519Y0280516D01*
X0210745Y0278290D01*
X0209771Y0277316D01*
G37*
G36*
X0207962Y0275507D02*
X0205736Y0277733D01*
X0206710Y0278707D01*
X0208936Y0276481D01*
X0207962Y0275507D01*
G37*
G36*
X0206152Y0273697D02*
X0203926Y0275923D01*
X0204900Y0276897D01*
X0207126Y0274671D01*
X0206152Y0273697D01*
G37*
G36*
X0204343Y0271888D02*
X0202117Y0274114D01*
X0203091Y0275088D01*
X0205317Y0272862D01*
X0204343Y0271888D01*
G37*
G36*
X0202117Y0268686D02*
X0204343Y0270912D01*
X0205317Y0269938D01*
X0203091Y0267712D01*
X0202117Y0268686D01*
G37*
G36*
X0203926Y0266877D02*
X0206152Y0269103D01*
X0207126Y0268129D01*
X0204900Y0265903D01*
X0203926Y0266877D01*
G37*
G36*
X0205736Y0265067D02*
X0207962Y0267293D01*
X0208936Y0266319D01*
X0206710Y0264093D01*
X0205736Y0265067D01*
G37*
G36*
X0207545Y0263258D02*
X0209771Y0265484D01*
X0210745Y0264510D01*
X0208519Y0262284D01*
X0207545Y0263258D01*
G37*
G36*
X0209355Y0261448D02*
X0211581Y0263674D01*
X0212555Y0262700D01*
X0210329Y0260474D01*
X0209355Y0261448D01*
G37*
G36*
X0211164Y0259638D02*
X0213390Y0261864D01*
X0214364Y0260890D01*
X0212138Y0258664D01*
X0211164Y0259638D01*
G37*
G36*
X0216174Y0259081D02*
X0213948Y0256855D01*
X0212974Y0257829D01*
X0215200Y0260055D01*
X0216174Y0259081D01*
G37*
G36*
X0217984Y0257271D02*
X0215758Y0255045D01*
X0214784Y0256019D01*
X0217010Y0258245D01*
X0217984Y0257271D01*
G37*
G36*
X0219793Y0255462D02*
X0217567Y0253236D01*
X0216593Y0254210D01*
X0218819Y0256436D01*
X0219793Y0255462D01*
G37*
G36*
X0221603Y0253652D02*
X0219377Y0251426D01*
X0218403Y0252400D01*
X0220629Y0254626D01*
X0221603Y0253652D01*
G37*
G36*
X0223412Y0326243D02*
X0221186Y0324017D01*
X0220212Y0324991D01*
X0222438Y0327217D01*
X0223412Y0326243D01*
G37*
G36*
X0226614Y0324017D02*
X0224388Y0326243D01*
X0225362Y0327217D01*
X0227588Y0324991D01*
X0226614Y0324017D01*
G37*
G36*
X0228423Y0325826D02*
X0226197Y0328052D01*
X0227171Y0329026D01*
X0229397Y0326800D01*
X0228423Y0325826D01*
G37*
G36*
X0230233Y0327636D02*
X0228007Y0329862D01*
X0228981Y0330836D01*
X0231207Y0328610D01*
X0230233Y0327636D01*
G37*
G36*
X0232042Y0329445D02*
X0229816Y0331671D01*
X0230790Y0332645D01*
X0233016Y0330419D01*
X0232042Y0329445D01*
G37*
G36*
X0233852Y0331255D02*
X0231626Y0333481D01*
X0232600Y0334455D01*
X0234826Y0332229D01*
X0233852Y0331255D01*
G37*
G36*
X0235662Y0333064D02*
X0233436Y0335290D01*
X0234410Y0336264D01*
X0236636Y0334038D01*
X0235662Y0333064D01*
G37*
G36*
X0236219Y0338074D02*
X0238445Y0335848D01*
X0237471Y0334874D01*
X0235245Y0337100D01*
X0236219Y0338074D01*
G37*
G36*
X0238029Y0339884D02*
X0240255Y0337658D01*
X0239281Y0336684D01*
X0237055Y0338910D01*
X0238029Y0339884D01*
G37*
G36*
X0239838Y0341693D02*
X0242064Y0339467D01*
X0241090Y0338493D01*
X0238864Y0340719D01*
X0239838Y0341693D01*
G37*
G36*
X0241648Y0343503D02*
X0243874Y0341277D01*
X0242900Y0340303D01*
X0240674Y0342529D01*
X0241648Y0343503D01*
G37*
G36*
X0243457Y0345312D02*
X0245683Y0343086D01*
X0244709Y0342112D01*
X0242483Y0344338D01*
X0243457Y0345312D01*
G37*
G36*
X0245683Y0348514D02*
X0243457Y0346288D01*
X0242483Y0347262D01*
X0244709Y0349488D01*
X0245683Y0348514D01*
G37*
G36*
X0243874Y0350323D02*
X0241648Y0348097D01*
X0240674Y0349071D01*
X0242900Y0351297D01*
X0243874Y0350323D01*
G37*
G36*
X0242064Y0352133D02*
X0239838Y0349907D01*
X0238864Y0350881D01*
X0241090Y0353107D01*
X0242064Y0352133D01*
G37*
G36*
X0240255Y0353942D02*
X0238029Y0351716D01*
X0237055Y0352690D01*
X0239281Y0354916D01*
X0240255Y0353942D01*
G37*
G36*
X0238445Y0355752D02*
X0236219Y0353526D01*
X0235245Y0354500D01*
X0237471Y0356726D01*
X0238445Y0355752D01*
G37*
G36*
X0236636Y0357562D02*
X0234410Y0355336D01*
X0233436Y0356310D01*
X0235662Y0358536D01*
X0236636Y0357562D01*
G37*
G36*
X0231626Y0358119D02*
X0233852Y0360345D01*
X0234826Y0359371D01*
X0232600Y0357145D01*
X0231626Y0358119D01*
G37*
G36*
X0229816Y0359929D02*
X0232042Y0362155D01*
X0233016Y0361181D01*
X0230790Y0358955D01*
X0229816Y0359929D01*
G37*
G36*
X0228007Y0361738D02*
X0230233Y0363964D01*
X0231207Y0362990D01*
X0228981Y0360764D01*
X0228007Y0361738D01*
G37*
G36*
X0226197Y0363548D02*
X0228423Y0365774D01*
X0229397Y0364800D01*
X0227171Y0362574D01*
X0226197Y0363548D01*
G37*
G36*
X0224388Y0365357D02*
X0226614Y0367583D01*
X0227588Y0366609D01*
X0225362Y0364383D01*
X0224388Y0365357D01*
G37*
G36*
X0221186Y0367583D02*
X0223412Y0365357D01*
X0222438Y0364383D01*
X0220212Y0366609D01*
X0221186Y0367583D01*
G37*
G36*
X0219377Y0365774D02*
X0221603Y0363548D01*
X0220629Y0362574D01*
X0218403Y0364800D01*
X0219377Y0365774D01*
G37*
G36*
X0217567Y0363964D02*
X0219793Y0361738D01*
X0218819Y0360764D01*
X0216593Y0362990D01*
X0217567Y0363964D01*
G37*
G36*
X0215758Y0362155D02*
X0217984Y0359929D01*
X0217010Y0358955D01*
X0214784Y0361181D01*
X0215758Y0362155D01*
G37*
G36*
X0213948Y0360345D02*
X0216174Y0358119D01*
X0215200Y0357145D01*
X0212974Y0359371D01*
X0213948Y0360345D01*
G37*
G36*
X0212138Y0358536D02*
X0214364Y0356310D01*
X0213390Y0355336D01*
X0211164Y0357562D01*
X0212138Y0358536D01*
G37*
G36*
X0211581Y0353526D02*
X0209355Y0355752D01*
X0210329Y0356726D01*
X0212555Y0354500D01*
X0211581Y0353526D01*
G37*
G36*
X0209771Y0351716D02*
X0207545Y0353942D01*
X0208519Y0354916D01*
X0210745Y0352690D01*
X0209771Y0351716D01*
G37*
G36*
X0207962Y0349907D02*
X0205736Y0352133D01*
X0206710Y0353107D01*
X0208936Y0350881D01*
X0207962Y0349907D01*
G37*
G36*
X0206152Y0348097D02*
X0203926Y0350323D01*
X0204900Y0351297D01*
X0207126Y0349071D01*
X0206152Y0348097D01*
G37*
G36*
X0204343Y0346288D02*
X0202117Y0348514D01*
X0203091Y0349488D01*
X0205317Y0347262D01*
X0204343Y0346288D01*
G37*
G36*
X0202117Y0343086D02*
X0204343Y0345312D01*
X0205317Y0344338D01*
X0203091Y0342112D01*
X0202117Y0343086D01*
G37*
G36*
X0203926Y0341277D02*
X0206152Y0343503D01*
X0207126Y0342529D01*
X0204900Y0340303D01*
X0203926Y0341277D01*
G37*
G36*
X0205736Y0339467D02*
X0207962Y0341693D01*
X0208936Y0340719D01*
X0206710Y0338493D01*
X0205736Y0339467D01*
G37*
G36*
X0207545Y0337658D02*
X0209771Y0339884D01*
X0210745Y0338910D01*
X0208519Y0336684D01*
X0207545Y0337658D01*
G37*
G36*
X0209355Y0335848D02*
X0211581Y0338074D01*
X0212555Y0337100D01*
X0210329Y0334874D01*
X0209355Y0335848D01*
G37*
G36*
X0211164Y0334038D02*
X0213390Y0336264D01*
X0214364Y0335290D01*
X0212138Y0333064D01*
X0211164Y0334038D01*
G37*
G36*
X0216174Y0333481D02*
X0213948Y0331255D01*
X0212974Y0332229D01*
X0215200Y0334455D01*
X0216174Y0333481D01*
G37*
G36*
X0217984Y0331671D02*
X0215758Y0329445D01*
X0214784Y0330419D01*
X0217010Y0332645D01*
X0217984Y0331671D01*
G37*
G36*
X0219793Y0329862D02*
X0217567Y0327636D01*
X0216593Y0328610D01*
X0218819Y0330836D01*
X0219793Y0329862D01*
G37*
G36*
X0221603Y0328052D02*
X0219377Y0325826D01*
X0218403Y0326800D01*
X0220629Y0329026D01*
X0221603Y0328052D01*
G37*
D19*
X0167300Y0328600D03*
X0167300Y0330600D03*
X0167300Y0332600D03*
X0167300Y0334600D03*
X0156100Y0334600D03*
X0156100Y0332600D03*
X0156100Y0330600D03*
X0156100Y0328600D03*
X0156100Y0260200D03*
X0156100Y0258200D03*
X0156100Y0256200D03*
X0156100Y0254200D03*
X0167300Y0254200D03*
X0167300Y0256200D03*
X0167300Y0258200D03*
X0167300Y0260200D03*
X0167300Y0185800D03*
X0167300Y0183800D03*
X0167300Y0181800D03*
X0167300Y0179800D03*
X0156100Y0179800D03*
X0156100Y0181800D03*
X0156100Y0183800D03*
X0156100Y0185800D03*
X0156100Y0111400D03*
X0156100Y0109400D03*
X0156100Y0107400D03*
X0156100Y0105400D03*
X0167300Y0105400D03*
X0167300Y0107400D03*
X0167300Y0109400D03*
X0167300Y0111400D03*
X0167300Y0037000D03*
X0167300Y0035000D03*
X0167300Y0033000D03*
X0167300Y0031000D03*
X0156100Y0031000D03*
X0156100Y0033000D03*
X0156100Y0035000D03*
X0156100Y0037000D03*
D20*
X0328287Y0032313D03*
X0328287Y0046880D03*
X0328287Y0106713D03*
X0328287Y0121280D03*
X0328287Y0181113D03*
X0328287Y0195680D03*
X0328287Y0255513D03*
X0328287Y0270080D03*
X0328287Y0329913D03*
X0328287Y0344480D03*
D21*
X0355900Y0332200D03*
X0355900Y0257800D03*
X0355900Y0183400D03*
X0355900Y0109000D03*
X0355900Y0034600D03*
X0046020Y0031584D03*
X0041295Y0031584D03*
X0036571Y0031584D03*
X0031846Y0031584D03*
X0027122Y0031584D03*
X0027122Y0065049D03*
X0031846Y0065049D03*
X0036571Y0065049D03*
X0041295Y0065049D03*
X0046020Y0065049D03*
X0046020Y0105984D03*
X0041295Y0105984D03*
X0036571Y0105984D03*
X0031846Y0105984D03*
X0027122Y0105984D03*
X0027122Y0139449D03*
X0031846Y0139449D03*
X0036571Y0139449D03*
X0041295Y0139449D03*
X0046020Y0139449D03*
X0046020Y0180384D03*
X0041295Y0180384D03*
X0036571Y0180384D03*
X0031846Y0180384D03*
X0027122Y0180384D03*
X0027122Y0213849D03*
X0031846Y0213849D03*
X0036571Y0213849D03*
X0041295Y0213849D03*
X0046020Y0213849D03*
X0046020Y0254784D03*
X0041295Y0254784D03*
X0036571Y0254784D03*
X0031846Y0254784D03*
X0027122Y0254784D03*
X0027122Y0288249D03*
X0031846Y0288249D03*
X0036571Y0288249D03*
X0041295Y0288249D03*
X0046020Y0288249D03*
X0046020Y0329184D03*
X0041295Y0329184D03*
X0036571Y0329184D03*
X0031846Y0329184D03*
X0027122Y0329184D03*
X0027122Y0362649D03*
X0031846Y0362649D03*
X0036571Y0362649D03*
X0041295Y0362649D03*
X0046020Y0362649D03*
D22*
X0052516Y0357728D03*
X0052516Y0353003D03*
X0052516Y0348279D03*
X0052516Y0343554D03*
X0052516Y0338830D03*
X0052516Y0334106D03*
X0052516Y0283328D03*
X0052516Y0278603D03*
X0052516Y0273879D03*
X0052516Y0269154D03*
X0052516Y0264430D03*
X0052516Y0259706D03*
X0052516Y0208928D03*
X0052516Y0204203D03*
X0052516Y0199479D03*
X0052516Y0194754D03*
X0052516Y0190030D03*
X0052516Y0185306D03*
X0052516Y0134528D03*
X0052516Y0129803D03*
X0052516Y0125079D03*
X0052516Y0120354D03*
X0052516Y0115630D03*
X0052516Y0110906D03*
X0052516Y0060128D03*
X0052516Y0055403D03*
X0052516Y0050679D03*
X0052516Y0045954D03*
X0052516Y0041230D03*
X0052516Y0036506D03*
D23*
X0345172Y0037159D03*
X0345172Y0034600D03*
X0345172Y0032041D03*
X0345172Y0029482D03*
X0345172Y0039718D03*
X0345172Y0103882D03*
X0345172Y0106441D03*
X0345172Y0109000D03*
X0345172Y0111559D03*
X0345172Y0114118D03*
X0345172Y0178282D03*
X0345172Y0180841D03*
X0345172Y0183400D03*
X0345172Y0185959D03*
X0345172Y0188518D03*
X0345172Y0252682D03*
X0345172Y0255241D03*
X0345172Y0257800D03*
X0345172Y0260359D03*
X0345172Y0262918D03*
X0345172Y0327082D03*
X0345172Y0329641D03*
X0345172Y0332200D03*
X0345172Y0334759D03*
X0345172Y0337318D03*
D24*
X0355900Y0346704D03*
X0355900Y0317696D03*
X0355900Y0272304D03*
X0355900Y0243296D03*
X0355900Y0197904D03*
X0355900Y0168896D03*
X0355900Y0123504D03*
X0355900Y0094496D03*
X0355900Y0049104D03*
X0355900Y0020096D03*
D25*
X0168040Y0043863D03*
X0160560Y0043863D03*
X0164300Y0052131D03*
X0160560Y0118263D03*
X0168040Y0118263D03*
X0164300Y0126531D03*
X0160560Y0192663D03*
X0168040Y0192663D03*
X0164300Y0200931D03*
X0160560Y0267063D03*
X0168040Y0267063D03*
X0164300Y0275331D03*
X0160560Y0341463D03*
X0168040Y0341463D03*
X0164300Y0349731D03*
D26*
X0122643Y0375400D03*
X0115557Y0375400D03*
X0115557Y0301000D03*
X0122643Y0301000D03*
X0122643Y0226600D03*
X0115557Y0226600D03*
X0115557Y0152200D03*
X0122643Y0152200D03*
X0122643Y0077800D03*
X0115557Y0077800D03*
D27*
X0138029Y0064550D03*
X0138029Y0058250D03*
X0154171Y0058250D03*
X0154171Y0064550D03*
X0176229Y0037350D03*
X0176229Y0031050D03*
X0192371Y0031050D03*
X0192371Y0037350D03*
X0192234Y0050860D03*
X0192234Y0058340D03*
X0183966Y0058340D03*
X0183966Y0050860D03*
X0176229Y0105450D03*
X0176229Y0111750D03*
X0183966Y0125260D03*
X0183966Y0132740D03*
X0192234Y0132740D03*
X0192234Y0125260D03*
X0192371Y0111750D03*
X0192371Y0105450D03*
X0154171Y0132650D03*
X0154171Y0138950D03*
X0138029Y0138950D03*
X0138029Y0132650D03*
X0176229Y0179850D03*
X0176229Y0186150D03*
X0183966Y0199660D03*
X0183966Y0207140D03*
X0192234Y0207140D03*
X0192234Y0199660D03*
X0192371Y0186150D03*
X0192371Y0179850D03*
X0154171Y0207050D03*
X0154171Y0213350D03*
X0138029Y0213350D03*
X0138029Y0207050D03*
X0176229Y0254250D03*
X0176229Y0260550D03*
X0183966Y0274060D03*
X0183966Y0281540D03*
X0192234Y0281540D03*
X0192234Y0274060D03*
X0192371Y0260550D03*
X0192371Y0254250D03*
X0154171Y0281450D03*
X0154171Y0287750D03*
X0138029Y0287750D03*
X0138029Y0281450D03*
X0176229Y0328650D03*
X0176229Y0334950D03*
X0183966Y0348460D03*
X0183966Y0355940D03*
X0192234Y0355940D03*
X0192234Y0348460D03*
X0192371Y0334950D03*
X0192371Y0328650D03*
X0154171Y0355850D03*
X0154171Y0362150D03*
X0138029Y0362150D03*
X0138029Y0355850D03*
M02*
