G75*
%MOIN*%
%OFA0B0*%
%FSLAX25Y25*%
%IPPOS*%
%LPD*%
%AMOC8*
5,1,8,0,0,1.08239X$1,22.5*
%
%ADD10C,0.00700*%
%ADD11C,0.00600*%
%ADD12C,0.01000*%
%ADD13C,0.01200*%
%ADD14C,0.00100*%
%ADD15C,0.00394*%
%ADD16R,0.11575X0.02913*%
%ADD17C,0.00039*%
%ADD18C,0.00200*%
D10*
X0060191Y0019735D02*
X0062393Y0019735D01*
X0061292Y0019735D02*
X0061292Y0016432D01*
X0063874Y0016983D02*
X0064425Y0016432D01*
X0065526Y0016432D01*
X0066076Y0016983D01*
X0065526Y0018084D02*
X0064425Y0018084D01*
X0063874Y0017533D01*
X0063874Y0016983D01*
X0065526Y0018084D02*
X0066076Y0018634D01*
X0066076Y0019185D01*
X0065526Y0019735D01*
X0064425Y0019735D01*
X0063874Y0019185D01*
X0067557Y0019185D02*
X0067557Y0018084D01*
X0068108Y0017533D01*
X0069759Y0017533D01*
X0068658Y0017533D02*
X0067557Y0016432D01*
X0069759Y0016432D02*
X0069759Y0019735D01*
X0068108Y0019735D01*
X0067557Y0019185D01*
X0067570Y0024250D02*
X0066469Y0024250D01*
X0065918Y0024800D01*
X0064437Y0024800D02*
X0063887Y0024250D01*
X0062786Y0024250D01*
X0062235Y0024800D01*
X0062235Y0025351D01*
X0062786Y0025901D01*
X0063887Y0025901D01*
X0064437Y0026452D01*
X0064437Y0027002D01*
X0063887Y0027553D01*
X0062786Y0027553D01*
X0062235Y0027002D01*
X0060754Y0027553D02*
X0059102Y0027553D01*
X0058552Y0027002D01*
X0058552Y0025901D01*
X0059102Y0025351D01*
X0060754Y0025351D01*
X0060754Y0024250D02*
X0060754Y0027553D01*
X0065918Y0027002D02*
X0066469Y0027553D01*
X0067570Y0027553D01*
X0068120Y0027002D01*
X0068120Y0024800D01*
X0067570Y0024250D01*
X0069475Y0024250D02*
X0070576Y0024250D01*
X0070025Y0024250D02*
X0070025Y0027553D01*
X0069475Y0027553D02*
X0070576Y0027553D01*
X0085076Y0027933D02*
X0085076Y0028484D01*
X0085626Y0028484D01*
X0085626Y0027933D01*
X0085076Y0027933D01*
X0085626Y0026452D02*
X0085076Y0025901D01*
X0085076Y0024800D01*
X0085626Y0024250D01*
X0086727Y0025351D02*
X0086727Y0025901D01*
X0086177Y0026452D01*
X0085626Y0026452D01*
X0086727Y0025901D02*
X0087277Y0026452D01*
X0087828Y0026452D01*
X0088378Y0025901D01*
X0088378Y0024800D01*
X0087828Y0024250D01*
X0095376Y0025100D02*
X0095376Y0026201D01*
X0095926Y0026752D01*
X0097027Y0026752D01*
X0097027Y0025651D01*
X0098128Y0026752D02*
X0098678Y0026201D01*
X0098678Y0025100D01*
X0098128Y0024550D01*
X0095926Y0024550D01*
X0095376Y0025100D01*
X0095376Y0028233D02*
X0098678Y0028233D01*
X0095376Y0030435D01*
X0098678Y0030435D01*
X0098678Y0031916D02*
X0095376Y0031916D01*
X0095376Y0033568D01*
X0095926Y0034118D01*
X0098128Y0034118D01*
X0098678Y0033568D01*
X0098678Y0031916D01*
X0088378Y0031426D02*
X0088378Y0030325D01*
X0087828Y0029775D01*
X0086727Y0030876D02*
X0086727Y0031426D01*
X0086177Y0031977D01*
X0085626Y0031977D01*
X0085076Y0031426D01*
X0085076Y0030325D01*
X0085626Y0029775D01*
X0086727Y0031426D02*
X0087277Y0031977D01*
X0087828Y0031977D01*
X0088378Y0031426D01*
X0127307Y0026647D02*
X0127857Y0026647D01*
X0130059Y0028849D01*
X0130610Y0028849D01*
X0130610Y0026647D01*
X0127307Y0025166D02*
X0127307Y0022964D01*
X0127307Y0024065D02*
X0130610Y0024065D01*
X0129509Y0022964D01*
X0135576Y0022950D02*
X0135576Y0025152D01*
X0135576Y0024051D02*
X0138878Y0024051D01*
X0137777Y0022950D01*
X0145376Y0022950D02*
X0145376Y0025152D01*
X0145376Y0024051D02*
X0148678Y0024051D01*
X0147577Y0022950D01*
X0155376Y0022950D02*
X0157577Y0022950D01*
X0158678Y0024051D01*
X0157577Y0025152D01*
X0155376Y0025152D01*
X0155376Y0026633D02*
X0155376Y0028835D01*
X0155376Y0027734D02*
X0158678Y0027734D01*
X0157577Y0026633D01*
X0157027Y0025152D02*
X0157027Y0022950D01*
X0165576Y0022950D02*
X0165576Y0025152D01*
X0165576Y0026633D02*
X0165576Y0028835D01*
X0165576Y0027734D02*
X0168878Y0027734D01*
X0167777Y0026633D01*
X0167777Y0025152D02*
X0168328Y0025152D01*
X0168878Y0024601D01*
X0168878Y0023500D01*
X0168328Y0022950D01*
X0167777Y0025152D02*
X0165576Y0022950D01*
X0175776Y0022950D02*
X0177977Y0025152D01*
X0178528Y0025152D01*
X0179078Y0024601D01*
X0179078Y0023500D01*
X0178528Y0022950D01*
X0175776Y0022950D02*
X0175776Y0025152D01*
X0175776Y0026633D02*
X0177977Y0028835D01*
X0178528Y0028835D01*
X0179078Y0028285D01*
X0179078Y0027184D01*
X0178528Y0026633D01*
X0175776Y0026633D02*
X0175776Y0028835D01*
X0185776Y0028285D02*
X0185776Y0027184D01*
X0186326Y0026633D01*
X0187427Y0027734D02*
X0187427Y0028285D01*
X0186877Y0028835D01*
X0186326Y0028835D01*
X0185776Y0028285D01*
X0187427Y0028285D02*
X0187977Y0028835D01*
X0188528Y0028835D01*
X0189078Y0028285D01*
X0189078Y0027184D01*
X0188528Y0026633D01*
X0188528Y0025152D02*
X0189078Y0024601D01*
X0189078Y0023500D01*
X0188528Y0022950D01*
X0187977Y0025152D02*
X0185776Y0022950D01*
X0185776Y0025152D01*
X0187977Y0025152D02*
X0188528Y0025152D01*
X0195176Y0025152D02*
X0195176Y0022950D01*
X0197377Y0025152D01*
X0197928Y0025152D01*
X0198478Y0024601D01*
X0198478Y0023500D01*
X0197928Y0022950D01*
X0205776Y0022950D02*
X0205776Y0025152D01*
X0206326Y0026633D02*
X0205776Y0027184D01*
X0205776Y0028285D01*
X0206326Y0028835D01*
X0207427Y0028835D01*
X0207977Y0028285D01*
X0207977Y0027734D01*
X0207427Y0026633D01*
X0209078Y0026633D01*
X0209078Y0028835D01*
X0215776Y0028285D02*
X0216326Y0028835D01*
X0216877Y0028835D01*
X0217427Y0028285D01*
X0217427Y0026633D01*
X0216326Y0026633D01*
X0215776Y0027184D01*
X0215776Y0028285D01*
X0217427Y0026633D02*
X0218528Y0027734D01*
X0219078Y0028835D01*
X0225776Y0026633D02*
X0226326Y0026633D01*
X0228528Y0028835D01*
X0229078Y0028835D01*
X0229078Y0026633D01*
X0228528Y0025152D02*
X0229078Y0024601D01*
X0229078Y0023500D01*
X0228528Y0022950D01*
X0227977Y0025152D02*
X0225776Y0022950D01*
X0225776Y0025152D01*
X0227977Y0025152D02*
X0228528Y0025152D01*
X0235776Y0025152D02*
X0235776Y0022950D01*
X0237977Y0025152D01*
X0238528Y0025152D01*
X0239078Y0024601D01*
X0239078Y0023500D01*
X0238528Y0022950D01*
X0245776Y0022950D02*
X0247977Y0025152D01*
X0248528Y0025152D01*
X0249078Y0024601D01*
X0249078Y0023500D01*
X0248528Y0022950D01*
X0245776Y0022950D02*
X0245776Y0025152D01*
X0246326Y0026633D02*
X0245776Y0027184D01*
X0245776Y0028285D01*
X0246326Y0028835D01*
X0248528Y0028835D01*
X0249078Y0028285D01*
X0249078Y0027184D01*
X0248528Y0026633D01*
X0247977Y0026633D01*
X0247427Y0027184D01*
X0247427Y0028835D01*
X0239078Y0028285D02*
X0238528Y0028835D01*
X0237977Y0028835D01*
X0237427Y0028285D01*
X0237427Y0027184D01*
X0237977Y0026633D01*
X0238528Y0026633D01*
X0239078Y0027184D01*
X0239078Y0028285D01*
X0237427Y0028285D02*
X0236877Y0028835D01*
X0236326Y0028835D01*
X0235776Y0028285D01*
X0235776Y0027184D01*
X0236326Y0026633D01*
X0236877Y0026633D01*
X0237427Y0027184D01*
X0255776Y0027184D02*
X0256326Y0026633D01*
X0258528Y0028835D01*
X0256326Y0028835D01*
X0255776Y0028285D01*
X0255776Y0027184D01*
X0256326Y0026633D02*
X0258528Y0026633D01*
X0259078Y0027184D01*
X0259078Y0028285D01*
X0258528Y0028835D01*
X0265776Y0028835D02*
X0265776Y0026633D01*
X0265776Y0027734D02*
X0269078Y0027734D01*
X0267977Y0026633D01*
X0267977Y0025152D02*
X0267427Y0024601D01*
X0266877Y0025152D01*
X0266326Y0025152D01*
X0265776Y0024601D01*
X0265776Y0023500D01*
X0266326Y0022950D01*
X0267427Y0024051D02*
X0267427Y0024601D01*
X0267977Y0025152D02*
X0268528Y0025152D01*
X0269078Y0024601D01*
X0269078Y0023500D01*
X0268528Y0022950D01*
X0274776Y0023500D02*
X0274776Y0024601D01*
X0275326Y0025152D01*
X0275877Y0025152D01*
X0276427Y0024601D01*
X0276427Y0024051D01*
X0276427Y0024601D02*
X0276977Y0025152D01*
X0277528Y0025152D01*
X0278078Y0024601D01*
X0278078Y0023500D01*
X0277528Y0022950D01*
X0275326Y0022950D02*
X0274776Y0023500D01*
X0274776Y0026633D02*
X0276977Y0028835D01*
X0277528Y0028835D01*
X0278078Y0028285D01*
X0278078Y0027184D01*
X0277528Y0026633D01*
X0274776Y0026633D02*
X0274776Y0028835D01*
X0285276Y0028835D02*
X0285276Y0026633D01*
X0288578Y0026633D01*
X0288578Y0028835D01*
X0288028Y0030316D02*
X0287477Y0030316D01*
X0286927Y0030867D01*
X0286927Y0031968D01*
X0286377Y0032518D01*
X0285826Y0032518D01*
X0285276Y0031968D01*
X0285276Y0030867D01*
X0285826Y0030316D01*
X0288028Y0030316D02*
X0288578Y0030867D01*
X0288578Y0031968D01*
X0288028Y0032518D01*
X0288578Y0033999D02*
X0285276Y0033999D01*
X0285276Y0036201D01*
X0286927Y0035100D02*
X0286927Y0033999D01*
X0288578Y0033999D02*
X0288578Y0036201D01*
X0288578Y0037683D02*
X0288578Y0039884D01*
X0288578Y0038784D02*
X0285276Y0038784D01*
X0295276Y0033259D02*
X0296377Y0034360D01*
X0298578Y0034360D01*
X0296377Y0032158D02*
X0295276Y0033259D01*
X0296377Y0032158D02*
X0298578Y0032158D01*
X0298028Y0030677D02*
X0297477Y0030677D01*
X0296927Y0030126D01*
X0296377Y0030677D01*
X0295826Y0030677D01*
X0295276Y0030126D01*
X0295276Y0029025D01*
X0295826Y0028475D01*
X0295826Y0027184D02*
X0295276Y0027184D01*
X0295276Y0026633D01*
X0295826Y0026633D01*
X0295826Y0027184D01*
X0298028Y0028475D02*
X0298578Y0029025D01*
X0298578Y0030126D01*
X0298028Y0030677D01*
X0296927Y0030126D02*
X0296927Y0029576D01*
X0305276Y0030316D02*
X0305276Y0031968D01*
X0305826Y0032518D01*
X0308028Y0032518D01*
X0308578Y0031968D01*
X0308578Y0030316D01*
X0305276Y0030316D01*
X0305276Y0028835D02*
X0308578Y0028835D01*
X0308578Y0026633D02*
X0305276Y0028835D01*
X0305276Y0026633D02*
X0308578Y0026633D01*
X0308028Y0025152D02*
X0308578Y0024601D01*
X0308578Y0023500D01*
X0308028Y0022950D01*
X0305826Y0022950D01*
X0305276Y0023500D01*
X0305276Y0024601D01*
X0305826Y0025152D01*
X0306927Y0025152D01*
X0306927Y0024051D01*
X0298578Y0023500D02*
X0298028Y0022950D01*
X0298578Y0023500D02*
X0298578Y0024601D01*
X0298028Y0025152D01*
X0297477Y0025152D01*
X0296927Y0024601D01*
X0296377Y0025152D01*
X0295826Y0025152D01*
X0295276Y0024601D01*
X0295276Y0023500D01*
X0295826Y0022950D01*
X0296927Y0024051D02*
X0296927Y0024601D01*
X0288578Y0024601D02*
X0288578Y0022950D01*
X0285276Y0022950D01*
X0286377Y0022950D02*
X0286377Y0024601D01*
X0286927Y0025152D01*
X0288028Y0025152D01*
X0288578Y0024601D01*
X0286377Y0024051D02*
X0285276Y0025152D01*
X0286927Y0026633D02*
X0286927Y0027734D01*
X0259078Y0024601D02*
X0259078Y0023500D01*
X0258528Y0022950D01*
X0257427Y0024051D02*
X0257427Y0024601D01*
X0256877Y0025152D01*
X0256326Y0025152D01*
X0255776Y0024601D01*
X0255776Y0023500D01*
X0256326Y0022950D01*
X0257427Y0024601D02*
X0257977Y0025152D01*
X0258528Y0025152D01*
X0259078Y0024601D01*
X0219078Y0024601D02*
X0219078Y0023500D01*
X0218528Y0022950D01*
X0217977Y0025152D02*
X0215776Y0022950D01*
X0215776Y0025152D01*
X0217977Y0025152D02*
X0218528Y0025152D01*
X0219078Y0024601D01*
X0209078Y0024601D02*
X0209078Y0023500D01*
X0208528Y0022950D01*
X0207977Y0025152D02*
X0205776Y0022950D01*
X0207977Y0025152D02*
X0208528Y0025152D01*
X0209078Y0024601D01*
X0198478Y0028285D02*
X0196827Y0026633D01*
X0196827Y0028835D01*
X0195176Y0028285D02*
X0198478Y0028285D01*
X0158678Y0030867D02*
X0158128Y0030316D01*
X0158678Y0030867D02*
X0158678Y0031968D01*
X0158128Y0032518D01*
X0157577Y0032518D01*
X0155376Y0030316D01*
X0155376Y0032518D01*
X0148678Y0028285D02*
X0148128Y0028835D01*
X0145926Y0028835D01*
X0145376Y0028285D01*
X0145376Y0027184D01*
X0145926Y0026633D01*
X0147027Y0027184D02*
X0147577Y0026633D01*
X0148128Y0026633D01*
X0148678Y0027184D01*
X0148678Y0028285D01*
X0147027Y0028835D02*
X0147027Y0027184D01*
X0138878Y0027184D02*
X0138328Y0026633D01*
X0137777Y0026633D01*
X0137227Y0027184D01*
X0137227Y0028285D01*
X0136677Y0028835D01*
X0136126Y0028835D01*
X0135576Y0028285D01*
X0135576Y0027184D01*
X0136126Y0026633D01*
X0136677Y0026633D01*
X0137227Y0027184D01*
X0137227Y0028285D02*
X0137777Y0028835D01*
X0138328Y0028835D01*
X0138878Y0028285D01*
X0138878Y0027184D01*
X0162976Y0061901D02*
X0165177Y0061901D01*
X0166278Y0063002D01*
X0165177Y0064102D01*
X0162976Y0064102D01*
X0162976Y0065584D02*
X0162976Y0067786D01*
X0162976Y0066685D02*
X0166278Y0066685D01*
X0165177Y0065584D01*
X0164627Y0064102D02*
X0164627Y0061901D01*
X0175276Y0065584D02*
X0177477Y0065584D01*
X0178578Y0066685D01*
X0177477Y0067786D01*
X0175276Y0067786D01*
X0175826Y0069267D02*
X0175276Y0069817D01*
X0175276Y0070918D01*
X0175826Y0071469D01*
X0178028Y0071469D01*
X0178578Y0070918D01*
X0178578Y0069817D01*
X0178028Y0069267D01*
X0177477Y0069267D01*
X0176927Y0069817D01*
X0176927Y0071469D01*
X0176927Y0067786D02*
X0176927Y0065584D01*
X0185276Y0065584D02*
X0187477Y0065584D01*
X0188578Y0066685D01*
X0187477Y0067786D01*
X0185276Y0067786D01*
X0185826Y0069267D02*
X0186377Y0069267D01*
X0186927Y0069817D01*
X0186927Y0070918D01*
X0186377Y0071469D01*
X0185826Y0071469D01*
X0185276Y0070918D01*
X0185276Y0069817D01*
X0185826Y0069267D01*
X0186927Y0069817D02*
X0187477Y0069267D01*
X0188028Y0069267D01*
X0188578Y0069817D01*
X0188578Y0070918D01*
X0188028Y0071469D01*
X0187477Y0071469D01*
X0186927Y0070918D01*
X0186927Y0067786D02*
X0186927Y0065584D01*
X0195276Y0065584D02*
X0197477Y0065584D01*
X0198578Y0066685D01*
X0197477Y0067786D01*
X0195276Y0067786D01*
X0195276Y0069267D02*
X0195826Y0069267D01*
X0198028Y0071469D01*
X0198578Y0071469D01*
X0198578Y0069267D01*
X0196927Y0067786D02*
X0196927Y0065584D01*
X0205276Y0065584D02*
X0207477Y0065584D01*
X0208578Y0066685D01*
X0207477Y0067786D01*
X0205276Y0067786D01*
X0205826Y0069267D02*
X0205276Y0069817D01*
X0205276Y0070918D01*
X0205826Y0071469D01*
X0206377Y0071469D01*
X0206927Y0070918D01*
X0206927Y0069267D01*
X0205826Y0069267D01*
X0206927Y0069267D02*
X0208028Y0070368D01*
X0208578Y0071469D01*
X0206927Y0067786D02*
X0206927Y0065584D01*
X0215176Y0065584D02*
X0217377Y0065584D01*
X0218478Y0066685D01*
X0217377Y0067786D01*
X0215176Y0067786D01*
X0215726Y0069267D02*
X0215176Y0069817D01*
X0215176Y0070918D01*
X0215726Y0071469D01*
X0216827Y0071469D01*
X0217377Y0070918D01*
X0217377Y0070368D01*
X0216827Y0069267D01*
X0218478Y0069267D01*
X0218478Y0071469D01*
X0223976Y0070918D02*
X0227278Y0070918D01*
X0225627Y0069267D01*
X0225627Y0071469D01*
X0225627Y0067786D02*
X0225627Y0065584D01*
X0226177Y0065584D02*
X0223976Y0065584D01*
X0226177Y0065584D02*
X0227278Y0066685D01*
X0226177Y0067786D01*
X0223976Y0067786D01*
X0216827Y0067786D02*
X0216827Y0065584D01*
X0235176Y0065584D02*
X0237377Y0065584D01*
X0238478Y0066685D01*
X0237377Y0067786D01*
X0235176Y0067786D01*
X0235726Y0069267D02*
X0235176Y0069817D01*
X0235176Y0070918D01*
X0235726Y0071469D01*
X0236277Y0071469D01*
X0236827Y0070918D01*
X0236827Y0070368D01*
X0236827Y0070918D02*
X0237377Y0071469D01*
X0237928Y0071469D01*
X0238478Y0070918D01*
X0238478Y0069817D01*
X0237928Y0069267D01*
X0236827Y0067786D02*
X0236827Y0065584D01*
X0244976Y0065484D02*
X0247177Y0065484D01*
X0248278Y0066585D01*
X0247177Y0067686D01*
X0244976Y0067686D01*
X0244976Y0069167D02*
X0247177Y0071369D01*
X0247728Y0071369D01*
X0248278Y0070818D01*
X0248278Y0069717D01*
X0247728Y0069167D01*
X0246627Y0067686D02*
X0246627Y0065484D01*
X0255076Y0065484D02*
X0257277Y0065484D01*
X0258378Y0066585D01*
X0257277Y0067686D01*
X0255076Y0067686D01*
X0255076Y0069167D02*
X0255076Y0071369D01*
X0255076Y0070268D02*
X0258378Y0070268D01*
X0257277Y0069167D01*
X0256727Y0067686D02*
X0256727Y0065484D01*
X0265676Y0069267D02*
X0267877Y0071469D01*
X0268428Y0071469D01*
X0268978Y0070918D01*
X0268978Y0069817D01*
X0268428Y0069267D01*
X0265676Y0069267D02*
X0265676Y0071469D01*
X0275276Y0071469D02*
X0275276Y0069267D01*
X0275276Y0070368D02*
X0278578Y0070368D01*
X0277477Y0069267D01*
X0284376Y0069817D02*
X0284926Y0069267D01*
X0287128Y0071469D01*
X0284926Y0071469D01*
X0284376Y0070918D01*
X0284376Y0069817D01*
X0284926Y0069267D02*
X0287128Y0069267D01*
X0287678Y0069817D01*
X0287678Y0070918D01*
X0287128Y0071469D01*
X0286577Y0067786D02*
X0284376Y0067786D01*
X0286027Y0067786D02*
X0286027Y0065584D01*
X0286577Y0065584D02*
X0287678Y0066685D01*
X0286577Y0067786D01*
X0286577Y0065584D02*
X0284376Y0065584D01*
X0295276Y0066134D02*
X0295826Y0065584D01*
X0295276Y0066134D02*
X0295276Y0067235D01*
X0295826Y0067786D01*
X0296377Y0067786D01*
X0296927Y0067235D01*
X0296927Y0066685D01*
X0296927Y0067235D02*
X0297477Y0067786D01*
X0298028Y0067786D01*
X0298578Y0067235D01*
X0298578Y0066134D01*
X0298028Y0065584D01*
X0295826Y0064293D02*
X0295276Y0064293D01*
X0295276Y0063742D01*
X0295826Y0063742D01*
X0295826Y0064293D01*
X0295826Y0062261D02*
X0295276Y0061710D01*
X0295276Y0060609D01*
X0295826Y0060059D01*
X0296927Y0061160D02*
X0296927Y0061710D01*
X0296377Y0062261D01*
X0295826Y0062261D01*
X0296927Y0061710D02*
X0297477Y0062261D01*
X0298028Y0062261D01*
X0298578Y0061710D01*
X0298578Y0060609D01*
X0298028Y0060059D01*
X0305276Y0062451D02*
X0305276Y0063552D01*
X0305826Y0064102D01*
X0306927Y0064102D01*
X0306927Y0063002D01*
X0308028Y0064102D02*
X0308578Y0063552D01*
X0308578Y0062451D01*
X0308028Y0061901D01*
X0305826Y0061901D01*
X0305276Y0062451D01*
X0305276Y0065584D02*
X0308578Y0065584D01*
X0305276Y0067786D01*
X0308578Y0067786D01*
X0308578Y0069267D02*
X0305276Y0069267D01*
X0305276Y0070918D01*
X0305826Y0071469D01*
X0308028Y0071469D01*
X0308578Y0070918D01*
X0308578Y0069267D01*
X0315376Y0068568D02*
X0316477Y0067467D01*
X0318678Y0067467D01*
X0318678Y0065986D02*
X0318678Y0063784D01*
X0317027Y0063784D01*
X0317577Y0064885D01*
X0317577Y0065435D01*
X0317027Y0065986D01*
X0315926Y0065986D01*
X0315376Y0065435D01*
X0315376Y0064334D01*
X0315926Y0063784D01*
X0315376Y0068568D02*
X0316477Y0069669D01*
X0318678Y0069669D01*
X0298578Y0069267D02*
X0296377Y0069267D01*
X0295276Y0070368D01*
X0296377Y0071469D01*
X0298578Y0071469D01*
X0244976Y0071369D02*
X0244976Y0069167D01*
X0166278Y0069817D02*
X0166278Y0070918D01*
X0165728Y0071469D01*
X0163526Y0069267D01*
X0162976Y0069817D01*
X0162976Y0070918D01*
X0163526Y0071469D01*
X0165728Y0071469D01*
X0166278Y0069817D02*
X0165728Y0069267D01*
X0163526Y0069267D01*
X0315276Y0027734D02*
X0316377Y0026633D01*
X0318578Y0026633D01*
X0318578Y0025152D02*
X0318578Y0022950D01*
X0316927Y0022950D01*
X0317477Y0024051D01*
X0317477Y0024601D01*
X0316927Y0025152D01*
X0315826Y0025152D01*
X0315276Y0024601D01*
X0315276Y0023500D01*
X0315826Y0022950D01*
X0315276Y0027734D02*
X0316377Y0028835D01*
X0318578Y0028835D01*
D11*
X0234078Y0039116D02*
X0233521Y0038559D01*
X0232964Y0039116D01*
X0232408Y0038559D01*
X0231851Y0039116D01*
X0231851Y0040786D01*
X0230452Y0040786D02*
X0230452Y0039116D01*
X0229896Y0038559D01*
X0229339Y0039116D01*
X0228782Y0038559D01*
X0228226Y0039116D01*
X0228226Y0040786D01*
X0226827Y0040786D02*
X0226827Y0039116D01*
X0226271Y0038559D01*
X0225714Y0039116D01*
X0225157Y0038559D01*
X0224601Y0039116D01*
X0224601Y0040786D01*
X0221390Y0041342D02*
X0220276Y0040229D01*
X0220276Y0038559D01*
X0220276Y0040229D02*
X0219163Y0041342D01*
X0219163Y0041899D01*
X0217764Y0041899D02*
X0217764Y0041342D01*
X0216651Y0040229D01*
X0216651Y0038559D01*
X0216651Y0040229D02*
X0215538Y0041342D01*
X0215538Y0041899D01*
X0214139Y0041899D02*
X0214139Y0041342D01*
X0213026Y0040229D01*
X0213026Y0038559D01*
X0213026Y0040229D02*
X0211913Y0041342D01*
X0211913Y0041899D01*
X0210514Y0041899D02*
X0210514Y0041342D01*
X0209401Y0040229D01*
X0209401Y0038559D01*
X0209401Y0040229D02*
X0208288Y0041342D01*
X0208288Y0041899D01*
X0206889Y0041899D02*
X0206889Y0041342D01*
X0205776Y0040229D01*
X0205776Y0038559D01*
X0205776Y0040229D02*
X0204662Y0041342D01*
X0204662Y0041899D01*
X0203264Y0041899D02*
X0203264Y0041342D01*
X0202151Y0040229D01*
X0202151Y0038559D01*
X0202151Y0040229D02*
X0201037Y0041342D01*
X0201037Y0041899D01*
X0199639Y0041899D02*
X0199639Y0041342D01*
X0198525Y0040229D01*
X0198525Y0038559D01*
X0198525Y0040229D02*
X0197412Y0041342D01*
X0197412Y0041899D01*
X0196014Y0041899D02*
X0196014Y0041342D01*
X0194900Y0040229D01*
X0194900Y0038559D01*
X0194900Y0040229D02*
X0193787Y0041342D01*
X0193787Y0041899D01*
X0190576Y0041899D02*
X0190576Y0041342D01*
X0189463Y0040229D01*
X0189463Y0038559D01*
X0189463Y0040229D02*
X0188349Y0041342D01*
X0188349Y0041899D01*
X0186951Y0041899D02*
X0186951Y0041342D01*
X0185838Y0040229D01*
X0185838Y0038559D01*
X0185838Y0040229D02*
X0184724Y0041342D01*
X0184724Y0041899D01*
X0183326Y0041899D02*
X0183326Y0041342D01*
X0182212Y0040229D01*
X0182212Y0038559D01*
X0182212Y0040229D02*
X0181099Y0041342D01*
X0181099Y0041899D01*
X0179701Y0038559D02*
X0177474Y0041899D01*
X0176075Y0041899D02*
X0176075Y0041342D01*
X0174962Y0040229D01*
X0174962Y0038559D01*
X0174962Y0040229D02*
X0173849Y0041342D01*
X0173849Y0041899D01*
X0172450Y0041899D02*
X0172450Y0041342D01*
X0171337Y0040229D01*
X0171337Y0038559D01*
X0171337Y0040229D02*
X0170224Y0041342D01*
X0170224Y0041899D01*
X0168825Y0041899D02*
X0168825Y0041342D01*
X0167712Y0040229D01*
X0167712Y0038559D01*
X0167712Y0040229D02*
X0166599Y0041342D01*
X0166599Y0041899D01*
X0165200Y0041899D02*
X0165200Y0041342D01*
X0164087Y0040229D01*
X0164087Y0038559D01*
X0164087Y0040229D02*
X0162973Y0041342D01*
X0162973Y0041899D01*
X0161575Y0041899D02*
X0161575Y0041342D01*
X0160462Y0040229D01*
X0160462Y0038559D01*
X0160462Y0040229D02*
X0159348Y0041342D01*
X0159348Y0041899D01*
X0191832Y0039116D02*
X0191832Y0038559D01*
X0192389Y0038559D01*
X0192389Y0039116D01*
X0191832Y0039116D01*
X0221390Y0041342D02*
X0221390Y0041899D01*
X0222646Y0039116D02*
X0222646Y0038559D01*
X0223202Y0038559D01*
X0223202Y0039116D01*
X0222646Y0039116D01*
X0234078Y0039116D02*
X0234078Y0040786D01*
X0155728Y0063956D02*
X0154727Y0064957D01*
X0152726Y0064957D01*
X0152726Y0066270D02*
X0152726Y0068272D01*
X0152726Y0067271D02*
X0155728Y0067271D01*
X0154727Y0066270D01*
X0154227Y0064957D02*
X0154227Y0062956D01*
X0154727Y0062956D02*
X0155728Y0063956D01*
X0154727Y0062956D02*
X0152726Y0062956D01*
X0148328Y0067271D02*
X0145326Y0067271D01*
X0145326Y0066270D02*
X0145326Y0068272D01*
X0146827Y0069585D02*
X0146827Y0071587D01*
X0145326Y0071086D02*
X0148328Y0071086D01*
X0146827Y0069585D01*
X0148328Y0067271D02*
X0147327Y0066270D01*
X0152726Y0069585D02*
X0152726Y0071587D01*
X0152726Y0070586D02*
X0155728Y0070586D01*
X0154727Y0069585D01*
X0138318Y0069595D02*
X0136817Y0069595D01*
X0137317Y0070596D01*
X0137317Y0071096D01*
X0136817Y0071597D01*
X0135816Y0071597D01*
X0135315Y0071096D01*
X0135315Y0070095D01*
X0135816Y0069595D01*
X0135315Y0068282D02*
X0135315Y0066280D01*
X0135315Y0067281D02*
X0138318Y0067281D01*
X0137317Y0066280D01*
X0138318Y0069595D02*
X0138318Y0071597D01*
X0128152Y0071646D02*
X0127652Y0070645D01*
X0126651Y0069644D01*
X0126651Y0071145D01*
X0126150Y0071646D01*
X0125650Y0071646D01*
X0125150Y0071145D01*
X0125150Y0070144D01*
X0125650Y0069644D01*
X0126651Y0069644D01*
X0125150Y0068331D02*
X0125150Y0066329D01*
X0125150Y0067330D02*
X0128152Y0067330D01*
X0127151Y0066329D01*
X0105326Y0039561D02*
X0105326Y0037559D01*
X0105326Y0038560D02*
X0108328Y0038560D01*
X0107327Y0037559D01*
X0107828Y0036246D02*
X0105826Y0036246D01*
X0105326Y0035746D01*
X0105326Y0034244D01*
X0108328Y0034244D01*
X0108328Y0035746D01*
X0107828Y0036246D01*
X0108328Y0032931D02*
X0108328Y0030930D01*
X0105326Y0030930D01*
X0105326Y0032931D01*
X0106827Y0031930D02*
X0106827Y0030930D01*
X0106827Y0029617D02*
X0106827Y0028616D01*
X0106827Y0029617D02*
X0105826Y0029617D01*
X0105326Y0029116D01*
X0105326Y0028115D01*
X0105826Y0027615D01*
X0107828Y0027615D01*
X0108328Y0028115D01*
X0108328Y0029116D01*
X0107828Y0029617D01*
X0111140Y0027403D02*
X0111140Y0024400D01*
X0112140Y0024400D02*
X0110139Y0024400D01*
X0108328Y0024300D02*
X0105326Y0024300D01*
X0106326Y0024300D02*
X0106326Y0025801D01*
X0106827Y0026302D01*
X0107828Y0026302D01*
X0108328Y0025801D01*
X0108328Y0024300D01*
X0113454Y0024900D02*
X0113954Y0024400D01*
X0114955Y0024400D01*
X0115455Y0024900D01*
X0115455Y0026902D01*
X0114955Y0027403D01*
X0113954Y0027403D01*
X0113454Y0026902D01*
X0112140Y0026402D02*
X0111140Y0027403D01*
X0116768Y0027403D02*
X0118770Y0027403D01*
X0118770Y0024400D01*
X0116768Y0024400D01*
X0117769Y0025901D02*
X0118770Y0025901D01*
X0120083Y0025901D02*
X0121084Y0025901D01*
X0120083Y0025901D02*
X0120083Y0024900D01*
X0120584Y0024400D01*
X0121585Y0024400D01*
X0122085Y0024900D01*
X0122085Y0026902D01*
X0121585Y0027403D01*
X0120584Y0027403D01*
X0120083Y0026902D01*
X0123398Y0026902D02*
X0123898Y0027403D01*
X0125400Y0027403D01*
X0125400Y0024400D01*
X0125400Y0025401D02*
X0123898Y0025401D01*
X0123398Y0025901D01*
X0123398Y0026902D01*
D12*
X0121926Y0022600D02*
X0121926Y0012600D01*
X0081926Y0012600D01*
X0071926Y0012600D01*
X0071926Y0022600D01*
X0081926Y0022600D01*
X0121926Y0022600D01*
X0081926Y0022600D02*
X0081926Y0012600D01*
X0144326Y0062200D02*
X0144526Y0062200D01*
X0311926Y0072600D02*
X0311926Y0082200D01*
X0321526Y0082200D01*
X0321526Y0072600D01*
X0311926Y0072600D01*
X0337826Y0072802D02*
X0340895Y0072802D01*
X0339360Y0063537D02*
X0339360Y0060467D01*
X0337826Y0062002D02*
X0340895Y0062002D01*
D13*
X0256396Y0061802D02*
X0256396Y0055122D01*
X0254170Y0057349D02*
X0251943Y0055122D01*
X0249146Y0056235D02*
X0248033Y0055122D01*
X0245806Y0055122D01*
X0244693Y0056235D01*
X0244693Y0058462D01*
X0246920Y0058462D01*
X0249146Y0060688D02*
X0249146Y0056235D01*
X0251943Y0058462D02*
X0253057Y0057349D01*
X0256396Y0057349D01*
X0251943Y0058462D02*
X0251943Y0060688D01*
X0253057Y0061802D01*
X0256396Y0061802D01*
X0249146Y0060688D02*
X0248033Y0061802D01*
X0245806Y0061802D01*
X0244693Y0060688D01*
X0241896Y0061802D02*
X0238556Y0061802D01*
X0237443Y0060688D01*
X0237443Y0059575D01*
X0238556Y0058462D01*
X0241896Y0058462D01*
X0238556Y0058462D02*
X0237443Y0057349D01*
X0237443Y0056235D01*
X0238556Y0055122D01*
X0241896Y0055122D01*
X0241896Y0061802D01*
X0227395Y0060688D02*
X0227395Y0059575D01*
X0226282Y0058462D01*
X0224055Y0058462D01*
X0222942Y0057349D01*
X0222942Y0056235D01*
X0224055Y0055122D01*
X0226282Y0055122D01*
X0227395Y0056235D01*
X0219032Y0056235D02*
X0217918Y0055122D01*
X0219032Y0056235D02*
X0219032Y0060688D01*
X0220145Y0059575D02*
X0217918Y0059575D01*
X0214198Y0059575D02*
X0211972Y0059575D01*
X0210858Y0058462D01*
X0210858Y0055122D01*
X0214198Y0055122D01*
X0215312Y0056235D01*
X0214198Y0057349D01*
X0210858Y0057349D01*
X0206948Y0056235D02*
X0205835Y0055122D01*
X0206948Y0056235D02*
X0206948Y0060688D01*
X0208061Y0059575D02*
X0205835Y0059575D01*
X0203228Y0059575D02*
X0202114Y0059575D01*
X0202114Y0055122D01*
X0201001Y0055122D02*
X0203228Y0055122D01*
X0198394Y0056235D02*
X0197281Y0055122D01*
X0195054Y0055122D01*
X0193941Y0056235D01*
X0193941Y0058462D01*
X0195054Y0059575D01*
X0197281Y0059575D01*
X0198394Y0058462D01*
X0198394Y0056235D01*
X0191144Y0055122D02*
X0191144Y0059575D01*
X0187804Y0059575D01*
X0186691Y0058462D01*
X0186691Y0055122D01*
X0202114Y0061802D02*
X0202114Y0062915D01*
X0222942Y0060688D02*
X0224055Y0061802D01*
X0226282Y0061802D01*
X0227395Y0060688D01*
D14*
X0305013Y0051691D02*
X0305013Y0048542D01*
X0306844Y0048542D01*
X0307611Y0048483D01*
X0308202Y0048365D01*
X0308852Y0048168D01*
X0309580Y0047813D01*
X0310348Y0047302D01*
X0310879Y0046829D01*
X0311627Y0045904D01*
X0312178Y0044782D01*
X0312336Y0044211D01*
X0307001Y0044211D01*
X0307001Y0041455D01*
X0312356Y0041455D01*
X0312021Y0040530D01*
X0311726Y0039959D01*
X0311312Y0039329D01*
X0310367Y0038365D01*
X0309698Y0037892D01*
X0308950Y0037538D01*
X0308005Y0037262D01*
X0307454Y0037164D01*
X0306922Y0037124D01*
X0305033Y0037124D01*
X0305033Y0033561D01*
X0306922Y0033561D01*
X0307789Y0033620D01*
X0308615Y0033758D01*
X0309383Y0033955D01*
X0310230Y0034231D01*
X0311253Y0034743D01*
X0312257Y0035372D01*
X0313064Y0036081D01*
X0313674Y0036731D01*
X0314127Y0037302D01*
X0314678Y0038148D01*
X0315151Y0039113D01*
X0315564Y0040333D01*
X0315781Y0041435D01*
X0315859Y0042557D01*
X0315820Y0043620D01*
X0315643Y0044664D01*
X0315446Y0045353D01*
X0315230Y0045963D01*
X0314777Y0046928D01*
X0314324Y0047695D01*
X0313871Y0048306D01*
X0313222Y0049034D01*
X0312769Y0049447D01*
X0312316Y0049821D01*
X0311548Y0050353D01*
X0310781Y0050766D01*
X0310387Y0050943D01*
X0309993Y0051101D01*
X0309639Y0051239D01*
X0309029Y0051416D01*
X0308478Y0051534D01*
X0307808Y0051632D01*
X0306922Y0051691D01*
X0305013Y0051691D01*
X0305013Y0051610D02*
X0307957Y0051610D01*
X0308580Y0051512D02*
X0305013Y0051512D01*
X0305013Y0051413D02*
X0309037Y0051413D01*
X0309376Y0051315D02*
X0305013Y0051315D01*
X0305013Y0051216D02*
X0309696Y0051216D01*
X0309949Y0051118D02*
X0305013Y0051118D01*
X0305013Y0051019D02*
X0310197Y0051019D01*
X0310437Y0050921D02*
X0305013Y0050921D01*
X0305013Y0050822D02*
X0310656Y0050822D01*
X0310859Y0050724D02*
X0305013Y0050724D01*
X0305013Y0050625D02*
X0311042Y0050625D01*
X0311225Y0050527D02*
X0305013Y0050527D01*
X0305013Y0050428D02*
X0311408Y0050428D01*
X0311582Y0050330D02*
X0305013Y0050330D01*
X0305013Y0050231D02*
X0311724Y0050231D01*
X0311866Y0050133D02*
X0305013Y0050133D01*
X0305013Y0050034D02*
X0312008Y0050034D01*
X0312151Y0049936D02*
X0305013Y0049936D01*
X0305013Y0049837D02*
X0312293Y0049837D01*
X0312416Y0049739D02*
X0305013Y0049739D01*
X0305013Y0049640D02*
X0312535Y0049640D01*
X0312655Y0049542D02*
X0305013Y0049542D01*
X0305013Y0049443D02*
X0312773Y0049443D01*
X0312881Y0049345D02*
X0305013Y0049345D01*
X0305013Y0049246D02*
X0312989Y0049246D01*
X0313097Y0049148D02*
X0305013Y0049148D01*
X0305013Y0049049D02*
X0313205Y0049049D01*
X0313296Y0048951D02*
X0305013Y0048951D01*
X0305013Y0048852D02*
X0313384Y0048852D01*
X0313472Y0048754D02*
X0305013Y0048754D01*
X0305013Y0048655D02*
X0313559Y0048655D01*
X0313647Y0048557D02*
X0305013Y0048557D01*
X0307734Y0048458D02*
X0313735Y0048458D01*
X0313823Y0048360D02*
X0308218Y0048360D01*
X0308543Y0048261D02*
X0313904Y0048261D01*
X0313977Y0048163D02*
X0308862Y0048163D01*
X0309065Y0048064D02*
X0314050Y0048064D01*
X0314123Y0047966D02*
X0309267Y0047966D01*
X0309470Y0047867D02*
X0314197Y0047867D01*
X0314270Y0047769D02*
X0309647Y0047769D01*
X0309795Y0047670D02*
X0314339Y0047670D01*
X0314397Y0047572D02*
X0309943Y0047572D01*
X0310090Y0047473D02*
X0314455Y0047473D01*
X0314513Y0047374D02*
X0310238Y0047374D01*
X0310376Y0047276D02*
X0314571Y0047276D01*
X0314629Y0047177D02*
X0310487Y0047177D01*
X0310598Y0047079D02*
X0314687Y0047079D01*
X0314746Y0046980D02*
X0310709Y0046980D01*
X0310820Y0046882D02*
X0314798Y0046882D01*
X0314844Y0046783D02*
X0310916Y0046783D01*
X0310996Y0046685D02*
X0314891Y0046685D01*
X0314937Y0046586D02*
X0311075Y0046586D01*
X0311155Y0046488D02*
X0314983Y0046488D01*
X0315029Y0046389D02*
X0311235Y0046389D01*
X0311314Y0046291D02*
X0315076Y0046291D01*
X0315122Y0046192D02*
X0311394Y0046192D01*
X0311474Y0046094D02*
X0315168Y0046094D01*
X0315214Y0045995D02*
X0311553Y0045995D01*
X0311631Y0045897D02*
X0315253Y0045897D01*
X0315288Y0045798D02*
X0311679Y0045798D01*
X0311727Y0045700D02*
X0315323Y0045700D01*
X0315358Y0045601D02*
X0311776Y0045601D01*
X0311824Y0045503D02*
X0315393Y0045503D01*
X0315428Y0045404D02*
X0311873Y0045404D01*
X0311921Y0045306D02*
X0315459Y0045306D01*
X0315488Y0045207D02*
X0311969Y0045207D01*
X0312018Y0045109D02*
X0315516Y0045109D01*
X0315544Y0045010D02*
X0312066Y0045010D01*
X0312115Y0044912D02*
X0315572Y0044912D01*
X0315600Y0044813D02*
X0312163Y0044813D01*
X0312197Y0044715D02*
X0315628Y0044715D01*
X0315651Y0044616D02*
X0312224Y0044616D01*
X0312251Y0044518D02*
X0315668Y0044518D01*
X0315684Y0044419D02*
X0312278Y0044419D01*
X0312306Y0044321D02*
X0315701Y0044321D01*
X0315718Y0044222D02*
X0312333Y0044222D01*
X0315735Y0044124D02*
X0307001Y0044124D01*
X0307001Y0044025D02*
X0315751Y0044025D01*
X0315768Y0043927D02*
X0307001Y0043927D01*
X0307001Y0043828D02*
X0315785Y0043828D01*
X0315802Y0043730D02*
X0307001Y0043730D01*
X0307001Y0043631D02*
X0315818Y0043631D01*
X0315823Y0043533D02*
X0307001Y0043533D01*
X0307001Y0043434D02*
X0315827Y0043434D01*
X0315831Y0043336D02*
X0307001Y0043336D01*
X0307001Y0043237D02*
X0315834Y0043237D01*
X0315838Y0043139D02*
X0307001Y0043139D01*
X0307001Y0043040D02*
X0315842Y0043040D01*
X0315845Y0042941D02*
X0307001Y0042941D01*
X0307001Y0042843D02*
X0315849Y0042843D01*
X0315853Y0042744D02*
X0307001Y0042744D01*
X0307001Y0042646D02*
X0315856Y0042646D01*
X0315859Y0042547D02*
X0307001Y0042547D01*
X0307001Y0042449D02*
X0315852Y0042449D01*
X0315845Y0042350D02*
X0307001Y0042350D01*
X0307001Y0042252D02*
X0315838Y0042252D01*
X0315831Y0042153D02*
X0307001Y0042153D01*
X0307001Y0042055D02*
X0315824Y0042055D01*
X0315817Y0041956D02*
X0307001Y0041956D01*
X0307001Y0041858D02*
X0315810Y0041858D01*
X0315803Y0041759D02*
X0307001Y0041759D01*
X0307001Y0041661D02*
X0315797Y0041661D01*
X0315790Y0041562D02*
X0307001Y0041562D01*
X0307001Y0041464D02*
X0315783Y0041464D01*
X0315767Y0041365D02*
X0312323Y0041365D01*
X0312287Y0041267D02*
X0315748Y0041267D01*
X0315728Y0041168D02*
X0312252Y0041168D01*
X0312216Y0041070D02*
X0315709Y0041070D01*
X0315690Y0040971D02*
X0312180Y0040971D01*
X0312145Y0040873D02*
X0315670Y0040873D01*
X0315651Y0040774D02*
X0312109Y0040774D01*
X0312074Y0040676D02*
X0315631Y0040676D01*
X0315612Y0040577D02*
X0312038Y0040577D01*
X0311994Y0040479D02*
X0315593Y0040479D01*
X0315573Y0040380D02*
X0311943Y0040380D01*
X0311892Y0040282D02*
X0315547Y0040282D01*
X0315513Y0040183D02*
X0311842Y0040183D01*
X0311791Y0040085D02*
X0315480Y0040085D01*
X0315447Y0039986D02*
X0311740Y0039986D01*
X0311679Y0039888D02*
X0315413Y0039888D01*
X0315380Y0039789D02*
X0311614Y0039789D01*
X0311549Y0039691D02*
X0315347Y0039691D01*
X0315313Y0039592D02*
X0311485Y0039592D01*
X0311420Y0039494D02*
X0315280Y0039494D01*
X0315246Y0039395D02*
X0311355Y0039395D01*
X0311280Y0039297D02*
X0315213Y0039297D01*
X0315180Y0039198D02*
X0311184Y0039198D01*
X0311087Y0039100D02*
X0315144Y0039100D01*
X0315096Y0039001D02*
X0310991Y0039001D01*
X0310894Y0038903D02*
X0315048Y0038903D01*
X0315000Y0038804D02*
X0310798Y0038804D01*
X0310701Y0038705D02*
X0314951Y0038705D01*
X0314903Y0038607D02*
X0310605Y0038607D01*
X0310508Y0038508D02*
X0314855Y0038508D01*
X0314807Y0038410D02*
X0310412Y0038410D01*
X0310292Y0038311D02*
X0314758Y0038311D01*
X0314710Y0038213D02*
X0310153Y0038213D01*
X0310013Y0038114D02*
X0314656Y0038114D01*
X0314592Y0038016D02*
X0309873Y0038016D01*
X0309734Y0037917D02*
X0314528Y0037917D01*
X0314464Y0037819D02*
X0309543Y0037819D01*
X0309335Y0037720D02*
X0314400Y0037720D01*
X0314336Y0037622D02*
X0309128Y0037622D01*
X0308901Y0037523D02*
X0314272Y0037523D01*
X0314207Y0037425D02*
X0308563Y0037425D01*
X0308225Y0037326D02*
X0314143Y0037326D01*
X0314069Y0037228D02*
X0307813Y0037228D01*
X0306989Y0037129D02*
X0313991Y0037129D01*
X0313912Y0037031D02*
X0305033Y0037031D01*
X0305033Y0036932D02*
X0313834Y0036932D01*
X0313756Y0036834D02*
X0305033Y0036834D01*
X0305033Y0036735D02*
X0313678Y0036735D01*
X0313586Y0036637D02*
X0305033Y0036637D01*
X0305033Y0036538D02*
X0313494Y0036538D01*
X0313401Y0036440D02*
X0305033Y0036440D01*
X0305033Y0036341D02*
X0313309Y0036341D01*
X0313216Y0036243D02*
X0305033Y0036243D01*
X0305033Y0036144D02*
X0313123Y0036144D01*
X0313024Y0036046D02*
X0305033Y0036046D01*
X0305033Y0035947D02*
X0312912Y0035947D01*
X0312799Y0035849D02*
X0305033Y0035849D01*
X0305033Y0035750D02*
X0312687Y0035750D01*
X0312575Y0035652D02*
X0305033Y0035652D01*
X0305033Y0035553D02*
X0312463Y0035553D01*
X0312351Y0035455D02*
X0305033Y0035455D01*
X0305033Y0035356D02*
X0312231Y0035356D01*
X0312074Y0035258D02*
X0305033Y0035258D01*
X0305033Y0035159D02*
X0311917Y0035159D01*
X0311760Y0035061D02*
X0305033Y0035061D01*
X0305033Y0034962D02*
X0311603Y0034962D01*
X0311446Y0034864D02*
X0305033Y0034864D01*
X0305033Y0034765D02*
X0311289Y0034765D01*
X0311101Y0034667D02*
X0305033Y0034667D01*
X0305033Y0034568D02*
X0310904Y0034568D01*
X0310707Y0034470D02*
X0305033Y0034470D01*
X0305033Y0034371D02*
X0310510Y0034371D01*
X0310313Y0034272D02*
X0305033Y0034272D01*
X0305033Y0034174D02*
X0310055Y0034174D01*
X0309753Y0034075D02*
X0305033Y0034075D01*
X0305033Y0033977D02*
X0309450Y0033977D01*
X0309084Y0033878D02*
X0305033Y0033878D01*
X0305033Y0033780D02*
X0308700Y0033780D01*
X0308154Y0033681D02*
X0305033Y0033681D01*
X0305033Y0033583D02*
X0307238Y0033583D01*
X0320367Y0033583D02*
X0322214Y0033583D01*
X0321942Y0033561D02*
X0322690Y0033620D01*
X0323419Y0033739D01*
X0324186Y0033916D01*
X0324816Y0034113D01*
X0325269Y0034290D01*
X0325800Y0034526D01*
X0326293Y0034782D01*
X0326903Y0035176D01*
X0327375Y0035510D01*
X0327828Y0035904D01*
X0328182Y0036239D01*
X0328635Y0036731D01*
X0328970Y0037124D01*
X0329285Y0037597D01*
X0329619Y0038109D01*
X0329974Y0038778D01*
X0330190Y0039309D01*
X0330387Y0039880D01*
X0330604Y0040668D01*
X0330722Y0041278D01*
X0330800Y0041987D01*
X0330820Y0042557D01*
X0330800Y0043148D01*
X0330781Y0043404D01*
X0330741Y0043798D01*
X0330682Y0044231D01*
X0330544Y0044880D01*
X0330387Y0045392D01*
X0330249Y0045786D01*
X0330111Y0046160D01*
X0329875Y0046652D01*
X0329718Y0046987D01*
X0329383Y0047538D01*
X0329186Y0047813D01*
X0329029Y0048050D01*
X0328871Y0048266D01*
X0328458Y0048739D01*
X0328222Y0048994D01*
X0327907Y0049290D01*
X0327631Y0049526D01*
X0327257Y0049841D01*
X0326745Y0050215D01*
X0326056Y0050609D01*
X0325249Y0051002D01*
X0324403Y0051298D01*
X0323576Y0051514D01*
X0322789Y0051632D01*
X0321903Y0051711D01*
X0320367Y0051711D01*
X0320367Y0048542D01*
X0321844Y0048542D01*
X0322375Y0048502D01*
X0322887Y0048424D01*
X0323241Y0048345D01*
X0323596Y0048246D01*
X0324383Y0047912D01*
X0325052Y0047498D01*
X0325604Y0047046D01*
X0326056Y0046593D01*
X0326489Y0046042D01*
X0326804Y0045491D01*
X0327100Y0044841D01*
X0327336Y0044132D01*
X0327454Y0043384D01*
X0327474Y0042636D01*
X0327415Y0042065D01*
X0327277Y0041376D01*
X0327080Y0040746D01*
X0326765Y0040057D01*
X0326332Y0039408D01*
X0325859Y0038857D01*
X0325367Y0038404D01*
X0324816Y0038050D01*
X0324245Y0037695D01*
X0323812Y0037498D01*
X0323202Y0037302D01*
X0322651Y0037183D01*
X0322237Y0037124D01*
X0320367Y0037124D01*
X0320367Y0033561D01*
X0321942Y0033561D01*
X0323066Y0033681D02*
X0320367Y0033681D01*
X0320367Y0033780D02*
X0323598Y0033780D01*
X0324025Y0033878D02*
X0320367Y0033878D01*
X0320367Y0033977D02*
X0324382Y0033977D01*
X0324697Y0034075D02*
X0320367Y0034075D01*
X0320367Y0034174D02*
X0324973Y0034174D01*
X0325225Y0034272D02*
X0320367Y0034272D01*
X0320367Y0034371D02*
X0325452Y0034371D01*
X0325673Y0034470D02*
X0320367Y0034470D01*
X0320367Y0034568D02*
X0325881Y0034568D01*
X0326071Y0034667D02*
X0320367Y0034667D01*
X0320367Y0034765D02*
X0326260Y0034765D01*
X0326419Y0034864D02*
X0320367Y0034864D01*
X0320367Y0034962D02*
X0326572Y0034962D01*
X0326724Y0035061D02*
X0320367Y0035061D01*
X0320367Y0035159D02*
X0326877Y0035159D01*
X0327019Y0035258D02*
X0320367Y0035258D01*
X0320367Y0035356D02*
X0327158Y0035356D01*
X0327297Y0035455D02*
X0320367Y0035455D01*
X0320367Y0035553D02*
X0327425Y0035553D01*
X0327538Y0035652D02*
X0320367Y0035652D01*
X0320367Y0035750D02*
X0327651Y0035750D01*
X0327764Y0035849D02*
X0320367Y0035849D01*
X0320367Y0035947D02*
X0327874Y0035947D01*
X0327978Y0036046D02*
X0320367Y0036046D01*
X0320367Y0036144D02*
X0328082Y0036144D01*
X0328186Y0036243D02*
X0320367Y0036243D01*
X0320367Y0036341D02*
X0328277Y0036341D01*
X0328367Y0036440D02*
X0320367Y0036440D01*
X0320367Y0036538D02*
X0328458Y0036538D01*
X0328549Y0036637D02*
X0320367Y0036637D01*
X0320367Y0036735D02*
X0328639Y0036735D01*
X0328723Y0036834D02*
X0320367Y0036834D01*
X0320367Y0036932D02*
X0328806Y0036932D01*
X0328890Y0037031D02*
X0320367Y0037031D01*
X0322272Y0037129D02*
X0328973Y0037129D01*
X0329039Y0037228D02*
X0322858Y0037228D01*
X0323279Y0037326D02*
X0329104Y0037326D01*
X0329170Y0037425D02*
X0323584Y0037425D01*
X0323867Y0037523D02*
X0329236Y0037523D01*
X0329301Y0037622D02*
X0324084Y0037622D01*
X0324286Y0037720D02*
X0329365Y0037720D01*
X0329430Y0037819D02*
X0324444Y0037819D01*
X0324603Y0037917D02*
X0329494Y0037917D01*
X0329559Y0038016D02*
X0324762Y0038016D01*
X0324917Y0038114D02*
X0329622Y0038114D01*
X0329674Y0038213D02*
X0325070Y0038213D01*
X0325223Y0038311D02*
X0329727Y0038311D01*
X0329779Y0038410D02*
X0325374Y0038410D01*
X0325481Y0038508D02*
X0329831Y0038508D01*
X0329883Y0038607D02*
X0325588Y0038607D01*
X0325695Y0038705D02*
X0329935Y0038705D01*
X0329984Y0038804D02*
X0325802Y0038804D01*
X0325899Y0038903D02*
X0330024Y0038903D01*
X0330065Y0039001D02*
X0325983Y0039001D01*
X0326068Y0039100D02*
X0330105Y0039100D01*
X0330145Y0039198D02*
X0326152Y0039198D01*
X0326236Y0039297D02*
X0330185Y0039297D01*
X0330220Y0039395D02*
X0326321Y0039395D01*
X0326389Y0039494D02*
X0330254Y0039494D01*
X0330288Y0039592D02*
X0326455Y0039592D01*
X0326520Y0039691D02*
X0330322Y0039691D01*
X0330356Y0039789D02*
X0326586Y0039789D01*
X0326652Y0039888D02*
X0330389Y0039888D01*
X0330416Y0039986D02*
X0326717Y0039986D01*
X0326777Y0040085D02*
X0330443Y0040085D01*
X0330470Y0040183D02*
X0326822Y0040183D01*
X0326867Y0040282D02*
X0330497Y0040282D01*
X0330524Y0040380D02*
X0326912Y0040380D01*
X0326958Y0040479D02*
X0330552Y0040479D01*
X0330579Y0040577D02*
X0327003Y0040577D01*
X0327048Y0040676D02*
X0330605Y0040676D01*
X0330624Y0040774D02*
X0327089Y0040774D01*
X0327119Y0040873D02*
X0330643Y0040873D01*
X0330662Y0040971D02*
X0327150Y0040971D01*
X0327181Y0041070D02*
X0330681Y0041070D01*
X0330700Y0041168D02*
X0327212Y0041168D01*
X0327243Y0041267D02*
X0330719Y0041267D01*
X0330731Y0041365D02*
X0327273Y0041365D01*
X0327294Y0041464D02*
X0330742Y0041464D01*
X0330753Y0041562D02*
X0327314Y0041562D01*
X0327334Y0041661D02*
X0330764Y0041661D01*
X0330775Y0041759D02*
X0327353Y0041759D01*
X0327373Y0041858D02*
X0330786Y0041858D01*
X0330797Y0041956D02*
X0327393Y0041956D01*
X0327412Y0042055D02*
X0330803Y0042055D01*
X0330806Y0042153D02*
X0327424Y0042153D01*
X0327434Y0042252D02*
X0330810Y0042252D01*
X0330813Y0042350D02*
X0327444Y0042350D01*
X0327454Y0042449D02*
X0330816Y0042449D01*
X0330820Y0042547D02*
X0327464Y0042547D01*
X0327473Y0042646D02*
X0330817Y0042646D01*
X0330814Y0042744D02*
X0327471Y0042744D01*
X0327468Y0042843D02*
X0330811Y0042843D01*
X0330807Y0042941D02*
X0327466Y0042941D01*
X0327463Y0043040D02*
X0330804Y0043040D01*
X0330801Y0043139D02*
X0327460Y0043139D01*
X0327458Y0043237D02*
X0330794Y0043237D01*
X0330786Y0043336D02*
X0327455Y0043336D01*
X0327446Y0043434D02*
X0330778Y0043434D01*
X0330768Y0043533D02*
X0327431Y0043533D01*
X0327415Y0043631D02*
X0330758Y0043631D01*
X0330748Y0043730D02*
X0327399Y0043730D01*
X0327384Y0043828D02*
X0330737Y0043828D01*
X0330724Y0043927D02*
X0327368Y0043927D01*
X0327353Y0044025D02*
X0330710Y0044025D01*
X0330697Y0044124D02*
X0327337Y0044124D01*
X0327306Y0044222D02*
X0330683Y0044222D01*
X0330663Y0044321D02*
X0327273Y0044321D01*
X0327240Y0044419D02*
X0330642Y0044419D01*
X0330621Y0044518D02*
X0327207Y0044518D01*
X0327175Y0044616D02*
X0330601Y0044616D01*
X0330580Y0044715D02*
X0327142Y0044715D01*
X0327109Y0044813D02*
X0330559Y0044813D01*
X0330535Y0044912D02*
X0327067Y0044912D01*
X0327023Y0045010D02*
X0330505Y0045010D01*
X0330474Y0045109D02*
X0326978Y0045109D01*
X0326933Y0045207D02*
X0330444Y0045207D01*
X0330414Y0045306D02*
X0326888Y0045306D01*
X0326844Y0045404D02*
X0330383Y0045404D01*
X0330348Y0045503D02*
X0326797Y0045503D01*
X0326741Y0045601D02*
X0330314Y0045601D01*
X0330279Y0045700D02*
X0326685Y0045700D01*
X0326628Y0045798D02*
X0330245Y0045798D01*
X0330208Y0045897D02*
X0326572Y0045897D01*
X0326516Y0045995D02*
X0330172Y0045995D01*
X0330136Y0046094D02*
X0326448Y0046094D01*
X0326371Y0046192D02*
X0330096Y0046192D01*
X0330049Y0046291D02*
X0326294Y0046291D01*
X0326216Y0046389D02*
X0330001Y0046389D01*
X0329954Y0046488D02*
X0326139Y0046488D01*
X0326061Y0046586D02*
X0329907Y0046586D01*
X0329860Y0046685D02*
X0325964Y0046685D01*
X0325866Y0046783D02*
X0329813Y0046783D01*
X0329767Y0046882D02*
X0325767Y0046882D01*
X0325669Y0046980D02*
X0329721Y0046980D01*
X0329662Y0047079D02*
X0325563Y0047079D01*
X0325443Y0047177D02*
X0329602Y0047177D01*
X0329542Y0047276D02*
X0325323Y0047276D01*
X0325203Y0047374D02*
X0329482Y0047374D01*
X0329422Y0047473D02*
X0325083Y0047473D01*
X0324934Y0047572D02*
X0329359Y0047572D01*
X0329289Y0047670D02*
X0324775Y0047670D01*
X0324615Y0047769D02*
X0329218Y0047769D01*
X0329150Y0047867D02*
X0324456Y0047867D01*
X0324257Y0047966D02*
X0329085Y0047966D01*
X0329018Y0048064D02*
X0324025Y0048064D01*
X0323793Y0048163D02*
X0328947Y0048163D01*
X0328875Y0048261D02*
X0323543Y0048261D01*
X0323175Y0048360D02*
X0328789Y0048360D01*
X0328703Y0048458D02*
X0322663Y0048458D01*
X0320367Y0048557D02*
X0328617Y0048557D01*
X0328531Y0048655D02*
X0320367Y0048655D01*
X0320367Y0048754D02*
X0328444Y0048754D01*
X0328353Y0048852D02*
X0320367Y0048852D01*
X0320367Y0048951D02*
X0328262Y0048951D01*
X0328163Y0049049D02*
X0320367Y0049049D01*
X0320367Y0049148D02*
X0328058Y0049148D01*
X0327953Y0049246D02*
X0320367Y0049246D01*
X0320367Y0049345D02*
X0327843Y0049345D01*
X0327728Y0049443D02*
X0320367Y0049443D01*
X0320367Y0049542D02*
X0327612Y0049542D01*
X0327495Y0049640D02*
X0320367Y0049640D01*
X0320367Y0049739D02*
X0327378Y0049739D01*
X0327261Y0049837D02*
X0320367Y0049837D01*
X0320367Y0049936D02*
X0327127Y0049936D01*
X0326992Y0050034D02*
X0320367Y0050034D01*
X0320367Y0050133D02*
X0326858Y0050133D01*
X0326717Y0050231D02*
X0320367Y0050231D01*
X0320367Y0050330D02*
X0326544Y0050330D01*
X0326372Y0050428D02*
X0320367Y0050428D01*
X0320367Y0050527D02*
X0326199Y0050527D01*
X0326022Y0050625D02*
X0320367Y0050625D01*
X0320367Y0050724D02*
X0325820Y0050724D01*
X0325618Y0050822D02*
X0320367Y0050822D01*
X0320367Y0050921D02*
X0325416Y0050921D01*
X0325200Y0051019D02*
X0320367Y0051019D01*
X0320367Y0051118D02*
X0324918Y0051118D01*
X0324636Y0051216D02*
X0320367Y0051216D01*
X0320367Y0051315D02*
X0324337Y0051315D01*
X0323961Y0051413D02*
X0320367Y0051413D01*
X0320367Y0051512D02*
X0323584Y0051512D01*
X0322934Y0051610D02*
X0320367Y0051610D01*
X0320367Y0051709D02*
X0321926Y0051709D01*
D15*
X0284521Y0057057D02*
X0271922Y0044065D01*
X0274796Y0045679D02*
X0274757Y0046033D01*
X0274796Y0046387D01*
X0274954Y0046663D01*
X0275190Y0046820D01*
X0275269Y0046939D02*
X0275623Y0046978D01*
X0276017Y0046939D01*
X0276411Y0046702D01*
X0276529Y0046466D01*
X0276647Y0046191D01*
X0276647Y0045876D01*
X0276489Y0045521D01*
X0276293Y0045285D01*
X0276017Y0045128D01*
X0275663Y0045088D01*
X0275269Y0045167D01*
X0274993Y0045364D01*
X0274796Y0045679D01*
X0275466Y0045954D02*
X0275544Y0045836D01*
X0275663Y0045797D01*
X0275781Y0045797D01*
X0275899Y0045876D01*
X0275938Y0045994D01*
X0275938Y0046112D01*
X0275859Y0046230D01*
X0275741Y0046269D01*
X0275702Y0046072D01*
X0275663Y0046269D02*
X0275544Y0046230D01*
X0275466Y0046112D01*
X0275466Y0045954D01*
X0275269Y0046939D02*
X0274718Y0053238D01*
X0273852Y0053238D01*
X0273852Y0054380D01*
X0274600Y0054380D01*
X0274993Y0054380D01*
X0274993Y0053238D01*
X0274718Y0053238D01*
X0274600Y0054380D02*
X0274600Y0055088D01*
X0274757Y0055521D01*
X0275033Y0055876D01*
X0275308Y0056112D01*
X0275663Y0056269D01*
X0276174Y0056387D01*
X0276647Y0056466D01*
X0276686Y0056191D02*
X0276686Y0056781D01*
X0278419Y0056781D01*
X0278419Y0056309D01*
X0278458Y0056191D02*
X0276686Y0056191D01*
X0278458Y0056191D02*
X0278458Y0056466D01*
X0278694Y0056466D01*
X0279009Y0056427D01*
X0279363Y0056387D01*
X0279836Y0056230D01*
X0280230Y0056072D01*
X0280544Y0055836D01*
X0280781Y0055521D01*
X0280899Y0055009D01*
X0280111Y0045836D01*
X0279600Y0045836D01*
X0279600Y0044970D01*
X0279324Y0044852D02*
X0279324Y0045836D01*
X0279600Y0045836D01*
X0279324Y0045836D02*
X0276607Y0045836D01*
X0279324Y0044852D02*
X0279915Y0044852D01*
X0279915Y0045797D01*
X0284521Y0043671D02*
X0271529Y0057057D01*
X0273930Y0055679D02*
X0273891Y0055482D01*
X0273930Y0055324D01*
X0274009Y0055246D01*
X0274206Y0055167D01*
X0274285Y0055167D01*
X0281529Y0055206D01*
X0281529Y0054970D01*
X0274285Y0054931D01*
X0274285Y0055167D01*
X0274442Y0055167D01*
X0274481Y0055324D01*
X0274245Y0055482D01*
X0274167Y0055836D02*
X0274048Y0055797D01*
X0273930Y0055679D01*
X0274167Y0055836D02*
X0274363Y0055836D01*
X0274521Y0055718D01*
X0274600Y0055561D01*
X0279875Y0055246D02*
X0279875Y0056506D01*
X0280190Y0056506D01*
X0280190Y0056466D02*
X0280190Y0055246D01*
X0279875Y0055246D01*
X0278458Y0052883D02*
X0276253Y0052883D01*
X0276253Y0052175D01*
X0278458Y0052175D01*
X0278458Y0052529D01*
X0276450Y0052529D01*
X0278458Y0052529D02*
X0278458Y0052883D01*
D16*
X0277670Y0039576D03*
D17*
X0328422Y0021557D02*
X0331965Y0021557D01*
X0331965Y0020219D01*
X0330941Y0020219D01*
X0330941Y0016833D01*
X0329445Y0016833D01*
X0329445Y0020219D01*
X0328422Y0020219D01*
X0328422Y0021557D01*
X0328422Y0021540D02*
X0331965Y0021540D01*
X0331965Y0021502D02*
X0328422Y0021502D01*
X0328422Y0021464D02*
X0331965Y0021464D01*
X0331965Y0021426D02*
X0328422Y0021426D01*
X0328422Y0021388D02*
X0331965Y0021388D01*
X0331965Y0021351D02*
X0328422Y0021351D01*
X0328422Y0021313D02*
X0331965Y0021313D01*
X0331965Y0021275D02*
X0328422Y0021275D01*
X0328422Y0021237D02*
X0331965Y0021237D01*
X0331965Y0021199D02*
X0328422Y0021199D01*
X0328422Y0021161D02*
X0331965Y0021161D01*
X0331965Y0021123D02*
X0328422Y0021123D01*
X0328422Y0021085D02*
X0331965Y0021085D01*
X0331965Y0021048D02*
X0328422Y0021048D01*
X0328422Y0021010D02*
X0331965Y0021010D01*
X0331965Y0020972D02*
X0328422Y0020972D01*
X0328422Y0020934D02*
X0331965Y0020934D01*
X0331965Y0020896D02*
X0328422Y0020896D01*
X0328422Y0020858D02*
X0331965Y0020858D01*
X0331965Y0020820D02*
X0328422Y0020820D01*
X0328422Y0020782D02*
X0331965Y0020782D01*
X0331965Y0020745D02*
X0328422Y0020745D01*
X0328422Y0020707D02*
X0331965Y0020707D01*
X0331965Y0020669D02*
X0328422Y0020669D01*
X0328422Y0020631D02*
X0331965Y0020631D01*
X0331965Y0020593D02*
X0328422Y0020593D01*
X0328422Y0020555D02*
X0331965Y0020555D01*
X0331965Y0020517D02*
X0328422Y0020517D01*
X0328422Y0020479D02*
X0331965Y0020479D01*
X0331965Y0020441D02*
X0328422Y0020441D01*
X0328422Y0020404D02*
X0331965Y0020404D01*
X0331965Y0020366D02*
X0328422Y0020366D01*
X0328422Y0020328D02*
X0331965Y0020328D01*
X0331965Y0020290D02*
X0328422Y0020290D01*
X0328422Y0020252D02*
X0331965Y0020252D01*
X0332437Y0020252D02*
X0333855Y0020252D01*
X0333855Y0020214D02*
X0332437Y0020214D01*
X0332437Y0020176D02*
X0333855Y0020176D01*
X0333855Y0020138D02*
X0332437Y0020138D01*
X0332437Y0020101D02*
X0333855Y0020101D01*
X0333855Y0020063D02*
X0332437Y0020063D01*
X0332437Y0020025D02*
X0333855Y0020025D01*
X0333855Y0019987D02*
X0332437Y0019987D01*
X0332437Y0019949D02*
X0333855Y0019949D01*
X0333855Y0019911D02*
X0332437Y0019911D01*
X0332437Y0019873D02*
X0333855Y0019873D01*
X0333855Y0019835D02*
X0332437Y0019835D01*
X0332437Y0019797D02*
X0333855Y0019797D01*
X0333855Y0019760D02*
X0332437Y0019760D01*
X0332437Y0019722D02*
X0333855Y0019722D01*
X0333855Y0019684D02*
X0332437Y0019684D01*
X0332437Y0019646D02*
X0333855Y0019646D01*
X0333855Y0019608D02*
X0332437Y0019608D01*
X0332437Y0019570D02*
X0333855Y0019570D01*
X0333855Y0019532D02*
X0332437Y0019532D01*
X0332437Y0019494D02*
X0333855Y0019494D01*
X0333855Y0019457D02*
X0332437Y0019457D01*
X0332437Y0019419D02*
X0333855Y0019419D01*
X0333855Y0019381D02*
X0332437Y0019381D01*
X0332437Y0019343D02*
X0333855Y0019343D01*
X0333855Y0019305D02*
X0332437Y0019305D01*
X0332437Y0019267D02*
X0333855Y0019267D01*
X0333855Y0019229D02*
X0332437Y0019229D01*
X0332437Y0019191D02*
X0333855Y0019191D01*
X0333855Y0019153D02*
X0332437Y0019153D01*
X0332437Y0019116D02*
X0333855Y0019116D01*
X0333855Y0019078D02*
X0332437Y0019078D01*
X0332437Y0019040D02*
X0333855Y0019040D01*
X0333855Y0019002D02*
X0332437Y0019002D01*
X0332437Y0018964D02*
X0333855Y0018964D01*
X0333855Y0018926D02*
X0332437Y0018926D01*
X0332437Y0018888D02*
X0333855Y0018888D01*
X0333855Y0018850D02*
X0332437Y0018850D01*
X0332437Y0018813D02*
X0333855Y0018813D01*
X0333855Y0018775D02*
X0332437Y0018775D01*
X0332437Y0018737D02*
X0333855Y0018737D01*
X0333855Y0018699D02*
X0332437Y0018699D01*
X0332437Y0018661D02*
X0333855Y0018661D01*
X0333855Y0018623D02*
X0332437Y0018623D01*
X0332437Y0018585D02*
X0333855Y0018585D01*
X0333855Y0018547D02*
X0332437Y0018547D01*
X0332437Y0018509D02*
X0333855Y0018509D01*
X0333855Y0018472D02*
X0332437Y0018472D01*
X0332437Y0018434D02*
X0333855Y0018434D01*
X0333855Y0018396D02*
X0332437Y0018396D01*
X0332437Y0018358D02*
X0333855Y0018358D01*
X0333855Y0018320D02*
X0332437Y0018320D01*
X0332437Y0018282D02*
X0333855Y0018282D01*
X0333855Y0018244D02*
X0332437Y0018244D01*
X0332437Y0018206D02*
X0333855Y0018206D01*
X0333855Y0018169D02*
X0332437Y0018169D01*
X0332437Y0018131D02*
X0333855Y0018131D01*
X0333855Y0018093D02*
X0332437Y0018093D01*
X0332437Y0018055D02*
X0333855Y0018055D01*
X0333855Y0018017D02*
X0332437Y0018017D01*
X0332437Y0017979D02*
X0333855Y0017979D01*
X0333855Y0017941D02*
X0332437Y0017941D01*
X0332437Y0017903D02*
X0333855Y0017903D01*
X0333855Y0017866D02*
X0332437Y0017866D01*
X0332437Y0017828D02*
X0333855Y0017828D01*
X0333855Y0017790D02*
X0332437Y0017790D01*
X0332437Y0017752D02*
X0333855Y0017752D01*
X0333855Y0017714D02*
X0332437Y0017714D01*
X0332437Y0017676D02*
X0333855Y0017676D01*
X0333855Y0017638D02*
X0332437Y0017638D01*
X0332437Y0017600D02*
X0333855Y0017600D01*
X0333855Y0017562D02*
X0332437Y0017562D01*
X0332437Y0017525D02*
X0333855Y0017525D01*
X0333855Y0017487D02*
X0332437Y0017487D01*
X0332437Y0017449D02*
X0333855Y0017449D01*
X0333855Y0017411D02*
X0332437Y0017411D01*
X0332437Y0017373D02*
X0333855Y0017373D01*
X0333855Y0017335D02*
X0332437Y0017335D01*
X0332437Y0017297D02*
X0333855Y0017297D01*
X0333855Y0017259D02*
X0332437Y0017259D01*
X0332437Y0017222D02*
X0333855Y0017222D01*
X0333855Y0017184D02*
X0332437Y0017184D01*
X0332437Y0017146D02*
X0333855Y0017146D01*
X0333855Y0017108D02*
X0332437Y0017108D01*
X0332437Y0017070D02*
X0333855Y0017070D01*
X0333855Y0017032D02*
X0332437Y0017032D01*
X0332437Y0016994D02*
X0333855Y0016994D01*
X0333855Y0016956D02*
X0332437Y0016956D01*
X0332437Y0016918D02*
X0333855Y0016918D01*
X0333855Y0016881D02*
X0332437Y0016881D01*
X0332437Y0016843D02*
X0333855Y0016843D01*
X0333855Y0016833D02*
X0332437Y0016833D01*
X0332437Y0021557D01*
X0333855Y0021557D01*
X0333855Y0016833D01*
X0334288Y0016833D02*
X0335508Y0019274D01*
X0335508Y0019589D01*
X0334288Y0021557D01*
X0335823Y0021557D01*
X0337004Y0019628D01*
X0337004Y0019235D01*
X0335902Y0016833D01*
X0334288Y0016833D01*
X0334293Y0016843D02*
X0335906Y0016843D01*
X0335924Y0016881D02*
X0334312Y0016881D01*
X0334330Y0016918D02*
X0335941Y0016918D01*
X0335959Y0016956D02*
X0334349Y0016956D01*
X0334368Y0016994D02*
X0335976Y0016994D01*
X0335993Y0017032D02*
X0334387Y0017032D01*
X0334406Y0017070D02*
X0336011Y0017070D01*
X0336028Y0017108D02*
X0334425Y0017108D01*
X0334444Y0017146D02*
X0336046Y0017146D01*
X0336063Y0017184D02*
X0334463Y0017184D01*
X0334482Y0017222D02*
X0336080Y0017222D01*
X0336098Y0017259D02*
X0334501Y0017259D01*
X0334520Y0017297D02*
X0336115Y0017297D01*
X0336132Y0017335D02*
X0334539Y0017335D01*
X0334558Y0017373D02*
X0336150Y0017373D01*
X0336167Y0017411D02*
X0334577Y0017411D01*
X0334596Y0017449D02*
X0336185Y0017449D01*
X0336202Y0017487D02*
X0334615Y0017487D01*
X0334634Y0017525D02*
X0336219Y0017525D01*
X0336237Y0017562D02*
X0334652Y0017562D01*
X0334671Y0017600D02*
X0336254Y0017600D01*
X0336272Y0017638D02*
X0334690Y0017638D01*
X0334709Y0017676D02*
X0336289Y0017676D01*
X0336306Y0017714D02*
X0334728Y0017714D01*
X0334747Y0017752D02*
X0336324Y0017752D01*
X0336341Y0017790D02*
X0334766Y0017790D01*
X0334785Y0017828D02*
X0336358Y0017828D01*
X0336376Y0017866D02*
X0334804Y0017866D01*
X0334823Y0017903D02*
X0336393Y0017903D01*
X0336411Y0017941D02*
X0334842Y0017941D01*
X0334861Y0017979D02*
X0336428Y0017979D01*
X0336445Y0018017D02*
X0334880Y0018017D01*
X0334899Y0018055D02*
X0336463Y0018055D01*
X0336480Y0018093D02*
X0334918Y0018093D01*
X0334937Y0018131D02*
X0336498Y0018131D01*
X0336515Y0018169D02*
X0334956Y0018169D01*
X0334974Y0018206D02*
X0336532Y0018206D01*
X0336550Y0018244D02*
X0334993Y0018244D01*
X0335012Y0018282D02*
X0336567Y0018282D01*
X0336585Y0018320D02*
X0335031Y0018320D01*
X0335050Y0018358D02*
X0336602Y0018358D01*
X0336619Y0018396D02*
X0335069Y0018396D01*
X0335088Y0018434D02*
X0336637Y0018434D01*
X0336654Y0018472D02*
X0335107Y0018472D01*
X0335126Y0018509D02*
X0336671Y0018509D01*
X0336689Y0018547D02*
X0335145Y0018547D01*
X0335164Y0018585D02*
X0336706Y0018585D01*
X0336724Y0018623D02*
X0335183Y0018623D01*
X0335202Y0018661D02*
X0336741Y0018661D01*
X0336758Y0018699D02*
X0335221Y0018699D01*
X0335240Y0018737D02*
X0336776Y0018737D01*
X0336793Y0018775D02*
X0335259Y0018775D01*
X0335278Y0018813D02*
X0336811Y0018813D01*
X0336828Y0018850D02*
X0335296Y0018850D01*
X0335315Y0018888D02*
X0336845Y0018888D01*
X0336863Y0018926D02*
X0335334Y0018926D01*
X0335353Y0018964D02*
X0336880Y0018964D01*
X0336898Y0019002D02*
X0335372Y0019002D01*
X0335391Y0019040D02*
X0336915Y0019040D01*
X0336932Y0019078D02*
X0335410Y0019078D01*
X0335429Y0019116D02*
X0336950Y0019116D01*
X0336967Y0019153D02*
X0335448Y0019153D01*
X0335467Y0019191D02*
X0336984Y0019191D01*
X0337004Y0019191D02*
X0338422Y0019191D01*
X0338422Y0019153D02*
X0337004Y0019153D01*
X0337004Y0019116D02*
X0338422Y0019116D01*
X0338422Y0019078D02*
X0337004Y0019078D01*
X0337004Y0019040D02*
X0338422Y0019040D01*
X0338422Y0019002D02*
X0337004Y0019002D01*
X0337004Y0018964D02*
X0338422Y0018964D01*
X0338422Y0018926D02*
X0337004Y0018926D01*
X0337004Y0018888D02*
X0338422Y0018888D01*
X0338422Y0018850D02*
X0337004Y0018850D01*
X0337004Y0018813D02*
X0338422Y0018813D01*
X0338422Y0018775D02*
X0337004Y0018775D01*
X0337004Y0018737D02*
X0338422Y0018737D01*
X0338422Y0018699D02*
X0337004Y0018699D01*
X0337004Y0018661D02*
X0338422Y0018661D01*
X0338422Y0018623D02*
X0337004Y0018623D01*
X0337004Y0018585D02*
X0338422Y0018585D01*
X0338422Y0018547D02*
X0337004Y0018547D01*
X0337004Y0018509D02*
X0338422Y0018509D01*
X0338422Y0018472D02*
X0337004Y0018472D01*
X0337004Y0018434D02*
X0338422Y0018434D01*
X0338422Y0018396D02*
X0337004Y0018396D01*
X0337004Y0018358D02*
X0338422Y0018358D01*
X0338422Y0018320D02*
X0337004Y0018320D01*
X0337004Y0018282D02*
X0338422Y0018282D01*
X0338422Y0018244D02*
X0337004Y0018244D01*
X0337004Y0018206D02*
X0338422Y0018206D01*
X0338422Y0018169D02*
X0337004Y0018169D01*
X0337004Y0018131D02*
X0338422Y0018131D01*
X0338422Y0018093D02*
X0337004Y0018093D01*
X0337004Y0018055D02*
X0338422Y0018055D01*
X0338422Y0018017D02*
X0337004Y0018017D01*
X0337004Y0017979D02*
X0338422Y0017979D01*
X0338422Y0017941D02*
X0337004Y0017941D01*
X0337004Y0017903D02*
X0338422Y0017903D01*
X0338422Y0017866D02*
X0337004Y0017866D01*
X0337004Y0017828D02*
X0338422Y0017828D01*
X0338422Y0017790D02*
X0337004Y0017790D01*
X0337004Y0017752D02*
X0338422Y0017752D01*
X0338422Y0017714D02*
X0337004Y0017714D01*
X0337004Y0017676D02*
X0338422Y0017676D01*
X0338422Y0017638D02*
X0337004Y0017638D01*
X0337004Y0017600D02*
X0338422Y0017600D01*
X0338422Y0017562D02*
X0337004Y0017562D01*
X0337004Y0017525D02*
X0338422Y0017525D01*
X0338422Y0017487D02*
X0337004Y0017487D01*
X0337004Y0017449D02*
X0338422Y0017449D01*
X0338422Y0017411D02*
X0337004Y0017411D01*
X0337004Y0017373D02*
X0338422Y0017373D01*
X0338422Y0017335D02*
X0337004Y0017335D01*
X0337004Y0017297D02*
X0338422Y0017297D01*
X0338422Y0017259D02*
X0337004Y0017259D01*
X0337004Y0017222D02*
X0338422Y0017222D01*
X0338422Y0017184D02*
X0337004Y0017184D01*
X0337004Y0017146D02*
X0338422Y0017146D01*
X0338422Y0017108D02*
X0337004Y0017108D01*
X0337004Y0017070D02*
X0338422Y0017070D01*
X0338422Y0017032D02*
X0337004Y0017032D01*
X0337004Y0016994D02*
X0338422Y0016994D01*
X0338422Y0016956D02*
X0337004Y0016956D01*
X0337004Y0016918D02*
X0338422Y0016918D01*
X0338422Y0016881D02*
X0337004Y0016881D01*
X0337004Y0016843D02*
X0338422Y0016843D01*
X0338422Y0016833D02*
X0337004Y0016833D01*
X0337004Y0021557D01*
X0338422Y0021557D01*
X0338422Y0016833D01*
X0339367Y0017384D02*
X0339209Y0017699D01*
X0339052Y0018172D01*
X0339052Y0019038D01*
X0339209Y0019510D01*
X0339367Y0019825D01*
X0339681Y0020140D01*
X0339996Y0020298D01*
X0340233Y0020376D01*
X0340863Y0020376D01*
X0341099Y0020298D01*
X0341394Y0020140D01*
X0341552Y0019983D01*
X0341650Y0019746D01*
X0341729Y0019746D01*
X0341729Y0019668D01*
X0341729Y0020298D01*
X0342280Y0020298D01*
X0342280Y0015455D01*
X0341650Y0015455D01*
X0341650Y0017227D01*
X0341571Y0017227D01*
X0341493Y0017069D01*
X0341414Y0016991D01*
X0341099Y0016833D01*
X0340154Y0016833D01*
X0339918Y0016912D01*
X0339839Y0016991D01*
X0339681Y0017069D01*
X0339367Y0017384D01*
X0339378Y0017373D02*
X0340403Y0017373D01*
X0340469Y0017345D02*
X0341020Y0017345D01*
X0341296Y0017502D01*
X0341453Y0017660D01*
X0341571Y0017896D01*
X0341650Y0018132D01*
X0341650Y0019117D01*
X0341335Y0019589D01*
X0341256Y0019668D01*
X0341729Y0019668D01*
X0341256Y0019668D01*
X0341020Y0019825D01*
X0340390Y0019825D01*
X0340075Y0019589D01*
X0339918Y0019353D01*
X0339760Y0018880D01*
X0339760Y0018329D01*
X0339918Y0017778D01*
X0340075Y0017581D01*
X0340193Y0017463D01*
X0340469Y0017345D01*
X0340315Y0017411D02*
X0339353Y0017411D01*
X0339334Y0017449D02*
X0340226Y0017449D01*
X0340170Y0017487D02*
X0339315Y0017487D01*
X0339296Y0017525D02*
X0340132Y0017525D01*
X0340094Y0017562D02*
X0339277Y0017562D01*
X0339258Y0017600D02*
X0340060Y0017600D01*
X0340029Y0017638D02*
X0339240Y0017638D01*
X0339221Y0017676D02*
X0339999Y0017676D01*
X0339969Y0017714D02*
X0339204Y0017714D01*
X0339192Y0017752D02*
X0339939Y0017752D01*
X0339914Y0017790D02*
X0339179Y0017790D01*
X0339166Y0017828D02*
X0339904Y0017828D01*
X0339893Y0017866D02*
X0339154Y0017866D01*
X0339141Y0017903D02*
X0339882Y0017903D01*
X0339871Y0017941D02*
X0339128Y0017941D01*
X0339116Y0017979D02*
X0339860Y0017979D01*
X0339849Y0018017D02*
X0339103Y0018017D01*
X0339090Y0018055D02*
X0339839Y0018055D01*
X0339828Y0018093D02*
X0339078Y0018093D01*
X0339065Y0018131D02*
X0339817Y0018131D01*
X0339806Y0018169D02*
X0339053Y0018169D01*
X0339052Y0018206D02*
X0339795Y0018206D01*
X0339784Y0018244D02*
X0339052Y0018244D01*
X0339052Y0018282D02*
X0339774Y0018282D01*
X0339763Y0018320D02*
X0339052Y0018320D01*
X0339052Y0018358D02*
X0339760Y0018358D01*
X0339760Y0018396D02*
X0339052Y0018396D01*
X0339052Y0018434D02*
X0339760Y0018434D01*
X0339760Y0018472D02*
X0339052Y0018472D01*
X0339052Y0018509D02*
X0339760Y0018509D01*
X0339760Y0018547D02*
X0339052Y0018547D01*
X0339052Y0018585D02*
X0339760Y0018585D01*
X0339760Y0018623D02*
X0339052Y0018623D01*
X0339052Y0018661D02*
X0339760Y0018661D01*
X0339760Y0018699D02*
X0339052Y0018699D01*
X0339052Y0018737D02*
X0339760Y0018737D01*
X0339760Y0018775D02*
X0339052Y0018775D01*
X0339052Y0018813D02*
X0339760Y0018813D01*
X0339760Y0018850D02*
X0339052Y0018850D01*
X0339052Y0018888D02*
X0339763Y0018888D01*
X0339776Y0018926D02*
X0339052Y0018926D01*
X0339052Y0018964D02*
X0339788Y0018964D01*
X0339801Y0019002D02*
X0339052Y0019002D01*
X0339052Y0019040D02*
X0339813Y0019040D01*
X0339826Y0019078D02*
X0339065Y0019078D01*
X0339078Y0019116D02*
X0339839Y0019116D01*
X0339851Y0019153D02*
X0339090Y0019153D01*
X0339103Y0019191D02*
X0339864Y0019191D01*
X0339877Y0019229D02*
X0339115Y0019229D01*
X0339128Y0019267D02*
X0339889Y0019267D01*
X0339902Y0019305D02*
X0339141Y0019305D01*
X0339153Y0019343D02*
X0339914Y0019343D01*
X0339936Y0019381D02*
X0339166Y0019381D01*
X0339179Y0019419D02*
X0339962Y0019419D01*
X0339987Y0019457D02*
X0339191Y0019457D01*
X0339204Y0019494D02*
X0340012Y0019494D01*
X0340037Y0019532D02*
X0339220Y0019532D01*
X0339239Y0019570D02*
X0340063Y0019570D01*
X0340101Y0019608D02*
X0339258Y0019608D01*
X0339277Y0019646D02*
X0340151Y0019646D01*
X0340202Y0019684D02*
X0339296Y0019684D01*
X0339315Y0019722D02*
X0340252Y0019722D01*
X0340303Y0019760D02*
X0339334Y0019760D01*
X0339353Y0019797D02*
X0340353Y0019797D01*
X0340201Y0020366D02*
X0340895Y0020366D01*
X0341008Y0020328D02*
X0340087Y0020328D01*
X0339981Y0020290D02*
X0341113Y0020290D01*
X0341184Y0020252D02*
X0339905Y0020252D01*
X0339830Y0020214D02*
X0341255Y0020214D01*
X0341326Y0020176D02*
X0339754Y0020176D01*
X0339680Y0020138D02*
X0341396Y0020138D01*
X0341434Y0020101D02*
X0339642Y0020101D01*
X0339604Y0020063D02*
X0341472Y0020063D01*
X0341509Y0020025D02*
X0339566Y0020025D01*
X0339528Y0019987D02*
X0341547Y0019987D01*
X0341566Y0019949D02*
X0339490Y0019949D01*
X0339452Y0019911D02*
X0341581Y0019911D01*
X0341597Y0019873D02*
X0339415Y0019873D01*
X0339377Y0019835D02*
X0341613Y0019835D01*
X0341629Y0019797D02*
X0341062Y0019797D01*
X0341119Y0019760D02*
X0341645Y0019760D01*
X0341729Y0019760D02*
X0342280Y0019760D01*
X0342280Y0019797D02*
X0341729Y0019797D01*
X0341729Y0019835D02*
X0342280Y0019835D01*
X0342280Y0019873D02*
X0341729Y0019873D01*
X0341729Y0019911D02*
X0342280Y0019911D01*
X0342280Y0019949D02*
X0341729Y0019949D01*
X0341729Y0019987D02*
X0342280Y0019987D01*
X0342280Y0020025D02*
X0341729Y0020025D01*
X0341729Y0020063D02*
X0342280Y0020063D01*
X0342280Y0020101D02*
X0341729Y0020101D01*
X0341729Y0020138D02*
X0342280Y0020138D01*
X0342280Y0020176D02*
X0341729Y0020176D01*
X0341729Y0020214D02*
X0342280Y0020214D01*
X0342280Y0020252D02*
X0341729Y0020252D01*
X0341729Y0020290D02*
X0342280Y0020290D01*
X0342280Y0019722D02*
X0341729Y0019722D01*
X0341175Y0019722D01*
X0341232Y0019684D02*
X0341729Y0019684D01*
X0342280Y0019684D01*
X0342280Y0019646D02*
X0341278Y0019646D01*
X0341316Y0019608D02*
X0342280Y0019608D01*
X0342280Y0019570D02*
X0341348Y0019570D01*
X0341373Y0019532D02*
X0342280Y0019532D01*
X0342280Y0019494D02*
X0341398Y0019494D01*
X0341423Y0019457D02*
X0342280Y0019457D01*
X0342280Y0019419D02*
X0341449Y0019419D01*
X0341474Y0019381D02*
X0342280Y0019381D01*
X0342280Y0019343D02*
X0341499Y0019343D01*
X0341524Y0019305D02*
X0342280Y0019305D01*
X0342280Y0019267D02*
X0341550Y0019267D01*
X0341575Y0019229D02*
X0342280Y0019229D01*
X0342280Y0019191D02*
X0341600Y0019191D01*
X0341625Y0019153D02*
X0342280Y0019153D01*
X0342280Y0019116D02*
X0341650Y0019116D01*
X0341650Y0019078D02*
X0342280Y0019078D01*
X0342280Y0019040D02*
X0341650Y0019040D01*
X0341650Y0019002D02*
X0342280Y0019002D01*
X0342280Y0018964D02*
X0341650Y0018964D01*
X0341650Y0018926D02*
X0342280Y0018926D01*
X0342280Y0018888D02*
X0341650Y0018888D01*
X0341650Y0018850D02*
X0342280Y0018850D01*
X0342280Y0018813D02*
X0341650Y0018813D01*
X0341650Y0018775D02*
X0342280Y0018775D01*
X0342280Y0018737D02*
X0341650Y0018737D01*
X0341650Y0018699D02*
X0342280Y0018699D01*
X0342280Y0018661D02*
X0341650Y0018661D01*
X0341650Y0018623D02*
X0342280Y0018623D01*
X0342280Y0018585D02*
X0341650Y0018585D01*
X0341650Y0018547D02*
X0342280Y0018547D01*
X0342280Y0018509D02*
X0341650Y0018509D01*
X0341650Y0018472D02*
X0342280Y0018472D01*
X0342280Y0018434D02*
X0341650Y0018434D01*
X0341650Y0018396D02*
X0342280Y0018396D01*
X0342280Y0018358D02*
X0341650Y0018358D01*
X0341650Y0018320D02*
X0342280Y0018320D01*
X0342280Y0018282D02*
X0341650Y0018282D01*
X0341650Y0018244D02*
X0342280Y0018244D01*
X0342280Y0018206D02*
X0341650Y0018206D01*
X0341650Y0018169D02*
X0342280Y0018169D01*
X0342280Y0018131D02*
X0341649Y0018131D01*
X0341637Y0018093D02*
X0342280Y0018093D01*
X0342280Y0018055D02*
X0341624Y0018055D01*
X0341612Y0018017D02*
X0342280Y0018017D01*
X0342280Y0017979D02*
X0341599Y0017979D01*
X0341586Y0017941D02*
X0342280Y0017941D01*
X0342280Y0017903D02*
X0341574Y0017903D01*
X0341556Y0017866D02*
X0342280Y0017866D01*
X0342280Y0017828D02*
X0341537Y0017828D01*
X0341518Y0017790D02*
X0342280Y0017790D01*
X0342280Y0017752D02*
X0341499Y0017752D01*
X0341480Y0017714D02*
X0342280Y0017714D01*
X0342280Y0017676D02*
X0341461Y0017676D01*
X0341432Y0017638D02*
X0342280Y0017638D01*
X0342280Y0017600D02*
X0341394Y0017600D01*
X0341356Y0017562D02*
X0342280Y0017562D01*
X0342280Y0017525D02*
X0341318Y0017525D01*
X0341268Y0017487D02*
X0342280Y0017487D01*
X0342280Y0017449D02*
X0341202Y0017449D01*
X0341136Y0017411D02*
X0342280Y0017411D01*
X0342280Y0017373D02*
X0341069Y0017373D01*
X0341270Y0016918D02*
X0339911Y0016918D01*
X0339873Y0016956D02*
X0341345Y0016956D01*
X0341417Y0016994D02*
X0339832Y0016994D01*
X0339756Y0017032D02*
X0341455Y0017032D01*
X0341493Y0017070D02*
X0339681Y0017070D01*
X0339643Y0017108D02*
X0341512Y0017108D01*
X0341531Y0017146D02*
X0339605Y0017146D01*
X0339567Y0017184D02*
X0341550Y0017184D01*
X0341569Y0017222D02*
X0339529Y0017222D01*
X0339491Y0017259D02*
X0342280Y0017259D01*
X0342280Y0017222D02*
X0341650Y0017222D01*
X0341650Y0017184D02*
X0342280Y0017184D01*
X0342280Y0017146D02*
X0341650Y0017146D01*
X0341650Y0017108D02*
X0342280Y0017108D01*
X0342280Y0017070D02*
X0341650Y0017070D01*
X0341650Y0017032D02*
X0342280Y0017032D01*
X0342280Y0016994D02*
X0341650Y0016994D01*
X0341650Y0016956D02*
X0342280Y0016956D01*
X0342280Y0016918D02*
X0341650Y0016918D01*
X0341650Y0016881D02*
X0342280Y0016881D01*
X0342280Y0016843D02*
X0341650Y0016843D01*
X0341650Y0016805D02*
X0342280Y0016805D01*
X0342280Y0016767D02*
X0341650Y0016767D01*
X0341650Y0016729D02*
X0342280Y0016729D01*
X0342280Y0016691D02*
X0341650Y0016691D01*
X0341650Y0016653D02*
X0342280Y0016653D01*
X0342280Y0016615D02*
X0341650Y0016615D01*
X0341650Y0016578D02*
X0342280Y0016578D01*
X0342280Y0016540D02*
X0341650Y0016540D01*
X0341650Y0016502D02*
X0342280Y0016502D01*
X0342280Y0016464D02*
X0341650Y0016464D01*
X0341650Y0016426D02*
X0342280Y0016426D01*
X0342280Y0016388D02*
X0341650Y0016388D01*
X0341650Y0016350D02*
X0342280Y0016350D01*
X0342280Y0016312D02*
X0341650Y0016312D01*
X0341650Y0016274D02*
X0342280Y0016274D01*
X0342280Y0016237D02*
X0341650Y0016237D01*
X0341650Y0016199D02*
X0342280Y0016199D01*
X0342280Y0016161D02*
X0341650Y0016161D01*
X0341650Y0016123D02*
X0342280Y0016123D01*
X0342280Y0016085D02*
X0341650Y0016085D01*
X0341650Y0016047D02*
X0342280Y0016047D01*
X0342280Y0016009D02*
X0341650Y0016009D01*
X0341650Y0015971D02*
X0342280Y0015971D01*
X0342280Y0015934D02*
X0341650Y0015934D01*
X0341650Y0015896D02*
X0342280Y0015896D01*
X0342280Y0015858D02*
X0341650Y0015858D01*
X0341650Y0015820D02*
X0342280Y0015820D01*
X0342280Y0015782D02*
X0341650Y0015782D01*
X0341650Y0015744D02*
X0342280Y0015744D01*
X0342280Y0015706D02*
X0341650Y0015706D01*
X0341650Y0015668D02*
X0342280Y0015668D01*
X0342280Y0015631D02*
X0341650Y0015631D01*
X0341650Y0015593D02*
X0342280Y0015593D01*
X0342280Y0015555D02*
X0341650Y0015555D01*
X0341650Y0015517D02*
X0342280Y0015517D01*
X0342280Y0015479D02*
X0341650Y0015479D01*
X0341118Y0016843D02*
X0340125Y0016843D01*
X0340011Y0016881D02*
X0341194Y0016881D01*
X0342280Y0017297D02*
X0339453Y0017297D01*
X0339416Y0017335D02*
X0342280Y0017335D01*
X0343225Y0017335D02*
X0343855Y0017335D01*
X0343855Y0017297D02*
X0343225Y0017297D01*
X0343225Y0017259D02*
X0343855Y0017259D01*
X0343855Y0017222D02*
X0343225Y0017222D01*
X0343225Y0017184D02*
X0343855Y0017184D01*
X0343855Y0017146D02*
X0343225Y0017146D01*
X0343225Y0017108D02*
X0343855Y0017108D01*
X0343855Y0017070D02*
X0343225Y0017070D01*
X0343225Y0017032D02*
X0343855Y0017032D01*
X0343855Y0016994D02*
X0343225Y0016994D01*
X0343225Y0016956D02*
X0343855Y0016956D01*
X0343855Y0016918D02*
X0343225Y0016918D01*
X0343225Y0016912D02*
X0343855Y0016912D01*
X0343855Y0020298D01*
X0343225Y0020298D01*
X0343225Y0016912D01*
X0343225Y0017373D02*
X0343855Y0017373D01*
X0343855Y0017411D02*
X0343225Y0017411D01*
X0343225Y0017449D02*
X0343855Y0017449D01*
X0343855Y0017487D02*
X0343225Y0017487D01*
X0343225Y0017525D02*
X0343855Y0017525D01*
X0343855Y0017562D02*
X0343225Y0017562D01*
X0343225Y0017600D02*
X0343855Y0017600D01*
X0343855Y0017638D02*
X0343225Y0017638D01*
X0343225Y0017676D02*
X0343855Y0017676D01*
X0343855Y0017714D02*
X0343225Y0017714D01*
X0343225Y0017752D02*
X0343855Y0017752D01*
X0343855Y0017790D02*
X0343225Y0017790D01*
X0343225Y0017828D02*
X0343855Y0017828D01*
X0343855Y0017866D02*
X0343225Y0017866D01*
X0343225Y0017903D02*
X0343855Y0017903D01*
X0343855Y0017941D02*
X0343225Y0017941D01*
X0343225Y0017979D02*
X0343855Y0017979D01*
X0343855Y0018017D02*
X0343225Y0018017D01*
X0343225Y0018055D02*
X0343855Y0018055D01*
X0343855Y0018093D02*
X0343225Y0018093D01*
X0343225Y0018131D02*
X0343855Y0018131D01*
X0343855Y0018169D02*
X0343225Y0018169D01*
X0343225Y0018206D02*
X0343855Y0018206D01*
X0343855Y0018244D02*
X0343225Y0018244D01*
X0343225Y0018282D02*
X0343855Y0018282D01*
X0343855Y0018320D02*
X0343225Y0018320D01*
X0343225Y0018358D02*
X0343855Y0018358D01*
X0343855Y0018396D02*
X0343225Y0018396D01*
X0343225Y0018434D02*
X0343855Y0018434D01*
X0343855Y0018472D02*
X0343225Y0018472D01*
X0343225Y0018509D02*
X0343855Y0018509D01*
X0343855Y0018547D02*
X0343225Y0018547D01*
X0343225Y0018585D02*
X0343855Y0018585D01*
X0343855Y0018623D02*
X0343225Y0018623D01*
X0343225Y0018661D02*
X0343855Y0018661D01*
X0343855Y0018699D02*
X0343225Y0018699D01*
X0343225Y0018737D02*
X0343855Y0018737D01*
X0343855Y0018775D02*
X0343225Y0018775D01*
X0343225Y0018813D02*
X0343855Y0018813D01*
X0343855Y0018850D02*
X0343225Y0018850D01*
X0343225Y0018888D02*
X0343855Y0018888D01*
X0343855Y0018926D02*
X0343225Y0018926D01*
X0343225Y0018964D02*
X0343855Y0018964D01*
X0343855Y0019002D02*
X0343225Y0019002D01*
X0343225Y0019040D02*
X0343855Y0019040D01*
X0343855Y0019078D02*
X0343225Y0019078D01*
X0343225Y0019116D02*
X0343855Y0019116D01*
X0343855Y0019153D02*
X0343225Y0019153D01*
X0343225Y0019191D02*
X0343855Y0019191D01*
X0343855Y0019229D02*
X0343225Y0019229D01*
X0343225Y0019267D02*
X0343855Y0019267D01*
X0343855Y0019305D02*
X0343225Y0019305D01*
X0343225Y0019343D02*
X0343855Y0019343D01*
X0343855Y0019381D02*
X0343225Y0019381D01*
X0343225Y0019419D02*
X0343855Y0019419D01*
X0343855Y0019457D02*
X0343225Y0019457D01*
X0343225Y0019494D02*
X0343855Y0019494D01*
X0343855Y0019532D02*
X0343225Y0019532D01*
X0343225Y0019570D02*
X0343855Y0019570D01*
X0343855Y0019608D02*
X0343225Y0019608D01*
X0343225Y0019646D02*
X0343855Y0019646D01*
X0343855Y0019684D02*
X0343225Y0019684D01*
X0343225Y0019722D02*
X0343855Y0019722D01*
X0343855Y0019760D02*
X0343225Y0019760D01*
X0343225Y0019797D02*
X0343855Y0019797D01*
X0343855Y0019835D02*
X0343225Y0019835D01*
X0343225Y0019873D02*
X0343855Y0019873D01*
X0343855Y0019911D02*
X0343225Y0019911D01*
X0343225Y0019949D02*
X0343855Y0019949D01*
X0343855Y0019987D02*
X0343225Y0019987D01*
X0343225Y0020025D02*
X0343855Y0020025D01*
X0343855Y0020063D02*
X0343225Y0020063D01*
X0343225Y0020101D02*
X0343855Y0020101D01*
X0343855Y0020138D02*
X0343225Y0020138D01*
X0343225Y0020176D02*
X0343855Y0020176D01*
X0343855Y0020214D02*
X0343225Y0020214D01*
X0343225Y0020252D02*
X0343855Y0020252D01*
X0343855Y0020290D02*
X0343225Y0020290D01*
X0343382Y0020849D02*
X0343658Y0020849D01*
X0343815Y0020928D01*
X0343933Y0021085D01*
X0343953Y0021321D01*
X0343894Y0021479D01*
X0343737Y0021597D01*
X0343658Y0021636D01*
X0343422Y0021636D01*
X0343244Y0021518D01*
X0343146Y0021321D01*
X0343146Y0021124D01*
X0343225Y0020967D01*
X0343382Y0020849D01*
X0343370Y0020858D02*
X0343677Y0020858D01*
X0343752Y0020896D02*
X0343319Y0020896D01*
X0343269Y0020934D02*
X0343820Y0020934D01*
X0343849Y0020972D02*
X0343222Y0020972D01*
X0343203Y0021010D02*
X0343877Y0021010D01*
X0343905Y0021048D02*
X0343184Y0021048D01*
X0343166Y0021085D02*
X0343933Y0021085D01*
X0343937Y0021123D02*
X0343147Y0021123D01*
X0343146Y0021161D02*
X0343940Y0021161D01*
X0343943Y0021199D02*
X0343146Y0021199D01*
X0343146Y0021237D02*
X0343946Y0021237D01*
X0343949Y0021275D02*
X0343146Y0021275D01*
X0343146Y0021313D02*
X0343952Y0021313D01*
X0343942Y0021351D02*
X0343161Y0021351D01*
X0343180Y0021388D02*
X0343928Y0021388D01*
X0343914Y0021426D02*
X0343199Y0021426D01*
X0343218Y0021464D02*
X0343900Y0021464D01*
X0343863Y0021502D02*
X0343237Y0021502D01*
X0343277Y0021540D02*
X0343812Y0021540D01*
X0343762Y0021578D02*
X0343334Y0021578D01*
X0343391Y0021616D02*
X0343699Y0021616D01*
X0345469Y0020258D02*
X0345666Y0020337D01*
X0345784Y0020376D01*
X0346178Y0020376D01*
X0346453Y0020298D01*
X0346768Y0020140D01*
X0346926Y0019983D01*
X0347044Y0019825D01*
X0347083Y0019825D01*
X0347083Y0021872D01*
X0347713Y0021872D01*
X0347713Y0016912D01*
X0347083Y0016912D01*
X0347083Y0019117D01*
X0346926Y0019431D01*
X0346689Y0019668D01*
X0346453Y0019746D01*
X0345902Y0019746D01*
X0345666Y0019628D01*
X0345508Y0019392D01*
X0345430Y0019235D01*
X0345430Y0016912D01*
X0344800Y0016912D01*
X0344800Y0019431D01*
X0344878Y0019668D01*
X0344957Y0019825D01*
X0345036Y0019943D01*
X0345193Y0020101D01*
X0345311Y0020180D01*
X0345469Y0020258D01*
X0345456Y0020252D02*
X0346544Y0020252D01*
X0346469Y0020290D02*
X0345548Y0020290D01*
X0345643Y0020328D02*
X0346348Y0020328D01*
X0346215Y0020366D02*
X0345752Y0020366D01*
X0345381Y0020214D02*
X0346620Y0020214D01*
X0346696Y0020176D02*
X0345307Y0020176D01*
X0345250Y0020138D02*
X0346770Y0020138D01*
X0346808Y0020101D02*
X0345193Y0020101D01*
X0345155Y0020063D02*
X0346846Y0020063D01*
X0346884Y0020025D02*
X0345117Y0020025D01*
X0345079Y0019987D02*
X0346921Y0019987D01*
X0346951Y0019949D02*
X0345042Y0019949D01*
X0345014Y0019911D02*
X0346979Y0019911D01*
X0347008Y0019873D02*
X0344989Y0019873D01*
X0344964Y0019835D02*
X0347036Y0019835D01*
X0347083Y0019835D02*
X0347713Y0019835D01*
X0347713Y0019797D02*
X0344943Y0019797D01*
X0344924Y0019760D02*
X0347713Y0019760D01*
X0347713Y0019722D02*
X0346527Y0019722D01*
X0346641Y0019684D02*
X0347713Y0019684D01*
X0347713Y0019646D02*
X0346711Y0019646D01*
X0346749Y0019608D02*
X0347713Y0019608D01*
X0347713Y0019570D02*
X0346787Y0019570D01*
X0346825Y0019532D02*
X0347713Y0019532D01*
X0347713Y0019494D02*
X0346863Y0019494D01*
X0346901Y0019457D02*
X0347713Y0019457D01*
X0347713Y0019419D02*
X0346932Y0019419D01*
X0346951Y0019381D02*
X0347713Y0019381D01*
X0347713Y0019343D02*
X0346970Y0019343D01*
X0346989Y0019305D02*
X0347713Y0019305D01*
X0347713Y0019267D02*
X0347008Y0019267D01*
X0347027Y0019229D02*
X0347713Y0019229D01*
X0347713Y0019191D02*
X0347046Y0019191D01*
X0347065Y0019153D02*
X0347713Y0019153D01*
X0347713Y0019116D02*
X0347083Y0019116D01*
X0347083Y0019078D02*
X0347713Y0019078D01*
X0347713Y0019040D02*
X0347083Y0019040D01*
X0347083Y0019002D02*
X0347713Y0019002D01*
X0347713Y0018964D02*
X0347083Y0018964D01*
X0347083Y0018926D02*
X0347713Y0018926D01*
X0347713Y0018888D02*
X0347083Y0018888D01*
X0347083Y0018850D02*
X0347713Y0018850D01*
X0347713Y0018813D02*
X0347083Y0018813D01*
X0347083Y0018775D02*
X0347713Y0018775D01*
X0347713Y0018737D02*
X0347083Y0018737D01*
X0347083Y0018699D02*
X0347713Y0018699D01*
X0347713Y0018661D02*
X0347083Y0018661D01*
X0347083Y0018623D02*
X0347713Y0018623D01*
X0347713Y0018585D02*
X0347083Y0018585D01*
X0347083Y0018547D02*
X0347713Y0018547D01*
X0347713Y0018509D02*
X0347083Y0018509D01*
X0347083Y0018472D02*
X0347713Y0018472D01*
X0347713Y0018434D02*
X0347083Y0018434D01*
X0347083Y0018396D02*
X0347713Y0018396D01*
X0347713Y0018358D02*
X0347083Y0018358D01*
X0347083Y0018320D02*
X0347713Y0018320D01*
X0347713Y0018282D02*
X0347083Y0018282D01*
X0347083Y0018244D02*
X0347713Y0018244D01*
X0347713Y0018206D02*
X0347083Y0018206D01*
X0347083Y0018169D02*
X0347713Y0018169D01*
X0347713Y0018131D02*
X0347083Y0018131D01*
X0347083Y0018093D02*
X0347713Y0018093D01*
X0347713Y0018055D02*
X0347083Y0018055D01*
X0347083Y0018017D02*
X0347713Y0018017D01*
X0347713Y0017979D02*
X0347083Y0017979D01*
X0347083Y0017941D02*
X0347713Y0017941D01*
X0347713Y0017903D02*
X0347083Y0017903D01*
X0347083Y0017866D02*
X0347713Y0017866D01*
X0347713Y0017828D02*
X0347083Y0017828D01*
X0347083Y0017790D02*
X0347713Y0017790D01*
X0347713Y0017752D02*
X0347083Y0017752D01*
X0347083Y0017714D02*
X0347713Y0017714D01*
X0347713Y0017676D02*
X0347083Y0017676D01*
X0347083Y0017638D02*
X0347713Y0017638D01*
X0347713Y0017600D02*
X0347083Y0017600D01*
X0347083Y0017562D02*
X0347713Y0017562D01*
X0347713Y0017525D02*
X0347083Y0017525D01*
X0347083Y0017487D02*
X0347713Y0017487D01*
X0347713Y0017449D02*
X0347083Y0017449D01*
X0347083Y0017411D02*
X0347713Y0017411D01*
X0347713Y0017373D02*
X0347083Y0017373D01*
X0347083Y0017335D02*
X0347713Y0017335D01*
X0347713Y0017297D02*
X0347083Y0017297D01*
X0347083Y0017259D02*
X0347713Y0017259D01*
X0347713Y0017222D02*
X0347083Y0017222D01*
X0347083Y0017184D02*
X0347713Y0017184D01*
X0347713Y0017146D02*
X0347083Y0017146D01*
X0347083Y0017108D02*
X0347713Y0017108D01*
X0347713Y0017070D02*
X0347083Y0017070D01*
X0347083Y0017032D02*
X0347713Y0017032D01*
X0347713Y0016994D02*
X0347083Y0016994D01*
X0347083Y0016956D02*
X0347713Y0016956D01*
X0347713Y0016918D02*
X0347083Y0016918D01*
X0348343Y0016991D02*
X0348422Y0017463D01*
X0348500Y0017463D01*
X0348894Y0017384D01*
X0349485Y0017345D01*
X0349681Y0017463D01*
X0349996Y0017620D01*
X0350154Y0017817D01*
X0350272Y0018014D01*
X0350390Y0018290D01*
X0350390Y0018880D01*
X0350272Y0019156D01*
X0350154Y0019353D01*
X0349996Y0019510D01*
X0349760Y0019668D01*
X0349485Y0019786D01*
X0348855Y0019786D01*
X0348461Y0019707D01*
X0348343Y0020180D01*
X0348343Y0020219D01*
X0348500Y0020298D01*
X0348815Y0020376D01*
X0349563Y0020376D01*
X0349839Y0020298D01*
X0350075Y0020180D01*
X0350272Y0020101D01*
X0350548Y0019904D01*
X0350705Y0019668D01*
X0350902Y0019353D01*
X0351020Y0019038D01*
X0351020Y0018172D01*
X0350902Y0017739D01*
X0350666Y0017384D01*
X0350469Y0017187D01*
X0350036Y0016912D01*
X0349642Y0016833D01*
X0348855Y0016833D01*
X0348540Y0016912D01*
X0348343Y0016991D01*
X0348344Y0016994D02*
X0350165Y0016994D01*
X0350106Y0016956D02*
X0348428Y0016956D01*
X0348523Y0016918D02*
X0350046Y0016918D01*
X0349880Y0016881D02*
X0348665Y0016881D01*
X0348816Y0016843D02*
X0349690Y0016843D01*
X0349532Y0017373D02*
X0350655Y0017373D01*
X0350684Y0017411D02*
X0349595Y0017411D01*
X0349658Y0017449D02*
X0350709Y0017449D01*
X0350734Y0017487D02*
X0349729Y0017487D01*
X0349805Y0017525D02*
X0350759Y0017525D01*
X0350785Y0017562D02*
X0349880Y0017562D01*
X0349956Y0017600D02*
X0350810Y0017600D01*
X0350835Y0017638D02*
X0350011Y0017638D01*
X0350041Y0017676D02*
X0350860Y0017676D01*
X0350886Y0017714D02*
X0350071Y0017714D01*
X0350102Y0017752D02*
X0350906Y0017752D01*
X0350916Y0017790D02*
X0350132Y0017790D01*
X0350160Y0017828D02*
X0350926Y0017828D01*
X0350937Y0017866D02*
X0350183Y0017866D01*
X0350206Y0017903D02*
X0350947Y0017903D01*
X0350957Y0017941D02*
X0350228Y0017941D01*
X0350251Y0017979D02*
X0350968Y0017979D01*
X0350978Y0018017D02*
X0350273Y0018017D01*
X0350290Y0018055D02*
X0350988Y0018055D01*
X0350999Y0018093D02*
X0350306Y0018093D01*
X0350322Y0018131D02*
X0351009Y0018131D01*
X0351019Y0018169D02*
X0350338Y0018169D01*
X0350354Y0018206D02*
X0351020Y0018206D01*
X0351020Y0018244D02*
X0350371Y0018244D01*
X0350387Y0018282D02*
X0351020Y0018282D01*
X0351020Y0018320D02*
X0350390Y0018320D01*
X0350390Y0018358D02*
X0351020Y0018358D01*
X0351020Y0018396D02*
X0350390Y0018396D01*
X0350390Y0018434D02*
X0351020Y0018434D01*
X0351020Y0018472D02*
X0350390Y0018472D01*
X0350390Y0018509D02*
X0351020Y0018509D01*
X0351020Y0018547D02*
X0350390Y0018547D01*
X0350390Y0018585D02*
X0351020Y0018585D01*
X0351020Y0018623D02*
X0350390Y0018623D01*
X0350390Y0018661D02*
X0351020Y0018661D01*
X0351020Y0018699D02*
X0350390Y0018699D01*
X0350390Y0018737D02*
X0351020Y0018737D01*
X0351020Y0018775D02*
X0350390Y0018775D01*
X0350390Y0018813D02*
X0351020Y0018813D01*
X0351020Y0018850D02*
X0350390Y0018850D01*
X0350387Y0018888D02*
X0351020Y0018888D01*
X0351020Y0018926D02*
X0350370Y0018926D01*
X0350354Y0018964D02*
X0351020Y0018964D01*
X0351020Y0019002D02*
X0350338Y0019002D01*
X0350322Y0019040D02*
X0351019Y0019040D01*
X0351005Y0019078D02*
X0350306Y0019078D01*
X0350289Y0019116D02*
X0350991Y0019116D01*
X0350977Y0019153D02*
X0350273Y0019153D01*
X0350251Y0019191D02*
X0350962Y0019191D01*
X0350948Y0019229D02*
X0350228Y0019229D01*
X0350205Y0019267D02*
X0350934Y0019267D01*
X0350920Y0019305D02*
X0350183Y0019305D01*
X0350160Y0019343D02*
X0350906Y0019343D01*
X0350884Y0019381D02*
X0350126Y0019381D01*
X0350088Y0019419D02*
X0350861Y0019419D01*
X0350837Y0019457D02*
X0350050Y0019457D01*
X0350012Y0019494D02*
X0350813Y0019494D01*
X0350790Y0019532D02*
X0349963Y0019532D01*
X0349907Y0019570D02*
X0350766Y0019570D01*
X0350742Y0019608D02*
X0349850Y0019608D01*
X0349793Y0019646D02*
X0350719Y0019646D01*
X0350694Y0019684D02*
X0349723Y0019684D01*
X0349634Y0019722D02*
X0350669Y0019722D01*
X0350644Y0019760D02*
X0349546Y0019760D01*
X0349733Y0020328D02*
X0348621Y0020328D01*
X0348485Y0020290D02*
X0349854Y0020290D01*
X0349930Y0020252D02*
X0348409Y0020252D01*
X0348343Y0020214D02*
X0350006Y0020214D01*
X0350083Y0020176D02*
X0348344Y0020176D01*
X0348353Y0020138D02*
X0350178Y0020138D01*
X0350272Y0020101D02*
X0348363Y0020101D01*
X0348372Y0020063D02*
X0350325Y0020063D01*
X0350378Y0020025D02*
X0348382Y0020025D01*
X0348391Y0019987D02*
X0350432Y0019987D01*
X0350485Y0019949D02*
X0348401Y0019949D01*
X0348410Y0019911D02*
X0350538Y0019911D01*
X0350568Y0019873D02*
X0348419Y0019873D01*
X0348429Y0019835D02*
X0350593Y0019835D01*
X0350619Y0019797D02*
X0348438Y0019797D01*
X0348448Y0019760D02*
X0348724Y0019760D01*
X0348534Y0019722D02*
X0348457Y0019722D01*
X0348773Y0020366D02*
X0349601Y0020366D01*
X0347713Y0020366D02*
X0347083Y0020366D01*
X0347083Y0020404D02*
X0347713Y0020404D01*
X0347713Y0020441D02*
X0347083Y0020441D01*
X0347083Y0020479D02*
X0347713Y0020479D01*
X0347713Y0020517D02*
X0347083Y0020517D01*
X0347083Y0020555D02*
X0347713Y0020555D01*
X0347713Y0020593D02*
X0347083Y0020593D01*
X0347083Y0020631D02*
X0347713Y0020631D01*
X0347713Y0020669D02*
X0347083Y0020669D01*
X0347083Y0020707D02*
X0347713Y0020707D01*
X0347713Y0020745D02*
X0347083Y0020745D01*
X0347083Y0020782D02*
X0347713Y0020782D01*
X0347713Y0020820D02*
X0347083Y0020820D01*
X0347083Y0020858D02*
X0347713Y0020858D01*
X0347713Y0020896D02*
X0347083Y0020896D01*
X0347083Y0020934D02*
X0347713Y0020934D01*
X0347713Y0020972D02*
X0347083Y0020972D01*
X0347083Y0021010D02*
X0347713Y0021010D01*
X0347713Y0021048D02*
X0347083Y0021048D01*
X0347083Y0021085D02*
X0347713Y0021085D01*
X0347713Y0021123D02*
X0347083Y0021123D01*
X0347083Y0021161D02*
X0347713Y0021161D01*
X0347713Y0021199D02*
X0347083Y0021199D01*
X0347083Y0021237D02*
X0347713Y0021237D01*
X0347713Y0021275D02*
X0347083Y0021275D01*
X0347083Y0021313D02*
X0347713Y0021313D01*
X0347713Y0021351D02*
X0347083Y0021351D01*
X0347083Y0021388D02*
X0347713Y0021388D01*
X0347713Y0021426D02*
X0347083Y0021426D01*
X0347083Y0021464D02*
X0347713Y0021464D01*
X0347713Y0021502D02*
X0347083Y0021502D01*
X0347083Y0021540D02*
X0347713Y0021540D01*
X0347713Y0021578D02*
X0347083Y0021578D01*
X0347083Y0021616D02*
X0347713Y0021616D01*
X0347713Y0021654D02*
X0347083Y0021654D01*
X0347083Y0021692D02*
X0347713Y0021692D01*
X0347713Y0021729D02*
X0347083Y0021729D01*
X0347083Y0021767D02*
X0347713Y0021767D01*
X0347713Y0021805D02*
X0347083Y0021805D01*
X0347083Y0021843D02*
X0347713Y0021843D01*
X0347713Y0020328D02*
X0347083Y0020328D01*
X0347083Y0020290D02*
X0347713Y0020290D01*
X0347713Y0020252D02*
X0347083Y0020252D01*
X0347083Y0020214D02*
X0347713Y0020214D01*
X0347713Y0020176D02*
X0347083Y0020176D01*
X0347083Y0020138D02*
X0347713Y0020138D01*
X0347713Y0020101D02*
X0347083Y0020101D01*
X0347083Y0020063D02*
X0347713Y0020063D01*
X0347713Y0020025D02*
X0347083Y0020025D01*
X0347083Y0019987D02*
X0347713Y0019987D01*
X0347713Y0019949D02*
X0347083Y0019949D01*
X0347083Y0019911D02*
X0347713Y0019911D01*
X0347713Y0019873D02*
X0347083Y0019873D01*
X0345852Y0019722D02*
X0344905Y0019722D01*
X0344886Y0019684D02*
X0345777Y0019684D01*
X0345701Y0019646D02*
X0344871Y0019646D01*
X0344858Y0019608D02*
X0345652Y0019608D01*
X0345627Y0019570D02*
X0344846Y0019570D01*
X0344833Y0019532D02*
X0345602Y0019532D01*
X0345576Y0019494D02*
X0344821Y0019494D01*
X0344808Y0019457D02*
X0345551Y0019457D01*
X0345526Y0019419D02*
X0344800Y0019419D01*
X0344800Y0019381D02*
X0345503Y0019381D01*
X0345484Y0019343D02*
X0344800Y0019343D01*
X0344800Y0019305D02*
X0345465Y0019305D01*
X0345446Y0019267D02*
X0344800Y0019267D01*
X0344800Y0019229D02*
X0345430Y0019229D01*
X0345430Y0019191D02*
X0344800Y0019191D01*
X0344800Y0019153D02*
X0345430Y0019153D01*
X0345430Y0019116D02*
X0344800Y0019116D01*
X0344800Y0019078D02*
X0345430Y0019078D01*
X0345430Y0019040D02*
X0344800Y0019040D01*
X0344800Y0019002D02*
X0345430Y0019002D01*
X0345430Y0018964D02*
X0344800Y0018964D01*
X0344800Y0018926D02*
X0345430Y0018926D01*
X0345430Y0018888D02*
X0344800Y0018888D01*
X0344800Y0018850D02*
X0345430Y0018850D01*
X0345430Y0018813D02*
X0344800Y0018813D01*
X0344800Y0018775D02*
X0345430Y0018775D01*
X0345430Y0018737D02*
X0344800Y0018737D01*
X0344800Y0018699D02*
X0345430Y0018699D01*
X0345430Y0018661D02*
X0344800Y0018661D01*
X0344800Y0018623D02*
X0345430Y0018623D01*
X0345430Y0018585D02*
X0344800Y0018585D01*
X0344800Y0018547D02*
X0345430Y0018547D01*
X0345430Y0018509D02*
X0344800Y0018509D01*
X0344800Y0018472D02*
X0345430Y0018472D01*
X0345430Y0018434D02*
X0344800Y0018434D01*
X0344800Y0018396D02*
X0345430Y0018396D01*
X0345430Y0018358D02*
X0344800Y0018358D01*
X0344800Y0018320D02*
X0345430Y0018320D01*
X0345430Y0018282D02*
X0344800Y0018282D01*
X0344800Y0018244D02*
X0345430Y0018244D01*
X0345430Y0018206D02*
X0344800Y0018206D01*
X0344800Y0018169D02*
X0345430Y0018169D01*
X0345430Y0018131D02*
X0344800Y0018131D01*
X0344800Y0018093D02*
X0345430Y0018093D01*
X0345430Y0018055D02*
X0344800Y0018055D01*
X0344800Y0018017D02*
X0345430Y0018017D01*
X0345430Y0017979D02*
X0344800Y0017979D01*
X0344800Y0017941D02*
X0345430Y0017941D01*
X0345430Y0017903D02*
X0344800Y0017903D01*
X0344800Y0017866D02*
X0345430Y0017866D01*
X0345430Y0017828D02*
X0344800Y0017828D01*
X0344800Y0017790D02*
X0345430Y0017790D01*
X0345430Y0017752D02*
X0344800Y0017752D01*
X0344800Y0017714D02*
X0345430Y0017714D01*
X0345430Y0017676D02*
X0344800Y0017676D01*
X0344800Y0017638D02*
X0345430Y0017638D01*
X0345430Y0017600D02*
X0344800Y0017600D01*
X0344800Y0017562D02*
X0345430Y0017562D01*
X0345430Y0017525D02*
X0344800Y0017525D01*
X0344800Y0017487D02*
X0345430Y0017487D01*
X0345430Y0017449D02*
X0344800Y0017449D01*
X0344800Y0017411D02*
X0345430Y0017411D01*
X0345430Y0017373D02*
X0344800Y0017373D01*
X0344800Y0017335D02*
X0345430Y0017335D01*
X0345430Y0017297D02*
X0344800Y0017297D01*
X0344800Y0017259D02*
X0345430Y0017259D01*
X0345430Y0017222D02*
X0344800Y0017222D01*
X0344800Y0017184D02*
X0345430Y0017184D01*
X0345430Y0017146D02*
X0344800Y0017146D01*
X0344800Y0017108D02*
X0345430Y0017108D01*
X0345430Y0017070D02*
X0344800Y0017070D01*
X0344800Y0017032D02*
X0345430Y0017032D01*
X0345430Y0016994D02*
X0344800Y0016994D01*
X0344800Y0016956D02*
X0345430Y0016956D01*
X0345430Y0016918D02*
X0344800Y0016918D01*
X0348350Y0017032D02*
X0350225Y0017032D01*
X0350284Y0017070D02*
X0348356Y0017070D01*
X0348362Y0017108D02*
X0350344Y0017108D01*
X0350403Y0017146D02*
X0348369Y0017146D01*
X0348375Y0017184D02*
X0350463Y0017184D01*
X0350503Y0017222D02*
X0348381Y0017222D01*
X0348388Y0017259D02*
X0350541Y0017259D01*
X0350579Y0017297D02*
X0348394Y0017297D01*
X0348400Y0017335D02*
X0350617Y0017335D01*
X0349062Y0017373D02*
X0348407Y0017373D01*
X0348413Y0017411D02*
X0348761Y0017411D01*
X0348571Y0017449D02*
X0348419Y0017449D01*
X0338422Y0019229D02*
X0337004Y0019229D01*
X0337002Y0019229D02*
X0335486Y0019229D01*
X0335505Y0019267D02*
X0337004Y0019267D01*
X0338422Y0019267D01*
X0338422Y0019305D02*
X0337004Y0019305D01*
X0335508Y0019305D01*
X0335508Y0019343D02*
X0337004Y0019343D01*
X0338422Y0019343D01*
X0338422Y0019381D02*
X0337004Y0019381D01*
X0335508Y0019381D01*
X0335508Y0019419D02*
X0337004Y0019419D01*
X0338422Y0019419D01*
X0338422Y0019457D02*
X0337004Y0019457D01*
X0335508Y0019457D01*
X0335508Y0019494D02*
X0337004Y0019494D01*
X0338422Y0019494D01*
X0338422Y0019532D02*
X0337004Y0019532D01*
X0335508Y0019532D01*
X0335508Y0019570D02*
X0337004Y0019570D01*
X0338422Y0019570D01*
X0338422Y0019608D02*
X0337004Y0019608D01*
X0335496Y0019608D01*
X0335473Y0019646D02*
X0336994Y0019646D01*
X0337004Y0019646D02*
X0338422Y0019646D01*
X0338422Y0019684D02*
X0337004Y0019684D01*
X0336970Y0019684D02*
X0335449Y0019684D01*
X0335426Y0019722D02*
X0336947Y0019722D01*
X0336924Y0019760D02*
X0335402Y0019760D01*
X0335379Y0019797D02*
X0336901Y0019797D01*
X0336878Y0019835D02*
X0335356Y0019835D01*
X0335332Y0019873D02*
X0336854Y0019873D01*
X0336831Y0019911D02*
X0335309Y0019911D01*
X0335285Y0019949D02*
X0336808Y0019949D01*
X0336785Y0019987D02*
X0335262Y0019987D01*
X0335238Y0020025D02*
X0336762Y0020025D01*
X0336738Y0020063D02*
X0335215Y0020063D01*
X0335191Y0020101D02*
X0336715Y0020101D01*
X0336692Y0020138D02*
X0335168Y0020138D01*
X0335144Y0020176D02*
X0336669Y0020176D01*
X0336646Y0020214D02*
X0335121Y0020214D01*
X0335097Y0020252D02*
X0336622Y0020252D01*
X0336599Y0020290D02*
X0335074Y0020290D01*
X0335050Y0020328D02*
X0336576Y0020328D01*
X0336553Y0020366D02*
X0335027Y0020366D01*
X0335003Y0020404D02*
X0336530Y0020404D01*
X0336507Y0020441D02*
X0334980Y0020441D01*
X0334956Y0020479D02*
X0336483Y0020479D01*
X0336460Y0020517D02*
X0334933Y0020517D01*
X0334909Y0020555D02*
X0336437Y0020555D01*
X0336414Y0020593D02*
X0334886Y0020593D01*
X0334862Y0020631D02*
X0336391Y0020631D01*
X0336367Y0020669D02*
X0334839Y0020669D01*
X0334815Y0020707D02*
X0336344Y0020707D01*
X0336321Y0020745D02*
X0334792Y0020745D01*
X0334768Y0020782D02*
X0336298Y0020782D01*
X0336275Y0020820D02*
X0334745Y0020820D01*
X0334721Y0020858D02*
X0336251Y0020858D01*
X0336228Y0020896D02*
X0334698Y0020896D01*
X0334674Y0020934D02*
X0336205Y0020934D01*
X0336182Y0020972D02*
X0334651Y0020972D01*
X0334627Y0021010D02*
X0336159Y0021010D01*
X0336135Y0021048D02*
X0334604Y0021048D01*
X0334580Y0021085D02*
X0336112Y0021085D01*
X0336089Y0021123D02*
X0334557Y0021123D01*
X0334534Y0021161D02*
X0336066Y0021161D01*
X0336043Y0021199D02*
X0334510Y0021199D01*
X0334487Y0021237D02*
X0336019Y0021237D01*
X0335996Y0021275D02*
X0334463Y0021275D01*
X0334440Y0021313D02*
X0335973Y0021313D01*
X0335950Y0021351D02*
X0334416Y0021351D01*
X0334393Y0021388D02*
X0335927Y0021388D01*
X0335903Y0021426D02*
X0334369Y0021426D01*
X0334346Y0021464D02*
X0335880Y0021464D01*
X0335857Y0021502D02*
X0334322Y0021502D01*
X0334299Y0021540D02*
X0335834Y0021540D01*
X0337004Y0021540D02*
X0338422Y0021540D01*
X0338422Y0021502D02*
X0337004Y0021502D01*
X0337004Y0021464D02*
X0338422Y0021464D01*
X0338422Y0021426D02*
X0337004Y0021426D01*
X0337004Y0021388D02*
X0338422Y0021388D01*
X0338422Y0021351D02*
X0337004Y0021351D01*
X0337004Y0021313D02*
X0338422Y0021313D01*
X0338422Y0021275D02*
X0337004Y0021275D01*
X0337004Y0021237D02*
X0338422Y0021237D01*
X0338422Y0021199D02*
X0337004Y0021199D01*
X0337004Y0021161D02*
X0338422Y0021161D01*
X0338422Y0021123D02*
X0337004Y0021123D01*
X0337004Y0021085D02*
X0338422Y0021085D01*
X0338422Y0021048D02*
X0337004Y0021048D01*
X0337004Y0021010D02*
X0338422Y0021010D01*
X0338422Y0020972D02*
X0337004Y0020972D01*
X0337004Y0020934D02*
X0338422Y0020934D01*
X0338422Y0020896D02*
X0337004Y0020896D01*
X0337004Y0020858D02*
X0338422Y0020858D01*
X0338422Y0020820D02*
X0337004Y0020820D01*
X0337004Y0020782D02*
X0338422Y0020782D01*
X0338422Y0020745D02*
X0337004Y0020745D01*
X0337004Y0020707D02*
X0338422Y0020707D01*
X0338422Y0020669D02*
X0337004Y0020669D01*
X0337004Y0020631D02*
X0338422Y0020631D01*
X0338422Y0020593D02*
X0337004Y0020593D01*
X0337004Y0020555D02*
X0338422Y0020555D01*
X0338422Y0020517D02*
X0337004Y0020517D01*
X0337004Y0020479D02*
X0338422Y0020479D01*
X0338422Y0020441D02*
X0337004Y0020441D01*
X0337004Y0020404D02*
X0338422Y0020404D01*
X0338422Y0020366D02*
X0337004Y0020366D01*
X0337004Y0020328D02*
X0338422Y0020328D01*
X0338422Y0020290D02*
X0337004Y0020290D01*
X0337004Y0020252D02*
X0338422Y0020252D01*
X0338422Y0020214D02*
X0337004Y0020214D01*
X0337004Y0020176D02*
X0338422Y0020176D01*
X0338422Y0020138D02*
X0337004Y0020138D01*
X0337004Y0020101D02*
X0338422Y0020101D01*
X0338422Y0020063D02*
X0337004Y0020063D01*
X0337004Y0020025D02*
X0338422Y0020025D01*
X0338422Y0019987D02*
X0337004Y0019987D01*
X0337004Y0019949D02*
X0338422Y0019949D01*
X0338422Y0019911D02*
X0337004Y0019911D01*
X0337004Y0019873D02*
X0338422Y0019873D01*
X0338422Y0019835D02*
X0337004Y0019835D01*
X0337004Y0019797D02*
X0338422Y0019797D01*
X0338422Y0019760D02*
X0337004Y0019760D01*
X0337004Y0019722D02*
X0338422Y0019722D01*
X0333855Y0020290D02*
X0332437Y0020290D01*
X0332437Y0020328D02*
X0333855Y0020328D01*
X0333855Y0020366D02*
X0332437Y0020366D01*
X0332437Y0020404D02*
X0333855Y0020404D01*
X0333855Y0020441D02*
X0332437Y0020441D01*
X0332437Y0020479D02*
X0333855Y0020479D01*
X0333855Y0020517D02*
X0332437Y0020517D01*
X0332437Y0020555D02*
X0333855Y0020555D01*
X0333855Y0020593D02*
X0332437Y0020593D01*
X0332437Y0020631D02*
X0333855Y0020631D01*
X0333855Y0020669D02*
X0332437Y0020669D01*
X0332437Y0020707D02*
X0333855Y0020707D01*
X0333855Y0020745D02*
X0332437Y0020745D01*
X0332437Y0020782D02*
X0333855Y0020782D01*
X0333855Y0020820D02*
X0332437Y0020820D01*
X0332437Y0020858D02*
X0333855Y0020858D01*
X0333855Y0020896D02*
X0332437Y0020896D01*
X0332437Y0020934D02*
X0333855Y0020934D01*
X0333855Y0020972D02*
X0332437Y0020972D01*
X0332437Y0021010D02*
X0333855Y0021010D01*
X0333855Y0021048D02*
X0332437Y0021048D01*
X0332437Y0021085D02*
X0333855Y0021085D01*
X0333855Y0021123D02*
X0332437Y0021123D01*
X0332437Y0021161D02*
X0333855Y0021161D01*
X0333855Y0021199D02*
X0332437Y0021199D01*
X0332437Y0021237D02*
X0333855Y0021237D01*
X0333855Y0021275D02*
X0332437Y0021275D01*
X0332437Y0021313D02*
X0333855Y0021313D01*
X0333855Y0021351D02*
X0332437Y0021351D01*
X0332437Y0021388D02*
X0333855Y0021388D01*
X0333855Y0021426D02*
X0332437Y0021426D01*
X0332437Y0021464D02*
X0333855Y0021464D01*
X0333855Y0021502D02*
X0332437Y0021502D01*
X0332437Y0021540D02*
X0333855Y0021540D01*
X0330941Y0020214D02*
X0329445Y0020214D01*
X0329445Y0020176D02*
X0330941Y0020176D01*
X0330941Y0020138D02*
X0329445Y0020138D01*
X0329445Y0020101D02*
X0330941Y0020101D01*
X0330941Y0020063D02*
X0329445Y0020063D01*
X0329445Y0020025D02*
X0330941Y0020025D01*
X0330941Y0019987D02*
X0329445Y0019987D01*
X0329445Y0019949D02*
X0330941Y0019949D01*
X0330941Y0019911D02*
X0329445Y0019911D01*
X0329445Y0019873D02*
X0330941Y0019873D01*
X0330941Y0019835D02*
X0329445Y0019835D01*
X0329445Y0019797D02*
X0330941Y0019797D01*
X0330941Y0019760D02*
X0329445Y0019760D01*
X0329445Y0019722D02*
X0330941Y0019722D01*
X0330941Y0019684D02*
X0329445Y0019684D01*
X0329445Y0019646D02*
X0330941Y0019646D01*
X0330941Y0019608D02*
X0329445Y0019608D01*
X0329445Y0019570D02*
X0330941Y0019570D01*
X0330941Y0019532D02*
X0329445Y0019532D01*
X0329445Y0019494D02*
X0330941Y0019494D01*
X0330941Y0019457D02*
X0329445Y0019457D01*
X0329445Y0019419D02*
X0330941Y0019419D01*
X0330941Y0019381D02*
X0329445Y0019381D01*
X0329445Y0019343D02*
X0330941Y0019343D01*
X0330941Y0019305D02*
X0329445Y0019305D01*
X0329445Y0019267D02*
X0330941Y0019267D01*
X0330941Y0019229D02*
X0329445Y0019229D01*
X0329445Y0019191D02*
X0330941Y0019191D01*
X0330941Y0019153D02*
X0329445Y0019153D01*
X0329445Y0019116D02*
X0330941Y0019116D01*
X0330941Y0019078D02*
X0329445Y0019078D01*
X0329445Y0019040D02*
X0330941Y0019040D01*
X0330941Y0019002D02*
X0329445Y0019002D01*
X0329445Y0018964D02*
X0330941Y0018964D01*
X0330941Y0018926D02*
X0329445Y0018926D01*
X0329445Y0018888D02*
X0330941Y0018888D01*
X0330941Y0018850D02*
X0329445Y0018850D01*
X0329445Y0018813D02*
X0330941Y0018813D01*
X0330941Y0018775D02*
X0329445Y0018775D01*
X0329445Y0018737D02*
X0330941Y0018737D01*
X0330941Y0018699D02*
X0329445Y0018699D01*
X0329445Y0018661D02*
X0330941Y0018661D01*
X0330941Y0018623D02*
X0329445Y0018623D01*
X0329445Y0018585D02*
X0330941Y0018585D01*
X0330941Y0018547D02*
X0329445Y0018547D01*
X0329445Y0018509D02*
X0330941Y0018509D01*
X0330941Y0018472D02*
X0329445Y0018472D01*
X0329445Y0018434D02*
X0330941Y0018434D01*
X0330941Y0018396D02*
X0329445Y0018396D01*
X0329445Y0018358D02*
X0330941Y0018358D01*
X0330941Y0018320D02*
X0329445Y0018320D01*
X0329445Y0018282D02*
X0330941Y0018282D01*
X0330941Y0018244D02*
X0329445Y0018244D01*
X0329445Y0018206D02*
X0330941Y0018206D01*
X0330941Y0018169D02*
X0329445Y0018169D01*
X0329445Y0018131D02*
X0330941Y0018131D01*
X0330941Y0018093D02*
X0329445Y0018093D01*
X0329445Y0018055D02*
X0330941Y0018055D01*
X0330941Y0018017D02*
X0329445Y0018017D01*
X0329445Y0017979D02*
X0330941Y0017979D01*
X0330941Y0017941D02*
X0329445Y0017941D01*
X0329445Y0017903D02*
X0330941Y0017903D01*
X0330941Y0017866D02*
X0329445Y0017866D01*
X0329445Y0017828D02*
X0330941Y0017828D01*
X0330941Y0017790D02*
X0329445Y0017790D01*
X0329445Y0017752D02*
X0330941Y0017752D01*
X0330941Y0017714D02*
X0329445Y0017714D01*
X0329445Y0017676D02*
X0330941Y0017676D01*
X0330941Y0017638D02*
X0329445Y0017638D01*
X0329445Y0017600D02*
X0330941Y0017600D01*
X0330941Y0017562D02*
X0329445Y0017562D01*
X0329445Y0017525D02*
X0330941Y0017525D01*
X0330941Y0017487D02*
X0329445Y0017487D01*
X0329445Y0017449D02*
X0330941Y0017449D01*
X0330941Y0017411D02*
X0329445Y0017411D01*
X0329445Y0017373D02*
X0330941Y0017373D01*
X0330941Y0017335D02*
X0329445Y0017335D01*
X0329445Y0017297D02*
X0330941Y0017297D01*
X0330941Y0017259D02*
X0329445Y0017259D01*
X0329445Y0017222D02*
X0330941Y0017222D01*
X0330941Y0017184D02*
X0329445Y0017184D01*
X0329445Y0017146D02*
X0330941Y0017146D01*
X0330941Y0017108D02*
X0329445Y0017108D01*
X0329445Y0017070D02*
X0330941Y0017070D01*
X0330941Y0017032D02*
X0329445Y0017032D01*
X0329445Y0016994D02*
X0330941Y0016994D01*
X0330941Y0016956D02*
X0329445Y0016956D01*
X0329445Y0016918D02*
X0330941Y0016918D01*
X0330941Y0016881D02*
X0329445Y0016881D01*
X0329445Y0016843D02*
X0330941Y0016843D01*
D18*
X0327561Y0020929D02*
X0327561Y0021911D01*
X0327234Y0021911D02*
X0327889Y0021911D01*
X0326801Y0021911D02*
X0326474Y0021584D01*
X0326146Y0021911D01*
X0326146Y0020929D01*
X0326801Y0020929D02*
X0326801Y0021911D01*
M02*
