G75*
%MOIN*%
%OFA0B0*%
%FSLAX25Y25*%
%IPPOS*%
%LPD*%
%AMOC8*
5,1,8,0,0,1.08239X$1,22.5*
%
%ADD10R,0.04331X0.03937*%
%ADD11R,0.03937X0.04331*%
%ADD12R,0.03150X0.03150*%
%ADD13R,0.04724X0.03150*%
%ADD14R,0.05512X0.03150*%
%ADD15R,0.08661X0.07087*%
%ADD16R,0.03150X0.01378*%
%ADD17R,0.04200X0.01000*%
%ADD18R,0.02559X0.08661*%
%ADD19R,0.02756X0.05906*%
%ADD20R,0.05906X0.02756*%
%ADD21R,0.05709X0.01575*%
%ADD22R,0.05906X0.07087*%
%ADD23R,0.03937X0.03150*%
%ADD24R,0.01969X0.03740*%
%ADD25R,0.03150X0.04724*%
%ADD26R,0.03543X0.03937*%
D10*
X0133579Y0030600D03*
X0140272Y0030600D03*
X0140272Y0036000D03*
X0133579Y0036000D03*
X0133779Y0041200D03*
X0140472Y0041200D03*
X0153979Y0060400D03*
X0160672Y0060400D03*
X0177979Y0065600D03*
X0184672Y0065600D03*
X0243979Y0047400D03*
X0250672Y0047400D03*
X0242872Y0031800D03*
X0236179Y0031800D03*
X0051472Y0069200D03*
X0044779Y0069200D03*
X0028272Y0074000D03*
X0021579Y0074000D03*
D11*
X0049726Y0021054D03*
X0055126Y0021054D03*
X0055126Y0027746D03*
X0049726Y0027746D03*
X0169526Y0050454D03*
X0169526Y0057146D03*
X0197891Y0035630D03*
X0197891Y0028937D03*
X0245526Y0053054D03*
X0245526Y0059746D03*
X0263126Y0045946D03*
X0268526Y0045946D03*
X0280326Y0045946D03*
X0280326Y0039254D03*
X0268526Y0039254D03*
X0263126Y0039254D03*
D12*
X0263278Y0034000D03*
X0257373Y0034000D03*
X0250926Y0060047D03*
X0250926Y0065953D03*
X0039478Y0074000D03*
X0033573Y0074000D03*
D13*
X0248326Y0039543D03*
X0257326Y0038857D03*
X0248326Y0032457D03*
X0257326Y0045943D03*
D14*
X0261730Y0052894D03*
X0261730Y0058800D03*
X0261730Y0064706D03*
D15*
X0273856Y0058800D03*
D16*
G36*
X0238709Y0050314D02*
X0236483Y0048088D01*
X0235509Y0049062D01*
X0237735Y0051288D01*
X0238709Y0050314D01*
G37*
G36*
X0236899Y0052123D02*
X0234673Y0049897D01*
X0233699Y0050871D01*
X0235925Y0053097D01*
X0236899Y0052123D01*
G37*
G36*
X0235090Y0053933D02*
X0232864Y0051707D01*
X0231890Y0052681D01*
X0234116Y0054907D01*
X0235090Y0053933D01*
G37*
G36*
X0233280Y0055742D02*
X0231054Y0053516D01*
X0230080Y0054490D01*
X0232306Y0056716D01*
X0233280Y0055742D01*
G37*
G36*
X0231471Y0057552D02*
X0229245Y0055326D01*
X0228271Y0056300D01*
X0230497Y0058526D01*
X0231471Y0057552D01*
G37*
G36*
X0229661Y0059362D02*
X0227435Y0057136D01*
X0226461Y0058110D01*
X0228687Y0060336D01*
X0229661Y0059362D01*
G37*
G36*
X0224652Y0059919D02*
X0226878Y0062145D01*
X0227852Y0061171D01*
X0225626Y0058945D01*
X0224652Y0059919D01*
G37*
G36*
X0222842Y0061729D02*
X0225068Y0063955D01*
X0226042Y0062981D01*
X0223816Y0060755D01*
X0222842Y0061729D01*
G37*
G36*
X0221033Y0063538D02*
X0223259Y0065764D01*
X0224233Y0064790D01*
X0222007Y0062564D01*
X0221033Y0063538D01*
G37*
G36*
X0219223Y0065348D02*
X0221449Y0067574D01*
X0222423Y0066600D01*
X0220197Y0064374D01*
X0219223Y0065348D01*
G37*
G36*
X0217413Y0067157D02*
X0219639Y0069383D01*
X0220613Y0068409D01*
X0218387Y0066183D01*
X0217413Y0067157D01*
G37*
G36*
X0214212Y0069383D02*
X0216438Y0067157D01*
X0215464Y0066183D01*
X0213238Y0068409D01*
X0214212Y0069383D01*
G37*
G36*
X0212402Y0067574D02*
X0214628Y0065348D01*
X0213654Y0064374D01*
X0211428Y0066600D01*
X0212402Y0067574D01*
G37*
G36*
X0210593Y0065764D02*
X0212819Y0063538D01*
X0211845Y0062564D01*
X0209619Y0064790D01*
X0210593Y0065764D01*
G37*
G36*
X0208783Y0063955D02*
X0211009Y0061729D01*
X0210035Y0060755D01*
X0207809Y0062981D01*
X0208783Y0063955D01*
G37*
G36*
X0206974Y0062145D02*
X0209200Y0059919D01*
X0208226Y0058945D01*
X0206000Y0061171D01*
X0206974Y0062145D01*
G37*
G36*
X0205164Y0060336D02*
X0207390Y0058110D01*
X0206416Y0057136D01*
X0204190Y0059362D01*
X0205164Y0060336D01*
G37*
G36*
X0204607Y0055326D02*
X0202381Y0057552D01*
X0203355Y0058526D01*
X0205581Y0056300D01*
X0204607Y0055326D01*
G37*
G36*
X0202797Y0053516D02*
X0200571Y0055742D01*
X0201545Y0056716D01*
X0203771Y0054490D01*
X0202797Y0053516D01*
G37*
G36*
X0200987Y0051707D02*
X0198761Y0053933D01*
X0199735Y0054907D01*
X0201961Y0052681D01*
X0200987Y0051707D01*
G37*
G36*
X0199178Y0049897D02*
X0196952Y0052123D01*
X0197926Y0053097D01*
X0200152Y0050871D01*
X0199178Y0049897D01*
G37*
G36*
X0197368Y0048088D02*
X0195142Y0050314D01*
X0196116Y0051288D01*
X0198342Y0049062D01*
X0197368Y0048088D01*
G37*
G36*
X0195142Y0044886D02*
X0197368Y0047112D01*
X0198342Y0046138D01*
X0196116Y0043912D01*
X0195142Y0044886D01*
G37*
G36*
X0196952Y0043077D02*
X0199178Y0045303D01*
X0200152Y0044329D01*
X0197926Y0042103D01*
X0196952Y0043077D01*
G37*
G36*
X0198761Y0041267D02*
X0200987Y0043493D01*
X0201961Y0042519D01*
X0199735Y0040293D01*
X0198761Y0041267D01*
G37*
G36*
X0200571Y0039458D02*
X0202797Y0041684D01*
X0203771Y0040710D01*
X0201545Y0038484D01*
X0200571Y0039458D01*
G37*
G36*
X0202381Y0037648D02*
X0204607Y0039874D01*
X0205581Y0038900D01*
X0203355Y0036674D01*
X0202381Y0037648D01*
G37*
G36*
X0204190Y0035838D02*
X0206416Y0038064D01*
X0207390Y0037090D01*
X0205164Y0034864D01*
X0204190Y0035838D01*
G37*
G36*
X0209200Y0035281D02*
X0206974Y0033055D01*
X0206000Y0034029D01*
X0208226Y0036255D01*
X0209200Y0035281D01*
G37*
G36*
X0211009Y0033471D02*
X0208783Y0031245D01*
X0207809Y0032219D01*
X0210035Y0034445D01*
X0211009Y0033471D01*
G37*
G36*
X0212819Y0031662D02*
X0210593Y0029436D01*
X0209619Y0030410D01*
X0211845Y0032636D01*
X0212819Y0031662D01*
G37*
G36*
X0214628Y0029852D02*
X0212402Y0027626D01*
X0211428Y0028600D01*
X0213654Y0030826D01*
X0214628Y0029852D01*
G37*
G36*
X0216438Y0028043D02*
X0214212Y0025817D01*
X0213238Y0026791D01*
X0215464Y0029017D01*
X0216438Y0028043D01*
G37*
G36*
X0219639Y0025817D02*
X0217413Y0028043D01*
X0218387Y0029017D01*
X0220613Y0026791D01*
X0219639Y0025817D01*
G37*
G36*
X0221449Y0027626D02*
X0219223Y0029852D01*
X0220197Y0030826D01*
X0222423Y0028600D01*
X0221449Y0027626D01*
G37*
G36*
X0223259Y0029436D02*
X0221033Y0031662D01*
X0222007Y0032636D01*
X0224233Y0030410D01*
X0223259Y0029436D01*
G37*
G36*
X0225068Y0031245D02*
X0222842Y0033471D01*
X0223816Y0034445D01*
X0226042Y0032219D01*
X0225068Y0031245D01*
G37*
G36*
X0226878Y0033055D02*
X0224652Y0035281D01*
X0225626Y0036255D01*
X0227852Y0034029D01*
X0226878Y0033055D01*
G37*
G36*
X0228687Y0034864D02*
X0226461Y0037090D01*
X0227435Y0038064D01*
X0229661Y0035838D01*
X0228687Y0034864D01*
G37*
G36*
X0229245Y0039874D02*
X0231471Y0037648D01*
X0230497Y0036674D01*
X0228271Y0038900D01*
X0229245Y0039874D01*
G37*
G36*
X0231054Y0041684D02*
X0233280Y0039458D01*
X0232306Y0038484D01*
X0230080Y0040710D01*
X0231054Y0041684D01*
G37*
G36*
X0232864Y0043493D02*
X0235090Y0041267D01*
X0234116Y0040293D01*
X0231890Y0042519D01*
X0232864Y0043493D01*
G37*
G36*
X0234673Y0045303D02*
X0236899Y0043077D01*
X0235925Y0042103D01*
X0233699Y0044329D01*
X0234673Y0045303D01*
G37*
G36*
X0236483Y0047112D02*
X0238709Y0044886D01*
X0237735Y0043912D01*
X0235509Y0046138D01*
X0236483Y0047112D01*
G37*
D17*
X0160326Y0036400D03*
X0160326Y0034400D03*
X0160326Y0032400D03*
X0160326Y0030400D03*
X0149126Y0030400D03*
X0149126Y0032400D03*
X0149126Y0034400D03*
X0149126Y0036400D03*
D18*
X0321313Y0031713D03*
X0321313Y0046280D03*
D19*
X0348926Y0034000D03*
X0039045Y0030984D03*
X0034321Y0030984D03*
X0029596Y0030984D03*
X0024872Y0030984D03*
X0020148Y0030984D03*
X0020148Y0064449D03*
X0024872Y0064449D03*
X0029596Y0064449D03*
X0034321Y0064449D03*
X0039045Y0064449D03*
D20*
X0045541Y0059528D03*
X0045541Y0054803D03*
X0045541Y0050079D03*
X0045541Y0045354D03*
X0045541Y0040630D03*
X0045541Y0035906D03*
D21*
X0338197Y0036559D03*
X0338197Y0039118D03*
X0338197Y0034000D03*
X0338197Y0031441D03*
X0338197Y0028882D03*
D22*
X0348926Y0019496D03*
X0348926Y0048504D03*
D23*
X0184012Y0037731D03*
X0169839Y0037731D03*
X0169839Y0029069D03*
X0184012Y0029069D03*
X0148012Y0052069D03*
X0133839Y0052069D03*
X0133839Y0060731D03*
X0148012Y0060731D03*
D24*
X0154926Y0050131D03*
X0157485Y0041469D03*
X0152367Y0041469D03*
D25*
X0051869Y0075200D03*
X0044782Y0075200D03*
D26*
X0176992Y0057740D03*
X0185259Y0057740D03*
X0185259Y0050260D03*
X0176992Y0050260D03*
M02*
