%
M48
M72
T01C0.0120
T02C0.0276
T03C0.0335
T04C0.0354
T05C0.0400
T06C0.0472
T07C0.1250
%
T01
X2493Y2500
X2493Y3660
X5253Y4060
X6093Y3580
X7013Y3720
X8693Y2760
X9113Y2760
X10953Y2940
X14513Y4060
X14953Y4140
X16513Y3540
X17113Y3340
X17633Y3300
X19233Y3300
X20813Y2800
X21413Y3760
X20973Y3900
X21633Y4260
X20973Y4400
X20693Y4740
X20073Y4780
X20413Y5000
X20713Y5360
X21053Y5620
X21413Y5820
X22293Y5720
X22593Y5440
X22893Y5100
X22233Y4900
X23153Y4720
X23953Y4760
X25053Y4360
X24153Y4040
X24273Y3660
X25313Y3420
X26853Y3420
X27333Y3600
X27333Y3940
X27433Y4520
X28693Y4380
X28713Y3720
X29453Y3620
X28293Y3260
X32933Y3280
X33293Y3440
X33233Y3820
X33133Y4440
X27913Y5100
X27333Y5100
X25633Y5120
X25113Y5200
X25593Y6320
X24653Y6480
X24233Y6640
X23753Y6640
X22913Y6460
X19833Y6320
X19253Y5820
X19713Y5560
X19273Y5140
X18953Y4800
X18093Y4640
X19153Y4100
X19513Y4100
X22473Y4000
X16353Y4960
X14933Y4760
X14133Y5380
X16056Y6460
X16453Y6820
X5653Y6920
X5633Y7520
X3413Y7000
X4493Y6400
X3433Y5860
X5413Y5480
X2013Y6960
X27333Y6660
X28193Y6460
T02
X33193Y2760
T03
X34026Y2652
X34026Y4148
T04
X32513Y5580
T05
X33713Y6440
X33713Y7440
X31693Y7760
X30693Y7760
X29693Y7760
X28693Y7760
X27693Y7760
X26693Y7760
X25693Y7760
X24693Y7760
X23693Y7760
X22693Y7760
X21693Y7760
X20693Y7760
X19693Y7760
X18693Y7760
X17693Y7760
X16693Y7760
X15693Y7760
X14693Y7760
X13693Y7760
X12693Y7760
X11693Y6260
X11693Y5260
X11693Y4260
X11693Y3260
X11693Y1760
X12693Y1760
X13693Y1760
X14693Y1760
X15693Y1760
X16693Y1760
X17693Y1760
X18693Y1760
X19693Y1760
X20693Y1760
X21693Y1760
X22693Y1760
X23693Y1760
X24693Y1760
X25693Y1760
X26693Y1760
X27693Y1760
X28693Y1760
X29693Y1760
X30693Y1760
X31693Y1760
X10693Y1760
X9693Y1760
X8693Y1760
X7693Y1760
T06
X7793Y2946
X7793Y4324
X7793Y5702
X7793Y7080
T07
X10193Y4760
X29663Y4760
M30
