G75*
%MOIN*%
%OFA0B0*%
%FSLAX25Y25*%
%IPPOS*%
%LPD*%
%AMOC8*
5,1,8,0,0,1.08239X$1,22.5*
%
%ADD10C,0.12900*%
%ADD11R,0.14000X0.06600*%
%ADD12R,0.13200X0.05200*%
%ADD13C,0.07800*%
%ADD14R,0.08400X0.08400*%
%ADD15C,0.08400*%
%ADD16R,0.07800X0.07800*%
%ADD17C,0.03746*%
%ADD18R,0.06400X0.06400*%
D10*
X0101926Y0047600D03*
X0296626Y0047600D03*
D11*
X0348926Y0074300D03*
D12*
X0349326Y0064400D03*
D13*
X0076926Y0017600D03*
X0086926Y0017600D03*
X0096926Y0017600D03*
X0106926Y0017600D03*
X0116926Y0017600D03*
X0126926Y0017600D03*
X0136926Y0017600D03*
X0146926Y0017600D03*
X0156926Y0017600D03*
X0166926Y0017600D03*
X0176926Y0017600D03*
X0186926Y0017600D03*
X0196926Y0017600D03*
X0206926Y0017600D03*
X0216926Y0017600D03*
X0226926Y0017600D03*
X0236926Y0017600D03*
X0246926Y0017600D03*
X0256926Y0017600D03*
X0266926Y0017600D03*
X0276926Y0017600D03*
X0286926Y0017600D03*
X0296926Y0017600D03*
X0306926Y0017600D03*
X0316926Y0017600D03*
X0316926Y0077600D03*
X0306926Y0077600D03*
X0296926Y0077600D03*
X0286926Y0077600D03*
X0276926Y0077600D03*
X0266926Y0077600D03*
X0256926Y0077600D03*
X0246926Y0077600D03*
X0236926Y0077600D03*
X0226926Y0077600D03*
X0216926Y0077600D03*
X0206926Y0077600D03*
X0196926Y0077600D03*
X0186926Y0077600D03*
X0176926Y0077600D03*
X0166926Y0077600D03*
X0156926Y0077600D03*
X0146926Y0077600D03*
X0136926Y0077600D03*
X0126926Y0077600D03*
X0116926Y0052600D03*
X0116926Y0042600D03*
X0116926Y0032600D03*
D14*
X0077926Y0070800D03*
D15*
X0077926Y0057020D03*
X0077926Y0043241D03*
X0077926Y0029461D03*
D16*
X0116926Y0062600D03*
D17*
X0340264Y0041480D03*
X0340264Y0026520D03*
D18*
X0337126Y0064400D03*
X0337126Y0074400D03*
M02*
