G75*
%MOIN*%
%OFA0B0*%
%FSLAX25Y25*%
%IPPOS*%
%LPD*%
%AMOC8*
5,1,8,0,0,1.08239X$1,22.5*
%
%ADD10C,0.01000*%
%ADD11C,0.00700*%
%ADD12C,0.00600*%
%ADD13C,0.02200*%
%ADD14R,0.03000X0.01800*%
%ADD15C,0.00800*%
%ADD16C,0.00500*%
%ADD17R,0.01800X0.03000*%
%ADD18C,0.00300*%
%ADD19C,0.01500*%
%ADD20R,0.01500X0.03000*%
%ADD21C,0.01200*%
%ADD22C,0.00591*%
D10*
X0071926Y0012600D02*
X0081926Y0012600D01*
X0121926Y0012600D01*
X0121926Y0022600D01*
X0081926Y0022600D01*
X0081926Y0012600D01*
X0071926Y0012600D02*
X0071926Y0022600D01*
X0081926Y0022600D01*
X0312126Y0072600D02*
X0321526Y0072600D01*
X0321526Y0082200D01*
X0312126Y0082200D01*
X0312126Y0072600D01*
X0351626Y0074202D02*
X0354695Y0074202D01*
X0352960Y0065537D02*
X0352960Y0062467D01*
X0351426Y0064002D02*
X0354495Y0064002D01*
D11*
X0018748Y0017931D02*
X0018748Y0014629D01*
X0018748Y0015730D02*
X0020400Y0015730D01*
X0020950Y0016280D01*
X0020950Y0017381D01*
X0020400Y0017931D01*
X0018748Y0017931D01*
X0022432Y0017381D02*
X0022432Y0015179D01*
X0022982Y0014629D01*
X0024083Y0014629D01*
X0024633Y0015179D01*
X0024633Y0016280D01*
X0023532Y0016280D01*
X0022432Y0017381D02*
X0022982Y0017931D01*
X0024083Y0017931D01*
X0024633Y0017381D01*
X0026115Y0017931D02*
X0027766Y0017931D01*
X0028317Y0017381D01*
X0028317Y0016831D01*
X0027766Y0016280D01*
X0026115Y0016280D01*
X0027766Y0016280D02*
X0028317Y0015730D01*
X0028317Y0015179D01*
X0027766Y0014629D01*
X0026115Y0014629D01*
X0026115Y0017931D01*
X0020950Y0014629D02*
X0019849Y0015730D01*
X0033481Y0015179D02*
X0034031Y0014629D01*
X0035132Y0014629D01*
X0035683Y0015179D01*
X0035683Y0015730D01*
X0035132Y0016280D01*
X0034031Y0016280D01*
X0033481Y0016831D01*
X0033481Y0017381D01*
X0034031Y0017931D01*
X0035132Y0017931D01*
X0035683Y0017381D01*
X0037164Y0016831D02*
X0038265Y0016831D01*
X0037715Y0017381D02*
X0037715Y0015179D01*
X0038265Y0014629D01*
X0039620Y0015179D02*
X0040170Y0014629D01*
X0041821Y0014629D01*
X0041821Y0016280D01*
X0041271Y0016831D01*
X0040170Y0016831D01*
X0040170Y0015730D02*
X0041821Y0015730D01*
X0040170Y0015730D02*
X0039620Y0015179D01*
X0043303Y0016831D02*
X0044404Y0016831D01*
X0043853Y0017381D02*
X0043853Y0015179D01*
X0044404Y0014629D01*
X0045758Y0014629D02*
X0046859Y0014629D01*
X0046309Y0014629D02*
X0046309Y0016831D01*
X0045758Y0016831D01*
X0046309Y0017931D02*
X0046309Y0018482D01*
X0048214Y0016280D02*
X0048214Y0015179D01*
X0048764Y0014629D01*
X0049865Y0014629D01*
X0050415Y0015179D01*
X0050415Y0016280D01*
X0049865Y0016831D01*
X0048764Y0016831D01*
X0048214Y0016280D01*
X0051897Y0016831D02*
X0053548Y0016831D01*
X0054099Y0016280D01*
X0054099Y0014629D01*
X0051897Y0014629D02*
X0051897Y0016831D01*
X0057676Y0016718D02*
X0058777Y0014516D01*
X0059877Y0016718D01*
X0061359Y0016718D02*
X0062460Y0017819D01*
X0062460Y0014516D01*
X0061359Y0014516D02*
X0063561Y0014516D01*
X0065042Y0014516D02*
X0065592Y0014516D01*
X0065592Y0015066D01*
X0065042Y0015066D01*
X0065042Y0014516D01*
X0066883Y0015066D02*
X0069085Y0017268D01*
X0069085Y0015066D01*
X0068535Y0014516D01*
X0067434Y0014516D01*
X0066883Y0015066D01*
X0066883Y0017268D01*
X0067434Y0017819D01*
X0068535Y0017819D01*
X0069085Y0017268D01*
X0061778Y0026565D02*
X0059577Y0026565D01*
X0058476Y0027666D01*
X0059577Y0028767D01*
X0061778Y0028767D01*
X0061778Y0030248D02*
X0061778Y0032450D01*
X0060127Y0032450D01*
X0060677Y0031349D01*
X0060677Y0030799D01*
X0060127Y0030248D01*
X0059026Y0030248D01*
X0058476Y0030799D01*
X0058476Y0031900D01*
X0059026Y0032450D01*
X0057476Y0038882D02*
X0059127Y0040533D01*
X0058577Y0041084D02*
X0060778Y0038882D01*
X0060778Y0041084D02*
X0057476Y0041084D01*
X0057476Y0042565D02*
X0057476Y0044767D01*
X0060778Y0044767D01*
X0060228Y0046248D02*
X0060778Y0046799D01*
X0060778Y0047900D01*
X0060228Y0048450D01*
X0058026Y0048450D01*
X0057476Y0047900D01*
X0057476Y0046799D01*
X0058026Y0046248D01*
X0060778Y0052282D02*
X0060778Y0054484D01*
X0060778Y0053383D02*
X0057476Y0053383D01*
X0057476Y0055965D02*
X0059677Y0055965D01*
X0060778Y0057066D01*
X0059677Y0058167D01*
X0057476Y0058167D01*
X0058026Y0059648D02*
X0060228Y0059648D01*
X0060778Y0060199D01*
X0060778Y0061850D01*
X0057476Y0061850D01*
X0057476Y0060199D01*
X0058026Y0059648D01*
X0059127Y0058167D02*
X0059127Y0055965D01*
X0058026Y0065682D02*
X0060228Y0065682D01*
X0060778Y0066232D01*
X0060778Y0067884D01*
X0057476Y0067884D01*
X0057476Y0066232D01*
X0058026Y0065682D01*
X0057476Y0069365D02*
X0060778Y0069365D01*
X0060778Y0071567D02*
X0057476Y0071567D01*
X0057476Y0069365D02*
X0060778Y0071567D01*
X0060228Y0073048D02*
X0060778Y0073599D01*
X0060778Y0074700D01*
X0060228Y0075250D01*
X0058026Y0075250D01*
X0057476Y0074700D01*
X0057476Y0073599D01*
X0058026Y0073048D01*
X0059127Y0073048D01*
X0059127Y0074149D01*
X0041844Y0077550D02*
X0039642Y0077550D01*
X0039642Y0080853D01*
X0041844Y0080853D01*
X0040743Y0079201D02*
X0039642Y0079201D01*
X0038161Y0077550D02*
X0035959Y0077550D01*
X0035959Y0080853D01*
X0034477Y0080302D02*
X0034477Y0079752D01*
X0033927Y0079201D01*
X0032276Y0079201D01*
X0032276Y0077550D02*
X0033927Y0077550D01*
X0034477Y0078100D01*
X0034477Y0078651D01*
X0033927Y0079201D01*
X0034477Y0080302D02*
X0033927Y0080853D01*
X0032276Y0080853D01*
X0032276Y0077550D01*
X0106676Y0066900D02*
X0106676Y0065799D01*
X0107226Y0065248D01*
X0108327Y0065248D01*
X0108327Y0066349D01*
X0109428Y0065248D02*
X0109978Y0065799D01*
X0109978Y0066900D01*
X0109428Y0067450D01*
X0107226Y0067450D01*
X0106676Y0066900D01*
X0106676Y0063767D02*
X0109978Y0063767D01*
X0106676Y0061565D01*
X0109978Y0061565D01*
X0109978Y0060084D02*
X0106676Y0060084D01*
X0106676Y0058432D01*
X0107226Y0057882D01*
X0109428Y0057882D01*
X0109978Y0058432D01*
X0109978Y0060084D01*
X0123676Y0057450D02*
X0123676Y0055799D01*
X0124226Y0055248D01*
X0126428Y0055248D01*
X0126978Y0055799D01*
X0126978Y0057450D01*
X0123676Y0057450D01*
X0123676Y0053767D02*
X0125877Y0053767D01*
X0126978Y0052666D01*
X0125877Y0051565D01*
X0123676Y0051565D01*
X0125327Y0051565D02*
X0125327Y0053767D01*
X0126978Y0050084D02*
X0126978Y0047882D01*
X0126978Y0048983D02*
X0123676Y0048983D01*
X0124426Y0045650D02*
X0123876Y0045100D01*
X0123876Y0043999D01*
X0124426Y0043448D01*
X0123876Y0041967D02*
X0123876Y0039765D01*
X0123876Y0038284D02*
X0127178Y0038284D01*
X0125527Y0037733D02*
X0123876Y0036082D01*
X0124977Y0038284D02*
X0127178Y0036082D01*
X0127178Y0041967D02*
X0123876Y0041967D01*
X0126628Y0043448D02*
X0127178Y0043999D01*
X0127178Y0045100D01*
X0126628Y0045650D01*
X0124426Y0045650D01*
X0109578Y0035050D02*
X0107927Y0035050D01*
X0108477Y0033949D01*
X0108477Y0033399D01*
X0107927Y0032848D01*
X0106826Y0032848D01*
X0106276Y0033399D01*
X0106276Y0034500D01*
X0106826Y0035050D01*
X0109578Y0035050D02*
X0109578Y0032848D01*
X0109578Y0031367D02*
X0107377Y0031367D01*
X0106276Y0030266D01*
X0107377Y0029165D01*
X0109578Y0029165D01*
X0105299Y0027102D02*
X0105299Y0026001D01*
X0104749Y0025451D01*
X0103097Y0025451D01*
X0103097Y0024350D02*
X0103097Y0027653D01*
X0104749Y0027653D01*
X0105299Y0027102D01*
X0101616Y0027102D02*
X0101066Y0027653D01*
X0099965Y0027653D01*
X0099414Y0027102D01*
X0099414Y0026552D01*
X0099965Y0026001D01*
X0101066Y0026001D01*
X0101616Y0025451D01*
X0101616Y0024900D01*
X0101066Y0024350D01*
X0099965Y0024350D01*
X0099414Y0024900D01*
X0097933Y0024900D02*
X0097382Y0024350D01*
X0096281Y0024350D01*
X0095731Y0024900D01*
X0095731Y0027102D01*
X0096281Y0027653D01*
X0097382Y0027653D01*
X0097933Y0027102D01*
X0094377Y0027653D02*
X0093276Y0027653D01*
X0093826Y0027653D02*
X0093826Y0024350D01*
X0093276Y0024350D02*
X0094377Y0024350D01*
X0123876Y0024752D02*
X0124977Y0025853D01*
X0124977Y0022550D01*
X0126077Y0022550D02*
X0123876Y0022550D01*
X0127559Y0022550D02*
X0127559Y0023100D01*
X0129761Y0025302D01*
X0129761Y0025853D01*
X0127559Y0025853D01*
X0134076Y0024752D02*
X0135177Y0025853D01*
X0135177Y0022550D01*
X0136277Y0022550D02*
X0134076Y0022550D01*
X0137759Y0023100D02*
X0137759Y0023651D01*
X0138309Y0024201D01*
X0139410Y0024201D01*
X0139961Y0023651D01*
X0139961Y0023100D01*
X0139410Y0022550D01*
X0138309Y0022550D01*
X0137759Y0023100D01*
X0138309Y0024201D02*
X0137759Y0024752D01*
X0137759Y0025302D01*
X0138309Y0025853D01*
X0139410Y0025853D01*
X0139961Y0025302D01*
X0139961Y0024752D01*
X0139410Y0024201D01*
X0144076Y0024752D02*
X0145177Y0025853D01*
X0145177Y0022550D01*
X0146277Y0022550D02*
X0144076Y0022550D01*
X0147759Y0023100D02*
X0148309Y0022550D01*
X0149410Y0022550D01*
X0149961Y0023100D01*
X0149961Y0025302D01*
X0149410Y0025853D01*
X0148309Y0025853D01*
X0147759Y0025302D01*
X0147759Y0024752D01*
X0148309Y0024201D01*
X0149961Y0024201D01*
X0152886Y0022209D02*
X0154443Y0022209D01*
X0153676Y0023150D02*
X0155877Y0025352D01*
X0155877Y0025902D01*
X0155327Y0026453D01*
X0154226Y0026453D01*
X0153676Y0025902D01*
X0157359Y0025902D02*
X0157909Y0026453D01*
X0159010Y0026453D01*
X0159561Y0025902D01*
X0157359Y0023700D01*
X0157909Y0023150D01*
X0159010Y0023150D01*
X0159561Y0023700D01*
X0159561Y0025902D01*
X0157359Y0025902D02*
X0157359Y0023700D01*
X0155877Y0023150D02*
X0153676Y0023150D01*
X0152886Y0022209D02*
X0152886Y0020652D01*
X0163676Y0022950D02*
X0165877Y0025152D01*
X0165877Y0025702D01*
X0165327Y0026253D01*
X0164226Y0026253D01*
X0163676Y0025702D01*
X0167359Y0025152D02*
X0168460Y0026253D01*
X0168460Y0022950D01*
X0167359Y0022950D02*
X0169561Y0022950D01*
X0165877Y0022950D02*
X0163676Y0022950D01*
X0173876Y0022950D02*
X0176077Y0025152D01*
X0176077Y0025702D01*
X0175527Y0026253D01*
X0174426Y0026253D01*
X0173876Y0025702D01*
X0177559Y0025702D02*
X0178109Y0026253D01*
X0179210Y0026253D01*
X0179761Y0025702D01*
X0179761Y0025152D01*
X0177559Y0022950D01*
X0179761Y0022950D01*
X0176077Y0022950D02*
X0173876Y0022950D01*
X0183876Y0022950D02*
X0186077Y0025152D01*
X0186077Y0025702D01*
X0185527Y0026253D01*
X0184426Y0026253D01*
X0183876Y0025702D01*
X0187559Y0025702D02*
X0188109Y0026253D01*
X0189210Y0026253D01*
X0189761Y0025702D01*
X0189761Y0025152D01*
X0189210Y0024601D01*
X0189761Y0024051D01*
X0189761Y0023500D01*
X0189210Y0022950D01*
X0188109Y0022950D01*
X0187559Y0023500D01*
X0188660Y0024601D02*
X0189210Y0024601D01*
X0193876Y0025302D02*
X0194426Y0025853D01*
X0195527Y0025853D01*
X0196077Y0025302D01*
X0196077Y0024752D01*
X0193876Y0022550D01*
X0196077Y0022550D01*
X0197559Y0024201D02*
X0199761Y0024201D01*
X0199210Y0022550D02*
X0199210Y0025853D01*
X0197559Y0024201D01*
X0204076Y0025302D02*
X0204626Y0025853D01*
X0205727Y0025853D01*
X0206277Y0025302D01*
X0206277Y0024752D01*
X0204076Y0022550D01*
X0206277Y0022550D01*
X0207759Y0023100D02*
X0208309Y0022550D01*
X0209410Y0022550D01*
X0209961Y0023100D01*
X0209961Y0024201D01*
X0209410Y0024752D01*
X0208860Y0024752D01*
X0207759Y0024201D01*
X0207759Y0025853D01*
X0209961Y0025853D01*
X0212276Y0024902D02*
X0212826Y0025453D01*
X0213927Y0025453D01*
X0214477Y0024902D01*
X0214477Y0024352D01*
X0212276Y0022150D01*
X0214477Y0022150D01*
X0215959Y0022700D02*
X0215959Y0023801D01*
X0217610Y0023801D01*
X0218161Y0023251D01*
X0218161Y0022700D01*
X0217610Y0022150D01*
X0216509Y0022150D01*
X0215959Y0022700D01*
X0215959Y0023801D02*
X0217060Y0024902D01*
X0218161Y0025453D01*
X0224076Y0025702D02*
X0224626Y0026253D01*
X0225727Y0026253D01*
X0226277Y0025702D01*
X0226277Y0025152D01*
X0224076Y0022950D01*
X0226277Y0022950D01*
X0227759Y0022950D02*
X0227759Y0023500D01*
X0229961Y0025702D01*
X0229961Y0026253D01*
X0227759Y0026253D01*
X0233876Y0025702D02*
X0234426Y0026253D01*
X0235527Y0026253D01*
X0236077Y0025702D01*
X0236077Y0025152D01*
X0233876Y0022950D01*
X0236077Y0022950D01*
X0237559Y0023500D02*
X0237559Y0024051D01*
X0238109Y0024601D01*
X0239210Y0024601D01*
X0239761Y0024051D01*
X0239761Y0023500D01*
X0239210Y0022950D01*
X0238109Y0022950D01*
X0237559Y0023500D01*
X0238109Y0024601D02*
X0237559Y0025152D01*
X0237559Y0025702D01*
X0238109Y0026253D01*
X0239210Y0026253D01*
X0239761Y0025702D01*
X0239761Y0025152D01*
X0239210Y0024601D01*
X0243876Y0025702D02*
X0244426Y0026253D01*
X0245527Y0026253D01*
X0246077Y0025702D01*
X0246077Y0025152D01*
X0243876Y0022950D01*
X0246077Y0022950D01*
X0247559Y0023500D02*
X0248109Y0022950D01*
X0249210Y0022950D01*
X0249761Y0023500D01*
X0249761Y0025702D01*
X0249210Y0026253D01*
X0248109Y0026253D01*
X0247559Y0025702D01*
X0247559Y0025152D01*
X0248109Y0024601D01*
X0249761Y0024601D01*
X0255076Y0023500D02*
X0255626Y0022950D01*
X0256727Y0022950D01*
X0257277Y0023500D01*
X0257277Y0024051D01*
X0256727Y0024601D01*
X0256177Y0024601D01*
X0256727Y0024601D02*
X0257277Y0025152D01*
X0257277Y0025702D01*
X0256727Y0026253D01*
X0255626Y0026253D01*
X0255076Y0025702D01*
X0255676Y0027750D02*
X0255676Y0031053D01*
X0257327Y0031053D01*
X0257877Y0030502D01*
X0257877Y0029401D01*
X0257327Y0028851D01*
X0255676Y0028851D01*
X0259359Y0027750D02*
X0260460Y0028851D01*
X0261561Y0027750D01*
X0261561Y0031053D01*
X0263042Y0031053D02*
X0264693Y0031053D01*
X0265244Y0030502D01*
X0265244Y0029401D01*
X0264693Y0028851D01*
X0263042Y0028851D01*
X0264143Y0028851D02*
X0265244Y0027750D01*
X0265527Y0026253D02*
X0266077Y0025702D01*
X0266077Y0025152D01*
X0265527Y0024601D01*
X0266077Y0024051D01*
X0266077Y0023500D01*
X0265527Y0022950D01*
X0264426Y0022950D01*
X0263876Y0023500D01*
X0264977Y0024601D02*
X0265527Y0024601D01*
X0265527Y0026253D02*
X0264426Y0026253D01*
X0263876Y0025702D01*
X0263042Y0027750D02*
X0263042Y0031053D01*
X0259359Y0031053D02*
X0259359Y0027750D01*
X0259309Y0026253D02*
X0258759Y0025702D01*
X0258759Y0023500D01*
X0260961Y0025702D01*
X0260961Y0023500D01*
X0260410Y0022950D01*
X0259309Y0022950D01*
X0258759Y0023500D01*
X0259309Y0026253D02*
X0260410Y0026253D01*
X0260961Y0025702D01*
X0267559Y0025152D02*
X0268660Y0026253D01*
X0268660Y0022950D01*
X0267559Y0022950D02*
X0269761Y0022950D01*
X0273876Y0023500D02*
X0274426Y0022950D01*
X0275527Y0022950D01*
X0276077Y0023500D01*
X0276077Y0024051D01*
X0275527Y0024601D01*
X0274977Y0024601D01*
X0275527Y0024601D02*
X0276077Y0025152D01*
X0276077Y0025702D01*
X0275527Y0026253D01*
X0274426Y0026253D01*
X0273876Y0025702D01*
X0277559Y0025702D02*
X0278109Y0026253D01*
X0279210Y0026253D01*
X0279761Y0025702D01*
X0279761Y0025152D01*
X0277559Y0022950D01*
X0279761Y0022950D01*
X0283476Y0022550D02*
X0283476Y0025853D01*
X0285127Y0025853D01*
X0285677Y0025302D01*
X0285677Y0024201D01*
X0285127Y0023651D01*
X0283476Y0023651D01*
X0284577Y0023651D02*
X0285677Y0022550D01*
X0287159Y0023100D02*
X0287709Y0022550D01*
X0288810Y0022550D01*
X0289361Y0023100D01*
X0289361Y0023651D01*
X0288810Y0024201D01*
X0287709Y0024201D01*
X0287159Y0024752D01*
X0287159Y0025302D01*
X0287709Y0025853D01*
X0288810Y0025853D01*
X0289361Y0025302D01*
X0293876Y0025302D02*
X0294426Y0025853D01*
X0295527Y0025853D01*
X0296077Y0025302D01*
X0296077Y0024752D01*
X0295527Y0024201D01*
X0296077Y0023651D01*
X0296077Y0023100D01*
X0295527Y0022550D01*
X0294426Y0022550D01*
X0293876Y0023100D01*
X0294977Y0024201D02*
X0295527Y0024201D01*
X0297559Y0023651D02*
X0298660Y0022550D01*
X0299761Y0023651D01*
X0299761Y0025853D01*
X0297559Y0025853D02*
X0297559Y0023651D01*
X0306076Y0023300D02*
X0306626Y0022750D01*
X0307727Y0022750D01*
X0308277Y0023300D01*
X0308277Y0024401D01*
X0307177Y0024401D01*
X0308277Y0025502D02*
X0307727Y0026053D01*
X0306626Y0026053D01*
X0306076Y0025502D01*
X0306076Y0023300D01*
X0312676Y0023851D02*
X0312676Y0026053D01*
X0314877Y0026053D02*
X0314877Y0023851D01*
X0313777Y0022750D01*
X0312676Y0023851D01*
X0316359Y0024952D02*
X0316909Y0024952D01*
X0316909Y0022750D01*
X0316359Y0022750D02*
X0317460Y0022750D01*
X0318814Y0022750D02*
X0318814Y0024952D01*
X0320466Y0024952D01*
X0321016Y0024401D01*
X0321016Y0022750D01*
X0316909Y0026053D02*
X0316909Y0026603D01*
X0326177Y0053900D02*
X0326177Y0056102D01*
X0327277Y0055001D02*
X0325076Y0055001D01*
X0328759Y0055001D02*
X0328759Y0056653D01*
X0330961Y0056653D01*
X0330410Y0055552D02*
X0330961Y0055001D01*
X0330961Y0053900D01*
X0330410Y0053350D01*
X0329309Y0053350D01*
X0328759Y0053900D01*
X0328759Y0055001D02*
X0329860Y0055552D01*
X0330410Y0055552D01*
X0332442Y0056653D02*
X0332442Y0054451D01*
X0333543Y0053350D01*
X0334644Y0054451D01*
X0334644Y0056653D01*
X0339808Y0056653D02*
X0341460Y0056653D01*
X0342010Y0056102D01*
X0342010Y0055001D01*
X0341460Y0054451D01*
X0339808Y0054451D01*
X0339808Y0053350D02*
X0339808Y0056653D01*
X0343491Y0056653D02*
X0343491Y0053350D01*
X0344592Y0054451D01*
X0345693Y0053350D01*
X0345693Y0056653D01*
X0347174Y0056653D02*
X0348826Y0056653D01*
X0349376Y0056102D01*
X0349376Y0055001D01*
X0348826Y0054451D01*
X0347174Y0054451D01*
X0347174Y0053350D02*
X0347174Y0056653D01*
X0348275Y0054451D02*
X0349376Y0053350D01*
X0308077Y0069500D02*
X0308077Y0070601D01*
X0306977Y0070601D01*
X0308077Y0069500D02*
X0307527Y0068950D01*
X0306426Y0068950D01*
X0305876Y0069500D01*
X0305876Y0071702D01*
X0306426Y0072253D01*
X0307527Y0072253D01*
X0308077Y0071702D01*
X0299761Y0072253D02*
X0299761Y0070051D01*
X0298660Y0068950D01*
X0297559Y0070051D01*
X0297559Y0072253D01*
X0296077Y0071702D02*
X0296077Y0071152D01*
X0295527Y0070601D01*
X0296077Y0070051D01*
X0296077Y0069500D01*
X0295527Y0068950D01*
X0294426Y0068950D01*
X0293876Y0069500D01*
X0294977Y0070601D02*
X0295527Y0070601D01*
X0296077Y0071702D02*
X0295527Y0072253D01*
X0294426Y0072253D01*
X0293876Y0071702D01*
X0288077Y0071702D02*
X0285876Y0069500D01*
X0286426Y0068950D01*
X0287527Y0068950D01*
X0288077Y0069500D01*
X0288077Y0071702D01*
X0287527Y0072253D01*
X0286426Y0072253D01*
X0285876Y0071702D01*
X0285876Y0069500D01*
X0278077Y0068950D02*
X0275876Y0068950D01*
X0276977Y0068950D02*
X0276977Y0072253D01*
X0275876Y0071152D01*
X0282717Y0072960D02*
X0282717Y0074517D01*
X0282717Y0072960D02*
X0284274Y0072960D01*
X0268077Y0071702D02*
X0268077Y0071152D01*
X0265876Y0068950D01*
X0268077Y0068950D01*
X0268077Y0071702D02*
X0267527Y0072253D01*
X0266426Y0072253D01*
X0265876Y0071702D01*
X0258077Y0071702D02*
X0258077Y0071152D01*
X0257527Y0070601D01*
X0258077Y0070051D01*
X0258077Y0069500D01*
X0257527Y0068950D01*
X0256426Y0068950D01*
X0255876Y0069500D01*
X0256977Y0070601D02*
X0257527Y0070601D01*
X0258077Y0071702D02*
X0257527Y0072253D01*
X0256426Y0072253D01*
X0255876Y0071702D01*
X0254474Y0072960D02*
X0252917Y0072960D01*
X0252917Y0074517D01*
X0247327Y0072253D02*
X0245676Y0070601D01*
X0247877Y0070601D01*
X0247327Y0068950D02*
X0247327Y0072253D01*
X0244474Y0072960D02*
X0242917Y0072960D01*
X0242917Y0074517D01*
X0237877Y0072253D02*
X0235676Y0072253D01*
X0235676Y0070601D01*
X0236777Y0071152D01*
X0237327Y0071152D01*
X0237877Y0070601D01*
X0237877Y0069500D01*
X0237327Y0068950D01*
X0236226Y0068950D01*
X0235676Y0069500D01*
X0228077Y0069500D02*
X0228077Y0070051D01*
X0227527Y0070601D01*
X0225876Y0070601D01*
X0225876Y0069500D01*
X0226426Y0068950D01*
X0227527Y0068950D01*
X0228077Y0069500D01*
X0226977Y0071702D02*
X0225876Y0070601D01*
X0226977Y0071702D02*
X0228077Y0072253D01*
X0224474Y0072960D02*
X0222917Y0072960D01*
X0222917Y0074517D01*
X0219877Y0072653D02*
X0217676Y0072653D01*
X0219877Y0072653D02*
X0219877Y0072102D01*
X0217676Y0069900D01*
X0217676Y0069350D01*
X0214274Y0072960D02*
X0212717Y0072960D01*
X0212717Y0074517D01*
X0206477Y0071502D02*
X0205927Y0072053D01*
X0204826Y0072053D01*
X0204276Y0071502D01*
X0204276Y0070952D01*
X0204826Y0070401D01*
X0205927Y0070401D01*
X0206477Y0069851D01*
X0206477Y0069300D01*
X0205927Y0068750D01*
X0204826Y0068750D01*
X0204276Y0069300D01*
X0204276Y0069851D01*
X0204826Y0070401D01*
X0205927Y0070401D02*
X0206477Y0070952D01*
X0206477Y0071502D01*
X0204474Y0072960D02*
X0202917Y0072960D01*
X0202917Y0074517D01*
X0197877Y0071702D02*
X0197327Y0072253D01*
X0196226Y0072253D01*
X0195676Y0071702D01*
X0195676Y0071152D01*
X0196226Y0070601D01*
X0197877Y0070601D01*
X0197877Y0069500D02*
X0197877Y0071702D01*
X0194274Y0072960D02*
X0192717Y0072960D01*
X0192717Y0074517D01*
X0189961Y0071702D02*
X0187759Y0069500D01*
X0188309Y0068950D01*
X0189410Y0068950D01*
X0189961Y0069500D01*
X0189961Y0071702D01*
X0189410Y0072253D01*
X0188309Y0072253D01*
X0187759Y0071702D01*
X0187759Y0069500D01*
X0186277Y0068950D02*
X0184076Y0068950D01*
X0185177Y0068950D02*
X0185177Y0072253D01*
X0184076Y0071152D01*
X0179961Y0068950D02*
X0177759Y0068950D01*
X0178860Y0068950D02*
X0178860Y0072253D01*
X0177759Y0071152D01*
X0176277Y0068950D02*
X0174076Y0068950D01*
X0175177Y0068950D02*
X0175177Y0072253D01*
X0174076Y0071152D01*
X0174274Y0072960D02*
X0172717Y0072960D01*
X0172717Y0074517D01*
X0169961Y0071702D02*
X0169410Y0072253D01*
X0168309Y0072253D01*
X0167759Y0071702D01*
X0169961Y0071702D02*
X0169961Y0071152D01*
X0167759Y0068950D01*
X0169961Y0068950D01*
X0166277Y0068950D02*
X0164076Y0068950D01*
X0165177Y0068950D02*
X0165177Y0072253D01*
X0164076Y0071152D01*
X0159961Y0071152D02*
X0159961Y0071702D01*
X0159410Y0072253D01*
X0158309Y0072253D01*
X0157759Y0071702D01*
X0158860Y0070601D02*
X0159410Y0070601D01*
X0159961Y0070051D01*
X0159961Y0069500D01*
X0159410Y0068950D01*
X0158309Y0068950D01*
X0157759Y0069500D01*
X0156277Y0068950D02*
X0154076Y0068950D01*
X0155177Y0068950D02*
X0155177Y0072253D01*
X0154076Y0071152D01*
X0149961Y0071001D02*
X0147759Y0071001D01*
X0149410Y0072653D01*
X0149410Y0069350D01*
X0146277Y0069350D02*
X0144076Y0069350D01*
X0145177Y0069350D02*
X0145177Y0072653D01*
X0144076Y0071552D01*
X0139961Y0071001D02*
X0139961Y0069900D01*
X0139410Y0069350D01*
X0138309Y0069350D01*
X0137759Y0069900D01*
X0137759Y0071001D02*
X0138860Y0071552D01*
X0139410Y0071552D01*
X0139961Y0071001D01*
X0139961Y0072653D02*
X0137759Y0072653D01*
X0137759Y0071001D01*
X0136277Y0069350D02*
X0134076Y0069350D01*
X0135177Y0069350D02*
X0135177Y0072653D01*
X0134076Y0071552D01*
X0129961Y0072653D02*
X0128860Y0072102D01*
X0127759Y0071001D01*
X0129410Y0071001D01*
X0129961Y0070451D01*
X0129961Y0069900D01*
X0129410Y0069350D01*
X0128309Y0069350D01*
X0127759Y0069900D01*
X0127759Y0071001D01*
X0126277Y0069350D02*
X0124076Y0069350D01*
X0125177Y0069350D02*
X0125177Y0072653D01*
X0124076Y0071552D01*
X0133276Y0066853D02*
X0134927Y0066853D01*
X0135477Y0066302D01*
X0135477Y0065201D01*
X0134927Y0064651D01*
X0133276Y0064651D01*
X0134377Y0064651D02*
X0135477Y0063550D01*
X0136959Y0063550D02*
X0139161Y0063550D01*
X0140642Y0064100D02*
X0141192Y0063550D01*
X0142293Y0063550D01*
X0142844Y0064100D01*
X0142844Y0064651D01*
X0142293Y0065201D01*
X0141192Y0065201D01*
X0140642Y0065752D01*
X0140642Y0066302D01*
X0141192Y0066853D01*
X0142293Y0066853D01*
X0142844Y0066302D01*
X0144325Y0066853D02*
X0144325Y0063550D01*
X0146527Y0063550D01*
X0145426Y0065201D02*
X0144325Y0065201D01*
X0144325Y0066853D02*
X0146527Y0066853D01*
X0148008Y0066853D02*
X0150210Y0066853D01*
X0149109Y0066853D02*
X0149109Y0063550D01*
X0139161Y0066853D02*
X0136959Y0066853D01*
X0136959Y0063550D01*
X0136959Y0065201D02*
X0138060Y0065201D01*
X0133276Y0063550D02*
X0133276Y0066853D01*
X0152517Y0073360D02*
X0152517Y0074917D01*
X0152517Y0073360D02*
X0154074Y0073360D01*
X0159410Y0070601D02*
X0159961Y0071152D01*
X0162717Y0072960D02*
X0162717Y0074517D01*
X0162717Y0072960D02*
X0164274Y0072960D01*
X0182917Y0072960D02*
X0182917Y0074517D01*
X0182917Y0072960D02*
X0184474Y0072960D01*
X0195676Y0069500D02*
X0196226Y0068950D01*
X0197327Y0068950D01*
X0197877Y0069500D01*
X0232717Y0072960D02*
X0232717Y0074517D01*
X0232717Y0072960D02*
X0234274Y0072960D01*
X0254276Y0063952D02*
X0255377Y0065053D01*
X0255377Y0061750D01*
X0256477Y0061750D02*
X0254276Y0061750D01*
X0181844Y0042502D02*
X0181293Y0043053D01*
X0180192Y0043053D01*
X0179642Y0042502D01*
X0179642Y0040300D01*
X0180192Y0039750D01*
X0181293Y0039750D01*
X0181844Y0040300D01*
X0181844Y0041401D01*
X0180743Y0041401D01*
X0178161Y0041401D02*
X0177610Y0040851D01*
X0175959Y0040851D01*
X0177060Y0040851D02*
X0178161Y0039750D01*
X0178161Y0041401D02*
X0178161Y0042502D01*
X0177610Y0043053D01*
X0175959Y0043053D01*
X0175959Y0039750D01*
X0174477Y0041401D02*
X0173927Y0040851D01*
X0172276Y0040851D01*
X0172276Y0039750D02*
X0172276Y0043053D01*
X0173927Y0043053D01*
X0174477Y0042502D01*
X0174477Y0041401D01*
X0183876Y0022950D02*
X0186077Y0022950D01*
D12*
X0157126Y0029300D02*
X0152326Y0029300D01*
X0152326Y0037500D02*
X0153526Y0037500D01*
X0155926Y0037500D01*
X0157126Y0037500D01*
X0155926Y0037500D02*
X0155924Y0037431D01*
X0155918Y0037363D01*
X0155908Y0037295D01*
X0155895Y0037228D01*
X0155877Y0037162D01*
X0155856Y0037097D01*
X0155831Y0037033D01*
X0155803Y0036971D01*
X0155771Y0036910D01*
X0155736Y0036851D01*
X0155697Y0036795D01*
X0155655Y0036740D01*
X0155610Y0036689D01*
X0155562Y0036639D01*
X0155512Y0036593D01*
X0155459Y0036550D01*
X0155403Y0036509D01*
X0155346Y0036472D01*
X0155286Y0036439D01*
X0155224Y0036408D01*
X0155161Y0036382D01*
X0155097Y0036359D01*
X0155031Y0036339D01*
X0154964Y0036324D01*
X0154897Y0036312D01*
X0154829Y0036304D01*
X0154760Y0036300D01*
X0154692Y0036300D01*
X0154623Y0036304D01*
X0154555Y0036312D01*
X0154488Y0036324D01*
X0154421Y0036339D01*
X0154355Y0036359D01*
X0154291Y0036382D01*
X0154228Y0036408D01*
X0154166Y0036439D01*
X0154106Y0036472D01*
X0154049Y0036509D01*
X0153993Y0036550D01*
X0153940Y0036593D01*
X0153890Y0036639D01*
X0153842Y0036689D01*
X0153797Y0036740D01*
X0153755Y0036795D01*
X0153716Y0036851D01*
X0153681Y0036910D01*
X0153649Y0036971D01*
X0153621Y0037033D01*
X0153596Y0037097D01*
X0153575Y0037162D01*
X0153557Y0037228D01*
X0153544Y0037295D01*
X0153534Y0037363D01*
X0153528Y0037431D01*
X0153526Y0037500D01*
X0245963Y0037181D02*
X0245963Y0034819D01*
X0250688Y0034819D02*
X0250688Y0037181D01*
X0254963Y0041219D02*
X0254963Y0043581D01*
X0259688Y0043581D02*
X0259688Y0041219D01*
X0311826Y0069601D02*
X0312726Y0068700D01*
X0313627Y0069601D01*
X0313627Y0071402D01*
X0311826Y0071402D02*
X0311826Y0069601D01*
X0314864Y0070051D02*
X0315315Y0070502D01*
X0316215Y0070502D01*
X0316666Y0070051D01*
X0316666Y0069150D01*
X0316215Y0068700D01*
X0315315Y0068700D01*
X0314864Y0069150D01*
X0314864Y0070051D01*
X0317903Y0070502D02*
X0317903Y0069150D01*
X0318353Y0068700D01*
X0319704Y0068700D01*
X0319704Y0070502D01*
X0320941Y0070502D02*
X0321842Y0070502D01*
X0321392Y0070952D02*
X0321392Y0069150D01*
X0321842Y0068700D01*
X0049507Y0072838D02*
X0047144Y0072838D01*
X0047144Y0077562D02*
X0049507Y0077562D01*
D13*
X0169406Y0053800D02*
X0169646Y0053800D01*
X0181326Y0065480D02*
X0181326Y0065720D01*
X0197771Y0032283D02*
X0198011Y0032283D01*
X0239526Y0031920D02*
X0239526Y0031680D01*
X0280206Y0042600D02*
X0280446Y0042600D01*
D14*
X0268526Y0042600D03*
X0263126Y0042600D03*
X0245526Y0056400D03*
X0055126Y0024400D03*
D15*
X0063752Y0022572D02*
X0063752Y0077690D01*
X0066902Y0077690D01*
X0066902Y0022572D01*
X0063752Y0022572D01*
X0066902Y0022572D02*
X0091311Y0022572D01*
X0091311Y0077690D01*
X0066902Y0077690D01*
X0037195Y0075811D02*
X0037195Y0074000D01*
X0035974Y0073080D01*
X0037195Y0072189D02*
X0037195Y0074000D01*
X0037134Y0074100D02*
X0035974Y0074860D01*
X0111926Y0065100D02*
X0111926Y0060100D01*
X0114426Y0057600D01*
X0111926Y0055100D01*
X0111926Y0050100D01*
X0114426Y0047600D01*
X0111926Y0045100D01*
X0111926Y0040100D01*
X0114426Y0037600D01*
X0111926Y0035100D01*
X0111926Y0030100D01*
X0114426Y0027600D01*
X0119426Y0027600D01*
X0121926Y0030100D01*
X0121926Y0035100D01*
X0119426Y0037600D01*
X0121926Y0040100D01*
X0121926Y0045100D01*
X0119426Y0047600D01*
X0121926Y0050100D01*
X0121926Y0055100D01*
X0119426Y0057600D01*
X0121926Y0060100D01*
X0121926Y0065100D01*
X0119426Y0067600D01*
X0114426Y0067600D01*
X0111926Y0065100D01*
X0132894Y0058250D02*
X0132894Y0054668D01*
X0136831Y0051833D02*
X0145020Y0051833D01*
X0149036Y0054668D02*
X0149036Y0058250D01*
X0145020Y0060888D02*
X0136831Y0060888D01*
X0194655Y0047600D02*
X0195768Y0046486D01*
X0194655Y0047600D02*
X0195768Y0048714D01*
X0181020Y0037967D02*
X0172831Y0037967D01*
X0168815Y0035132D02*
X0168815Y0031550D01*
X0172831Y0028912D02*
X0181020Y0028912D01*
X0184957Y0031550D02*
X0184957Y0035132D01*
X0215534Y0026721D02*
X0218318Y0026721D01*
X0259656Y0032189D02*
X0259656Y0034000D01*
X0260877Y0034920D01*
X0259656Y0035811D02*
X0259656Y0034000D01*
X0259717Y0033900D02*
X0260877Y0033140D01*
X0239197Y0047600D02*
X0238083Y0046486D01*
X0239197Y0047600D02*
X0238083Y0048714D01*
X0250066Y0062449D02*
X0250826Y0063609D01*
X0250926Y0063669D02*
X0251846Y0062449D01*
X0252737Y0063669D02*
X0250926Y0063669D01*
X0249115Y0063669D01*
X0278057Y0065117D02*
X0278128Y0064198D01*
X0279118Y0064056D01*
X0279259Y0063632D01*
X0280815Y0064339D01*
X0281663Y0063491D02*
X0280956Y0061935D01*
X0281380Y0061794D01*
X0281522Y0060804D01*
X0282441Y0060733D01*
X0282653Y0061794D01*
X0283572Y0062147D01*
X0284421Y0061582D01*
X0285057Y0062218D01*
X0284492Y0063067D01*
X0284845Y0063986D01*
X0285906Y0064198D01*
X0285906Y0065188D01*
X0284774Y0065329D01*
X0284492Y0066178D01*
X0285128Y0067097D01*
X0284492Y0067733D01*
X0283502Y0067168D01*
X0282653Y0067451D01*
X0282512Y0068582D01*
X0281522Y0068582D01*
X0281310Y0067521D01*
X0280461Y0067097D01*
X0279542Y0067733D01*
X0278905Y0067097D01*
X0279471Y0066249D01*
X0279118Y0065329D01*
X0278057Y0065117D01*
X0280815Y0064340D02*
X0280798Y0064407D01*
X0280786Y0064475D01*
X0280777Y0064543D01*
X0280773Y0064612D01*
X0280772Y0064681D01*
X0280775Y0064750D01*
X0280783Y0064818D01*
X0280794Y0064886D01*
X0280809Y0064953D01*
X0280827Y0065020D01*
X0280850Y0065085D01*
X0280876Y0065149D01*
X0280906Y0065211D01*
X0280939Y0065271D01*
X0280976Y0065330D01*
X0281016Y0065386D01*
X0281059Y0065440D01*
X0281105Y0065491D01*
X0281153Y0065539D01*
X0281205Y0065585D01*
X0281259Y0065628D01*
X0281316Y0065667D01*
X0281374Y0065704D01*
X0281435Y0065737D01*
X0281497Y0065766D01*
X0281561Y0065792D01*
X0281626Y0065814D01*
X0281693Y0065832D01*
X0281760Y0065847D01*
X0281828Y0065857D01*
X0281897Y0065864D01*
X0281966Y0065867D01*
X0282035Y0065866D01*
X0282103Y0065861D01*
X0282172Y0065852D01*
X0282239Y0065839D01*
X0282306Y0065822D01*
X0282372Y0065802D01*
X0282437Y0065778D01*
X0282500Y0065750D01*
X0282561Y0065719D01*
X0282621Y0065684D01*
X0282678Y0065646D01*
X0282733Y0065605D01*
X0282786Y0065560D01*
X0282836Y0065513D01*
X0282883Y0065463D01*
X0282928Y0065410D01*
X0282969Y0065355D01*
X0283007Y0065297D01*
X0283042Y0065238D01*
X0283073Y0065177D01*
X0283101Y0065114D01*
X0283125Y0065049D01*
X0283145Y0064983D01*
X0283162Y0064916D01*
X0283175Y0064849D01*
X0283184Y0064780D01*
X0283189Y0064711D01*
X0283190Y0064643D01*
X0283187Y0064574D01*
X0283180Y0064505D01*
X0283170Y0064437D01*
X0283155Y0064370D01*
X0283137Y0064303D01*
X0283115Y0064238D01*
X0283089Y0064174D01*
X0283060Y0064112D01*
X0283027Y0064051D01*
X0282990Y0063993D01*
X0282951Y0063936D01*
X0282908Y0063882D01*
X0282862Y0063830D01*
X0282814Y0063782D01*
X0282763Y0063736D01*
X0282709Y0063693D01*
X0282653Y0063653D01*
X0282594Y0063616D01*
X0282534Y0063583D01*
X0282472Y0063553D01*
X0282408Y0063527D01*
X0282343Y0063504D01*
X0282276Y0063486D01*
X0282209Y0063471D01*
X0282141Y0063460D01*
X0282073Y0063452D01*
X0282004Y0063449D01*
X0281935Y0063450D01*
X0281866Y0063454D01*
X0281798Y0063463D01*
X0281730Y0063475D01*
X0281663Y0063492D01*
X0309726Y0064900D02*
X0309726Y0060400D01*
X0315226Y0060400D01*
X0315226Y0062900D01*
X0314226Y0062900D01*
X0314226Y0060900D01*
X0315226Y0060400D02*
X0319726Y0060400D01*
X0319726Y0064900D01*
X0314726Y0064900D01*
X0312226Y0067400D01*
X0309726Y0064900D01*
X0309726Y0067900D01*
X0319226Y0067900D01*
X0319226Y0069400D01*
X0319726Y0069400D01*
X0319726Y0064900D01*
X0324330Y0058652D02*
X0324330Y0080306D01*
X0346968Y0080306D01*
X0346968Y0058652D01*
X0324330Y0058652D01*
X0346968Y0058652D02*
X0349921Y0058652D01*
X0349921Y0080306D01*
X0346968Y0080306D01*
X0327415Y0049430D02*
X0323281Y0049430D01*
X0319148Y0049430D02*
X0315211Y0049430D01*
X0310880Y0045099D01*
X0310880Y0028564D01*
X0319148Y0028564D01*
X0323478Y0028564D02*
X0331746Y0028564D01*
X0331746Y0045099D01*
X0327415Y0049430D01*
X0323282Y0048643D02*
X0323516Y0048589D01*
X0323750Y0048531D01*
X0323981Y0048466D01*
X0324211Y0048396D01*
X0324439Y0048320D01*
X0324666Y0048239D01*
X0324890Y0048153D01*
X0325112Y0048060D01*
X0325332Y0047963D01*
X0325549Y0047860D01*
X0325764Y0047752D01*
X0325976Y0047639D01*
X0326186Y0047520D01*
X0326392Y0047397D01*
X0326595Y0047269D01*
X0326795Y0047135D01*
X0326992Y0046997D01*
X0327186Y0046854D01*
X0327376Y0046707D01*
X0327562Y0046555D01*
X0327744Y0046398D01*
X0327923Y0046237D01*
X0328097Y0046072D01*
X0328268Y0045902D01*
X0328434Y0045729D01*
X0328597Y0045551D01*
X0328754Y0045370D01*
X0328908Y0045184D01*
X0329056Y0044995D01*
X0329200Y0044803D01*
X0329340Y0044607D01*
X0329474Y0044408D01*
X0329604Y0044205D01*
X0329729Y0044000D01*
X0329849Y0043791D01*
X0329963Y0043580D01*
X0330073Y0043366D01*
X0330177Y0043149D01*
X0330276Y0042930D01*
X0330369Y0042708D01*
X0330457Y0042484D01*
X0330540Y0042259D01*
X0330617Y0042031D01*
X0330688Y0041801D01*
X0330754Y0041570D01*
X0330815Y0041337D01*
X0330869Y0041103D01*
X0330918Y0040868D01*
X0330961Y0040631D01*
X0330999Y0040394D01*
X0331030Y0040155D01*
X0331056Y0039916D01*
X0331076Y0039676D01*
X0331090Y0039436D01*
X0331099Y0039196D01*
X0331101Y0038956D01*
X0331098Y0038715D01*
X0331088Y0038475D01*
X0331073Y0038235D01*
X0331052Y0037995D01*
X0331026Y0037756D01*
X0330993Y0037518D01*
X0330955Y0037281D01*
X0330911Y0037044D01*
X0330861Y0036809D01*
X0330805Y0036575D01*
X0330744Y0036343D01*
X0330677Y0036112D01*
X0330605Y0035882D01*
X0330527Y0035655D01*
X0330443Y0035429D01*
X0330354Y0035206D01*
X0330260Y0034985D01*
X0330160Y0034766D01*
X0330055Y0034550D01*
X0329945Y0034336D01*
X0329830Y0034125D01*
X0329709Y0033917D01*
X0329584Y0033712D01*
X0329453Y0033510D01*
X0329318Y0033311D01*
X0329178Y0033116D01*
X0329033Y0032924D01*
X0328883Y0032736D01*
X0328729Y0032551D01*
X0328571Y0032370D01*
X0328408Y0032193D01*
X0328241Y0032020D01*
X0328070Y0031851D01*
X0327894Y0031687D01*
X0327715Y0031526D01*
X0327532Y0031371D01*
X0327345Y0031219D01*
X0327155Y0031072D01*
X0326961Y0030930D01*
X0326763Y0030793D01*
X0326563Y0030660D01*
X0326359Y0030533D01*
X0326152Y0030410D01*
X0325942Y0030293D01*
X0325730Y0030180D01*
X0325515Y0030073D01*
X0325297Y0029971D01*
X0325077Y0029874D01*
X0324854Y0029783D01*
X0324629Y0029697D01*
X0324403Y0029617D01*
X0324174Y0029542D01*
X0323944Y0029473D01*
X0323712Y0029410D01*
X0323479Y0029352D01*
X0319148Y0029351D02*
X0318916Y0029404D01*
X0318685Y0029463D01*
X0318456Y0029527D01*
X0318229Y0029598D01*
X0318003Y0029673D01*
X0317779Y0029754D01*
X0317557Y0029841D01*
X0317338Y0029933D01*
X0317121Y0030030D01*
X0316906Y0030133D01*
X0316694Y0030241D01*
X0316484Y0030354D01*
X0316277Y0030472D01*
X0316074Y0030595D01*
X0315873Y0030723D01*
X0315675Y0030856D01*
X0315481Y0030993D01*
X0315290Y0031136D01*
X0315103Y0031283D01*
X0314919Y0031434D01*
X0314740Y0031590D01*
X0314564Y0031750D01*
X0314392Y0031915D01*
X0314224Y0032084D01*
X0314060Y0032256D01*
X0313900Y0032433D01*
X0313745Y0032614D01*
X0313594Y0032798D01*
X0313448Y0032986D01*
X0313307Y0033177D01*
X0313170Y0033372D01*
X0313038Y0033570D01*
X0312911Y0033771D01*
X0312788Y0033976D01*
X0312671Y0034183D01*
X0312559Y0034393D01*
X0312452Y0034606D01*
X0312350Y0034821D01*
X0312254Y0035038D01*
X0312163Y0035258D01*
X0312077Y0035480D01*
X0311997Y0035705D01*
X0311922Y0035931D01*
X0311853Y0036158D01*
X0311789Y0036388D01*
X0311731Y0036619D01*
X0311679Y0036851D01*
X0311632Y0037084D01*
X0311591Y0037319D01*
X0311556Y0037554D01*
X0311527Y0037790D01*
X0311503Y0038027D01*
X0311485Y0038265D01*
X0311473Y0038502D01*
X0311467Y0038740D01*
X0311467Y0038978D01*
X0311472Y0039216D01*
X0311483Y0039454D01*
X0311500Y0039692D01*
X0311523Y0039929D01*
X0311551Y0040165D01*
X0311586Y0040401D01*
X0311626Y0040635D01*
X0311671Y0040869D01*
X0311723Y0041101D01*
X0311780Y0041332D01*
X0311843Y0041562D01*
X0311911Y0041790D01*
X0311985Y0042016D01*
X0312064Y0042241D01*
X0312149Y0042463D01*
X0312239Y0042684D01*
X0312335Y0042902D01*
X0312436Y0043117D01*
X0312542Y0043330D01*
X0312653Y0043541D01*
X0312770Y0043748D01*
X0312891Y0043953D01*
X0313018Y0044155D01*
X0313149Y0044353D01*
X0313285Y0044549D01*
X0313426Y0044741D01*
X0313571Y0044929D01*
X0313721Y0045114D01*
X0313876Y0045295D01*
X0314035Y0045472D01*
X0314198Y0045646D01*
X0314365Y0045815D01*
X0314537Y0045980D01*
X0314712Y0046141D01*
X0314891Y0046298D01*
X0315074Y0046450D01*
X0315261Y0046598D01*
X0315451Y0046741D01*
X0315645Y0046879D01*
X0315842Y0047013D01*
X0316042Y0047141D01*
X0316245Y0047265D01*
X0316452Y0047384D01*
X0316661Y0047498D01*
X0316873Y0047607D01*
X0317087Y0047710D01*
X0317304Y0047808D01*
X0317523Y0047901D01*
X0317745Y0047988D01*
X0317968Y0048070D01*
X0318193Y0048147D01*
X0318421Y0048218D01*
X0318650Y0048283D01*
X0318880Y0048343D01*
X0319112Y0048397D01*
X0319345Y0048446D01*
X0218039Y0068758D02*
X0216926Y0069871D01*
X0215812Y0068758D01*
D16*
X0187425Y0059118D02*
X0187425Y0049276D01*
X0183094Y0049276D02*
X0179157Y0049276D01*
X0174826Y0049276D02*
X0174826Y0058921D01*
X0179157Y0059118D02*
X0183094Y0059118D01*
X0158863Y0048261D02*
X0156461Y0048261D01*
X0158863Y0048261D02*
X0158863Y0043339D01*
X0156067Y0043339D02*
X0153744Y0043339D01*
X0150989Y0043339D02*
X0150989Y0048261D01*
X0153430Y0048261D01*
X0173482Y0046323D02*
X0173484Y0046370D01*
X0173490Y0046416D01*
X0173499Y0046462D01*
X0173513Y0046506D01*
X0173530Y0046550D01*
X0173551Y0046591D01*
X0173575Y0046631D01*
X0173602Y0046669D01*
X0173633Y0046704D01*
X0173666Y0046737D01*
X0173702Y0046767D01*
X0173741Y0046793D01*
X0173781Y0046817D01*
X0173823Y0046836D01*
X0173867Y0046853D01*
X0173912Y0046865D01*
X0173958Y0046874D01*
X0174004Y0046879D01*
X0174051Y0046880D01*
X0174097Y0046877D01*
X0174143Y0046870D01*
X0174189Y0046859D01*
X0174233Y0046845D01*
X0174276Y0046827D01*
X0174317Y0046805D01*
X0174357Y0046780D01*
X0174394Y0046752D01*
X0174429Y0046721D01*
X0174461Y0046687D01*
X0174490Y0046650D01*
X0174515Y0046612D01*
X0174538Y0046571D01*
X0174557Y0046528D01*
X0174572Y0046484D01*
X0174584Y0046439D01*
X0174592Y0046393D01*
X0174596Y0046346D01*
X0174596Y0046300D01*
X0174592Y0046253D01*
X0174584Y0046207D01*
X0174572Y0046162D01*
X0174557Y0046118D01*
X0174538Y0046075D01*
X0174515Y0046034D01*
X0174490Y0045996D01*
X0174461Y0045959D01*
X0174429Y0045925D01*
X0174394Y0045894D01*
X0174357Y0045866D01*
X0174318Y0045841D01*
X0174276Y0045819D01*
X0174233Y0045801D01*
X0174189Y0045787D01*
X0174143Y0045776D01*
X0174097Y0045769D01*
X0174051Y0045766D01*
X0174004Y0045767D01*
X0173958Y0045772D01*
X0173912Y0045781D01*
X0173867Y0045793D01*
X0173823Y0045810D01*
X0173781Y0045829D01*
X0173741Y0045853D01*
X0173702Y0045879D01*
X0173666Y0045909D01*
X0173633Y0045942D01*
X0173602Y0045977D01*
X0173575Y0046015D01*
X0173551Y0046055D01*
X0173530Y0046096D01*
X0173513Y0046140D01*
X0173499Y0046184D01*
X0173490Y0046230D01*
X0173484Y0046276D01*
X0173482Y0046323D01*
X0218930Y0023937D02*
X0218932Y0023993D01*
X0218938Y0024048D01*
X0218948Y0024103D01*
X0218962Y0024156D01*
X0218979Y0024209D01*
X0219000Y0024261D01*
X0219025Y0024310D01*
X0219054Y0024358D01*
X0219085Y0024404D01*
X0219120Y0024447D01*
X0219158Y0024488D01*
X0219199Y0024526D01*
X0219242Y0024561D01*
X0219288Y0024592D01*
X0219336Y0024621D01*
X0219385Y0024646D01*
X0219437Y0024667D01*
X0219490Y0024684D01*
X0219543Y0024698D01*
X0219598Y0024708D01*
X0219653Y0024714D01*
X0219709Y0024716D01*
X0219765Y0024714D01*
X0219820Y0024708D01*
X0219875Y0024698D01*
X0219928Y0024684D01*
X0219981Y0024667D01*
X0220033Y0024646D01*
X0220082Y0024621D01*
X0220130Y0024592D01*
X0220176Y0024561D01*
X0220219Y0024526D01*
X0220260Y0024488D01*
X0220298Y0024447D01*
X0220333Y0024404D01*
X0220364Y0024358D01*
X0220393Y0024310D01*
X0220418Y0024261D01*
X0220439Y0024209D01*
X0220456Y0024156D01*
X0220470Y0024103D01*
X0220480Y0024048D01*
X0220486Y0023993D01*
X0220488Y0023937D01*
X0220486Y0023881D01*
X0220480Y0023826D01*
X0220470Y0023771D01*
X0220456Y0023718D01*
X0220439Y0023665D01*
X0220418Y0023613D01*
X0220393Y0023564D01*
X0220364Y0023516D01*
X0220333Y0023470D01*
X0220298Y0023427D01*
X0220260Y0023386D01*
X0220219Y0023348D01*
X0220176Y0023313D01*
X0220130Y0023282D01*
X0220082Y0023253D01*
X0220033Y0023228D01*
X0219981Y0023207D01*
X0219928Y0023190D01*
X0219875Y0023176D01*
X0219820Y0023166D01*
X0219765Y0023160D01*
X0219709Y0023158D01*
X0219653Y0023160D01*
X0219598Y0023166D01*
X0219543Y0023176D01*
X0219490Y0023190D01*
X0219437Y0023207D01*
X0219385Y0023228D01*
X0219336Y0023253D01*
X0219288Y0023282D01*
X0219242Y0023313D01*
X0219199Y0023348D01*
X0219158Y0023386D01*
X0219120Y0023427D01*
X0219085Y0023470D01*
X0219054Y0023516D01*
X0219025Y0023564D01*
X0219000Y0023613D01*
X0218979Y0023665D01*
X0218962Y0023718D01*
X0218948Y0023771D01*
X0218938Y0023826D01*
X0218932Y0023881D01*
X0218930Y0023937D01*
X0264624Y0050001D02*
X0274325Y0050001D01*
X0274325Y0067599D02*
X0264624Y0067599D01*
X0046526Y0065433D02*
X0046526Y0030000D01*
X0016998Y0030000D01*
X0016998Y0065433D01*
X0046526Y0065433D01*
X0018060Y0024291D02*
X0018062Y0024344D01*
X0018068Y0024397D01*
X0018078Y0024449D01*
X0018092Y0024500D01*
X0018109Y0024550D01*
X0018130Y0024599D01*
X0018155Y0024646D01*
X0018183Y0024691D01*
X0018215Y0024734D01*
X0018250Y0024774D01*
X0018287Y0024811D01*
X0018327Y0024846D01*
X0018370Y0024878D01*
X0018415Y0024906D01*
X0018462Y0024931D01*
X0018511Y0024952D01*
X0018561Y0024969D01*
X0018612Y0024983D01*
X0018664Y0024993D01*
X0018717Y0024999D01*
X0018770Y0025001D01*
X0018823Y0024999D01*
X0018876Y0024993D01*
X0018928Y0024983D01*
X0018979Y0024969D01*
X0019029Y0024952D01*
X0019078Y0024931D01*
X0019125Y0024906D01*
X0019170Y0024878D01*
X0019213Y0024846D01*
X0019253Y0024811D01*
X0019290Y0024774D01*
X0019325Y0024734D01*
X0019357Y0024691D01*
X0019385Y0024646D01*
X0019410Y0024599D01*
X0019431Y0024550D01*
X0019448Y0024500D01*
X0019462Y0024449D01*
X0019472Y0024397D01*
X0019478Y0024344D01*
X0019480Y0024291D01*
X0019478Y0024238D01*
X0019472Y0024185D01*
X0019462Y0024133D01*
X0019448Y0024082D01*
X0019431Y0024032D01*
X0019410Y0023983D01*
X0019385Y0023936D01*
X0019357Y0023891D01*
X0019325Y0023848D01*
X0019290Y0023808D01*
X0019253Y0023771D01*
X0019213Y0023736D01*
X0019170Y0023704D01*
X0019125Y0023676D01*
X0019078Y0023651D01*
X0019029Y0023630D01*
X0018979Y0023613D01*
X0018928Y0023599D01*
X0018876Y0023589D01*
X0018823Y0023583D01*
X0018770Y0023581D01*
X0018717Y0023583D01*
X0018664Y0023589D01*
X0018612Y0023599D01*
X0018561Y0023613D01*
X0018511Y0023630D01*
X0018462Y0023651D01*
X0018415Y0023676D01*
X0018370Y0023704D01*
X0018327Y0023736D01*
X0018287Y0023771D01*
X0018250Y0023808D01*
X0018215Y0023848D01*
X0018183Y0023891D01*
X0018155Y0023936D01*
X0018130Y0023983D01*
X0018109Y0024032D01*
X0018092Y0024082D01*
X0018078Y0024133D01*
X0018068Y0024185D01*
X0018062Y0024238D01*
X0018060Y0024291D01*
D17*
X0024926Y0074000D03*
X0157326Y0060400D03*
D18*
X0149112Y0040870D02*
X0145976Y0037734D01*
X0147544Y0037734D02*
X0147544Y0040870D01*
X0145976Y0040870D02*
X0149112Y0037734D01*
X0149112Y0039302D02*
X0145976Y0039302D01*
D19*
X0137126Y0041090D02*
X0137126Y0041310D01*
X0049836Y0024400D02*
X0049616Y0024400D01*
D20*
X0136926Y0030600D03*
X0136926Y0036000D03*
D21*
X0337115Y0045811D02*
X0337115Y0049748D01*
X0341052Y0049748D01*
X0352863Y0049748D02*
X0356800Y0049748D01*
X0337115Y0022189D02*
X0337115Y0018252D01*
X0337186Y0018280D02*
X0341052Y0018280D01*
X0341052Y0018252D01*
X0352863Y0018252D02*
X0356800Y0018252D01*
D22*
X0173776Y0033400D02*
X0173778Y0033512D01*
X0173784Y0033623D01*
X0173794Y0033735D01*
X0173808Y0033846D01*
X0173825Y0033956D01*
X0173847Y0034066D01*
X0173873Y0034175D01*
X0173902Y0034283D01*
X0173935Y0034389D01*
X0173972Y0034495D01*
X0174013Y0034599D01*
X0174058Y0034702D01*
X0174106Y0034803D01*
X0174157Y0034902D01*
X0174212Y0034999D01*
X0174271Y0035094D01*
X0174332Y0035188D01*
X0174397Y0035279D01*
X0174466Y0035367D01*
X0174537Y0035453D01*
X0174611Y0035537D01*
X0174689Y0035617D01*
X0174769Y0035695D01*
X0174852Y0035771D01*
X0174937Y0035843D01*
X0175025Y0035912D01*
X0175115Y0035978D01*
X0175208Y0036040D01*
X0175303Y0036100D01*
X0175400Y0036156D01*
X0175498Y0036208D01*
X0175599Y0036257D01*
X0175701Y0036302D01*
X0175805Y0036344D01*
X0175910Y0036382D01*
X0176017Y0036416D01*
X0176124Y0036446D01*
X0176233Y0036473D01*
X0176342Y0036495D01*
X0176453Y0036514D01*
X0176563Y0036529D01*
X0176675Y0036540D01*
X0176786Y0036547D01*
X0176898Y0036550D01*
X0177010Y0036549D01*
X0177122Y0036544D01*
X0177233Y0036535D01*
X0177344Y0036522D01*
X0177455Y0036505D01*
X0177565Y0036485D01*
X0177674Y0036460D01*
X0177782Y0036432D01*
X0177889Y0036399D01*
X0177995Y0036363D01*
X0178099Y0036323D01*
X0178202Y0036280D01*
X0178304Y0036233D01*
X0178403Y0036182D01*
X0178501Y0036128D01*
X0178597Y0036070D01*
X0178691Y0036009D01*
X0178782Y0035945D01*
X0178871Y0035878D01*
X0178958Y0035807D01*
X0179042Y0035733D01*
X0179124Y0035657D01*
X0179202Y0035577D01*
X0179278Y0035495D01*
X0179351Y0035410D01*
X0179421Y0035323D01*
X0179487Y0035233D01*
X0179551Y0035141D01*
X0179611Y0035047D01*
X0179668Y0034951D01*
X0179721Y0034852D01*
X0179771Y0034752D01*
X0179817Y0034651D01*
X0179860Y0034547D01*
X0179899Y0034442D01*
X0179934Y0034336D01*
X0179965Y0034229D01*
X0179993Y0034120D01*
X0180016Y0034011D01*
X0180036Y0033901D01*
X0180052Y0033790D01*
X0180064Y0033679D01*
X0180072Y0033568D01*
X0180076Y0033456D01*
X0180076Y0033344D01*
X0180072Y0033232D01*
X0180064Y0033121D01*
X0180052Y0033010D01*
X0180036Y0032899D01*
X0180016Y0032789D01*
X0179993Y0032680D01*
X0179965Y0032571D01*
X0179934Y0032464D01*
X0179899Y0032358D01*
X0179860Y0032253D01*
X0179817Y0032149D01*
X0179771Y0032048D01*
X0179721Y0031948D01*
X0179668Y0031849D01*
X0179611Y0031753D01*
X0179551Y0031659D01*
X0179487Y0031567D01*
X0179421Y0031477D01*
X0179351Y0031390D01*
X0179278Y0031305D01*
X0179202Y0031223D01*
X0179124Y0031143D01*
X0179042Y0031067D01*
X0178958Y0030993D01*
X0178871Y0030922D01*
X0178782Y0030855D01*
X0178691Y0030791D01*
X0178597Y0030730D01*
X0178501Y0030672D01*
X0178403Y0030618D01*
X0178304Y0030567D01*
X0178202Y0030520D01*
X0178099Y0030477D01*
X0177995Y0030437D01*
X0177889Y0030401D01*
X0177782Y0030368D01*
X0177674Y0030340D01*
X0177565Y0030315D01*
X0177455Y0030295D01*
X0177344Y0030278D01*
X0177233Y0030265D01*
X0177122Y0030256D01*
X0177010Y0030251D01*
X0176898Y0030250D01*
X0176786Y0030253D01*
X0176675Y0030260D01*
X0176563Y0030271D01*
X0176453Y0030286D01*
X0176342Y0030305D01*
X0176233Y0030327D01*
X0176124Y0030354D01*
X0176017Y0030384D01*
X0175910Y0030418D01*
X0175805Y0030456D01*
X0175701Y0030498D01*
X0175599Y0030543D01*
X0175498Y0030592D01*
X0175400Y0030644D01*
X0175303Y0030700D01*
X0175208Y0030760D01*
X0175115Y0030822D01*
X0175025Y0030888D01*
X0174937Y0030957D01*
X0174852Y0031029D01*
X0174769Y0031105D01*
X0174689Y0031183D01*
X0174611Y0031263D01*
X0174537Y0031347D01*
X0174466Y0031433D01*
X0174397Y0031521D01*
X0174332Y0031612D01*
X0174271Y0031706D01*
X0174212Y0031801D01*
X0174157Y0031898D01*
X0174106Y0031997D01*
X0174058Y0032098D01*
X0174013Y0032201D01*
X0173972Y0032305D01*
X0173935Y0032411D01*
X0173902Y0032517D01*
X0173873Y0032625D01*
X0173847Y0032734D01*
X0173825Y0032844D01*
X0173808Y0032954D01*
X0173794Y0033065D01*
X0173784Y0033177D01*
X0173778Y0033288D01*
X0173776Y0033400D01*
X0137776Y0056400D02*
X0137778Y0056512D01*
X0137784Y0056623D01*
X0137794Y0056735D01*
X0137808Y0056846D01*
X0137825Y0056956D01*
X0137847Y0057066D01*
X0137873Y0057175D01*
X0137902Y0057283D01*
X0137935Y0057389D01*
X0137972Y0057495D01*
X0138013Y0057599D01*
X0138058Y0057702D01*
X0138106Y0057803D01*
X0138157Y0057902D01*
X0138212Y0057999D01*
X0138271Y0058094D01*
X0138332Y0058188D01*
X0138397Y0058279D01*
X0138466Y0058367D01*
X0138537Y0058453D01*
X0138611Y0058537D01*
X0138689Y0058617D01*
X0138769Y0058695D01*
X0138852Y0058771D01*
X0138937Y0058843D01*
X0139025Y0058912D01*
X0139115Y0058978D01*
X0139208Y0059040D01*
X0139303Y0059100D01*
X0139400Y0059156D01*
X0139498Y0059208D01*
X0139599Y0059257D01*
X0139701Y0059302D01*
X0139805Y0059344D01*
X0139910Y0059382D01*
X0140017Y0059416D01*
X0140124Y0059446D01*
X0140233Y0059473D01*
X0140342Y0059495D01*
X0140453Y0059514D01*
X0140563Y0059529D01*
X0140675Y0059540D01*
X0140786Y0059547D01*
X0140898Y0059550D01*
X0141010Y0059549D01*
X0141122Y0059544D01*
X0141233Y0059535D01*
X0141344Y0059522D01*
X0141455Y0059505D01*
X0141565Y0059485D01*
X0141674Y0059460D01*
X0141782Y0059432D01*
X0141889Y0059399D01*
X0141995Y0059363D01*
X0142099Y0059323D01*
X0142202Y0059280D01*
X0142304Y0059233D01*
X0142403Y0059182D01*
X0142501Y0059128D01*
X0142597Y0059070D01*
X0142691Y0059009D01*
X0142782Y0058945D01*
X0142871Y0058878D01*
X0142958Y0058807D01*
X0143042Y0058733D01*
X0143124Y0058657D01*
X0143202Y0058577D01*
X0143278Y0058495D01*
X0143351Y0058410D01*
X0143421Y0058323D01*
X0143487Y0058233D01*
X0143551Y0058141D01*
X0143611Y0058047D01*
X0143668Y0057951D01*
X0143721Y0057852D01*
X0143771Y0057752D01*
X0143817Y0057651D01*
X0143860Y0057547D01*
X0143899Y0057442D01*
X0143934Y0057336D01*
X0143965Y0057229D01*
X0143993Y0057120D01*
X0144016Y0057011D01*
X0144036Y0056901D01*
X0144052Y0056790D01*
X0144064Y0056679D01*
X0144072Y0056568D01*
X0144076Y0056456D01*
X0144076Y0056344D01*
X0144072Y0056232D01*
X0144064Y0056121D01*
X0144052Y0056010D01*
X0144036Y0055899D01*
X0144016Y0055789D01*
X0143993Y0055680D01*
X0143965Y0055571D01*
X0143934Y0055464D01*
X0143899Y0055358D01*
X0143860Y0055253D01*
X0143817Y0055149D01*
X0143771Y0055048D01*
X0143721Y0054948D01*
X0143668Y0054849D01*
X0143611Y0054753D01*
X0143551Y0054659D01*
X0143487Y0054567D01*
X0143421Y0054477D01*
X0143351Y0054390D01*
X0143278Y0054305D01*
X0143202Y0054223D01*
X0143124Y0054143D01*
X0143042Y0054067D01*
X0142958Y0053993D01*
X0142871Y0053922D01*
X0142782Y0053855D01*
X0142691Y0053791D01*
X0142597Y0053730D01*
X0142501Y0053672D01*
X0142403Y0053618D01*
X0142304Y0053567D01*
X0142202Y0053520D01*
X0142099Y0053477D01*
X0141995Y0053437D01*
X0141889Y0053401D01*
X0141782Y0053368D01*
X0141674Y0053340D01*
X0141565Y0053315D01*
X0141455Y0053295D01*
X0141344Y0053278D01*
X0141233Y0053265D01*
X0141122Y0053256D01*
X0141010Y0053251D01*
X0140898Y0053250D01*
X0140786Y0053253D01*
X0140675Y0053260D01*
X0140563Y0053271D01*
X0140453Y0053286D01*
X0140342Y0053305D01*
X0140233Y0053327D01*
X0140124Y0053354D01*
X0140017Y0053384D01*
X0139910Y0053418D01*
X0139805Y0053456D01*
X0139701Y0053498D01*
X0139599Y0053543D01*
X0139498Y0053592D01*
X0139400Y0053644D01*
X0139303Y0053700D01*
X0139208Y0053760D01*
X0139115Y0053822D01*
X0139025Y0053888D01*
X0138937Y0053957D01*
X0138852Y0054029D01*
X0138769Y0054105D01*
X0138689Y0054183D01*
X0138611Y0054263D01*
X0138537Y0054347D01*
X0138466Y0054433D01*
X0138397Y0054521D01*
X0138332Y0054612D01*
X0138271Y0054706D01*
X0138212Y0054801D01*
X0138157Y0054898D01*
X0138106Y0054997D01*
X0138058Y0055098D01*
X0138013Y0055201D01*
X0137972Y0055305D01*
X0137935Y0055411D01*
X0137902Y0055517D01*
X0137873Y0055625D01*
X0137847Y0055734D01*
X0137825Y0055844D01*
X0137808Y0055954D01*
X0137794Y0056065D01*
X0137784Y0056177D01*
X0137778Y0056288D01*
X0137776Y0056400D01*
M02*
