G75*
%MOIN*%
%OFA0B0*%
%FSLAX25Y25*%
%IPPOS*%
%LPD*%
%AMOC8*
5,1,8,0,0,1.08239X$1,22.5*
%
%ADD10C,0.06000*%
%ADD11C,0.07087*%
%ADD12C,0.00700*%
%ADD13C,0.02400*%
%ADD14C,0.05315*%
%ADD15C,0.04134*%
D10*
X0076926Y0017600D03*
X0086926Y0017600D03*
X0096926Y0017600D03*
X0106926Y0017600D03*
X0116926Y0017600D03*
X0126926Y0017600D03*
X0136926Y0017600D03*
X0146926Y0017600D03*
X0156926Y0017600D03*
X0166926Y0017600D03*
X0176926Y0017600D03*
X0186926Y0017600D03*
X0196926Y0017600D03*
X0206926Y0017600D03*
X0216926Y0017600D03*
X0226926Y0017600D03*
X0236926Y0017600D03*
X0246926Y0017600D03*
X0256926Y0017600D03*
X0266926Y0017600D03*
X0276926Y0017600D03*
X0286926Y0017600D03*
X0296926Y0017600D03*
X0306926Y0017600D03*
X0316926Y0017600D03*
X0337126Y0064400D03*
X0337126Y0074400D03*
X0316926Y0077600D03*
X0306926Y0077600D03*
X0296926Y0077600D03*
X0286926Y0077600D03*
X0276926Y0077600D03*
X0266926Y0077600D03*
X0256926Y0077600D03*
X0246926Y0077600D03*
X0236926Y0077600D03*
X0226926Y0077600D03*
X0216926Y0077600D03*
X0206926Y0077600D03*
X0196926Y0077600D03*
X0186926Y0077600D03*
X0176926Y0077600D03*
X0166926Y0077600D03*
X0156926Y0077600D03*
X0146926Y0077600D03*
X0136926Y0077600D03*
X0126926Y0077600D03*
X0116926Y0062600D03*
X0116926Y0052600D03*
X0116926Y0042600D03*
X0116926Y0032600D03*
D11*
X0077926Y0029461D03*
X0077926Y0043241D03*
X0077926Y0057020D03*
X0077926Y0070800D03*
D12*
X0018276Y0068409D02*
X0018276Y0013950D01*
X0075416Y0013950D01*
X0074688Y0014251D01*
X0073577Y0015362D01*
X0072976Y0016814D01*
X0072976Y0018386D01*
X0073577Y0019837D01*
X0074688Y0020949D01*
X0076140Y0021550D01*
X0077711Y0021550D01*
X0079163Y0020949D01*
X0080274Y0019837D01*
X0080876Y0018386D01*
X0080876Y0016814D01*
X0080274Y0015362D01*
X0079163Y0014251D01*
X0078435Y0013950D01*
X0085416Y0013950D01*
X0084688Y0014251D01*
X0083577Y0015362D01*
X0082976Y0016814D01*
X0082976Y0018386D01*
X0083577Y0019837D01*
X0084688Y0020949D01*
X0086140Y0021550D01*
X0087711Y0021550D01*
X0089163Y0020949D01*
X0090274Y0019837D01*
X0090876Y0018386D01*
X0090876Y0016814D01*
X0090274Y0015362D01*
X0089163Y0014251D01*
X0088435Y0013950D01*
X0094549Y0013950D01*
X0094092Y0014282D01*
X0093608Y0014766D01*
X0093205Y0015320D01*
X0092894Y0015930D01*
X0092683Y0016581D01*
X0092577Y0017250D01*
X0096576Y0017250D01*
X0096576Y0017950D01*
X0096576Y0021949D01*
X0095907Y0021843D01*
X0095256Y0021631D01*
X0094646Y0021320D01*
X0094092Y0020918D01*
X0093608Y0020434D01*
X0093205Y0019880D01*
X0092894Y0019270D01*
X0092683Y0018619D01*
X0092577Y0017950D01*
X0096576Y0017950D01*
X0097276Y0017950D01*
X0101274Y0017950D01*
X0101168Y0018619D01*
X0100957Y0019270D01*
X0100646Y0019880D01*
X0100244Y0020434D01*
X0099759Y0020918D01*
X0099205Y0021320D01*
X0098595Y0021631D01*
X0097944Y0021843D01*
X0097276Y0021949D01*
X0097276Y0017950D01*
X0097276Y0017250D01*
X0101274Y0017250D01*
X0101168Y0016581D01*
X0100957Y0015930D01*
X0100646Y0015320D01*
X0100244Y0014766D01*
X0099759Y0014282D01*
X0099302Y0013950D01*
X0105416Y0013950D01*
X0104688Y0014251D01*
X0103577Y0015362D01*
X0102976Y0016814D01*
X0102976Y0018386D01*
X0103577Y0019837D01*
X0104688Y0020949D01*
X0106140Y0021550D01*
X0107711Y0021550D01*
X0109163Y0020949D01*
X0110274Y0019837D01*
X0110876Y0018386D01*
X0110876Y0016814D01*
X0110274Y0015362D01*
X0109163Y0014251D01*
X0108435Y0013950D01*
X0115416Y0013950D01*
X0114688Y0014251D01*
X0113577Y0015362D01*
X0112976Y0016814D01*
X0112976Y0018386D01*
X0113577Y0019837D01*
X0114688Y0020949D01*
X0116140Y0021550D01*
X0117711Y0021550D01*
X0119163Y0020949D01*
X0120274Y0019837D01*
X0120876Y0018386D01*
X0120876Y0016814D01*
X0120274Y0015362D01*
X0119163Y0014251D01*
X0118435Y0013950D01*
X0125416Y0013950D01*
X0124688Y0014251D01*
X0123577Y0015362D01*
X0122976Y0016814D01*
X0122976Y0018386D01*
X0123577Y0019837D01*
X0124688Y0020949D01*
X0126140Y0021550D01*
X0127711Y0021550D01*
X0129163Y0020949D01*
X0130274Y0019837D01*
X0130876Y0018386D01*
X0130876Y0016814D01*
X0130274Y0015362D01*
X0129163Y0014251D01*
X0128435Y0013950D01*
X0135416Y0013950D01*
X0134688Y0014251D01*
X0133577Y0015362D01*
X0132976Y0016814D01*
X0132976Y0018386D01*
X0133577Y0019837D01*
X0134688Y0020949D01*
X0136140Y0021550D01*
X0137711Y0021550D01*
X0139163Y0020949D01*
X0140274Y0019837D01*
X0140876Y0018386D01*
X0140876Y0016814D01*
X0140274Y0015362D01*
X0139163Y0014251D01*
X0138435Y0013950D01*
X0145416Y0013950D01*
X0144688Y0014251D01*
X0143577Y0015362D01*
X0142976Y0016814D01*
X0142976Y0018386D01*
X0143577Y0019837D01*
X0144688Y0020949D01*
X0146140Y0021550D01*
X0147711Y0021550D01*
X0149163Y0020949D01*
X0150274Y0019837D01*
X0150876Y0018386D01*
X0150876Y0016814D01*
X0150274Y0015362D01*
X0149163Y0014251D01*
X0148435Y0013950D01*
X0155416Y0013950D01*
X0154688Y0014251D01*
X0153577Y0015362D01*
X0152976Y0016814D01*
X0152976Y0018386D01*
X0153577Y0019837D01*
X0154688Y0020949D01*
X0156140Y0021550D01*
X0157711Y0021550D01*
X0159163Y0020949D01*
X0160274Y0019837D01*
X0160876Y0018386D01*
X0160876Y0016814D01*
X0160274Y0015362D01*
X0159163Y0014251D01*
X0158435Y0013950D01*
X0165416Y0013950D01*
X0164688Y0014251D01*
X0163577Y0015362D01*
X0162976Y0016814D01*
X0162976Y0018386D01*
X0163577Y0019837D01*
X0164688Y0020949D01*
X0166140Y0021550D01*
X0167711Y0021550D01*
X0169163Y0020949D01*
X0170274Y0019837D01*
X0170876Y0018386D01*
X0170876Y0016814D01*
X0170274Y0015362D01*
X0169163Y0014251D01*
X0168435Y0013950D01*
X0175416Y0013950D01*
X0174688Y0014251D01*
X0173577Y0015362D01*
X0172976Y0016814D01*
X0172976Y0018386D01*
X0173577Y0019837D01*
X0174688Y0020949D01*
X0176140Y0021550D01*
X0177711Y0021550D01*
X0179163Y0020949D01*
X0180274Y0019837D01*
X0180876Y0018386D01*
X0180876Y0016814D01*
X0180274Y0015362D01*
X0179163Y0014251D01*
X0178435Y0013950D01*
X0185416Y0013950D01*
X0184688Y0014251D01*
X0183577Y0015362D01*
X0182976Y0016814D01*
X0182976Y0018386D01*
X0183577Y0019837D01*
X0184688Y0020949D01*
X0186140Y0021550D01*
X0187711Y0021550D01*
X0189163Y0020949D01*
X0190274Y0019837D01*
X0190876Y0018386D01*
X0190876Y0016814D01*
X0190274Y0015362D01*
X0189163Y0014251D01*
X0188435Y0013950D01*
X0195416Y0013950D01*
X0194688Y0014251D01*
X0193577Y0015362D01*
X0192976Y0016814D01*
X0192976Y0018386D01*
X0193577Y0019837D01*
X0194688Y0020949D01*
X0196140Y0021550D01*
X0197711Y0021550D01*
X0199163Y0020949D01*
X0200274Y0019837D01*
X0200876Y0018386D01*
X0200876Y0016814D01*
X0200274Y0015362D01*
X0199163Y0014251D01*
X0198435Y0013950D01*
X0205416Y0013950D01*
X0204688Y0014251D01*
X0203577Y0015362D01*
X0202976Y0016814D01*
X0202976Y0018386D01*
X0203577Y0019837D01*
X0204688Y0020949D01*
X0206140Y0021550D01*
X0207711Y0021550D01*
X0209163Y0020949D01*
X0210274Y0019837D01*
X0210876Y0018386D01*
X0210876Y0016814D01*
X0210274Y0015362D01*
X0209163Y0014251D01*
X0208435Y0013950D01*
X0215416Y0013950D01*
X0214688Y0014251D01*
X0213577Y0015362D01*
X0212976Y0016814D01*
X0212976Y0018386D01*
X0213577Y0019837D01*
X0214688Y0020949D01*
X0216140Y0021550D01*
X0217711Y0021550D01*
X0219163Y0020949D01*
X0220274Y0019837D01*
X0220876Y0018386D01*
X0220876Y0016814D01*
X0220274Y0015362D01*
X0219163Y0014251D01*
X0218435Y0013950D01*
X0225416Y0013950D01*
X0224688Y0014251D01*
X0223577Y0015362D01*
X0222976Y0016814D01*
X0222976Y0018386D01*
X0223577Y0019837D01*
X0224688Y0020949D01*
X0226140Y0021550D01*
X0227711Y0021550D01*
X0229163Y0020949D01*
X0230274Y0019837D01*
X0230876Y0018386D01*
X0230876Y0016814D01*
X0230274Y0015362D01*
X0229163Y0014251D01*
X0228435Y0013950D01*
X0235416Y0013950D01*
X0234688Y0014251D01*
X0233577Y0015362D01*
X0232976Y0016814D01*
X0232976Y0018386D01*
X0233577Y0019837D01*
X0234688Y0020949D01*
X0236140Y0021550D01*
X0237711Y0021550D01*
X0239163Y0020949D01*
X0240274Y0019837D01*
X0240876Y0018386D01*
X0240876Y0016814D01*
X0240274Y0015362D01*
X0239163Y0014251D01*
X0238435Y0013950D01*
X0245416Y0013950D01*
X0244688Y0014251D01*
X0243577Y0015362D01*
X0242976Y0016814D01*
X0242976Y0018386D01*
X0243577Y0019837D01*
X0244688Y0020949D01*
X0246140Y0021550D01*
X0247711Y0021550D01*
X0249163Y0020949D01*
X0250274Y0019837D01*
X0250876Y0018386D01*
X0250876Y0016814D01*
X0250274Y0015362D01*
X0249163Y0014251D01*
X0248435Y0013950D01*
X0255416Y0013950D01*
X0254688Y0014251D01*
X0253577Y0015362D01*
X0252976Y0016814D01*
X0252976Y0018386D01*
X0253577Y0019837D01*
X0254688Y0020949D01*
X0256140Y0021550D01*
X0257711Y0021550D01*
X0259163Y0020949D01*
X0260274Y0019837D01*
X0260876Y0018386D01*
X0260876Y0016814D01*
X0260274Y0015362D01*
X0259163Y0014251D01*
X0258435Y0013950D01*
X0265416Y0013950D01*
X0264688Y0014251D01*
X0263577Y0015362D01*
X0262976Y0016814D01*
X0262976Y0018386D01*
X0263577Y0019837D01*
X0264688Y0020949D01*
X0266140Y0021550D01*
X0267711Y0021550D01*
X0269163Y0020949D01*
X0270274Y0019837D01*
X0270876Y0018386D01*
X0270876Y0016814D01*
X0270274Y0015362D01*
X0269163Y0014251D01*
X0268435Y0013950D01*
X0275416Y0013950D01*
X0274688Y0014251D01*
X0273577Y0015362D01*
X0272976Y0016814D01*
X0272976Y0018386D01*
X0273577Y0019837D01*
X0274688Y0020949D01*
X0276140Y0021550D01*
X0277711Y0021550D01*
X0279163Y0020949D01*
X0280274Y0019837D01*
X0280876Y0018386D01*
X0280876Y0016814D01*
X0280274Y0015362D01*
X0279163Y0014251D01*
X0278435Y0013950D01*
X0285416Y0013950D01*
X0284688Y0014251D01*
X0283577Y0015362D01*
X0282976Y0016814D01*
X0282976Y0018386D01*
X0283577Y0019837D01*
X0284688Y0020949D01*
X0286140Y0021550D01*
X0287711Y0021550D01*
X0289163Y0020949D01*
X0290274Y0019837D01*
X0290876Y0018386D01*
X0290876Y0016814D01*
X0290274Y0015362D01*
X0289163Y0014251D01*
X0288435Y0013950D01*
X0295416Y0013950D01*
X0294688Y0014251D01*
X0293577Y0015362D01*
X0292976Y0016814D01*
X0292976Y0018386D01*
X0293577Y0019837D01*
X0294688Y0020949D01*
X0296140Y0021550D01*
X0297711Y0021550D01*
X0299163Y0020949D01*
X0300274Y0019837D01*
X0300876Y0018386D01*
X0300876Y0016814D01*
X0300274Y0015362D01*
X0299163Y0014251D01*
X0298435Y0013950D01*
X0304549Y0013950D01*
X0304092Y0014282D01*
X0303608Y0014766D01*
X0303205Y0015320D01*
X0302894Y0015930D01*
X0302683Y0016581D01*
X0302577Y0017250D01*
X0306576Y0017250D01*
X0306576Y0017950D01*
X0306576Y0021949D01*
X0305907Y0021843D01*
X0305256Y0021631D01*
X0304646Y0021320D01*
X0304092Y0020918D01*
X0303608Y0020434D01*
X0303205Y0019880D01*
X0302894Y0019270D01*
X0302683Y0018619D01*
X0302577Y0017950D01*
X0306576Y0017950D01*
X0307276Y0017950D01*
X0311274Y0017950D01*
X0311168Y0018619D01*
X0310957Y0019270D01*
X0310646Y0019880D01*
X0310244Y0020434D01*
X0309759Y0020918D01*
X0309205Y0021320D01*
X0308595Y0021631D01*
X0307944Y0021843D01*
X0307276Y0021949D01*
X0307276Y0017950D01*
X0307276Y0017250D01*
X0311274Y0017250D01*
X0311168Y0016581D01*
X0310957Y0015930D01*
X0310646Y0015320D01*
X0310244Y0014766D01*
X0309759Y0014282D01*
X0309302Y0013950D01*
X0315416Y0013950D01*
X0314688Y0014251D01*
X0313577Y0015362D01*
X0312976Y0016814D01*
X0312976Y0018386D01*
X0313577Y0019837D01*
X0314688Y0020949D01*
X0316140Y0021550D01*
X0317711Y0021550D01*
X0319163Y0020949D01*
X0320274Y0019837D01*
X0320876Y0018386D01*
X0320876Y0016814D01*
X0320274Y0015362D01*
X0319163Y0014251D01*
X0318435Y0013950D01*
X0355576Y0013950D01*
X0355576Y0081250D01*
X0318435Y0081250D01*
X0319163Y0080949D01*
X0320274Y0079837D01*
X0320876Y0078386D01*
X0320876Y0076814D01*
X0320274Y0075363D01*
X0319163Y0074251D01*
X0317711Y0073650D01*
X0316140Y0073650D01*
X0314688Y0074251D01*
X0313577Y0075363D01*
X0312976Y0076814D01*
X0312976Y0078386D01*
X0313577Y0079837D01*
X0314688Y0080949D01*
X0315416Y0081250D01*
X0309302Y0081250D01*
X0309759Y0080918D01*
X0310244Y0080434D01*
X0310646Y0079880D01*
X0310957Y0079270D01*
X0311168Y0078619D01*
X0311274Y0077950D01*
X0307276Y0077950D01*
X0307276Y0077250D01*
X0311274Y0077250D01*
X0311168Y0076581D01*
X0310957Y0075930D01*
X0310646Y0075320D01*
X0310244Y0074766D01*
X0309759Y0074282D01*
X0309205Y0073880D01*
X0308595Y0073569D01*
X0307944Y0073357D01*
X0307276Y0073251D01*
X0307276Y0077250D01*
X0306576Y0077250D01*
X0306576Y0073251D01*
X0305907Y0073357D01*
X0305256Y0073569D01*
X0304646Y0073880D01*
X0304092Y0074282D01*
X0303608Y0074766D01*
X0303205Y0075320D01*
X0302894Y0075930D01*
X0302683Y0076581D01*
X0302577Y0077250D01*
X0306576Y0077250D01*
X0306576Y0077950D01*
X0302577Y0077950D01*
X0302683Y0078619D01*
X0302894Y0079270D01*
X0303205Y0079880D01*
X0303608Y0080434D01*
X0304092Y0080918D01*
X0304549Y0081250D01*
X0298435Y0081250D01*
X0299163Y0080949D01*
X0300274Y0079837D01*
X0300876Y0078386D01*
X0300876Y0076814D01*
X0300274Y0075363D01*
X0299163Y0074251D01*
X0297711Y0073650D01*
X0296140Y0073650D01*
X0294688Y0074251D01*
X0293577Y0075363D01*
X0292976Y0076814D01*
X0292976Y0078386D01*
X0293577Y0079837D01*
X0294688Y0080949D01*
X0295416Y0081250D01*
X0288435Y0081250D01*
X0289163Y0080949D01*
X0290274Y0079837D01*
X0290876Y0078386D01*
X0290876Y0076814D01*
X0290274Y0075363D01*
X0289163Y0074251D01*
X0287711Y0073650D01*
X0286140Y0073650D01*
X0284688Y0074251D01*
X0283577Y0075363D01*
X0282976Y0076814D01*
X0282976Y0078386D01*
X0283577Y0079837D01*
X0284688Y0080949D01*
X0285416Y0081250D01*
X0278435Y0081250D01*
X0279163Y0080949D01*
X0280274Y0079837D01*
X0280876Y0078386D01*
X0280876Y0076814D01*
X0280274Y0075363D01*
X0279163Y0074251D01*
X0277711Y0073650D01*
X0276140Y0073650D01*
X0274688Y0074251D01*
X0273577Y0075363D01*
X0272976Y0076814D01*
X0272976Y0078386D01*
X0273577Y0079837D01*
X0274688Y0080949D01*
X0275416Y0081250D01*
X0268435Y0081250D01*
X0269163Y0080949D01*
X0270274Y0079837D01*
X0270876Y0078386D01*
X0270876Y0076814D01*
X0270274Y0075363D01*
X0269163Y0074251D01*
X0267711Y0073650D01*
X0266140Y0073650D01*
X0264688Y0074251D01*
X0263577Y0075363D01*
X0262976Y0076814D01*
X0262976Y0078386D01*
X0263577Y0079837D01*
X0264688Y0080949D01*
X0265416Y0081250D01*
X0258435Y0081250D01*
X0259163Y0080949D01*
X0260274Y0079837D01*
X0260876Y0078386D01*
X0260876Y0076814D01*
X0260274Y0075363D01*
X0259163Y0074251D01*
X0257711Y0073650D01*
X0256140Y0073650D01*
X0254688Y0074251D01*
X0253577Y0075363D01*
X0252976Y0076814D01*
X0252976Y0078386D01*
X0253577Y0079837D01*
X0254688Y0080949D01*
X0255416Y0081250D01*
X0248435Y0081250D01*
X0249163Y0080949D01*
X0250274Y0079837D01*
X0250876Y0078386D01*
X0250876Y0076814D01*
X0250274Y0075363D01*
X0249163Y0074251D01*
X0247711Y0073650D01*
X0246140Y0073650D01*
X0244688Y0074251D01*
X0243577Y0075363D01*
X0242976Y0076814D01*
X0242976Y0078386D01*
X0243577Y0079837D01*
X0244688Y0080949D01*
X0245416Y0081250D01*
X0238435Y0081250D01*
X0239163Y0080949D01*
X0240274Y0079837D01*
X0240876Y0078386D01*
X0240876Y0076814D01*
X0240274Y0075363D01*
X0239163Y0074251D01*
X0237711Y0073650D01*
X0236140Y0073650D01*
X0234688Y0074251D01*
X0233577Y0075363D01*
X0232976Y0076814D01*
X0232976Y0078386D01*
X0233577Y0079837D01*
X0234688Y0080949D01*
X0235416Y0081250D01*
X0228435Y0081250D01*
X0229163Y0080949D01*
X0230274Y0079837D01*
X0230876Y0078386D01*
X0230876Y0076814D01*
X0230274Y0075363D01*
X0229163Y0074251D01*
X0227711Y0073650D01*
X0226140Y0073650D01*
X0224688Y0074251D01*
X0223577Y0075363D01*
X0222976Y0076814D01*
X0222976Y0078386D01*
X0223577Y0079837D01*
X0224688Y0080949D01*
X0225416Y0081250D01*
X0218435Y0081250D01*
X0219163Y0080949D01*
X0220274Y0079837D01*
X0220876Y0078386D01*
X0220876Y0076814D01*
X0220274Y0075363D01*
X0219163Y0074251D01*
X0217711Y0073650D01*
X0216140Y0073650D01*
X0214688Y0074251D01*
X0213577Y0075363D01*
X0212976Y0076814D01*
X0212976Y0078386D01*
X0213577Y0079837D01*
X0214688Y0080949D01*
X0215416Y0081250D01*
X0208435Y0081250D01*
X0209163Y0080949D01*
X0210274Y0079837D01*
X0210876Y0078386D01*
X0210876Y0076814D01*
X0210274Y0075363D01*
X0209163Y0074251D01*
X0207711Y0073650D01*
X0206140Y0073650D01*
X0204688Y0074251D01*
X0203577Y0075363D01*
X0202976Y0076814D01*
X0202976Y0078386D01*
X0203577Y0079837D01*
X0204688Y0080949D01*
X0205416Y0081250D01*
X0198435Y0081250D01*
X0199163Y0080949D01*
X0200274Y0079837D01*
X0200876Y0078386D01*
X0200876Y0076814D01*
X0200274Y0075363D01*
X0199163Y0074251D01*
X0197711Y0073650D01*
X0196140Y0073650D01*
X0194688Y0074251D01*
X0193577Y0075363D01*
X0192976Y0076814D01*
X0192976Y0078386D01*
X0193577Y0079837D01*
X0194688Y0080949D01*
X0195416Y0081250D01*
X0188435Y0081250D01*
X0189163Y0080949D01*
X0190274Y0079837D01*
X0190876Y0078386D01*
X0190876Y0076814D01*
X0190274Y0075363D01*
X0189163Y0074251D01*
X0187711Y0073650D01*
X0186140Y0073650D01*
X0184688Y0074251D01*
X0183577Y0075363D01*
X0182976Y0076814D01*
X0182976Y0078386D01*
X0183577Y0079837D01*
X0184688Y0080949D01*
X0185416Y0081250D01*
X0178435Y0081250D01*
X0179163Y0080949D01*
X0180274Y0079837D01*
X0180876Y0078386D01*
X0180876Y0076814D01*
X0180274Y0075363D01*
X0179163Y0074251D01*
X0177711Y0073650D01*
X0176140Y0073650D01*
X0174688Y0074251D01*
X0173577Y0075363D01*
X0172976Y0076814D01*
X0172976Y0078386D01*
X0173577Y0079837D01*
X0174688Y0080949D01*
X0175416Y0081250D01*
X0168435Y0081250D01*
X0169163Y0080949D01*
X0170274Y0079837D01*
X0170876Y0078386D01*
X0170876Y0076814D01*
X0170274Y0075363D01*
X0169163Y0074251D01*
X0167711Y0073650D01*
X0166140Y0073650D01*
X0164688Y0074251D01*
X0163577Y0075363D01*
X0162976Y0076814D01*
X0162976Y0078386D01*
X0163577Y0079837D01*
X0164688Y0080949D01*
X0165416Y0081250D01*
X0158435Y0081250D01*
X0159163Y0080949D01*
X0160274Y0079837D01*
X0160876Y0078386D01*
X0160876Y0076814D01*
X0160274Y0075363D01*
X0159163Y0074251D01*
X0157711Y0073650D01*
X0156140Y0073650D01*
X0154688Y0074251D01*
X0153577Y0075363D01*
X0152976Y0076814D01*
X0152976Y0078386D01*
X0153577Y0079837D01*
X0154688Y0080949D01*
X0155416Y0081250D01*
X0148435Y0081250D01*
X0149163Y0080949D01*
X0150274Y0079837D01*
X0150876Y0078386D01*
X0150876Y0076814D01*
X0150274Y0075363D01*
X0149163Y0074251D01*
X0147711Y0073650D01*
X0146140Y0073650D01*
X0144688Y0074251D01*
X0143577Y0075363D01*
X0142976Y0076814D01*
X0142976Y0078386D01*
X0143577Y0079837D01*
X0144688Y0080949D01*
X0145416Y0081250D01*
X0138435Y0081250D01*
X0139163Y0080949D01*
X0140274Y0079837D01*
X0140876Y0078386D01*
X0140876Y0076814D01*
X0140274Y0075363D01*
X0139163Y0074251D01*
X0137711Y0073650D01*
X0136140Y0073650D01*
X0134688Y0074251D01*
X0133577Y0075363D01*
X0132976Y0076814D01*
X0132976Y0078386D01*
X0133577Y0079837D01*
X0134688Y0080949D01*
X0135416Y0081250D01*
X0128435Y0081250D01*
X0129163Y0080949D01*
X0130274Y0079837D01*
X0130876Y0078386D01*
X0130876Y0076814D01*
X0130274Y0075363D01*
X0129163Y0074251D01*
X0127711Y0073650D01*
X0126140Y0073650D01*
X0124688Y0074251D01*
X0123577Y0075363D01*
X0122976Y0076814D01*
X0122976Y0078386D01*
X0123577Y0079837D01*
X0124688Y0080949D01*
X0125416Y0081250D01*
X0018276Y0081250D01*
X0018276Y0070791D01*
X0019235Y0071750D01*
X0021016Y0071750D01*
X0022276Y0070491D01*
X0022276Y0068709D01*
X0021016Y0067450D01*
X0019235Y0067450D01*
X0018276Y0068409D01*
X0018276Y0067782D02*
X0018903Y0067782D01*
X0018276Y0067084D02*
X0074722Y0067084D01*
X0074738Y0067068D02*
X0075361Y0066615D01*
X0076047Y0066265D01*
X0076780Y0066027D01*
X0077540Y0065907D01*
X0077576Y0065907D01*
X0077576Y0070450D01*
X0078276Y0070450D01*
X0078276Y0071150D01*
X0082819Y0071150D01*
X0082819Y0071185D01*
X0082698Y0071946D01*
X0082460Y0072678D01*
X0082111Y0073365D01*
X0081658Y0073988D01*
X0081113Y0074532D01*
X0080490Y0074985D01*
X0079804Y0075335D01*
X0079071Y0075573D01*
X0078311Y0075693D01*
X0078276Y0075693D01*
X0078276Y0071150D01*
X0077576Y0071150D01*
X0077576Y0075693D01*
X0077540Y0075693D01*
X0076780Y0075573D01*
X0076047Y0075335D01*
X0075361Y0074985D01*
X0074738Y0074532D01*
X0074193Y0073988D01*
X0073740Y0073365D01*
X0073391Y0072678D01*
X0073153Y0071946D01*
X0073032Y0071185D01*
X0073032Y0071150D01*
X0077576Y0071150D01*
X0077576Y0070450D01*
X0073032Y0070450D01*
X0073032Y0070415D01*
X0073153Y0069654D01*
X0073391Y0068922D01*
X0073740Y0068235D01*
X0074193Y0067612D01*
X0074738Y0067068D01*
X0074070Y0067782D02*
X0021349Y0067782D01*
X0022047Y0068481D02*
X0032604Y0068481D01*
X0031976Y0069109D02*
X0033235Y0067850D01*
X0035016Y0067850D01*
X0036276Y0069109D01*
X0036276Y0070891D01*
X0035016Y0072150D01*
X0033235Y0072150D01*
X0031976Y0070891D01*
X0031976Y0069109D01*
X0031976Y0069179D02*
X0022276Y0069179D01*
X0022276Y0069878D02*
X0031976Y0069878D01*
X0031976Y0070576D02*
X0022190Y0070576D01*
X0021491Y0071275D02*
X0032360Y0071275D01*
X0033059Y0071973D02*
X0018276Y0071973D01*
X0018276Y0071275D02*
X0018760Y0071275D01*
X0018276Y0072672D02*
X0073389Y0072672D01*
X0073162Y0071973D02*
X0035193Y0071973D01*
X0035891Y0071275D02*
X0073047Y0071275D01*
X0073117Y0069878D02*
X0036276Y0069878D01*
X0036276Y0070576D02*
X0077576Y0070576D01*
X0077576Y0069878D02*
X0078276Y0069878D01*
X0078276Y0070450D02*
X0078276Y0065907D01*
X0078311Y0065907D01*
X0079071Y0066027D01*
X0079804Y0066265D01*
X0080490Y0066615D01*
X0081113Y0067068D01*
X0081658Y0067612D01*
X0082111Y0068235D01*
X0082460Y0068922D01*
X0082698Y0069654D01*
X0082819Y0070415D01*
X0082819Y0070450D01*
X0078276Y0070450D01*
X0078276Y0070576D02*
X0335048Y0070576D01*
X0334846Y0070680D02*
X0335456Y0070369D01*
X0336107Y0070157D01*
X0336776Y0070051D01*
X0336776Y0074050D01*
X0337476Y0074050D01*
X0337476Y0074750D01*
X0341474Y0074750D01*
X0341368Y0075419D01*
X0341157Y0076070D01*
X0340846Y0076680D01*
X0340444Y0077234D01*
X0339959Y0077718D01*
X0339405Y0078120D01*
X0338795Y0078431D01*
X0338144Y0078643D01*
X0337476Y0078749D01*
X0337476Y0074750D01*
X0336776Y0074750D01*
X0336776Y0078749D01*
X0336107Y0078643D01*
X0335456Y0078431D01*
X0334846Y0078120D01*
X0334292Y0077718D01*
X0333808Y0077234D01*
X0333405Y0076680D01*
X0333094Y0076070D01*
X0332883Y0075419D01*
X0332777Y0074750D01*
X0336776Y0074750D01*
X0336776Y0074050D01*
X0332777Y0074050D01*
X0332883Y0073381D01*
X0333094Y0072730D01*
X0333405Y0072120D01*
X0333808Y0071566D01*
X0334292Y0071082D01*
X0334846Y0070680D01*
X0334099Y0071275D02*
X0082805Y0071275D01*
X0082689Y0071973D02*
X0333512Y0071973D01*
X0333124Y0072672D02*
X0082462Y0072672D01*
X0082106Y0073370D02*
X0305866Y0073370D01*
X0306576Y0073370D02*
X0307276Y0073370D01*
X0307276Y0074069D02*
X0306576Y0074069D01*
X0306576Y0074768D02*
X0307276Y0074768D01*
X0307276Y0075466D02*
X0306576Y0075466D01*
X0306576Y0076165D02*
X0307276Y0076165D01*
X0307276Y0076863D02*
X0306576Y0076863D01*
X0306576Y0077562D02*
X0300876Y0077562D01*
X0300876Y0078260D02*
X0302626Y0078260D01*
X0302793Y0078959D02*
X0300638Y0078959D01*
X0300349Y0079657D02*
X0303092Y0079657D01*
X0303551Y0080356D02*
X0299756Y0080356D01*
X0298908Y0081054D02*
X0304279Y0081054D01*
X0309572Y0081054D02*
X0314943Y0081054D01*
X0314095Y0080356D02*
X0310300Y0080356D01*
X0310760Y0079657D02*
X0313502Y0079657D01*
X0313213Y0078959D02*
X0311058Y0078959D01*
X0311225Y0078260D02*
X0312976Y0078260D01*
X0312976Y0077562D02*
X0307276Y0077562D01*
X0302818Y0076165D02*
X0300606Y0076165D01*
X0300876Y0076863D02*
X0302638Y0076863D01*
X0303131Y0075466D02*
X0300317Y0075466D01*
X0299679Y0074768D02*
X0303607Y0074768D01*
X0304385Y0074069D02*
X0298723Y0074069D01*
X0295128Y0074069D02*
X0288723Y0074069D01*
X0289679Y0074768D02*
X0294172Y0074768D01*
X0293534Y0075466D02*
X0290317Y0075466D01*
X0290606Y0076165D02*
X0293245Y0076165D01*
X0292976Y0076863D02*
X0290876Y0076863D01*
X0290876Y0077562D02*
X0292976Y0077562D01*
X0292976Y0078260D02*
X0290876Y0078260D01*
X0290638Y0078959D02*
X0293213Y0078959D01*
X0293502Y0079657D02*
X0290349Y0079657D01*
X0289756Y0080356D02*
X0294095Y0080356D01*
X0294943Y0081054D02*
X0288908Y0081054D01*
X0284943Y0081054D02*
X0278908Y0081054D01*
X0279756Y0080356D02*
X0284095Y0080356D01*
X0283502Y0079657D02*
X0280349Y0079657D01*
X0280638Y0078959D02*
X0283213Y0078959D01*
X0282976Y0078260D02*
X0280876Y0078260D01*
X0280876Y0077562D02*
X0282976Y0077562D01*
X0282976Y0076863D02*
X0280876Y0076863D01*
X0280606Y0076165D02*
X0283245Y0076165D01*
X0283534Y0075466D02*
X0280317Y0075466D01*
X0279679Y0074768D02*
X0284172Y0074768D01*
X0285128Y0074069D02*
X0278723Y0074069D01*
X0275128Y0074069D02*
X0268723Y0074069D01*
X0269679Y0074768D02*
X0274172Y0074768D01*
X0273534Y0075466D02*
X0270317Y0075466D01*
X0270606Y0076165D02*
X0273245Y0076165D01*
X0272976Y0076863D02*
X0270876Y0076863D01*
X0270876Y0077562D02*
X0272976Y0077562D01*
X0272976Y0078260D02*
X0270876Y0078260D01*
X0270638Y0078959D02*
X0273213Y0078959D01*
X0273502Y0079657D02*
X0270349Y0079657D01*
X0269756Y0080356D02*
X0274095Y0080356D01*
X0274943Y0081054D02*
X0268908Y0081054D01*
X0264943Y0081054D02*
X0258908Y0081054D01*
X0259756Y0080356D02*
X0264095Y0080356D01*
X0263502Y0079657D02*
X0260349Y0079657D01*
X0260638Y0078959D02*
X0263213Y0078959D01*
X0262976Y0078260D02*
X0260876Y0078260D01*
X0260876Y0077562D02*
X0262976Y0077562D01*
X0262976Y0076863D02*
X0260876Y0076863D01*
X0260606Y0076165D02*
X0263245Y0076165D01*
X0263534Y0075466D02*
X0260317Y0075466D01*
X0259679Y0074768D02*
X0264172Y0074768D01*
X0265128Y0074069D02*
X0258723Y0074069D01*
X0255128Y0074069D02*
X0248723Y0074069D01*
X0249679Y0074768D02*
X0254172Y0074768D01*
X0253534Y0075466D02*
X0250317Y0075466D01*
X0250606Y0076165D02*
X0253245Y0076165D01*
X0252976Y0076863D02*
X0250876Y0076863D01*
X0250876Y0077562D02*
X0252976Y0077562D01*
X0252976Y0078260D02*
X0250876Y0078260D01*
X0250638Y0078959D02*
X0253213Y0078959D01*
X0253502Y0079657D02*
X0250349Y0079657D01*
X0249756Y0080356D02*
X0254095Y0080356D01*
X0254943Y0081054D02*
X0248908Y0081054D01*
X0244943Y0081054D02*
X0238908Y0081054D01*
X0239756Y0080356D02*
X0244095Y0080356D01*
X0243502Y0079657D02*
X0240349Y0079657D01*
X0240638Y0078959D02*
X0243213Y0078959D01*
X0242976Y0078260D02*
X0240876Y0078260D01*
X0240876Y0077562D02*
X0242976Y0077562D01*
X0242976Y0076863D02*
X0240876Y0076863D01*
X0240606Y0076165D02*
X0243245Y0076165D01*
X0243534Y0075466D02*
X0240317Y0075466D01*
X0239679Y0074768D02*
X0244172Y0074768D01*
X0245128Y0074069D02*
X0238723Y0074069D01*
X0235128Y0074069D02*
X0228723Y0074069D01*
X0229679Y0074768D02*
X0234172Y0074768D01*
X0233534Y0075466D02*
X0230317Y0075466D01*
X0230606Y0076165D02*
X0233245Y0076165D01*
X0232976Y0076863D02*
X0230876Y0076863D01*
X0230876Y0077562D02*
X0232976Y0077562D01*
X0232976Y0078260D02*
X0230876Y0078260D01*
X0230638Y0078959D02*
X0233213Y0078959D01*
X0233502Y0079657D02*
X0230349Y0079657D01*
X0229756Y0080356D02*
X0234095Y0080356D01*
X0234943Y0081054D02*
X0228908Y0081054D01*
X0224943Y0081054D02*
X0218908Y0081054D01*
X0219756Y0080356D02*
X0224095Y0080356D01*
X0223502Y0079657D02*
X0220349Y0079657D01*
X0220638Y0078959D02*
X0223213Y0078959D01*
X0222976Y0078260D02*
X0220876Y0078260D01*
X0220876Y0077562D02*
X0222976Y0077562D01*
X0222976Y0076863D02*
X0220876Y0076863D01*
X0220606Y0076165D02*
X0223245Y0076165D01*
X0223534Y0075466D02*
X0220317Y0075466D01*
X0219679Y0074768D02*
X0224172Y0074768D01*
X0225128Y0074069D02*
X0218723Y0074069D01*
X0215128Y0074069D02*
X0208723Y0074069D01*
X0209679Y0074768D02*
X0214172Y0074768D01*
X0213534Y0075466D02*
X0210317Y0075466D01*
X0210606Y0076165D02*
X0213245Y0076165D01*
X0212976Y0076863D02*
X0210876Y0076863D01*
X0210876Y0077562D02*
X0212976Y0077562D01*
X0212976Y0078260D02*
X0210876Y0078260D01*
X0210638Y0078959D02*
X0213213Y0078959D01*
X0213502Y0079657D02*
X0210349Y0079657D01*
X0209756Y0080356D02*
X0214095Y0080356D01*
X0214943Y0081054D02*
X0208908Y0081054D01*
X0204943Y0081054D02*
X0198908Y0081054D01*
X0199756Y0080356D02*
X0204095Y0080356D01*
X0203502Y0079657D02*
X0200349Y0079657D01*
X0200638Y0078959D02*
X0203213Y0078959D01*
X0202976Y0078260D02*
X0200876Y0078260D01*
X0200876Y0077562D02*
X0202976Y0077562D01*
X0202976Y0076863D02*
X0200876Y0076863D01*
X0200606Y0076165D02*
X0203245Y0076165D01*
X0203534Y0075466D02*
X0200317Y0075466D01*
X0199679Y0074768D02*
X0204172Y0074768D01*
X0205128Y0074069D02*
X0198723Y0074069D01*
X0195128Y0074069D02*
X0188723Y0074069D01*
X0189679Y0074768D02*
X0194172Y0074768D01*
X0193534Y0075466D02*
X0190317Y0075466D01*
X0190606Y0076165D02*
X0193245Y0076165D01*
X0192976Y0076863D02*
X0190876Y0076863D01*
X0190876Y0077562D02*
X0192976Y0077562D01*
X0192976Y0078260D02*
X0190876Y0078260D01*
X0190638Y0078959D02*
X0193213Y0078959D01*
X0193502Y0079657D02*
X0190349Y0079657D01*
X0189756Y0080356D02*
X0194095Y0080356D01*
X0194943Y0081054D02*
X0188908Y0081054D01*
X0184943Y0081054D02*
X0178908Y0081054D01*
X0179756Y0080356D02*
X0184095Y0080356D01*
X0183502Y0079657D02*
X0180349Y0079657D01*
X0180638Y0078959D02*
X0183213Y0078959D01*
X0182976Y0078260D02*
X0180876Y0078260D01*
X0180876Y0077562D02*
X0182976Y0077562D01*
X0182976Y0076863D02*
X0180876Y0076863D01*
X0180606Y0076165D02*
X0183245Y0076165D01*
X0183534Y0075466D02*
X0180317Y0075466D01*
X0179679Y0074768D02*
X0184172Y0074768D01*
X0185128Y0074069D02*
X0178723Y0074069D01*
X0175128Y0074069D02*
X0168723Y0074069D01*
X0169679Y0074768D02*
X0174172Y0074768D01*
X0173534Y0075466D02*
X0170317Y0075466D01*
X0170606Y0076165D02*
X0173245Y0076165D01*
X0172976Y0076863D02*
X0170876Y0076863D01*
X0170876Y0077562D02*
X0172976Y0077562D01*
X0172976Y0078260D02*
X0170876Y0078260D01*
X0170638Y0078959D02*
X0173213Y0078959D01*
X0173502Y0079657D02*
X0170349Y0079657D01*
X0169756Y0080356D02*
X0174095Y0080356D01*
X0174943Y0081054D02*
X0168908Y0081054D01*
X0164943Y0081054D02*
X0158908Y0081054D01*
X0159756Y0080356D02*
X0164095Y0080356D01*
X0163502Y0079657D02*
X0160349Y0079657D01*
X0160638Y0078959D02*
X0163213Y0078959D01*
X0162976Y0078260D02*
X0160876Y0078260D01*
X0160876Y0077562D02*
X0162976Y0077562D01*
X0162976Y0076863D02*
X0160876Y0076863D01*
X0160606Y0076165D02*
X0163245Y0076165D01*
X0163534Y0075466D02*
X0160317Y0075466D01*
X0159679Y0074768D02*
X0164172Y0074768D01*
X0165128Y0074069D02*
X0158723Y0074069D01*
X0155128Y0074069D02*
X0148723Y0074069D01*
X0149679Y0074768D02*
X0154172Y0074768D01*
X0153534Y0075466D02*
X0150317Y0075466D01*
X0150606Y0076165D02*
X0153245Y0076165D01*
X0152976Y0076863D02*
X0150876Y0076863D01*
X0150876Y0077562D02*
X0152976Y0077562D01*
X0152976Y0078260D02*
X0150876Y0078260D01*
X0150638Y0078959D02*
X0153213Y0078959D01*
X0153502Y0079657D02*
X0150349Y0079657D01*
X0149756Y0080356D02*
X0154095Y0080356D01*
X0154943Y0081054D02*
X0148908Y0081054D01*
X0144943Y0081054D02*
X0138908Y0081054D01*
X0139756Y0080356D02*
X0144095Y0080356D01*
X0143502Y0079657D02*
X0140349Y0079657D01*
X0140638Y0078959D02*
X0143213Y0078959D01*
X0142976Y0078260D02*
X0140876Y0078260D01*
X0140876Y0077562D02*
X0142976Y0077562D01*
X0142976Y0076863D02*
X0140876Y0076863D01*
X0140606Y0076165D02*
X0143245Y0076165D01*
X0143534Y0075466D02*
X0140317Y0075466D01*
X0139679Y0074768D02*
X0144172Y0074768D01*
X0145128Y0074069D02*
X0138723Y0074069D01*
X0135128Y0074069D02*
X0128723Y0074069D01*
X0129679Y0074768D02*
X0134172Y0074768D01*
X0133534Y0075466D02*
X0130317Y0075466D01*
X0130606Y0076165D02*
X0133245Y0076165D01*
X0132976Y0076863D02*
X0130876Y0076863D01*
X0130876Y0077562D02*
X0132976Y0077562D01*
X0132976Y0078260D02*
X0130876Y0078260D01*
X0130638Y0078959D02*
X0133213Y0078959D01*
X0133502Y0079657D02*
X0130349Y0079657D01*
X0129756Y0080356D02*
X0134095Y0080356D01*
X0134943Y0081054D02*
X0128908Y0081054D01*
X0124943Y0081054D02*
X0018276Y0081054D01*
X0018276Y0080356D02*
X0124095Y0080356D01*
X0123502Y0079657D02*
X0018276Y0079657D01*
X0018276Y0078959D02*
X0123213Y0078959D01*
X0122976Y0078260D02*
X0018276Y0078260D01*
X0018276Y0077562D02*
X0122976Y0077562D01*
X0122976Y0076863D02*
X0018276Y0076863D01*
X0018276Y0076165D02*
X0123245Y0076165D01*
X0123534Y0075466D02*
X0079400Y0075466D01*
X0078276Y0075466D02*
X0077576Y0075466D01*
X0077576Y0074768D02*
X0078276Y0074768D01*
X0078276Y0074069D02*
X0077576Y0074069D01*
X0077576Y0073370D02*
X0078276Y0073370D01*
X0078276Y0072672D02*
X0077576Y0072672D01*
X0077576Y0071973D02*
X0078276Y0071973D01*
X0078276Y0071275D02*
X0077576Y0071275D01*
X0077576Y0069179D02*
X0078276Y0069179D01*
X0078276Y0068481D02*
X0077576Y0068481D01*
X0077576Y0067782D02*
X0078276Y0067782D01*
X0078276Y0067084D02*
X0077576Y0067084D01*
X0077576Y0066385D02*
X0078276Y0066385D01*
X0080040Y0066385D02*
X0114773Y0066385D01*
X0114646Y0066320D02*
X0114092Y0065918D01*
X0113608Y0065434D01*
X0113205Y0064880D01*
X0112894Y0064270D01*
X0112683Y0063619D01*
X0112577Y0062950D01*
X0116576Y0062950D01*
X0116576Y0066949D01*
X0115907Y0066843D01*
X0115256Y0066631D01*
X0114646Y0066320D01*
X0113861Y0065687D02*
X0046279Y0065687D01*
X0045816Y0066150D02*
X0044035Y0066150D01*
X0042776Y0064891D01*
X0042776Y0063109D01*
X0044035Y0061850D01*
X0045816Y0061850D01*
X0047076Y0063109D01*
X0047076Y0064891D01*
X0045816Y0066150D01*
X0046978Y0064988D02*
X0113284Y0064988D01*
X0112904Y0064290D02*
X0047076Y0064290D01*
X0047076Y0063591D02*
X0112678Y0063591D01*
X0112577Y0062250D02*
X0112683Y0061581D01*
X0112894Y0060930D01*
X0113205Y0060320D01*
X0113608Y0059766D01*
X0114092Y0059282D01*
X0114646Y0058880D01*
X0115256Y0058569D01*
X0115907Y0058357D01*
X0116576Y0058251D01*
X0116576Y0062250D01*
X0117276Y0062250D01*
X0117276Y0062950D01*
X0121274Y0062950D01*
X0121168Y0063619D01*
X0120957Y0064270D01*
X0120646Y0064880D01*
X0120244Y0065434D01*
X0119759Y0065918D01*
X0119205Y0066320D01*
X0118595Y0066631D01*
X0117944Y0066843D01*
X0117276Y0066949D01*
X0117276Y0062950D01*
X0116576Y0062950D01*
X0116576Y0062250D01*
X0112577Y0062250D01*
X0112586Y0062194D02*
X0046160Y0062194D01*
X0046859Y0062893D02*
X0116576Y0062893D01*
X0116576Y0063591D02*
X0117276Y0063591D01*
X0117276Y0062893D02*
X0159226Y0062893D01*
X0159669Y0062450D02*
X0161450Y0062450D01*
X0162710Y0063709D01*
X0162710Y0065491D01*
X0161450Y0066750D01*
X0159669Y0066750D01*
X0158410Y0065491D01*
X0158410Y0063709D01*
X0159669Y0062450D01*
X0158528Y0063591D02*
X0121173Y0063591D01*
X0120947Y0064290D02*
X0158410Y0064290D01*
X0158410Y0064988D02*
X0120567Y0064988D01*
X0119991Y0065687D02*
X0158606Y0065687D01*
X0159304Y0066385D02*
X0119078Y0066385D01*
X0117276Y0066385D02*
X0116576Y0066385D01*
X0116576Y0065687D02*
X0117276Y0065687D01*
X0117276Y0064988D02*
X0116576Y0064988D01*
X0116576Y0064290D02*
X0117276Y0064290D01*
X0117276Y0062250D02*
X0121274Y0062250D01*
X0121168Y0061581D01*
X0120957Y0060930D01*
X0120646Y0060320D01*
X0120244Y0059766D01*
X0119759Y0059282D01*
X0119205Y0058880D01*
X0118595Y0058569D01*
X0117944Y0058357D01*
X0117276Y0058251D01*
X0117276Y0062250D01*
X0117276Y0062194D02*
X0116576Y0062194D01*
X0116576Y0061496D02*
X0117276Y0061496D01*
X0117276Y0060797D02*
X0116576Y0060797D01*
X0116576Y0060099D02*
X0117276Y0060099D01*
X0117276Y0059400D02*
X0116576Y0059400D01*
X0116576Y0058702D02*
X0117276Y0058702D01*
X0118857Y0058702D02*
X0190376Y0058702D01*
X0190376Y0059091D02*
X0190376Y0057309D01*
X0191635Y0056050D01*
X0193416Y0056050D01*
X0194676Y0057309D01*
X0194676Y0059091D01*
X0193416Y0060350D01*
X0191635Y0060350D01*
X0190376Y0059091D01*
X0190685Y0059400D02*
X0119878Y0059400D01*
X0120485Y0060099D02*
X0191384Y0060099D01*
X0193667Y0060099D02*
X0212984Y0060099D01*
X0213235Y0060350D02*
X0211976Y0059091D01*
X0211976Y0057791D01*
X0211416Y0058350D01*
X0209635Y0058350D01*
X0208376Y0057091D01*
X0208376Y0055309D01*
X0209635Y0054050D01*
X0211416Y0054050D01*
X0212676Y0055309D01*
X0212676Y0056609D01*
X0213235Y0056050D01*
X0215016Y0056050D01*
X0216276Y0057309D01*
X0216276Y0059091D01*
X0215016Y0060350D01*
X0213235Y0060350D01*
X0212285Y0059400D02*
X0194366Y0059400D01*
X0194676Y0058702D02*
X0211976Y0058702D01*
X0211976Y0058003D02*
X0211763Y0058003D01*
X0212676Y0056606D02*
X0212679Y0056606D01*
X0212676Y0055908D02*
X0221177Y0055908D01*
X0220776Y0056309D02*
X0222035Y0055050D01*
X0223816Y0055050D01*
X0225076Y0056309D01*
X0225076Y0058091D01*
X0223816Y0059350D01*
X0222035Y0059350D01*
X0220776Y0058091D01*
X0220776Y0056309D01*
X0220776Y0056606D02*
X0215572Y0056606D01*
X0216271Y0057305D02*
X0220776Y0057305D01*
X0220776Y0058003D02*
X0216276Y0058003D01*
X0216276Y0058702D02*
X0221387Y0058702D01*
X0224464Y0058702D02*
X0322926Y0058702D01*
X0323082Y0058858D02*
X0322067Y0057843D01*
X0321518Y0056518D01*
X0321518Y0055082D01*
X0322067Y0053757D01*
X0323082Y0052742D01*
X0324408Y0052193D01*
X0325843Y0052193D01*
X0327169Y0052742D01*
X0328184Y0053757D01*
X0328733Y0055082D01*
X0328733Y0056518D01*
X0328184Y0057843D01*
X0327169Y0058858D01*
X0325843Y0059407D01*
X0324408Y0059407D01*
X0323082Y0058858D01*
X0322227Y0058003D02*
X0225076Y0058003D01*
X0225076Y0057305D02*
X0321844Y0057305D01*
X0321555Y0056606D02*
X0225076Y0056606D01*
X0224674Y0055908D02*
X0321518Y0055908D01*
X0321518Y0055209D02*
X0223975Y0055209D01*
X0221876Y0055209D02*
X0212575Y0055209D01*
X0211877Y0054511D02*
X0293450Y0054511D01*
X0292321Y0054043D02*
X0295114Y0055200D01*
X0298137Y0055200D01*
X0300931Y0054043D01*
X0303069Y0051905D01*
X0304226Y0049112D01*
X0304226Y0046088D01*
X0303069Y0043295D01*
X0300931Y0041157D01*
X0298137Y0040000D01*
X0295114Y0040000D01*
X0292321Y0041157D01*
X0290183Y0043295D01*
X0289026Y0046088D01*
X0289026Y0049112D01*
X0290183Y0051905D01*
X0292321Y0054043D01*
X0292090Y0053812D02*
X0198378Y0053812D01*
X0198016Y0053450D02*
X0199276Y0054709D01*
X0199276Y0056491D01*
X0198016Y0057750D01*
X0196235Y0057750D01*
X0194976Y0056491D01*
X0194976Y0054709D01*
X0196235Y0053450D01*
X0198016Y0053450D01*
X0199077Y0054511D02*
X0209174Y0054511D01*
X0208476Y0055209D02*
X0199276Y0055209D01*
X0199276Y0055908D02*
X0208376Y0055908D01*
X0208376Y0056606D02*
X0199160Y0056606D01*
X0198461Y0057305D02*
X0208590Y0057305D01*
X0209288Y0058003D02*
X0194676Y0058003D01*
X0194671Y0057305D02*
X0195790Y0057305D01*
X0195091Y0056606D02*
X0193972Y0056606D01*
X0194976Y0055908D02*
X0142258Y0055908D01*
X0142216Y0055950D02*
X0140435Y0055950D01*
X0139176Y0054691D01*
X0139176Y0052909D01*
X0140435Y0051650D01*
X0142216Y0051650D01*
X0143476Y0052909D01*
X0143476Y0054691D01*
X0142216Y0055950D01*
X0142957Y0055209D02*
X0194976Y0055209D01*
X0195174Y0054511D02*
X0143476Y0054511D01*
X0143476Y0053812D02*
X0195873Y0053812D01*
X0194751Y0052415D02*
X0227300Y0052415D01*
X0226776Y0051891D02*
X0226776Y0050109D01*
X0228035Y0048850D01*
X0229816Y0048850D01*
X0231076Y0050109D01*
X0231076Y0051891D01*
X0229816Y0053150D01*
X0228035Y0053150D01*
X0226776Y0051891D01*
X0226776Y0051717D02*
X0205449Y0051717D01*
X0205016Y0052150D02*
X0203235Y0052150D01*
X0201976Y0050891D01*
X0201976Y0049591D01*
X0201616Y0049950D01*
X0199835Y0049950D01*
X0198576Y0048691D01*
X0198576Y0046909D01*
X0199835Y0045650D01*
X0201616Y0045650D01*
X0202876Y0046909D01*
X0202876Y0048209D01*
X0203235Y0047850D01*
X0204776Y0047850D01*
X0204776Y0046509D01*
X0206035Y0045250D01*
X0207816Y0045250D01*
X0209076Y0046509D01*
X0209076Y0048291D01*
X0207816Y0049550D01*
X0206276Y0049550D01*
X0206276Y0050891D01*
X0205016Y0052150D01*
X0206148Y0051018D02*
X0226776Y0051018D01*
X0226776Y0050320D02*
X0206276Y0050320D01*
X0206276Y0049621D02*
X0227264Y0049621D01*
X0227962Y0048923D02*
X0208444Y0048923D01*
X0209076Y0048224D02*
X0229509Y0048224D01*
X0229376Y0048091D02*
X0229376Y0046309D01*
X0230635Y0045050D01*
X0232416Y0045050D01*
X0233676Y0046309D01*
X0233676Y0048091D01*
X0232416Y0049350D01*
X0230635Y0049350D01*
X0229376Y0048091D01*
X0229376Y0047526D02*
X0209076Y0047526D01*
X0209076Y0046827D02*
X0229376Y0046827D01*
X0229556Y0046129D02*
X0210638Y0046129D01*
X0210616Y0046150D02*
X0208835Y0046150D01*
X0207576Y0044891D01*
X0207576Y0043109D01*
X0208835Y0041850D01*
X0210616Y0041850D01*
X0211876Y0043109D01*
X0211876Y0044891D01*
X0210616Y0046150D01*
X0211336Y0045430D02*
X0230255Y0045430D01*
X0232796Y0045430D02*
X0289298Y0045430D01*
X0289026Y0046129D02*
X0241095Y0046129D01*
X0241676Y0046709D02*
X0240416Y0045450D01*
X0238635Y0045450D01*
X0237376Y0046709D01*
X0237376Y0048491D01*
X0238635Y0049750D01*
X0240416Y0049750D01*
X0241676Y0048491D01*
X0241676Y0046709D01*
X0241676Y0046827D02*
X0289026Y0046827D01*
X0289026Y0047526D02*
X0241676Y0047526D01*
X0241676Y0048224D02*
X0289026Y0048224D01*
X0289026Y0048923D02*
X0280089Y0048923D01*
X0280016Y0048850D02*
X0281276Y0050109D01*
X0281276Y0051891D01*
X0280016Y0053150D01*
X0278235Y0053150D01*
X0276976Y0051891D01*
X0276976Y0050109D01*
X0278235Y0048850D01*
X0280016Y0048850D01*
X0280787Y0049621D02*
X0289237Y0049621D01*
X0289526Y0050320D02*
X0281276Y0050320D01*
X0281276Y0051018D02*
X0289815Y0051018D01*
X0290105Y0051717D02*
X0281276Y0051717D01*
X0280751Y0052415D02*
X0290693Y0052415D01*
X0291391Y0053114D02*
X0280052Y0053114D01*
X0278199Y0053114D02*
X0274252Y0053114D01*
X0274216Y0053150D02*
X0272435Y0053150D01*
X0271176Y0051891D01*
X0271176Y0050109D01*
X0272435Y0048850D01*
X0274216Y0048850D01*
X0275476Y0050109D01*
X0275476Y0051891D01*
X0274216Y0053150D01*
X0274951Y0052415D02*
X0277500Y0052415D01*
X0276976Y0051717D02*
X0275476Y0051717D01*
X0275476Y0051018D02*
X0276976Y0051018D01*
X0276976Y0050320D02*
X0275476Y0050320D01*
X0274987Y0049621D02*
X0277464Y0049621D01*
X0278162Y0048923D02*
X0274289Y0048923D01*
X0272362Y0048923D02*
X0241244Y0048923D01*
X0240545Y0049621D02*
X0254864Y0049621D01*
X0255435Y0049050D02*
X0257216Y0049050D01*
X0258476Y0050309D01*
X0258476Y0052091D01*
X0257216Y0053350D01*
X0255435Y0053350D01*
X0254176Y0052091D01*
X0254176Y0050309D01*
X0255435Y0049050D01*
X0254176Y0050320D02*
X0231076Y0050320D01*
X0231076Y0051018D02*
X0254176Y0051018D01*
X0254176Y0051717D02*
X0231076Y0051717D01*
X0230551Y0052415D02*
X0254500Y0052415D01*
X0255199Y0053114D02*
X0229852Y0053114D01*
X0227999Y0053114D02*
X0194052Y0053114D01*
X0193616Y0053550D02*
X0191835Y0053550D01*
X0190576Y0052291D01*
X0190576Y0050509D01*
X0191835Y0049250D01*
X0193616Y0049250D01*
X0194876Y0050509D01*
X0194876Y0052291D01*
X0193616Y0053550D01*
X0194876Y0051717D02*
X0202802Y0051717D01*
X0202103Y0051018D02*
X0194876Y0051018D01*
X0194686Y0050320D02*
X0201976Y0050320D01*
X0201945Y0049621D02*
X0201976Y0049621D01*
X0202876Y0047526D02*
X0204776Y0047526D01*
X0204776Y0046827D02*
X0202793Y0046827D01*
X0202095Y0046129D02*
X0205156Y0046129D01*
X0205855Y0045430D02*
X0119682Y0045430D01*
X0119163Y0045949D02*
X0120274Y0044837D01*
X0120876Y0043386D01*
X0120876Y0041814D01*
X0120274Y0040363D01*
X0119163Y0039251D01*
X0117711Y0038650D01*
X0116140Y0038650D01*
X0114688Y0039251D01*
X0113577Y0040363D01*
X0112976Y0041814D01*
X0112976Y0043386D01*
X0113577Y0044837D01*
X0114688Y0045949D01*
X0116140Y0046550D01*
X0117711Y0046550D01*
X0119163Y0045949D01*
X0118729Y0046129D02*
X0188356Y0046129D01*
X0188635Y0045850D02*
X0187376Y0047109D01*
X0187376Y0048891D01*
X0188635Y0050150D01*
X0190416Y0050150D01*
X0191676Y0048891D01*
X0191676Y0047109D01*
X0190416Y0045850D01*
X0188635Y0045850D01*
X0187658Y0046827D02*
X0109526Y0046827D01*
X0109526Y0046129D02*
X0115122Y0046129D01*
X0114169Y0045430D02*
X0109253Y0045430D01*
X0109526Y0046088D02*
X0108369Y0043295D01*
X0106231Y0041157D01*
X0103437Y0040000D01*
X0100414Y0040000D01*
X0097621Y0041157D01*
X0095483Y0043295D01*
X0094326Y0046088D01*
X0094326Y0049112D01*
X0095483Y0051905D01*
X0097621Y0054043D01*
X0100414Y0055200D01*
X0103437Y0055200D01*
X0106231Y0054043D01*
X0108369Y0051905D01*
X0109526Y0049112D01*
X0109526Y0046088D01*
X0109526Y0047526D02*
X0187376Y0047526D01*
X0187376Y0048224D02*
X0109526Y0048224D01*
X0109526Y0048923D02*
X0115482Y0048923D01*
X0116140Y0048650D02*
X0117711Y0048650D01*
X0119163Y0049251D01*
X0120274Y0050362D01*
X0120876Y0051814D01*
X0120876Y0053386D01*
X0120274Y0054837D01*
X0119163Y0055949D01*
X0117711Y0056550D01*
X0116140Y0056550D01*
X0114688Y0055949D01*
X0113577Y0054837D01*
X0112976Y0053386D01*
X0112976Y0051814D01*
X0113577Y0050362D01*
X0114688Y0049251D01*
X0116140Y0048650D01*
X0114318Y0049621D02*
X0109315Y0049621D01*
X0109025Y0050320D02*
X0113620Y0050320D01*
X0113305Y0051018D02*
X0108736Y0051018D01*
X0108447Y0051717D02*
X0113016Y0051717D01*
X0112976Y0052415D02*
X0107858Y0052415D01*
X0107160Y0053114D02*
X0112976Y0053114D01*
X0113152Y0053812D02*
X0106461Y0053812D01*
X0105101Y0054511D02*
X0113442Y0054511D01*
X0113949Y0055209D02*
X0082039Y0055209D01*
X0081750Y0054511D02*
X0098750Y0054511D01*
X0097390Y0053812D02*
X0081072Y0053812D01*
X0080471Y0053211D02*
X0081735Y0054475D01*
X0082419Y0056127D01*
X0082419Y0057914D01*
X0081735Y0059566D01*
X0080471Y0060830D01*
X0078819Y0061514D01*
X0077032Y0061514D01*
X0075380Y0060830D01*
X0074116Y0059566D01*
X0073432Y0057914D01*
X0073432Y0056127D01*
X0074116Y0054475D01*
X0075380Y0053211D01*
X0077032Y0052527D01*
X0078819Y0052527D01*
X0080471Y0053211D01*
X0080235Y0053114D02*
X0096691Y0053114D01*
X0095993Y0052415D02*
X0018276Y0052415D01*
X0018276Y0051717D02*
X0095405Y0051717D01*
X0095115Y0051018D02*
X0018276Y0051018D01*
X0018276Y0050320D02*
X0094826Y0050320D01*
X0094537Y0049621D02*
X0018276Y0049621D01*
X0018276Y0048923D02*
X0094326Y0048923D01*
X0094326Y0048224D02*
X0018276Y0048224D01*
X0018276Y0047526D02*
X0076528Y0047526D01*
X0077032Y0047734D02*
X0075380Y0047050D01*
X0074116Y0045786D01*
X0073432Y0044135D01*
X0073432Y0042347D01*
X0074116Y0040696D01*
X0075380Y0039432D01*
X0077032Y0038748D01*
X0078819Y0038748D01*
X0080471Y0039432D01*
X0081735Y0040696D01*
X0082419Y0042347D01*
X0082419Y0044135D01*
X0081735Y0045786D01*
X0080471Y0047050D01*
X0078819Y0047734D01*
X0077032Y0047734D01*
X0075157Y0046827D02*
X0018276Y0046827D01*
X0018276Y0046129D02*
X0074459Y0046129D01*
X0073969Y0045430D02*
X0018276Y0045430D01*
X0018276Y0044732D02*
X0073679Y0044732D01*
X0073432Y0044033D02*
X0018276Y0044033D01*
X0018276Y0043334D02*
X0073432Y0043334D01*
X0073432Y0042636D02*
X0053530Y0042636D01*
X0053416Y0042750D02*
X0051635Y0042750D01*
X0050376Y0041491D01*
X0050376Y0039709D01*
X0051635Y0038450D01*
X0053416Y0038450D01*
X0054676Y0039709D01*
X0054676Y0041491D01*
X0053416Y0042750D01*
X0054229Y0041937D02*
X0073602Y0041937D01*
X0073891Y0041239D02*
X0054676Y0041239D01*
X0054676Y0040540D02*
X0074272Y0040540D01*
X0074970Y0039842D02*
X0054676Y0039842D01*
X0054110Y0039143D02*
X0069028Y0039143D01*
X0069235Y0039350D02*
X0067976Y0038091D01*
X0067976Y0036309D01*
X0069235Y0035050D01*
X0071016Y0035050D01*
X0072276Y0036309D01*
X0072276Y0038091D01*
X0071016Y0039350D01*
X0069235Y0039350D01*
X0068330Y0038445D02*
X0018276Y0038445D01*
X0018276Y0039143D02*
X0050942Y0039143D01*
X0050376Y0039842D02*
X0018276Y0039842D01*
X0018276Y0040540D02*
X0050376Y0040540D01*
X0050376Y0041239D02*
X0018276Y0041239D01*
X0018276Y0041937D02*
X0050823Y0041937D01*
X0051521Y0042636D02*
X0018276Y0042636D01*
X0018276Y0037746D02*
X0059831Y0037746D01*
X0060035Y0037950D02*
X0058776Y0036691D01*
X0058776Y0034909D01*
X0060035Y0033650D01*
X0061816Y0033650D01*
X0063076Y0034909D01*
X0063076Y0036691D01*
X0061816Y0037950D01*
X0060035Y0037950D01*
X0059133Y0037048D02*
X0018276Y0037048D01*
X0018276Y0036349D02*
X0058776Y0036349D01*
X0058776Y0035651D02*
X0018276Y0035651D01*
X0018276Y0034952D02*
X0058776Y0034952D01*
X0059431Y0034254D02*
X0018276Y0034254D01*
X0018276Y0033555D02*
X0076068Y0033555D01*
X0075380Y0033271D02*
X0074116Y0032007D01*
X0073432Y0030355D01*
X0073432Y0028568D01*
X0074116Y0026916D01*
X0075380Y0025652D01*
X0077032Y0024968D01*
X0078819Y0024968D01*
X0080471Y0025652D01*
X0081735Y0026916D01*
X0082419Y0028568D01*
X0082419Y0030355D01*
X0081735Y0032007D01*
X0080471Y0033271D01*
X0078819Y0033955D01*
X0077032Y0033955D01*
X0075380Y0033271D01*
X0074967Y0032857D02*
X0018276Y0032857D01*
X0018276Y0032158D02*
X0074268Y0032158D01*
X0073890Y0031460D02*
X0018276Y0031460D01*
X0018276Y0030761D02*
X0073601Y0030761D01*
X0073432Y0030063D02*
X0018276Y0030063D01*
X0018276Y0029364D02*
X0073432Y0029364D01*
X0073432Y0028666D02*
X0018276Y0028666D01*
X0018276Y0027967D02*
X0073681Y0027967D01*
X0073970Y0027269D02*
X0018276Y0027269D01*
X0018276Y0026570D02*
X0074462Y0026570D01*
X0075161Y0025872D02*
X0018276Y0025872D01*
X0018276Y0025173D02*
X0076537Y0025173D01*
X0079314Y0025173D02*
X0330086Y0025173D01*
X0330217Y0025042D02*
X0331325Y0024583D01*
X0332526Y0024583D01*
X0333635Y0025042D01*
X0334483Y0025891D01*
X0334943Y0027000D01*
X0334943Y0028200D01*
X0334483Y0029309D01*
X0333635Y0030158D01*
X0332526Y0030617D01*
X0331325Y0030617D01*
X0330217Y0030158D01*
X0329368Y0029309D01*
X0328909Y0028200D01*
X0328909Y0027000D01*
X0329368Y0025891D01*
X0330217Y0025042D01*
X0329387Y0025872D02*
X0209038Y0025872D01*
X0209016Y0025850D02*
X0210276Y0027109D01*
X0210276Y0028891D01*
X0209016Y0030150D01*
X0207235Y0030150D01*
X0205976Y0028891D01*
X0205976Y0027109D01*
X0207235Y0025850D01*
X0209016Y0025850D01*
X0209736Y0026570D02*
X0329087Y0026570D01*
X0328909Y0027269D02*
X0210276Y0027269D01*
X0210276Y0027967D02*
X0328909Y0027967D01*
X0329102Y0028666D02*
X0210276Y0028666D01*
X0209802Y0029364D02*
X0329423Y0029364D01*
X0330122Y0030063D02*
X0209103Y0030063D01*
X0207148Y0030063D02*
X0119975Y0030063D01*
X0120274Y0030362D02*
X0120876Y0031814D01*
X0120876Y0033386D01*
X0120274Y0034837D01*
X0119163Y0035949D01*
X0117711Y0036550D01*
X0116140Y0036550D01*
X0114688Y0035949D01*
X0113577Y0034837D01*
X0112976Y0033386D01*
X0112976Y0031814D01*
X0113577Y0030362D01*
X0114688Y0029251D01*
X0116140Y0028650D01*
X0117711Y0028650D01*
X0119163Y0029251D01*
X0120274Y0030362D01*
X0120439Y0030761D02*
X0281724Y0030761D01*
X0282035Y0030450D02*
X0283816Y0030450D01*
X0285076Y0031709D01*
X0285076Y0033491D01*
X0283816Y0034750D01*
X0282035Y0034750D01*
X0280776Y0033491D01*
X0280776Y0031709D01*
X0282035Y0030450D01*
X0281025Y0031460D02*
X0193826Y0031460D01*
X0193216Y0030850D02*
X0194476Y0032109D01*
X0194476Y0033891D01*
X0193216Y0035150D01*
X0191435Y0035150D01*
X0190176Y0033891D01*
X0190176Y0032109D01*
X0191435Y0030850D01*
X0193216Y0030850D01*
X0194476Y0032158D02*
X0267527Y0032158D01*
X0267635Y0032050D02*
X0269416Y0032050D01*
X0270676Y0033309D01*
X0270676Y0035091D01*
X0269416Y0036350D01*
X0267635Y0036350D01*
X0266376Y0035091D01*
X0266376Y0033309D01*
X0267635Y0032050D01*
X0266828Y0032857D02*
X0194476Y0032857D01*
X0194476Y0033555D02*
X0266376Y0033555D01*
X0266376Y0034254D02*
X0194112Y0034254D01*
X0193414Y0034952D02*
X0241333Y0034952D01*
X0241835Y0034450D02*
X0243616Y0034450D01*
X0244876Y0035709D01*
X0244876Y0037491D01*
X0243616Y0038750D01*
X0242916Y0038750D01*
X0243676Y0039509D01*
X0243676Y0041291D01*
X0242416Y0042550D01*
X0240635Y0042550D01*
X0239376Y0041291D01*
X0239376Y0039509D01*
X0240635Y0038250D01*
X0241335Y0038250D01*
X0240576Y0037491D01*
X0240576Y0035709D01*
X0241835Y0034450D01*
X0240634Y0035651D02*
X0215217Y0035651D01*
X0215016Y0035450D02*
X0216276Y0036709D01*
X0216276Y0038491D01*
X0215016Y0039750D01*
X0213235Y0039750D01*
X0211976Y0038491D01*
X0211976Y0036709D01*
X0213235Y0035450D01*
X0215016Y0035450D01*
X0215916Y0036349D02*
X0240576Y0036349D01*
X0240576Y0037048D02*
X0216276Y0037048D01*
X0216276Y0037746D02*
X0240831Y0037746D01*
X0240440Y0038445D02*
X0216276Y0038445D01*
X0215623Y0039143D02*
X0239742Y0039143D01*
X0239376Y0039842D02*
X0197008Y0039842D01*
X0197276Y0040109D02*
X0197276Y0041891D01*
X0196016Y0043150D01*
X0194235Y0043150D01*
X0193326Y0042241D01*
X0192416Y0043150D01*
X0190635Y0043150D01*
X0189376Y0041891D01*
X0189376Y0040109D01*
X0190635Y0038850D01*
X0192416Y0038850D01*
X0193326Y0039759D01*
X0194235Y0038850D01*
X0196016Y0038850D01*
X0197276Y0040109D01*
X0197276Y0040540D02*
X0215345Y0040540D01*
X0215435Y0040450D02*
X0217216Y0040450D01*
X0218476Y0041709D01*
X0218476Y0043491D01*
X0217216Y0044750D01*
X0215435Y0044750D01*
X0214176Y0043491D01*
X0214176Y0041709D01*
X0215435Y0040450D01*
X0214646Y0041239D02*
X0197276Y0041239D01*
X0197229Y0041937D02*
X0208748Y0041937D01*
X0208049Y0042636D02*
X0196530Y0042636D01*
X0193721Y0042636D02*
X0192930Y0042636D01*
X0190121Y0042636D02*
X0151330Y0042636D01*
X0151676Y0042291D02*
X0150416Y0043550D01*
X0148635Y0043550D01*
X0147376Y0042291D01*
X0147376Y0040509D01*
X0148635Y0039250D01*
X0150416Y0039250D01*
X0151676Y0040509D01*
X0151676Y0042291D01*
X0151676Y0041937D02*
X0189423Y0041937D01*
X0189376Y0041239D02*
X0151676Y0041239D01*
X0151676Y0040540D02*
X0189376Y0040540D01*
X0189643Y0039842D02*
X0151008Y0039842D01*
X0148043Y0039842D02*
X0147276Y0039842D01*
X0147276Y0039709D02*
X0146016Y0038450D01*
X0144235Y0038450D01*
X0142976Y0039709D01*
X0142976Y0041491D01*
X0144235Y0042750D01*
X0146016Y0042750D01*
X0147276Y0041491D01*
X0147276Y0039709D01*
X0146710Y0039143D02*
X0190342Y0039143D01*
X0192710Y0039143D02*
X0193942Y0039143D01*
X0196310Y0039143D02*
X0212628Y0039143D01*
X0211976Y0038445D02*
X0071921Y0038445D01*
X0072276Y0037746D02*
X0211976Y0037746D01*
X0211976Y0037048D02*
X0166518Y0037048D01*
X0166016Y0037550D02*
X0164235Y0037550D01*
X0162976Y0036291D01*
X0162976Y0034509D01*
X0164235Y0033250D01*
X0166016Y0033250D01*
X0167276Y0034509D01*
X0167276Y0036291D01*
X0166016Y0037550D01*
X0167217Y0036349D02*
X0212336Y0036349D01*
X0213034Y0035651D02*
X0167276Y0035651D01*
X0167276Y0034952D02*
X0169637Y0034952D01*
X0170235Y0035550D02*
X0168976Y0034291D01*
X0168976Y0032509D01*
X0170235Y0031250D01*
X0172016Y0031250D01*
X0173276Y0032509D01*
X0173276Y0034291D01*
X0172016Y0035550D01*
X0170235Y0035550D01*
X0168976Y0034254D02*
X0167020Y0034254D01*
X0166321Y0033555D02*
X0168976Y0033555D01*
X0168976Y0032857D02*
X0120876Y0032857D01*
X0120876Y0032158D02*
X0169327Y0032158D01*
X0170025Y0031460D02*
X0120729Y0031460D01*
X0120805Y0033555D02*
X0163930Y0033555D01*
X0163231Y0034254D02*
X0120516Y0034254D01*
X0120159Y0034952D02*
X0162976Y0034952D01*
X0162976Y0035651D02*
X0119461Y0035651D01*
X0118196Y0036349D02*
X0163034Y0036349D01*
X0163733Y0037048D02*
X0072276Y0037048D01*
X0072276Y0036349D02*
X0115656Y0036349D01*
X0114390Y0035651D02*
X0071617Y0035651D01*
X0068634Y0035651D02*
X0063076Y0035651D01*
X0063076Y0036349D02*
X0067976Y0036349D01*
X0067976Y0037048D02*
X0062718Y0037048D01*
X0062020Y0037746D02*
X0067976Y0037746D01*
X0071223Y0039143D02*
X0076076Y0039143D01*
X0079775Y0039143D02*
X0114949Y0039143D01*
X0114098Y0039842D02*
X0080881Y0039842D01*
X0081580Y0040540D02*
X0099109Y0040540D01*
X0097539Y0041239D02*
X0081960Y0041239D01*
X0082249Y0041937D02*
X0096840Y0041937D01*
X0096142Y0042636D02*
X0082419Y0042636D01*
X0082419Y0043334D02*
X0095466Y0043334D01*
X0095177Y0044033D02*
X0082419Y0044033D01*
X0082172Y0044732D02*
X0094888Y0044732D01*
X0094598Y0045430D02*
X0081882Y0045430D01*
X0081392Y0046129D02*
X0094326Y0046129D01*
X0094326Y0046827D02*
X0080694Y0046827D01*
X0079323Y0047526D02*
X0094326Y0047526D01*
X0107011Y0041937D02*
X0112976Y0041937D01*
X0112976Y0042636D02*
X0107710Y0042636D01*
X0108385Y0043334D02*
X0112976Y0043334D01*
X0113244Y0044033D02*
X0108674Y0044033D01*
X0108964Y0044732D02*
X0113533Y0044732D01*
X0120318Y0044732D02*
X0207576Y0044732D01*
X0207576Y0044033D02*
X0120607Y0044033D01*
X0120876Y0043334D02*
X0148420Y0043334D01*
X0147721Y0042636D02*
X0146130Y0042636D01*
X0146829Y0041937D02*
X0147376Y0041937D01*
X0147376Y0041239D02*
X0147276Y0041239D01*
X0147276Y0040540D02*
X0147376Y0040540D01*
X0144121Y0042636D02*
X0120876Y0042636D01*
X0120876Y0041937D02*
X0143423Y0041937D01*
X0142976Y0041239D02*
X0120637Y0041239D01*
X0120348Y0040540D02*
X0142976Y0040540D01*
X0142976Y0039842D02*
X0119754Y0039842D01*
X0118903Y0039143D02*
X0143542Y0039143D01*
X0150632Y0043334D02*
X0207576Y0043334D01*
X0207996Y0045430D02*
X0208115Y0045430D01*
X0208695Y0046129D02*
X0208814Y0046129D01*
X0211876Y0044732D02*
X0215417Y0044732D01*
X0214718Y0044033D02*
X0211876Y0044033D01*
X0211876Y0043334D02*
X0214176Y0043334D01*
X0214176Y0042636D02*
X0211402Y0042636D01*
X0210704Y0041937D02*
X0214176Y0041937D01*
X0217307Y0040540D02*
X0239376Y0040540D01*
X0239376Y0041239D02*
X0218005Y0041239D01*
X0218476Y0041937D02*
X0240023Y0041937D01*
X0243029Y0041937D02*
X0291540Y0041937D01*
X0292239Y0041239D02*
X0274527Y0041239D01*
X0274216Y0041550D02*
X0272435Y0041550D01*
X0271176Y0040291D01*
X0271176Y0038509D01*
X0271985Y0037700D01*
X0271176Y0036891D01*
X0271176Y0035109D01*
X0272435Y0033850D01*
X0274216Y0033850D01*
X0275476Y0035109D01*
X0275476Y0036891D01*
X0274666Y0037700D01*
X0275476Y0038509D01*
X0275476Y0040291D01*
X0274216Y0041550D01*
X0275226Y0040540D02*
X0293809Y0040540D01*
X0290842Y0042636D02*
X0218476Y0042636D01*
X0218476Y0043334D02*
X0290166Y0043334D01*
X0289877Y0044033D02*
X0217933Y0044033D01*
X0217235Y0044732D02*
X0289588Y0044732D01*
X0299442Y0040540D02*
X0337381Y0040540D01*
X0337241Y0040879D02*
X0337701Y0039768D01*
X0338552Y0038917D01*
X0339663Y0038457D01*
X0340866Y0038457D01*
X0341977Y0038917D01*
X0342827Y0039768D01*
X0343287Y0040879D01*
X0343287Y0042082D01*
X0342827Y0043193D01*
X0341977Y0044043D01*
X0340866Y0044504D01*
X0339663Y0044504D01*
X0338552Y0044043D01*
X0337701Y0043193D01*
X0337241Y0042082D01*
X0337241Y0040879D01*
X0337241Y0041239D02*
X0301013Y0041239D01*
X0301711Y0041937D02*
X0337241Y0041937D01*
X0337471Y0042636D02*
X0302410Y0042636D01*
X0303085Y0043334D02*
X0337843Y0043334D01*
X0338541Y0044033D02*
X0303374Y0044033D01*
X0303664Y0044732D02*
X0355576Y0044732D01*
X0355576Y0045430D02*
X0303953Y0045430D01*
X0304226Y0046129D02*
X0355576Y0046129D01*
X0355576Y0046827D02*
X0304226Y0046827D01*
X0304226Y0047526D02*
X0355576Y0047526D01*
X0355576Y0048224D02*
X0304226Y0048224D01*
X0304226Y0048923D02*
X0355576Y0048923D01*
X0355576Y0049621D02*
X0304015Y0049621D01*
X0303725Y0050320D02*
X0355576Y0050320D01*
X0355576Y0051018D02*
X0303436Y0051018D01*
X0303147Y0051717D02*
X0355576Y0051717D01*
X0355576Y0052415D02*
X0326381Y0052415D01*
X0327541Y0053114D02*
X0355576Y0053114D01*
X0355576Y0053812D02*
X0328207Y0053812D01*
X0328496Y0054511D02*
X0355576Y0054511D01*
X0355576Y0055209D02*
X0328733Y0055209D01*
X0328733Y0055908D02*
X0355576Y0055908D01*
X0355576Y0056606D02*
X0328696Y0056606D01*
X0328407Y0057305D02*
X0355576Y0057305D01*
X0355576Y0058003D02*
X0328024Y0058003D01*
X0327326Y0058702D02*
X0355576Y0058702D01*
X0355576Y0059400D02*
X0325861Y0059400D01*
X0324391Y0059400D02*
X0215966Y0059400D01*
X0215267Y0060099D02*
X0355576Y0060099D01*
X0355576Y0060797D02*
X0338750Y0060797D01*
X0339363Y0061051D02*
X0340474Y0062162D01*
X0341076Y0063614D01*
X0341076Y0065186D01*
X0340474Y0066637D01*
X0339363Y0067749D01*
X0337911Y0068350D01*
X0336340Y0068350D01*
X0334888Y0067749D01*
X0333777Y0066637D01*
X0333176Y0065186D01*
X0333176Y0063614D01*
X0333777Y0062162D01*
X0334888Y0061051D01*
X0336340Y0060450D01*
X0337911Y0060450D01*
X0339363Y0061051D01*
X0339808Y0061496D02*
X0355576Y0061496D01*
X0355576Y0062194D02*
X0340487Y0062194D01*
X0340777Y0062893D02*
X0355576Y0062893D01*
X0355576Y0063591D02*
X0341066Y0063591D01*
X0341076Y0064290D02*
X0355576Y0064290D01*
X0355576Y0064988D02*
X0341076Y0064988D01*
X0340868Y0065687D02*
X0355576Y0065687D01*
X0355576Y0066385D02*
X0340579Y0066385D01*
X0340028Y0067084D02*
X0355576Y0067084D01*
X0355576Y0067782D02*
X0339282Y0067782D01*
X0338795Y0070369D02*
X0338144Y0070157D01*
X0337476Y0070051D01*
X0337476Y0074050D01*
X0341474Y0074050D01*
X0341368Y0073381D01*
X0341157Y0072730D01*
X0340846Y0072120D01*
X0340444Y0071566D01*
X0339959Y0071082D01*
X0339405Y0070680D01*
X0338795Y0070369D01*
X0339203Y0070576D02*
X0355576Y0070576D01*
X0355576Y0069878D02*
X0082734Y0069878D01*
X0082544Y0069179D02*
X0355576Y0069179D01*
X0355576Y0068481D02*
X0274485Y0068481D01*
X0274216Y0068750D02*
X0272435Y0068750D01*
X0271176Y0067491D01*
X0271176Y0065709D01*
X0272435Y0064450D01*
X0274216Y0064450D01*
X0275476Y0065709D01*
X0275476Y0067491D01*
X0274216Y0068750D01*
X0275184Y0067782D02*
X0334970Y0067782D01*
X0334223Y0067084D02*
X0275476Y0067084D01*
X0275476Y0066385D02*
X0280670Y0066385D01*
X0281035Y0066750D02*
X0279776Y0065491D01*
X0279776Y0063709D01*
X0281035Y0062450D01*
X0282816Y0062450D01*
X0284076Y0063709D01*
X0284076Y0065491D01*
X0282816Y0066750D01*
X0281035Y0066750D01*
X0279972Y0065687D02*
X0275453Y0065687D01*
X0274754Y0064988D02*
X0279776Y0064988D01*
X0279776Y0064290D02*
X0248676Y0064290D01*
X0248676Y0063909D02*
X0247416Y0062650D01*
X0245635Y0062650D01*
X0244376Y0063909D01*
X0244376Y0065409D01*
X0243216Y0064250D01*
X0241435Y0064250D01*
X0240176Y0065509D01*
X0240176Y0067291D01*
X0241435Y0068550D01*
X0243216Y0068550D01*
X0244476Y0067291D01*
X0244476Y0065791D01*
X0245635Y0066950D01*
X0247416Y0066950D01*
X0248676Y0065691D01*
X0248676Y0063909D01*
X0248357Y0063591D02*
X0279894Y0063591D01*
X0280592Y0062893D02*
X0247659Y0062893D01*
X0245392Y0062893D02*
X0230459Y0062893D01*
X0230016Y0062450D02*
X0231276Y0063709D01*
X0231276Y0065491D01*
X0230016Y0066750D01*
X0228235Y0066750D01*
X0226976Y0065491D01*
X0226976Y0063709D01*
X0228235Y0062450D01*
X0230016Y0062450D01*
X0231157Y0063591D02*
X0244694Y0063591D01*
X0244376Y0064290D02*
X0243256Y0064290D01*
X0243954Y0064988D02*
X0244376Y0064988D01*
X0244476Y0066385D02*
X0245070Y0066385D01*
X0244476Y0067084D02*
X0271176Y0067084D01*
X0271176Y0066385D02*
X0247981Y0066385D01*
X0248676Y0065687D02*
X0271198Y0065687D01*
X0271897Y0064988D02*
X0248676Y0064988D01*
X0243984Y0067782D02*
X0271467Y0067782D01*
X0272166Y0068481D02*
X0243285Y0068481D01*
X0241366Y0068481D02*
X0238485Y0068481D01*
X0238416Y0068550D02*
X0236635Y0068550D01*
X0235376Y0067291D01*
X0235376Y0065509D01*
X0236635Y0064250D01*
X0238416Y0064250D01*
X0239676Y0065509D01*
X0239676Y0067291D01*
X0238416Y0068550D01*
X0239184Y0067782D02*
X0240667Y0067782D01*
X0240176Y0067084D02*
X0239676Y0067084D01*
X0239676Y0066385D02*
X0240176Y0066385D01*
X0240176Y0065687D02*
X0239676Y0065687D01*
X0239154Y0064988D02*
X0240697Y0064988D01*
X0241395Y0064290D02*
X0238456Y0064290D01*
X0236595Y0064290D02*
X0231276Y0064290D01*
X0231276Y0064988D02*
X0235897Y0064988D01*
X0235376Y0065687D02*
X0231079Y0065687D01*
X0230381Y0066385D02*
X0235376Y0066385D01*
X0235376Y0067084D02*
X0081130Y0067084D01*
X0081782Y0067782D02*
X0235867Y0067782D01*
X0236566Y0068481D02*
X0082236Y0068481D01*
X0075811Y0066385D02*
X0018276Y0066385D01*
X0018276Y0065687D02*
X0043572Y0065687D01*
X0042873Y0064988D02*
X0018276Y0064988D01*
X0018276Y0064290D02*
X0042776Y0064290D01*
X0042776Y0063591D02*
X0018276Y0063591D01*
X0018276Y0062893D02*
X0042992Y0062893D01*
X0043691Y0062194D02*
X0018276Y0062194D01*
X0018276Y0061496D02*
X0076988Y0061496D01*
X0075348Y0060797D02*
X0018276Y0060797D01*
X0018276Y0060099D02*
X0074649Y0060099D01*
X0074048Y0059400D02*
X0018276Y0059400D01*
X0018276Y0058702D02*
X0073758Y0058702D01*
X0073469Y0058003D02*
X0018276Y0058003D01*
X0018276Y0057305D02*
X0073432Y0057305D01*
X0073432Y0056606D02*
X0055360Y0056606D01*
X0055016Y0056950D02*
X0053235Y0056950D01*
X0051976Y0055691D01*
X0051976Y0053909D01*
X0053235Y0052650D01*
X0055016Y0052650D01*
X0056276Y0053909D01*
X0056276Y0055691D01*
X0055016Y0056950D01*
X0056058Y0055908D02*
X0073523Y0055908D01*
X0073812Y0055209D02*
X0056276Y0055209D01*
X0056276Y0054511D02*
X0074102Y0054511D01*
X0074779Y0053812D02*
X0056178Y0053812D01*
X0055480Y0053114D02*
X0075616Y0053114D01*
X0082328Y0055908D02*
X0114647Y0055908D01*
X0114995Y0058702D02*
X0082093Y0058702D01*
X0081803Y0059400D02*
X0113973Y0059400D01*
X0113366Y0060099D02*
X0081202Y0060099D01*
X0080503Y0060797D02*
X0112962Y0060797D01*
X0112710Y0061496D02*
X0078863Y0061496D01*
X0082382Y0058003D02*
X0190376Y0058003D01*
X0190380Y0057305D02*
X0082419Y0057305D01*
X0082419Y0056606D02*
X0191079Y0056606D01*
X0191399Y0053114D02*
X0143476Y0053114D01*
X0142981Y0052415D02*
X0190700Y0052415D01*
X0190576Y0051717D02*
X0142283Y0051717D01*
X0140368Y0051717D02*
X0120835Y0051717D01*
X0120876Y0052415D02*
X0139670Y0052415D01*
X0139176Y0053114D02*
X0120876Y0053114D01*
X0120699Y0053812D02*
X0139176Y0053812D01*
X0139176Y0054511D02*
X0120410Y0054511D01*
X0119903Y0055209D02*
X0139694Y0055209D01*
X0140393Y0055908D02*
X0119204Y0055908D01*
X0120546Y0051018D02*
X0190576Y0051018D01*
X0190765Y0050320D02*
X0120231Y0050320D01*
X0119533Y0049621D02*
X0188106Y0049621D01*
X0187408Y0048923D02*
X0118369Y0048923D01*
X0113214Y0041239D02*
X0106313Y0041239D01*
X0104742Y0040540D02*
X0113503Y0040540D01*
X0113692Y0034952D02*
X0063076Y0034952D01*
X0062420Y0034254D02*
X0113335Y0034254D01*
X0113046Y0033555D02*
X0079784Y0033555D01*
X0080885Y0032857D02*
X0112976Y0032857D01*
X0112976Y0032158D02*
X0081583Y0032158D01*
X0081961Y0031460D02*
X0113122Y0031460D01*
X0113412Y0030761D02*
X0082251Y0030761D01*
X0082419Y0030063D02*
X0113877Y0030063D01*
X0114575Y0029364D02*
X0092402Y0029364D01*
X0092016Y0029750D02*
X0090235Y0029750D01*
X0089026Y0028541D01*
X0087816Y0029750D01*
X0086035Y0029750D01*
X0084776Y0028491D01*
X0084776Y0026709D01*
X0086035Y0025450D01*
X0087816Y0025450D01*
X0089026Y0026659D01*
X0090235Y0025450D01*
X0092016Y0025450D01*
X0093276Y0026709D01*
X0093276Y0028491D01*
X0092016Y0029750D01*
X0093100Y0028666D02*
X0116102Y0028666D01*
X0117749Y0028666D02*
X0205976Y0028666D01*
X0205976Y0027967D02*
X0093276Y0027967D01*
X0093276Y0027269D02*
X0205976Y0027269D01*
X0206515Y0026570D02*
X0093136Y0026570D01*
X0092438Y0025872D02*
X0207213Y0025872D01*
X0206449Y0029364D02*
X0119276Y0029364D01*
X0119082Y0020982D02*
X0124769Y0020982D01*
X0124023Y0020284D02*
X0119828Y0020284D01*
X0120379Y0019585D02*
X0123472Y0019585D01*
X0123183Y0018887D02*
X0120668Y0018887D01*
X0120876Y0018188D02*
X0122976Y0018188D01*
X0122976Y0017490D02*
X0120876Y0017490D01*
X0120866Y0016791D02*
X0122985Y0016791D01*
X0123275Y0016093D02*
X0120577Y0016093D01*
X0120287Y0015394D02*
X0123564Y0015394D01*
X0124244Y0014696D02*
X0119607Y0014696D01*
X0118549Y0013997D02*
X0125302Y0013997D01*
X0128549Y0013997D02*
X0135302Y0013997D01*
X0134244Y0014696D02*
X0129607Y0014696D01*
X0130287Y0015394D02*
X0133564Y0015394D01*
X0133275Y0016093D02*
X0130577Y0016093D01*
X0130866Y0016791D02*
X0132985Y0016791D01*
X0132976Y0017490D02*
X0130876Y0017490D01*
X0130876Y0018188D02*
X0132976Y0018188D01*
X0133183Y0018887D02*
X0130668Y0018887D01*
X0130379Y0019585D02*
X0133472Y0019585D01*
X0134023Y0020284D02*
X0129828Y0020284D01*
X0129082Y0020982D02*
X0134769Y0020982D01*
X0139082Y0020982D02*
X0144769Y0020982D01*
X0144023Y0020284D02*
X0139828Y0020284D01*
X0140379Y0019585D02*
X0143472Y0019585D01*
X0143183Y0018887D02*
X0140668Y0018887D01*
X0140876Y0018188D02*
X0142976Y0018188D01*
X0142976Y0017490D02*
X0140876Y0017490D01*
X0140866Y0016791D02*
X0142985Y0016791D01*
X0143275Y0016093D02*
X0140577Y0016093D01*
X0140287Y0015394D02*
X0143564Y0015394D01*
X0144244Y0014696D02*
X0139607Y0014696D01*
X0138549Y0013997D02*
X0145302Y0013997D01*
X0148549Y0013997D02*
X0155302Y0013997D01*
X0154244Y0014696D02*
X0149607Y0014696D01*
X0150287Y0015394D02*
X0153564Y0015394D01*
X0153275Y0016093D02*
X0150577Y0016093D01*
X0150866Y0016791D02*
X0152985Y0016791D01*
X0152976Y0017490D02*
X0150876Y0017490D01*
X0150876Y0018188D02*
X0152976Y0018188D01*
X0153183Y0018887D02*
X0150668Y0018887D01*
X0150379Y0019585D02*
X0153472Y0019585D01*
X0154023Y0020284D02*
X0149828Y0020284D01*
X0149082Y0020982D02*
X0154769Y0020982D01*
X0159082Y0020982D02*
X0164769Y0020982D01*
X0164023Y0020284D02*
X0159828Y0020284D01*
X0160379Y0019585D02*
X0163472Y0019585D01*
X0163183Y0018887D02*
X0160668Y0018887D01*
X0160876Y0018188D02*
X0162976Y0018188D01*
X0162976Y0017490D02*
X0160876Y0017490D01*
X0160866Y0016791D02*
X0162985Y0016791D01*
X0163275Y0016093D02*
X0160577Y0016093D01*
X0160287Y0015394D02*
X0163564Y0015394D01*
X0164244Y0014696D02*
X0159607Y0014696D01*
X0158549Y0013997D02*
X0165302Y0013997D01*
X0168549Y0013997D02*
X0175302Y0013997D01*
X0174244Y0014696D02*
X0169607Y0014696D01*
X0170287Y0015394D02*
X0173564Y0015394D01*
X0173275Y0016093D02*
X0170577Y0016093D01*
X0170866Y0016791D02*
X0172985Y0016791D01*
X0172976Y0017490D02*
X0170876Y0017490D01*
X0170876Y0018188D02*
X0172976Y0018188D01*
X0173183Y0018887D02*
X0170668Y0018887D01*
X0170379Y0019585D02*
X0173472Y0019585D01*
X0174023Y0020284D02*
X0169828Y0020284D01*
X0169082Y0020982D02*
X0174769Y0020982D01*
X0179082Y0020982D02*
X0184769Y0020982D01*
X0184023Y0020284D02*
X0179828Y0020284D01*
X0180379Y0019585D02*
X0183472Y0019585D01*
X0183183Y0018887D02*
X0180668Y0018887D01*
X0180876Y0018188D02*
X0182976Y0018188D01*
X0182976Y0017490D02*
X0180876Y0017490D01*
X0180866Y0016791D02*
X0182985Y0016791D01*
X0183275Y0016093D02*
X0180577Y0016093D01*
X0180287Y0015394D02*
X0183564Y0015394D01*
X0184244Y0014696D02*
X0179607Y0014696D01*
X0178549Y0013997D02*
X0185302Y0013997D01*
X0188549Y0013997D02*
X0195302Y0013997D01*
X0194244Y0014696D02*
X0189607Y0014696D01*
X0190287Y0015394D02*
X0193564Y0015394D01*
X0193275Y0016093D02*
X0190577Y0016093D01*
X0190866Y0016791D02*
X0192985Y0016791D01*
X0192976Y0017490D02*
X0190876Y0017490D01*
X0190876Y0018188D02*
X0192976Y0018188D01*
X0193183Y0018887D02*
X0190668Y0018887D01*
X0190379Y0019585D02*
X0193472Y0019585D01*
X0194023Y0020284D02*
X0189828Y0020284D01*
X0189082Y0020982D02*
X0194769Y0020982D01*
X0199082Y0020982D02*
X0204769Y0020982D01*
X0204023Y0020284D02*
X0199828Y0020284D01*
X0200379Y0019585D02*
X0203472Y0019585D01*
X0203183Y0018887D02*
X0200668Y0018887D01*
X0200876Y0018188D02*
X0202976Y0018188D01*
X0202976Y0017490D02*
X0200876Y0017490D01*
X0200866Y0016791D02*
X0202985Y0016791D01*
X0203275Y0016093D02*
X0200577Y0016093D01*
X0200287Y0015394D02*
X0203564Y0015394D01*
X0204244Y0014696D02*
X0199607Y0014696D01*
X0198549Y0013997D02*
X0205302Y0013997D01*
X0208549Y0013997D02*
X0215302Y0013997D01*
X0214244Y0014696D02*
X0209607Y0014696D01*
X0210287Y0015394D02*
X0213564Y0015394D01*
X0213275Y0016093D02*
X0210577Y0016093D01*
X0210866Y0016791D02*
X0212985Y0016791D01*
X0212976Y0017490D02*
X0210876Y0017490D01*
X0210876Y0018188D02*
X0212976Y0018188D01*
X0213183Y0018887D02*
X0210668Y0018887D01*
X0210379Y0019585D02*
X0213472Y0019585D01*
X0214023Y0020284D02*
X0209828Y0020284D01*
X0209082Y0020982D02*
X0214769Y0020982D01*
X0219082Y0020982D02*
X0224769Y0020982D01*
X0224023Y0020284D02*
X0219828Y0020284D01*
X0220379Y0019585D02*
X0223472Y0019585D01*
X0223183Y0018887D02*
X0220668Y0018887D01*
X0220876Y0018188D02*
X0222976Y0018188D01*
X0222976Y0017490D02*
X0220876Y0017490D01*
X0220866Y0016791D02*
X0222985Y0016791D01*
X0223275Y0016093D02*
X0220577Y0016093D01*
X0220287Y0015394D02*
X0223564Y0015394D01*
X0224244Y0014696D02*
X0219607Y0014696D01*
X0218549Y0013997D02*
X0225302Y0013997D01*
X0228549Y0013997D02*
X0235302Y0013997D01*
X0234244Y0014696D02*
X0229607Y0014696D01*
X0230287Y0015394D02*
X0233564Y0015394D01*
X0233275Y0016093D02*
X0230577Y0016093D01*
X0230866Y0016791D02*
X0232985Y0016791D01*
X0232976Y0017490D02*
X0230876Y0017490D01*
X0230876Y0018188D02*
X0232976Y0018188D01*
X0233183Y0018887D02*
X0230668Y0018887D01*
X0230379Y0019585D02*
X0233472Y0019585D01*
X0234023Y0020284D02*
X0229828Y0020284D01*
X0229082Y0020982D02*
X0234769Y0020982D01*
X0239082Y0020982D02*
X0244769Y0020982D01*
X0244023Y0020284D02*
X0239828Y0020284D01*
X0240379Y0019585D02*
X0243472Y0019585D01*
X0243183Y0018887D02*
X0240668Y0018887D01*
X0240876Y0018188D02*
X0242976Y0018188D01*
X0242976Y0017490D02*
X0240876Y0017490D01*
X0240866Y0016791D02*
X0242985Y0016791D01*
X0243275Y0016093D02*
X0240577Y0016093D01*
X0240287Y0015394D02*
X0243564Y0015394D01*
X0244244Y0014696D02*
X0239607Y0014696D01*
X0238549Y0013997D02*
X0245302Y0013997D01*
X0248549Y0013997D02*
X0255302Y0013997D01*
X0254244Y0014696D02*
X0249607Y0014696D01*
X0250287Y0015394D02*
X0253564Y0015394D01*
X0253275Y0016093D02*
X0250577Y0016093D01*
X0250866Y0016791D02*
X0252985Y0016791D01*
X0252976Y0017490D02*
X0250876Y0017490D01*
X0250876Y0018188D02*
X0252976Y0018188D01*
X0253183Y0018887D02*
X0250668Y0018887D01*
X0250379Y0019585D02*
X0253472Y0019585D01*
X0254023Y0020284D02*
X0249828Y0020284D01*
X0249082Y0020982D02*
X0254769Y0020982D01*
X0259082Y0020982D02*
X0264769Y0020982D01*
X0264023Y0020284D02*
X0259828Y0020284D01*
X0260379Y0019585D02*
X0263472Y0019585D01*
X0263183Y0018887D02*
X0260668Y0018887D01*
X0260876Y0018188D02*
X0262976Y0018188D01*
X0262976Y0017490D02*
X0260876Y0017490D01*
X0260866Y0016791D02*
X0262985Y0016791D01*
X0263275Y0016093D02*
X0260577Y0016093D01*
X0260287Y0015394D02*
X0263564Y0015394D01*
X0264244Y0014696D02*
X0259607Y0014696D01*
X0258549Y0013997D02*
X0265302Y0013997D01*
X0268549Y0013997D02*
X0275302Y0013997D01*
X0274244Y0014696D02*
X0269607Y0014696D01*
X0270287Y0015394D02*
X0273564Y0015394D01*
X0273275Y0016093D02*
X0270577Y0016093D01*
X0270866Y0016791D02*
X0272985Y0016791D01*
X0272976Y0017490D02*
X0270876Y0017490D01*
X0270876Y0018188D02*
X0272976Y0018188D01*
X0273183Y0018887D02*
X0270668Y0018887D01*
X0270379Y0019585D02*
X0273472Y0019585D01*
X0274023Y0020284D02*
X0269828Y0020284D01*
X0269082Y0020982D02*
X0274769Y0020982D01*
X0279082Y0020982D02*
X0284769Y0020982D01*
X0284023Y0020284D02*
X0279828Y0020284D01*
X0280379Y0019585D02*
X0283472Y0019585D01*
X0283183Y0018887D02*
X0280668Y0018887D01*
X0280876Y0018188D02*
X0282976Y0018188D01*
X0282976Y0017490D02*
X0280876Y0017490D01*
X0280866Y0016791D02*
X0282985Y0016791D01*
X0283275Y0016093D02*
X0280577Y0016093D01*
X0280287Y0015394D02*
X0283564Y0015394D01*
X0284244Y0014696D02*
X0279607Y0014696D01*
X0278549Y0013997D02*
X0285302Y0013997D01*
X0288549Y0013997D02*
X0295302Y0013997D01*
X0294244Y0014696D02*
X0289607Y0014696D01*
X0290287Y0015394D02*
X0293564Y0015394D01*
X0293275Y0016093D02*
X0290577Y0016093D01*
X0290866Y0016791D02*
X0292985Y0016791D01*
X0292976Y0017490D02*
X0290876Y0017490D01*
X0290876Y0018188D02*
X0292976Y0018188D01*
X0293183Y0018887D02*
X0290668Y0018887D01*
X0290379Y0019585D02*
X0293472Y0019585D01*
X0294023Y0020284D02*
X0289828Y0020284D01*
X0289082Y0020982D02*
X0294769Y0020982D01*
X0299082Y0020982D02*
X0304180Y0020982D01*
X0303498Y0020284D02*
X0299828Y0020284D01*
X0300379Y0019585D02*
X0303055Y0019585D01*
X0302770Y0018887D02*
X0300668Y0018887D01*
X0300876Y0018188D02*
X0302615Y0018188D01*
X0302649Y0016791D02*
X0300866Y0016791D01*
X0300876Y0017490D02*
X0306576Y0017490D01*
X0306576Y0018188D02*
X0307276Y0018188D01*
X0307276Y0017490D02*
X0312976Y0017490D01*
X0312976Y0018188D02*
X0311237Y0018188D01*
X0311081Y0018887D02*
X0313183Y0018887D01*
X0313472Y0019585D02*
X0310796Y0019585D01*
X0310353Y0020284D02*
X0314023Y0020284D01*
X0314769Y0020982D02*
X0309671Y0020982D01*
X0308444Y0021681D02*
X0355576Y0021681D01*
X0355576Y0022379D02*
X0018276Y0022379D01*
X0018276Y0021681D02*
X0095408Y0021681D01*
X0096576Y0021681D02*
X0097276Y0021681D01*
X0097276Y0020982D02*
X0096576Y0020982D01*
X0096576Y0020284D02*
X0097276Y0020284D01*
X0097276Y0019585D02*
X0096576Y0019585D01*
X0096576Y0018887D02*
X0097276Y0018887D01*
X0097276Y0018188D02*
X0096576Y0018188D01*
X0096576Y0017490D02*
X0090876Y0017490D01*
X0090876Y0018188D02*
X0092615Y0018188D01*
X0092770Y0018887D02*
X0090668Y0018887D01*
X0090379Y0019585D02*
X0093055Y0019585D01*
X0093498Y0020284D02*
X0089828Y0020284D01*
X0089082Y0020982D02*
X0094180Y0020982D01*
X0098444Y0021681D02*
X0305408Y0021681D01*
X0306576Y0021681D02*
X0307276Y0021681D01*
X0307276Y0020982D02*
X0306576Y0020982D01*
X0306576Y0020284D02*
X0307276Y0020284D01*
X0307276Y0019585D02*
X0306576Y0019585D01*
X0306576Y0018887D02*
X0307276Y0018887D01*
X0311202Y0016791D02*
X0312985Y0016791D01*
X0313275Y0016093D02*
X0311010Y0016093D01*
X0310684Y0015394D02*
X0313564Y0015394D01*
X0314244Y0014696D02*
X0310173Y0014696D01*
X0309367Y0013997D02*
X0315302Y0013997D01*
X0318549Y0013997D02*
X0355576Y0013997D01*
X0355576Y0014696D02*
X0319607Y0014696D01*
X0320287Y0015394D02*
X0355576Y0015394D01*
X0355576Y0016093D02*
X0320577Y0016093D01*
X0320866Y0016791D02*
X0355576Y0016791D01*
X0355576Y0017490D02*
X0320876Y0017490D01*
X0320876Y0018188D02*
X0355576Y0018188D01*
X0355576Y0018887D02*
X0320668Y0018887D01*
X0320379Y0019585D02*
X0355576Y0019585D01*
X0355576Y0020284D02*
X0319828Y0020284D01*
X0319082Y0020982D02*
X0355576Y0020982D01*
X0355576Y0023078D02*
X0018276Y0023078D01*
X0018276Y0023776D02*
X0338987Y0023776D01*
X0338552Y0023957D02*
X0339663Y0023496D01*
X0340866Y0023496D01*
X0341977Y0023957D01*
X0342827Y0024807D01*
X0343287Y0025918D01*
X0343287Y0027121D01*
X0342827Y0028232D01*
X0341977Y0029083D01*
X0340866Y0029543D01*
X0339663Y0029543D01*
X0338552Y0029083D01*
X0337701Y0028232D01*
X0337241Y0027121D01*
X0337241Y0025918D01*
X0337701Y0024807D01*
X0338552Y0023957D01*
X0338034Y0024475D02*
X0018276Y0024475D01*
X0018276Y0020982D02*
X0074769Y0020982D01*
X0074023Y0020284D02*
X0018276Y0020284D01*
X0018276Y0019585D02*
X0073472Y0019585D01*
X0073183Y0018887D02*
X0018276Y0018887D01*
X0018276Y0018188D02*
X0072976Y0018188D01*
X0072976Y0017490D02*
X0018276Y0017490D01*
X0018276Y0016791D02*
X0072985Y0016791D01*
X0073275Y0016093D02*
X0018276Y0016093D01*
X0018276Y0015394D02*
X0073564Y0015394D01*
X0074244Y0014696D02*
X0018276Y0014696D01*
X0018276Y0013997D02*
X0075302Y0013997D01*
X0078549Y0013997D02*
X0085302Y0013997D01*
X0084244Y0014696D02*
X0079607Y0014696D01*
X0080287Y0015394D02*
X0083564Y0015394D01*
X0083275Y0016093D02*
X0080577Y0016093D01*
X0080866Y0016791D02*
X0082985Y0016791D01*
X0082976Y0017490D02*
X0080876Y0017490D01*
X0080876Y0018188D02*
X0082976Y0018188D01*
X0083183Y0018887D02*
X0080668Y0018887D01*
X0080379Y0019585D02*
X0083472Y0019585D01*
X0084023Y0020284D02*
X0079828Y0020284D01*
X0079082Y0020982D02*
X0084769Y0020982D01*
X0090866Y0016791D02*
X0092649Y0016791D01*
X0092842Y0016093D02*
X0090577Y0016093D01*
X0090287Y0015394D02*
X0093167Y0015394D01*
X0093678Y0014696D02*
X0089607Y0014696D01*
X0088549Y0013997D02*
X0094484Y0013997D01*
X0099367Y0013997D02*
X0105302Y0013997D01*
X0104244Y0014696D02*
X0100173Y0014696D01*
X0100684Y0015394D02*
X0103564Y0015394D01*
X0103275Y0016093D02*
X0101010Y0016093D01*
X0101202Y0016791D02*
X0102985Y0016791D01*
X0102976Y0017490D02*
X0097276Y0017490D01*
X0101237Y0018188D02*
X0102976Y0018188D01*
X0103183Y0018887D02*
X0101081Y0018887D01*
X0100796Y0019585D02*
X0103472Y0019585D01*
X0104023Y0020284D02*
X0100353Y0020284D01*
X0099671Y0020982D02*
X0104769Y0020982D01*
X0109082Y0020982D02*
X0114769Y0020982D01*
X0114023Y0020284D02*
X0109828Y0020284D01*
X0110379Y0019585D02*
X0113472Y0019585D01*
X0113183Y0018887D02*
X0110668Y0018887D01*
X0110876Y0018188D02*
X0112976Y0018188D01*
X0112976Y0017490D02*
X0110876Y0017490D01*
X0110866Y0016791D02*
X0112985Y0016791D01*
X0113275Y0016093D02*
X0110577Y0016093D01*
X0110287Y0015394D02*
X0113564Y0015394D01*
X0114244Y0014696D02*
X0109607Y0014696D01*
X0108549Y0013997D02*
X0115302Y0013997D01*
X0089813Y0025872D02*
X0088238Y0025872D01*
X0088936Y0026570D02*
X0089115Y0026570D01*
X0085613Y0025872D02*
X0080690Y0025872D01*
X0081389Y0026570D02*
X0084915Y0026570D01*
X0084776Y0027269D02*
X0081881Y0027269D01*
X0082170Y0027967D02*
X0084776Y0027967D01*
X0084951Y0028666D02*
X0082419Y0028666D01*
X0082419Y0029364D02*
X0085649Y0029364D01*
X0088202Y0029364D02*
X0089849Y0029364D01*
X0089151Y0028666D02*
X0088900Y0028666D01*
X0052771Y0053114D02*
X0018276Y0053114D01*
X0018276Y0053812D02*
X0052073Y0053812D01*
X0051976Y0054511D02*
X0018276Y0054511D01*
X0018276Y0055209D02*
X0051976Y0055209D01*
X0052193Y0055908D02*
X0018276Y0055908D01*
X0018276Y0056606D02*
X0052891Y0056606D01*
X0035647Y0068481D02*
X0073615Y0068481D01*
X0073307Y0069179D02*
X0036276Y0069179D01*
X0018276Y0073370D02*
X0073745Y0073370D01*
X0074274Y0074069D02*
X0018276Y0074069D01*
X0018276Y0074768D02*
X0075061Y0074768D01*
X0076451Y0075466D02*
X0018276Y0075466D01*
X0080790Y0074768D02*
X0124172Y0074768D01*
X0125128Y0074069D02*
X0081577Y0074069D01*
X0121266Y0062194D02*
X0196291Y0062194D01*
X0196176Y0062309D02*
X0196176Y0064091D01*
X0197435Y0065350D01*
X0199216Y0065350D01*
X0200476Y0064091D01*
X0200476Y0062309D01*
X0199216Y0061050D01*
X0197435Y0061050D01*
X0196176Y0062309D01*
X0196176Y0062893D02*
X0161893Y0062893D01*
X0162591Y0063591D02*
X0196176Y0063591D01*
X0196375Y0064290D02*
X0162710Y0064290D01*
X0162710Y0064988D02*
X0197073Y0064988D01*
X0199578Y0064988D02*
X0226976Y0064988D01*
X0226976Y0064290D02*
X0200276Y0064290D01*
X0200476Y0063591D02*
X0227094Y0063591D01*
X0227792Y0062893D02*
X0200476Y0062893D01*
X0200360Y0062194D02*
X0333764Y0062194D01*
X0333474Y0062893D02*
X0283259Y0062893D01*
X0283957Y0063591D02*
X0333185Y0063591D01*
X0333176Y0064290D02*
X0284076Y0064290D01*
X0284076Y0064988D02*
X0333176Y0064988D01*
X0333383Y0065687D02*
X0283879Y0065687D01*
X0283181Y0066385D02*
X0333673Y0066385D01*
X0336776Y0070576D02*
X0337476Y0070576D01*
X0337476Y0071275D02*
X0336776Y0071275D01*
X0336776Y0071973D02*
X0337476Y0071973D01*
X0337476Y0072672D02*
X0336776Y0072672D01*
X0336776Y0073370D02*
X0337476Y0073370D01*
X0337476Y0074069D02*
X0355576Y0074069D01*
X0355576Y0073370D02*
X0341365Y0073370D01*
X0341127Y0072672D02*
X0355576Y0072672D01*
X0355576Y0071973D02*
X0340739Y0071973D01*
X0340152Y0071275D02*
X0355576Y0071275D01*
X0355576Y0074768D02*
X0341472Y0074768D01*
X0341353Y0075466D02*
X0355576Y0075466D01*
X0355576Y0076165D02*
X0341109Y0076165D01*
X0340713Y0076863D02*
X0355576Y0076863D01*
X0355576Y0077562D02*
X0340116Y0077562D01*
X0339131Y0078260D02*
X0355576Y0078260D01*
X0355576Y0078959D02*
X0320638Y0078959D01*
X0320876Y0078260D02*
X0335120Y0078260D01*
X0334135Y0077562D02*
X0320876Y0077562D01*
X0320876Y0076863D02*
X0333538Y0076863D01*
X0333143Y0076165D02*
X0320606Y0076165D01*
X0320317Y0075466D02*
X0332898Y0075466D01*
X0332780Y0074768D02*
X0319679Y0074768D01*
X0318723Y0074069D02*
X0336776Y0074069D01*
X0336776Y0074768D02*
X0337476Y0074768D01*
X0337476Y0075466D02*
X0336776Y0075466D01*
X0336776Y0076165D02*
X0337476Y0076165D01*
X0337476Y0076863D02*
X0336776Y0076863D01*
X0336776Y0077562D02*
X0337476Y0077562D01*
X0337476Y0078260D02*
X0336776Y0078260D01*
X0332886Y0073370D02*
X0307985Y0073370D01*
X0309466Y0074069D02*
X0315128Y0074069D01*
X0314172Y0074768D02*
X0310245Y0074768D01*
X0310720Y0075466D02*
X0313534Y0075466D01*
X0313245Y0076165D02*
X0311033Y0076165D01*
X0311213Y0076863D02*
X0312976Y0076863D01*
X0320349Y0079657D02*
X0355576Y0079657D01*
X0355576Y0080356D02*
X0319756Y0080356D01*
X0318908Y0081054D02*
X0355576Y0081054D01*
X0335501Y0060797D02*
X0120889Y0060797D01*
X0121141Y0061496D02*
X0196989Y0061496D01*
X0199662Y0061496D02*
X0334444Y0061496D01*
X0321755Y0054511D02*
X0299801Y0054511D01*
X0301161Y0053812D02*
X0322044Y0053812D01*
X0322710Y0053114D02*
X0301860Y0053114D01*
X0302558Y0052415D02*
X0323871Y0052415D01*
X0341987Y0044033D02*
X0355576Y0044033D01*
X0355576Y0043334D02*
X0342685Y0043334D01*
X0343058Y0042636D02*
X0355576Y0042636D01*
X0355576Y0041937D02*
X0343287Y0041937D01*
X0343287Y0041239D02*
X0355576Y0041239D01*
X0355576Y0040540D02*
X0343147Y0040540D01*
X0342858Y0039842D02*
X0355576Y0039842D01*
X0355576Y0039143D02*
X0342203Y0039143D01*
X0338326Y0039143D02*
X0334423Y0039143D01*
X0334476Y0039091D02*
X0333216Y0040350D01*
X0331435Y0040350D01*
X0330176Y0039091D01*
X0330176Y0037309D01*
X0331435Y0036050D01*
X0331535Y0036050D01*
X0330776Y0035291D01*
X0330776Y0034391D01*
X0330216Y0034950D01*
X0328435Y0034950D01*
X0327176Y0033691D01*
X0327176Y0031909D01*
X0328435Y0030650D01*
X0330216Y0030650D01*
X0331476Y0031909D01*
X0331476Y0032809D01*
X0332035Y0032250D01*
X0333816Y0032250D01*
X0335076Y0033509D01*
X0335076Y0035291D01*
X0333816Y0036550D01*
X0333716Y0036550D01*
X0334476Y0037309D01*
X0334476Y0039091D01*
X0334476Y0038445D02*
X0355576Y0038445D01*
X0355576Y0037746D02*
X0334476Y0037746D01*
X0334214Y0037048D02*
X0355576Y0037048D01*
X0355576Y0036349D02*
X0334017Y0036349D01*
X0334715Y0035651D02*
X0355576Y0035651D01*
X0355576Y0034952D02*
X0335076Y0034952D01*
X0335076Y0034254D02*
X0355576Y0034254D01*
X0355576Y0033555D02*
X0335076Y0033555D01*
X0334423Y0032857D02*
X0355576Y0032857D01*
X0355576Y0032158D02*
X0331476Y0032158D01*
X0331026Y0031460D02*
X0355576Y0031460D01*
X0355576Y0030761D02*
X0330327Y0030761D01*
X0328324Y0030761D02*
X0284127Y0030761D01*
X0284826Y0031460D02*
X0327625Y0031460D01*
X0327176Y0032158D02*
X0285076Y0032158D01*
X0285076Y0032857D02*
X0327176Y0032857D01*
X0327176Y0033555D02*
X0285011Y0033555D01*
X0284312Y0034254D02*
X0327739Y0034254D01*
X0330776Y0034952D02*
X0275319Y0034952D01*
X0275476Y0035651D02*
X0285634Y0035651D01*
X0286235Y0035050D02*
X0288016Y0035050D01*
X0289276Y0036309D01*
X0289276Y0038091D01*
X0288016Y0039350D01*
X0286235Y0039350D01*
X0284976Y0038091D01*
X0284976Y0036309D01*
X0286235Y0035050D01*
X0284976Y0036349D02*
X0275476Y0036349D01*
X0275318Y0037048D02*
X0284976Y0037048D01*
X0284976Y0037746D02*
X0274713Y0037746D01*
X0275411Y0038445D02*
X0285330Y0038445D01*
X0286028Y0039143D02*
X0275476Y0039143D01*
X0275476Y0039842D02*
X0330927Y0039842D01*
X0330228Y0039143D02*
X0288223Y0039143D01*
X0288921Y0038445D02*
X0330176Y0038445D01*
X0330176Y0037746D02*
X0289276Y0037746D01*
X0289276Y0037048D02*
X0330437Y0037048D01*
X0331136Y0036349D02*
X0289276Y0036349D01*
X0288617Y0035651D02*
X0331136Y0035651D01*
X0333724Y0039842D02*
X0337670Y0039842D01*
X0333729Y0030063D02*
X0355576Y0030063D01*
X0355576Y0029364D02*
X0341297Y0029364D01*
X0342394Y0028666D02*
X0355576Y0028666D01*
X0355576Y0027967D02*
X0342937Y0027967D01*
X0343226Y0027269D02*
X0355576Y0027269D01*
X0355576Y0026570D02*
X0343287Y0026570D01*
X0343268Y0025872D02*
X0355576Y0025872D01*
X0355576Y0025173D02*
X0342979Y0025173D01*
X0342495Y0024475D02*
X0355576Y0024475D01*
X0355576Y0023776D02*
X0341541Y0023776D01*
X0337550Y0025173D02*
X0333765Y0025173D01*
X0334464Y0025872D02*
X0337260Y0025872D01*
X0337241Y0026570D02*
X0334765Y0026570D01*
X0334943Y0027269D02*
X0337302Y0027269D01*
X0337591Y0027967D02*
X0334943Y0027967D01*
X0334750Y0028666D02*
X0338135Y0028666D01*
X0339232Y0029364D02*
X0334428Y0029364D01*
X0303167Y0015394D02*
X0300287Y0015394D01*
X0300577Y0016093D02*
X0302842Y0016093D01*
X0303678Y0014696D02*
X0299607Y0014696D01*
X0298549Y0013997D02*
X0304484Y0013997D01*
X0280776Y0032158D02*
X0269524Y0032158D01*
X0270223Y0032857D02*
X0280776Y0032857D01*
X0280840Y0033555D02*
X0270676Y0033555D01*
X0270676Y0034254D02*
X0272031Y0034254D01*
X0271333Y0034952D02*
X0270676Y0034952D01*
X0271176Y0035651D02*
X0270115Y0035651D01*
X0269417Y0036349D02*
X0271176Y0036349D01*
X0271333Y0037048D02*
X0244876Y0037048D01*
X0244876Y0036349D02*
X0267634Y0036349D01*
X0266936Y0035651D02*
X0244817Y0035651D01*
X0244119Y0034952D02*
X0266376Y0034952D01*
X0271939Y0037746D02*
X0244620Y0037746D01*
X0243921Y0038445D02*
X0271240Y0038445D01*
X0271176Y0039143D02*
X0243310Y0039143D01*
X0243676Y0039842D02*
X0271176Y0039842D01*
X0271425Y0040540D02*
X0243676Y0040540D01*
X0243676Y0041239D02*
X0272124Y0041239D01*
X0274620Y0034254D02*
X0281539Y0034254D01*
X0271664Y0049621D02*
X0257787Y0049621D01*
X0258476Y0050320D02*
X0271176Y0050320D01*
X0271176Y0051018D02*
X0258476Y0051018D01*
X0258476Y0051717D02*
X0271176Y0051717D01*
X0271700Y0052415D02*
X0258151Y0052415D01*
X0257452Y0053114D02*
X0272399Y0053114D01*
X0238506Y0049621D02*
X0230587Y0049621D01*
X0230208Y0048923D02*
X0229889Y0048923D01*
X0232844Y0048923D02*
X0237808Y0048923D01*
X0237376Y0048224D02*
X0233542Y0048224D01*
X0233676Y0047526D02*
X0237376Y0047526D01*
X0237376Y0046827D02*
X0233676Y0046827D01*
X0233495Y0046129D02*
X0237956Y0046129D01*
X0199356Y0046129D02*
X0190695Y0046129D01*
X0191393Y0046827D02*
X0198658Y0046827D01*
X0198576Y0047526D02*
X0191676Y0047526D01*
X0191676Y0048224D02*
X0198576Y0048224D01*
X0198808Y0048923D02*
X0191644Y0048923D01*
X0191464Y0049621D02*
X0190945Y0049621D01*
X0193987Y0049621D02*
X0199506Y0049621D01*
X0191237Y0034952D02*
X0172614Y0034952D01*
X0173276Y0034254D02*
X0190539Y0034254D01*
X0190176Y0033555D02*
X0173276Y0033555D01*
X0173276Y0032857D02*
X0190176Y0032857D01*
X0190176Y0032158D02*
X0172924Y0032158D01*
X0172226Y0031460D02*
X0190825Y0031460D01*
X0162513Y0065687D02*
X0227172Y0065687D01*
X0227870Y0066385D02*
X0161815Y0066385D01*
D13*
X0164526Y0068200D03*
X0160560Y0064600D03*
X0141326Y0053800D03*
X0149326Y0047600D03*
X0163526Y0049600D03*
X0180926Y0046400D03*
X0189526Y0048000D03*
X0192726Y0051400D03*
X0197126Y0055600D03*
X0192526Y0058200D03*
X0198326Y0063200D03*
X0214126Y0058200D03*
X0210526Y0056200D03*
X0207126Y0053600D03*
X0204126Y0050000D03*
X0206926Y0047400D03*
X0200726Y0047800D03*
X0209726Y0044000D03*
X0216326Y0042600D03*
X0224726Y0040000D03*
X0214126Y0037600D03*
X0209726Y0039000D03*
X0195126Y0041000D03*
X0191526Y0041000D03*
X0192326Y0033000D03*
X0176326Y0033000D03*
X0171126Y0033400D03*
X0165126Y0035400D03*
X0149526Y0041400D03*
X0145126Y0040600D03*
X0109526Y0029400D03*
X0091126Y0027600D03*
X0086926Y0027600D03*
X0070126Y0037200D03*
X0060926Y0035800D03*
X0052526Y0040600D03*
X0024926Y0036600D03*
X0024926Y0025000D03*
X0054126Y0054800D03*
X0034326Y0058600D03*
X0044926Y0064000D03*
X0034126Y0070000D03*
X0020126Y0069600D03*
X0056526Y0069200D03*
X0056326Y0075200D03*
X0208126Y0028000D03*
X0241526Y0040400D03*
X0242726Y0036600D03*
X0253126Y0034200D03*
X0268526Y0034200D03*
X0273326Y0036000D03*
X0273326Y0039400D03*
X0274326Y0045200D03*
X0286926Y0043800D03*
X0287126Y0037200D03*
X0294526Y0036200D03*
X0282926Y0032600D03*
X0250526Y0043600D03*
X0239526Y0047600D03*
X0231526Y0047200D03*
X0222326Y0049000D03*
X0228926Y0051000D03*
X0225926Y0054400D03*
X0222926Y0057200D03*
X0229126Y0064600D03*
X0237526Y0066400D03*
X0242326Y0066400D03*
X0246526Y0064800D03*
X0255926Y0063200D03*
X0273326Y0066600D03*
X0281926Y0064600D03*
X0251126Y0052000D03*
X0256326Y0051200D03*
X0273326Y0051000D03*
X0279126Y0051000D03*
X0329326Y0032800D03*
X0332926Y0034400D03*
X0332326Y0038200D03*
X0331326Y0044400D03*
D14*
X0325126Y0055800D03*
D15*
X0331926Y0027600D03*
M02*
